<svg width="228" height="138" viewBox="0 0 228 138" fill="none" xmlns="http://www.w3.org/2000/svg">
<g opacity="0.2">
<path d="M220.857 83.4326C208.914 94.0237 196.144 105.033 180.468 107.939C171.435 109.615 161.981 108.451 153.106 110.827C142.389 113.696 133.727 121.353 124.308 127.227C115.174 132.924 104.898 137.089 94.1701 137.873C83.4424 138.657 72.2378 135.825 64 128.889C65.7247 130.341 94.9695 114.359 98.5943 112.76C110.63 107.452 122.78 102.402 135.032 97.617C159.336 88.1251 184.043 79.6725 209.065 72.2918C212.742 71.2072 224.347 65.8638 226.886 68.9458C230.682 73.5524 223.796 80.8269 220.857 83.4326Z" fill="#000063"/>
</g>
<path d="M144 108.085L75.9144 135L2 115.679L71.9765 90L144 108.085Z" fill="white"/>
<path d="M90.9494 112.647C90.8148 113.155 90.4228 113.586 89.8685 113.671C75.4742 115.908 62.2491 117.342 47.6635 118.982C46.0524 119.164 44.3945 117.964 44.0625 116.315C43.7332 114.665 44.7362 112.585 46.3437 112.373C59.3562 110.655 67.8394 109.26 80.6827 107.499C83.7571 105.882 88.5992 108.464 90.7299 111.411C90.9998 111.787 91.0557 112.242 90.9494 112.647Z" fill="#16B768"/>
<path d="M47.3277 120C45.3405 120 43.4887 118.513 43.0822 116.506C42.842 115.309 43.1374 113.924 43.8517 112.889C44.4543 112.015 45.2943 111.469 46.2178 111.347C53.4291 110.4 59.1441 109.567 65.1952 108.685C69.8866 108.001 74.7367 107.295 80.3909 106.523C84.0863 104.757 89.3382 107.784 91.5282 110.796C91.9693 111.406 92.1094 112.18 91.9134 112.921V112.921C91.6642 113.858 90.9181 114.552 90.0125 114.689C76.6541 116.753 64.1689 118.146 50.9506 119.62L47.7715 119.975C47.6224 119.991 47.4747 120 47.3277 120ZM82.844 108.068C82.22 108.068 81.6375 108.188 81.1329 108.452C81.0322 108.505 80.9238 108.539 80.812 108.555C75.0984 109.334 70.2062 110.046 65.4747 110.736C59.4167 111.619 53.6949 112.453 46.4697 113.402C45.9797 113.466 45.6401 113.862 45.4806 114.092C45.0865 114.664 44.914 115.445 45.0417 116.084C45.2646 117.185 46.4373 118.042 47.554 117.916L50.7345 117.561C63.9321 116.089 76.3974 114.699 89.7171 112.64C89.9035 112.612 89.9663 112.427 89.9808 112.372C89.9994 112.301 90.0167 112.165 89.9249 112.038C88.3705 109.9 85.288 108.068 82.844 108.068Z" fill="#000063"/>
<path d="M60.1259 115.702C60.665 114.841 60.7495 113.606 60.219 112.567L60.2143 112.558C60.1157 112.364 60.2026 112.131 60.4099 112.038C60.5868 111.959 60.7926 112.007 60.9115 112.143C61.8654 113.236 62.2621 114.805 61.8192 116.318L61.8051 116.366C61.6713 116.825 61.1651 117.095 60.676 116.969C60.1869 116.844 59.899 116.369 60.0328 115.911C60.0539 115.837 60.0876 115.764 60.1259 115.702Z" fill="#000063"/>
<path d="M71.0891 108.103C71.7386 108.453 72.2683 108.996 72.5958 109.628C72.9257 110.26 73.054 110.977 72.9794 111.652C72.9554 111.867 72.7648 112.022 72.5526 111.997C72.3658 111.976 72.2245 111.822 72.211 111.639L72.2103 111.631C72.1703 111.103 71.9723 110.61 71.6664 110.224C71.3605 109.838 70.9504 109.565 70.5125 109.43C70.1314 109.313 69.9161 108.906 70.0308 108.52C70.1462 108.133 70.5477 107.915 70.9288 108.031C70.9732 108.045 71.0157 108.063 71.0552 108.084L71.0891 108.103Z" fill="#000063"/>
<path d="M89.9236 113C88.7805 113 86.9891 112.824 84.764 112.021C80.685 110.547 80.0408 107.538 80.0151 107.41C79.9456 107.064 80.1207 106.716 80.4425 106.557C84.0781 104.762 89.3712 107.634 91.5656 110.483C91.9721 111.014 92.1007 111.687 91.92 112.332C91.8401 112.615 91.6045 112.832 91.3099 112.894C91.264 112.903 90.7728 113 89.9236 113ZM81.8309 107.718C82.2061 108.473 83.1359 109.754 85.3227 110.544C87.5999 111.366 89.3503 111.455 90.2676 111.418C88.4157 109.022 84.4603 107.036 81.8309 107.718Z" fill="#000063"/>
<path d="M75.41 136C75.2736 136 75.1365 135.983 75.0029 135.948L1.20781 116.726C0.52448 116.548 0.0359926 115.946 0.00189583 115.241C-0.0322009 114.535 0.396443 113.89 1.06029 113.648L70.9238 88.0987C71.2265 87.9867 71.5563 87.97 71.8702 88.0486L143.777 106.042C144.459 106.212 144.951 106.803 144.997 107.503C145.042 108.203 144.63 108.852 143.977 109.11L76.0014 135.888C75.8122 135.963 75.6111 136 75.41 136ZM7.02443 114.905L75.307 132.691L138.108 107.951L71.5668 91.3013L7.02443 114.905Z" fill="#000063"/>
<path d="M76.983 93.7138C76.3226 93.8483 63.2357 106.364 47.5231 104.877C37.6829 103.95 33.448 98.7214 33.0354 93.4357C32.8753 91.4467 33.2638 89.4449 34.1001 87.6685C34.7205 86.337 35.5934 85.1281 36.674 84.1395C40.2209 80.8923 44.6442 82.1378 47.6149 83.6537C49.6002 84.6669 50.9416 85.7984 50.9416 85.7984L51.1176 85.6027L58.8676 77C58.8683 76.9993 77.6434 93.5751 76.983 93.7138Z" fill="#5F7093"/>
<g opacity="0.2">
<path d="M76.983 93.7138C76.3226 93.8483 63.2357 106.364 47.5231 104.877C37.6829 103.95 33.448 98.7214 33.0354 93.4357C32.8753 91.4467 33.2638 89.4449 34.1001 87.6685C34.4003 90.099 36.0254 92.4148 38.3157 93.2646C41.6383 94.5024 45.6896 92.6436 47.2029 89.3844C48.1517 87.3418 47.8474 85.4632 47.6156 83.6537C49.6008 84.6669 50.9423 85.7984 50.9423 85.7984L51.1183 85.6027L58.8683 77C58.8683 76.9993 77.6434 93.5751 76.983 93.7138Z" fill="#000063"/>
</g>
<path d="M203.565 29.5909C201.863 34.0972 195.614 36.1892 189.559 34.312C183.474 32.4177 179.786 27.198 181.365 22.6049C181.456 22.3367 181.567 22.0764 181.69 21.8253C183.7 17.7109 189.694 15.8622 195.548 17.7273C199.38 18.9487 202.204 21.4618 203.388 24.2844C204.111 26.0129 204.223 27.8574 203.565 29.5909Z" fill="#5F7093"/>
<g opacity="0.2">
<path d="M203.565 29.6626C201.863 34.1092 195.614 36.1734 189.559 34.3211C183.474 32.452 179.786 27.3014 181.365 22.7693C181.456 22.5047 181.567 22.2478 181.69 22C183.108 23.2585 184.855 24.2152 186.64 24.875C192.005 26.862 198.122 26.622 203.389 24.4272C204.111 26.1321 204.223 27.9521 203.565 29.6626Z" fill="#000063"/>
</g>
<g opacity="0.6">
<path d="M181.364 26.2653C182.964 21.6222 189.338 19.4234 195.55 21.4C199.854 22.7698 202.889 25.7678 203.751 29C204.995 24.5804 201.475 19.6114 195.55 17.7263C189.338 15.7504 182.964 17.9485 181.364 22.5917C180.907 23.9189 180.893 25.2987 181.25 26.6351C181.285 26.5109 181.322 26.3881 181.364 26.2653Z" fill="white"/>
</g>
<path d="M194.571 36C192.96 36 191.283 35.754 189.61 35.2359C185.729 34.0345 182.603 31.5691 181.033 28.4714C179.899 26.236 179.691 23.8015 180.446 21.6151C182.32 16.1853 189.525 13.572 196.509 15.79C200.422 17.0328 203.536 19.5472 205.054 22.689C206.152 24.963 206.3 27.4214 205.468 29.6098C203.948 33.6118 199.586 36 194.571 36ZM191.494 18.2602C187.738 18.2602 184.471 19.9251 183.52 22.6771C182.925 24.4022 183.416 25.9808 183.934 27.0015C185.091 29.2832 187.571 31.2004 190.571 32.1285C195.733 33.726 201.05 32.078 202.426 28.4553C202.944 27.0912 202.839 25.5869 202.123 24.105C201.01 21.7995 198.542 19.8508 195.523 18.8918C194.173 18.4621 192.804 18.2602 191.494 18.2602Z" fill="#000063"/>
<path d="M224.095 74.0849C223.017 76.3235 220.984 78.0901 218.866 79.5863C213.895 83.0951 208.093 85.5111 202.122 86.5678C193.129 92.868 182.904 97.022 172.47 98.8651C165.45 100.107 158.28 100.309 151.252 99.4095C141.112 108.331 127.256 112.82 113.554 111.876C110.73 111.683 107.838 111.251 105.279 110.029C102.717 108.799 100.522 106.637 100.082 104.152C99.5292 101.038 101.841 98.1546 104.867 96.6584C107.913 95.1581 111.553 94.7751 115.095 94.3677C118.641 93.9561 122.293 93.452 125.262 91.7459C128.736 73.8826 133.421 55.2649 138.379 35.5501C142.027 32.6781 146.094 30.2462 150.432 28.3628C156.222 25.8502 162.475 24.3256 168.846 24.0475C180.039 23.5476 191.328 27.0036 199.43 34.038C201.468 35.8046 203.279 37.7929 204.824 39.9426C209.311 46.1657 211.598 53.7402 210.872 61.2265C211.219 61.2064 211.558 61.1945 211.893 61.1904C215.851 61.1097 219.034 61.9607 221.375 63.6751C221.718 63.9254 222.04 64.1917 222.347 64.4774C225.261 67.2042 225.664 70.8221 224.095 74.0849Z" fill="white"/>
<path d="M219.115 80.6042C213.973 83.9858 207.032 85.9331 201 87C209.824 76.7691 209.668 62.0441 209.668 62.0441C214.744 61.7532 220.059 62.9056 222.63 65.3675C226.281 68.864 226.155 75.9742 219.115 80.6042Z" fill="#5F7093"/>
<path d="M172.674 99.8081C166.309 100.934 159.827 101.21 153.435 100.582C152.755 100.517 152.075 100.44 151.395 100.355C141.227 109.316 127.333 113.823 113.593 112.876C110.76 112.682 107.86 112.248 105.294 111.021C102.724 109.785 100.523 107.614 100.082 105.118C99.5278 101.991 101.846 99.0945 104.881 97.5919C107.936 96.0851 111.585 95.7003 115.137 95.2912C118.694 94.8778 122.356 94.3716 125.333 92.6581C125.398 92.3257 125.463 91.994 125.531 91.6617C128.991 74.0246 133.607 55.6543 138.487 36.2185C142.144 33.334 146.223 30.8916 150.573 29C164.825 36.9077 191.096 65.8467 172.674 99.8081Z" fill="#5F7093"/>
<g opacity="0.2">
<path d="M222.347 64.5145C222.041 64.2283 221.718 63.9623 221.375 63.7129C219.591 67.2425 216.059 70.9521 209.579 67.2453C210.472 65.2919 210.823 61.74 210.872 61.2669C211.599 53.7873 209.311 46.2188 204.824 40C205.075 40.8545 205.325 41.6728 205.414 42.2973C205.704 44.3001 205.877 46.3195 205.934 48.3424C206.144 56.1082 204.566 63.9671 200.878 70.8382C197.776 76.6249 187.856 86.6977 172.186 89.1381C169.71 89.5237 167.581 87.3563 167.848 84.8666C168.584 77.992 166.674 72.0629 166.674 72.0629C164.351 80.0837 161.156 86.2698 158.957 89.9537C157.584 90.9763 143.979 101.119 131.387 101.982C128.84 102.156 125.783 102.478 124.342 100.37C123.019 98.4316 123.947 95.6869 125.557 93.978C127.171 92.2691 129.337 91.193 131.085 89.6258C130.301 90.3267 126.8 90.6977 125.46 90.7706C125.391 91.1013 125.327 91.4313 125.263 91.7619C122.293 93.4667 118.641 93.9703 115.095 94.3816C111.552 94.7887 107.913 95.1714 104.867 96.6705C101.841 98.1655 99.5292 101.047 100.082 104.158C100.522 106.641 102.717 108.801 105.279 110.031C107.837 111.252 110.73 111.683 113.555 111.876C127.257 112.82 141.112 108.334 151.252 99.4194C158.28 100.318 165.45 100.117 172.471 98.8755C182.904 97.0339 193.129 92.8825 202.122 86.588C208.094 85.5321 213.896 83.118 218.867 79.612C220.985 78.117 223.019 76.3519 224.095 74.115C225.664 70.8542 225.261 67.2391 222.347 64.5145Z" fill="#000063"/>
</g>
<path d="M116.763 115C115.521 115 114.275 114.957 113.028 114.87C110.492 114.695 107.193 114.306 104.182 112.849C100.876 111.25 98.6036 108.593 98.103 105.742C97.4768 102.177 99.7477 98.4387 103.755 96.4413C106.941 94.8519 110.601 94.4256 114.139 94.0134L114.491 93.972C117.735 93.592 120.859 93.1412 123.39 91.8771C126.835 74.1218 131.432 55.6535 136.297 36.1181L136.356 35.879C136.443 35.5299 136.642 35.22 136.922 34.9971C140.705 31.9901 144.871 29.4794 149.306 27.536C155.445 24.8466 161.821 23.3371 168.257 23.0497C180.17 22.514 191.713 26.3315 199.914 33.5213C207.932 40.5512 212.368 50.5187 212.003 60.4967C216.591 60.5324 220.228 61.7944 222.834 64.2588C226.118 67.3639 226.901 71.6932 224.93 75.8395V75.8402C223.588 78.6565 221.01 80.7121 219.187 82.0134C214.131 85.6177 208.256 88.1192 202.177 89.2599C193.254 95.513 182.905 99.822 172.226 101.728C165.218 102.979 158.175 103.196 151.28 102.377C141.862 110.503 129.49 115 116.763 115ZM139.346 37.2153C134.452 56.8734 129.832 75.4476 126.407 93.2576C126.318 93.7217 126.033 94.1227 125.627 94.3583C122.462 96.1938 118.729 96.7518 114.862 97.2048L114.508 97.2461C111.243 97.6268 107.867 98.0201 105.181 99.3592C102.926 100.484 100.843 102.718 101.275 105.174C101.591 106.968 103.238 108.785 105.574 109.916C108.092 111.134 110.998 111.469 113.248 111.625C126.667 112.556 139.95 108.119 149.701 99.4539C150.048 99.1454 150.513 99.0017 150.97 99.0613C157.771 99.9418 164.733 99.7617 171.665 98.5242C182 96.6796 192.012 92.4836 200.618 86.3903C200.811 86.2536 201.031 86.1618 201.263 86.1204C207.004 85.0947 212.559 82.7551 217.328 79.3562C218.857 78.2646 221.009 76.5658 222.026 74.431C223.377 71.5902 222.869 68.7486 220.632 66.6341C218.36 64.4852 214.908 63.5303 210.372 63.7918C209.897 63.822 209.444 63.6376 209.118 63.2955C208.792 62.9533 208.631 62.4843 208.676 62.0111C209.589 52.4796 205.523 42.7477 197.801 35.9779C190.218 29.3294 179.503 25.8008 168.4 26.2999C162.357 26.5699 156.364 27.9903 150.587 30.5206C146.576 32.2796 142.796 34.5308 139.346 37.2153Z" fill="#000063"/>
<path d="M50.0549 107C49.1086 107 48.1692 106.957 47.2348 106.871C39.1666 106.128 33.4723 102.493 31.6126 96.8979C30.058 92.2202 31.5284 86.8334 35.2717 83.4923C40.8236 78.5375 47.829 82.2835 50.6526 84.1798L57.7212 76.5239C58.3175 75.879 59.3192 75.8218 59.9857 76.3948C60.032 76.4346 64.6901 80.4457 69.2703 84.4743C71.9649 86.8439 74.108 88.7576 75.6388 90.1612C78.6791 92.9495 79.227 93.4514 78.9282 94.5855C78.8054 95.0518 78.4722 95.4412 78.0429 95.6478C77.904 95.7434 77.5862 95.9856 77.3021 96.202C67.889 103.376 58.737 107 50.0549 107ZM41.7054 84.3152C40.2294 84.3152 38.7478 84.7416 37.4451 85.9037C34.6509 88.3975 33.5488 92.4065 34.7035 95.8802C36.1592 100.259 40.7163 103.017 47.5351 103.645C56.0873 104.432 65.3025 101.164 74.926 93.9309C72.3198 91.4482 65.5291 85.4682 59.0491 79.8741L52.0648 87.4385C51.4783 88.0737 50.4948 88.14 49.8269 87.59C49.7743 87.5467 45.7658 84.3152 41.7054 84.3152ZM77.6626 95.7762C77.6626 95.7762 77.6619 95.7762 77.6612 95.7762C77.6612 95.7762 77.6619 95.7762 77.6626 95.7762Z" fill="#000063"/>
<path d="M48.8374 111.771L32.165 67.4534C31.6697 66.137 32.3273 64.6654 33.6341 64.1665C34.9409 63.6668 36.4017 64.33 36.897 65.6464L53.5694 109.964C54.3886 112.48 53.9072 115.783 53.2197 115.987C52.5335 116.193 49.5855 113.838 48.8374 111.771Z" fill="white"/>
<path d="M52.003 116C50.2366 116 47.3212 112.972 46.6183 111.025L30.2407 67.068C29.8924 66.1338 29.9232 65.1174 30.3263 64.2068C30.7293 63.2963 31.4575 62.5994 32.3759 62.2451C33.293 61.8907 34.2929 61.9214 35.1887 62.3321C36.0845 62.7428 36.7689 63.4828 37.1172 64.4171L53.4969 108.381C53.5031 108.397 53.5093 108.415 53.5147 108.432C54.271 110.778 54.0711 113.726 53.4107 115.007C53.1561 115.501 52.8092 115.818 52.378 115.947C52.2603 115.983 52.1344 116 52.003 116ZM33.6797 64.4247C33.5243 64.4247 33.3696 64.4533 33.2204 64.511C32.8961 64.6357 32.6401 64.8814 32.4978 65.2016C32.3554 65.5218 32.3451 65.8804 32.4676 66.2089L48.8473 110.173C48.8487 110.177 48.8508 110.182 48.8528 110.187C49.2764 111.37 50.6383 112.669 51.4876 113.27C51.6656 112.342 51.7196 110.663 51.2591 109.213L34.8896 65.2754C34.7671 64.9461 34.5255 64.6858 34.21 64.541C34.041 64.4637 33.8603 64.4247 33.6797 64.4247Z" fill="#000063"/>
<path d="M80 19.5021C80 29.1641 72.1647 37 62.5 37C52.8346 37 45 29.1641 45 19.5021C45 18.98 45.0244 18.4613 45.0691 17.9511C45.231 16.1048 45.6805 14.3389 46.3729 12.7027C49.0251 6.41427 55.2489 2 62.5007 2C66.1406 2 69.5257 3.11334 72.3238 5.01684C73.2347 5.63249 74.0855 6.33679 74.8588 7.11019C78.0366 10.2778 80 14.6592 80 19.5021Z" fill="#5F7093"/>
<g opacity="0.6">
<path d="M46.9502 23.3349C46.9502 22.8158 46.9746 22.3001 47.0192 21.7928C47.1809 19.9572 47.6298 18.2014 48.3212 16.5747C50.9697 10.3224 57.1848 5.93358 64.4266 5.93358C68.0614 5.93358 71.4418 7.0405 74.236 8.93304C75.1456 9.54514 75.9953 10.2454 76.7675 11.0143C77.6011 11.8409 78.3476 12.7528 79 13.732C78.1246 11.1996 76.6825 8.93096 74.8173 7.08076C74.0451 6.31181 73.1961 5.61087 72.2859 4.99946C69.4916 3.10693 66.1112 2 62.4764 2C55.2346 2 49.0196 6.38815 46.371 12.6411C45.6796 14.2678 45.2307 16.0229 45.069 17.8592C45.0244 18.3666 45 18.8822 45 19.4013C45 22.9497 46.0699 26.2483 47.903 29C47.2882 27.2241 46.9502 25.3197 46.9502 23.3349Z" fill="white"/>
</g>
<path d="M63 38C52.5234 38 44 29.4768 44 18.9997C44 8.52252 52.5234 0 63 0C73.4766 0 82 8.52321 82 18.9997C82 29.4761 73.4766 38 63 38ZM63 3.2191C54.2984 3.2191 47.2191 10.2982 47.2191 18.9997C47.2191 27.7011 54.2991 34.7802 63 34.7802C71.7009 34.7802 78.7808 27.7011 78.7808 18.9997C78.7808 10.2982 71.7016 3.2191 63 3.2191Z" fill="#000063"/>
<path d="M60.5 26C64.6421 26 68 22.6421 68 18.5C68 14.3579 64.6421 11 60.5 11C56.3579 11 53 14.3579 53 18.5C53 22.6421 56.3579 26 60.5 26Z" fill="#000063"/>
<g opacity="0.2">
<path d="M80 19.5263C80 29.1749 72.1647 37 62.5 37C52.8346 37 45 29.1749 45 19.5263C45 19.0049 45.0244 18.487 45.0691 17.9774C50.9041 19.1868 57.1473 18.4347 62.4602 15.7413C66.7848 13.5533 70.4407 10.1161 72.9918 6C73.6353 6.35201 74.2593 6.73609 74.8581 7.15223C78.0366 10.3148 80 14.6901 80 19.5263Z" fill="#000063"/>
</g>
<path d="M140.95 86.1156C134.847 91.7333 123.367 100.321 86.5556 97.4161C41.7833 93.878 25.788 57.1566 61.7969 20.8701C82.9278 -0.427216 106.033 0.884966 122.528 11.3691C131.791 17.2592 138.971 26.0411 142.546 35.3356C143.28 37.245 143.945 39.0886 144.538 40.8763C152.963 66.1136 148.138 79.4938 140.95 86.1156Z" fill="white"/>
<g opacity="0.2">
<path d="M86.8763 94.5474C123.724 97.083 135.122 88.3915 141.17 82.7162C145.42 78.7293 148.803 72.3404 149 62.5019C148.968 61.7017 148.917 60.8827 148.845 60.0412C148.2 68.5662 145.026 74.2513 141.123 77.913C135.076 83.5884 123.677 92.2798 86.8291 89.7443C60.768 87.9481 44.3346 74.8473 42.1515 57C42.0723 57.8212 42.0243 58.6339 42 59.4397C42.9703 78.4852 59.6782 92.6736 86.8763 94.5474Z" fill="#000063"/>
</g>
<path d="M100.151 99C95.8697 99 91.1513 98.8108 85.9394 98.3995C74.7917 97.519 65.2406 94.656 57.5495 89.8896C50.0976 85.2726 44.7352 78.9448 42.0404 71.5912C36.2621 55.822 42.8904 36.7639 60.2248 19.3042C67.554 11.9213 75.5009 6.82664 83.845 4.16131C91.3947 1.74946 99.1163 1.35424 106.796 2.98542C114.957 4.71924 122.786 8.72736 129.436 14.5775C135.773 20.1505 140.61 26.9671 143.427 34.2899C155.299 65.1594 148.888 79.8344 141.419 86.7096C134.666 92.9292 124.4 99 100.151 99ZM97.4656 5.24086C87.5692 5.24086 75.1834 8.81953 62.5008 21.5959C46.0919 38.1235 39.7346 55.9372 45.0596 70.4698C50.2036 84.508 65.1955 93.5108 86.1917 95.1693C91.3441 95.5757 95.9945 95.7628 100.196 95.7628C123.313 95.7635 132.955 90.1137 139.249 84.318C143.408 80.4901 145.867 75.0575 146.558 68.1704C147.444 59.3483 145.381 48.3434 140.427 35.4616C134.911 21.1204 121.13 9.34394 106.132 6.1577C103.547 5.60815 100.633 5.24086 97.4656 5.24086Z" fill="#000063"/>
<path d="M100.835 46.171C108.119 44.8975 110.143 51.0246 114.439 55.0003C119.849 60.0062 123.391 60.9661 125.502 66.8687C127.328 71.9769 123.918 78.3258 118.758 80.5789C113.567 82.8453 104.96 83.0369 97.8003 76.3463C86.8002 66.0687 90.1113 48.0466 100.835 46.171Z" fill="#5F7093"/>
<path d="M70.2894 44.1521C63.8373 43.0196 62.0445 48.4666 58.2392 52.0007C53.4479 56.4507 50.3105 57.3031 48.4412 62.5502C46.8235 67.0909 49.8435 72.7345 54.4138 74.7367C59.0126 76.7514 66.6349 76.9216 72.9772 70.9744C82.7196 61.839 79.7872 45.8188 70.2894 44.1521Z" fill="#5F7093"/>
<path d="M81.6299 80.9807C83.3144 81.2486 87.607 78.6882 86.9278 75.5613C86.2485 72.4351 78.8682 72.2214 77.3624 74.6427C75.8566 77.064 79.3883 80.625 81.6299 80.9807Z" fill="#000063"/>
<path d="M94.9643 83.3972C94.83 84.0138 94.6051 84.4177 94.3659 84.81C94.1225 85.1959 93.8492 85.5269 93.5582 85.8341C92.9666 86.4428 92.2892 86.9419 91.5442 87.2981C90.8027 87.6573 90.0032 87.8866 89.1976 87.9652C88.3914 88.0446 87.5858 87.9847 86.8163 87.821C85.2542 87.508 83.7105 86.5762 82.6936 85.2745C82.1736 84.6348 81.7524 83.9331 81.4123 83.2025C81.2385 82.8383 81.0947 82.4626 80.9597 82.0825C80.8977 81.8892 80.8329 81.6995 80.7791 81.5005C80.7205 81.2971 80.6755 81.1197 80.6223 80.8622L80.6217 80.8594L82.8019 81.2329C82.7099 81.4204 82.6425 81.5445 82.5614 81.6923C82.4809 81.8301 82.4005 81.9693 82.3133 82.1013C82.1436 82.3703 81.9575 82.6248 81.7592 82.8736C81.3612 83.3684 80.9175 83.8393 80.3886 84.2396C79.861 84.6355 79.2804 85.0047 78.6009 85.2074C77.937 85.4209 77.201 85.5211 76.499 85.4007C76.1357 85.3711 75.8263 85.2586 75.5018 85.1692C75.341 85.1281 75.1856 85.0372 75.0288 84.9709C74.8741 84.8944 74.7147 84.836 74.5695 84.7343C73.9588 84.3975 73.4504 83.8761 73.0428 83.3251C72.6455 82.7575 72.3653 82.133 72.2018 81.4991C72.0402 80.8543 71.9666 80.2449 72.0143 79.5555C72.0368 79.2251 72.3088 78.9778 72.6202 79.0016C72.8472 79.0189 73.0333 79.1761 73.1089 79.3874L73.1403 79.4761C73.2977 79.9196 73.5029 80.423 73.7407 80.8348C73.982 81.2553 74.2594 81.6245 74.5736 81.9108C74.8823 82.2029 75.2149 82.4279 75.5823 82.5772C75.6661 82.6277 75.7704 82.6429 75.8638 82.6753C75.9619 82.6991 76.0464 82.7474 76.1527 82.7546C76.3531 82.7856 76.5603 82.8506 76.7389 82.8369C77.4674 82.878 78.1769 82.5859 78.8769 82.0493C79.2238 81.7868 79.5598 81.4616 79.8774 81.1067C80.0389 80.9329 80.1896 80.7425 80.3415 80.555C80.4199 80.462 80.486 80.3617 80.561 80.268L80.7518 80.0055L80.9045 79.7963C81.2875 79.2699 82.0018 79.1725 82.4993 79.5785C82.7474 79.7812 82.8953 80.074 82.9328 80.379V80.3798C82.9533 80.4742 82.9928 80.6466 83.0357 80.788C83.0753 80.9365 83.127 81.0858 83.1748 81.2344C83.2804 81.5293 83.3922 81.8243 83.5264 82.1041C83.7888 82.6674 84.1071 83.191 84.4765 83.646C84.8439 84.1047 85.2678 84.4862 85.7388 84.7675L85.9126 84.8785L86.102 84.968C86.2288 85.0221 86.3535 85.1021 86.4796 85.1396C86.6077 85.1814 86.7257 85.2327 86.8613 85.2723L87.2859 85.3798C88.42 85.6257 89.5657 85.5269 90.5614 85.035C91.0617 84.7985 91.517 84.4574 91.9041 84.0614C92.0956 83.8588 92.2728 83.6431 92.4071 83.4275C92.5427 83.2205 92.6449 82.9753 92.6592 82.8852C92.7683 82.2058 93.3762 81.7493 94.0183 81.864C94.6603 81.9786 95.0917 82.6227 94.9833 83.3013C94.9799 83.3244 94.9758 83.3467 94.9704 83.3691L94.9643 83.3972Z" fill="#000063"/>
<path d="M108.977 73.2864C108.909 73.0011 108.848 72.6477 108.761 72.3392C108.677 72.0226 108.584 71.7155 108.475 71.4221C108.259 70.8346 107.987 70.3057 107.667 69.8526C107.026 68.9417 106.179 68.3685 105.108 67.9515L104.912 67.8696L104.705 67.8096L104.294 67.6833C104.157 67.641 104.026 67.6315 103.892 67.5987C103.759 67.5769 103.623 67.5271 103.494 67.5312C103.365 67.5209 103.234 67.5059 103.104 67.4896C102.973 67.4793 102.848 67.4984 102.718 67.4909C102.653 67.4916 102.587 67.4841 102.523 67.4902L102.332 67.5155C102.204 67.5339 102.069 67.5271 101.943 67.5667C101.422 67.654 100.887 67.8417 100.346 68.116C100.077 68.2559 99.8054 68.4101 99.5357 68.5841C99.3994 68.6701 99.2653 68.7602 99.1369 68.8564C99.0035 68.9403 98.8664 69.0618 98.7619 69.1157L98.4308 69.2876C97.9635 69.5305 97.3764 69.3695 97.1189 68.9273C96.9805 68.6899 96.9675 68.4155 97.0562 68.1781C97.1514 67.9263 97.2336 67.753 97.3324 67.5516C97.4334 67.3613 97.5445 67.177 97.6627 66.9948C97.7752 66.8079 97.918 66.6434 98.0486 66.4653C98.1928 66.2988 98.3428 66.1344 98.4972 65.9706C99.1311 65.3339 99.941 64.7928 100.872 64.4496C101.797 64.1063 102.832 63.946 103.821 64.0162C104.075 64.0156 104.308 64.0701 104.55 64.1029C104.788 64.1459 105.039 64.1691 105.264 64.2373L105.939 64.442L106.275 64.5478C106.384 64.5922 106.49 64.6427 106.597 64.6904C107.024 64.8876 107.456 65.0657 107.85 65.3496C108.047 65.4847 108.255 65.6014 108.44 65.7556C108.625 65.9098 108.803 66.0722 108.981 66.2326C109.663 66.902 110.231 67.6977 110.546 68.5507C110.872 69.3989 111.016 70.2703 110.999 71.1089C110.988 71.5286 110.949 71.9407 110.858 72.344C110.774 72.7548 110.664 73.1219 110.479 73.547C110.317 73.9203 109.866 74.0984 109.472 73.9449C109.231 73.8514 109.066 73.6555 109.012 73.4331L108.977 73.2864Z" fill="#000063"/>
<path d="M93.3864 84.0435C92.1619 85.3401 89.7916 86.5711 86.5733 85.717C86.3735 85.6638 86.1839 85.6043 86 85.5317C86.1211 85.3685 86.2423 85.2115 86.3173 85.0829C86.6411 84.5331 86.9165 83.9557 87.1617 83.3686C87.6824 82.1349 88.0653 80.8569 88.4842 79.588C88.808 78.6019 89.2666 77.5065 90.2719 77.1261C91.0709 76.8219 92.0235 77.095 92.6588 77.6565C93.2905 78.2153 93.6445 79.0126 93.8342 79.8197C94.1623 81.2235 93.9986 82.74 93.3864 84.0435Z" fill="#FF67A0"/>
<path d="M93.3449 84.2685C93.2247 84.4462 93.055 84.6654 92.9514 84.7843C92.8346 84.9254 92.7081 85.0561 92.5781 85.186C92.3153 85.4405 92.0288 85.6749 91.7209 85.8817C91.1049 86.2938 90.4082 86.6022 89.6762 86.7882C88.9441 86.9714 88.1807 87.0344 87.4347 86.9825C87.2463 86.9756 87.0628 86.9507 86.8792 86.9244C86.6943 86.9009 86.51 86.8746 86.3307 86.8331L86.0595 86.7757C85.9706 86.755 85.8774 86.746 85.7842 86.6955C85.6035 86.6036 85.438 86.4563 85.358 86.1555V86.1534L85 84.9226C85.0876 84.7802 85.178 84.6501 85.2663 84.5015C85.3511 84.339 85.4338 84.1786 85.5124 84.0126C85.6702 83.6814 85.8141 83.3405 85.949 82.9906C86.2229 82.2902 86.4676 81.5745 86.6978 80.8353L87.0419 79.7172C87.158 79.3459 87.2762 78.9649 87.4333 78.5535C87.5912 78.1483 87.783 77.7292 88.0695 77.3192C88.3545 76.9133 88.7612 76.506 89.2889 76.2612C89.8124 76.004 90.4319 75.948 90.963 76.0441C91.5019 76.1423 91.9851 76.3753 92.3848 76.7072C93.1934 77.3897 93.5375 78.3031 93.7523 79.135C93.9679 79.9765 94.0471 80.8353 93.9727 81.6865C93.9442 82.1118 93.8796 82.5349 93.7788 82.9505C93.7308 83.1586 93.6759 83.3661 93.6105 83.5708C93.5792 83.6731 93.541 83.7741 93.5062 83.8757C93.4659 83.9933 93.404 84.1405 93.3449 84.2685ZM92.2395 83.5486C92.2569 83.4968 92.275 83.465 92.3063 83.4007C92.3389 83.3191 92.3765 83.2382 92.4071 83.1552C92.4689 82.9892 92.5294 82.8219 92.5746 82.6497C92.6643 82.3054 92.7248 81.952 92.7547 81.5966C92.7992 80.8858 92.7248 80.1611 92.5037 79.498C92.284 78.8376 91.8627 78.2852 91.4017 78.0148C90.9359 77.7403 90.3936 77.6421 90.0495 77.8343C89.6776 77.9996 89.3418 78.5223 89.1054 79.1813C88.9851 79.5028 88.8794 79.8735 88.7591 80.2489L88.3976 81.3733C88.1494 82.1263 87.8901 82.8959 87.5668 83.6448C87.4055 84.0202 87.231 84.3964 87.0377 84.7663C86.9411 84.9509 86.8403 85.1369 86.7332 85.316C86.6136 85.4993 86.4725 85.6874 86.3425 85.8713L85.9851 84.6405L85.9865 84.6391C86.2118 84.4406 86.3515 84.3957 86.476 84.4061C86.5914 84.4317 86.736 84.4752 86.8646 84.5098C86.9967 84.5513 87.1302 84.5776 87.2637 84.6031C87.3972 84.6315 87.5307 84.6592 87.6648 84.6716C88.2002 84.749 88.7376 84.7663 89.2694 84.7027C89.802 84.6439 90.3297 84.5084 90.8407 84.3023C91.0972 84.2 91.3482 84.0783 91.5915 83.9366C91.7139 83.8667 91.8363 83.7948 91.9517 83.7132C92.0907 83.6206 92.1338 83.5991 92.2395 83.5486Z" fill="#000063"/>
<path d="M146 20.4967C146 22.7297 145.527 24.8627 144.679 26.7998C142.27 32.2785 136.826 36.1403 130.502 35.9961C124.714 35.8643 121.008 33.1305 118.751 30.4332C116.501 27.74 115.689 25.0786 115.689 25.0786C115.24 23.6299 115 22.093 115 20.496C115 17.4262 115.893 14.5612 117.438 12.1516C117.438 12.1516 117.438 12.1475 117.442 12.1433C120.199 7.84492 125.019 5 130.502 5C135.346 5 139.673 7.2213 142.519 10.7071C144.691 13.3775 146 16.7825 146 20.4967Z" fill="#5F7093"/>
<g opacity="0.6">
<path d="M147 20.7474C147 23.0166 146.52 25.1842 145.659 27.1527C144.919 28.5758 143.969 29.8734 142.855 31C144.025 28.7756 144.692 26.2414 144.692 23.5697C144.692 19.7954 143.362 16.3343 141.156 13.622C138.266 10.0797 133.872 7.82237 128.954 7.82237C124.694 7.82237 120.829 9.51397 118 12.2592C120.8 7.89107 125.694 5 131.262 5C136.181 5 140.574 7.25733 143.464 10.7997C145.671 13.5127 147 16.973 147 20.7474Z" fill="white"/>
</g>
<path d="M132 31C135.866 31 139 27.866 139 24C139 20.134 135.866 17 132 17C128.134 17 125 20.134 125 24C125 27.866 128.134 31 132 31Z" fill="#000063"/>
<path d="M130.782 35.3532C131.552 35.2588 132.319 35.2119 133.064 35.0132L133.624 34.8977C133.811 34.8613 133.99 34.7878 134.173 34.7346C134.534 34.6115 134.904 34.5226 135.254 34.3764C136.678 33.8445 137.989 33.0629 139.166 32.1371L139.604 31.783C139.75 31.6662 139.898 31.5514 140.026 31.4135L140.827 30.627L141.549 29.7705L141.729 29.557L141.887 29.3261L142.204 28.8657L142.521 28.408L142.795 27.9224C142.97 27.5949 143.184 27.2891 143.317 26.9413C143.465 26.6012 143.623 26.2667 143.765 25.9259L144.116 24.8742C144.514 23.4529 144.734 21.9876 144.731 20.5139C144.69 19.0409 144.447 17.5875 144.006 16.1956C143.083 13.4315 141.327 10.9424 138.979 9.23708L138.547 8.90749C138.397 8.80602 138.24 8.71786 138.086 8.62129L137.624 8.33647L137.393 8.19302C137.314 8.14963 137.231 8.11325 137.15 8.07336L136.176 7.59612L135.161 7.21894L134.907 7.12377L134.645 7.05589L134.121 6.91944L133.597 6.78018L133.062 6.69622L132.527 6.61084C132.349 6.58005 132.171 6.54506 131.99 6.54366L130.905 6.47579C129.455 6.46879 128.008 6.65913 126.612 7.0643C125.228 7.50585 123.901 8.13564 122.691 8.96067C121.467 9.77101 120.413 10.8256 119.498 11.9823C118.591 13.1467 117.828 14.4476 117.331 15.8576C116.294 18.6553 116.088 21.8197 116.832 24.8056C116.965 25.3388 116.644 25.8804 116.115 26.0141C115.622 26.1387 115.121 25.8615 114.948 25.3927C113.744 22.1031 113.704 18.388 114.729 14.9696C115.223 13.2489 116.066 11.6394 117.089 10.172C118.116 8.70455 119.377 7.38688 120.836 6.33233C122.286 5.27218 123.892 4.40726 125.608 3.83974C127.331 3.29672 129.131 3.02171 130.935 3.00002C132.742 2.99722 134.545 3.31562 136.267 3.87473L137.542 4.34568L138.768 4.93699C138.869 4.98737 138.972 5.03425 139.071 5.08813L139.362 5.26448L139.943 5.61857C140.135 5.73823 140.332 5.85229 140.52 5.97825L141.065 6.38621C141.81 6.90824 142.469 7.53664 143.12 8.16923L144.027 9.1867C144.323 9.53099 144.574 9.91236 144.847 10.2748C145.883 11.7668 146.714 13.4084 147.255 15.1494C147.771 16.8982 148.007 18.7162 148 20.5272C147.953 22.3389 147.636 24.1401 147.051 25.8462L146.562 27.1064C146.372 27.5137 146.162 27.9119 145.961 28.3135C145.774 28.7229 145.507 29.0861 145.276 29.4689L144.915 30.035C144.783 30.2148 144.644 30.3898 144.506 30.5654L144.091 31.0909L143.884 31.3527L143.654 31.5948C143.346 31.916 143.042 32.2407 142.73 32.5556L141.724 33.4254C141.561 33.5758 141.379 33.7018 141.198 33.8291L140.658 34.2126C140.476 34.3372 140.301 34.4722 140.111 34.5828L139.535 34.9075C139.15 35.1202 138.777 35.3518 138.367 35.5135C137.963 35.6856 137.569 35.8781 137.159 36.0299L135.913 36.4323C135.497 36.5583 135.064 36.624 134.642 36.7213C134.429 36.7612 134.22 36.8214 134.004 36.8431L133.358 36.9137C132.501 37.0348 131.636 36.9928 130.782 36.9935C130.334 36.9935 129.972 36.6282 129.972 36.1769C129.972 35.7591 130.282 35.4141 130.683 35.3651L130.782 35.3532Z" fill="#000063"/>
<path d="M50.7912 95.2252C49.2912 96.6711 47.2924 97.4865 45.2526 97.8244C42.0645 98.3553 35.0012 97.774 34.3967 94.811C34.0698 93.2017 33.6076 93.1686 33.1376 91.4094C32.9946 89.6041 32.8311 89.5119 33.3948 88.2455C33.4645 88.0827 33.5463 87.9026 33.6442 87.698C34.2776 86.3357 35.1689 85.0988 36.2722 84.0874C39.8937 80.765 44.41 82.0394 47.4431 83.5903C49.4702 84.627 50.8398 85.7846 50.8398 85.7846L51.0195 85.5844C52.0207 86.7255 52.769 88.0459 52.9571 89.5501C52.969 89.6545 52.9817 89.7633 52.986 89.8678C53.1255 91.8575 52.2137 93.8508 50.7912 95.2252Z" fill="#5F7093"/>
<g opacity="0.6">
<path d="M53 90C50.1061 87.7985 46.4708 86.6592 42.8915 86.6087C39.8548 86.5662 36.8618 87.2336 34 88.3516C34.0676 88.186 34.1469 88.0029 34.2419 87.7948C34.8562 86.4094 35.7206 85.1515 36.7907 84.1229C40.303 80.744 44.6832 82.04 47.6249 83.6174C49.5909 84.6716 50.9193 85.8489 50.9193 85.8489L51.0935 85.6453C52.0645 86.8058 52.7902 88.1486 52.9727 89.6784C52.9836 89.7831 52.9959 89.8938 53 90Z" fill="white"/>
</g>
<g opacity="0.2">
<path d="M50.8415 95.242C49.3767 96.6391 47.4247 97.4271 45.4329 97.7536C42.3196 98.2666 38.9062 98.0404 36.1486 96.4853C35.0347 95.8595 34.0377 94.6559 33.0353 93.6709C32.8756 91.7045 33.263 89.7254 34.0969 87.9692C34.3962 90.3721 36.0165 92.6616 38.3001 93.5018C41.6129 94.7255 45.6524 92.8878 47.1612 89.6656C48.1073 87.6462 47.8039 85.789 47.5727 84C49.5521 85.0017 50.8897 86.1203 50.8897 86.1203L51.0651 85.9268C52.0428 87.0294 52.7735 88.3054 52.9572 89.7588C53.2125 91.7817 52.3029 93.845 50.8415 95.242Z" fill="#000063"/>
</g>
<path d="M38.9161 95.8813C39.7636 96.2364 40.6703 96.4202 41.591 96.4957C42.511 96.5726 43.4423 96.5411 44.356 96.4237C46.1757 96.186 47.9629 95.6142 49.3429 94.6831C50.034 94.2239 50.5934 93.6646 50.9836 93.0544L51.1175 92.8202C51.1633 92.7398 51.2098 92.6391 51.2563 92.5504C51.3514 92.3672 51.4274 92.1799 51.5021 91.9953C51.6578 91.6269 51.7684 91.2543 51.8487 90.8818C52.0093 90.1359 52.0192 89.3747 51.8635 88.5729C51.7825 88.1751 51.6698 87.7627 51.5113 87.3537C51.4274 87.1524 51.3464 86.9413 51.2478 86.7386L51.0978 86.4338C51.0513 86.3367 50.9829 86.2255 50.9562 86.15L50.8737 85.9172C50.7469 85.5579 50.9371 85.1644 51.2992 85.0386C51.4965 84.9701 51.7071 84.9959 51.8755 85.0917C52.0382 85.1847 52.1481 85.2532 52.2756 85.3398C52.4003 85.4216 52.5158 85.5097 52.6286 85.6027C52.854 85.7879 53.0745 85.9836 53.2696 86.2038C53.6698 86.6358 54.0241 87.1266 54.2967 87.6739C54.8547 88.7602 55.097 90.0639 54.9646 91.3145C54.9061 91.9408 54.7567 92.5497 54.5517 93.1229C54.4475 93.4088 54.3298 93.6898 54.1974 93.9568C54.1291 94.0924 54.072 94.2224 53.9924 94.3616L53.743 94.7803C53.3894 95.3227 52.9737 95.8114 52.5194 96.2399C52.0636 96.6698 51.5641 97.0228 51.0541 97.3394C50.0256 97.9595 48.9308 98.3733 47.8255 98.6376C46.7188 98.9032 45.5959 99.0157 44.48 98.9982C43.3648 98.9759 42.2532 98.8214 41.1803 98.4998C40.6442 98.3426 40.1201 98.1301 39.6185 97.8714C39.1162 97.6163 38.6372 97.3038 38.2124 96.9256C37.9496 96.6921 37.9278 96.2909 38.1631 96.0302C38.3498 95.8232 38.6428 95.7666 38.8866 95.8687L38.9161 95.8813Z" fill="#000063"/>
<path d="M31.0768 94.5101C30.9386 93.234 30.9863 91.9342 31.2246 90.6723C31.4691 89.4119 31.8891 88.1873 32.4708 87.0464C33.0655 85.9141 33.806 84.8541 34.7013 83.9394C35.5772 83.0096 36.7156 82.1987 37.9548 81.6848C39.2003 81.1666 40.5473 80.9533 41.8279 81.0084C43.1135 81.0535 44.3368 81.3291 45.4828 81.7213C46.6309 82.1164 47.6988 82.6511 48.7115 83.2501C49.2178 83.5507 49.7096 83.8721 50.1897 84.2121C50.4294 84.3824 50.6664 84.5571 50.9012 84.7389C51.1437 84.9271 51.353 85.0946 51.6245 85.3308L51.6611 85.3623C51.7101 85.4052 51.7592 85.4567 51.7992 85.5054C51.8994 85.6285 51.947 85.6958 52.0141 85.7867L52.1916 86.0408C52.3069 86.2097 52.4133 86.3793 52.5176 86.5511C52.7249 86.8954 52.9155 87.249 53.0875 87.6154C53.4274 88.3498 53.7044 89.1335 53.8619 89.9731C54.0214 90.8076 54.0511 91.7059 53.9068 92.5855C53.7541 93.4652 53.4212 94.3133 52.9528 95.0276C52.4879 95.7462 51.9104 96.336 51.3005 96.8205C50.6919 97.2822 50.0509 97.6744 49.3829 97.9965C48.0435 98.6292 46.6081 98.9792 45.1899 99C44.9558 99.0035 44.7637 98.8096 44.7603 98.5669C44.7575 98.3715 44.8784 98.2041 45.0483 98.1446L45.0559 98.1425C46.3055 97.708 47.4702 97.1305 48.4745 96.3596C48.9809 95.986 49.4465 95.5608 49.8616 95.1063C50.2733 94.6755 50.6104 94.2059 50.8356 93.7178C51.0594 93.2275 51.1844 92.7287 51.2183 92.2205C51.2349 91.7087 51.1838 91.1862 51.0249 90.6587C50.8777 90.132 50.6498 89.603 50.3624 89.0963C50.2215 88.8422 50.0668 88.5917 49.9003 88.3519C49.8167 88.2324 49.7318 88.1136 49.644 88.0019L49.5135 87.838C49.4748 87.7915 49.4168 87.7235 49.4057 87.7135L49.5798 87.8881C49.4333 87.7736 49.2109 87.6083 49.0161 87.4716C48.8137 87.3291 48.6058 87.1896 48.3958 87.055C47.9751 86.7852 47.5441 86.5311 47.1054 86.2977C46.2309 85.8282 45.3253 85.4474 44.4225 85.1626C43.5203 84.8784 42.612 84.7081 41.7444 84.7016C40.8754 84.6952 40.054 84.8427 39.2997 85.1533C38.5413 85.4739 37.8712 85.952 37.2316 86.6041C36.5809 87.2418 36.0379 88.0026 35.5855 88.815C35.1282 89.6274 34.8014 90.5177 34.57 91.4303C34.3531 92.3472 34.2536 93.2941 34.2737 94.2417L34.2744 94.2868C34.2944 95.2044 33.5926 95.9645 32.707 95.9853C31.8712 96.0053 31.17 95.3526 31.0768 94.5101Z" fill="#000063"/>
<path d="M150.616 99.0905C151.514 98.3527 152.44 97.521 153.318 96.6943C154.201 95.8605 155.059 94.9999 155.89 94.1167C156.718 93.2321 157.506 92.3164 158.261 91.3774C159.004 90.4321 159.695 89.4549 160.32 88.4432L160.332 88.4242C160.588 88.0105 161.14 87.8763 161.565 88.1248C161.962 88.3571 162.107 88.8443 161.917 89.2439C161.365 90.3968 160.741 91.5101 160.064 92.5854C159.378 93.6528 158.655 94.6963 157.889 95.7066C157.122 96.7148 156.326 97.7004 155.499 98.6626C154.665 99.6292 153.834 100.553 152.903 101.496C152.258 102.15 151.19 102.17 150.518 101.542C149.846 100.915 149.825 99.8756 150.47 99.2218C150.511 99.1809 150.553 99.142 150.597 99.106L150.616 99.0905Z" fill="#000063"/>
<g opacity="0.2">
<path d="M146 21.0625C146 29.8621 139.124 37.1973 130.644 36.9959C124.909 36.8605 121.237 34.0502 119 31.2775C122.597 31.5612 126.23 31.2073 129.636 30.0103C134.709 28.2247 139.229 24.4444 141.407 19.3677C142.613 16.5496 142.926 13.7401 142.549 11C144.703 13.7443 146 17.2446 146 21.0625Z" fill="#000063"/>
</g>
<path d="M73.0897 63.6701C74.573 59.2162 73.2226 54.7695 70.0734 53.7382C66.9243 52.7069 63.169 55.4815 61.6857 59.9354C60.2024 64.3894 61.5529 68.836 64.702 69.8673C67.8512 70.8986 71.6065 68.1241 73.0897 63.6701Z" fill="#000063"/>
<path d="M69.7923 56.0084C68.694 56.1312 67.8963 57.5699 68.011 59.2227C68.1256 60.8747 69.1086 62.1144 70.2077 61.9916C71.306 61.8688 72.1037 60.4301 71.989 58.7773C71.8737 57.1253 70.8907 55.8856 69.7923 56.0084Z" fill="white"/>
<path d="M63.6102 65.047C63.1018 65.2519 62.8639 66.0683 63.0796 66.8708C63.2947 67.6733 63.8814 68.158 64.3898 67.953C64.8982 67.7481 65.1361 66.9317 64.9204 66.1292C64.7047 65.3267 64.118 64.842 63.6102 65.047Z" fill="#B199C5"/>
<path d="M82.5 75C83.8807 75 85 74.7761 85 74.5C85 74.2239 83.8807 74 82.5 74C81.1193 74 80 74.2239 80 74.5C80 74.7761 81.1193 75 82.5 75Z" fill="white"/>
</svg>
