<svg width="210" height="166" viewBox="0 0 210 166" fill="none" xmlns="http://www.w3.org/2000/svg">
<path fill-rule="evenodd" clip-rule="evenodd" d="M74.3928 165.999V65.4421L0 23.8496L1.36827 117.054L74.3928 165.999Z" fill="url(#paint0_radial_1_37242)"/>
<path fill-rule="evenodd" clip-rule="evenodd" d="M74.3945 65.4392V165.997L208.201 136.947L210.001 40.498L74.3945 65.4392Z" fill="url(#paint1_radial_1_37242)"/>
<path fill-rule="evenodd" clip-rule="evenodd" d="M175.937 58.0897C175.793 65.6585 175.721 73.1553 175.577 80.7241C171.833 81.445 168.088 82.1658 164.343 82.8866C160.598 83.6074 156.853 84.4004 153.108 85.1213C153.18 77.5524 153.252 69.9115 153.324 62.3426C157.069 61.6218 160.814 60.9009 164.631 60.2522C168.448 59.4593 172.193 58.8105 175.937 58.0897ZM209.353 74.0923C205.608 74.8132 201.863 75.5341 198.118 76.327C198.262 68.8302 198.407 61.3335 198.479 53.9088C202.223 53.188 206.04 52.5392 209.785 51.8184C209.641 59.1709 209.497 66.6677 209.353 74.0923ZM85.7011 74.9574C85.7011 82.7424 85.7011 90.4555 85.7011 98.2406C81.9562 98.9614 78.2114 99.6822 74.4665 100.403C74.4665 92.618 74.4665 84.8329 74.4665 77.0478C78.1393 76.3991 81.9562 75.6782 85.7011 74.9574ZM119.405 91.6809C115.66 92.4017 111.915 93.1226 108.17 93.8434C108.17 86.1304 108.242 78.4895 108.242 70.7765C111.987 70.0556 115.732 69.4069 119.477 68.686C123.222 67.9652 126.966 67.3165 130.783 66.5956C130.711 74.2365 130.639 81.8775 130.639 89.5184C126.894 90.1671 123.15 90.96 119.405 91.6809ZM175.289 103.286C175.145 110.783 175.073 118.352 174.929 125.849C171.184 126.642 167.44 127.435 163.767 128.228C160.022 129.02 156.277 129.813 152.604 130.606C152.676 123.037 152.748 115.469 152.892 107.828C156.637 107.035 160.382 106.314 164.127 105.521C167.8 104.8 171.544 104.007 175.289 103.286ZM208.489 118.785C204.744 119.577 200.999 120.37 197.326 121.163C197.47 113.667 197.614 106.17 197.686 98.7452C201.431 97.9522 205.176 97.2314 208.921 96.4385C208.777 103.863 208.633 111.36 208.489 118.785ZM85.6291 121.524C85.6291 129.237 85.629 137.022 85.557 144.735C81.8122 145.528 78.0674 146.321 74.3945 147.114C74.3945 139.329 74.3945 131.543 74.3945 123.83C78.1394 123.037 81.8842 122.245 85.6291 121.524ZM119.117 137.671C115.372 138.464 111.627 139.256 107.954 140.049C107.954 132.336 108.026 124.695 108.026 116.982C111.771 116.262 115.516 115.469 119.261 114.676C123.005 113.955 126.75 113.162 130.495 112.369C130.423 120.01 130.351 127.651 130.351 135.292C126.534 136.085 122.789 136.878 119.117 137.671Z" fill="url(#paint2_radial_1_37242)"/>
<path d="M163.623 138.822C156.853 140.264 150.156 141.705 143.386 143.147C143.386 143.363 143.386 143.652 143.386 143.868C143.386 144.084 143.386 144.372 143.386 144.589C150.084 143.147 156.853 141.705 163.623 140.264C170.32 138.822 177.09 137.38 183.859 135.939C183.859 135.722 183.859 135.434 183.859 135.218C183.859 135.002 183.859 134.713 183.859 134.497C177.09 135.939 170.392 137.38 163.623 138.822ZM94.6311 161.673C94.6311 160.015 94.6311 158.285 94.6311 156.627C87.8616 158.068 81.1641 159.51 74.3945 160.952C74.3945 160.447 74.3945 160.015 74.3945 159.51C81.092 158.068 87.8616 156.627 94.6311 155.185C94.6311 154.969 94.6311 154.68 94.6311 154.464C94.6311 154.248 94.6311 153.96 94.6311 153.671C87.8616 155.113 81.1641 156.555 74.3945 157.996C74.3945 157.564 74.3945 157.059 74.3945 156.555C81.092 155.113 87.8616 153.671 94.6311 152.23C94.6311 145.237 94.6311 138.245 94.7031 131.253C94.7031 124.261 94.7751 117.269 94.7751 110.277C88.0056 111.646 81.236 113.016 74.4665 114.313C74.4665 113.809 74.4665 113.376 74.4665 112.872C81.236 111.502 88.0056 110.133 94.7751 108.835C94.7751 108.619 94.7751 108.33 94.7751 108.042C94.7751 107.826 94.7751 107.537 94.7751 107.321C88.0056 108.691 81.236 109.988 74.4665 111.358C74.4665 110.853 74.4665 110.421 74.4665 109.916C81.236 108.547 88.0056 107.249 94.7751 105.88C94.7751 98.8874 94.8471 91.8952 94.8471 84.903C94.8471 77.9109 94.9192 70.9187 94.9192 63.8545C88.0776 65.152 81.236 66.3775 74.4665 67.6029C74.4665 67.1704 74.4665 66.6658 74.4665 66.1612C81.3081 64.9357 88.0776 63.6382 94.9192 62.4128C94.9192 62.1966 94.9192 61.9082 94.9192 61.6199C95.3513 61.5478 95.8553 61.4757 96.2874 61.4036C96.2874 61.692 96.2874 61.9082 96.2874 62.1966C96.7915 62.1245 97.2957 61.9803 97.7998 61.9082C97.7998 61.692 97.7998 61.4036 97.7998 61.1153C98.2319 61.0432 98.736 60.9711 99.1681 60.8991C99.1681 61.1874 99.1681 61.4036 99.1681 61.692C106.01 60.4666 112.779 59.169 119.621 57.9436C126.462 56.6461 133.232 55.4207 140.073 54.1952C140.073 53.979 140.073 53.6906 140.073 53.4744C140.505 53.4023 141.01 53.3302 141.442 53.2581C141.442 53.5464 141.442 53.7627 141.442 53.979C141.946 53.9069 142.378 53.8348 142.882 53.6906C142.882 53.4744 142.882 53.186 142.882 52.8977C143.314 52.8256 143.818 52.7535 144.25 52.6815C144.25 52.9698 144.25 53.1861 144.25 53.4744C151.092 52.249 157.861 50.9514 164.703 49.726C171.544 48.5006 178.314 47.2031 185.156 45.9776C185.156 45.7614 185.156 45.473 185.156 45.2568C185.588 45.1847 186.092 45.1126 186.524 44.9685C186.524 45.2568 186.524 45.473 186.524 45.6893C187.028 45.6172 187.532 45.5451 187.964 45.401C187.964 45.1847 187.964 44.8964 187.964 44.6801C188.396 44.608 188.9 44.5359 189.333 44.3918C189.333 44.6801 189.333 44.8964 189.333 45.1126C196.174 43.8872 203.016 42.5897 209.857 41.3643C209.857 41.7968 209.857 42.3013 209.857 42.7338C203.016 43.9592 196.174 45.2568 189.333 46.4822C189.188 53.3302 189.116 60.1061 188.972 66.882C188.828 73.6579 188.756 80.5059 188.612 87.2818C195.382 85.9122 202.151 84.6147 208.993 83.2451C208.993 83.6776 208.993 84.1822 208.993 84.6147C202.223 85.9843 195.382 87.3539 188.612 88.6514C188.612 88.8677 188.612 89.156 188.612 89.3723C188.612 89.5885 188.612 89.8768 188.612 90.0931C195.382 88.7235 202.151 87.3539 208.993 86.0564C208.993 86.4889 208.993 86.9935 208.993 87.426C202.223 88.7956 195.382 90.1652 188.612 91.5348C188.468 98.3107 188.396 105.159 188.252 111.935C188.108 118.71 188.036 125.486 187.892 132.334C194.662 130.893 201.359 129.451 208.129 128.009C208.129 128.442 208.129 128.946 208.129 129.379C201.359 130.821 194.59 132.262 187.892 133.704C187.892 133.92 187.892 134.209 187.892 134.425C187.892 134.641 187.892 134.929 187.892 135.146C194.662 133.704 201.359 132.262 208.129 130.821C208.129 131.253 208.129 131.758 208.129 132.19C201.359 133.632 194.662 135.074 187.892 136.587C187.892 138.245 187.82 139.903 187.82 141.489C187.388 141.561 186.884 141.705 186.452 141.777C186.452 140.12 186.524 138.534 186.524 136.876C186.02 137.02 185.588 137.092 185.084 137.164C185.084 138.822 185.011 140.48 185.011 142.066C184.579 142.138 184.075 142.282 183.643 142.354C183.643 140.696 183.715 139.11 183.715 137.452C176.946 138.894 170.248 140.336 163.479 141.777C156.709 143.219 150.012 144.661 143.242 146.175C143.242 147.832 143.242 149.49 143.17 151.148C142.738 151.22 142.234 151.365 141.802 151.437C141.802 149.779 141.802 148.121 141.874 146.463C141.37 146.535 140.866 146.679 140.433 146.751C140.433 148.409 140.433 150.067 140.361 151.725C139.929 151.797 139.425 151.941 138.993 152.013C138.993 150.355 138.993 148.698 139.065 147.04C132.296 148.481 125.598 149.923 118.829 151.365C112.059 152.806 105.361 154.248 98.592 155.69C98.592 157.348 98.592 159.078 98.592 160.736C98.1599 160.808 97.6558 160.952 97.2237 161.024C97.2237 159.366 97.2237 157.636 97.2237 155.978C96.7196 156.122 96.2154 156.194 95.7833 156.266C95.7833 157.924 95.7833 159.654 95.7833 161.312C95.4953 161.456 95.0632 161.528 94.6311 161.673ZM188.108 46.6985C187.604 46.7706 187.1 46.8426 186.668 46.9868C186.596 53.8348 186.452 60.6107 186.308 67.3866C186.236 74.1625 186.092 81.0105 185.948 87.7864C186.452 87.7143 186.956 87.5701 187.388 87.4981C187.532 80.7222 187.604 73.8742 187.748 67.0983C187.892 60.2503 187.964 53.4744 188.108 46.6985ZM185.228 47.2031C178.386 48.5006 171.544 49.726 164.775 50.9514C157.933 52.2489 151.092 53.4744 144.322 54.7719C144.25 61.692 144.178 68.5399 144.106 75.46C144.034 82.3801 143.962 89.2281 143.89 96.1482C150.66 94.7786 157.429 93.481 164.271 92.1114C171.04 90.7418 177.81 89.4443 184.651 88.0747C184.795 81.2988 184.868 74.4508 184.94 67.6749C185.012 60.8269 185.156 53.979 185.228 47.2031ZM119.621 59.3132C112.779 60.5386 105.938 61.8361 99.1681 63.0615C99.1681 70.0537 99.0961 77.0459 99.0961 84.0381C99.0961 91.0302 99.0241 98.0224 99.0241 105.015C105.794 103.645 112.563 102.347 119.405 100.978C126.174 99.6082 132.944 98.3107 139.785 96.9411C139.857 90.021 139.929 83.1009 140.001 76.253C140.073 69.3329 140.145 62.4128 140.217 55.5648C133.232 56.7902 126.39 58.0157 119.621 59.3132ZM97.7278 63.3499C97.2237 63.422 96.7196 63.4941 96.2155 63.6382C96.2155 70.6304 96.1434 77.6226 96.1434 84.6147C96.1434 91.6069 96.0714 98.599 96.0714 105.591C96.5755 105.519 97.0076 105.375 97.5118 105.303C97.5118 98.3107 97.5837 91.3186 97.5837 84.3264C97.7278 77.3342 97.7278 70.3421 97.7278 63.3499ZM142.954 54.9882C142.45 55.0602 141.946 55.2044 141.442 55.2765C141.37 62.1966 141.298 69.1166 141.226 75.9646C141.154 82.8847 141.082 89.7327 141.01 96.6528C141.514 96.5807 142.018 96.4365 142.522 96.3644C142.594 89.4444 142.666 82.5963 142.738 75.6763C142.81 68.8283 142.882 61.9082 142.954 54.9882ZM97.4397 154.536C97.4397 154.32 97.4397 154.032 97.4397 153.816C97.4397 153.599 97.4397 153.311 97.4397 153.023C96.9356 153.167 96.4315 153.239 95.9994 153.311C95.9994 153.599 95.9994 153.816 95.9994 154.104C95.9994 154.32 95.9994 154.608 95.9994 154.825C96.4315 154.753 96.9356 154.681 97.4397 154.536ZM98.808 153.527C98.808 153.743 98.808 154.032 98.808 154.248C105.506 152.806 112.275 151.365 119.045 149.923C125.742 148.481 132.512 147.04 139.281 145.598C139.281 145.382 139.281 145.093 139.281 144.877C139.281 144.661 139.281 144.372 139.281 144.156C132.512 145.598 125.814 147.04 119.045 148.481C112.275 149.923 105.578 151.365 98.808 152.806C98.808 153.023 98.808 153.239 98.808 153.527ZM97.5837 107.465C97.5837 107.249 97.5837 106.961 97.5837 106.745C97.0796 106.817 96.5755 106.961 96.0714 107.033C96.0714 107.249 96.0714 107.537 96.0714 107.754C96.0714 108.042 96.0714 108.258 96.0714 108.547C96.5755 108.475 97.0797 108.33 97.5118 108.258C97.5838 107.97 97.5837 107.754 97.5837 107.465ZM98.9521 106.456C98.9521 106.672 98.9521 106.961 98.9521 107.177C98.9521 107.465 98.9521 107.682 98.9521 107.898C105.722 106.528 112.491 105.231 119.261 103.861C126.03 102.492 132.8 101.122 139.569 99.8245C139.569 99.6082 139.569 99.3199 139.569 99.1036C139.569 98.8874 139.569 98.599 139.569 98.3828C132.8 99.7524 126.03 101.05 119.261 102.419C112.563 103.717 105.722 105.087 98.9521 106.456ZM97.4397 151.653C97.4397 144.661 97.5118 137.669 97.5118 130.677C97.5118 123.684 97.5837 116.692 97.5837 109.7C97.0796 109.772 96.5755 109.916 96.1434 109.988C96.1434 116.98 96.0714 123.973 96.0714 130.965C96.0714 137.957 95.9994 144.949 95.9994 151.941C96.5035 151.797 96.9356 151.725 97.4397 151.653ZM98.9521 109.34C98.9521 116.332 98.88 123.324 98.88 130.316C98.88 137.308 98.808 144.3 98.808 151.293C105.506 149.851 112.275 148.409 119.045 146.967C125.814 145.526 132.512 144.084 139.281 142.642C139.353 135.722 139.425 128.874 139.497 121.954C139.569 115.034 139.641 108.114 139.713 101.194C132.944 102.564 126.174 103.933 119.405 105.231C112.491 106.672 105.722 108.042 98.9521 109.34ZM142.09 144.228C142.09 144.012 142.09 143.724 142.09 143.507C141.586 143.58 141.082 143.724 140.649 143.796C140.649 144.084 140.649 144.3 140.649 144.517C140.649 144.733 140.649 145.021 140.649 145.237C141.154 145.165 141.586 145.021 142.09 144.949C142.09 144.733 142.09 144.445 142.09 144.228ZM141.01 98.8153C141.01 99.1036 141.01 99.3199 141.01 99.5362C141.514 99.4641 142.018 99.3199 142.522 99.2478C142.522 99.0316 142.522 98.7432 142.522 98.527C142.522 98.3107 142.522 98.0224 142.522 97.8061C142.018 97.8782 141.514 98.0224 141.01 98.0944C141.01 98.3107 141.01 98.599 141.01 98.8153ZM143.89 98.2386C143.89 98.4549 143.89 98.7432 143.89 98.9595C150.66 97.5899 157.429 96.2203 164.199 94.9228C170.968 93.5532 177.738 92.2556 184.507 90.886C184.507 90.6698 184.507 90.3815 184.507 90.1652C184.507 89.9489 184.507 89.6606 184.507 89.4444C177.738 90.814 170.968 92.1115 164.199 93.4811C157.429 94.8507 150.66 96.1482 143.818 97.5178C143.89 97.734 143.89 98.0224 143.89 98.2386ZM140.649 142.354C141.154 142.282 141.586 142.138 142.09 142.066C142.162 135.146 142.234 128.298 142.306 121.378C142.378 114.458 142.45 107.61 142.522 100.689C142.018 100.762 141.514 100.906 141.01 100.978C140.938 107.898 140.866 114.818 140.794 121.666C140.794 128.586 140.722 135.506 140.649 142.354ZM143.458 141.777C150.228 140.336 156.925 138.894 163.695 137.452C170.464 136.011 177.162 134.569 183.931 133.127C184.003 126.351 184.147 119.503 184.291 112.728C184.363 105.952 184.507 99.1037 184.651 92.3277C177.882 93.6973 171.112 95.0669 164.343 96.3644C157.573 97.734 150.804 99.1036 144.034 100.401C143.962 107.321 143.89 114.169 143.818 121.089C143.602 128.009 143.53 134.857 143.458 141.777ZM186.668 134.641C186.668 134.425 186.668 134.137 186.668 133.92C186.164 133.992 185.732 134.137 185.228 134.209C185.228 134.425 185.228 134.713 185.228 134.929C185.228 135.146 185.228 135.434 185.228 135.65C185.732 135.578 186.164 135.434 186.668 135.362C186.668 135.074 186.668 134.857 186.668 134.641ZM185.3 132.767C185.804 132.695 186.236 132.551 186.74 132.479C186.812 125.703 186.956 118.855 187.1 112.079C187.244 105.303 187.316 98.4549 187.46 91.679C186.956 91.751 186.524 91.8952 186.02 91.9673C185.876 98.7432 185.804 105.591 185.66 112.367C185.516 119.215 185.372 125.991 185.3 132.767ZM187.388 90.3093C187.388 90.0931 187.388 89.8048 187.388 89.5885C187.388 89.3723 187.388 89.0839 187.388 88.8677C186.884 88.9398 186.38 89.0839 185.948 89.156C185.948 89.3723 185.948 89.6606 185.948 89.8769C185.948 90.0931 185.948 90.3814 185.948 90.5977C186.452 90.5256 186.884 90.4535 187.388 90.3093Z" fill="url(#paint3_radial_1_37242)"/>
<path d="M75.1147 165.853C75.1147 163.402 75.1147 161.023 75.1147 158.573C75.1147 151.508 75.1147 144.516 75.1147 137.452C74.8986 137.524 74.6106 137.524 74.3945 137.596C74.3945 137.164 74.3945 136.659 74.3945 136.154C74.6106 136.082 74.8986 136.082 75.1147 136.01C75.1147 135.506 75.1147 135.001 75.1147 134.496C74.8986 134.569 74.6106 134.569 74.3945 134.641C74.3945 134.136 74.3945 133.704 74.3945 133.199C74.6106 133.127 74.8986 133.127 75.1147 133.055C75.1147 125.991 75.1147 118.998 75.1147 111.934C75.1147 104.87 75.1147 97.8778 75.1147 90.8135C74.8986 90.8856 74.6106 90.8856 74.3945 90.9577C74.3945 90.4531 74.3945 90.0206 74.3945 89.516C74.6106 89.4439 74.8986 89.4439 75.1147 89.3718C75.1147 88.8672 75.1147 88.3626 75.1147 87.858C74.8986 87.9301 74.6106 87.9301 74.3945 88.0022C74.3945 87.4976 74.3945 87.0651 74.3945 86.5605C74.6106 86.4884 74.8986 86.4885 75.1147 86.4164C75.1147 79.3521 75.1147 72.36 75.1147 65.2957C75.5468 65.2236 76.0509 65.1515 76.483 65.0794C76.483 72.1437 76.483 79.2079 76.483 86.2001C83.3245 84.9026 90.094 83.6051 96.8636 82.3076C103.633 81.0101 110.475 79.7126 117.316 78.415C117.388 71.495 117.388 64.5028 117.46 57.5106C117.892 57.4385 118.396 57.3665 118.829 57.2944C118.757 64.2865 118.757 71.2066 118.685 78.1988C118.901 78.1267 119.189 78.1267 119.405 78.0546C119.621 77.9825 119.909 77.9825 120.125 77.9105C120.197 70.9904 120.197 63.9982 120.269 57.0781C120.701 57.0061 121.205 56.9339 121.637 56.8618C121.565 63.7819 121.565 70.7741 121.493 77.6942C128.335 76.3966 135.104 75.0992 141.946 73.8017C148.787 72.5041 155.557 71.2066 162.398 69.9091C162.47 63.0611 162.542 56.2131 162.686 49.3651C163.119 49.2931 163.623 49.2209 164.055 49.1488C163.983 55.9968 163.839 62.917 163.767 69.6929C163.983 69.6208 164.271 69.6208 164.487 69.5487C164.703 69.4766 164.991 69.4766 165.207 69.4045C165.279 62.5565 165.351 55.7085 165.495 48.8605C165.927 48.7884 166.431 48.7164 166.863 48.5722C166.791 55.4202 166.647 62.2682 166.575 69.1162C173.345 67.8187 180.186 66.5211 186.956 65.2236C193.798 63.9261 200.567 62.6286 207.409 61.3311C207.553 54.5552 207.697 47.7793 207.769 41.0755C208.201 41.0034 208.705 40.9313 209.137 40.7871C208.993 47.563 208.849 54.3389 208.777 61.0427C208.993 60.9707 209.281 60.9707 209.497 60.8986C209.497 61.3311 209.497 61.8356 209.497 62.2682C209.209 62.3402 208.993 62.3403 208.777 62.4124C208.777 62.9169 208.777 63.4215 208.777 63.854C208.993 63.7819 209.281 63.782 209.497 63.7099C209.497 64.1424 209.497 64.6469 209.497 65.0794C209.209 65.1515 208.993 65.1515 208.777 65.2236C208.633 71.9995 208.489 78.7033 208.417 85.4793C208.273 92.2552 208.129 98.959 208.057 105.735C208.273 105.663 208.561 105.663 208.777 105.591C208.777 106.023 208.777 106.528 208.777 106.96C208.489 107.032 208.273 107.104 208.057 107.104C208.057 107.609 208.057 108.114 208.057 108.546C208.273 108.474 208.561 108.474 208.777 108.402C208.777 108.835 208.777 109.339 208.777 109.772C208.489 109.844 208.273 109.844 208.057 109.916C207.913 116.692 207.769 123.396 207.697 130.171C207.625 132.478 207.625 134.857 207.553 137.164C207.121 137.236 206.616 137.38 206.184 137.452C206.256 135.145 206.256 132.839 206.328 130.46C206.472 123.684 206.616 116.98 206.688 110.204C199.919 111.646 193.149 113.015 186.38 114.385C179.61 115.755 172.841 117.196 166.143 118.566C166.071 125.414 165.999 132.262 165.855 139.11C165.855 141.489 165.783 143.795 165.783 146.174C165.351 146.246 164.847 146.39 164.415 146.462C164.415 144.084 164.487 141.777 164.487 139.398C164.559 132.55 164.703 125.702 164.775 118.854C164.559 118.926 164.271 118.926 164.055 118.998C163.839 119.07 163.551 119.07 163.335 119.143C163.263 125.991 163.191 132.839 163.047 139.687C163.047 142.065 162.975 144.444 162.975 146.751C162.542 146.823 162.038 146.967 161.606 147.039C161.606 144.66 161.678 142.354 161.678 139.975C161.75 133.127 161.822 126.279 161.966 119.431C155.197 120.8 148.427 122.242 141.658 123.612C134.888 124.981 128.119 126.423 121.421 127.793C121.349 134.713 121.349 141.705 121.277 148.625C121.277 151.004 121.277 153.383 121.205 155.761C120.773 155.833 120.269 155.978 119.837 156.05C119.837 153.671 119.837 151.292 119.909 148.841C119.981 141.921 119.981 134.929 120.053 128.009C119.837 128.081 119.549 128.081 119.333 128.153C119.117 128.225 118.829 128.297 118.613 128.297C118.541 135.217 118.54 142.209 118.468 149.13C118.468 151.508 118.468 153.959 118.396 156.338C117.892 156.41 117.46 156.554 117.028 156.626C117.028 154.248 117.028 151.869 117.1 149.418C117.172 142.498 117.172 135.506 117.244 128.586C110.475 129.955 103.705 131.397 96.9356 132.766C90.1661 134.136 83.3966 135.578 76.6991 136.947C76.6991 144.012 76.6991 151.004 76.6991 158.068C76.6991 160.519 76.6991 162.898 76.6991 165.349C76.0509 165.637 75.6188 165.781 75.1147 165.853ZM76.483 87.6418C76.483 88.1464 76.483 88.651 76.483 89.1556C83.2525 87.8581 90.094 86.5605 96.8636 85.263C103.633 83.9655 110.475 82.668 117.316 81.3705C117.316 80.8659 117.316 80.3613 117.316 79.8567C110.475 81.1542 103.705 82.4517 96.8636 83.7493C90.094 85.0468 83.3245 86.2722 76.483 87.6418ZM76.483 90.5252C76.483 97.5894 76.483 104.582 76.483 111.646C76.483 118.71 76.483 125.702 76.483 132.766C83.2525 131.397 90.0221 129.955 96.7196 128.586C103.489 127.216 110.259 125.774 117.028 124.405C117.1 117.485 117.1 110.492 117.172 103.572C117.244 96.6523 117.244 89.6602 117.316 82.7401C110.475 84.0376 103.705 85.3351 96.9356 86.6326C90.0941 87.9301 83.3245 89.2277 76.483 90.5252ZM76.483 134.208C76.483 134.713 76.483 135.217 76.483 135.722C83.2525 134.352 90.0221 132.911 96.7196 131.541C103.489 130.171 110.259 128.73 117.028 127.36C117.028 126.856 117.028 126.351 117.028 125.846C110.259 127.216 103.489 128.658 96.7196 130.027C90.0221 131.397 83.2525 132.839 76.483 134.208ZM118.757 79.5684C118.757 80.0729 118.757 80.5775 118.757 81.0821C118.973 81.01 119.261 81.0101 119.477 80.938C119.693 80.8659 119.981 80.8659 120.197 80.7938C120.197 80.2892 120.197 79.7846 120.197 79.28C119.981 79.3521 119.693 79.3521 119.477 79.4242C119.189 79.4242 118.973 79.4963 118.757 79.5684ZM118.685 82.4517C118.612 89.3718 118.613 96.364 118.54 103.284C118.468 110.204 118.468 117.196 118.396 124.116C118.612 124.044 118.901 124.044 119.117 123.972C119.333 123.9 119.621 123.9 119.837 123.828C119.909 116.908 119.909 109.916 119.981 102.996C120.053 96.0756 120.053 89.0835 120.125 82.1634C119.909 82.2355 119.621 82.2355 119.405 82.3076C119.189 82.3797 118.973 82.3797 118.685 82.4517ZM118.468 125.558C118.468 126.063 118.468 126.567 118.468 127.072C118.685 127 118.973 127 119.189 126.928C119.405 126.856 119.693 126.856 119.909 126.784C119.909 126.279 119.909 125.774 119.909 125.27C119.693 125.342 119.405 125.342 119.189 125.414C118.901 125.414 118.685 125.486 118.468 125.558ZM121.565 78.9917C121.565 79.4963 121.565 80.0009 121.565 80.5055C128.335 79.208 135.176 77.9105 141.946 76.6129C148.715 75.3154 155.557 74.0179 162.398 72.7204C162.398 72.2158 162.398 71.7112 162.398 71.2066C155.557 72.5041 148.787 73.8017 141.946 75.0992C135.176 76.3967 128.407 77.6942 121.565 78.9917ZM121.565 81.875C121.493 88.7951 121.493 95.7873 121.421 102.707C121.349 109.627 121.349 116.62 121.277 123.54C128.047 122.17 134.816 120.728 141.586 119.359C148.355 117.989 155.125 116.548 161.894 115.178C161.966 108.33 162.038 101.482 162.182 94.634C162.254 87.786 162.326 80.9379 162.47 74.09C155.629 75.3875 148.859 76.685 142.018 77.9825C135.176 79.28 128.335 80.5775 121.565 81.875ZM121.277 124.981C121.277 125.486 121.277 125.991 121.277 126.495C128.047 125.126 134.816 123.684 141.586 122.314C148.355 120.945 155.125 119.503 161.894 118.133C161.894 117.629 161.894 117.124 161.894 116.62C155.125 117.989 148.355 119.431 141.586 120.8C134.816 122.17 128.047 123.54 121.277 124.981ZM164.631 117.485C164.631 116.98 164.631 116.475 164.631 115.971C164.415 116.043 164.127 116.043 163.911 116.115C163.695 116.187 163.407 116.187 163.191 116.259C163.191 116.764 163.191 117.268 163.191 117.773C163.407 117.701 163.695 117.701 163.911 117.629C164.199 117.557 164.415 117.557 164.631 117.485ZM164.703 114.601C164.775 107.753 164.847 100.905 164.991 94.0573C165.063 87.2093 165.135 80.3613 165.279 73.5133C165.063 73.5854 164.775 73.5854 164.559 73.6575C164.343 73.7295 164.055 73.7296 163.839 73.8017C163.767 80.6497 163.695 87.4976 163.551 94.3456C163.479 101.194 163.407 108.042 163.263 114.89C163.479 114.818 163.767 114.818 163.983 114.745C164.199 114.673 164.415 114.673 164.703 114.601ZM166.359 93.7689C166.287 100.617 166.215 107.465 166.071 114.313C172.841 112.943 179.61 111.502 186.308 110.132C193.077 108.762 199.847 107.321 206.616 105.951C206.76 99.1753 206.904 92.4714 206.976 85.6955C207.121 78.9196 207.193 72.2158 207.337 65.4399C200.495 66.7374 193.725 68.0349 186.884 69.3324C180.114 70.6299 173.273 71.9275 166.503 73.225C166.503 80.073 166.431 86.921 166.359 93.7689ZM166.071 115.683C166.071 116.187 166.071 116.692 166.071 117.196C172.841 115.827 179.61 114.385 186.38 113.015C193.149 111.646 199.919 110.204 206.688 108.835C206.688 108.33 206.688 107.897 206.688 107.393C199.919 108.762 193.149 110.204 186.38 111.574C179.538 112.943 172.841 114.313 166.071 115.683ZM165.207 72.1437C165.207 71.6391 165.207 71.1345 165.207 70.6299C164.991 70.702 164.703 70.702 164.487 70.7741C164.271 70.8462 163.983 70.8462 163.767 70.9183C163.767 71.4229 163.767 71.9275 163.767 72.432C163.983 72.36 164.271 72.3599 164.487 72.2878C164.775 72.2158 164.991 72.1437 165.207 72.1437ZM166.647 70.4137C166.647 70.9183 166.647 71.4229 166.647 71.8554C173.417 70.5578 180.258 69.2603 187.028 67.9628C193.798 66.6653 200.639 65.3678 207.481 64.0703C207.481 63.5657 207.481 63.1332 207.481 62.6286C200.639 63.9261 193.87 65.2236 187.028 66.5211C180.258 67.7466 173.417 69.0441 166.647 70.4137Z" fill="url(#paint4_radial_1_37242)"/>
<path fill-rule="evenodd" clip-rule="evenodd" d="M55.8114 66.5243C55.8114 74.1652 55.8834 81.8061 55.8834 89.3749C53.7949 88.1495 51.7785 86.924 49.6901 85.6986C47.6016 84.4732 45.5851 83.2478 43.4966 82.0224C43.4246 74.4535 43.4246 66.9568 43.3526 59.388C45.4411 60.5413 47.4575 61.7667 49.546 62.9201C51.7065 64.1455 53.795 65.3709 55.8114 66.5243ZM74.3916 100.476C72.3032 99.2505 70.2867 98.025 68.1982 96.7996C68.1982 89.0866 68.1982 81.3736 68.1982 73.6606C70.2867 74.8139 72.3032 76.0393 74.3916 77.1927C74.3916 84.9057 74.3916 92.6908 74.3916 100.476ZM6.33622 38.2673C6.40823 45.5478 6.55227 52.7562 6.62429 59.9646C4.53582 58.7392 2.51937 57.5138 0.502916 56.2883C0.430899 49.0799 0.28686 41.8715 0.214844 34.6631C2.2313 35.8885 4.24775 37.0419 6.33622 38.2673ZM25.1325 70.9935C23.044 69.7681 21.0275 68.5426 18.9391 67.3172C18.8671 59.9646 18.795 52.612 18.723 45.2594C20.8115 46.4128 22.828 47.6382 24.9164 48.7916C27.0049 49.9449 29.0214 51.1703 31.1098 52.3237C31.1819 59.7483 31.2538 67.173 31.2538 74.6698C29.2374 73.4443 27.1489 72.2189 25.1325 70.9935ZM56.0275 112.298C56.0275 119.939 56.0995 127.58 56.0995 135.148C54.083 133.851 51.9945 132.481 49.9781 131.184C47.9616 129.886 45.8732 128.517 43.8567 127.219C43.7847 119.722 43.7847 112.154 43.7127 104.657C45.7291 105.954 47.8176 107.18 49.8341 108.477C51.9225 109.775 53.939 111.072 56.0275 112.298ZM74.3916 147.114C72.3752 145.745 70.2867 144.447 68.2702 143.15C68.2702 135.437 68.2702 127.724 68.2702 120.011C70.2867 121.308 72.3752 122.534 74.3916 123.831C74.3916 131.544 74.3916 139.329 74.3916 147.114ZM6.91236 81.734C6.98438 89.0145 7.12842 96.223 7.20043 103.431C5.18398 102.134 3.09552 100.764 1.07906 99.4667C1.00704 92.2583 0.863003 85.0499 0.790987 77.8415C2.80744 79.2111 4.8959 80.4365 6.91236 81.734ZM25.4926 115.325C23.4761 114.028 21.3876 112.658 19.3711 111.361C19.2991 104.008 19.2271 96.6554 19.1551 89.3749C21.1716 90.6724 23.26 91.8979 25.2765 93.1954C27.2929 94.4929 29.3815 95.7183 31.3979 97.0158C31.4699 104.44 31.5419 111.865 31.6139 119.29C29.5975 117.992 27.581 116.623 25.4926 115.325Z" fill="url(#paint5_radial_1_37242)"/>
<path d="M50.0501 141.849C46.3773 139.398 42.7044 136.948 39.0316 134.569C39.0316 134.785 39.0316 135.073 39.0316 135.29C39.0316 135.578 39.0316 135.794 39.0316 136.01C42.7044 138.461 46.3773 140.912 50.0501 143.363C53.7229 145.814 57.3958 148.193 61.0686 150.716C61.0686 150.499 61.0686 150.211 61.0686 149.995C61.0686 149.779 61.0686 149.49 61.0686 149.274C57.3958 146.679 53.7229 144.3 50.0501 141.849ZM12.3856 124.405C12.3856 122.819 12.3136 121.233 12.3136 119.647C8.64075 117.197 4.96793 114.746 1.2951 112.295C1.2951 111.862 1.2951 111.43 1.2951 110.997C4.96793 113.448 8.64075 115.899 12.3136 118.35C12.3136 118.134 12.3136 117.845 12.3136 117.629C12.3136 117.413 12.3136 117.124 12.3136 116.908C8.64075 114.457 4.96793 112.006 1.2951 109.628C1.2951 109.195 1.2951 108.763 1.2951 108.33C4.96793 110.781 8.64075 113.16 12.3136 115.611C12.2416 108.979 12.1696 102.419 12.0975 95.7875C12.0255 89.2278 11.9535 82.5961 11.8815 75.9643C8.13666 73.6576 4.4638 71.4231 0.718956 69.1164C0.718956 68.6839 0.718956 68.2514 0.718956 67.8188C4.39179 70.1255 8.13666 72.3602 11.8815 74.5948C11.8815 74.3785 11.8815 74.0901 11.8815 73.8739C11.8815 73.6576 11.8815 73.3693 11.8815 73.1531C8.13666 70.8464 4.4638 68.6117 0.718956 66.3771C0.718956 65.9446 0.718956 65.5121 0.718956 65.0796C4.39179 67.3142 8.13666 69.6209 11.8815 71.8555C11.8095 65.2238 11.7374 58.6641 11.6654 52.0324C11.5934 45.4727 11.5214 38.841 11.4494 32.2093C7.70452 30.1188 3.95969 28.0284 0.214844 25.8659C0.214844 25.4334 0.214844 25.0009 0.214844 24.5684C3.95969 26.6588 7.70452 28.7492 11.4494 30.8396C11.4494 30.6234 11.4494 30.3351 11.4494 30.1188C11.7374 30.263 11.9535 30.4072 12.2416 30.5514C12.2416 30.8397 12.2416 31.0559 12.2416 31.2722C12.5296 31.4164 12.7457 31.5605 13.0337 31.7047C13.0337 31.4884 13.0337 31.2001 13.0337 30.9838C13.3218 31.128 13.5379 31.2722 13.8259 31.4163C13.8259 31.7047 13.8259 31.9209 13.8259 32.1372C17.5708 34.2276 21.3156 36.3181 25.0604 38.4085C28.8053 40.4989 32.5502 42.5894 36.295 44.6798C36.295 44.4636 36.295 44.1753 36.295 43.959C36.5831 44.1032 36.7991 44.2473 37.0872 44.3915C37.0872 44.6798 37.0872 44.8961 37.0872 45.1123C37.3753 45.2565 37.5913 45.4006 37.8793 45.5448C37.8793 45.3286 37.8793 45.0402 37.8793 44.824C38.1674 44.9682 38.3834 45.1123 38.6715 45.2565C38.6715 45.5448 38.6715 45.7611 38.6715 45.9774C42.4164 48.0678 46.1612 50.1582 49.9061 52.2486C53.6509 54.3391 57.3958 56.4295 61.1406 58.52C61.1406 58.2316 61.1406 58.0154 61.1406 57.7271C61.4287 57.8712 61.6447 58.0154 61.9328 58.1595C61.9328 58.4479 61.9328 58.6641 61.9328 58.9525C62.2209 59.0966 62.4369 59.2408 62.725 59.385C62.725 59.0967 62.725 58.8804 62.725 58.5921C63.013 58.7363 63.2291 58.8804 63.5172 59.0246C63.5172 59.3129 63.5172 59.5292 63.5172 59.8175C67.262 61.9079 71.0068 63.9984 74.7517 66.0888C74.7517 66.5934 74.7517 67.0259 74.7517 67.5305C71.0068 65.4401 67.262 63.3496 63.5172 61.2592C63.5172 68.2513 63.5172 75.1714 63.5892 82.1636C63.5892 89.1557 63.5892 96.0758 63.6612 103.068C67.406 105.303 71.0789 107.609 74.8237 109.844C74.8237 110.349 74.8237 110.781 74.8237 111.286C71.0789 109.051 67.406 106.744 63.6612 104.51C63.6612 104.798 63.6612 105.014 63.6612 105.231C63.6612 105.519 63.6612 105.735 63.6612 105.951C67.406 108.186 71.0789 110.493 74.8237 112.727C74.8237 113.232 74.8237 113.664 74.8237 114.169C71.0789 111.862 67.406 109.628 63.6612 107.321C63.6612 114.313 63.6612 121.233 63.7332 128.225C63.7332 135.218 63.7332 142.138 63.8052 149.13C67.4781 151.581 71.1509 153.959 74.8958 156.41C74.8958 156.915 74.8958 157.347 74.8958 157.852C71.2229 155.401 67.4781 152.95 63.8052 150.571C63.8052 150.86 63.8052 151.076 63.8052 151.292C63.8052 151.581 63.8052 151.797 63.8052 152.013C67.4781 154.464 71.1509 156.915 74.8958 159.366C74.8958 159.87 74.8958 160.303 74.8958 160.807C71.2229 158.357 67.55 155.906 63.8772 153.455C63.8772 155.113 63.8772 156.843 63.8772 158.501C63.6612 158.357 63.3731 158.14 63.1571 157.996C63.1571 156.338 63.1571 154.608 63.1571 152.95C62.869 152.806 62.6529 152.59 62.3649 152.446C62.3649 154.104 62.3649 155.834 62.3649 157.492C62.0768 157.347 61.8608 157.131 61.6447 156.987C61.6447 155.329 61.6447 153.671 61.6447 151.941C57.9719 149.49 54.2991 147.039 50.6262 144.588C46.9534 142.138 43.2806 139.687 39.6078 137.236C39.6078 138.894 39.6077 140.48 39.6797 142.138C39.4637 141.993 39.1756 141.777 38.9596 141.633C38.9596 139.975 38.9596 138.389 38.8876 136.731C38.5995 136.515 38.3835 136.371 38.0954 136.227C38.0954 137.885 38.0954 139.47 38.1674 141.128C37.9514 140.984 37.6633 140.768 37.4473 140.624C37.4473 138.966 37.4472 137.38 37.3752 135.722C33.7024 133.271 30.0296 130.82 26.3567 128.37C22.6839 125.919 19.0111 123.468 15.3383 121.017C15.3383 122.603 15.4103 124.189 15.4103 125.775C15.1942 125.63 14.9062 125.414 14.6901 125.27C14.6901 123.684 14.6181 122.098 14.6181 120.512C14.33 120.368 14.114 120.152 13.8259 120.008C13.8259 121.594 13.8979 123.179 13.8979 124.765C12.8897 124.765 12.6017 124.549 12.3856 124.405ZM62.4369 60.8988C62.1488 60.7546 61.9328 60.6104 61.6447 60.4662C61.6447 67.3863 61.6447 74.3785 61.7168 81.2985C61.7168 88.2186 61.7168 95.2108 61.7888 102.131C62.0769 102.275 62.2929 102.491 62.5809 102.636C62.5809 95.7154 62.581 88.7233 62.5089 81.8032C62.4369 74.8831 62.4369 67.8909 62.4369 60.8988ZM60.8525 60.0337C57.1077 57.9433 53.3629 55.8529 49.618 53.6904C45.8732 51.5999 42.1283 49.5095 38.3835 47.419C38.4555 54.1949 38.4555 61.0429 38.5275 67.8188C38.5995 74.5948 38.5995 81.4428 38.6715 88.2187C42.4164 90.4533 46.0892 92.7599 49.8341 94.9945C53.5789 97.2292 57.2518 99.5359 60.9966 101.77C60.9966 94.8504 60.9966 87.8582 60.9246 80.9382C60.8526 73.946 60.8525 67.0259 60.8525 60.0337ZM24.8444 39.8502C21.0996 37.7597 17.3547 35.6693 13.6099 33.5789C13.6819 40.2106 13.7539 46.8424 13.8259 53.4741C13.8979 60.1059 13.9699 66.7376 14.042 73.2973C17.7868 75.5319 21.4597 77.8385 25.2045 80.0731C28.9494 82.3077 32.6222 84.6144 36.367 86.8491C36.295 80.0731 36.295 73.2972 36.223 66.5213C36.151 59.7454 36.1509 52.9695 36.0789 46.1936C32.2621 44.0311 28.5172 41.9406 24.8444 39.8502ZM12.8177 33.0743C12.5296 32.9301 12.2416 32.7859 12.0255 32.6417C12.0975 39.2735 12.1695 45.9052 12.2416 52.4649C12.3136 59.0966 12.3856 65.6563 12.4576 72.288C12.7457 72.4322 12.9617 72.5764 13.2498 72.7927C13.1778 66.1609 13.1058 59.5292 13.0337 52.9695C12.9617 46.3378 12.8897 39.706 12.8177 33.0743ZM37.5913 46.9865C37.3032 46.8424 37.0152 46.6982 36.7991 46.554C36.8711 53.3299 36.8711 60.1058 36.9431 66.8817C37.0152 73.6576 37.0152 80.4336 37.0872 87.2095C37.3753 87.3537 37.5913 87.5699 37.8793 87.7141C37.8073 80.9382 37.8073 74.1623 37.7353 67.3864C37.7353 60.6105 37.6633 53.8345 37.5913 46.9865ZM13.8259 119.287C13.8259 119.071 13.8259 118.782 13.8259 118.566C13.8259 118.35 13.8259 118.062 13.8259 117.845C13.5379 117.629 13.3218 117.485 13.0337 117.341C13.0337 117.557 13.0337 117.845 13.0337 118.062C13.0337 118.278 13.0337 118.566 13.0337 118.782C13.3218 118.999 13.6099 119.143 13.8259 119.287ZM14.6181 119.143C14.6181 119.431 14.6181 119.647 14.6181 119.864C18.2909 122.314 21.9638 124.765 25.6366 127.216C29.3094 129.667 32.9822 132.118 36.6551 134.569C36.6551 134.28 36.6551 134.064 36.6551 133.848C36.6551 133.632 36.6551 133.343 36.6551 133.127C32.9822 130.676 29.3094 128.225 25.6366 125.847C21.9638 123.396 18.2909 121.017 14.6181 118.566C14.5461 118.638 14.6181 118.926 14.6181 119.143ZM13.3218 74.811C13.3218 74.5948 13.3218 74.3064 13.3218 74.0901C13.0337 73.946 12.8177 73.7297 12.5296 73.5855C12.5296 73.8018 12.5296 74.0902 12.5296 74.3064C12.5296 74.5227 12.5296 74.811 12.5296 75.0273C12.8177 75.1714 13.0337 75.3877 13.3218 75.5318C13.3218 75.3156 13.3218 75.0994 13.3218 74.811ZM14.042 74.5948C14.042 74.811 14.042 75.0994 14.042 75.3156C14.042 75.6039 14.042 75.8202 14.042 76.0364C17.7148 78.3431 21.4597 80.5778 25.2045 82.8124C28.9494 85.1191 32.6222 87.3536 36.367 89.5882C36.367 89.372 36.367 89.0837 36.367 88.8674C36.367 88.6512 36.367 88.3628 36.367 88.1466C32.6222 85.912 28.9494 83.6053 25.2045 81.3706C21.4597 79.136 17.7868 76.8294 14.042 74.5948ZM13.8259 116.548C13.7539 109.916 13.6819 103.356 13.6099 96.7246C13.5379 90.0929 13.4659 83.4611 13.3938 76.9015C13.1058 76.7573 12.8897 76.541 12.6017 76.3969C12.6737 83.0286 12.7457 89.6604 12.8177 96.22C12.8897 102.78 12.9617 109.411 13.0337 116.043C13.2498 116.187 13.5379 116.404 13.8259 116.548ZM14.114 77.334C14.186 83.9657 14.258 90.5974 14.33 97.1571C14.402 103.789 14.4741 110.421 14.5461 116.98C18.2189 119.431 21.8917 121.81 25.6366 124.261C29.3094 126.712 32.9822 129.09 36.6551 131.541C36.583 124.765 36.5831 117.989 36.5111 111.213C36.439 104.438 36.439 97.6617 36.367 90.8857C32.6222 88.5791 28.9494 86.3445 25.2045 84.0378C21.5317 81.8753 17.7868 79.6406 14.114 77.334ZM38.2394 134.785C38.2394 134.569 38.2394 134.28 38.2394 134.064C37.9514 133.848 37.7353 133.704 37.4473 133.56C37.4473 133.776 37.4473 134.064 37.4473 134.28C37.4473 134.497 37.4473 134.785 37.4473 135.001C37.7353 135.145 37.9514 135.362 38.2394 135.506C38.2394 135.29 38.2394 135.001 38.2394 134.785ZM37.0872 89.372C37.0872 89.6603 37.0872 89.8766 37.0872 90.0928C37.3753 90.237 37.5913 90.4532 37.8793 90.5974C37.8793 90.3812 37.8793 90.0928 37.8793 89.8766C37.8793 89.6603 37.8793 89.372 37.8793 89.1557C37.5913 89.0116 37.3032 88.7953 37.0872 88.6512C37.0872 88.8674 37.0872 89.0837 37.0872 89.372ZM38.6715 90.3091C38.6715 90.5974 38.6715 90.8137 38.6715 91.03C42.4164 93.2646 46.0892 95.5712 49.8341 97.8058C53.5789 100.04 57.2518 102.347 60.9966 104.582C60.9966 104.365 60.9966 104.077 60.9966 103.861C60.9966 103.645 60.9966 103.356 60.9966 103.14C57.2518 100.905 53.5789 98.5988 49.8341 96.3642C46.0892 94.1296 42.4164 91.8228 38.6715 89.5882C38.6715 89.8045 38.6715 90.0207 38.6715 90.3091ZM37.4473 132.118C37.7353 132.334 37.9514 132.478 38.2394 132.622C38.1674 125.847 38.1674 119.071 38.0954 112.295C38.0234 105.519 38.0234 98.7429 37.9514 91.8949C37.6633 91.7508 37.4472 91.5345 37.1592 91.3903C37.2312 98.1662 37.2312 104.942 37.3032 111.718C37.3753 118.494 37.3752 125.342 37.4473 132.118ZM38.9596 133.127C42.6324 135.578 46.3053 137.957 50.0501 140.408C53.7229 142.858 57.3958 145.237 61.0686 147.688C61.0686 140.768 61.0686 133.776 60.9966 126.856C60.9966 119.936 60.9246 112.943 60.9246 106.023C57.1797 103.717 53.5069 101.482 49.762 99.1754C46.0172 96.8687 42.3444 94.6342 38.5995 92.3275C38.6716 99.1034 38.6715 105.951 38.7435 112.727C38.8876 119.575 38.8876 126.351 38.9596 133.127ZM62.5809 150.932C62.5809 150.716 62.5809 150.427 62.5809 150.211C62.2929 149.995 62.0769 149.851 61.7888 149.706C61.7888 149.995 61.7888 150.211 61.7888 150.499C61.7888 150.716 61.7888 151.004 61.7888 151.22C62.0769 151.364 62.2929 151.581 62.5809 151.725C62.5809 151.436 62.5809 151.148 62.5809 150.932ZM61.7888 148.265C62.0769 148.409 62.2929 148.625 62.5809 148.769C62.5809 141.849 62.581 134.857 62.5089 127.937C62.5089 121.017 62.5089 114.025 62.4369 107.033C62.1488 106.888 61.9328 106.744 61.6447 106.528C61.6447 113.52 61.6447 120.44 61.7168 127.36C61.7888 134.353 61.7888 141.273 61.7888 148.265ZM62.5089 105.591C62.5089 105.375 62.5089 105.086 62.5089 104.87C62.5089 104.654 62.5089 104.366 62.5089 104.149C62.2209 104.005 62.0048 103.789 61.7168 103.645C61.7168 103.933 61.7168 104.149 61.7168 104.366C61.7168 104.582 61.7168 104.87 61.7168 105.086C62.0048 105.303 62.2209 105.447 62.5089 105.591Z" fill="url(#paint6_radial_1_37242)"/>
<path d="M1.72989 117.273C1.65787 115.039 1.65786 112.804 1.65786 110.569C1.58584 104.01 1.4418 97.5221 1.36979 90.9624C1.22575 90.8904 1.08175 90.8183 1.00974 90.7462C1.00974 90.3137 1.00974 89.8812 1.00974 89.4487C1.15377 89.5208 1.29777 89.5928 1.36979 89.6649C1.36979 89.2324 1.36979 88.7279 1.36979 88.2233C1.22575 88.1512 1.08175 88.0791 1.00974 87.9349C1.00974 87.5024 1.00974 87.0699 1.00974 86.6374C1.15377 86.7095 1.29777 86.7816 1.36979 86.9257C1.29777 80.3661 1.15379 73.8785 1.08177 67.3188C1.00975 60.7592 0.865713 54.2716 0.793697 47.712C0.649665 47.6399 0.50561 47.5678 0.433594 47.4957C0.433594 47.0632 0.433594 46.6307 0.433594 46.1982C0.577626 46.2703 0.721681 46.3424 0.793697 46.4144C0.793697 45.9098 0.793697 45.4774 0.793697 44.9728C0.649665 44.9007 0.50561 44.8286 0.433594 44.7565C0.433594 44.324 0.433594 43.8915 0.433594 43.459C0.577626 43.531 0.721681 43.6032 0.793697 43.6753C0.721681 37.1156 0.577642 30.628 0.505625 24.0684C0.793691 24.2125 1.00974 24.3567 1.29781 24.5008C1.36983 31.0605 1.44185 37.5481 1.58588 44.1077C5.33073 46.2703 9.07554 48.4328 12.7484 50.5953C16.4932 52.7579 20.2381 54.9204 23.9829 57.0829C23.9109 50.3791 23.8389 43.6753 23.7669 36.9714C24.0549 37.1156 24.271 37.2597 24.559 37.4039C24.6311 44.1077 24.7031 50.8116 24.7751 57.5154C24.9191 57.5875 25.0632 57.6596 25.2072 57.7316C25.3512 57.8037 25.4953 57.8758 25.6393 57.9479C25.5673 51.2441 25.4953 44.5402 25.4233 37.8364C25.7113 37.9806 25.9274 38.1248 26.2154 38.2689C26.2875 44.9728 26.3594 51.6766 26.3594 58.3804C30.1043 60.543 33.8492 62.7054 37.594 64.9401C41.3389 67.1026 45.0837 69.2651 48.8285 71.4276C48.7565 64.5796 48.7565 57.7316 48.7565 50.8116C49.0446 50.9557 49.2606 51.0999 49.5487 51.2441C49.5487 58.0921 49.6207 65.0121 49.6207 71.8601C49.7648 71.9322 49.9088 72.0043 50.0528 72.0764C50.1968 72.1485 50.3409 72.2205 50.4849 72.2926C50.4849 65.4446 50.4129 58.5246 50.4129 51.6766C50.701 51.8208 50.917 51.9649 51.2051 52.1091C51.2051 59.0292 51.2771 65.8772 51.2771 72.7973C55.0219 74.9598 58.7668 77.1223 62.4396 79.2848C66.1845 81.4473 69.9293 83.6099 73.6741 85.8445C73.6741 78.7802 73.6741 71.7881 73.6741 64.7238C73.9622 64.868 74.1783 65.0121 74.4663 65.1563C74.4663 72.2205 74.4663 79.2848 74.4663 86.277C74.6104 86.349 74.7544 86.4211 74.8985 86.4932C74.8985 86.9978 74.8985 87.4303 74.8985 87.9349C74.7544 87.8628 74.6104 87.7908 74.4663 87.7187C74.4663 88.2233 74.4663 88.7278 74.4663 89.2324C74.6104 89.3045 74.7544 89.3766 74.8985 89.4487C74.8985 89.9533 74.8985 90.3857 74.8985 90.8903C74.7544 90.8183 74.6104 90.7462 74.4663 90.6741C74.4663 97.7383 74.4663 104.731 74.4663 111.795C74.4663 118.859 74.4663 125.851 74.4663 132.915C74.6104 132.987 74.7544 133.132 74.8985 133.204C74.8985 133.708 74.8985 134.141 74.8985 134.645C74.7544 134.573 74.6104 134.501 74.4663 134.357C74.4663 134.862 74.4663 135.366 74.4663 135.871C74.6104 135.943 74.7544 136.087 74.8985 136.159C74.8985 136.664 74.8985 137.096 74.8985 137.601C74.7544 137.529 74.6104 137.457 74.4663 137.313C74.4663 144.377 74.4663 151.369 74.4663 158.433C74.4663 160.884 74.4663 163.263 74.4663 165.714C74.1783 165.57 73.9622 165.353 73.7462 165.209C73.7462 162.83 73.7462 160.379 73.7462 157.929C73.7462 150.864 73.7462 143.872 73.7462 136.808C70.0733 134.429 66.3285 132.05 62.6557 129.744C58.9828 127.365 55.238 125.058 51.5651 122.679C51.5651 129.527 51.6372 136.448 51.6372 143.296C51.6372 145.674 51.6372 148.053 51.7092 150.432C51.4211 150.216 51.2051 150.071 50.9891 149.927C50.9891 147.548 50.989 145.242 50.917 142.863C50.917 136.015 50.845 129.095 50.845 122.247C50.701 122.175 50.5569 122.103 50.4849 122.031C50.3409 121.959 50.1969 121.887 50.1248 121.742C50.1248 128.59 50.1969 135.438 50.1969 142.358C50.1969 144.737 50.1968 147.116 50.2688 149.423C49.9808 149.279 49.7647 149.062 49.5487 148.918C49.5487 146.539 49.5487 144.233 49.4767 141.854C49.4767 135.006 49.4047 128.158 49.4047 121.238C45.7319 118.859 41.987 116.48 38.3142 114.174C34.6413 111.795 30.8965 109.488 27.2237 107.109C27.2957 113.813 27.3677 120.517 27.4397 127.221C27.4397 129.527 27.5117 131.834 27.5117 134.141C27.2237 133.997 27.0076 133.78 26.7916 133.636C26.7916 131.33 26.7195 129.023 26.7195 126.716C26.6475 120.012 26.5755 113.309 26.5035 106.605C26.3595 106.533 26.2154 106.461 26.1434 106.316C25.9994 106.244 25.8554 106.172 25.7834 106.1C25.8554 112.804 25.9274 119.508 25.9994 126.139C25.9994 128.446 26.0714 130.753 26.0714 133.06C25.7833 132.915 25.5673 132.699 25.3512 132.555C25.3512 130.248 25.2792 127.942 25.2792 125.635C25.2072 118.931 25.1352 112.299 25.0631 105.596C21.3903 103.217 17.6455 100.838 13.9726 98.5313C10.2998 96.1525 6.55501 93.8458 2.88218 91.467C2.95419 98.0267 3.09818 104.514 3.17019 111.074C3.24221 113.309 3.24222 115.615 3.24222 117.85C2.234 117.634 2.01795 117.489 1.72989 117.273ZM1.44182 45.4774C1.44182 45.9819 1.44182 46.4144 1.44182 46.919C5.18666 49.0815 8.93153 51.2441 12.6044 53.4787C16.3492 55.6412 20.094 57.8758 23.8389 60.0383C23.8389 59.5337 23.8389 59.1013 23.8389 58.5967C20.094 56.4341 16.3492 54.2716 12.6763 52.037C8.93149 49.8024 5.18666 47.6399 1.44182 45.4774ZM1.51385 48.2165C1.58587 54.7762 1.7299 61.2638 1.80192 67.8234C1.87394 74.3831 2.01798 80.8707 2.08999 87.4303C5.76282 89.737 9.50768 92.1158 13.1805 94.4945C16.8533 96.8012 20.5981 99.18 24.271 101.487C24.1989 94.855 24.1269 88.1512 24.0549 81.4473C23.9829 74.7435 23.9109 68.0397 23.8389 61.4079C20.094 59.2454 16.3492 57.0108 12.6763 54.8483C8.93149 52.5416 5.18668 50.3791 1.51385 48.2165ZM2.08999 88.7278C2.08999 89.2324 2.08999 89.6649 2.08999 90.1695C5.76282 92.5483 9.50768 94.855 13.1805 97.2338C16.8533 99.6126 20.5981 101.919 24.271 104.298C24.271 103.793 24.271 103.361 24.271 102.856C20.5981 100.478 16.8533 98.1708 13.1805 95.7921C9.43566 93.4133 5.76282 91.0345 2.08999 88.7278ZM24.6311 58.9571C24.6311 59.4616 24.6311 59.8942 24.6311 60.3988C24.7751 60.4709 24.9191 60.5429 25.0631 60.615C25.2072 60.6871 25.3513 60.7592 25.4953 60.8313C25.4953 60.3267 25.4953 59.8942 25.4953 59.3896C25.3513 59.3175 25.2072 59.2454 25.0631 59.1733C24.8471 59.1012 24.7031 59.0291 24.6311 58.9571ZM24.6311 61.7683C24.7031 68.4722 24.7751 75.176 24.8471 81.8798C24.9191 88.5836 24.9911 95.2875 25.0631 101.919C25.2072 101.991 25.3513 102.063 25.4953 102.208C25.6393 102.28 25.7833 102.352 25.8553 102.496C25.7833 95.7921 25.7113 89.0882 25.6393 82.3844C25.5673 75.6806 25.4953 68.9767 25.4233 62.2729C25.2792 62.2008 25.1352 62.1288 24.9912 62.0567C24.9192 61.9125 24.7751 61.8404 24.6311 61.7683ZM24.9912 103.289C24.9912 103.793 24.9912 104.226 24.9912 104.73C25.1352 104.803 25.2792 104.875 25.3512 104.947C25.4953 105.019 25.6393 105.091 25.7113 105.235C25.7113 104.731 25.7113 104.298 25.7113 103.793C25.5673 103.721 25.4232 103.649 25.3512 103.505C25.2792 103.433 25.1352 103.361 24.9912 103.289ZM26.1434 59.8942C26.1434 60.3988 26.1434 60.8313 26.1434 61.3358C29.8883 63.4984 33.6331 65.733 37.306 67.8955C41.0508 70.0581 44.7956 72.2926 48.5405 74.4552C48.5405 73.9506 48.5405 73.446 48.5405 72.9414C44.7956 70.7789 41.0508 68.5442 37.306 66.3817C33.6331 64.2192 29.8883 62.0567 26.1434 59.8942ZM26.1434 62.7055C26.2154 69.4093 26.2874 76.1131 26.3594 82.8169C26.4315 89.5208 26.5035 96.2245 26.5755 102.928C30.2483 105.307 33.9932 107.614 37.666 109.993C41.3388 112.299 45.0837 114.678 48.7565 117.057C48.7565 110.209 48.6845 103.361 48.6845 96.4408C48.6845 89.5929 48.6125 82.7449 48.6125 75.8248C44.8677 73.5902 41.1228 71.4276 37.45 69.2651C33.6331 67.0305 29.8883 64.868 26.1434 62.7055ZM26.5755 104.298C26.5755 104.803 26.5755 105.307 26.5755 105.74C30.2483 108.118 33.9932 110.425 37.666 112.804C41.3388 115.183 45.0837 117.489 48.7565 119.868C48.7565 119.364 48.7565 118.859 48.7565 118.354C45.0837 115.976 41.3388 113.669 37.666 111.29C33.9932 108.983 30.2483 106.605 26.5755 104.298ZM50.3409 120.805C50.3409 120.301 50.3409 119.796 50.3409 119.292C50.1968 119.219 50.0528 119.147 49.9088 119.075C49.7648 119.003 49.6207 118.931 49.5487 118.787C49.5487 119.292 49.5487 119.796 49.5487 120.301C49.6927 120.373 49.8368 120.445 49.9088 120.589C50.0528 120.661 50.1968 120.733 50.3409 120.805ZM50.2688 117.922C50.2688 111.074 50.1969 104.226 50.1969 97.3058C50.1969 90.4578 50.1248 83.6098 50.1248 76.6898C49.9808 76.6177 49.8368 76.5456 49.6928 76.4735C49.5487 76.4014 49.4047 76.3293 49.2606 76.2573C49.2606 83.1053 49.3327 90.0253 49.3327 96.8733C49.3327 103.721 49.4047 110.641 49.4047 117.489C49.5487 117.561 49.6927 117.634 49.8368 117.778C50.0528 117.778 50.1968 117.85 50.2688 117.922ZM50.9891 97.8104C50.9891 104.658 51.061 111.578 51.061 118.426C54.7339 120.805 58.4787 123.112 62.1515 125.491C65.8244 127.87 69.5692 130.176 73.2421 132.555C73.2421 125.491 73.2421 118.499 73.2421 111.434C73.2421 104.37 73.2421 97.3779 73.2421 90.3137C69.4972 88.1511 65.7523 85.9165 62.0795 83.754C58.3347 81.5915 54.6619 79.3569 50.917 77.1943C50.917 84.0423 50.917 90.9624 50.9891 97.8104ZM51.061 119.868C51.061 120.373 51.061 120.877 51.061 121.382C54.7339 123.761 58.4787 126.067 62.1515 128.446C65.8244 130.825 69.5692 133.132 73.2421 135.51C73.2421 135.006 73.2421 134.501 73.2421 133.997C69.5692 131.618 65.8244 129.311 62.1515 126.932C58.4787 124.554 54.7339 122.175 51.061 119.868ZM50.1248 75.3202C50.1248 74.8156 50.1248 74.311 50.1248 73.8064C49.9808 73.7343 49.8368 73.6622 49.6928 73.5901C49.5487 73.518 49.4047 73.446 49.2606 73.3739C49.2606 73.8785 49.2606 74.3831 49.2606 74.8876C49.4047 74.9597 49.5487 75.0319 49.6928 75.1039C49.8368 75.176 49.9808 75.2481 50.1248 75.3202ZM50.845 74.311C50.845 74.8156 50.845 75.3202 50.845 75.8248C54.5898 77.9873 58.3347 80.2219 62.0075 82.3844C65.7524 84.5469 69.4972 86.7816 73.17 88.9441C73.17 88.4395 73.17 87.9349 73.17 87.4303C69.4252 85.2678 65.6804 83.0332 61.9355 80.8706C58.3347 78.636 54.5898 76.4735 50.845 74.311Z" fill="url(#paint7_radial_1_37242)"/>
<path opacity="0.55" fill-rule="evenodd" clip-rule="evenodd" d="M0.144008 33.6531L0 23.8496L74.4648 65.4421V83.2469C69.4237 66.3792 14.3312 29.6163 0.144008 33.6531Z" fill="url(#paint8_radial_1_37242)"/>
<path opacity="0.75" fill-rule="evenodd" clip-rule="evenodd" d="M74.3923 83.2439C87.1392 60.4654 181.841 43.7418 209.783 48.8598L209.927 40.498L74.3203 65.4392V83.2439H74.3923Z" fill="url(#paint9_radial_1_37242)"/>
<path opacity="0.65" fill-rule="evenodd" clip-rule="evenodd" d="M14.1136 123.179C5.47162 116.764 2.44693 112.222 1.22266 105.086L1.36666 116.98L74.3912 165.997V152.445C72.8789 156.194 67.6937 156.554 63.4447 154.68C50.1217 148.841 26.0683 132.118 14.1136 123.179Z" fill="url(#paint10_radial_1_37242)"/>
<path fill-rule="evenodd" clip-rule="evenodd" d="M74.3945 152.448V165.999L208.129 136.949L208.489 117.271C206.472 125.128 202.583 129.669 191.205 134.787C169.456 144.59 123.798 155.043 100.104 157.566C88.3657 158.791 76.1949 158.575 74.3945 152.448Z" fill="url(#paint11_radial_1_37242)"/>
<path fill-rule="evenodd" clip-rule="evenodd" d="M73.8887 65.4432L209.495 40.5021L129.197 1L0 23.8507L73.8887 65.4432Z" fill="url(#paint12_radial_1_37242)"/>
<path fill-rule="evenodd" clip-rule="evenodd" d="M128.838 55.3515L210 40.5021L129.198 1L128.838 3.30669V55.3515Z" fill="url(#paint13_radial_1_37242)"/>
<path d="M128.837 3.30669L202.87 39.5651L74.2488 63.2087L5.8333 25.004L128.837 3.30669ZM129.197 1L0 23.8507L73.9607 65.4432L209.999 40.43L129.197 1Z" fill="url(#paint14_linear_1_37242)"/>
<defs>
<radialGradient id="paint0_radial_1_37242" cx="0" cy="0" r="1" gradientUnits="userSpaceOnUse" gradientTransform="translate(1.14146 30.1973) scale(150.776 150.918)">
<stop stop-color="#91EB00"/>
<stop offset="1" stop-color="#147D10"/>
</radialGradient>
<radialGradient id="paint1_radial_1_37242" cx="0" cy="0" r="1" gradientUnits="userSpaceOnUse" gradientTransform="translate(46.903 9.98629) scale(241.729 241.957)">
<stop stop-color="#39A325"/>
<stop offset="1" stop-color="#08570F"/>
</radialGradient>
<radialGradient id="paint2_radial_1_37242" cx="0" cy="0" r="1" gradientUnits="userSpaceOnUse" gradientTransform="translate(44.5647 -72.7358) scale(270.55 270.805)">
<stop stop-color="#2B9418"/>
<stop offset="1" stop-color="#074A0D"/>
</radialGradient>
<radialGradient id="paint3_radial_1_37242" cx="0" cy="0" r="1" gradientUnits="userSpaceOnUse" gradientTransform="translate(77.4243 -20.8451) scale(186.742 186.918)">
<stop stop-color="#C1F07D"/>
<stop offset="1" stop-color="#519C00"/>
</radialGradient>
<radialGradient id="paint4_radial_1_37242" cx="0" cy="0" r="1" gradientUnits="userSpaceOnUse" gradientTransform="translate(77.4163 60.3853) scale(177.269 177.436)">
<stop stop-color="#D4FAC8"/>
<stop offset="1" stop-color="#74AD9C"/>
</radialGradient>
<radialGradient id="paint5_radial_1_37242" cx="0" cy="0" r="1" gradientUnits="userSpaceOnUse" gradientTransform="translate(0.587171 29.2625) scale(148.393 148.533)">
<stop stop-color="#2FCB30"/>
<stop offset="1" stop-color="#39570F"/>
</radialGradient>
<radialGradient id="paint6_radial_1_37242" cx="0" cy="0" r="1" gradientUnits="userSpaceOnUse" gradientTransform="translate(-2.46777 38.6363) scale(136.596 136.725)">
<stop stop-color="#CFFF87"/>
<stop offset="1" stop-color="#9AE647"/>
</radialGradient>
<radialGradient id="paint7_radial_1_37242" cx="0" cy="0" r="1" gradientUnits="userSpaceOnUse" gradientTransform="translate(-7.14252 30.8399) scale(160.316 160.467)">
<stop stop-color="#E9FAE3"/>
<stop offset="1" stop-color="#C7FFEF"/>
</radialGradient>
<radialGradient id="paint8_radial_1_37242" cx="0" cy="0" r="1" gradientUnits="userSpaceOnUse" gradientTransform="translate(-17.0772 144.715) scale(135.759 135.887)">
<stop offset="0.539" stop-color="white"/>
<stop offset="0.5783" stop-color="#F5F9F7"/>
<stop offset="0.6455" stop-color="#DAE9E1"/>
<stop offset="0.7325" stop-color="#ADCEBE"/>
<stop offset="0.8359" stop-color="#70A98C"/>
<stop offset="0.9519" stop-color="#227B4E"/>
<stop offset="1" stop-color="#006633"/>
</radialGradient>
<radialGradient id="paint9_radial_1_37242" cx="0" cy="0" r="1" gradientUnits="userSpaceOnUse" gradientTransform="translate(157.097 135.735) scale(116.195 116.305)">
<stop offset="0.539" stop-color="white"/>
<stop offset="0.5783" stop-color="#F5F9F7"/>
<stop offset="0.6455" stop-color="#DAE9E1"/>
<stop offset="0.7325" stop-color="#ADCEBE"/>
<stop offset="0.8359" stop-color="#70A98C"/>
<stop offset="0.9519" stop-color="#227B4E"/>
<stop offset="1" stop-color="#006633"/>
</radialGradient>
<radialGradient id="paint10_radial_1_37242" cx="0" cy="0" r="1" gradientUnits="userSpaceOnUse" gradientTransform="translate(68.3728 85.0948) scale(85.9911 86.072)">
<stop offset="0.539" stop-color="white"/>
<stop offset="0.5783" stop-color="#F5F9F7"/>
<stop offset="0.6455" stop-color="#DAE9E1"/>
<stop offset="0.7325" stop-color="#ADCEBE"/>
<stop offset="0.8359" stop-color="#70A98C"/>
<stop offset="0.9519" stop-color="#227B4E"/>
<stop offset="1" stop-color="#006633"/>
</radialGradient>
<radialGradient id="paint11_radial_1_37242" cx="0" cy="0" r="1" gradientUnits="userSpaceOnUse" gradientTransform="translate(92.3129 33.1815) scale(175.084 175.249)">
<stop offset="0.539" stop-color="white"/>
<stop offset="0.5783" stop-color="#F5F9F7"/>
<stop offset="0.6455" stop-color="#DAE9E1"/>
<stop offset="0.7325" stop-color="#ADCEBE"/>
<stop offset="0.8359" stop-color="#70A98C"/>
<stop offset="0.9519" stop-color="#227B4E"/>
<stop offset="1" stop-color="#006633"/>
</radialGradient>
<radialGradient id="paint12_radial_1_37242" cx="0" cy="0" r="1" gradientUnits="userSpaceOnUse" gradientTransform="translate(54.0446 93.9316) scale(181.848 182.019)">
<stop stop-color="#08570F"/>
<stop offset="1" stop-color="#39A325"/>
</radialGradient>
<radialGradient id="paint13_radial_1_37242" cx="0" cy="0" r="1" gradientUnits="userSpaceOnUse" gradientTransform="translate(149.802 79.3562) scale(128.741 128.863)">
<stop stop-color="#147D10"/>
<stop offset="1" stop-color="#91EB00"/>
</radialGradient>
<linearGradient id="paint14_linear_1_37242" x1="6.33239" y1="33.2627" x2="202.898" y2="33.2627" gradientUnits="userSpaceOnUse">
<stop stop-color="#98FF00"/>
<stop offset="1" stop-color="#61BA00"/>
</linearGradient>
</defs>
</svg>
