<svg width="24" height="24" viewBox="0 0 24 24" fill="none" xmlns="http://www.w3.org/2000/svg">
<g opacity="0.5">
<path d="M6.79307 2H17.8275V8.75851C17.8283 9.2511 17.7431 9.74004 17.5759 10.2033C17.5598 10.2326 17.5483 10.2639 17.5413 10.2964C17.2707 10.9948 16.8198 11.6088 16.2345 12.0757C15.0625 13.0124 14.3801 14.4308 14.3793 15.931V17.1724L10.2413 17.1722V15.931C10.2387 14.4313 9.55635 13.0136 8.38614 12.0757C7.80095 11.6088 7.34986 10.9948 7.07928 10.2966C7.0725 10.264 7.06075 10.2326 7.04487 10.2035C6.87748 9.74022 6.7923 9.25127 6.79313 8.75868L6.79307 2ZM8.86195 17.862V19.2413H15.7585L15.7587 17.862H8.86195ZM7.13792 22H17.4825V19.9309H7.13792V22ZM20.038 2.77925H18.5172V3.46899H20.038L20.0378 3.46883C20.2747 3.46899 20.502 3.56311 20.6693 3.7305C20.8369 3.89806 20.931 4.12516 20.931 4.36202C20.9351 6.13267 20.2327 7.83189 18.9792 9.08252C18.813 9.24693 18.638 9.40225 18.4552 9.54796C18.397 9.90987 18.2974 10.264 18.1585 10.6033C18.6327 10.3115 19.0714 9.96547 19.4653 9.5721C20.1504 8.88862 20.6935 8.07634 21.0633 7.18217C21.4331 6.28799 21.6225 5.32945 21.6205 4.36185C21.62 3.94221 21.453 3.53995 21.1564 3.24321C20.8597 2.94664 20.4574 2.77959 20.0378 2.77908L20.038 2.77925ZM5.64487 9.08257C4.38929 7.83308 3.68532 6.1334 3.6896 4.36207C3.68976 4.12521 3.78388 3.89811 3.95127 3.73055C4.11883 3.56316 4.34593 3.46905 4.58279 3.46888H6.10353L6.10336 2.77931H4.58279C4.16315 2.77981 3.7609 2.94687 3.46432 3.24344C3.16758 3.54018 3.0007 3.94246 3.00002 4.36208C2.99787 5.33002 3.18742 6.2889 3.55794 7.18325C3.92845 8.07742 4.47249 8.88958 5.15858 9.57237C5.55142 9.96554 5.98891 10.3116 6.46197 10.6035C6.32303 10.2643 6.22346 9.91015 6.16523 9.54824C5.98296 9.40334 5.80911 9.24786 5.64487 9.08279V9.08257Z" fill="black"/>
</g>
</svg>
