<svg width="24" height="24" viewBox="0 0 24 24" fill="none" xmlns="http://www.w3.org/2000/svg">
<g opacity="0.5">
<path d="M7.2381 11.5293H2.47619C2.19051 11.5293 2 11.7198 2 12.0055V21.5293C2 21.815 2.19051 22.0055 2.47619 22.0055H7.2381C7.52378 22.0055 7.71429 21.815 7.71429 21.5293V12.0055C7.71429 11.7196 7.52378 11.5293 7.2381 11.5293Z" fill="black"/>
<path d="M14.3803 7.72559H9.61873C9.33307 7.72559 9.14258 7.91608 9.14258 8.20174V21.5342C9.14258 21.8198 9.33308 22.0103 9.61873 22.0103H14.3803C14.6659 22.0103 14.8564 21.8198 14.8564 21.5342V8.20174C14.8564 7.91608 14.6659 7.72559 14.3803 7.72559Z" fill="black"/>
<path d="M21.5229 3.91406H16.7613C16.4757 3.91406 16.2852 4.10456 16.2852 4.39022V21.532C16.2852 21.8177 16.4757 22.0081 16.7613 22.0081H21.5229C21.8085 22.0081 21.999 21.8176 21.999 21.532V4.39022C21.999 4.10456 21.8085 3.91406 21.5229 3.91406Z" fill="black"/>
<path d="M4.90402 8.62809C4.99919 8.62809 5.04686 8.62809 5.14203 8.58042L13.3325 3.96142L13.1419 4.67562C13.0943 4.91363 13.2371 5.19949 13.4753 5.24699H13.6181C13.8087 5.24699 13.9992 5.10415 14.0943 4.91363L14.6182 3.05651V2.866C14.6182 2.81832 14.5705 2.72316 14.5705 2.67548C14.5229 2.62781 14.5229 2.58031 14.4277 2.53264C14.38 2.48497 14.3325 2.48497 14.2849 2.48497H14.2372L12.3801 2.00914C12.142 1.96147 11.8562 2.10431 11.8087 2.3425C11.761 2.58051 11.9039 2.86637 12.142 2.91387L12.8562 3.10439L4.6658 7.72338C4.42779 7.86622 4.33245 8.1519 4.47529 8.39008C4.57064 8.53292 4.76101 8.62809 4.90402 8.62809Z" fill="black"/>
</g>
</svg>
