<svg width="210" height="268" viewBox="0 0 210 268" fill="none" xmlns="http://www.w3.org/2000/svg">
<g opacity="0.2">
<path d="M102.5 268C144.198 268 178 263.539 178 258.037C178 252.535 144.198 248.074 102.5 248.074C60.8025 248.074 27 252.535 27 258.037C27 263.539 60.8025 268 102.5 268Z" fill="#000072"/>
</g>
<path d="M77.5617 184.493C72.6906 174.529 55.97 170.121 52.4032 184.819C49.3106 197.565 64.6521 205.158 76.4657 202.821C80.7356 201.976 83.5629 196.768 77.5617 184.493Z" fill="#5F5F82"/>
<g opacity="0.2">
<path d="M76.4648 203.811C64.653 206.179 49.3121 198.487 52.4027 185.574C53.7044 180.142 56.7519 177.285 60.3412 176.342C60.2493 176.643 60.3299 177.043 60.0899 177.271C48.5994 188.198 60.5926 202.6 71.0987 188.018C75.1355 190.632 75.9523 196.162 80.9466 195.904C81.3705 200.872 79.2138 203.262 76.4648 203.811Z" fill="#000072"/>
</g>
<path d="M72.6079 205.234C66.113 205.234 59.4721 202.794 55.344 198.654C51.5961 194.895 50.2078 190.033 51.4355 184.964C53.4705 176.559 59.1213 174.751 62.3086 174.422C68.9617 173.735 76.3083 178.009 79.4086 184.363C83.0147 191.754 83.9269 197.595 82.0468 201.256C81.0912 203.116 79.4127 204.369 77.3188 204.784C75.7829 205.088 74.1987 205.234 72.6079 205.234ZM63.7141 177.077C63.3412 177.077 62.9716 177.095 62.6044 177.133C59.613 177.443 55.721 179.161 54.1638 185.588C52.8812 190.885 55.1915 194.584 57.356 196.754C61.8668 201.278 69.8444 203.48 76.7582 202.11C78.0244 201.859 78.9595 201.161 79.5373 200.036C80.3823 198.39 81.1609 194.317 76.8746 185.531C74.4765 180.616 68.8642 177.077 63.7141 177.077Z" fill="#000072"/>
<g opacity="0.3">
<path d="M70.9599 182.291C70.4671 180.767 65.3143 178.163 60.997 179.913C56.2943 181.821 60.9637 182.292 64.096 182.803C67.2991 183.327 71.4527 183.816 70.9599 182.291Z" fill="white"/>
</g>
<path d="M68.4629 179.33C62.9635 188.506 57.5027 212.532 54.7919 228.287C54.7919 228.287 50.5639 228.313 47.7351 231.714C45.4563 234.454 44.5596 239.904 50.5647 242.307C55.5846 244.316 68.6596 250.504 74.7327 247.04C85.7692 240.744 89.8447 217.024 100 209.401L68.4629 179.33Z" fill="#686779"/>
<path d="M100 209.4C89.844 217.022 85.7709 240.745 74.7354 247.041C68.6598 250.504 55.584 244.315 50.5642 242.307C44.5591 239.903 45.4567 234.456 47.7354 231.713C50.5642 228.312 54.7922 228.288 54.7922 228.288C55.5701 223.748 56.5799 218.518 57.7578 213.158C59.353 205.851 61.2563 198.298 63.2998 191.898C64.958 186.696 66.7105 182.257 68.4639 179.33L100 209.4Z" fill="#5F5F82"/>
<g opacity="0.2">
<path d="M100 209.399C89.844 217.022 85.7709 240.745 74.7354 247.041C68.6598 250.504 55.584 244.315 50.5642 242.307C44.5591 239.903 45.4567 234.456 47.7354 231.713C50.5642 228.312 54.7922 228.288 54.7922 228.288C55.5701 223.748 56.5799 218.518 57.7578 213.157C62.8268 217.33 70.168 222.581 76.0084 223.557C86.9005 225.379 83.9799 217.999 81.347 215.405C79.1035 213.195 64.8146 205.078 63.2998 191.898C64.958 186.696 66.7105 182.257 68.4639 179.33L100 209.399Z" fill="#000072"/>
</g>
<path d="M70.3933 249.07C64.386 249.07 56.8529 245.912 52.2793 243.996C51.58 243.703 50.9541 243.44 50.4205 243.226C46.9052 241.814 45.6584 239.533 45.2308 237.866C44.4817 234.946 45.6796 232.138 47.0496 230.484C49.3058 227.762 52.3144 226.926 53.9561 226.67C56.3992 212.742 61.8165 187.949 67.5594 178.334L69.9616 179.744C64.9907 188.067 59.6321 210.064 56.5281 228.172C56.4147 228.834 55.8378 229.32 55.1605 229.324C55.1311 229.325 51.5506 229.413 49.2063 232.241C48.312 233.32 47.4421 235.262 47.9358 237.185C48.3267 238.707 49.5155 239.876 51.469 240.661C52.0133 240.88 52.6522 241.148 53.3662 241.447C58.6072 243.644 69.5128 248.216 74.3051 245.472C79.7061 242.381 83.5241 234.349 87.2164 226.581C90.6729 219.307 94.2477 211.786 99.3117 207.974L101 210.178C96.4811 213.581 93.0548 220.789 89.7411 227.761C85.866 235.915 81.8587 244.345 75.7004 247.87C74.2096 248.723 72.3851 249.07 70.3933 249.07Z" fill="#000072"/>
<path d="M63.6885 237.093C61.1617 238.338 59.0685 241.527 60.7697 244.159C61.2795 244.942 62.0651 245.637 62.9317 246.264C63.3871 246.583 63.4929 247.215 63.1658 247.665C62.8644 248.081 62.2976 248.192 61.8623 247.943C60.2125 247.022 58.5242 245.429 58.1098 243.409C57.4324 240.059 59.972 236.273 63.4769 236.12C64.0436 236.097 64.2032 236.876 63.6885 237.093Z" fill="#232333"/>
<path d="M55.6885 234.104C53.1618 235.35 51.0687 238.539 52.7698 241.17C53.2804 241.954 54.0652 242.648 54.9318 243.276C55.3863 243.595 55.4929 244.227 55.1658 244.676C54.8644 245.092 54.2977 245.204 53.8616 244.955C52.2118 244.034 50.5236 242.441 50.11 240.421C49.4318 237.07 51.9722 233.284 55.4769 233.131C56.0436 233.109 56.2032 233.888 55.6885 234.104Z" fill="#232333"/>
<path d="M82.994 245.549C83.0761 248.617 82.3209 254.257 80.5656 255.688C77.7114 258.017 68.2731 256.855 60.5235 255.784C49.85 254.309 40.9745 251.587 38.0654 249.478C35.8235 247.342 37.5369 241.303 39.3802 238.111" fill="white"/>
<path d="M82 250.179C81.6104 252.178 80.9801 253.991 80.0895 254.714C77.2639 257.005 67.9218 255.863 60.2519 254.809C49.6866 253.358 40.9024 250.681 38.0232 248.607C37.4002 248.017 37.0878 247.129 37 246.082C40.5568 248.203 49.371 250.783 59.8314 252.22C67.9307 253.331 77.7885 254.538 80.7727 252.121C81.255 251.732 81.6616 251.043 82 250.179Z" fill="#E8E8E8"/>
<path d="M73.9094 258.037C70.0908 258.037 65.3324 257.454 60.3755 256.771C50.2305 255.375 40.8203 252.721 37.4914 250.317C37.4537 250.289 37.4176 250.26 37.3832 250.228C34.6644 247.65 36.4474 241.192 38.5092 237.64C38.8012 237.136 39.4458 236.966 39.9477 237.258C40.4496 237.551 40.6202 238.197 40.3282 238.7C38.4116 242.002 37.3143 247.135 38.7839 248.651C41.451 250.525 49.7762 253.184 60.661 254.681C66.4445 255.477 77.212 256.958 79.857 254.812C81.0937 253.807 81.9811 248.943 81.8909 245.586C81.8753 245.005 82.3338 244.52 82.9144 244.504C83.4934 244.504 83.9789 244.948 83.9945 245.53C84.0659 248.177 83.4565 254.603 81.1815 256.45C79.7553 257.61 77.176 258.037 73.9094 258.037Z" fill="#000072"/>
<path d="M87.3933 231C86.9256 232.101 86.259 233.423 85.6335 235.123C76.1205 232.012 60.71 223.98 52 219.331C52.9148 216.828 54.1329 214.301 56.7582 213.37C57.645 213.055 61.6528 212.605 70.4261 218.209C81.343 225.185 86.7678 226.32 87.3407 227.006C88.3319 228.2 88.0845 229.355 87.3933 231Z" fill="#FFCE31"/>
<path d="M170.057 184.212C170.057 184.212 174.335 192.276 161.947 197.096C147.468 202.726 135.13 186.992 150.904 170.032C150.904 170.032 149.52 167.272 143.736 165.098L134.145 146.448L128 134.498C128 134.498 138.544 136.198 148.17 141.122C148.868 141.479 149.558 141.852 150.241 142.244C155.71 145.374 196.75 170.551 170.057 184.212Z" fill="#686779"/>
<path d="M170.058 184.211C170.058 184.211 174.334 192.276 161.946 197.096C147.466 202.727 135.128 186.993 150.905 170.034C150.905 170.034 149.52 167.274 143.736 165.098L134.143 146.448L133.359 144.921L128 134.498C128 134.498 138.542 136.2 148.169 141.122C148.865 141.48 149.558 141.855 150.24 142.246C150.436 142.36 150.683 142.501 150.972 142.672C158.595 147.186 195.782 171.048 170.058 184.211Z" fill="#5F5F82"/>
<g opacity="0.2">
<path d="M151 143.093C145.462 144.395 139.54 145.208 133.366 145.457L128 134.498C128 134.498 138.555 136.287 148.194 141.463C148.891 141.839 149.584 142.233 150.267 142.644C150.465 142.764 150.711 142.912 151 143.093Z" fill="#000072"/>
</g>
<path d="M103.971 141.471C86.4782 137.072 72.6096 128.291 66 117.561C75.8441 122.192 87.7108 127.233 99.6858 131.254C102.97 132.357 104.213 136.517 103.971 141.471Z" fill="#545468"/>
<path d="M140 143.869C134.959 144.418 129.698 144.597 124.299 144.359C109.304 143.7 95.6566 139.932 85 134.163C88.2659 127.663 96.3388 117.63 114.592 119.876C135.063 122.396 139.185 137.203 140 143.869Z" fill="#545468"/>
<g opacity="0.2">
<path d="M161.251 197.103C151.057 201.081 141.93 194.34 143.102 184.054C143.119 183.904 143.14 183.757 143.161 183.606C143.178 183.47 143.2 183.333 143.224 183.193C143.252 183.011 143.287 182.831 143.325 182.649C144.022 179.151 145.891 175.304 149.262 171.361C152.268 177.623 152.532 183.713 152.876 192.31C152.959 194.383 157.129 194.926 158.663 194.608C166.483 192.987 162.191 185.946 162.191 185.946C162.191 185.946 165.681 185.402 169.345 184.253C169.328 184.264 169.31 184.277 169.293 184.288C169.293 184.287 173.532 192.312 161.251 197.103Z" fill="#000072"/>
</g>
<g opacity="0.2">
<path d="M151.889 170.044C151.954 169.966 151.486 170.112 150.766 170.364C150.411 169.767 148.756 167.41 143.913 165.496L142 161.161L142.343 160.502C142.956 158.653 143.712 157.468 144.598 157.415C147.581 157.224 152.634 165.581 159 165.078C159 165.078 155.654 166.815 151.889 170.044Z" fill="#000072"/>
</g>
<path d="M156.018 199.257C151.471 199.257 147.335 197.275 144.785 193.606C141.196 188.442 140.539 179.456 149.167 169.477C148.404 168.636 146.709 167.169 143.386 165.894C142.672 165.621 142.315 164.822 142.591 164.11C142.866 163.399 143.667 163.043 144.381 163.318C150.409 165.63 152.023 168.618 152.187 168.951C152.438 169.459 152.352 170.068 151.969 170.488C143.649 179.607 143.979 187.597 147.063 192.034C150.062 196.349 155.653 197.688 161.307 195.447C165.271 193.876 167.76 191.824 168.705 189.35C169.706 186.73 168.618 184.515 168.571 184.422C168.233 183.749 168.494 182.921 169.163 182.572C174.42 179.829 177.132 176.45 177.226 172.528C177.478 161.955 159.259 148.494 149.591 142.853C139.96 137.235 128.277 135.268 128.16 135.249C127.406 135.124 126.895 134.414 127.019 133.662C127.143 132.91 127.853 132.401 128.611 132.524C129.109 132.606 140.922 134.597 150.99 140.47C151.858 140.976 159.68 145.601 167.023 152.02C175.774 159.67 180.139 166.592 179.997 172.594C179.885 177.3 177.034 181.279 171.517 184.434C171.891 185.733 172.209 187.887 171.317 190.272C170.099 193.528 167.076 196.131 162.331 198.012C160.215 198.851 158.074 199.257 156.018 199.257Z" fill="#000072"/>
<path d="M170.034 186.167C167.619 186.904 165.18 187.285 162.682 187.302C162.307 187.302 162.001 186.978 162 186.578C161.999 186.219 162.242 185.92 162.562 185.86C163.692 185.624 164.804 185.301 165.888 184.895C166.933 184.506 168.047 184.021 169.007 183.489C170.791 182.588 171.9 185.471 170.034 186.167Z" fill="#000072"/>
<path d="M149.542 169.7C152.24 167.585 154.961 165.474 158.167 164.411C158.523 164.309 158.886 164.543 158.978 164.936C159.065 165.302 158.884 165.675 158.573 165.806C155.816 167.218 153.469 169.632 151.275 171.922C149.89 173.322 148.08 171.011 149.542 169.7Z" fill="#000072"/>
<path d="M100.702 131.891C73.4604 122.704 46.7801 108.212 43.3701 105.42C42.6738 103.511 40.9205 101.071 39.128 100.142C36.9869 99.0323 34.0187 99.6417 31.9079 102.771C28.9397 100.167 23.7552 98.9138 20.8704 101.231C19.2431 102.539 18.5853 104.305 18.5403 105.886C13.6528 106.455 11.8504 111.724 13.7297 115.827C12.5123 120.661 14.4423 126.078 22.2432 129.407C47.761 149.532 73.2272 158.881 90.0154 163.178C102.001 166.245 110.543 135.21 100.702 131.891Z" fill="#5F5F82"/>
<g opacity="0.2">
<path d="M103.971 141.471C86.4782 137.072 72.6096 128.291 66 117.561C75.8441 122.192 87.7108 127.233 99.6858 131.254C102.97 132.357 104.213 136.517 103.971 141.471Z" fill="#000072"/>
</g>
<g opacity="0.2">
<path d="M83.1234 140.223C81.2908 149.118 95.9741 164.992 89.204 163.259C72.5207 158.983 47.2145 149.681 21.8562 129.657C20.361 129.019 19.0813 128.3 18 127.523C21.6684 128.487 27.0856 129.378 31.8044 128.045C31.8044 128.046 62.8969 156.051 83.1234 140.223Z" fill="#000072"/>
</g>
<path d="M90.4275 164.386C89.7679 164.386 89.0937 164.301 88.4074 164.124C71.5984 159.772 46.2418 150.338 20.8292 130.104C13.7573 126.987 10.3596 121.528 11.6544 115.404C10.6533 112.844 10.805 109.913 12.0804 107.644C13.0823 105.862 14.6643 104.643 16.6041 104.133C16.918 102.336 17.8567 100.739 19.3146 99.555C22.4672 96.9943 27.4493 97.8799 30.8843 100.229C33.4414 97.3451 36.6703 97.1237 38.9354 98.3105C40.9815 99.3825 42.8036 101.898 43.6563 103.98C48.0729 107.308 73.81 121.208 99.7978 130.073C105.784 132.116 105.949 141.655 103.569 149.654C101.287 157.317 96.4569 164.386 90.4275 164.386ZM24.0111 100.814C22.8777 100.814 21.8352 101.09 21.0613 101.719C19.5523 102.945 19.2878 104.517 19.2651 105.345C19.2456 106.037 18.724 106.609 18.04 106.689C16.0621 106.923 15.0221 108.082 14.498 109.013C13.5739 110.656 13.5253 112.836 14.3714 114.703C14.5012 114.989 14.5304 115.311 14.4542 115.616C13.724 118.552 13.7451 124.015 22.0981 127.623C22.2108 127.671 22.3171 127.735 22.4137 127.811C47.492 147.819 72.52 157.136 89.1002 161.428C94.2462 162.76 98.8283 155.846 100.908 148.858C102.962 141.957 102.774 134.031 98.9037 132.711C72.0073 123.535 45.205 108.886 41.6159 105.913C41.4244 105.754 41.2792 105.547 41.194 105.313C40.6221 103.726 39.1042 101.541 37.6503 100.779C36.3142 100.078 34.1059 100.228 32.287 102.957C32.0647 103.29 31.7085 103.512 31.311 103.563C30.911 103.614 30.5135 103.491 30.2133 103.225C28.594 101.787 26.1399 100.814 24.0111 100.814Z" fill="#000072"/>
<path d="M32.7099 118.815C31.3227 120.868 30.136 125.075 26.9975 122.961C23.859 120.847 23.0565 116.628 25.2036 113.539C27.3508 110.449 31.6359 109.659 34.7744 111.773C37.9128 113.887 34.209 116.597 32.7099 118.815Z" fill="white"/>
<path d="M38.364 109.711C39.5355 108.544 39.5355 106.651 38.364 105.484C37.1924 104.317 35.2929 104.317 34.1213 105.484C32.9497 106.651 32.9497 108.544 34.1213 109.711C35.2929 110.878 37.1924 110.878 38.364 109.711Z" fill="white"/>
<path d="M27.4941 108.277C28.5828 107.032 28.453 105.144 27.204 104.06C25.9551 102.975 24.06 103.104 22.9713 104.349C21.8826 105.593 22.0125 107.481 23.2614 108.566C24.5103 109.65 26.4054 109.521 27.4941 108.277Z" fill="white"/>
<path d="M22.6273 113.537C23.1298 111.964 22.2573 110.283 20.6785 109.783C19.0997 109.282 17.4124 110.151 16.9099 111.724C16.4074 113.297 17.2799 114.978 18.8587 115.479C20.4375 115.979 22.1247 115.11 22.6273 113.537Z" fill="white"/>
<path d="M22.364 122.662C23.5355 121.495 23.5355 119.603 22.364 118.435C21.1924 117.268 19.2929 117.268 18.1213 118.435C16.9497 119.603 16.9497 121.495 18.1213 122.662C19.2929 123.829 21.1924 123.829 22.364 122.662Z" fill="white"/>
<path d="M145.826 198.26C147.762 207.707 146.922 224.965 145.01 243.028C145.01 243.028 148.984 244.404 150.529 248.5C151.773 251.8 150.824 257.198 144.375 257.532C138.986 257.81 124.44 259.588 120.052 254.237C114.736 247.757 115.475 231.951 110 209.548L145.826 198.26Z" fill="#686779"/>
<path d="M144.377 257.532C138.986 257.81 124.439 259.587 120.051 254.237C117.18 250.732 116.075 244.501 114.8 235.974C113.717 228.733 112.515 219.839 110 209.549L145.827 198.26C146.243 200.291 146.532 202.686 146.707 205.374C147.35 215.169 146.508 228.85 145.01 243.027C145.01 243.027 148.986 244.405 150.529 248.502C151.773 251.8 150.823 257.2 144.377 257.532Z" fill="#5F5F82"/>
<g opacity="0.2">
<path d="M120.536 222.809C118.617 227.273 127.752 227.691 127.752 227.691L128.343 234.587C128.343 234.587 120.867 235.408 114.838 236.119C113.746 228.85 112.535 219.922 110 209.592L146.112 198.26C146.531 200.299 146.824 202.703 147 205.401C141.82 217.824 122.406 218.455 120.536 222.809Z" fill="#000072"/>
</g>
<path d="M134.47 259.033C128.519 259.033 122.277 258.222 119.379 254.69C116.004 250.574 114.942 243.384 113.471 233.432C112.487 226.763 111.261 218.463 109 209.211L111.732 208.565C114.023 217.94 115.259 226.309 116.252 233.033C117.657 242.55 118.673 249.426 121.566 252.952C124.997 257.138 136.863 256.302 142.566 255.901C143.437 255.84 144.21 255.786 144.856 255.752C146.975 255.643 148.493 254.923 149.37 253.612C150.476 251.956 150.293 249.841 149.8 248.533C148.507 245.104 145.129 243.864 145.095 243.851C144.489 243.635 144.104 243.038 144.17 242.407C146.394 221.398 146.684 205.977 145.011 197.81L147.766 197.264C149.492 205.69 149.258 220.641 147.069 241.706C148.536 242.463 151.174 244.227 152.435 247.571C153.19 249.576 153.399 252.615 151.717 255.13C150.759 256.564 148.816 258.316 145.004 258.513C144.374 258.545 143.617 258.599 142.767 258.658C140.385 258.828 137.464 259.033 134.47 259.033Z" fill="#000072"/>
<path d="M134.52 247.118C138.5 248.684 139.264 254.981 135.78 257.5C134.667 258.348 133.416 258.778 132.2 259.015C131.652 259.122 131.123 258.755 131.018 258.196C130.919 257.668 131.236 257.156 131.731 257.012C132.747 256.696 133.707 256.291 134.437 255.711C136.879 253.757 135.946 250.033 133.996 247.998C133.573 247.608 133.992 246.904 134.52 247.118Z" fill="#232333"/>
<path d="M143.52 247.118C147.5 248.684 148.264 254.981 144.78 257.5C143.667 258.348 142.416 258.778 141.2 259.015C140.652 259.122 140.122 258.755 140.018 258.196C139.919 257.668 140.235 257.156 140.731 257.012C141.747 256.696 142.707 256.291 143.438 255.711C145.88 253.756 144.947 250.033 142.997 247.998C142.573 247.608 142.993 246.904 143.52 247.118Z" fill="#232333"/>
<path d="M136.26 242.959C140.521 241.987 145.269 241.432 149.29 243.55C150.903 244.495 149.49 246.755 147.823 245.886C146.372 244.719 144.427 244.08 142.486 243.798C140.501 243.497 138.412 243.458 136.401 243.622C135.967 243.676 135.834 243.065 136.26 242.959Z" fill="#232333"/>
<path d="M142.365 209.292C142.365 209.292 139.045 211.794 132.428 214.531C126.587 216.946 121.218 217.575 121.218 217.575C114.623 218.437 108.734 218.218 106.029 217.939C103.341 217.662 97.5844 216.689 91.3545 214.53C91.3545 214.53 85.7496 212.701 79.5034 208.81C75.3036 206.193 72.2717 202.084 72.2717 202.084C64.5083 191.568 65.0399 180.318 68.0579 169.432C69.8532 162.961 73.5795 155.874 76.9524 150.283C80.5397 144.328 83.7212 140.074 83.7212 140.074L115.441 120.551L141.163 147.861C141.756 150.721 142.985 154.338 144.385 158.424C149.597 173.663 157.126 195.475 142.365 209.292Z" fill="white"/>
<g opacity="0.2">
<path d="M150.999 187.41C151.059 195.417 148.886 203.118 142.366 209.248C142.366 209.248 139.046 211.764 132.428 214.513C126.587 216.939 121.217 217.572 121.217 217.572C114.624 218.437 108.733 218.218 106.029 217.937C103.342 217.659 97.5851 216.682 91.3552 214.513C91.3552 214.513 85.7477 212.675 79.5038 208.765C75.3031 206.135 72.2703 202.006 72.2703 202.006C65.7222 193.091 65.0753 183.653 66.8485 174.35C66.8133 180.932 75.2646 207.865 106.875 209.707C138.631 211.556 149.855 192.379 150.999 187.41Z" fill="#000072"/>
</g>
<path d="M143 157.654C115.078 165.008 89.4296 155.981 76 149.534C79.5642 143.593 82.7254 139.35 82.7254 139.35C82.7254 139.35 87.7174 116.607 114.242 119.876C140.766 123.145 139.798 147.117 139.798 147.117C140.387 149.97 141.609 153.578 143 157.654Z" fill="#5F5F82"/>
<g opacity="0.2">
<path d="M140 143.869C134.959 144.418 129.698 144.597 124.299 144.359C109.304 143.7 95.6566 139.932 85 134.163C88.2659 127.663 96.3388 117.63 114.592 119.876C135.063 122.396 139.185 137.203 140 143.869Z" fill="#000072"/>
</g>
<path d="M71.1917 202.994C67.3262 198.57 64.8314 192.898 64.1993 187.062C63.0134 175.719 67.275 163.569 72.8629 153.819C75.753 148.844 78.9971 144.11 82.747 139.723C83.3041 139.092 84.3522 139.807 83.8818 140.552C80.9216 145.365 78.0364 150.234 75.375 155.177C72.7845 160.102 70.2567 165.121 68.7688 170.469C65.7318 181.32 66.1601 192.511 72.3331 202.173C72.7779 202.877 71.7678 203.651 71.1917 202.994Z" fill="#000072"/>
<path d="M120.473 217.865C112.993 219.686 104.978 219.695 97.586 217.42C95.1184 216.7 92.6997 215.784 90.3952 214.606C90.0464 214.428 89.9013 213.987 90.0708 213.62C90.2159 213.306 90.5459 213.149 90.8564 213.223C95.706 214.335 100.534 215.483 105.448 216.079C110.341 216.574 115.343 216.515 120.29 216.413C121.112 216.392 121.281 217.659 120.473 217.865Z" fill="#000072"/>
<path d="M141.382 146.959C143.028 152.081 145.25 157.064 146.978 162.194C152.074 177.252 156.805 197.492 142.385 209.062C142.084 209.305 141.639 209.261 141.394 208.964C141.169 208.694 141.187 208.306 141.419 208.057C143.209 206.065 144.73 203.901 145.907 201.585C153.298 186.648 146.278 170.109 141.84 155.29C141.08 152.671 140.371 150.002 140.006 147.237C139.956 146.856 140.228 146.508 140.614 146.459C140.965 146.414 141.289 146.634 141.382 146.959Z" fill="#000072"/>
<path d="M87.0177 232.647C86.4743 233.924 85.6556 235.499 84.9543 237.63C84.9236 237.728 84.8928 237.827 84.858 237.929V237.939C84.679 238.496 84.5106 239.093 84.3591 239.732C83.2829 244.219 82.8805 248.486 81.2495 249.983C80.4964 250.679 78.8866 250.985 76.7884 251.049C75.313 251.097 73.593 251.022 71.7629 250.873C69.059 250.655 66.1154 250.279 63.3597 249.909C63.3386 249.906 63.3216 249.903 63.3014 249.903C62.5102 249.797 61.736 249.692 60.9862 249.59C50.4678 248.164 40.9989 244.94 38.1339 242.902C36.4382 241.103 36.6277 236.765 38.8149 234.178C41.2532 231.181 47.7574 228.951 49.9317 226.364C52.0024 223.899 52.1157 217.029 56.8352 215.359C57.7089 215.05 61.6575 214.609 70.3012 220.105C81.0568 226.945 86.9893 226.939 87.5529 227.611C88.5304 228.781 87.6987 231.034 87.0177 232.647Z" fill="white"/>
<path d="M87.0177 232.647C86.8323 233.088 86.612 233.564 86.3707 234.087C85.9237 235.078 85.4143 236.236 84.9536 237.63C84.9228 237.728 84.892 237.827 84.8572 237.929V237.939C84.6782 238.496 84.5098 239.093 84.3584 239.732C83.2822 244.219 82.8797 248.486 81.2488 249.983C80.4958 250.679 78.8859 250.985 76.7878 251.049C75.3124 251.097 73.5924 251.022 71.7623 250.873C69.0585 250.655 66.1149 250.279 63.3592 249.909C63.3382 249.906 63.3212 249.903 63.3009 249.903C62.5098 249.797 61.7356 249.692 60.9858 249.59C50.4676 248.164 40.9989 244.94 38.1339 242.902C36.4382 241.103 36.6277 236.765 38.8149 234.178C41.2531 231.181 47.7573 228.951 49.9315 226.364C51.3041 224.731 51.8167 221.17 53.3779 218.462C54.1723 217.08 55.2388 215.923 56.8349 215.359C57.7086 215.05 61.6571 214.609 70.3007 220.105C81.0561 226.945 86.9894 226.938 87.553 227.61C88.5304 228.781 87.6987 231.034 87.0177 232.647Z" fill="white"/>
<path d="M87.0177 232.647C86.8323 233.088 86.612 233.564 86.3707 234.087C85.9237 235.078 85.4143 236.236 84.9536 237.63C84.9228 237.728 84.892 237.827 84.8572 237.929V237.939C84.6782 238.496 84.5098 239.093 84.3584 239.732C83.2822 244.219 82.8797 248.486 81.2488 249.983C80.4958 250.679 78.8859 250.985 76.7878 251.049C75.3124 251.097 73.5924 251.022 71.7623 250.873C69.0585 250.655 66.1149 250.279 63.3592 249.909C63.3382 249.906 63.3212 249.903 63.3009 249.903C62.5098 249.797 61.7356 249.692 60.9858 249.59C50.4676 248.164 40.9989 244.94 38.1339 242.902C36.4382 241.103 36.6277 236.765 38.8149 234.178C41.2531 231.181 47.7573 228.951 49.9315 226.364C51.3041 224.731 51.8167 221.17 53.3779 218.462C54.1723 217.08 55.2388 215.923 56.8349 215.359C57.7086 215.05 61.6571 214.609 70.3007 220.105C81.0561 226.945 86.9894 226.938 87.553 227.61C88.5304 228.781 87.6987 231.034 87.0177 232.647Z" fill="white"/>
<path d="M87.0168 232.646C86.8313 233.088 86.6119 233.565 86.3689 234.087C85.9236 235.078 85.4142 236.233 84.9527 237.632C84.9219 237.729 84.8919 237.829 84.8547 237.928V237.938C84.6757 238.497 84.5073 239.093 84.3591 239.732C83.2797 244.219 82.8789 248.487 81.2496 249.984C80.4941 250.68 78.8851 250.986 76.7878 251.05C75.3108 251.096 73.5909 251.023 71.7625 250.873C69.0579 250.656 66.1136 250.277 63.358 249.908C63.3377 249.904 63.3207 249.901 63.3005 249.901C62.511 249.798 61.7352 249.692 60.987 249.588C50.4682 248.163 41.0013 244.938 38.1347 242.901C36.4383 241.104 36.627 236.766 38.8157 234.177C39.8174 232.949 41.4969 231.851 43.284 230.802C45.4558 229.527 47.7863 228.328 49.2301 227.071C49.4965 226.837 49.7329 226.601 49.9313 226.365C51.3039 224.731 51.8164 221.169 53.3785 218.463C54.1712 217.082 55.2401 215.923 56.8353 215.358C57.7091 215.051 61.6583 214.609 70.2984 220.104C81.0537 226.944 86.9892 226.937 87.5528 227.61C88.531 228.781 87.6978 231.035 87.0168 232.646Z" fill="white"/>
<path d="M72 220.247C71.2782 222.379 69.7665 224.348 68.3998 226.156C65.0394 224.424 61.8071 222.613 59 220.975L61.2845 215.197C63.4678 215.693 66.6864 216.93 71.164 219.735C71.2992 219.817 71.4305 219.899 71.5617 219.981C71.71 220.073 71.855 220.162 72 220.247Z" fill="#FFB522"/>
<path d="M70 224.625C68.8354 226.246 67.5374 227.752 66.6991 229.144C65.2957 228.208 64.0354 227.206 63 226.148L64.199 220.178C65.9435 221.814 67.9218 223.298 70 224.625Z" fill="#FFB522"/>
<path d="M63 232.221L60.2018 238.111C56.6038 233.754 48.5611 231.663 44 230.809C46.2002 229.56 48.5611 228.385 50.0238 227.152L63 232.221Z" fill="#E5E5E5"/>
<path d="M88 229.145C87.9295 230.235 87.4501 231.493 87.0249 232.499C86.8394 232.946 86.6199 233.426 86.3769 233.952C85.9315 234.951 85.422 236.115 84.9604 237.525C84.9296 237.623 84.8996 237.723 84.8623 237.824V237.834C84.6834 238.397 84.5149 238.998 84.3667 239.642C83.287 244.164 82.8861 248.466 81.2566 249.975C80.5009 250.676 78.8916 250.985 76.7939 251.049C75.3166 251.096 73.5963 251.022 71.7675 250.871C69.0623 250.652 66.1174 250.27 63.3612 249.898C63.341 249.894 63.324 249.891 63.3037 249.891C62.5141 249.787 61.7382 249.68 60.9898 249.575C50.4689 248.139 41 244.889 38.1329 242.836C37.327 241.974 36.9455 240.534 37.0063 238.981C37.0532 239.042 37.101 239.096 37.1512 239.149C40.0151 241.202 49.4767 244.514 60.0049 245.892C87.3189 249.461 80.032 246.898 88 229.145Z" fill="#E8E8E8"/>
<path d="M63.9668 250.067C63.2026 249.969 62.4408 249.869 61.6967 249.769C61.4476 249.735 61.2018 249.702 60.9559 249.668C58.3284 249.31 55.7688 248.839 53.3604 248.304C52.7571 248.167 52.1643 248.029 51.5821 247.89C51.003 247.746 50.4305 247.602 49.8708 247.455C49.3152 247.308 48.7661 247.157 48.234 247.004C44.9029 246.051 42.1039 245.021 40.1638 244.098C40.0085 244.024 39.8572 243.951 39.7125 243.877C39.4966 243.767 39.2952 243.66 39.1059 243.556C38.9814 243.486 38.8569 243.419 38.742 243.349C38.5706 243.245 38.4153 243.145 38.2705 243.048C38.2236 243.018 38.1759 242.984 38.1322 242.951C37.8492 242.649 37.6203 242.282 37.4448 241.86C37.3842 241.72 37.33 241.573 37.2831 241.422C37.0672 240.729 36.9733 239.934 37.0065 239.107C37.0534 239.168 37.1011 239.221 37.1513 239.274C40.0109 241.321 49.4584 244.622 59.9709 245.996C61.2406 246.163 62.4399 246.314 63.5649 246.451C63.8997 247.715 64.0784 248.966 63.9668 250.067Z" fill="#FFB522"/>
<path d="M73 251.063C70.1918 250.838 67.1347 250.443 64.2735 250.059C64.2525 250.056 64.2348 250.053 64.2138 250.053C64.1053 250.035 63.9935 250.018 63.8842 250.004C63.1771 248.813 62.5465 247.453 62 246.082C65.4144 246.518 68.279 246.854 70.6946 247.072C71.3823 248.456 72.1491 249.813 73 251.063Z" fill="#FFB522"/>
<path d="M89 229.145C88.9289 230.236 88.4447 231.494 88.0154 232.502C87.8281 232.948 87.6065 233.429 87.3611 233.955C86.9114 234.955 86.397 236.12 85.9308 237.53C85.8997 237.628 85.8695 237.729 85.8319 237.829V237.839C85.6511 238.403 85.481 239.004 85.3314 239.649C84.2412 244.174 83.8364 248.478 82.191 249.988C81.428 250.69 79.8031 250.999 77.685 251.063C76.3741 250.945 75.0828 250.831 74 250.801C74.9159 249.774 75.6659 248.512 76.3225 247.279C83.0424 247.084 83.5535 244.419 85.6822 237.867C86.4485 235.493 87.4331 232.609 89 229.145Z" fill="#FFB522"/>
<path d="M88.1598 232.683C87.9714 233.123 87.7486 233.596 87.5093 234.12C87.506 234.123 87.5027 234.123 87.5027 234.127C77.5706 232.379 61.8122 223.276 54 218.469C54.051 218.383 54.1028 218.3 54.1538 218.212C54.3117 217.958 54.4827 217.715 54.6603 217.479C54.7804 217.325 54.907 217.172 55.037 217.029C55.1019 216.955 55.1702 216.882 55.2393 216.812C55.2976 216.751 55.3593 216.691 55.421 216.635C55.4761 216.581 55.5304 216.531 55.5855 216.485C55.6332 216.441 55.685 216.398 55.7359 216.358C56.2466 215.938 56.8321 215.594 57.5097 215.358C58.397 215.051 62.4075 214.607 71.1818 220.114C71.3192 220.198 71.4524 220.281 71.5856 220.364C82.2612 226.935 88.501 225.678 89.1318 226.288C91.2797 228.363 88.8513 231.068 88.1598 232.683Z" fill="#22C1FF"/>
<g opacity="0.2">
<path d="M72 220.247C71.2782 222.379 69.7665 224.348 68.3998 226.156C65.0394 224.424 61.8071 222.613 59 220.975L61.2845 215.197C63.4678 215.693 66.6864 216.93 71.164 219.735C71.2992 219.817 71.4305 219.899 71.5617 219.981C71.71 220.073 71.855 220.162 72 220.247Z" fill="#000072"/>
</g>
<g opacity="0.7">
<path d="M89.8689 229.145C89.739 228.759 89.5063 228.379 89.1329 228.019C88.503 227.41 82.2623 228.665 71.5866 222.103C71.4534 222.02 71.3193 221.936 71.1828 221.853C62.4084 216.353 58.3979 216.797 57.5106 217.103C56.8321 217.34 56.2466 217.683 55.7368 218.102C55.6858 218.142 55.634 218.185 55.5863 218.228C55.5312 218.275 55.4769 218.325 55.4218 218.378C55.3602 218.435 55.2985 218.495 55.2401 218.555C55.1718 218.624 55.1028 218.698 55.0378 218.771C54.9728 218.841 54.9112 218.915 54.8495 218.988C54.5584 218.808 54.2738 218.635 54 218.465C54.051 218.379 54.1028 218.295 54.1538 218.208C54.3117 217.955 54.4827 217.712 54.6603 217.476C54.7804 217.322 54.907 217.169 55.037 217.026C55.1019 216.953 55.1702 216.88 55.2393 216.809C55.2977 216.749 55.3593 216.689 55.421 216.633C55.4761 216.579 55.5304 216.529 55.5855 216.483C55.6332 216.44 55.685 216.397 55.736 216.357C56.2466 215.937 56.8321 215.594 57.5098 215.358C58.3971 215.051 62.4076 214.608 71.182 220.108C71.3193 220.191 71.4526 220.274 71.5858 220.357C82.2614 226.92 88.5014 225.664 89.1321 226.274C90.0507 227.16 90.1329 228.162 89.8689 229.145Z" fill="white"/>
</g>
<path d="M173.125 52.6998C164.31 41.2551 166.545 33.8157 170.328 29.4131C175.107 23.8513 182.607 18.0002 191.818 20.5342C204.942 24.1456 212.042 37.0952 205.573 49.0255C201.708 56.1542 195.982 59.5474 190.959 61.1364C185.317 62.9217 179.656 61.1814 173.125 52.6998Z" fill="#5F5F82"/>
<g opacity="0.2">
<path d="M173.151 52.8292C179.714 61.189 185.401 62.9052 191.064 61.1463C196.114 59.5783 201.863 56.2344 205.746 49.2074C205.832 49.0494 205.917 48.8947 206 48.736C203.614 51.2226 199.572 53.6954 193.752 51.4844C186.771 48.8335 182.835 32.6845 171.23 28.8926C170.924 29.2221 170.628 29.5501 170.343 29.8756C166.543 34.213 164.298 41.5454 173.151 52.8292Z" fill="#000072"/>
</g>
<g opacity="0.3">
<path d="M166 34.6875C170.924 28.6332 179.316 21.3648 189.821 24.1798C200.81 27.1258 207.79 36.1198 206.761 45.8291C210.997 34.9281 203.972 23.7961 191.743 20.5208C179.068 17.1271 169.617 29.1127 166 34.6875Z" fill="white"/>
</g>
<path d="M166.065 34.7015C169.241 27.7031 176.273 21.0861 184 19.3371C188.139 18.3938 192.487 19.1662 196.324 20.8553C203.972 24.0723 210.038 31.512 209.998 39.9477C210.086 46.1825 206.864 51.9931 202.508 56.3146C198.092 60.5931 192.083 63.1024 186 63.7559C184.153 63.9105 183.844 61.2644 185.679 61.0036C191.222 60.3988 196.554 58.1842 200.545 54.3348C207.368 47.6506 209.777 38.0683 203.716 30.0562C200.474 25.78 195.241 22.8845 189.927 22.0286C184.427 21.2416 179.256 23.7233 175.109 27.312C172.241 29.8027 169.852 32.6667 167.244 35.4505C166.725 36.0376 165.739 35.4165 166.065 34.7015Z" fill="#000072"/>
<path d="M88.4323 39.7493C100.133 31.4343 100.121 23.7602 97.7613 18.5164C94.7806 11.8928 89.2785 4.21953 79.7463 3.99185C66.1629 3.6681 55.6716 13.895 58.4482 27.0252C60.1081 34.8712 64.6144 39.713 68.964 42.6478C73.8499 45.9443 79.7609 45.9112 88.4323 39.7493Z" fill="#686779"/>
<path d="M88.4334 39.7499C79.7618 45.9108 73.8497 45.9439 68.9673 42.6491C64.6149 39.7112 60.1105 34.8712 58.45 27.0254C58.4134 26.8494 58.3768 26.6766 58.3443 26.5006C58.3451 26.4974 58.3451 26.4934 58.3419 26.4934C55.9588 13.6203 66.3477 3.67139 79.7488 3.99191C88.7122 4.20747 94.1098 11.0045 97.2008 17.3236C97.3975 17.7272 97.5845 18.1252 97.7608 18.5184C100.121 23.7589 100.133 31.4335 88.4334 39.7499Z" fill="#5F5F82"/>
<g opacity="0.2">
<path d="M89.3439 39.8618C80.5989 45.8862 74.6367 45.9185 69.713 42.6968C65.3237 39.824 60.7811 35.0912 59.1066 27.4193C59.0697 27.2472 59.0328 27.0782 59 26.9061C60.5639 29.9021 63.7212 33.3433 69.9564 32.8839C77.435 32.3328 85.9349 18.2703 98.1856 17.9316C98.3839 18.3264 98.5725 18.7156 98.7503 19.1C101.131 24.2252 101.143 31.7297 89.3439 39.8618Z" fill="#000072"/>
</g>
<g opacity="0.3">
<path d="M100 24.9063C97.0901 17.6851 91.2403 8.31408 80.4456 8.0585C69.1522 7.79248 59.9028 14.4832 58.0502 24.1259C57.2061 12.4306 67.122 3.69285 79.6875 3.99182C92.7111 4.30285 98.1903 18.5153 100 24.9063Z" fill="white"/>
</g>
<path d="M99.6597 25.1626C96.5591 18.7613 93.5428 11.3021 86.9852 7.76346C83.8464 5.98814 80.2394 5.65422 76.66 6.05781C69.5368 6.76489 62.6076 11.3181 60.5124 18.2384C58.3985 25.0497 61.0934 32.9173 65.8657 38.0567C68.3285 40.7056 71.447 42.758 74.8268 44.1922C75.5361 44.4877 75.8672 45.2981 75.5629 45.9955C75.2594 46.6906 74.4438 47.0117 73.7395 46.713C70.0375 45.1427 66.5887 42.8829 63.8256 39.9145C62.4437 38.4355 61.2419 36.7907 60.243 35.0338C57.3606 29.719 55.9819 23.3105 57.8605 17.4296C60.5651 8.38646 70.1397 2.89956 79.3703 2.99405C87.0623 2.80107 93.2052 7.46797 96.9624 13.7813C99.0519 17.1701 100.523 20.8937 100.995 24.7839C101.079 25.5606 99.9981 25.8633 99.6597 25.1626Z" fill="#000072"/>
<path d="M126.686 137.821C126.686 137.821 170.829 143.694 185.263 120.478C192.833 108.305 190.989 92.3381 190.99 92.3202C190.947 91.597 199.999 50.2336 164.705 27.5587C154.754 21.1654 144.926 18.4058 135.066 16.8408C125.172 15.5082 114.965 15.3294 103.596 18.5944C63.2705 30.1768 60.0449 72.395 59.7952 73.0751C59.7912 73.093 53.4342 87.8567 57.1835 101.691C64.3333 128.073 108.303 135.125 108.303 135.125" fill="white"/>
<path d="M126.686 137.821C126.686 137.821 170.829 143.694 185.263 120.478C192.833 108.305 190.989 92.3381 190.99 92.3202C190.947 91.597 199.999 50.2336 164.705 27.5587C154.754 21.1654 144.926 18.4058 135.066 16.8408C125.172 15.5082 114.965 15.3294 103.596 18.5944C63.2705 30.1768 60.0449 72.395 59.7952 73.0751C59.7912 73.093 53.4342 87.8567 57.1835 101.691C64.3333 128.073 108.303 135.125 108.303 135.125L126.686 137.821Z" fill="white"/>
<g opacity="0.2">
<path d="M191 99.761C190.695 105.507 189.412 113.568 185.162 120.426C170.738 143.708 126.631 137.819 126.631 137.819L108.263 135.114C108.263 135.114 64.3248 128.044 57.1839 101.587C55.2697 94.5021 55.9888 87.1734 57.1531 81.6953C56.9865 85.3547 57.2506 89.2782 58.2889 93.1291C65.433 119.586 109.368 126.656 109.368 126.656L127.736 129.361C127.736 129.361 171.844 135.25 186.267 111.971C188.683 108.076 190.139 103.79 191 99.761Z" fill="#000072"/>
</g>
<path d="M127.25 136.788C142.384 136.888 158.357 137.206 172.195 130.29C176.751 127.936 180.883 124.763 183.767 120.558C189.354 112.635 190.749 101.063 189.989 92.3536C192.728 75.4384 190.025 56.9716 179.52 43.0371C175.679 37.8936 170.851 33.4646 165.489 29.9092C156.553 23.7767 146.014 20.3407 135.33 18.7083C126.754 17.5352 117.955 17.3964 109.461 19.1757C101.028 20.901 92.8366 24.2272 85.9182 29.3521C71.8139 39.7012 63.808 56.6188 61.5612 73.6236C58.2367 82.04 56.299 93.7341 59.6635 103.097C64.0617 114.954 75.7705 122.129 86.9863 126.933C94.0681 129.891 101.498 131.993 108.879 134.112C109.707 134.307 109.502 135.544 108.658 135.475C96.8566 134.352 85.496 130.153 75.2572 124.3C67.5457 119.743 60.4566 113.294 57.1523 104.79C53.3625 94.5221 54.9983 82.9781 58.7988 72.9624L58.8679 72.7912C58.863 72.8041 58.8638 72.8195 58.8712 72.8356L58.9216 72.6661C58.9037 72.6895 58.8915 72.7169 58.8866 72.7452C58.885 72.7565 58.8842 72.7686 58.8874 72.742L58.9151 72.5458L58.972 72.1421C62.1794 48.908 76.1845 27.1449 99.1245 19.1386C106.526 16.4122 114.429 15.0309 122.314 14.9437C138.002 14.9017 154.066 18.6259 167.147 27.4654C172.796 31.2017 177.864 35.8454 181.916 41.2683C192.654 55.5677 195.77 74.3187 193.094 91.6827L193.031 92.0848L193 92.2801C192.995 92.3076 192.999 92.293 193 92.2801C193.004 92.2454 193 92.2107 192.99 92.1776L192.989 92.3665C193 92.3479 193.005 92.3278 193.004 92.3092L193.02 92.4933L193.053 92.8727C193.703 103.843 191.664 116.027 184.296 124.619C173.442 136.896 154.409 139.547 138.795 139.477C134.846 139.38 130.931 139.049 127.066 138.157C126.252 137.947 126.432 136.77 127.25 136.788Z" fill="#000072"/>
<path d="M99.207 93.6326C103.211 93.3875 112.719 90.8441 114.599 76.7542C116.444 62.9274 111.806 57.6705 103.145 56.1834C94.4834 54.6963 81.7358 57.4343 73.9743 64.4243C68.4445 69.4043 65.9204 78.7992 67.4313 83.0772C70.4177 91.5339 95.2026 93.8786 99.207 93.6326Z" fill="#5F5F82"/>
<path d="M146.372 100.675C142.584 99.2877 134.149 94.1285 136.366 80.1916C138.541 66.5149 144.513 62.8558 153.284 63.9405C162.056 65.0252 173.557 71.3047 179.038 80.1875C182.942 86.5163 182.689 96.1751 180.009 99.8066C174.714 106.984 150.16 102.064 146.372 100.675Z" fill="#5F5F82"/>
<path d="M154.5 94.6469C160.299 94.6469 165 89.5173 165 83.1897C165 76.862 160.299 71.7324 154.5 71.7324C148.701 71.7324 144 76.862 144 83.1897C144 89.5173 148.701 94.6469 154.5 94.6469Z" fill="#000072"/>
<path d="M151.879 90.4956C153.81 90.4077 155.29 88.1079 155.184 85.3587C155.078 82.6096 153.427 80.4522 151.496 80.5401C149.565 80.628 148.086 82.9278 148.191 85.677C148.297 88.4261 149.948 90.5835 151.879 90.4956Z" fill="white"/>
<g opacity="0.35">
<path d="M159.685 81.9144C160.752 81.6288 161.224 80.1175 160.74 78.5389C160.255 76.9603 158.998 75.9121 157.931 76.1977C156.865 76.4833 156.393 77.9946 156.877 79.5732C157.361 81.1518 158.618 82.2 159.685 81.9144Z" fill="white"/>
</g>
<path d="M88.0413 40.3355C87.372 38.9296 94.9157 28.2522 105.238 33.1634C108.956 34.9327 108.76 38.5979 105.611 38.9454C102.61 39.2763 101.402 38.5013 96.6958 39.3681C94.0335 39.8581 88.7106 41.7414 88.0413 40.3355Z" fill="#5F5F82"/>
<path d="M172.835 52.5581C173.889 51.4023 169.977 39.1788 158.758 41.0401C154.717 41.7101 153.799 45.254 156.668 46.4428C159.402 47.5758 160.775 47.168 164.956 49.2765C167.322 50.4693 171.781 53.7139 172.835 52.5581Z" fill="#5F5F82"/>
<path d="M63.9668 250.067C62.9463 249.936 61.9362 249.799 60.9552 249.661C50.4518 248.195 40.9949 244.871 38.1313 242.768C36.5106 240.994 36.6158 236.819 38.5469 234.127C42.4166 237.793 51.6875 241.79 60.0382 238.236C60.0382 238.236 64.4221 245.466 63.9668 250.067Z" fill="#22C1FF"/>
<g opacity="0.2">
<path d="M63.9668 250.067C63.2025 249.969 62.4407 249.869 61.6967 249.769C61.4476 249.735 61.2017 249.702 60.9558 249.668C58.3282 249.31 55.7686 248.839 53.3601 248.304C52.7568 248.167 52.164 248.029 51.5817 247.89C51.0026 247.749 50.43 247.605 49.8704 247.455C49.3148 247.308 48.7656 247.157 48.2335 247.004C44.9023 246.054 42.1032 245.024 40.163 244.098C40.0078 244.024 39.8565 243.951 39.7118 243.877C39.4958 243.77 39.2944 243.663 39.1052 243.556C38.9807 243.486 38.8561 243.419 38.7413 243.349C38.5698 243.248 38.4145 243.148 38.2698 243.048C38.2229 243.018 38.1751 242.984 38.1315 242.951H38.1282C37.8484 242.653 37.6195 242.282 37.4448 241.86C37.3842 241.72 37.33 241.573 37.2831 241.422C37.0672 240.729 36.9733 239.934 37.0065 239.107C37.0534 239.168 37.1011 239.221 37.1513 239.274C40.011 241.321 49.4587 244.622 59.9716 245.996C61.2413 246.163 62.4407 246.314 63.5657 246.451C63.8997 247.715 64.0784 248.966 63.9668 250.067Z" fill="#000072"/>
</g>
<path d="M88 233.012C87.4562 234.318 86.6367 235.93 85.9348 238.111C79.9412 236.447 68.3882 232.241 63 226.426L64.1874 220.178C71.2963 227.218 82.333 231.567 88 233.012Z" fill="#22C1FF"/>
<g opacity="0.2">
<path d="M70 224.625C68.8354 226.246 67.5374 227.752 66.6991 229.144C65.2957 228.208 64.0354 227.206 63 226.148L64.199 220.178C65.9435 221.814 67.9218 223.298 70 224.625Z" fill="#000072"/>
</g>
<path d="M85.9055 239.107C85.8142 239.107 85.722 239.095 85.6299 239.07C78.0019 236.957 67.3094 232.569 62.2795 227.154C62.0532 226.911 61.9562 226.572 62.0185 226.244L63.2024 220.029C63.2743 219.652 63.5475 219.344 63.9119 219.229C64.2764 219.114 64.674 219.212 64.9472 219.481C72.0265 226.475 82.9057 230.629 88.2176 231.98C88.5101 232.055 88.7558 232.254 88.8907 232.526C89.0257 232.798 89.0362 233.116 88.919 233.396C88.7671 233.758 88.5958 234.145 88.4107 234.559C87.9283 235.639 87.3811 236.863 86.8898 238.387C86.7492 238.825 86.3443 239.107 85.9055 239.107ZM64.1568 226.105C68.8287 230.822 78.153 234.72 85.2444 236.791C85.6808 235.583 86.1382 234.559 86.5213 233.702C86.5237 233.696 86.5269 233.689 86.5302 233.683C81.0825 232.118 71.7226 228.328 64.8882 222.272L64.1568 226.105Z" fill="#000072"/>
<path d="M59.253 239.108C59.1214 239.108 58.9897 239.087 58.8626 239.043C58.4813 238.914 58.1961 238.601 58.1083 238.219L58.0251 237.851C57.9209 237.371 58.1476 236.88 58.5874 236.635L59.2411 236.271C59.6727 236.03 60.214 236.079 60.5925 236.394C60.9701 236.709 61.1008 237.22 60.9189 237.668C60.8046 237.95 60.7196 238.103 60.7196 238.103C60.6931 238.152 60.6565 238.208 60.6236 238.251C60.5733 238.317 60.3785 238.555 59.9863 238.859C59.7742 239.023 59.5145 239.108 59.253 239.108Z" fill="#232333"/>
<path d="M60.4374 239.108C60.3048 239.108 60.1705 239.084 60.0403 239.033C59.4913 238.817 59.2243 238.207 59.4437 237.669C59.7299 236.969 60.2881 235.114 59.2919 233.033C58.1246 230.596 55.2477 228.636 50.7414 227.208C50.179 227.029 49.8703 226.438 50.0522 225.887C50.2341 225.336 50.8373 225.033 51.4005 225.211C56.4934 226.825 59.8008 229.157 61.2301 232.142C62.5826 234.967 61.8217 237.494 61.4312 238.448C61.2635 238.859 60.8621 239.108 60.4374 239.108Z" fill="#232333"/>
<path d="M53.112 241.101C51.4828 241.101 49.5093 240.894 47.1262 240.366C42.5339 239.345 39.5056 237.454 38.1242 234.743C37.8531 234.212 38.0406 233.549 38.5426 233.262C39.0438 232.975 39.6697 233.174 39.9409 233.705C41.0053 235.794 43.6361 237.357 47.5502 238.226C54.8844 239.853 57.6536 238.137 58.3278 237.572C58.7743 237.198 59.4236 237.277 59.7776 237.751C60.1308 238.225 60.0552 238.911 59.6086 239.286C58.6722 240.071 56.7485 241.101 53.112 241.101Z" fill="#000072"/>
<path d="M75.9602 253.056C74.755 253.056 73.377 252.99 71.7808 252.857C69.0702 252.634 66.1074 252.248 63.3109 251.864C63.3068 251.863 63.3019 251.862 63.2971 251.862C63.2825 251.86 63.2679 251.859 63.2541 251.857C62.5363 251.759 61.8323 251.662 61.1469 251.567L60.932 251.537C50.496 250.088 40.6837 246.754 37.5773 244.494C37.5222 244.454 37.4703 244.408 37.424 244.357C35.2861 242.035 35.5991 237.014 38.0696 234.026C39.4541 232.284 41.9206 230.847 44.3059 229.457C46.2598 228.318 48.2793 227.141 49.2007 226.019C49.8082 225.28 50.2729 223.899 50.7645 222.436C51.7734 219.435 53.029 215.702 56.5644 214.421C57.2903 214.157 61.3951 213.163 70.9665 219.391C78.9871 224.611 84.4797 225.085 86.8245 225.287C87.8553 225.376 88.4239 225.425 88.8392 225.842C91.0729 228.08 89.5553 230.832 88.6494 232.476C88.4312 232.871 88.226 233.244 88.106 233.534C88.106 233.535 88.1052 233.536 88.1052 233.537C87.9527 233.901 87.7807 234.29 87.595 234.707C87.1108 235.795 86.5617 237.028 86.0686 238.562C86.0459 238.636 86.0199 238.719 85.9923 238.806C85.9866 238.828 85.981 238.85 85.9745 238.872C85.796 239.441 85.6355 240.033 85.4959 240.631C85.2194 241.811 84.989 242.972 84.766 244.094C84.0758 247.562 83.5315 250.302 82.0781 251.669C81.1738 252.523 79.5387 252.96 76.9335 253.041C76.6204 253.051 76.2968 253.056 75.9602 253.056ZM63.3555 251.865C63.3676 251.865 63.379 251.866 63.3911 251.866C63.3798 251.866 63.3676 251.865 63.3555 251.865ZM63.4909 249.768C63.5339 249.771 63.5753 249.777 63.6207 249.785C66.3588 250.161 69.2876 250.543 71.9511 250.763C73.8871 250.925 75.5401 250.984 76.8662 250.94C79.5079 250.857 80.3749 250.397 80.6571 250.131C81.6223 249.224 82.1584 246.53 82.7245 243.679C82.9508 242.54 83.1852 241.362 83.4699 240.149C83.6151 239.523 83.783 238.901 83.9695 238.302C83.9768 238.271 83.9849 238.24 83.9947 238.212C84.0271 238.115 84.0555 238.021 84.0847 237.927C84.6168 236.272 85.2153 234.927 85.6963 233.846C85.8739 233.447 86.0394 233.075 86.1854 232.725C86.3508 232.325 86.5844 231.902 86.831 231.453C87.7888 229.717 88.359 228.483 87.4977 227.469C87.3079 227.438 86.9607 227.409 86.6469 227.382C84.1472 227.165 78.2937 226.661 69.8383 221.158C60.7495 215.244 57.3 216.388 57.266 216.399C54.6754 217.338 53.6884 220.273 52.7337 223.112C52.1781 224.764 51.6534 226.323 50.8018 227.361C49.6419 228.773 47.5543 229.99 45.3441 231.278C43.125 232.57 40.8305 233.907 39.678 235.357C37.7777 237.657 37.6665 241.401 38.8815 242.851C41.5345 244.706 50.646 247.987 61.2142 249.454L61.43 249.484C62.0999 249.576 62.7885 249.672 63.4909 249.768Z" fill="#000072"/>
<path d="M86 238.111V238.122C85.8167 238.671 85.6443 239.261 85.4892 239.891C84.3872 244.321 83.9751 248.533 82.3051 250.011C81.534 250.698 79.8856 250.999 77.7371 251.063C76.4096 250.949 75.0995 250.835 74 250.808C75.8458 248.811 77.029 245.909 78.1136 244.12C80.369 240.4 83.3872 238.681 86 238.111Z" fill="#22C1FF"/>
<g opacity="0.2">
<path d="M86 238.111V238.121C85.8167 238.673 85.6442 239.261 85.4924 239.892C84.3868 244.321 83.9762 248.533 82.3074 250.011C81.5336 250.698 79.8855 251.001 77.7373 251.063C76.4078 250.948 75.0981 250.837 74 250.807C74.9289 249.802 75.6895 248.566 76.3555 247.36C83.1709 247.169 83.6892 244.561 85.8482 238.148C85.9005 238.135 85.9486 238.122 86 238.111Z" fill="#000072"/>
</g>
<path d="M77.7583 252.059C77.7262 252.059 77.695 252.058 77.6638 252.056L77.557 252.046C76.2692 251.935 75.053 251.83 74.0274 251.805C73.6182 251.795 73.2525 251.559 73.0881 251.2C72.9246 250.84 72.992 250.423 73.2624 250.128C74.4539 248.83 75.3719 247.07 76.1813 245.517C76.5412 244.829 76.8806 244.178 77.2176 243.616C80.0001 238.993 83.7326 237.575 85.7098 237.141C86.0213 237.072 86.3516 237.143 86.6023 237.336C86.8537 237.527 87 237.818 87 238.125V238.135C87 238.239 86.9827 238.342 86.9507 238.441C86.7699 238.988 86.6072 239.556 86.4658 240.131C86.1856 241.265 85.9522 242.381 85.7262 243.46C85.0269 246.793 84.4755 249.426 83.0029 250.739C82.0866 251.56 80.4299 251.981 77.7903 252.059C77.7797 252.059 77.769 252.059 77.7583 252.059ZM76.0745 249.896C76.6136 249.937 77.1724 249.985 77.746 250.035L77.7879 250.039C80.4135 249.954 81.2813 249.517 81.5639 249.263C82.5419 248.392 83.0851 245.802 83.6587 243.063C83.8863 241.976 84.1221 240.852 84.4073 239.695C82.772 240.414 80.7266 241.832 79.0444 244.627C78.7379 245.136 78.4124 245.76 78.0681 246.421C77.4846 247.54 76.8478 248.761 76.0745 249.896Z" fill="#000072"/>
<path d="M72 251.064C69.295 250.842 66.3502 250.458 63.5934 250.081C63.5723 250.077 63.5553 250.074 63.5351 250.074C63.4281 250.057 63.322 250.04 63.2183 250.026C60.7993 245.881 59.3265 239.672 59 238.193C59.2681 237.974 59.3783 237.829 59.3783 237.829C59.3783 237.829 59.4334 237.722 59.5088 237.528L65.3449 234.127C65.3449 234.127 67.4301 244.235 72 251.064Z" fill="#22C1FF"/>
<g opacity="0.2">
<path d="M73 251.063C70.1918 250.838 67.1347 250.443 64.2735 250.059C64.2525 250.056 64.2348 250.053 64.2138 250.053C64.1053 250.035 63.9935 250.018 63.8842 250.004C63.1771 248.813 62.5465 247.453 62 246.082C65.4144 246.518 68.279 246.854 70.6946 247.072C71.3823 248.456 72.1491 249.813 73 251.063Z" fill="#000072"/>
</g>
<path d="M71.9663 252.06C71.9381 252.06 71.9099 252.059 71.8825 252.057C69.1874 251.836 66.2434 251.454 63.4645 251.073C63.4605 251.072 63.4556 251.072 63.4508 251.072C63.4282 251.069 63.4057 251.067 63.3831 251.063C63.2606 251.043 63.1752 251.029 63.093 251.018C62.7778 250.976 62.4998 250.789 62.3386 250.514C59.8168 246.192 58.3025 239.699 58.0245 238.441C57.9398 238.056 58.0785 237.655 58.3831 237.407C58.4516 237.351 58.5032 237.305 58.5394 237.27C58.5507 237.243 58.5636 237.211 58.5781 237.175C58.6636 236.955 58.8199 236.771 59.0222 236.654L64.8281 233.271C65.1159 233.103 65.4656 233.085 65.7687 233.222C66.0717 233.358 66.2909 233.633 66.3586 233.96C66.3787 234.059 68.4484 243.9 72.8238 250.439C73.0454 250.771 73.0591 251.201 72.8584 251.546C72.6715 251.866 72.3306 252.06 71.9663 252.06ZM63.5088 251.075C63.5209 251.075 63.5322 251.076 63.5443 251.076C63.533 251.076 63.5209 251.075 63.5088 251.075ZM63.8779 249.029C65.8759 249.302 67.9721 249.578 69.9885 249.789C67.0364 244.63 65.3206 238.489 64.654 235.776L60.3528 238.282C60.3375 238.314 60.3294 238.33 60.3294 238.33C60.3028 238.381 60.2666 238.44 60.2319 238.486C60.2206 238.501 60.2013 238.525 60.1731 238.558C60.6196 240.455 61.9099 245.441 63.8779 249.029Z" fill="#000072"/>
<path d="M53 223.748C53 223.748 53.956 222.817 55.3034 217.345C56.0699 214.231 58.127 210.114 65.6781 213.446C70.2655 215.469 69.1839 218.642 67.826 221.69C66.5969 224.448 64.4304 226.996 63.4258 227.937C61.9812 229.289 53 223.748 53 223.748Z" fill="white"/>
<path d="M67.8262 221.691C67.4851 222.453 67.0768 223.198 66.6385 223.897C65.4913 225.731 64.1553 227.256 63.4261 227.937C61.9816 229.288 53 223.746 53 223.746C53 223.746 53.7964 222.974 54.9606 218.682C55.0716 218.271 55.1867 217.827 55.3049 217.345C56.0706 214.23 58.1292 210.115 65.6776 213.445C70.2664 215.468 69.1832 218.643 67.8262 221.691Z" fill="white"/>
<path d="M67 224.669C65.8224 226.6 64.451 228.204 63.7025 228.921C62.2197 230.343 53 224.51 53 224.51C53 224.51 53.8175 223.698 55.0126 219.182C59.2174 219.33 64.9774 220.958 67 224.669Z" fill="#E5E5E5"/>
<path d="M61.7603 229.144C60.7495 229.144 59.1149 228.672 56.2531 227.233C53.8307 226.016 51.6264 224.654 51.5338 224.598C51.2465 224.42 51.0196 224.154 51.0018 223.818C50.9849 223.492 51.0831 223.216 51.3342 223.012C51.4775 222.812 52.2694 221.569 53.3639 217.107C54.0238 214.418 55.2157 212.687 57.0072 211.813C59.0497 210.817 61.7699 211.057 65.0929 212.527C70.8649 215.081 68.8392 219.641 67.7503 222.09C66.5029 224.898 64.3123 227.548 63.1437 228.645C62.8451 228.926 62.4468 229.144 61.7603 229.144ZM53.4878 223.379C57.2269 225.607 60.8686 227.239 61.7973 227.087C62.8242 226.098 64.771 223.717 65.8615 221.262C67.4405 217.709 67.5829 215.874 64.2527 214.4C61.5164 213.19 59.3829 212.938 57.9166 213.655C56.7086 214.244 55.8757 215.532 55.3694 217.592C54.6089 220.696 53.9546 222.425 53.4878 223.379Z" fill="#000072"/>
<path d="M59.3377 233.598C59.3377 233.598 56.8506 236.856 58.9406 239.065C61.39 241.654 66.5283 239.092 68.4279 234.798C70.9077 229.193 64.856 224.103 59.2975 222.095C52.0437 219.476 49.962 223.009 50.0005 225.621C50.0391 228.233 59.3377 233.598 59.3377 233.598Z" fill="#22C1FF"/>
<g opacity="0.7">
<path d="M68.4185 234.82C68.0427 235.66 67.5382 236.432 66.9544 237.114C67.1039 236.856 67.2434 236.59 67.3645 236.315C69.8868 230.7 63.7297 225.602 58.0696 223.594C53.8569 222.096 51.3597 222.603 50 223.805C50.8419 221.733 53.4017 220.064 59.1237 222.096C64.7838 224.107 70.94 229.205 68.4185 234.82Z" fill="white"/>
</g>
<path d="M61.4563 241.1C60.1608 241.1 59.0189 240.63 58.174 239.736C56.3072 237.76 57.179 235.281 57.8949 233.939C54.9832 232.188 49.039 228.291 49.0006 225.658C48.9737 223.836 49.7867 222.171 51.1736 221.206C53.1253 219.849 55.9799 219.835 59.658 221.165C63.2243 222.455 67.638 225.218 69.3309 229.105C70.2199 231.147 70.2231 233.196 69.3399 235.195C68.0314 238.158 65.1851 240.552 62.4179 241.017C62.0889 241.072 61.7681 241.1 61.4563 241.1ZM60.1764 234.205C60.1568 234.23 58.2548 236.798 59.7086 238.337C60.2751 238.937 61.0694 239.156 62.0636 238.989C64.1394 238.64 66.3915 236.7 67.4184 234.376C68.0633 232.917 68.0584 231.415 67.4045 229.915C66.2258 227.208 62.9003 224.531 58.934 223.097C55.9839 222.029 53.7196 221.958 52.3841 222.886C51.1965 223.712 51.0871 225.08 51.0944 225.629C51.1099 226.707 55.2101 230.012 59.8678 232.703C60.1241 232.852 60.3053 233.101 60.3633 233.388C60.4221 233.674 60.3543 233.971 60.1764 234.205Z" fill="#000072"/>
<path d="M45 229.705C45 229.705 52.7533 229.382 59.2975 235.99C59.2975 235.99 63.7245 237.079 62.8969 232.931C62.0263 228.571 52.1655 224.594 49.6094 225.227C47.1554 225.833 45.1354 227.595 45 229.705Z" fill="white"/>
<path d="M63 234.067C62.8972 236.854 59.3004 235.993 59.3004 235.993C52.7576 229.562 45 229.878 45 229.878C45.0701 228.851 45.607 227.912 46.4331 227.152C46.3368 227.436 46.277 227.726 46.2571 228.026C46.2571 228.026 53.3846 227.735 59.7386 233.377C60.5113 234.063 61.5669 234.399 62.5858 234.185C62.7268 234.155 62.8662 234.117 63 234.067Z" fill="#E5E5E5"/>
<path d="M60.4524 237.116C59.7363 237.116 59.1665 236.986 59.0441 236.957C58.8621 236.912 58.6968 236.818 58.5641 236.685C52.4232 230.506 45.1363 230.735 45.0616 230.735C44.7715 230.753 44.4926 230.636 44.2899 230.428C44.088 230.22 43.9831 229.935 44.0022 229.645C44.1612 227.178 46.3204 225.014 49.3754 224.26C51.5307 223.728 56.2864 225.49 59.3803 227.467C61.182 228.619 63.4247 230.464 63.8761 232.716C64.1813 234.24 63.9222 235.414 63.1044 236.203C62.3446 236.936 61.2964 237.116 60.4524 237.116ZM59.7816 235.011C60.357 235.099 61.2892 235.113 61.693 234.719C62.0411 234.38 61.9846 233.662 61.8758 233.12C61.635 231.917 60.3602 230.524 58.2859 229.198C54.995 227.095 50.9672 225.979 49.8602 226.252C48.2071 226.66 46.8958 227.61 46.3324 228.729C48.8978 228.933 54.6437 229.976 59.7816 235.011Z" fill="#000072"/>
<path d="M70 237.809L72.9117 243.093L83 237.115L73.5989 240.064L70 237.809Z" fill="#000072"/>
<path d="M83.0018 79.9427C83.3942 73.8797 87.9577 68.0964 94.0715 66.9856C101.053 65.7116 107.196 69.6849 107.929 76.9371C108.101 78.646 107.959 80.3219 107.532 81.9047C107.379 82.4714 106.797 82.8069 106.232 82.6533C105.825 82.5425 105.538 82.2095 105.466 81.819C104.669 78.0987 103.81 73.7415 100.151 72.0268C93.3608 69.2322 87.4453 73.929 85.0298 80.3477C84.6253 81.4851 82.9373 81.1424 83.0018 79.9427Z" fill="#000072"/>
<path d="M112.367 96.3767C113.484 99.6798 119.027 100.255 120.877 97.3569C121.851 96.06 122.179 94.2216 122.535 92.6543C123.173 92.7504 124.435 92.9327 125.073 93.0288C125.007 94.0254 124.861 95.3003 124.968 96.292C125.131 99.5389 127.62 101.308 130.73 101.066C131.908 100.963 133.001 100.516 133.737 99.5283C133.963 99.201 134.417 99.1245 134.734 99.3647C135.608 100.062 134.1 101.764 133.478 102.254C129.923 105.011 123.908 103.397 122.515 99.0121C121.929 97.3423 121.887 95.6439 122.252 93.9407L123.408 95.5991L123.386 95.5959L124.968 94.3413C124.95 94.6156 124.928 94.7972 124.899 95.0146C124.253 99.4941 120.729 102.676 116.125 101.663C113.677 101.17 111.156 99.2833 111.001 96.6095C110.981 96.2228 111.277 95.8931 111.662 95.8735C111.991 95.8556 112.279 96.0722 112.367 96.3767Z" fill="#000072"/>
<path d="M131.973 89.7378C131.725 91.4081 129.318 92.5621 127.16 93.2692C124.903 94.009 122.548 93.6627 120.603 92.3044C118.743 91.0059 116.774 89.2079 117.021 87.5375C117.769 82.4985 132.721 84.6988 131.973 89.7378Z" fill="#000072"/>
<g opacity="0.5">
<path d="M127.994 88.5037C127.922 89.0479 126.981 89.384 126.133 89.5777C125.246 89.7804 124.303 89.6254 123.507 89.1461C122.745 88.6875 121.932 88.0631 122.004 87.5189C122.222 85.8781 128.212 86.8629 127.994 88.5037Z" fill="white"/>
</g>
<path d="M130 102.984C134.174 102.595 133.812 98.0404 138.513 97.6471C141.062 97.4335 142.818 100.041 141.61 102.535C140.297 105.243 136.058 106.052 133.723 105.382C131.247 104.672 130 102.984 130 102.984Z" fill="#FF8080"/>
<path d="M135.506 106.601C134.764 106.601 134.068 106.514 133.468 106.344C130.714 105.565 129.293 103.702 129.234 103.623C128.978 103.283 128.928 102.832 129.103 102.445C129.277 102.057 129.65 101.794 130.076 101.754C131.543 101.619 132.2 100.832 133.109 99.7412C134.169 98.471 135.488 96.8901 138.336 96.6547C139.906 96.5237 141.364 97.2023 142.237 98.4655C143.151 99.7875 143.25 101.485 142.501 103.009C141.275 105.505 138.121 106.601 135.506 106.601ZM132.564 103.411C132.991 103.668 133.51 103.914 134.12 104.086C135.963 104.607 139.398 103.953 140.368 101.981C140.739 101.227 140.706 100.41 140.28 99.793C139.888 99.2273 139.253 98.9354 138.532 98.9959C136.68 99.1488 135.912 100.07 134.938 101.237C134.324 101.974 133.615 102.825 132.564 103.411Z" fill="#000072"/>
<path d="M161.401 27.7437C159.847 22.2354 171.484 24.0134 170.984 19.0795C170.621 15.4916 157.37 7.71855 146.177 16.3058C146.177 16.3058 146.294 13.5165 147.019 9.91138C147.887 5.59118 147.844 1.94437 146.056 1.19979C142.433 -0.308192 135.329 6.85206 121.761 12.9282C116.513 15.2781 106.55 18.4585 102 19.3463L132.549 45.8288L161.401 27.7437Z" fill="white"/>
<path d="M160.251 28.4778C158.84 25.3874 161.904 23.4618 164.391 22.6005L165.653 22.1481C166.467 21.8503 167.264 21.5781 167.908 21.2309C168.401 20.971 168.877 20.6502 169.032 20.2044C169.054 20.1279 169.07 20.0481 169.073 19.951C169.075 19.8663 169.059 19.6919 169.052 19.696C168.726 18.8891 167.886 18.1701 167.088 17.577C163.776 15.2467 159.552 14.1954 155.545 14.485C152.26 14.7268 149.133 15.9689 146.47 17.9357C145.569 18.6448 144.171 17.8592 144.271 16.7281C144.405 13.9454 144.913 11.3172 145.403 8.60601C145.594 7.34582 145.715 6.07 145.644 4.90276C145.583 4.15997 145.505 3.46407 145.122 2.98368C145.043 2.89978 144.986 2.89485 144.884 2.85948C144.051 2.65301 142.875 3.12846 142 3.52741C138.489 5.24248 135.201 7.54241 131.751 9.49933C129.425 10.8541 127.05 12.1456 124.622 13.3342C119.787 15.7394 114.649 17.5162 109.512 19.1235C106.908 19.9189 104.348 20.6749 101.656 21.226C99.8775 21.5394 99.2862 18.8948 101.115 18.4654C102.361 18.2178 103.637 17.8904 104.904 17.5425C111.216 15.746 117.497 13.7076 123.403 10.8031C128.183 8.48838 132.632 5.70889 137.202 2.9442C139.757 1.55487 143.37 -1.06834 146.413 0.467416C149.525 2.40541 148.326 8.0993 147.793 11.0672C147.435 12.9525 147.166 14.9621 147.058 16.8466L144.818 15.6687L144.819 15.6678C150.736 10.697 159.599 9.99699 166.401 13.5768C169.062 15.0024 172.96 17.5787 171.785 21.1766C170.589 24.2194 166.672 24.5912 164.043 25.5289C162.651 26.0011 161.42 26.5061 161.593 28.0945C161.683 28.8941 160.585 29.2157 160.251 28.4778Z" fill="#000072"/>
<path d="M113.541 246.082C112.896 248.969 112.588 254.441 114.018 256.116C116.344 258.84 125.667 259.466 133.344 259.869C143.918 260.425 152.985 259.474 156.181 258.01C158.737 256.4 158.195 250.374 157.004 247.019L113.541 246.082Z" fill="white"/>
<path d="M114.018 256.042C116.344 258.818 125.669 259.455 133.347 259.866C143.92 260.431 152.988 259.463 156.181 257.973C157.715 256.99 158.133 254.391 157.965 251.728C157.832 253.569 157.303 255.159 156.181 255.88C152.988 257.373 143.92 258.342 133.347 257.777C125.669 257.366 116.344 256.726 114.018 253.949C113.397 253.208 113.102 251.736 113.023 250.066C112.92 252.514 113.143 255 114.018 256.042Z" fill="#E8E8E8"/>
<path d="M139.39 261.026C137.41 261.026 135.362 260.975 133.293 260.867C124.177 260.389 115.784 259.716 113.257 256.767C111.398 254.599 111.998 248.397 112.557 245.9C112.682 245.341 113.244 244.987 113.814 245.111C114.383 245.233 114.742 245.786 114.617 246.346C113.91 249.503 113.865 254.26 114.87 255.432C117.019 257.939 127.679 258.497 133.406 258.797C144.183 259.359 152.704 258.361 155.625 257.075C157.315 255.91 157.201 250.864 155.966 247.397C155.773 246.857 156.063 246.266 156.613 246.077C157.163 245.887 157.764 246.172 157.956 246.712C158.993 249.621 160.118 256.717 156.707 258.858C156.668 258.883 156.627 258.904 156.584 258.924C153.676 260.249 147.036 261.026 139.39 261.026Z" fill="#000072"/>
<path d="M146.4 223.591C145.627 223.102 141.078 220.379 129.971 224.091C117.932 228.114 115.122 226.293 114.4 226.786C111.677 228.642 113.765 234.34 113.765 241.108C113.765 245.644 112.771 249.568 114.197 251.22C116.517 253.909 125.815 254.527 133.473 254.924C144.018 255.473 153.883 254.091 157.071 252.647C159.069 251.22 159.707 246.994 158.064 244.094C156.249 240.751 150.318 237.407 148.686 234.509C147.132 231.751 149.387 225.482 146.4 223.591Z" fill="#FCFCFC"/>
<path d="M113.765 241.11C113.765 245.644 112.77 249.568 114.197 251.221C116.218 253.562 123.537 254.333 130.452 254.754C131.475 254.817 132.488 254.874 133.474 254.923C144.019 255.474 153.883 254.092 157.072 252.646C158.984 251.281 159.651 247.347 158.259 244.468C158.197 244.342 158.132 244.218 158.064 244.095C156.251 240.752 150.318 237.409 148.686 234.511C147.132 231.753 149.387 225.484 146.4 223.591C145.627 223.101 141.08 220.379 129.973 224.093C117.933 228.117 115.123 226.293 114.398 226.787C111.678 228.644 113.765 234.341 113.765 241.11Z" fill="#FCFCFC"/>
<path d="M113.765 241.11C113.765 245.644 112.769 249.568 114.196 251.221C116.218 253.562 123.537 254.333 130.452 254.754C131.474 254.817 132.487 254.874 133.473 254.923C144.018 255.474 153.882 254.092 157.072 252.646C158.984 251.281 159.651 247.347 158.259 244.468C158.197 244.342 158.132 244.218 158.064 244.095C156.251 240.752 150.318 237.409 148.685 234.511C147.936 233.182 148.073 231.034 148.08 228.955C148.087 226.724 147.947 224.574 146.4 223.591C145.627 223.101 141.08 220.379 129.973 224.093C117.932 228.117 115.123 226.293 114.397 226.787C112.433 228.13 112.978 231.472 113.429 235.78C113.604 237.433 113.765 239.229 113.765 241.11Z" fill="#FCFCFC"/>
<path d="M113.765 241.11C113.765 245.644 112.769 249.568 114.196 251.221C116.218 253.562 123.537 254.333 130.452 254.754C131.474 254.817 132.487 254.874 133.473 254.923C144.018 255.474 153.882 254.092 157.072 252.646C158.984 251.281 159.651 247.347 158.259 244.468C158.197 244.342 158.132 244.218 158.064 244.095C156.251 240.752 150.318 237.409 148.685 234.511C147.936 233.182 148.073 231.034 148.08 228.955C148.087 226.724 147.947 224.574 146.4 223.591C145.627 223.101 141.08 220.379 129.973 224.093C117.932 228.117 115.123 226.293 114.397 226.787C112.433 228.13 112.978 231.472 113.429 235.78C113.604 237.433 113.765 239.229 113.765 241.11Z" fill="#FCFCFC"/>
<path d="M113.764 241.11C113.764 245.644 112.768 249.568 114.195 251.221C116.217 253.562 123.536 254.333 130.451 254.754C131.474 254.817 132.487 254.874 133.473 254.923C144.018 255.474 153.882 254.092 157.072 252.646C158.984 251.281 159.651 247.347 158.259 244.468C158.197 244.342 158.132 244.218 158.064 244.095C157.4 242.869 156.182 241.644 154.824 240.438C152.805 238.651 150.479 236.908 149.213 235.289C149.007 235.025 148.83 234.767 148.686 234.511C147.937 233.182 148.073 231.034 148.081 228.955C148.087 226.724 147.948 224.574 146.401 223.591C145.628 223.101 141.08 220.379 129.973 224.093C117.932 228.117 115.123 226.293 114.397 226.787C112.433 228.13 112.978 231.472 113.429 235.78C113.604 237.433 113.764 239.23 113.764 241.11Z" fill="#FCFCFC"/>
<path d="M130.831 232.133C132.497 231.679 133.913 231.244 134.937 230.881C136.439 230.349 138.202 229.944 140 229.639C139.833 227.898 139.518 224.624 139.282 222.17C136.832 222.248 133.674 222.745 129.68 224.036C129.454 224.108 129.232 224.179 129.013 224.248C128.874 227.202 129.856 230.064 130.831 232.133Z" fill="#FFB522"/>
<path d="M130 228.864C130.695 231.164 131.702 233.068 132.326 234.127C134 233.368 135.586 232.492 137 231.478V225.16C134.712 226.653 132.344 227.87 130 228.864Z" fill="#FFB522"/>
<path d="M139.565 243.093C144.283 239.923 151.585 240.059 155 240.328C152.965 238.523 150.62 236.76 149.344 235.123C143.99 235.724 136.285 238.181 136.022 239.64C135.671 241.608 139.565 243.093 139.565 243.093Z" fill="#E8E8E8"/>
<path d="M113.76 250.255C115.756 252.578 122.983 253.343 129.811 253.759C130.821 253.822 131.822 253.879 132.795 253.928C143.208 254.474 152.948 253.103 156.097 251.669C157.415 250.725 158.134 248.542 157.979 246.337C157.669 247.006 157.246 247.556 156.736 247.924C153.586 249.357 143.846 250.729 133.433 250.182C132.461 250.133 131.461 250.076 130.45 250.014C123.622 249.596 116.395 248.831 114.398 246.51C113.949 245.989 113.526 245.145 113.155 244.088C112.959 246.867 112.777 249.109 113.76 250.255Z" fill="#E8E8E8"/>
<path d="M113.428 236.118C120.481 235.628 131.016 232.857 135.106 231.309C138.96 229.855 144.542 229.321 148 229.123C148.006 226.837 147.867 224.633 146.324 223.627C145.552 223.124 141.015 220.334 129.934 224.14C117.921 228.264 115.117 226.396 114.394 226.902C112.435 228.277 112.977 231.703 113.428 236.118Z" fill="#22C1FF"/>
<g opacity="0.2">
<path d="M130.831 232.133C132.497 231.679 133.913 231.244 134.937 230.881C136.439 230.349 138.202 229.944 140 229.639C139.833 227.898 139.518 224.624 139.282 222.17C136.832 222.248 133.674 222.745 129.68 224.036C129.454 224.108 129.232 224.179 129.013 224.248C128.874 227.202 129.856 230.064 130.831 232.133Z" fill="#000072"/>
</g>
<g opacity="0.7">
<path d="M113.03 231.136C113.125 229.848 113.498 228.865 114.395 228.281C115.119 227.812 117.921 229.544 129.934 225.72C141.015 222.192 145.552 224.778 146.324 225.244C147.44 225.92 147.822 227.176 147.945 228.62C147.965 228.62 147.983 228.617 148 228.617C148.006 226.497 147.867 224.454 146.324 223.521C145.552 223.054 141.016 220.468 129.934 223.997C117.922 227.821 115.119 226.088 114.395 226.558C113.132 227.38 112.907 228.995 113.03 231.136Z" fill="white"/>
</g>
<path d="M130 254.745C131.003 254.81 131.997 254.869 132.964 254.92C143.306 255.486 152.981 254.065 156.109 252.58C157.985 251.177 158.639 247.134 157.273 244.177C152.897 246.98 143.279 249.084 135.909 244.088C135.91 244.088 130.396 250.226 130 254.745Z" fill="#22C1FF"/>
<g opacity="0.2">
<path d="M130 254.747C131.003 254.812 131.997 254.871 132.964 254.922C143.307 255.486 152.982 254.069 156.11 252.588C157.419 251.612 158.133 249.357 157.979 247.078C157.671 247.769 157.251 248.338 156.744 248.717C153.616 250.199 143.941 251.617 133.598 251.051C132.819 251.01 132.024 250.966 131.222 250.914C130.581 252.208 130.108 253.536 130 254.747Z" fill="#000072"/>
</g>
<path d="M113 232.86C113.17 234.451 113.392 236.223 113.5 238.112C119.232 237.804 130.134 236.106 137 231.285V225.16C128.064 230.883 117.872 232.438 113 232.86Z" fill="#22C1FF"/>
<g opacity="0.2">
<path d="M130 228.864C130.695 231.164 131.702 233.068 132.326 234.127C134 233.368 135.586 232.492 137 231.478V225.16C134.712 226.653 132.344 227.87 130 228.864Z" fill="#000072"/>
</g>
<path d="M113.559 239.108C113.298 239.108 113.045 239.016 112.85 238.847C112.64 238.666 112.512 238.411 112.498 238.139C112.414 236.662 112.261 235.277 112.112 233.938L112.006 232.959C111.977 232.687 112.062 232.413 112.242 232.202C112.423 231.991 112.685 231.858 112.967 231.833C118.012 231.397 127.758 229.842 136.349 224.335C136.676 224.126 137.095 224.107 137.439 224.285C137.785 224.464 138 224.811 138 225.189V231.287C138 231.614 137.838 231.922 137.563 232.115C131.074 236.675 120.608 238.731 113.617 239.107C113.597 239.108 113.578 239.108 113.559 239.108ZM114.231 233.772C114.34 234.763 114.461 235.853 114.549 236.991C121.045 236.506 130.049 234.63 135.874 230.756V227.048C127.914 231.653 119.349 233.232 114.231 233.772Z" fill="#000072"/>
<path d="M137.639 245.085C137.287 245.085 136.95 244.945 136.718 244.696C136.386 244.341 136.238 244.081 136.201 244.011C136.178 243.964 136.152 243.905 136.135 243.856C136.135 243.856 136.079 243.694 136.02 243.403C135.927 242.94 136.163 242.475 136.609 242.242C137.056 242.008 137.615 242.059 138.003 242.365L138.581 242.821C138.977 243.134 139.108 243.643 138.907 244.084C138.907 244.084 138.854 244.2 138.751 244.417C138.585 244.767 138.233 245.015 137.819 245.072C137.759 245.08 137.699 245.085 137.639 245.085Z" fill="#232333"/>
<path d="M137.141 245.084C136.657 245.084 136.226 244.732 136.131 244.224C135.943 243.218 135.695 240.609 137.466 238.098C139.335 235.446 142.827 233.777 147.844 233.137C148.415 233.067 148.922 233.478 148.992 234.06C149.062 234.642 148.661 235.172 148.096 235.244C143.668 235.808 140.653 237.188 139.132 239.345C137.836 241.184 138.016 243.087 138.154 243.82C138.261 244.396 137.897 244.953 137.338 245.064C137.271 245.078 137.205 245.084 137.141 245.084Z" fill="#232333"/>
<path d="M148.437 248.073C141.201 248.073 138.328 246.085 137.251 244.877C136.878 244.458 136.926 243.827 137.359 243.467C137.791 243.107 138.442 243.153 138.815 243.571C139.364 244.188 141.727 246.187 149.066 246.07C152.981 246.005 155.782 245.102 157.167 243.459C157.529 243.032 158.179 242.968 158.621 243.316C159.062 243.665 159.128 244.295 158.768 244.723C156.96 246.866 153.708 247.992 149.101 248.068C148.875 248.072 148.654 248.073 148.437 248.073Z" fill="#000072"/>
<path d="M138.191 256.044C136.621 256.044 135.023 256.005 133.417 255.921C124.328 255.448 115.96 254.782 113.441 251.86C112.192 250.411 112.362 248.059 112.576 245.079C112.668 243.809 112.762 242.496 112.762 241.106C112.762 238.903 112.531 236.778 112.327 234.904C111.881 230.795 111.527 227.549 113.846 225.969C114.332 225.637 114.85 225.674 115.568 225.723C117.145 225.834 120.842 226.09 129.642 223.149C140.228 219.608 145.268 221.698 146.944 222.76C149.155 224.162 149.122 227.148 149.092 229.784C149.073 231.415 149.054 233.103 149.573 234.025C150.26 235.247 152.008 236.723 153.699 238.15C155.764 239.893 157.899 241.695 158.936 243.606C160.779 246.862 160.153 251.655 157.637 253.452C157.581 253.492 157.521 253.526 157.459 253.554C154.544 254.875 146.816 256.044 138.191 256.044ZM114.928 227.745C113.769 228.715 114.057 231.363 114.418 234.687C114.627 236.612 114.864 238.795 114.864 241.106C114.864 242.569 114.763 243.979 114.673 245.224C114.505 247.539 114.348 249.726 115.048 250.538C117.189 253.022 127.819 253.574 133.528 253.872C144.075 254.422 153.545 252.996 156.469 251.737C157.911 250.6 158.491 247.072 157.083 244.585C156.222 242.999 154.238 241.324 152.32 239.705C150.405 238.087 148.596 236.56 147.727 235.015C146.943 233.621 146.965 231.659 146.986 229.763C147.012 227.555 147.037 225.272 145.796 224.485C144.69 223.783 140.307 221.755 130.321 225.094C121.117 228.172 117.121 227.894 115.416 227.774C115.241 227.76 115.05 227.747 114.928 227.745Z" fill="#000072"/>
<path d="M113.774 250.492C114.89 251.743 117.615 252.528 121 253.055C120.397 251 119.498 247.984 118.878 246.075C117.701 242.452 115.699 240.102 113.299 239.107C113.326 239.623 113.34 240.148 113.34 240.679C113.34 245.083 112.338 248.892 113.774 250.492Z" fill="#22C1FF"/>
<g opacity="0.2">
<path d="M113.774 250.381C114.89 251.686 117.615 252.504 121 253.054C120.663 251.854 120.232 250.343 119.812 248.893C117.294 248.355 115.331 247.618 114.425 246.56C113.967 246.029 113.536 245.167 113.158 244.088C112.958 246.925 112.772 249.214 113.774 250.381Z" fill="#000072"/>
</g>
<path d="M120.951 254.052C120.894 254.052 120.837 254.047 120.779 254.038C116.652 253.387 114.183 252.463 113.01 251.132C111.766 249.727 111.936 247.441 112.15 244.548C112.242 243.311 112.336 242.034 112.336 240.681C112.336 240.172 112.323 239.66 112.297 239.159C112.279 238.813 112.45 238.483 112.75 238.287C113.05 238.091 113.434 238.057 113.767 238.195C116.53 239.354 118.637 241.977 119.859 245.782C120.518 247.836 121.46 251.053 121.962 252.787C122.057 253.115 121.97 253.468 121.731 253.72C121.53 253.934 121.246 254.052 120.951 254.052ZM114.432 240.927C114.421 242.263 114.326 243.548 114.241 244.688C114.075 246.937 113.917 249.061 114.614 249.847C114.614 249.847 114.615 249.848 114.616 249.849C115.097 250.395 116.343 251.139 119.491 251.777C118.987 250.058 118.34 247.886 117.852 246.366C117.081 243.963 115.894 242.09 114.432 240.927Z" fill="#000072"/>
<path d="M123 254.3C125.708 254.661 128.711 254.882 131.592 255.048C134.768 251.453 137.396 245.663 138 244.277C137.774 244.015 137.694 243.85 137.694 243.85C137.694 243.85 137.66 243.737 137.622 243.533L132.487 239.107C132.486 239.107 128.766 248.878 123 254.3Z" fill="#22C1FF"/>
<g opacity="0.2">
<path d="M123 253.367C125.626 253.698 128.537 253.9 131.331 254.052C132.286 253.03 133.19 251.819 134 250.593C133.977 250.593 133.956 250.59 133.933 250.59C132.965 250.543 131.97 250.489 130.964 250.429C129.327 250.334 127.666 250.218 126.059 250.066C125.128 251.255 124.103 252.39 123 253.367Z" fill="#000072"/>
</g>
<path d="M131.584 256.044C131.564 256.044 131.543 256.044 131.522 256.043C129.265 255.913 125.917 255.694 122.918 255.293C122.514 255.238 122.177 254.958 122.051 254.571C121.926 254.185 122.034 253.761 122.331 253.482C127.812 248.326 131.444 238.887 131.48 238.792C131.603 238.47 131.876 238.228 132.212 238.143C132.545 238.059 132.903 238.143 133.165 238.369L138.26 242.763C138.442 242.919 138.565 243.132 138.608 243.367C138.614 243.403 138.621 243.435 138.627 243.463C138.652 243.498 138.692 243.55 138.746 243.614C139.009 243.92 139.073 244.347 138.912 244.717C138.194 246.368 135.6 252.039 132.379 255.686C132.177 255.915 131.888 256.044 131.584 256.044ZM125.301 253.451C127.383 253.667 129.481 253.81 131.119 253.908C133.725 250.787 135.929 246.188 136.729 244.418C136.705 244.377 136.691 244.347 136.681 244.33C136.661 244.286 136.639 244.229 136.624 244.183C136.624 244.183 136.618 244.165 136.608 244.13L132.892 240.926C131.777 243.518 129.089 249.191 125.301 253.451Z" fill="#000072"/>
<path d="M147 231.654C147 231.654 146.219 230.601 145.931 225.173C145.766 222.082 144.5 217.812 136.249 219.607C131.237 220.698 131.707 223.9 132.48 227.033C133.178 229.868 134.862 232.673 135.69 233.745C136.88 235.285 147 231.654 147 231.654Z" fill="white"/>
<path d="M132.481 227.033C132.53 227.24 132.587 227.444 132.647 227.648C133.419 230.266 134.921 232.752 135.69 233.746C136.879 235.285 147 231.654 147 231.654C147 231.654 146.368 230.805 146.03 226.707C145.992 226.241 145.957 225.727 145.928 225.171C145.765 222.083 144.5 217.814 136.247 219.606C131.235 220.699 131.708 223.898 132.481 227.033Z" fill="white"/>
<path d="M133 227.586C133.753 230.229 135.218 232.74 135.968 233.743C137.128 235.297 147 231.63 147 231.63C147 231.63 146.384 230.773 146.054 226.636C143.771 226.091 139.557 225.56 136.034 227.759C134.889 228.475 133.874 228.27 133 227.586Z" fill="#E5E5E5"/>
<path d="M137.065 235.122C135.955 235.122 135.252 234.855 134.845 234.322C133.887 233.068 132.207 230.152 131.501 227.257C130.884 224.727 129.737 220.016 136.024 218.633C139.639 217.838 142.412 218.104 144.268 219.423C145.896 220.581 146.755 222.446 146.896 225.123C147.128 229.544 147.676 230.871 147.783 231.09C147.998 231.333 148.043 231.618 147.962 231.931C147.879 232.253 147.594 232.469 147.266 232.588C147.162 232.626 144.693 233.519 142.034 234.236C139.844 234.827 138.23 235.122 137.065 235.122ZM136.523 233.058C137.434 233.365 141.369 232.474 145.512 231.046C145.231 230.05 144.913 228.29 144.752 225.223C144.645 223.182 144.063 221.812 142.975 221.038C141.651 220.096 139.476 219.949 136.51 220.602C132.911 221.393 132.701 223.155 133.59 226.803C134.205 229.325 135.687 231.931 136.523 233.058Z" fill="#000072"/>
<path d="M139.266 239.245C139.266 239.245 141.07 242.768 138.611 244.485C135.727 246.497 131.205 243.16 130.171 238.761C128.823 233.019 135.697 229.284 141.501 228.376C149.076 227.191 150.432 230.902 149.896 233.366C149.361 235.829 139.266 239.245 139.266 239.245Z" fill="#22C1FF"/>
<g opacity="0.7">
<path d="M130.172 238.909C130.442 240.071 130.947 241.159 131.598 242.096C131.331 241.532 131.117 240.935 130.975 240.314C129.659 234.63 136.371 230.933 142.038 230.031C146.989 229.247 149.221 230.635 150 232.367C149.952 230.011 148.051 227.341 141.501 228.379C135.697 229.3 128.822 233.085 130.172 238.909Z" fill="white"/>
</g>
<path d="M136.697 246.082C136.098 246.082 135.477 245.97 134.85 245.746C132.235 244.808 129.911 242.027 129.199 238.98C128.717 236.922 129.112 234.976 130.37 233.196C132.763 229.811 137.597 227.981 141.321 227.395C145.167 226.791 147.951 227.316 149.599 228.956C150.772 230.123 151.249 231.851 150.875 233.58C150.335 236.071 143.816 238.699 140.636 239.843C141.077 241.25 141.443 243.749 139.246 245.288C138.495 245.814 137.623 246.081 136.697 246.082ZM144.174 229.178C143.418 229.178 142.58 229.249 141.667 229.392C137.534 230.042 133.789 231.979 132.128 234.328C131.209 235.629 130.919 237.045 131.268 238.537C131.825 240.916 133.644 243.15 135.595 243.849C136.525 244.183 137.333 244.117 137.994 243.654C139.69 242.466 138.333 239.709 138.319 239.681C138.189 239.422 138.18 239.122 138.294 238.857C138.409 238.592 138.635 238.384 138.917 238.287C143.963 236.572 148.582 234.18 148.801 233.169C148.912 232.653 149.065 231.345 148.072 230.357C147.286 229.575 145.958 229.178 144.174 229.178Z" fill="#000072"/>
<path d="M152.972 238.667C152.972 238.667 145.232 236.886 137.381 242.093C137.381 242.093 132.717 242.318 134.345 238.429C136.055 234.341 146.74 232.326 149.191 233.427C151.544 234.482 153.239 236.583 152.972 238.667Z" fill="white"/>
<path d="M136 241.974C136.713 242.125 137.332 242.094 137.332 242.094C145.206 236.839 152.972 238.636 152.972 238.636C153.014 238.318 153.007 238.002 152.962 237.688C152.409 237.212 151.755 236.818 151.032 236.547C147.133 235.096 137.854 237.472 136.139 241.597C136.084 241.728 136.038 241.851 136 241.974Z" fill="white"/>
<path d="M136 241.974C136.713 242.125 137.332 242.094 137.332 242.094C145.206 236.839 152.972 238.636 152.972 238.636C153.014 238.318 153.007 238.002 152.962 237.688C152.409 237.212 151.755 236.818 151.032 236.547C147.133 235.096 137.854 237.472 136.139 241.597C136.084 241.728 136.038 241.851 136 241.974Z" fill="#E8E8E8"/>
<path d="M137.261 243.092C136.566 243.092 134.536 242.968 133.532 241.583C132.861 240.656 132.824 239.46 133.424 238.03C134.309 235.922 136.915 234.546 138.944 233.764C142.425 232.422 147.538 231.603 149.598 232.526C152.523 233.836 154.278 236.353 153.964 238.788C153.927 239.079 153.764 239.342 153.516 239.51C153.269 239.677 152.962 239.734 152.67 239.668C152.568 239.645 145.295 238.096 138.018 242.91C137.857 243.017 137.669 243.078 137.474 243.087C137.439 243.089 137.364 243.092 137.261 243.092ZM147.159 234.207C145.325 234.207 142.383 234.664 139.724 235.689C137.398 236.586 135.858 237.695 135.388 238.815C135.177 239.318 134.984 239.997 135.263 240.384C135.587 240.835 136.51 240.993 137.101 241.017C143.183 237.11 149.113 237.156 151.747 237.435C151.377 236.261 150.245 235.094 148.713 234.408C148.417 234.276 147.872 234.207 147.159 234.207Z" fill="#000072"/>
<path d="M127 241.184L123.254 246.082L115 238.111L123.201 242.846L127 241.184Z" fill="#000072"/>
<path d="M138.985 101.074C138.295 103.781 135.898 105.914 133.05 105.57C132.655 105.539 132.279 105.447 131.887 105.381C131.309 105.283 130.918 104.728 131.015 104.14C131.111 103.552 131.657 103.154 132.235 103.252C132.322 103.265 132.455 103.311 132.54 103.34C133.572 103.777 134.754 103.981 135.804 103.486C136.898 103.013 137.796 101.943 138.316 100.851C138.474 100.434 139.104 100.644 138.985 101.074Z" fill="#000072"/>
<path d="M35.3624 46.2018C37.3451 42.9698 38.3231 39.0901 37.9046 35.0314C36.8893 25.1799 28.0502 18.0134 18.1619 19.0249C8.27351 20.0363 1.08029 28.8425 2.09552 38.6941C3.11075 48.5457 11.9499 55.7122 21.8382 54.7007C24.5884 54.4192 27.1297 53.5336 29.3439 52.1914L37.673 54.0522L35.3624 46.2018Z" fill="white"/>
<g opacity="0.5">
<path d="M18.5572 21.8968C27.7955 20.9413 36.1157 27.2048 37.9999 36.1587C38.0023 35.5189 37.9748 34.8743 37.9084 34.2231C36.893 24.2567 28.053 17.0066 18.1637 18.0299C8.27349 19.0539 1.07953 27.9629 2.09567 37.9293C2.16207 38.5829 2.26408 39.2235 2.39606 39.8518C2.43087 30.6956 9.31635 22.8532 18.5572 21.8968Z" fill="white"/>
</g>
<path d="M19.463 55.7925C14.9978 55.7925 10.7036 54.2786 7.19208 51.4322C3.15257 48.1569 0.635027 43.5106 0.102981 38.3487C-0.994967 27.6932 6.8124 18.134 17.5073 17.0401C28.2038 15.9462 37.7968 23.7256 38.8955 34.3811C39.3107 38.4097 38.4836 42.3677 36.5005 45.8743L38.6102 53.0401C38.7674 53.5734 38.6295 54.1501 38.2474 54.5557C37.8653 54.9613 37.2962 55.1363 36.752 55.0143L29.064 53.2963C26.7286 54.6095 24.1837 55.4142 21.4896 55.6897C20.8124 55.7588 20.1353 55.7925 19.463 55.7925ZM19.5113 20.0784C18.9559 20.0784 18.3949 20.1066 17.8298 20.1644C8.864 21.0816 2.31903 29.0947 3.23963 38.0274C3.68542 42.3549 5.79587 46.2494 9.18242 48.9954C12.569 51.7406 16.8269 53.0096 21.1687 52.5638C23.6089 52.314 25.9015 51.5478 27.9846 50.2853C28.3336 50.074 28.7504 50.0058 29.1486 50.0949L34.8318 51.3647L33.2833 46.1056C33.1583 45.6799 33.2188 45.2221 33.4509 44.8447C35.3292 41.783 36.1273 38.2748 35.7589 34.7008C34.8963 26.331 27.7798 20.0784 19.5113 20.0784Z" fill="#000072"/>
<g opacity="0.3">
<path d="M35.7703 46.0075C30.7955 50.1728 23.9414 51.9963 17.1347 50.32C9.58621 48.4609 4.02469 42.7713 2.02461 35.8672C1.9764 36.7826 1.99846 37.7133 2.09569 38.6538C3.12024 48.5304 12.0406 55.7152 22.0197 54.7011C24.7952 54.4189 27.3598 53.5311 29.5944 52.1855L38 54.051L35.6674 46.1805C35.7042 46.1239 35.736 46.0649 35.7703 46.0075Z" fill="#000072"/>
</g>
<path d="M24.8401 30.912C23.2936 29.3762 20.7867 29.6516 19.2403 31.1874L18.9999 31.4261L18.7596 31.1874C17.2132 29.6516 14.7063 29.3762 13.1598 30.912C11.6134 32.4478 11.6134 34.9375 13.1598 36.4733L13.4001 36.712L18.2621 41.5405C18.6696 41.9452 19.3311 41.9452 19.7386 41.5405L24.6006 36.712L24.8409 36.4733C26.3865 34.9383 26.3865 32.4478 24.8401 30.912Z" fill="#FF0068"/>
</svg>
