<svg width="26" height="26" viewBox="0 0 26 26" fill="none" xmlns="http://www.w3.org/2000/svg">
<path d="M1.5508 9.4C3.0832 4.5316 7.6432 1 13.03 1C19.2676 1 24.3964 5.7364 25 11.8L22.6 11.3116M24.4492 16.6C23.6766 19.0382 22.1473 21.1668 20.0832 22.6772C18.0192 24.1876 15.5277 25.0012 12.97 25C6.7324 25 1.6036 20.2636 1 14.2L3.4 14.6884" stroke="white" stroke-width="1.2" stroke-linecap="round" stroke-linejoin="round"/>
<path d="M9.40252 14.8322V17.2226C9.39976 17.4152 9.44586 17.6054 9.53652 17.7754C9.62717 17.9454 9.75942 18.0896 9.92092 18.1946C10.9337 18.8282 11.7029 19.0142 13.0061 19.0538C14.2073 19.0862 14.9609 18.8978 16.0817 18.197C16.2459 18.0912 16.3806 17.9454 16.4729 17.7733C16.5653 17.6011 16.6124 17.4083 16.6097 17.213V14.8322M19.0133 11.8166V15.4346M7.06012 11.6114C7.49452 10.6946 10.1861 9.09861 12.6425 8.31021C12.8793 8.23499 13.1343 8.2409 13.3673 8.32701C15.5393 9.12141 17.9561 10.325 18.8333 11.3006C19.2905 11.8106 18.8429 12.461 18.2897 12.863C17.1653 13.6802 15.9257 14.315 13.4201 15.2786C13.1547 15.3803 12.8614 15.3825 12.5945 15.2846C10.0265 14.3306 7.62412 13.1006 7.08052 12.017C7.04687 11.9553 7.02756 11.8868 7.02403 11.8165C7.0205 11.7463 7.03283 11.6762 7.06012 11.6114Z" stroke="white" stroke-width="1.2" stroke-linecap="round" stroke-linejoin="round"/>
</svg>
