<svg width="210" height="240" viewBox="0 0 210 240" fill="none" xmlns="http://www.w3.org/2000/svg">
<path fill-rule="evenodd" clip-rule="evenodd" d="M2.07422 96.7383H207.815L205.573 211.581L74.8765 239.997L3.47534 192.188L2.07422 96.7383Z" fill="#AB5500"/>
<path fill-rule="evenodd" clip-rule="evenodd" d="M74.8764 239.997V96.7383H2.07422L3.47534 192.188L74.8764 239.997Z" fill="url(#paint0_radial_1_36774)"/>
<path fill-rule="evenodd" clip-rule="evenodd" d="M74.875 96.7383V239.997L205.572 211.581L207.813 96.7383H74.875Z" fill="url(#paint1_radial_1_36774)"/>
<path opacity="0.5" fill-rule="evenodd" clip-rule="evenodd" d="M15.9148 198.186C7.45201 191.909 4.53767 187.481 3.30469 180.531L3.47283 192.133L74.8739 239.942V226.715C73.4168 230.358 68.3167 230.75 64.1694 228.901C51.1109 223.24 27.6282 206.874 15.9148 198.186Z" fill="url(#paint2_radial_1_36774)"/>
<path fill-rule="evenodd" clip-rule="evenodd" d="M74.875 226.773V240L205.572 211.584L205.908 192.359C203.946 200.038 200.079 204.41 189.038 209.454C167.797 219.038 123.186 229.239 99.9831 231.705C88.4939 232.938 76.6124 232.714 74.875 226.773Z" fill="url(#paint3_radial_1_36774)"/>
<path opacity="0.4" fill-rule="evenodd" clip-rule="evenodd" d="M2.241 110.749L2.12891 101.221L74.8751 141.8V159.174C69.9432 142.696 16.1962 106.769 2.241 110.749Z" fill="url(#paint4_radial_1_36774)"/>
<path opacity="0.75" fill-rule="evenodd" clip-rule="evenodd" d="M74.875 159.121C87.317 136.926 179.959 120.504 207.309 125.492L207.533 112.545L74.875 139.392V159.121Z" fill="url(#paint5_radial_1_36774)"/>
<path fill-rule="evenodd" clip-rule="evenodd" d="M0.448364 100.271L73.9231 141.971L209.215 117.142L209.888 80.1501L0 63.9521L0.448364 100.271Z" fill="#AB5500"/>
<path fill-rule="evenodd" clip-rule="evenodd" d="M0 63.9521L73.9231 103.858V141.971L0.448364 100.271L0 63.9521Z" fill="url(#paint6_radial_1_36774)"/>
<path fill-rule="evenodd" clip-rule="evenodd" d="M73.9219 103.856L209.887 80.1475L209.214 117.139L73.9219 141.969V103.856Z" fill="url(#paint7_radial_1_36774)"/>
<path fill-rule="evenodd" clip-rule="evenodd" d="M0 63.9521L73.9231 103.858L209.888 80.15L130.136 43.1582L0 63.9521Z" fill="url(#paint8_radial_1_36774)"/>
<path opacity="0.2" fill-rule="evenodd" clip-rule="evenodd" d="M89.5596 136.365C84.9079 132.049 85.8606 120.616 89.8958 116.076C99.9839 104.698 187.638 83.3436 201.986 89.2286C208.319 91.8068 209.552 104.193 208.879 110.135C208.487 113.666 207.198 115.908 205.572 117.757L209.327 117.085L210 80.0928L74.0352 103.801V141.914L93.7629 138.271C92.1376 137.934 90.6805 137.43 89.5596 136.365Z" fill="url(#paint9_radial_1_36774)"/>
<path opacity="0.5" fill-rule="evenodd" clip-rule="evenodd" d="M4.25941 100.159C2.40993 95.2831 0.616493 82.8404 4.42754 78.6368C10.6485 71.6868 27.518 80.8227 33.4588 83.7932C43.715 88.8936 61.9295 99.6548 67.0296 109.856C68.6549 113.162 69.8319 116.693 70.4484 120.337C71.1209 124.26 70.6165 134.349 66.0769 135.974C65.3483 136.254 64.6197 136.254 63.8351 136.254L73.9792 142.027V103.914L0 63.9521L0.448364 100.271L6.10889 103.466C5.26822 102.457 4.70777 101.336 4.25941 100.159Z" fill="url(#paint10_radial_1_36774)"/>
<path opacity="0.3" fill-rule="evenodd" clip-rule="evenodd" d="M20.2322 65.1854C21.9696 62.2148 27.2378 60.1411 32.2258 58.7959L0 63.9523L73.9792 103.859L209.944 80.1502L190.777 71.2386C192.682 75.1619 189.824 78.4688 182.482 80.6547C156.309 88.6135 114.388 95.003 87.43 96.4042C83.0024 96.6284 78.5188 96.4042 74.1473 95.7877C57.8383 93.4337 38.9512 84.2418 25.7806 74.5454C20.6245 70.8462 18.6629 67.8196 20.2322 65.1854Z" fill="url(#paint11_radial_1_36774)"/>
<path fill-rule="evenodd" clip-rule="evenodd" d="M28.75 79.4746C36.5402 84.0706 69.7748 103.071 71.5683 105.089C73.4177 107.106 73.4738 115.289 73.9221 134.57C74.5386 126.443 75.2112 107.387 76.4442 105.593C78.2936 104.136 187.413 84.2387 203.105 81.3242C179.847 85.0794 77.8453 101.614 74.3705 101.726C68.9341 100.773 39.6787 84.9113 28.75 79.4746Z" fill="#FF6A66"/>
<path fill-rule="evenodd" clip-rule="evenodd" d="M132.041 131.322L129.127 228.229L156.197 222.344L159.391 126.278C159.503 113.835 159.671 101.336 159.783 88.8936L132.265 93.7137C132.209 106.212 132.097 118.767 132.041 131.322Z" fill="url(#paint12_radial_1_36774)"/>
<path fill-rule="evenodd" clip-rule="evenodd" d="M51.1123 224.079L48.8705 127.733C48.8144 115.234 48.7584 102.735 48.7024 90.2364L24.3789 77.1211C24.491 89.3956 24.6031 101.726 24.7152 114.001L27.3493 208.162L51.1123 224.079Z" fill="url(#paint13_radial_1_36774)"/>
<path fill-rule="evenodd" clip-rule="evenodd" d="M159.784 88.8901C145.324 81.7159 128.791 75.4946 114.164 68.3765C102.842 62.8277 91.9698 56.7745 82.1619 50.7773L56.6055 54.8689C70.5046 61.3704 83.8993 67.5357 96.9017 74.2055C109.176 80.4829 119.992 87.4328 132.266 93.7102L159.784 88.8901Z" fill="url(#paint14_radial_1_36774)"/>
<path opacity="0.65" fill-rule="evenodd" clip-rule="evenodd" d="M120.384 87.2647C113.491 77.7925 131.593 78.297 139.776 79.8103C131.089 76.0551 122.346 72.3559 114.164 68.3765C102.842 62.8277 91.9698 56.7745 82.1619 50.7773L56.6055 54.8689C70.5046 61.3704 83.8993 67.5357 96.9017 74.2055C105.084 78.4091 112.65 82.8369 120.384 87.2647Z" fill="url(#paint15_radial_1_36774)"/>
<path fill-rule="evenodd" clip-rule="evenodd" d="M48.7024 90.2383C72.1291 86.2589 92.6976 80.7101 116.124 76.7307C137.365 73.1436 162.025 69.6687 182.65 67.4828L156.421 55.3203C138.71 58.2348 122.009 62.3824 104.299 65.2969C77.9578 69.6126 50.72 72.7513 24.3789 77.067L48.7024 90.2383Z" fill="url(#paint16_radial_1_36774)"/>
<path opacity="0.35" fill-rule="evenodd" clip-rule="evenodd" d="M24.7168 114.002V111.872C27.4069 115.515 43.8841 126.333 48.8721 124.931V127.734L49.0963 138.607C48.5919 136.197 47.3589 132.386 43.5479 128.35C37.5511 122.017 27.7432 116.076 24.8849 120.503L24.7168 114.002Z" fill="#F39200"/>
<path opacity="0.2" fill-rule="evenodd" clip-rule="evenodd" d="M132.043 131.323V127.848C134.733 132.612 157.991 127.399 159.449 122.299L159.393 126.278L159.112 136.255C158.496 134.069 157.543 132.163 155.021 131.771C149.921 130.986 141.29 133.172 136.078 137.544C133.164 140.01 131.875 143.485 131.65 146.736L132.043 131.323Z" fill="#F39200"/>
<path opacity="0.5" fill-rule="evenodd" clip-rule="evenodd" d="M51.0554 221.952C43.2652 217.3 34.6903 211.528 27.2363 206.371L27.2924 208.165L51.1114 224.082L51.0554 221.952Z" fill="#936037"/>
<path opacity="0.5" fill-rule="evenodd" clip-rule="evenodd" d="M156.252 220.438C147.341 222.847 138.037 225.033 129.126 226.883L129.07 228.228L156.14 222.343L156.252 220.438Z" fill="#B17F4A"/>
<path fill-rule="evenodd" clip-rule="evenodd" d="M24.3789 77.1243C24.3789 77.1243 24.3789 82.2808 24.3789 82.4489C26.9009 81.5521 42.5935 88.7824 48.7024 96.1247C48.7024 95.34 48.7024 90.9682 48.7024 90.2396C48.7024 90.2396 52.1771 89.6791 52.4574 89.6231C43.7704 86.036 35.3637 81.384 28.302 76.5078C27.013 76.676 25.724 76.9001 24.3789 77.1243Z" fill="url(#paint17_radial_1_36774)"/>
<path fill-rule="evenodd" clip-rule="evenodd" d="M156.309 87.1533C147.679 88.8907 137.983 90.6281 129.016 91.9732C130.08 92.5336 131.201 93.0941 132.322 93.6545L159.84 88.8347L156.309 87.1533Z" fill="url(#paint18_radial_1_36774)"/>
<path opacity="0.3" fill-rule="evenodd" clip-rule="evenodd" d="M132.209 99.2618C141.176 96.7959 150.704 94.5541 159.727 92.7606C159.727 91.4716 159.727 90.1826 159.783 88.8936L132.265 93.7134C132.265 95.5629 132.265 97.4124 132.209 99.2618Z" fill="url(#paint19_radial_1_36774)"/>
<path fill-rule="evenodd" clip-rule="evenodd" d="M30.8242 76.0581C52.6257 85.194 75.548 82.6158 102.562 79.2529C106.989 78.3561 111.529 77.5154 116.124 76.7307C137.365 73.1436 162.025 69.6687 182.65 67.4828L156.421 55.3203C138.711 58.2348 122.009 62.3824 104.299 65.2969C80.0876 69.3324 55.0916 72.2469 30.8242 76.0581Z" fill="url(#paint20_radial_1_36774)"/>
<path fill-rule="evenodd" clip-rule="evenodd" d="M100.32 61.6506L110.689 63.6683C119.264 41.0249 128.175 30.656 143.363 11.2073C134.115 12.8327 125.092 14.9625 116.854 18.7738C115.284 13.4492 113.267 8.68509 110.521 4.76172C101.273 13.7855 97.2379 23.8741 96.1731 33.4584C95.2764 42.0338 96.9017 51.0015 100.32 61.6506Z" fill="url(#paint21_radial_1_36774)"/>
<path fill-rule="evenodd" clip-rule="evenodd" d="M115.509 47.5826C110.969 49.4321 102.17 49.3761 98.8075 45.2285C97.5185 43.6592 96.8459 42.4822 95.9492 40.2402C96.2294 46.7979 97.7987 53.7478 100.321 61.5946L110.689 63.6123C113.771 55.4293 116.91 48.8717 120.385 42.8745C118.591 45.0604 116.63 47.1342 115.509 47.5826Z" fill="url(#paint22_radial_1_36774)"/>
<path fill-rule="evenodd" clip-rule="evenodd" d="M96.0625 34.5801C96.9592 33.347 98.5845 32.0019 101.499 31.8898C106.263 31.7777 119.321 33.0107 122.179 36.822C122.572 37.3825 122.852 37.943 123.02 38.6156C126.103 33.7394 129.465 29.1434 133.276 24.1551C131.371 24.5475 129.521 24.8838 127.392 24.9398C120.61 25.108 110.802 24.1551 104.862 20.7922C102.844 19.6152 101.947 18.0459 101.667 16.1963C98.4724 21.9132 96.7911 27.7983 96.1746 33.5152C96.1185 33.8515 96.1185 34.2438 96.0625 34.5801Z" fill="url(#paint23_radial_1_36774)"/>
<path fill-rule="evenodd" clip-rule="evenodd" d="M98.5832 65.6885L107.046 59.2989C95.8931 37.8325 94.0436 24.2689 89.6721 0C84.7401 7.95884 80.2565 16.1419 77.6785 24.8293C72.6344 22.4193 67.7585 20.7939 63.0508 20.2334C63.6112 33.1805 68.4871 42.8768 74.9323 50.051C80.5928 56.3845 88.4391 61.1486 98.5832 65.6885Z" fill="url(#paint24_radial_1_36774)"/>
<path opacity="0.65" fill-rule="evenodd" clip-rule="evenodd" d="M98.2467 45.007C96.6214 49.659 90.7367 56.1606 85.3564 55.9364C83.3388 55.8243 81.9937 55.6001 79.752 54.7034C84.796 58.8509 91.073 62.3259 98.583 65.6888L107.046 59.2993C103.011 51.5647 100.208 44.8389 98.0226 38.2812C98.4149 40.9716 98.6391 43.83 98.2467 45.007Z" fill="url(#paint25_radial_1_36774)"/>
<path fill-rule="evenodd" clip-rule="evenodd" d="M75.6062 50.8368C75.27 49.3235 75.326 47.2497 77.1755 45.0078C80.258 41.3646 89.8977 32.453 94.6054 32.8453C95.278 32.9014 95.8945 33.0695 96.511 33.4058C94.9417 27.857 93.7087 22.2522 92.5318 16.0869C91.523 17.8244 90.5702 19.3938 89.2251 21.0192C84.7976 26.2316 77.5678 32.9014 71.1227 35.0872C68.8809 35.8159 67.1435 35.4235 65.5742 34.4147C67.7039 40.636 71.0106 45.7924 74.8216 50.0521C75.1018 50.2763 75.326 50.5565 75.6062 50.8368Z" fill="url(#paint26_radial_1_36774)"/>
<path fill-rule="evenodd" clip-rule="evenodd" d="M102.84 62.1579C95.8347 51.8451 63.2166 20.9625 49.3736 25.3903C39.6218 28.529 23.5929 52.2934 28.0205 63.9515C29.3656 67.4825 32.8964 69.8926 36.203 71.2377C56.9957 79.6449 80.2543 77.8514 100.038 72.751C100.991 69.22 101.888 65.689 102.84 62.1579Z" fill="url(#paint27_radial_1_36774)"/>
<path fill-rule="evenodd" clip-rule="evenodd" d="M107.102 61.2058L112.37 71.6308C127.558 73.2562 156.701 72.2473 174.467 61.0937C176.373 59.9167 178.054 57.7869 177.55 54.7603C175.196 41.4208 159.279 23.8778 147.51 22.5326C135.965 21.2435 111.025 49.7159 107.102 61.2058Z" fill="url(#paint28_radial_1_36774)"/>
<path fill-rule="evenodd" clip-rule="evenodd" d="M93.2583 69.3873L92.922 73.1986C75.7723 77.122 49.9356 78.0187 34.2991 67.818C27.4056 63.278 30.9925 50.7793 34.8035 49.3781C46.8532 44.8943 82.6658 61.5966 93.2583 69.3873Z" fill="url(#paint29_linear_1_36774)"/>
<path fill-rule="evenodd" clip-rule="evenodd" d="M46.6289 49.376C55.9323 63.5001 68.1501 70.9545 85.1317 74.7097C87.8779 74.3174 90.456 73.813 92.9219 73.2525L93.2582 69.4412C85.1877 63.4441 62.3215 52.2905 46.6289 49.376Z" fill="url(#paint30_radial_1_36774)"/>
<path fill-rule="evenodd" clip-rule="evenodd" d="M117.414 68.9398L118.143 70.7894C132.098 71.4059 149.191 70.5092 164.94 64.5681C170.096 62.6064 178.167 59.3556 175.981 53.0221C174.636 49.2109 170.937 44.8952 169.087 44.671C157.654 43.4379 127.166 61.037 117.414 68.9398Z" fill="url(#paint31_linear_1_36774)"/>
<path fill-rule="evenodd" clip-rule="evenodd" d="M167.91 47.6407C166.341 45.8472 164.827 45.4549 162.698 45.3428C148.911 48.5375 125.652 62.2133 117.357 68.939C130.304 67.4818 151.825 63.7266 164.827 57.1129C167.461 55.7677 169.479 54.2544 169.871 52.3488C170.096 51.1157 169.591 49.6024 167.91 47.6407Z" fill="url(#paint32_radial_1_36774)"/>
<path fill-rule="evenodd" clip-rule="evenodd" d="M34.8038 49.3767C40.016 47.415 49.7678 49.4888 60.024 53.0759C57.7822 50.4977 57.2778 46.0138 60.1361 41.642C64.2274 35.4207 71.4572 34.9163 77.0056 36.8779C69.6637 31.3292 62.0977 26.7332 55.9888 25.332C53.1865 25.8365 51.5612 26.2848 48.815 28.3026C41.9776 33.2348 34.3555 44.5005 32.0576 50.946C31.6093 52.2351 31.273 53.6364 31.0488 55.0376C31.8335 52.2351 33.2906 49.9372 34.8038 49.3767Z" fill="url(#paint33_radial_1_36774)"/>
<path fill-rule="evenodd" clip-rule="evenodd" d="M149.304 23.8737C146.838 23.089 144.372 23.2011 141.01 24.0419C136.638 26.1157 131.538 30.0951 126.662 34.8592C129.464 32.8414 132.211 32.2249 137.647 33.0096C144.148 34.0184 149.248 38.5583 150.369 44.4994C150.93 47.7502 149.921 49.2635 148.071 50.7208C156.478 46.8535 164.38 44.1632 169.088 44.7236C170.377 44.8918 172.563 46.9656 174.244 49.5438C170.041 40.52 160.177 27.2366 149.304 23.8737Z" fill="url(#paint34_radial_1_36774)"/>
<path opacity="0.5" fill-rule="evenodd" clip-rule="evenodd" d="M115.173 50.7827C115.398 49.5496 115.846 48.3166 116.35 47.1396C116.743 46.2988 117.191 45.5142 117.639 44.7295C116.967 45.5702 116.294 46.4109 115.622 47.2517C115.117 47.9242 114.613 48.5968 114.109 49.2694C111.138 53.3049 108.84 57.0601 107.607 59.9746C109.065 63.1133 114.109 66.7004 118.648 67.9895C121.114 66.1399 124.421 63.898 128.232 61.4879C129.857 60.479 131.595 59.4702 133.332 58.4052C130.754 59.3581 128.288 60.0306 125.71 60.0306C120.105 60.0867 113.997 57.3964 115.173 50.7827Z" fill="url(#paint35_radial_1_36774)"/>
<path opacity="0.5" fill-rule="evenodd" clip-rule="evenodd" d="M92.587 53.8649C92.3067 57.4519 86.9825 60.8148 83.6198 60.8709C80.8175 60.9269 77.7351 59.9741 75.0449 59.1894C81.0417 61.9918 86.4781 64.9063 90.2891 67.3164C95.3331 66.4757 99.4805 63.5051 101.106 59.7499C98.7519 56.8354 95.2211 52.9681 91.0177 48.9326C92.0265 50.502 92.699 52.1834 92.587 53.8649Z" fill="url(#paint36_radial_1_36774)"/>
<path d="M88.6633 70.6771C88.2709 68.7154 91.2974 66.1933 94.7721 63.8392C98.9195 60.9808 102.562 59.1872 104.3 59.4114C108.783 59.8598 124.868 69.7803 120.721 75.3291C117.694 79.3646 107.943 79.7009 103.179 79.3085C98.6392 78.9723 89.6721 76.0017 88.6633 70.6771Z" fill="#C45800"/>
<path fill-rule="evenodd" clip-rule="evenodd" d="M92.5307 72.1917C94.8846 74.2094 98.5275 75.3304 102.451 75.8348C106.486 76.3392 110.745 76.1151 114.388 75.4985C120.721 74.3776 121.338 70.9586 118.704 68.0441C115.621 64.6812 110.297 61.1502 106.542 59.4127C104.917 58.6841 103.235 58.6841 101.61 59.4688C98.7517 60.926 95.2208 63.1679 92.7549 65.0736C89.224 67.932 89.1119 69.2211 92.5307 72.1917Z" fill="url(#paint37_radial_1_36774)"/>
<path fill-rule="evenodd" clip-rule="evenodd" d="M116.462 65.9116C113.435 63.3336 109.512 60.8676 106.598 59.4665C104.973 58.6818 103.235 58.7379 101.666 59.5225C98.9197 60.9236 95.6691 62.9973 93.2031 64.7907C93.2031 71.2359 117.863 72.5249 117.078 67.0325C117.022 66.5842 116.798 66.2479 116.462 65.9116Z" fill="url(#paint38_radial_1_36774)"/>
<defs>
<radialGradient id="paint0_radial_1_36774" cx="0" cy="0" r="1" gradientUnits="userSpaceOnUse" gradientTransform="translate(3.71577 119.589) scale(143.792 143.801)">
<stop stop-color="#FF6163"/>
<stop offset="1" stop-color="#8F0000"/>
</radialGradient>
<radialGradient id="paint1_radial_1_36774" cx="0" cy="0" r="1" gradientUnits="userSpaceOnUse" gradientTransform="translate(32.4513 14.0476) scale(256.429 256.444)">
<stop stop-color="#E60E10"/>
<stop offset="1" stop-color="#730000"/>
</radialGradient>
<radialGradient id="paint2_radial_1_36774" cx="0" cy="0" r="1" gradientUnits="userSpaceOnUse" gradientTransform="translate(68.9623 160.979) scale(84.0398 84.0448)">
<stop offset="0.539" stop-color="white"/>
<stop offset="0.583" stop-color="#F9F5F6"/>
<stop offset="0.6583" stop-color="#EADADF"/>
<stop offset="0.7556" stop-color="#D1ADB8"/>
<stop offset="0.8712" stop-color="#AE7083"/>
<stop offset="1" stop-color="#822341"/>
</radialGradient>
<radialGradient id="paint3_radial_1_36774" cx="0" cy="0" r="1" gradientUnits="userSpaceOnUse" gradientTransform="translate(92.3565 110.29) scale(171.109 171.12)">
<stop offset="0.539" stop-color="white"/>
<stop offset="0.583" stop-color="#F9F5F6"/>
<stop offset="0.6583" stop-color="#EADADF"/>
<stop offset="0.7556" stop-color="#D1ADB8"/>
<stop offset="0.8712" stop-color="#AE7083"/>
<stop offset="1" stop-color="#822341"/>
</radialGradient>
<radialGradient id="paint4_radial_1_36774" cx="0" cy="0" r="1" gradientUnits="userSpaceOnUse" gradientTransform="translate(-14.5472 219.191) scale(132.677 132.684)">
<stop offset="0.539" stop-color="white"/>
<stop offset="0.5783" stop-color="#FAF6F5"/>
<stop offset="0.6455" stop-color="#EDDEDA"/>
<stop offset="0.7325" stop-color="#D7B7AD"/>
<stop offset="0.8359" stop-color="#B98270"/>
<stop offset="0.9519" stop-color="#933E22"/>
<stop offset="1" stop-color="#822000"/>
</radialGradient>
<radialGradient id="paint5_radial_1_36774" cx="0" cy="0" r="1" gradientUnits="userSpaceOnUse" gradientTransform="translate(155.763 216.436) scale(120.401 120.408)">
<stop offset="0.539" stop-color="white"/>
<stop offset="0.5783" stop-color="#FAF6F5"/>
<stop offset="0.6455" stop-color="#EDDEDA"/>
<stop offset="0.7325" stop-color="#D7B7AD"/>
<stop offset="0.8359" stop-color="#B98270"/>
<stop offset="0.9519" stop-color="#933E22"/>
<stop offset="1" stop-color="#822000"/>
</radialGradient>
<radialGradient id="paint6_radial_1_36774" cx="0" cy="0" r="1" gradientUnits="userSpaceOnUse" gradientTransform="translate(17.5106 67.0707) scale(159.302 159.312)">
<stop stop-color="#FF6163"/>
<stop offset="1" stop-color="#8F0000"/>
</radialGradient>
<radialGradient id="paint7_radial_1_36774" cx="0" cy="0" r="1" gradientUnits="userSpaceOnUse" gradientTransform="translate(102.052 -50.9856) scale(205.904 205.916)">
<stop stop-color="#E60E10"/>
<stop offset="1" stop-color="#730000"/>
</radialGradient>
<radialGradient id="paint8_radial_1_36774" cx="0" cy="0" r="1" gradientUnits="userSpaceOnUse" gradientTransform="translate(54.1432 130.719) scale(314.026 314.045)">
<stop stop-color="#F23559"/>
<stop offset="1" stop-color="#C40000"/>
</radialGradient>
<radialGradient id="paint9_radial_1_36774" cx="0" cy="0" r="1" gradientUnits="userSpaceOnUse" gradientTransform="translate(200.899 137.793) scale(188.535 188.547)">
<stop/>
<stop offset="1" stop-color="#FF9A8A"/>
</radialGradient>
<radialGradient id="paint10_radial_1_36774" cx="0" cy="0" r="1" gradientUnits="userSpaceOnUse" gradientTransform="translate(50.1797 195.104) scale(221.125 221.138)">
<stop/>
<stop offset="1" stop-color="#FF9A8A"/>
</radialGradient>
<radialGradient id="paint11_radial_1_36774" cx="0" cy="0" r="1" gradientUnits="userSpaceOnUse" gradientTransform="translate(128.727 -30.5667) scale(175.696 175.706)">
<stop/>
<stop offset="1" stop-color="#CA9E67"/>
</radialGradient>
<radialGradient id="paint12_radial_1_36774" cx="0" cy="0" r="1" gradientUnits="userSpaceOnUse" gradientTransform="translate(42.4222 54.8157) scale(211.888 211.9)">
<stop stop-color="#FFCC00"/>
<stop offset="1" stop-color="#B35100"/>
</radialGradient>
<radialGradient id="paint13_radial_1_36774" cx="0" cy="0" r="1" gradientUnits="userSpaceOnUse" gradientTransform="translate(10.8631 26.7338) scale(193.255 193.267)">
<stop stop-color="#FCF80D"/>
<stop offset="1" stop-color="#F78A0C"/>
</radialGradient>
<radialGradient id="paint14_radial_1_36774" cx="0" cy="0" r="1" gradientUnits="userSpaceOnUse" gradientTransform="translate(112.188 68.2487) scale(115.573 115.58)">
<stop stop-color="#FC9C0D"/>
<stop offset="1" stop-color="#FCF80D"/>
</radialGradient>
<radialGradient id="paint15_radial_1_36774" cx="0" cy="0" r="1" gradientUnits="userSpaceOnUse" gradientTransform="translate(124.243 101.81) scale(32.0963 32.0982)">
<stop stop-color="#B85E16"/>
<stop offset="1" stop-color="white"/>
</radialGradient>
<radialGradient id="paint16_radial_1_36774" cx="0" cy="0" r="1" gradientUnits="userSpaceOnUse" gradientTransform="translate(103.501 72.7804) scale(57.2868 57.2902)">
<stop stop-color="#FC9C0D"/>
<stop offset="1" stop-color="#FCF80D"/>
</radialGradient>
<radialGradient id="paint17_radial_1_36774" cx="0" cy="0" r="1" gradientUnits="userSpaceOnUse" gradientTransform="translate(21.0689 61.8658) scale(48.7741 48.777)">
<stop stop-color="#FFF385"/>
<stop offset="1"/>
</radialGradient>
<radialGradient id="paint18_radial_1_36774" cx="0" cy="0" r="1" gradientUnits="userSpaceOnUse" gradientTransform="translate(139.875 107.466) scale(51.2906 51.2905)">
<stop stop-color="#F24C7C"/>
<stop offset="1"/>
</radialGradient>
<radialGradient id="paint19_radial_1_36774" cx="0" cy="0" r="1" gradientUnits="userSpaceOnUse" gradientTransform="translate(149.532 76.4101) scale(54.8332 54.8331)">
<stop stop-color="#7C0000"/>
<stop offset="1" stop-color="white"/>
</radialGradient>
<radialGradient id="paint20_radial_1_36774" cx="0" cy="0" r="1" gradientUnits="userSpaceOnUse" gradientTransform="translate(147.381 52.556) scale(163.477 163.487)">
<stop stop-color="#B85E16"/>
<stop offset="1" stop-color="white"/>
</radialGradient>
<radialGradient id="paint21_radial_1_36774" cx="0" cy="0" r="1" gradientUnits="userSpaceOnUse" gradientTransform="translate(112.559 61.895) scale(130.19 130.198)">
<stop stop-color="#F78A0C"/>
<stop offset="1" stop-color="#FCDC0D"/>
</radialGradient>
<radialGradient id="paint22_radial_1_36774" cx="0" cy="0" r="1" gradientUnits="userSpaceOnUse" gradientTransform="translate(113.002 30.1079) scale(38.8749 38.8772)">
<stop stop-color="white"/>
<stop offset="1" stop-color="#BA5700"/>
</radialGradient>
<radialGradient id="paint23_radial_1_36774" cx="0" cy="0" r="1" gradientUnits="userSpaceOnUse" gradientTransform="translate(115.628 9.85724) scale(40.8825 40.8849)">
<stop stop-color="#FFF48F"/>
<stop offset="1"/>
</radialGradient>
<radialGradient id="paint24_radial_1_36774" cx="0" cy="0" r="1" gradientUnits="userSpaceOnUse" gradientTransform="translate(101.884 55.5174) scale(71.3798 71.3841)">
<stop stop-color="#F78A0C"/>
<stop offset="1" stop-color="#FCDC0D"/>
</radialGradient>
<radialGradient id="paint25_radial_1_36774" cx="0" cy="0" r="1" gradientUnits="userSpaceOnUse" gradientTransform="translate(81.829 36.2114) scale(36.9358 36.938)">
<stop stop-color="white"/>
<stop offset="1" stop-color="#BA5700"/>
</radialGradient>
<radialGradient id="paint26_radial_1_36774" cx="0" cy="0" r="1" gradientUnits="userSpaceOnUse" gradientTransform="translate(84.8419 9.95861) scale(44.3993 44.4019)">
<stop stop-color="#FFF48F"/>
<stop offset="1"/>
</radialGradient>
<radialGradient id="paint27_radial_1_36774" cx="0" cy="0" r="1" gradientUnits="userSpaceOnUse" gradientTransform="translate(50.7461 35.0413) scale(59.9573 59.9609)">
<stop stop-color="#FCDC0D"/>
<stop offset="1" stop-color="#F78A0C"/>
</radialGradient>
<radialGradient id="paint28_radial_1_36774" cx="0" cy="0" r="1" gradientUnits="userSpaceOnUse" gradientTransform="translate(166.869 28.4132) scale(58.717 58.7205)">
<stop stop-color="#FCDC0D"/>
<stop offset="1" stop-color="#F78A0C"/>
</radialGradient>
<linearGradient id="paint29_linear_1_36774" x1="30.3979" y1="62.3124" x2="93.251" y2="62.3124" gradientUnits="userSpaceOnUse">
<stop stop-color="#D46D17"/>
<stop offset="1" stop-color="#FF9D00"/>
</linearGradient>
<radialGradient id="paint30_radial_1_36774" cx="0" cy="0" r="1" gradientUnits="userSpaceOnUse" gradientTransform="translate(103.173 38.0212) scale(55.4653 55.4686)">
<stop stop-color="#BA5700"/>
<stop offset="1" stop-color="white"/>
</radialGradient>
<linearGradient id="paint31_linear_1_36774" x1="117.396" y1="57.8333" x2="245.821" y2="57.8333" gradientUnits="userSpaceOnUse">
<stop stop-color="#D46D17"/>
<stop offset="1" stop-color="#FF9D00"/>
</linearGradient>
<radialGradient id="paint32_radial_1_36774" cx="0" cy="0" r="1" gradientUnits="userSpaceOnUse" gradientTransform="translate(112.594 71.2919) scale(61.6342 61.6378)">
<stop stop-color="#BA5700"/>
<stop offset="1" stop-color="white"/>
</radialGradient>
<radialGradient id="paint33_radial_1_36774" cx="0" cy="0" r="1" gradientUnits="userSpaceOnUse" gradientTransform="translate(46.868 57.0043) scale(53.2118 53.2149)">
<stop stop-color="#FFF48F"/>
<stop offset="1"/>
</radialGradient>
<radialGradient id="paint34_radial_1_36774" cx="0" cy="0" r="1" gradientUnits="userSpaceOnUse" gradientTransform="translate(128.121 60.1789) scale(60.3692 60.3728)">
<stop stop-color="#FFF48F"/>
<stop offset="1"/>
</radialGradient>
<radialGradient id="paint35_radial_1_36774" cx="0" cy="0" r="1" gradientUnits="userSpaceOnUse" gradientTransform="translate(130.113 46.416) scale(32.172 32.1739)">
<stop stop-color="white"/>
<stop offset="1" stop-color="#BA5700"/>
</radialGradient>
<radialGradient id="paint36_radial_1_36774" cx="0" cy="0" r="1" gradientUnits="userSpaceOnUse" gradientTransform="translate(84.4935 49.108) scale(28.1188 28.1205)">
<stop stop-color="white"/>
<stop offset="1" stop-color="#BA5700"/>
</radialGradient>
<radialGradient id="paint37_radial_1_36774" cx="0" cy="0" r="1" gradientUnits="userSpaceOnUse" gradientTransform="translate(100.992 49.0578) scale(32.5637 32.5657)">
<stop stop-color="#FCDC0D"/>
<stop offset="1" stop-color="#F78A0C"/>
</radialGradient>
<radialGradient id="paint38_radial_1_36774" cx="0" cy="0" r="1" gradientUnits="userSpaceOnUse" gradientTransform="translate(107.367 47.1226) scale(27.8577 27.8576)">
<stop stop-color="#FFF48F"/>
<stop offset="1"/>
</radialGradient>
</defs>
</svg>
