<svg width="20" height="20" viewBox="0 0 20 20" fill="none" xmlns="http://www.w3.org/2000/svg">
<path fill-rule="evenodd" clip-rule="evenodd" d="M9.99998 1.09873e-10C11.3132 -6.15562e-06 12.6136 0.258646 13.8268 0.76119C15.0401 1.26373 16.1425 2.00033 17.0711 2.92891C17.9997 3.8575 18.7363 4.95989 19.2388 6.17315C19.7414 7.3864 20 8.68676 20 9.99998C20 15.5228 15.5228 20 9.99998 20C4.47717 20 0 15.5228 0 9.99998C0 4.47717 4.47717 1.09873e-10 9.99998 1.09873e-10ZM11 11H9C6.5243 11 4.39884 12.4994 3.48211 14.6398C4.93261 16.6737 7.31142 18 9.99998 18C12.6885 18 15.0674 16.6737 16.5179 14.6396C15.6012 12.4994 13.4757 11 11 11ZM9.99998 3C8.34314 3 6.99998 4.34316 6.99998 6C6.99998 7.65684 8.34314 9 9.99998 9C11.6568 9 13 7.65684 13 6C13 4.34316 11.6569 3 9.99998 3Z" fill="#0C54EA"/>
</svg>
