<svg width="24" height="24" viewBox="0 0 24 24" fill="none" xmlns="http://www.w3.org/2000/svg">
<path fill-rule="evenodd" clip-rule="evenodd" d="M20.4548 4.93349V21.2461H17.3506V4.93349H16.559L18.9029 2L21.2466 4.93349H20.4549H20.4548ZM11.5067 6.1232L9.98314 6.99045L10.3368 5.27319L9.04178 4.09226L10.7835 3.8975L11.5066 2.30042L12.2299 3.89734L13.9717 4.09226L12.6767 5.27307L13.0302 6.99065L11.5067 6.1232ZM5.93644 5.27319L6.29008 6.99077L4.76648 6.12352L3.24255 6.99077L3.5962 5.27351L2.30119 4.09258L4.04292 3.89751L4.76601 2.30058L5.48926 3.89751L7.23099 4.09243L5.93644 5.27319ZM5.10428 21.2461H2V15.2425H5.10428V21.2461ZM10.2213 21.2461H7.11704V11.8198H10.2213L10.2215 21.2461H10.2213ZM15.338 21.2461H12.2338V8.39749H15.3381V21.2461H15.338Z" fill="#0C54EA"/>
</svg>
