<svg width="98" height="82" viewBox="0 0 98 82" fill="none" xmlns="http://www.w3.org/2000/svg">
<path d="M84.6556 81.5H13.3439C3.3627 81.5 -2.67222 70.4494 2.71368 62.034L38.3696 6.3212C43.3375 -1.4404 54.663 -1.4404 59.6309 6.3212L95.2868 62.034C100.672 70.4494 94.6378 81.5 84.6556 81.5Z" fill="#F6465D"/>
<path d="M48.9998 7.26312C51.0343 7.26312 52.7589 8.20795 53.8571 9.92368L89.6331 65.8399C90.1906 66.7132 90.5034 67.7206 90.5388 68.7565C90.5741 69.7924 90.3308 70.8189 89.8342 71.7282C89.3376 72.6376 88.606 73.3966 87.7161 73.9255C86.8262 74.4544 85.8106 74.734 84.7758 74.7348H13.2248C12.1898 74.7343 11.1741 74.455 10.284 73.9261C9.39386 73.3972 8.66213 72.6383 8.16547 71.7288C7.66881 70.8193 7.4255 69.7927 7.46105 68.7566C7.49659 67.7205 7.80967 66.7131 8.36748 65.8399L44.1425 9.92368C45.2406 8.20795 46.9663 7.26312 48.9998 7.26312ZM48.9998 4.95934C47.6453 4.94743 46.3103 5.28316 45.1221 5.93452C43.9338 6.58589 42.9318 7.53119 42.2116 8.68037L6.43167 64.5966C5.65033 65.8179 5.21147 67.2274 5.16113 68.6771C5.11079 70.1268 5.45082 71.5633 6.14555 72.8361C6.84029 74.1088 7.86413 75.1709 9.10969 75.9108C10.3553 76.6507 11.7766 77.0413 13.2248 77.0415H84.7758C86.224 77.0413 87.6453 76.6507 88.8909 75.9108C90.1365 75.1709 91.1603 74.1088 91.855 72.8361C92.5498 71.5633 92.8898 70.1268 92.8394 68.6771C92.7891 67.2274 92.3503 65.8179 91.5689 64.5966L55.7939 8.68037C55.0731 7.5304 54.0702 6.5846 52.8808 5.93319C51.6914 5.28179 50.3553 4.94651 48.9998 4.95934Z" fill="white"/>
<path d="M49.5413 54.747H48.4629C48.2361 54.7469 48.0177 54.6585 47.8515 54.4996C47.6854 54.3406 47.5837 54.1229 47.5669 53.89L45.2866 22.3007C45.2776 22.1737 45.2941 22.0461 45.3351 21.926C45.376 21.8059 45.4406 21.6958 45.5248 21.6025C45.609 21.5092 45.7109 21.4348 45.8242 21.3839C45.9376 21.333 46.0599 21.3067 46.1835 21.3066H51.8169C51.9405 21.3066 52.0628 21.3328 52.1762 21.3836C52.2895 21.4345 52.3915 21.5089 52.4756 21.6022C52.5597 21.6956 52.6242 21.8058 52.665 21.9259C52.7058 22.0461 52.7221 22.1737 52.7128 22.3007L50.4325 53.89C50.4158 54.122 50.3148 54.3391 50.1496 54.4979C49.9845 54.6567 49.7673 54.7457 49.5413 54.747Z" fill="white"/>
<path d="M48.9998 67.3804C51.0519 67.3804 52.7154 65.7169 52.7154 63.6648C52.7154 61.6128 51.0519 59.9492 48.9998 59.9492C46.9477 59.9492 45.2842 61.6128 45.2842 63.6648C45.2842 65.7169 46.9477 67.3804 48.9998 67.3804Z" fill="white"/>
</svg>
