<svg width="72" height="76" viewBox="0 0 72 76" fill="none" xmlns="http://www.w3.org/2000/svg">
<path d="M51.228 72.9505C46.893 74.3418 41.661 75.1553 36.0253 75.1553C30.3896 75.1553 25.1592 74.3422 20.8242 72.9505C22.1332 70.3409 23.2101 68.6805 23.2101 68.6805C23.2101 68.6805 26.9653 60.1094 36.0257 60.1094C45.0861 60.1094 48.8417 68.6805 48.8417 68.6805C48.8417 68.6805 49.919 70.3409 51.228 72.9505Z" fill="#E0E0E0"/>
<path d="M16.6739 23.3214C21.7424 18.4381 21.1878 14.6995 19.6704 12.312C17.7541 9.29617 14.5421 5.94791 9.91204 6.51436C3.31439 7.32148 -1.03243 13.0505 1.25108 19.2515C2.61559 22.9571 5.14293 24.996 7.45835 26.117C10.0594 27.3764 12.918 26.9399 16.6739 23.3214Z" fill="#E0E0E0"/>
<g opacity="0.2">
<path d="M6.38437 13.5781C2.00406 16.7609 4.59168 24.4256 10.2061 24.7293C14.3694 24.9547 20.8244 16.9716 20.1658 15.9782C17.6341 12.1604 14.7936 16.4477 11.4737 19.4659C8.67262 22.0125 9.22921 11.5108 6.38437 13.5781Z" fill="#E0E0E0"/>
</g>
<g opacity="0.3">
<path d="M21.2702 15.3059C19.3392 11.9782 15.8275 7.80742 10.5707 8.45147C5.07167 9.12585 1.0644 13.0599 0.857992 17.9117C-0.391893 12.2468 3.79185 7.26304 9.91089 6.51421C16.2529 5.73938 19.9332 12.3063 21.2702 15.3059Z" fill="#E0E0E0"/>
</g>
<path d="M20.9136 15.2884C18.5714 11.625 15.7786 7.1628 10.974 7.13326C6.60827 7.15374 2.02312 10.1624 1.37277 14.6743C0.836658 18.1868 2.71681 21.875 5.41274 24.0703C6.80326 25.2008 8.46872 25.9895 10.2157 26.4551C10.558 26.5437 10.7633 26.8947 10.6719 27.2362C10.5813 27.5761 10.2323 27.7786 9.89192 27.688C7.98933 27.1811 6.1596 26.3188 4.61113 25.0614C3.83748 24.4351 3.13829 23.7154 2.5293 22.926C0.755511 20.529 -0.37226 17.49 0.113041 14.4789C0.769299 9.86268 5.00111 6.50103 9.46453 5.8944C14.273 5.07034 18.1653 8.38236 20.3834 12.3424C20.8478 13.1964 21.2378 14.0878 21.4934 15.0245C21.5407 15.1967 21.4395 15.3739 21.2673 15.4212C21.1303 15.4594 20.9884 15.4011 20.9136 15.2884Z" fill="#E0E0E0"/>
<path d="M5.48623 17.7817C5.54059 18.1957 5.63789 18.5751 5.773 18.9229C6.71051 21.3793 9.38675 22.3082 10.5307 22.3882C12.7358 22.5422 15.4266 20.6782 15.8513 18.4372C16.1538 16.8367 15.6823 12.4572 11.365 11.7501C9.98668 11.5244 8.73641 11.7501 7.74138 12.3386L7.73862 12.3394C6.10034 13.3073 5.15653 15.2556 5.48623 17.7817Z" fill="#E0E0E0"/>
<path d="M5.77246 18.9229C6.70997 21.3793 9.38621 22.3082 10.5301 22.3882C12.7353 22.5422 15.4261 20.6782 15.8507 18.4372C16.1532 16.8367 15.6817 12.4572 11.3644 11.7501C9.98614 11.5244 8.73587 11.7501 7.74084 12.3386C12.2953 11.2861 13.6334 16.0603 11.069 18.6791C8.89737 20.8968 6.81554 20.2122 5.77246 18.9229Z" fill="#E0E0E0"/>
<path d="M10.7956 23.0348C10.6916 23.0348 10.5884 23.0313 10.4852 23.0242C8.85203 22.9099 5.32651 21.4978 4.85302 17.8635C4.5702 15.6923 5.14058 13.7932 6.4598 12.517C7.72268 11.2946 9.50159 10.7991 11.4672 11.1213C13.1378 11.3951 14.4416 12.1861 15.3425 13.473C16.6472 15.3366 16.6547 17.6126 16.4762 18.5556C16.026 20.9372 13.3221 23.0348 10.7956 23.0348ZM10.3261 12.3007C9.15022 12.3007 8.11423 12.6895 7.34649 13.4328C6.32429 14.4219 5.88783 15.9369 6.11748 17.6989C6.52203 20.8029 9.78796 21.6975 10.5746 21.7526C12.5296 21.8897 14.8765 20.1565 15.224 18.3185C15.391 17.4346 15.2827 15.6096 14.2987 14.2037C13.6022 13.2091 12.5804 12.5949 11.2616 12.3787C10.9417 12.3267 10.629 12.3007 10.3261 12.3007Z" fill="#E0E0E0"/>
<path d="M55.3411 23.3214C50.2727 18.4381 50.8273 14.6995 52.3446 12.312C54.261 9.29617 57.473 5.94791 62.103 6.51436C68.7007 7.32148 73.0475 13.0505 70.764 19.2515C69.3995 22.9571 66.8721 24.996 64.5567 26.117C61.9561 27.3764 59.0971 26.9399 55.3411 23.3214Z" fill="#E0E0E0"/>
<g opacity="0.2">
<path d="M65.6309 13.5781C70.0112 16.7609 67.4236 24.4256 61.8091 24.7293C57.6459 24.9547 51.1908 16.9716 51.8494 15.9782C54.3811 12.1604 57.2216 16.4477 60.5415 19.4659C63.343 22.0125 62.786 11.5108 65.6309 13.5781Z" fill="#E0E0E0"/>
</g>
<g opacity="0.3">
<path d="M50.7451 15.3059C52.6761 11.9782 56.1878 7.80742 61.4446 8.45147C66.9436 9.12585 70.9509 13.0599 71.1573 17.9117C72.4072 12.2468 68.2234 7.26304 62.1044 6.51421C55.7624 5.73938 52.0821 12.3063 50.7451 15.3059Z" fill="#E0E0E0"/>
</g>
<path d="M50.5212 15.0247C51.4721 11.7765 53.7438 8.7568 56.6454 6.98735C59.7742 5.09341 63.6956 5.61495 66.7819 7.34108C72.7682 10.8024 73.5115 17.5765 69.4857 22.9262C67.6792 25.3082 64.9857 26.9445 62.1231 27.6882C61.3038 27.8801 60.9878 26.6964 61.795 26.4565C64.4176 25.7703 66.8268 24.3132 68.471 22.1546C71.28 18.4096 71.7488 13.5598 68.2571 10.078C66.3876 8.21911 63.6641 7.17563 61.041 7.13309C58.3376 7.13979 56.0064 8.70835 54.2764 10.7591C53.1068 12.1531 52.1421 13.7169 51.1014 15.2883C50.9088 15.59 50.4211 15.3726 50.5212 15.0247Z" fill="#E0E0E0"/>
<path d="M66.5294 17.7817C66.475 18.1957 66.3777 18.5751 66.2426 18.9229C65.3051 21.3793 62.6288 22.3082 61.4849 22.3882C59.2798 22.5422 56.589 20.6782 56.1643 18.4372C55.8618 16.8367 56.3333 12.4572 60.6506 11.7501C62.0289 11.5244 63.2792 11.7501 64.2742 12.3386L64.277 12.3394C65.9157 13.3073 66.8591 15.2556 66.5294 17.7817Z" fill="#E0E0E0"/>
<path d="M66.2426 18.9229C65.3051 21.3793 62.6288 22.3082 61.4849 22.3882C59.2798 22.5422 56.589 20.6782 56.1643 18.4372C55.8618 16.8367 56.3333 12.4572 60.6506 11.7501C62.0289 11.5244 63.2792 11.7501 64.2742 12.3386C59.7198 11.2861 58.3817 16.0603 60.9461 18.6791C63.1177 20.8968 65.1999 20.2122 66.2426 18.9229Z" fill="#E0E0E0"/>
<path d="M61.2197 23.0352C58.6931 23.0352 55.9893 20.9376 55.539 18.5556C55.3606 17.6122 55.3681 15.3362 56.6727 13.4725C57.5736 12.186 58.8775 11.3947 60.548 11.1213C62.5145 10.7991 64.2926 11.295 65.5555 12.5169C66.8747 13.7932 67.4451 15.6922 67.1622 17.8635C66.6888 21.4977 63.1632 22.9099 61.5301 23.0241C61.4269 23.0316 61.3233 23.0352 61.2197 23.0352ZM56.7917 18.3193C57.1391 20.1572 59.4872 21.8916 61.441 21.7534C62.2277 21.6982 65.494 20.8037 65.8982 17.6996C66.1278 15.9377 65.6914 14.4227 64.6692 13.4336C63.7029 12.4988 62.3128 12.1246 60.7541 12.3798C59.4352 12.5961 58.4134 13.2098 57.717 14.2044C56.733 15.6095 56.6247 17.4349 56.7917 18.3193Z" fill="#E0E0E0"/>
<path d="M40.2609 64.9034C51.435 64.0841 61.9978 60.8863 65.5351 53.7557C68.2011 48.3816 66.2536 42.851 66.2528 42.8428C66.1855 42.5194 67.5275 19.9438 50.1048 12.0455C45.1923 9.8187 40.5768 9.22389 36.0251 9.16992C31.4739 9.22349 26.858 9.8183 21.9455 12.0455C4.52275 19.9438 5.86481 42.5194 5.79745 42.8428C5.79666 42.851 3.84916 48.3816 6.51516 53.7557C10.0529 60.8863 20.6157 64.0841 31.7894 64.9034H40.2609Z" fill="#E0E0E0"/>
<path d="M65.7919 53.2078C65.712 53.3906 65.6257 53.5737 65.5359 53.7565C61.9974 60.8871 51.4346 64.0845 40.2617 64.9046C40.2617 64.9046 37.9269 65.2265 36.0255 65.2265C34.1241 65.2265 31.791 64.9046 31.791 64.9046C20.6164 64.0849 10.0537 60.8871 6.51515 53.7565C6.42534 53.5737 6.33907 53.3906 6.2591 53.2078C3.97914 48.0129 5.79665 42.8514 5.79862 42.8432C5.86519 42.5205 4.52313 19.9438 21.9467 12.0467C26.8588 9.8183 31.475 9.22468 36.0263 9.16992C40.5776 9.22468 45.1923 9.8183 50.1059 12.0467C67.5279 19.9438 66.1858 42.5205 66.2524 42.8432C66.254 42.8514 68.0715 48.0129 65.7919 53.2078Z" fill="#E0E0E0"/>
<g opacity="0.2">
<path d="M65.1049 54.543C61.2044 61.1241 51.0163 64.1174 40.2625 64.906C40.2625 64.906 37.9269 65.2275 36.0251 65.2275C34.1233 65.2275 31.7914 64.906 31.7914 64.906C21.036 64.1178 10.8478 61.1241 6.94531 54.543C12.5267 59.1234 20.1497 62.4417 36.0251 62.4417C51.9006 62.4417 59.5252 59.1234 65.1049 54.543Z" fill="#E0E0E0"/>
</g>
<path d="M40.2604 64.9035C46.6323 63.4582 53.4064 62.7043 59.0957 59.3332C65.0355 55.9046 67.3478 50.2645 65.728 43.6251C65.6725 43.3829 65.5712 43.1445 65.5299 42.8991L65.5429 42.9901C65.5311 42.9094 65.5248 42.8093 65.5248 42.7416C65.5271 42.5682 65.5259 42.2192 65.5271 42.0396C65.4468 34.2484 63.6474 26.1295 58.8322 19.8568C53.5471 12.8231 44.5824 9.84592 36.0254 9.86207C29.7795 9.87231 23.3505 11.3073 18.204 14.9617C9.68251 20.9933 6.46227 32.0055 6.44848 42.0396C6.44415 42.3244 6.47173 42.6904 6.43864 42.9756L6.45046 42.8936C6.44415 42.935 6.43588 42.9763 6.42564 43.0173L6.40909 43.0784C5.05285 47.5981 5.85368 52.9025 9.21257 56.3524C15.1429 62.267 23.9713 63.1742 31.7905 64.9031C30.1124 65.0165 28.4328 64.9708 26.7586 64.8318C20.3252 64.2043 12.772 62.1205 8.17185 57.3349C5.72881 54.8067 4.45883 51.2643 4.44583 47.7801C4.43323 46.069 4.6487 44.3531 5.15173 42.716L5.15488 42.7061C5.14857 42.7329 5.14188 42.7628 5.14661 42.7912L5.15842 42.7093C5.14975 42.7187 5.1466 42.7455 5.14778 42.7428L5.14739 42.6455C5.12849 40.5494 5.25178 38.4404 5.51688 36.3626C6.86643 25.2085 12.2607 14.9435 23.2225 10.7846C29.3273 8.39672 36.0908 7.98665 42.5317 9.00925C50.3245 10.2969 57.1431 14.2262 61.4178 20.9779C65.3495 27.2309 66.9641 34.7172 66.983 42.0416C66.9893 42.2318 66.9736 42.5564 66.9767 42.7431C66.9779 42.7424 66.974 42.7089 66.9641 42.6951L66.9771 42.7861C66.9807 42.7522 66.9751 42.7172 66.9653 42.6848C67.0145 42.8621 67.0862 43.0776 67.1288 43.2588C68.3806 48.0964 67.4242 53.6628 63.8561 57.3116C58.3938 62.9324 47.8822 65.4203 40.2604 64.9035Z" fill="#E0E0E0"/>
<path d="M48.263 12.3957C47.2007 10.029 52.5626 10.0562 52.0127 7.87749C51.6129 6.29318 45.1287 3.68547 40.6487 8.27535C40.6487 8.27535 40.5179 7.01719 40.6073 5.3533C40.7145 3.35931 40.4549 1.72733 39.6001 1.51186C37.8681 1.0758 35.1371 4.75495 29.421 8.37698C27.2104 9.77773 22.9293 11.8623 20.9365 12.5615L36.4484 22.4113L48.263 12.3957Z" fill="#E0E0E0"/>
<g opacity="0.4">
<path d="M51.4335 9.23058C49.8208 7.74237 44.4139 6.29672 40.5213 10.2851C40.5213 10.2851 40.3917 9.02732 40.4811 7.36304C40.5875 5.36905 40.3275 3.73707 39.4739 3.5216C37.7414 3.08554 35.0093 6.76547 29.2944 10.3871C27.6734 11.4129 24.9409 12.8085 22.8118 13.7539L20.9355 12.5615C22.9284 11.8619 27.209 9.77733 29.4196 8.37736C35.1361 4.75573 37.8667 1.0758 39.5991 1.51186C40.4543 1.72772 40.7143 3.35931 40.6064 5.35329C40.517 7.01758 40.6481 8.27573 40.6481 8.27573C45.1273 3.68547 51.6123 6.29396 52.0117 7.87749C52.1579 8.45457 51.8876 8.87606 51.4335 9.23058Z" fill="#E0E0E0"/>
</g>
<path d="M47.9724 12.526C47.2901 11.5227 48.0106 10.495 48.9008 9.9597C49.5653 9.51419 50.3299 9.21757 50.9413 8.78584C51.2084 8.59479 51.4735 8.33639 51.3537 8.02992C50.9362 7.40636 50.0487 7.05223 49.3262 6.80288C46.4893 5.8701 43.2139 6.58072 41.1045 8.72045C40.8579 8.97925 40.4431 8.98437 40.1926 8.72793C40.0862 8.61961 40.0267 8.48174 40.0137 8.34151C39.955 7.69431 39.9381 7.08768 39.9381 6.46136C39.9401 5.32374 40.0945 4.08016 39.8574 2.97799C39.7719 2.64041 39.7041 2.3048 39.4579 2.13502C39.0435 2.0389 38.5259 2.36349 38.1336 2.60732C36.6671 3.60353 35.3388 4.84632 33.9152 5.94652C31.0601 8.26391 27.8761 10.1614 24.542 11.7063C23.4229 12.233 22.3211 12.7391 21.1465 13.1622C20.8148 13.28 20.4505 13.1063 20.3327 12.7746C20.2145 12.4414 20.3906 12.075 20.7246 11.9592C21.8268 11.5625 22.927 11.0579 23.9957 10.5545C26.15 9.52206 28.2736 8.43093 30.2419 7.07311C31.2275 6.40267 32.1851 5.68969 33.1246 4.94598C34.5711 3.82884 35.9021 2.57581 37.4419 1.53588C39.0617 0.427407 40.6791 0.534157 41.1041 2.71131C41.3743 3.98877 41.2223 5.19533 41.2128 6.46412C41.2116 7.04711 41.2309 7.65058 41.2818 8.20836L40.1918 7.82903C41.9337 5.90989 44.6107 4.83017 47.2133 4.99364C48.9772 5.1126 50.7853 5.57151 52.123 6.81549C52.8265 7.45757 52.9364 8.61331 52.2703 9.33732C51.3285 10.4292 49.6926 10.5872 48.7003 11.494C48.4974 11.7169 48.4927 11.9805 48.5577 12.2877C48.6243 12.632 48.1626 12.8203 47.9724 12.526Z" fill="#E0E0E0"/>
<path d="M24.3016 48.9742C25.9596 48.3834 29.5871 46.4748 29.9204 40.747C30.2536 35.0124 27.5057 32.7316 23.6517 32.645C19.7976 32.5583 14.7165 34.832 11.7768 38.7018C9.48616 41.7168 9.04695 46.1113 10.5742 48.0139C13.382 51.513 22.696 49.5466 24.3016 48.9742Z" fill="#E0E0E0"/>
<path d="M47.7487 48.9742C46.0907 48.3834 42.4631 46.4748 42.1299 40.747C41.7966 35.0124 44.5446 32.7316 48.3986 32.645C52.2527 32.5583 57.3337 34.832 60.2735 38.7018C62.5641 41.7168 63.0033 46.1113 61.4761 48.0139C58.6683 51.513 49.3543 49.5466 47.7487 48.9742Z" fill="#E0E0E0"/>
<path d="M19.838 25.8042C19.6403 25.3303 22.7691 20.8302 25.9377 22.6363C26.8922 23.1803 27.0947 24.8572 25.8215 25.5584C23.3832 26.9004 20.0357 26.278 19.838 25.8042Z" fill="#E0E0E0"/>
<path d="M52.1751 25.8042C52.3729 25.3303 49.244 20.8302 46.0754 22.6363C45.121 23.1803 44.9185 24.8572 46.1916 25.5584C48.6299 26.9004 51.9774 26.278 52.1751 25.8042Z" fill="#E0E0E0"/>
<path d="M23.3886 46.6661C25.8911 46.6661 27.9198 44.3576 27.9198 41.5098C27.9198 38.6621 25.8911 36.3535 23.3886 36.3535C20.8861 36.3535 18.8574 38.6621 18.8574 41.5098C18.8574 44.3576 20.8861 46.6661 23.3886 46.6661Z" fill="#E0E0E0"/>
<path d="M25.2263 42.2425C25.9918 42.0761 26.4357 41.1285 26.2177 40.1262C25.9998 39.1238 25.2025 38.4462 24.4369 38.6126C23.6714 38.7791 23.2275 39.7266 23.4455 40.729C23.6634 41.7314 24.4607 42.409 25.2263 42.2425Z" fill="#E0E0E0"/>
<g opacity="0.35">
<path d="M22.392 44.9558C22.8949 44.6943 22.9691 43.8408 22.5577 43.0497C22.1462 42.2585 21.4049 41.8292 20.902 42.0908C20.399 42.3524 20.3248 43.2058 20.7362 43.997C21.1477 44.7881 21.889 45.2174 22.392 44.9558Z" fill="#E0E0E0"/>
</g>
<path d="M48.664 46.6661C51.1665 46.6661 53.1952 44.3576 53.1952 41.5098C53.1952 38.6621 51.1665 36.3535 48.664 36.3535C46.1615 36.3535 44.1328 38.6621 44.1328 41.5098C44.1328 44.3576 46.1615 46.6661 48.664 46.6661Z" fill="#E0E0E0"/>
<path d="M48.6093 40.7195C48.8273 39.7172 48.3834 38.7696 47.6179 38.6032C46.8523 38.4367 46.055 39.1143 45.8371 40.1167C45.6191 41.1191 46.063 42.0666 46.8285 42.2331C47.5941 42.3995 48.3914 41.7219 48.6093 40.7195Z" fill="#E0E0E0"/>
<g opacity="0.35">
<path d="M51.3165 43.9933C51.7279 43.2021 51.6537 42.3487 51.1507 42.0871C50.6477 41.8255 49.9064 42.2548 49.495 43.046C49.0835 43.8372 49.1578 44.6906 49.6607 44.9522C50.1637 45.2137 50.905 44.7844 51.3165 43.9933Z" fill="#E0E0E0"/>
</g>
<path d="M36.3012 47.7962L36.2314 47.8076V47.7852L36.3012 47.7962Z" fill="#E0E0E0"/>
<path d="M36.3685 47.7852V47.8076L36.3008 47.7962L36.3685 47.7852Z" fill="#E0E0E0"/>
<path d="M40.8689 47.8102C39.7774 49.1306 39.4788 50.4112 39.0305 51.4708C38.9446 51.6777 38.8517 51.8754 38.7453 52.0633C37.872 53.6208 36.2783 53.6921 36.0261 53.6819C35.6842 53.6673 34.1673 53.6192 33.3085 52.0633C33.2038 51.8726 33.1104 51.6733 33.0245 51.4649C32.579 50.4053 32.2733 49.1286 31.1846 47.8098C32.6038 46.389 36.0258 47.0354 36.0258 47.0354C36.0258 47.0354 39.4481 46.3898 40.8689 47.8102Z" fill="#E0E0E0"/>
<path d="M40.5427 48.4397C39.5304 49.664 39.2538 50.8524 38.8379 51.8344C38.7898 51.953 38.7374 52.0684 38.6811 52.1799C38.648 52.2488 38.611 52.3178 38.5735 52.3835C37.7637 53.8268 36.2861 53.893 36.0533 53.8847C35.735 53.871 34.3291 53.8257 33.533 52.3835C33.496 52.3146 33.4602 52.2445 33.4255 52.1728C33.3704 52.0613 33.318 51.9471 33.2699 51.8285C32.8567 50.8465 32.5731 49.6624 31.5635 48.4393C32.8799 47.1228 36.0529 47.722 36.0529 47.722C36.0529 47.722 39.2263 47.1232 40.5427 48.4397Z" fill="#E0E0E0"/>
<path d="M38.6814 52.1816C38.6483 52.2505 38.6112 52.3195 38.5738 52.3853C37.7639 53.8286 36.2864 53.8947 36.0536 53.8865C35.7353 53.8727 34.3294 53.8274 33.5333 52.3853C33.4963 52.3163 33.4604 52.2462 33.4258 52.1745C33.8181 51.7767 34.3649 51.5312 34.9679 51.5312C35.3619 51.5312 35.7321 51.6388 36.0516 51.8231C36.3711 51.6388 36.7413 51.5312 37.1353 51.5312C37.7419 51.5316 38.2886 51.7794 38.6814 52.1816Z" fill="#E0E0E0"/>
<path d="M37.1394 51.5305C37.1394 51.5305 36.3662 51.5845 36.1247 52.3235C36.1018 52.394 36.0057 52.394 35.9825 52.3235C35.741 51.5845 34.9678 51.5305 34.9678 51.5305L35.3451 50.6348L36.0538 50.7998L36.7636 50.6348L37.1394 51.5305Z" fill="#E0E0E0"/>
<path d="M36.0821 54.3633C36.0565 54.3633 36.0399 54.3629 36.034 54.3625C34.742 54.3101 33.7083 53.6897 33.1155 52.6151C32.8902 52.2078 32.7279 51.7721 32.5554 51.3105C32.2477 50.4856 31.9294 49.6328 31.1964 48.7449C31.0396 48.5551 31.0526 48.277 31.2267 48.1028C32.5885 46.7403 35.4963 47.1448 36.0533 47.2374C36.6107 47.1448 39.5186 46.7399 40.8811 48.1025C41.0552 48.277 41.0686 48.5551 40.9114 48.7449C40.1835 49.6257 39.8676 50.4734 39.5623 51.2935C39.3878 51.7623 39.2227 52.2051 38.9911 52.6179C38.0571 54.2829 36.3929 54.3633 36.0821 54.3633ZM32.2331 48.5243C32.8614 49.3961 33.1726 50.2296 33.4511 50.976C33.6107 51.403 33.7611 51.8068 33.9522 52.1527C34.3898 52.9456 35.1004 53.3675 36.0643 53.4069C36.0856 53.4077 37.4292 53.4475 38.1572 52.1503C38.3526 51.8021 38.505 51.3932 38.6661 50.9603C38.9427 50.2182 39.2511 49.3898 39.8747 48.5247C38.8103 47.8874 36.8719 48.056 36.1415 48.1927C36.0832 48.2037 36.023 48.2037 35.9647 48.1927C35.2348 48.0556 33.2967 47.8874 32.2331 48.5243Z" fill="#E0E0E0"/>
<path d="M41.9012 46.444C41.577 46.8647 41.0645 48.3273 39.906 48.9627C38.564 49.6985 37.1093 49.0781 36.4302 48.1989C36.1371 47.8195 36.0248 47.2566 36.0248 46.932C36.0248 47.2566 35.9126 47.8195 35.6195 48.1989C34.9404 49.0781 33.4857 49.6985 32.1436 48.9627C30.9855 48.3277 30.4726 46.8647 30.1484 46.444C30.1484 46.444 32.0952 42.4844 36.0264 42.4844C39.958 42.4844 41.9012 46.444 41.9012 46.444Z" fill="#E0E0E0"/>
<g opacity="0.2">
<path d="M37.1152 45.5967C37.1152 45.5967 36.9742 47.6131 38.2162 47.9743C39.8931 48.4624 41.1299 46.2427 41.1299 46.2427C41.1299 46.2427 38.6566 47.3905 38.5096 45.4088C38.0562 44.1994 37.1152 45.5967 37.1152 45.5967Z" fill="#E0E0E0"/>
</g>
<g opacity="0.2">
<path d="M34.9386 45.5967C34.9386 45.5967 35.0796 47.6131 33.8376 47.9743C32.1607 48.4624 30.9238 46.2427 30.9238 46.2427C30.9238 46.2427 33.3972 47.3905 33.5441 45.4088C33.9975 44.1994 34.9386 45.5967 34.9386 45.5967Z" fill="#E0E0E0"/>
</g>
<path d="M41.9014 46.4444C41.6064 47.6903 41.1073 49.0415 39.8298 49.6024C37.8756 50.5072 35.2242 49.0324 35.3479 46.7784C35.3447 46.5866 35.3451 46.0832 35.3432 45.8858C35.3408 45.5088 35.6445 45.2016 36.0215 45.1992C36.3984 45.1969 36.7057 45.5006 36.7081 45.8776C36.712 45.8787 36.7018 46.4775 36.7045 46.481C36.7301 47.231 36.6222 47.9598 36.153 48.5798C35.2356 49.7253 33.5694 50.2122 32.2226 49.5988C31.1866 49.1395 30.5855 48.0724 30.3121 47.0325C30.257 46.8355 30.2136 46.6413 30.1494 46.4448C30.4799 46.7087 30.719 47.0471 30.9837 47.3315C31.6297 48.1059 32.5432 48.8303 33.5497 48.6968C34.1614 48.6345 34.7696 48.2603 35.1076 47.7912C35.2758 47.5627 35.3711 47.1081 35.3491 46.778C35.3463 46.5862 35.3459 46.0828 35.3435 45.8854H36.7081L36.7049 46.4806L36.7029 46.7784C36.6809 47.1077 36.7782 47.5627 36.9452 47.7904C37.7287 48.85 39.2476 49.0076 40.271 48.1083C40.8575 47.6639 41.3263 46.9273 41.9014 46.4444Z" fill="#E0E0E0"/>
<path d="M39.758 43.8282C39.7572 44.666 38.6637 45.405 37.6604 45.9068C36.6106 46.4319 35.4352 46.4307 34.3866 45.9037C33.3841 45.3999 32.2922 44.6589 32.293 43.8211C32.2949 41.2945 39.7604 41.3016 39.758 43.8282Z" fill="#E0E0E0"/>
<g opacity="0.5">
<path d="M37.5058 43.3311C37.5054 43.5726 37.0721 43.7857 36.6742 43.9303C36.2582 44.0815 35.7918 44.0811 35.3763 43.9291C34.9788 43.7837 34.5455 43.5698 34.5459 43.3284C34.5463 42.5996 37.5065 42.6024 37.5058 43.3311Z" fill="#E0E0E0"/>
</g>
</svg>
