<svg width="42" height="35" viewBox="0 0 42 35" fill="none" xmlns="http://www.w3.org/2000/svg">
<path d="M30.5243 30.54H29.3674C29.7812 30.54 30.1796 30.5245 30.5729 30.4961C33.2851 30.2171 34.2504 29.0157 36.2041 27.0394C37.0239 26.21 37.0239 24.8614 36.2041 24.0321C35.3818 23.2028 34.0512 23.2028 33.2314 24.0321C31.7808 25.4996 31.4003 26.3056 29.3495 26.3056H19.7266C24.6377 29.3025 25.5111 30.54 30.5243 30.54Z" fill="#F0AE2B"/>
<path d="M41.3844 22.9504C40.5621 22.1211 39.2315 22.1211 38.4117 22.9504C34.8567 26.5466 33.4342 27.9469 29.3685 27.9469H30.3696C30.8242 27.5568 31.1128 26.9755 31.1128 26.327C31.1128 25.1515 30.1704 24.2008 29.0109 24.2008H27.8847C27.0878 24.2008 26.3345 23.852 25.8135 23.2423C24.4931 21.7 22.5803 20.8164 20.5627 20.8164H17.1916H12.375V24.7408L12.8321 24.1156C12.8372 24.1233 12.8424 24.1311 12.8475 24.1388C12.873 24.175 12.9011 24.2111 12.9292 24.2473C12.942 24.2654 12.9547 24.2835 12.9701 24.3016C12.9981 24.3352 13.0262 24.3662 13.0569 24.3972C13.0748 24.4152 13.0926 24.4359 13.1105 24.454C13.1361 24.4798 13.1641 24.5031 13.1922 24.5289C13.2178 24.5522 13.2433 24.5754 13.2689 24.5961C13.2918 24.6142 13.3148 24.6323 13.3404 24.6503C13.3736 24.6762 13.4068 24.6994 13.4425 24.7227C13.4502 24.7279 13.4553 24.733 13.4629 24.7356L16.5021 26.6913C22.5828 30.6028 23.1626 32.1994 29.371 32.1994C34.5503 32.1994 37.0607 30.3315 41.387 25.955C42.2068 25.1283 42.2068 23.7823 41.3844 22.9504Z" fill="#FFC85C"/>
<path d="M41.3844 25.5415C40.5621 24.7122 39.2315 24.7122 38.4117 25.5415C34.8567 29.1378 33.4342 30.5381 29.3685 30.5381H30.5254C25.1827 30.5381 24.1024 29.1352 18.7546 25.694L17.7815 25.0687H20.5627C21.3595 25.0687 22.1129 25.4175 22.6339 26.0272C23.9542 27.5696 25.8671 28.4532 27.8847 28.4532H29.0109C29.7439 28.4532 30.3874 28.0734 30.7629 27.4998C30.3874 26.9263 29.7413 26.5465 29.0109 26.5465H27.8847C27.0878 26.5465 26.3345 26.1977 25.8135 25.588C24.4931 24.0457 22.5803 23.1621 20.5627 23.1621H14.5867C13.8537 23.1621 13.2101 23.5419 12.8347 24.1154L12.375 24.7406V28.8071C14.5228 30.9798 17.4368 32.2018 20.4759 32.2018H29.3685C34.5477 32.2018 37.0582 30.334 41.3844 25.9575C41.4508 25.8903 41.507 25.8205 41.5632 25.7482C41.5096 25.6785 41.4508 25.6087 41.3844 25.5415Z" fill="#F0AE2B"/>
<path d="M12.3742 20.8164H1.29297V32.202H12.3742V20.8164Z" fill="#068FF2"/>
<path d="M12.3731 20.8164H0.972656V24.7408H12.3731V20.8164Z" fill="#0697FF"/>
<path d="M10.762 20.8164H0V34.9973H10.762V20.8164Z" fill="#034A7D"/>
<path d="M10.762 29.4141H0V34.9996H10.762V29.4141Z" fill="#011625"/>
<path d="M10.762 20.8164H0V23.1648H10.762V20.8164Z" fill="#0088DB"/>
<path d="M33.7492 16.386C36.7312 13.3693 36.7312 8.47834 33.7492 5.46168C30.7671 2.44502 25.9323 2.44502 22.9502 5.46168C19.9682 8.47834 19.9682 13.3693 22.9502 16.386C25.9323 19.4026 30.7671 19.4026 33.7492 16.386Z" fill="#DB961D"/>
<path d="M28.3507 17.7906C32.0997 17.7906 35.1389 14.7162 35.1389 10.9236C35.1389 7.13109 32.0997 4.05664 28.3507 4.05664C24.6017 4.05664 21.5625 7.13109 21.5625 10.9236C21.5625 14.7162 24.6017 17.7906 28.3507 17.7906Z" fill="#FFC85C"/>
<path d="M28.3512 16.6263C31.4641 16.6263 33.9876 14.0735 33.9876 10.9245C33.9876 7.77545 31.4641 5.22266 28.3512 5.22266C25.2383 5.22266 22.7148 7.77545 22.7148 10.9245C22.7148 14.0735 25.2383 16.6263 28.3512 16.6263Z" stroke="#F0AE2B" stroke-width="3.6029" stroke-miterlimit="10"/>
<path d="M29.402 10.9232C29.9817 10.9232 30.4491 11.3985 30.4491 11.9824C30.4491 12.5689 29.9792 13.0417 29.402 13.0417H27.0703V8.80727V8.80469H29.402C29.9817 8.80469 30.4491 9.28006 30.4491 9.86393C30.4491 10.4504 29.9792 10.9232 29.402 10.9232ZM29.402 10.9232H27.0703" stroke="#F0AE2B" stroke-width="1.9129" stroke-miterlimit="10"/>
<path d="M28.9531 6.96875V8.80822" stroke="#F0AE2B" stroke-width="1.9129" stroke-miterlimit="10"/>
<path d="M28.9531 13.043V14.8799" stroke="#F0AE2B" stroke-width="1.9129" stroke-miterlimit="10"/>
<path d="M27.9453 6.96875V8.80822" stroke="#F0AE2B" stroke-width="1.9129" stroke-miterlimit="10"/>
<path d="M27.9453 13.043V14.8799" stroke="#F0AE2B" stroke-width="1.9129" stroke-miterlimit="10"/>
</svg>
