<svg width="115" height="102" viewBox="0 0 115 102" fill="none" xmlns="http://www.w3.org/2000/svg">
<path d="M79.2505 72.1582C67.2594 72.1582 57.535 62.5084 57.535 50.6094H0C16.8743 50.6094 25.8851 76.6013 47.1109 91.3189C71.9187 91.0968 88.4712 78.4202 92.4869 68.0623L92.235 67.854C88.6111 70.5476 84.1197 72.1582 79.2505 72.1582Z" fill="white"/>
<path d="M47.1113 91.3189C54.8629 96.6923 64.2235 100.58 76.2006 101.121C77.0402 101.177 77.8657 101.191 78.7192 101.205C78.8591 101.205 78.985 101.219 79.111 101.219C79.1389 101.219 79.153 101.219 79.1809 101.219C79.1949 101.219 79.2229 101.219 79.2369 101.219C79.5308 101.219 79.8245 101.205 80.1184 101.191C80.5801 101.177 81.0279 101.177 81.4756 101.163C82.1192 101.135 82.7489 101.094 83.3785 101.038C83.4765 101.024 83.5884 101.024 83.6864 101.01C95.8454 99.9552 106.787 94.679 115 86.6537L92.4453 68.0762C88.4716 78.4341 71.9191 91.0968 47.1113 91.3189Z" fill="white"/>
<path d="M79.2505 29.0748C67.2594 29.0748 57.535 38.7245 57.535 50.6236H0C16.8743 50.6236 25.8851 24.6317 47.1109 9.91406C71.9187 10.1362 88.4712 22.8128 92.4869 33.1707L92.235 33.379C88.6111 30.6854 84.1197 29.0748 79.2505 29.0748Z" fill="white"/>
<path d="M47.1113 9.8997C54.8629 4.52638 64.2235 0.6387 76.2006 0.0972021C77.0402 0.0416639 77.8657 0.0277615 78.7192 0.0138769C78.8591 0.0138769 78.985 0 79.111 0C79.1389 0 79.153 0 79.1809 0C79.1949 0 79.2229 0 79.2369 0C79.5308 0 79.8245 0.0138905 80.1184 0.0277751C80.5801 0.0416596 81.0279 0.0416656 81.4756 0.0555501C82.1192 0.0833193 82.7489 0.124968 83.3785 0.180506C83.4765 0.194391 83.5884 0.194397 83.6864 0.208281C95.8454 1.26351 106.787 6.53964 115 14.5649L92.4453 33.1563C88.4716 22.7985 71.9191 10.1357 47.1113 9.8997Z" fill="white"/>
</svg>
