<svg width="25" height="24" viewBox="0 0 25 24" fill="none" xmlns="http://www.w3.org/2000/svg">
<path d="M21.7301 4.29573C21.7301 4.2782 21.7292 4.26067 21.7276 4.24325C21.7271 4.23782 21.7263 4.2324 21.7257 4.22685C21.7243 4.21475 21.7227 4.20265 21.7206 4.19066C21.7194 4.18433 21.7182 4.17811 21.7169 4.17177C21.7147 4.16035 21.712 4.14904 21.709 4.13773C21.7074 4.13151 21.7059 4.12518 21.7041 4.11896C21.7004 4.10663 21.6964 4.0943 21.692 4.08197C21.6903 4.077 21.6887 4.07213 21.6869 4.06716C21.6805 4.05053 21.6735 4.0339 21.6659 4.01739C21.6633 4.01185 21.6604 4.00631 21.6577 4.00077C21.6521 3.98957 21.6465 3.97826 21.6403 3.96706C21.6363 3.95982 21.632 3.9527 21.6278 3.94557C21.6223 3.93607 21.6165 3.92668 21.6105 3.9173C21.6057 3.90961 21.6007 3.90192 21.5955 3.89422C21.5894 3.88529 21.583 3.87635 21.5766 3.86753C21.5709 3.85973 21.5655 3.85204 21.5595 3.84423C21.5525 3.83507 21.545 3.82602 21.5376 3.81686C21.5257 3.80227 21.5133 3.7878 21.5002 3.77332C21.4937 3.76597 21.4874 3.75873 21.4806 3.75138C21.4719 3.74199 21.4626 3.73272 21.4533 3.72333C21.447 3.71688 21.4408 3.71055 21.4342 3.7041C21.4244 3.69449 21.4142 3.68487 21.4039 3.67526C21.3977 3.66949 21.3914 3.66384 21.3851 3.65807C21.3738 3.64789 21.3625 3.63782 21.3507 3.62776C21.3461 3.6238 21.3412 3.61984 21.3365 3.61588C21.291 3.57766 21.2418 3.53999 21.189 3.50278C21.1873 3.50154 21.1856 3.50029 21.1838 3.49905C21.1664 3.48684 21.1485 3.47473 21.1304 3.46274C21.127 3.46048 21.1236 3.45822 21.1202 3.45596C21.1017 3.44374 21.0827 3.43153 21.0633 3.41931C21.0618 3.4183 21.0602 3.41728 21.0586 3.41637C19.8061 2.63462 16.9348 2.08789 13.5924 2.08789C9.09806 2.08789 5.45463 3.07628 5.45463 4.29551C5.45463 4.35296 5.46277 4.40985 5.47861 4.46618C5.47555 4.76035 5.45486 6.78192 5.45463 7.14305C4.38583 7.51662 3.74907 7.98576 3.74907 8.49528C3.74907 8.55274 3.75721 8.60962 3.77305 8.66595C3.76999 8.96182 3.74907 11.0045 3.74907 11.3489C3.74907 11.7778 4.20034 12.178 4.9804 12.5168C4.97192 12.558 4.96728 12.5995 4.96728 12.6412C4.96728 12.6987 4.97542 12.7556 4.99126 12.8119C4.9882 13.1061 4.96751 15.1276 4.96728 15.4888C3.89848 15.8623 3.26172 16.3315 3.26172 16.841C3.26172 16.8984 3.26986 16.9553 3.2857 17.0117C3.28264 17.3075 3.26172 19.3502 3.26172 19.6946C3.26172 20.9139 6.90504 21.9023 11.3994 21.9023C15.8937 21.9023 19.5372 20.9139 19.5372 19.6946C19.5372 19.3983 19.5372 16.9821 19.5372 16.8471C20.606 16.4735 21.2427 16.0044 21.2427 15.4949C21.2427 15.1904 21.2427 12.6477 21.2427 12.6413V12.6412C21.2427 12.6237 21.2418 12.6062 21.2402 12.5887C21.2398 12.5833 21.239 12.5778 21.2383 12.5723C21.2369 12.5602 21.2354 12.5482 21.2332 12.5361C21.2321 12.5298 21.2308 12.5235 21.2296 12.5173C21.2272 12.5059 21.2246 12.4945 21.2217 12.4832C21.2201 12.477 21.2185 12.4707 21.2167 12.4644C21.2131 12.4521 21.209 12.4398 21.2046 12.4276C21.2029 12.4226 21.2013 12.4176 21.1995 12.4128C21.1932 12.3961 21.1863 12.3795 21.1786 12.363C21.176 12.3574 21.1729 12.3519 21.1702 12.3462C21.1647 12.3351 21.159 12.3239 21.1529 12.3127C21.149 12.3054 21.1447 12.2983 21.1405 12.2911C21.1349 12.2817 21.1292 12.2722 21.1232 12.2628C21.1183 12.2551 21.1132 12.2474 21.108 12.2397C21.102 12.2308 21.0957 12.222 21.0892 12.2131C21.0836 12.2053 21.078 12.1975 21.0721 12.1897C21.065 12.1806 21.0576 12.1715 21.0502 12.1625C21.0383 12.1479 21.0258 12.1333 21.0129 12.1188C21.0063 12.1115 21 12.1042 20.9932 12.0969C20.9844 12.0875 20.9751 12.0781 20.966 12.0688C20.9596 12.0625 20.9534 12.056 20.947 12.0497C20.9371 12.0401 20.9269 12.0304 20.9165 12.0207C20.9104 12.0151 20.9042 12.0094 20.8979 12.0038C20.8866 11.9936 20.8751 11.9834 20.8633 11.9732C20.8586 11.9693 20.8539 11.9654 20.8492 11.9615C20.8035 11.9231 20.7542 11.8854 20.7012 11.8479C20.6996 11.8468 20.6981 11.8457 20.6964 11.8445C20.679 11.8323 20.661 11.8202 20.6428 11.808C20.6396 11.8057 20.6362 11.8036 20.6329 11.8013C20.6142 11.789 20.5952 11.7768 20.5759 11.7647C20.5743 11.7638 20.5728 11.7628 20.5712 11.7619C20.4104 11.6615 20.223 11.5651 20.0113 11.4731C20.0198 11.4319 20.0244 11.3904 20.0244 11.3487C20.0244 11.0524 20.0244 8.6362 20.0244 8.50116C21.0932 8.12759 21.7298 7.65845 21.7298 7.14893C21.7298 6.84446 21.7298 4.30161 21.7298 4.29539C21.7301 4.29585 21.7301 4.29585 21.7301 4.29573Z" fill="#FDC95A"/>
<path d="M20.0251 8.50243C20.0125 9.71871 16.3743 10.7037 11.8877 10.7037C7.60504 10.7037 4.09518 9.80625 3.77398 8.66676C3.77092 8.96263 3.75 11.0053 3.75 11.3497C3.75 12.569 7.39332 13.5574 11.8877 13.5574C16.382 13.5574 20.0254 12.569 20.0254 11.3497C20.0254 11.0538 20.0254 8.64143 20.0254 8.50231C20.0254 8.49813 20.0254 8.49609 20.0254 8.49609L20.0251 8.50243Z" fill="#D8882A"/>
<path d="M6.42869 8.19652C6.17953 8.07143 5.97368 7.93899 5.81647 7.80078C5.50567 7.96862 5.33398 8.1523 5.33398 8.3448C5.33398 9.14148 8.26827 9.7874 11.888 9.7874C14.2818 9.7874 16.3756 9.50487 17.5194 9.08312C16.3552 9.25741 15.0171 9.35671 13.5934 9.35671C10.4966 9.3566 7.80388 8.88723 6.42869 8.19652Z" fill="#E9AD41"/>
<path d="M11.6191 10.7031V13.5563C11.7083 13.5571 11.7973 13.5581 11.8872 13.5581C11.928 13.5581 11.9683 13.5575 12.009 13.5573V10.704C11.9684 10.7041 11.9279 10.7045 11.8872 10.7045C11.7974 10.7045 11.7082 10.7039 11.6191 10.7031Z" fill="#A65612"/>
<path d="M9.7793 13.4822C9.90801 13.4916 10.038 13.5001 10.1692 13.5077V10.6544C10.0381 10.6467 9.90801 10.6383 9.7793 10.6289V13.4822Z" fill="#A65612"/>
<path d="M7.93945 13.2792C8.06748 13.2985 8.1971 13.3171 8.32931 13.3345V10.481C8.19721 10.4636 8.06737 10.4451 7.93945 10.4258V13.2792Z" fill="#A65612"/>
<path d="M6.10156 12.9022C6.22722 12.9367 6.35762 12.97 6.49142 13.0021V10.149C6.3574 10.1168 6.22744 10.0833 6.10156 10.0488V12.9022Z" fill="#A65612"/>
<path d="M4.26172 12.1208C4.37425 12.2027 4.50534 12.2821 4.65158 12.359V9.50656C4.50489 9.42943 4.37471 9.34969 4.26172 9.26758V12.1208Z" fill="#A65612"/>
<path d="M13.459 13.5156C13.5901 13.5086 13.72 13.5008 13.8488 13.4922V10.6387C13.7201 10.6473 13.5902 10.6552 13.459 10.6621V13.5156Z" fill="#A65612"/>
<path d="M15.2988 13.3529C15.4307 13.3364 15.5608 13.319 15.6887 13.3007V10.4473C15.5608 10.4656 15.4308 10.4831 15.2988 10.4996V13.3529Z" fill="#A65612"/>
<path d="M17.1387 13.0365C17.2725 13.0059 17.4023 12.9739 17.5285 12.941V10.0879C17.4024 10.1208 17.2724 10.1526 17.1387 10.1832V13.0365Z" fill="#A65612"/>
<path d="M18.9766 12.4335C19.1197 12.3647 19.2506 12.2938 19.3664 12.2206V9.36719C19.2504 9.44048 19.12 9.51162 18.9766 9.5805V12.4335Z" fill="#A65612"/>
<path d="M11.3036 10.461C8.64797 10.461 6.29004 10.1158 4.80469 9.58184C6.2025 10.2512 8.84997 10.7032 11.8883 10.7032C16.3749 10.7032 20.0131 9.71824 20.0257 8.50195C19.786 8.58565 19.5248 8.66459 19.2439 8.73811C18.4295 9.72423 15.184 10.461 11.3036 10.461Z" fill="#FFE082"/>
<path d="M5.33398 8.3448C5.33398 8.44874 5.38499 8.54996 5.47977 8.64757C5.67668 8.48391 6.00196 8.3319 6.42869 8.19652C6.17953 8.07143 5.97368 7.93899 5.81647 7.80078C5.50567 7.96862 5.33398 8.1523 5.33398 8.3448Z" fill="#D48A27"/>
<path d="M21.0732 5.16753C20.9571 5.24081 20.8268 5.31195 20.6833 5.38095C20.2922 5.56881 19.8027 5.73959 19.2336 5.88809C19.1075 5.921 18.9774 5.95278 18.8437 5.98343C18.3989 6.08545 17.9131 6.1748 17.394 6.24933C17.266 6.26766 17.136 6.28519 17.0041 6.3017C16.5426 6.35961 16.0578 6.40609 15.5544 6.43991C15.4256 6.44851 15.2956 6.45631 15.1646 6.46332C14.6945 6.48832 14.2101 6.50223 13.7148 6.50415C13.6742 6.50426 13.6337 6.5046 13.593 6.5046C13.5033 6.5046 13.4141 6.50404 13.325 6.50325C12.8293 6.49895 12.3447 6.48255 11.8752 6.45518C11.7441 6.44749 11.6141 6.439 11.4854 6.42973C10.9812 6.3932 10.4963 6.34389 10.0357 6.28304C9.90367 6.26562 9.77372 6.24719 9.6458 6.22785C9.12475 6.14924 8.63898 6.05571 8.19619 5.94916C8.06228 5.91693 7.93221 5.88357 7.80633 5.84907C7.22793 5.69039 6.73742 5.50807 6.3566 5.30788C6.20991 5.23075 6.07973 5.15101 5.96675 5.0689C5.70548 4.879 5.53798 4.67667 5.47906 4.46607C5.47611 4.75573 5.45508 6.80568 5.45508 7.15075C5.45508 8.36998 9.0984 9.35836 13.5928 9.35836C18.0872 9.35836 21.7311 8.36975 21.7311 7.15052C21.7311 6.84572 21.7311 4.29688 21.7311 4.29688C21.7311 4.60609 21.4963 4.90038 21.0732 5.16753Z" fill="#D8882A"/>
<path d="M13.3262 6.50195V9.35515C13.4153 9.35594 13.5043 9.35696 13.5942 9.35696C13.635 9.35696 13.6753 9.35628 13.716 9.35617V6.50286C13.6754 6.50297 13.6349 6.50331 13.5942 6.50331C13.5045 6.50331 13.4153 6.50274 13.3262 6.50195Z" fill="#A65612"/>
<path d="M11.4863 9.283C11.615 9.29238 11.745 9.30087 11.8762 9.30844V6.45514C11.745 6.44744 11.615 6.43896 11.4863 6.42969V9.283Z" fill="#A65612"/>
<path d="M9.64648 9.07998C9.77451 9.09932 9.90413 9.11787 10.0363 9.13529V6.28176C9.90435 6.26434 9.7744 6.2459 9.64648 6.22656V9.07998Z" fill="#A65612"/>
<path d="M7.80664 8.70108C7.9323 8.73557 8.0627 8.76882 8.1965 8.80095V5.94775C8.06259 5.91552 7.93252 5.88215 7.80664 5.84766V8.70108Z" fill="#A65612"/>
<path d="M5.9668 7.92155C6.07933 8.00344 6.21042 8.08284 6.35666 8.15974V5.30734C6.20996 5.23021 6.07978 5.15047 5.9668 5.06836V7.92155Z" fill="#A65612"/>
<path d="M15.1641 9.31629C15.2951 9.30927 15.4251 9.30147 15.5539 9.29287V6.43945C15.4251 6.44805 15.2951 6.45585 15.1641 6.46287V9.31629Z" fill="#A65612"/>
<path d="M17.0039 9.15361C17.1358 9.13709 17.2658 9.11968 17.3938 9.10135V6.24805C17.2657 6.26637 17.1358 6.2839 17.0039 6.30041V9.15361Z" fill="#A65612"/>
<path d="M18.8438 8.83537C18.9775 8.80472 19.1074 8.77271 19.2336 8.7398V5.88672C19.1075 5.91963 18.9774 5.95141 18.8438 5.98206V8.83537Z" fill="#A65612"/>
<path d="M20.6836 8.23218C20.8268 8.16341 20.9576 8.0925 21.0735 8.01932V5.16602C20.9574 5.2393 20.8271 5.31045 20.6836 5.37944V8.23218Z" fill="#A65612"/>
<path d="M13.593 5.58833C17.2127 5.58833 20.147 4.94245 20.147 4.14573C20.147 3.349 17.2127 2.70312 13.593 2.70312C9.97337 2.70312 7.03906 3.349 7.03906 4.14573C7.03906 4.94245 9.97337 5.58833 13.593 5.58833Z" fill="#E9AD41"/>
<path d="M7.18474 4.44861C7.92747 3.83131 10.4819 3.3763 13.5199 3.3763C16.6676 3.3763 19.2958 3.86478 19.928 4.51602C20.0702 4.39783 20.147 4.27376 20.147 4.14573C20.147 3.34904 17.2127 2.70312 13.593 2.70312C9.97335 2.70312 7.03906 3.34893 7.03906 4.14573C7.03895 4.24967 7.08996 4.351 7.18474 4.44861Z" fill="#D48A27"/>
<path d="M20.0924 2.96875C20.7622 3.2895 21.1464 3.65991 21.1464 4.05486C21.1464 5.27408 17.5031 6.26236 13.0087 6.26236C10.353 6.26236 7.99512 5.91718 6.50977 5.38323C7.90747 6.05256 10.555 6.50462 13.5934 6.50462C18.0877 6.50462 21.7311 5.51623 21.7311 4.29701C21.7311 3.79834 21.1207 3.33836 20.0924 2.96875Z" fill="#FFE082"/>
<path d="M11.8872 13.5579C10.2079 13.5579 8.64759 13.4199 7.35156 13.1835C8.46402 13.6312 10.6236 13.9349 13.1055 13.9349C16.7251 13.9349 19.6594 13.2891 19.6594 12.4923C19.6594 12.3744 19.5947 12.26 19.4737 12.1504C19.2998 12.2717 19.0876 12.3878 18.8409 12.4976C17.4126 13.1333 14.8327 13.5579 11.8872 13.5579Z" fill="#E9AD41"/>
<path d="M20.5848 13.513C20.4687 13.5863 20.3384 13.6574 20.1949 13.7264C19.8038 13.9143 19.3143 14.0851 18.7453 14.2336C18.6192 14.2665 18.4891 14.2983 18.3555 14.3289C17.9106 14.4309 17.4249 14.5203 16.9057 14.5948C16.7778 14.6131 16.6479 14.6307 16.5159 14.6472C16.0544 14.7051 15.5696 14.7516 15.0663 14.7854C14.9374 14.794 14.8075 14.8018 14.6764 14.8088C14.2063 14.8338 13.7219 14.8477 13.2267 14.8496C13.1861 14.8497 13.1456 14.8501 13.1049 14.8501C13.0152 14.8501 12.9258 14.8495 12.8368 14.8487C12.3411 14.8443 11.8567 14.828 11.3871 14.8007C11.2559 14.793 11.1259 14.7845 10.9972 14.7752C10.493 14.7387 10.0082 14.6894 9.54749 14.6285C9.41551 14.6111 9.28555 14.5927 9.15764 14.5733C8.63658 14.4947 8.15081 14.4012 7.70791 14.2946C7.574 14.2624 7.44393 14.229 7.31805 14.1945C6.73965 14.0359 6.24913 13.8535 5.86832 13.6534C5.72163 13.5762 5.59145 13.4965 5.47847 13.4144C5.2172 13.2245 5.0497 13.0221 4.99077 12.8116C4.98783 13.1011 4.9668 15.1512 4.9668 15.4962C4.9668 16.7155 8.61011 17.7038 13.1045 17.7038C17.5989 17.7038 21.2422 16.7155 21.2422 15.4962C21.2422 15.1914 21.2422 12.6426 21.2422 12.6426C21.2426 12.9516 21.0079 13.2459 20.5848 13.513Z" fill="#D8882A"/>
<path d="M12.8379 14.8477V17.7009C12.927 17.7016 13.016 17.7027 13.1059 17.7027C13.1468 17.7027 13.187 17.702 13.2278 17.7019V14.8487C13.1871 14.8488 13.1467 14.8491 13.1059 14.8491C13.0161 14.8489 12.9269 14.8484 12.8379 14.8477Z" fill="#A65612"/>
<path d="M10.998 17.6288C11.1268 17.6382 11.2567 17.6466 11.3879 17.6543V14.8008C11.2567 14.7931 11.1268 14.7847 10.998 14.7754V17.6288Z" fill="#A65612"/>
<path d="M9.1582 17.4257C9.28623 17.445 9.41596 17.4636 9.54806 17.481V14.6275C9.41607 14.61 9.28612 14.5916 9.1582 14.5723V17.4257Z" fill="#A65612"/>
<path d="M7.31836 17.0469C7.44401 17.0814 7.57442 17.1146 7.70822 17.1468V14.2935C7.57431 14.2612 7.44424 14.2279 7.31836 14.1934V17.0469Z" fill="#A65612"/>
<path d="M5.47852 16.2673C5.59105 16.3491 5.72213 16.4285 5.86837 16.5054V13.653C5.72168 13.5759 5.5915 13.4962 5.47852 13.4141V16.2673Z" fill="#A65612"/>
<path d="M14.6758 17.662C14.8069 17.655 14.9368 17.6472 15.0656 17.6386V14.7852C14.9368 14.7938 14.8069 14.8016 14.6758 14.8086V17.662Z" fill="#A65612"/>
<path d="M16.5156 17.4994C16.6475 17.4829 16.7776 17.4655 16.9055 17.4472V14.5938C16.7776 14.6121 16.6476 14.6296 16.5156 14.6461V17.4994Z" fill="#A65612"/>
<path d="M18.3555 17.181C18.4893 17.1503 18.6191 17.1183 18.7453 17.0854V14.2324C18.6192 14.2653 18.4892 14.2971 18.3555 14.3278V17.181Z" fill="#A65612"/>
<path d="M20.1953 16.5798C20.3385 16.5111 20.4694 16.4402 20.5852 16.367V13.5137C20.4691 13.587 20.3388 13.6581 20.1953 13.7271V16.5798Z" fill="#A65612"/>
<path d="M19.4395 12.8626C19.5817 12.7444 19.6584 12.6203 19.6584 12.4923C19.6584 12.3744 19.5937 12.26 19.4726 12.1504C19.2987 12.2717 19.0865 12.3879 18.8398 12.4976C19.1099 12.6113 19.3144 12.7338 19.4395 12.8626Z" fill="#D48A27"/>
<path d="M20.0114 11.4746C20.0076 11.4929 20.003 11.5111 19.9976 11.5294C20.4215 11.7965 20.6581 12.0907 20.6581 12.4C20.6581 13.6192 17.0148 14.6075 12.5204 14.6075C9.86476 14.6075 7.50684 14.2623 6.02148 13.7284C7.41918 14.3977 10.0668 14.8498 13.1051 14.8498C17.5994 14.8498 21.2428 13.8614 21.2428 12.6421C21.2428 12.2134 20.7913 11.8133 20.0114 11.4746Z" fill="#FFE082"/>
<path d="M5.32819 16.1465C5.01739 16.3143 4.8457 16.498 4.8457 16.6905C4.8457 17.4872 7.77999 18.1331 11.3997 18.1331C13.7936 18.1331 15.8873 17.8506 17.0311 17.4288C15.8669 17.6031 14.5288 17.7024 13.1051 17.7024C9.44721 17.7023 6.35311 17.0474 5.32819 16.1465Z" fill="#E9AD41"/>
<path d="M18.8799 17.7122C18.7639 17.7855 18.6336 17.8567 18.4901 17.9256C18.099 18.1135 17.6095 18.2843 17.0403 18.4328C16.9142 18.4657 16.7842 18.4975 16.6505 18.5281C16.2057 18.6301 15.7199 18.7195 15.2008 18.794C15.0728 18.8124 14.9429 18.8299 14.8109 18.8464C14.3494 18.9043 13.8646 18.9508 13.3612 18.9846C13.2323 18.9932 13.1024 19.001 12.9713 19.008C12.5013 19.033 12.0169 19.0469 11.5216 19.0488C11.481 19.049 11.4405 19.0493 11.3998 19.0493C11.3101 19.0493 11.2209 19.0487 11.1317 19.0479C10.636 19.0435 10.1515 19.0272 9.682 18.9999C9.5508 18.9922 9.42085 18.9837 9.29214 18.9744C8.78794 18.9379 8.30308 18.8886 7.84242 18.8277C7.71043 18.8103 7.58047 18.7919 7.45256 18.7725C6.9315 18.6939 6.44573 18.6004 6.00283 18.4939C5.86892 18.4616 5.73885 18.4283 5.61297 18.3938C5.03457 18.2351 4.54406 18.0528 4.16325 17.8526C4.01655 17.7754 3.88637 17.6957 3.77339 17.6136C3.51212 17.4237 3.34462 17.2214 3.2857 17.0108C3.28276 17.3003 3.26172 19.3504 3.26172 19.6954C3.26172 20.9147 6.90504 21.9031 11.3994 21.9031C15.8937 21.9031 19.5372 20.9147 19.5372 19.6954C19.5372 19.3906 19.5372 16.8418 19.5372 16.8418C19.5378 17.1507 19.303 17.4451 18.8799 17.7122Z" fill="#D8882A"/>
<path d="M11.1328 19.0469V21.9001C11.222 21.9009 11.3109 21.9019 11.4009 21.9019C11.4417 21.9019 11.482 21.9012 11.5227 21.9011V19.0479C11.4821 19.048 11.4416 19.0483 11.4009 19.0483C11.3112 19.0481 11.2219 19.0476 11.1328 19.0469Z" fill="#A65612"/>
<path d="M9.29297 21.8261C9.42168 21.8355 9.55163 21.8439 9.68283 21.8515V18.9981C9.55163 18.9904 9.42168 18.9819 9.29297 18.9727V21.8261Z" fill="#A65612"/>
<path d="M7.45312 21.6249C7.58116 21.6442 7.71077 21.6628 7.84298 21.6802V18.8267C7.711 18.8093 7.58104 18.7908 7.45312 18.7715V21.6249Z" fill="#A65612"/>
<path d="M5.61328 21.246C5.73894 21.2805 5.86934 21.3137 6.00314 21.3459V18.4927C5.86923 18.4604 5.73916 18.4271 5.61328 18.3926V21.246Z" fill="#A65612"/>
<path d="M3.77344 20.4665C3.88597 20.5484 4.01706 20.6278 4.1633 20.7047V17.8523C4.0166 17.7751 3.88643 17.6954 3.77344 17.6133V20.4665Z" fill="#A65612"/>
<path d="M12.9707 21.8612C13.1018 21.8542 13.2317 21.8464 13.3606 21.8378V18.9844C13.2317 18.993 13.1018 19.0008 12.9707 19.0078V21.8612Z" fill="#A65612"/>
<path d="M14.8105 21.6985C14.9424 21.682 15.0725 21.6646 15.2004 21.6463V18.793C15.0725 18.8113 14.9425 18.8288 14.8105 18.8453V21.6985Z" fill="#A65612"/>
<path d="M16.6504 21.3802C16.7842 21.3495 16.914 21.3175 17.0403 21.2846V18.4316C16.9141 18.4646 16.7841 18.4963 16.6504 18.527V21.3802Z" fill="#A65612"/>
<path d="M18.4902 20.7771C18.6334 20.7083 18.7643 20.6374 18.8801 20.5642V17.7109C18.7641 17.7842 18.6338 17.8554 18.4902 17.9244V20.7771Z" fill="#A65612"/>
<path d="M10.8153 18.8067C8.15969 18.8067 5.80176 18.4615 4.31641 17.9275C5.71411 18.5969 8.36168 19.0489 11.4 19.0489C15.8866 19.0489 19.5248 18.0639 19.5374 16.8477C19.2977 16.9314 19.0365 17.0103 18.7557 17.0838C17.9412 18.0698 14.6957 18.8067 10.8153 18.8067Z" fill="#FFE082"/>
<path d="M4.8457 16.6905C4.8457 16.7944 4.89671 16.8957 4.99149 16.9933C5.1884 16.8296 5.51368 16.6776 5.94041 16.5422C5.69125 16.4171 5.4854 16.2847 5.32819 16.1465C5.01739 16.3144 4.8457 16.4981 4.8457 16.6905Z" fill="#D48A27"/>
</svg>
