<svg width="61" height="32" viewBox="0 0 61 32" fill="none" xmlns="http://www.w3.org/2000/svg">
<path d="M42.8574 16.4788C42.8574 22.299 40.0465 27.077 34.3271 27.4399C34.0948 27.4538 32.1434 27.4399 31.9111 27.4399C25.8665 27.4399 20.9648 22.5316 20.9648 16.4788C20.9648 10.4261 25.8665 5.51781 31.9111 5.51781C32.1109 5.51781 34.0576 5.5085 34.2527 5.51781C40.0232 5.82952 42.8574 10.6261 42.8574 16.4788Z" fill="#DB961D"/>
<path d="M36.0733 27.3032C42.042 26.3407 46.1013 20.7153 45.1401 14.7386C44.1789 8.76183 38.5611 4.69701 32.5924 5.65954C26.6237 6.62206 22.5644 12.2474 23.5256 18.2242C24.4868 24.2009 30.1046 28.2657 36.0733 27.3032Z" fill="#F0AE2B"/>
<path d="M42.7112 19.9985C44.6551 15.3647 42.4795 10.0303 37.852 8.08376C33.2244 6.13726 27.8972 8.31575 25.9533 12.9496C24.0094 17.5834 26.185 22.9178 30.8126 24.8643C35.4401 26.8108 40.7673 24.6323 42.7112 19.9985Z" stroke="#FFC85C" stroke-width="1.6953" stroke-miterlimit="10"/>
<path d="M36.0282 16.4792C36.9575 16.4792 37.7148 17.2329 37.7148 18.168C37.7148 19.0985 36.9621 19.8568 36.0282 19.8568H32.2695V13.1016H36.0282C36.9575 13.1016 37.7148 13.8552 37.7148 14.7904C37.7148 15.7209 36.9621 16.4792 36.0282 16.4792ZM36.0282 16.4792H32.2695" stroke="#FFC85C" stroke-width="1.6953" stroke-miterlimit="10"/>
<path d="M35.3047 10.168V13.1036" stroke="#FFC85C" stroke-width="1.6953" stroke-miterlimit="10"/>
<path d="M35.3047 19.8594V22.795" stroke="#FFC85C" stroke-width="1.6953" stroke-miterlimit="10"/>
<path d="M33.6797 10.168V13.1036" stroke="#FFC85C" stroke-width="1.6953" stroke-miterlimit="10"/>
<path d="M33.6797 19.8594V22.795" stroke="#FFC85C" stroke-width="1.6953" stroke-miterlimit="10"/>
<path d="M49.4355 16.4769C49.4355 22.297 46.6246 27.075 40.9052 27.4379C40.6729 27.4519 38.7215 27.4379 38.4892 27.4379C32.4446 27.4379 27.543 22.5297 27.543 16.4769C27.543 10.4241 32.4446 5.51585 38.4892 5.51585C38.689 5.51585 40.6357 5.50655 40.8309 5.51585C46.6014 5.82756 49.4355 10.6242 49.4355 16.4769Z" fill="#DB961D"/>
<path d="M45.028 26.6304C50.6267 24.347 53.3167 17.9511 51.0364 12.3449C48.7561 6.73865 42.3688 4.04497 36.7701 6.32839C31.1714 8.61181 28.4814 15.0077 30.7617 20.6139C33.0421 26.2202 39.4293 28.9138 45.028 26.6304Z" fill="#F0AE2B"/>
<path d="M47.3287 22.9132C50.8777 19.3594 50.8777 13.5976 47.3287 10.0438C43.7798 6.49008 38.0257 6.49008 34.4768 10.0439C30.9278 13.5976 30.9278 19.3594 34.4768 22.9132C38.0257 26.4669 43.7798 26.4669 47.3287 22.9132Z" stroke="#FFC85C" stroke-width="1.6953" stroke-miterlimit="10"/>
<path d="M42.6025 16.4753C43.5317 16.4753 44.289 17.229 44.289 18.1641C44.289 19.0946 43.5363 19.8529 42.6025 19.8529H38.8438V13.0977H42.6025C43.5317 13.0977 44.289 13.8513 44.289 14.7865C44.289 15.7169 43.5363 16.4753 42.6025 16.4753ZM42.6025 16.4753H38.8438" stroke="#FFC85C" stroke-width="1.6953" stroke-miterlimit="10"/>
<path d="M41.875 10.1641V13.0997" stroke="#FFC85C" stroke-width="1.6953" stroke-miterlimit="10"/>
<path d="M41.875 19.8555V22.7911" stroke="#FFC85C" stroke-width="1.6953" stroke-miterlimit="10"/>
<path d="M40.25 10.1641V13.0997" stroke="#FFC85C" stroke-width="1.6953" stroke-miterlimit="10"/>
<path d="M40.25 19.8555V22.7911" stroke="#FFC85C" stroke-width="1.6953" stroke-miterlimit="10"/>
<path d="M55.0097 16.4788C55.0097 22.299 52.1988 27.077 46.4794 27.4399C46.2471 27.4538 44.2957 27.4399 44.0634 27.4399C38.0188 27.4399 33.1172 22.5316 33.1172 16.4788C33.1172 10.4261 38.0188 5.51781 44.0634 5.51781C44.2632 5.51781 46.21 5.5085 46.4051 5.51781C52.1756 5.82952 55.0097 10.6261 55.0097 16.4788Z" fill="#DB961D"/>
<path d="M50.6061 26.6324C56.2048 24.3489 58.8949 17.9531 56.6145 12.3469C54.3342 6.7406 47.947 4.04692 42.3483 6.33034C36.7496 8.61376 34.0595 15.0096 36.3399 20.6159C38.6202 26.2221 45.0074 28.9158 50.6061 26.6324Z" fill="#F0AE2B"/>
<path d="M52.9069 22.9151C56.4558 19.3614 56.4558 13.5996 52.9069 10.0458C49.3579 6.49203 43.6039 6.49204 40.0549 10.0458C36.5059 13.5996 36.5059 19.3614 40.0549 22.9151C43.6039 26.4689 49.3579 26.4689 52.9069 22.9151Z" stroke="#FFC85C" stroke-width="1.6953" stroke-miterlimit="10"/>
<path d="M48.1806 16.4753C49.1098 16.4753 49.8671 17.229 49.8671 18.1641C49.8671 19.0946 49.1145 19.8529 48.1806 19.8529H44.4219V13.0977H48.1806C49.1098 13.0977 49.8671 13.8513 49.8671 14.7865C49.8671 15.7169 49.1145 16.4753 48.1806 16.4753ZM48.1806 16.4753H44.4219" stroke="#FFC85C" stroke-width="1.6953" stroke-miterlimit="10"/>
<path d="M47.4609 10.1641V13.0997" stroke="#FFC85C" stroke-width="1.6953" stroke-miterlimit="10"/>
<path d="M47.4609 19.8555V22.7911" stroke="#FFC85C" stroke-width="1.6953" stroke-miterlimit="10"/>
<path d="M45.8359 10.1641V13.0997" stroke="#FFC85C" stroke-width="1.6953" stroke-miterlimit="10"/>
<path d="M45.8359 19.8555V22.7911" stroke="#FFC85C" stroke-width="1.6953" stroke-miterlimit="10"/>
<path d="M24.7556 16.379C24.816 22.1991 22.0562 27.005 16.3415 27.4237C16.1092 27.4424 14.1578 27.447 13.9255 27.447C7.88091 27.5075 2.93279 22.6504 2.86775 16.5976C2.80735 10.5449 7.65325 5.59006 13.6978 5.52493C13.8976 5.52493 15.8444 5.49237 16.0395 5.50167C21.81 5.7529 24.6952 10.5216 24.7556 16.379Z" fill="#DB961D"/>
<path d="M24.0424 24.1281C28.2718 19.8028 28.1988 12.8632 23.8793 8.62807C19.5598 4.39296 12.6296 4.46608 8.40019 8.79139C4.17079 13.1167 4.24381 20.0563 8.56328 24.2914C12.8828 28.5265 19.813 28.4534 24.0424 24.1281Z" fill="#F0AE2B"/>
<path d="M25.3128 16.3707C25.3639 21.3953 21.3404 25.5127 16.3179 25.5638C11.3001 25.615 7.18831 21.586 7.1372 16.5568C7.08609 11.5322 11.1096 7.41486 16.1321 7.36368C21.1499 7.31716 25.2617 11.3461 25.3128 16.3707Z" stroke="#FFC85C" stroke-width="1.6953" stroke-miterlimit="10"/>
<path d="M17.9201 16.448C18.854 16.4387 19.616 17.1878 19.6253 18.1182C19.6346 19.0534 18.8865 19.8164 17.9573 19.8257L14.1986 19.8629L14.1289 13.1076L17.883 13.0704C18.8168 13.0611 19.5788 13.8101 19.5881 14.7406C19.5974 15.6757 18.8494 16.4387 17.9201 16.448ZM17.9201 16.448L14.1614 16.4853" stroke="#FFC85C" stroke-width="1.6953" stroke-miterlimit="10"/>
<path d="M17.1367 10.1406L17.1642 13.0763" stroke="#FFC85C" stroke-width="1.6953" stroke-miterlimit="10"/>
<path d="M17.2344 19.832L17.2665 22.7677" stroke="#FFC85C" stroke-width="1.6953" stroke-miterlimit="10"/>
<path d="M15.5117 10.1582L15.5392 13.0939" stroke="#FFC85C" stroke-width="1.6953" stroke-miterlimit="10"/>
<path d="M15.6094 19.8516L15.6415 22.7872" stroke="#FFC85C" stroke-width="1.6953" stroke-miterlimit="10"/>
<path d="M40.11 25.6992H19.918V27.4392H40.11V25.6992Z" fill="#DB961D"/>
<path d="M40.11 23.9492H19.918V25.6892H40.11V23.9492Z" fill="#FFC85C"/>
<path d="M42.1491 22.2148H21.957V23.9548H42.1491V22.2148Z" fill="#DB961D"/>
<path d="M42.1491 20.4629H21.957V22.2029H42.1491V20.4629Z" fill="#FFC85C"/>
<path d="M40.7389 18.7227H20.5469V20.4627H40.7389V18.7227Z" fill="#DB961D"/>
<path d="M40.7389 16.9727H20.5469V18.7127H40.7389V16.9727Z" fill="#FFC85C"/>
</svg>
