<svg width="23" height="45" viewBox="0 0 23 45" fill="none" xmlns="http://www.w3.org/2000/svg">
<path d="M21.2604 27.0515C20.3015 27.0515 19.5234 26.308 19.5234 25.3884V14.2002C19.5234 13.2806 20.3015 12.5371 21.2604 12.5371C22.2194 12.5371 22.9974 13.2806 22.9974 14.2002V25.3884C22.9974 26.305 22.2194 27.0515 21.2604 27.0515Z" fill="#FFC85C"/>
<path d="M18.2255 34.1445H6.98047V44.9206H18.2255V34.1445Z" fill="#FFC85C"/>
<path d="M18.2255 38.4412L6.98047 42.1079V34.1445H18.2255V38.4412Z" fill="#F0AE2B"/>
<path d="M15.2274 37.6701H11.8922C7.60106 37.6701 4.12109 34.2244 4.12109 29.9755V22.9258H23.0016V29.9755C22.9985 34.2244 19.5186 37.6701 15.2274 37.6701Z" fill="#FFC85C"/>
<path d="M20.7537 20.0707V29.739C20.7537 31.644 19.1434 33.1847 17.1562 33.1847C15.1689 33.1847 13.5586 31.641 13.5586 29.739V20.0707C13.5586 18.1657 15.1689 16.625 17.1562 16.625C19.1404 16.622 20.7537 18.1657 20.7537 20.0707Z" fill="#F0AE2B"/>
<path d="M18.1364 31.4765H3.69486C2.92891 31.4765 2.30469 30.8614 2.30469 30.1V2.29837C2.30469 1.53996 2.92589 0.921875 3.69486 0.921875H18.1364C18.9024 0.921875 19.5266 1.53697 19.5266 2.29837V30.1C19.5266 30.8614 18.9024 31.4765 18.1364 31.4765Z" fill="#0088DB"/>
<path d="M18.1666 31.4773H3.66169C2.91082 31.4773 2.30469 30.8741 2.30469 30.1336V3.6249C2.30469 2.88141 2.91383 2.28125 3.66169 2.28125H18.1666C18.9174 2.28125 19.5236 2.8844 19.5236 3.6249V30.1336C19.5266 30.8741 18.9174 31.4773 18.1666 31.4773Z" fill="#034A7D"/>
<path d="M17.7392 2.27734H4.09375V27.6007H17.7392V2.27734Z" fill="#0697FF"/>
<path d="M10.9119 20.0775C13.0853 20.0775 14.8472 18.3891 14.8472 16.3063C14.8472 14.2236 13.0853 12.5352 10.9119 12.5352C8.73846 12.5352 6.97656 14.2236 6.97656 16.3063C6.97656 18.3891 8.73846 20.0775 10.9119 20.0775Z" fill="#034A7D"/>
<path d="M11.3345 16.3079C11.7114 16.3079 12.019 16.6035 12.019 16.9648C12.019 17.3291 11.7114 17.6217 11.3345 17.6217H9.80859V14.9941H11.3345C11.7114 14.9941 12.019 15.2897 12.019 15.651C12.019 16.0153 11.7114 16.3079 11.3345 16.3079ZM11.3345 16.3079H9.80859" stroke="#FFC85C" stroke-width="1.0436" stroke-miterlimit="10"/>
<path d="M11.043 13.8535V14.9941" stroke="#FFC85C" stroke-width="1.0436" stroke-miterlimit="10"/>
<path d="M11.043 17.6211V18.7617" stroke="#FFC85C" stroke-width="1.0436" stroke-miterlimit="10"/>
<path d="M10.3828 13.8535V14.9941" stroke="#FFC85C" stroke-width="1.0436" stroke-miterlimit="10"/>
<path d="M10.3828 17.6211V18.7617" stroke="#FFC85C" stroke-width="1.0436" stroke-miterlimit="10"/>
<path d="M7.01562 11.5826L7.69111 12.2306L14.8169 5.40184L14.1414 4.75391L7.01562 11.5826Z" fill="#068FF2"/>
<path d="M11.8086 10.9581L12.4841 11.606L14.8151 9.37255L14.1396 8.72461L11.8086 10.9581Z" fill="#068FF2"/>
<path d="M14.3188 2.27734H7.51562V2.95514H14.3188V2.27734Z" fill="#011625"/>
<path d="M12.0281 29.2554C12.0281 29.8436 11.5305 30.3214 10.9183 30.3214C10.3062 30.3214 9.80859 29.8436 9.80859 29.2554C9.80859 28.6672 10.3062 28.1895 10.9183 28.1895C11.5305 28.1924 12.0281 28.6672 12.0281 29.2554Z" fill="#011625"/>
<path d="M17.7392 26.4863H4.09375V27.6001H17.7392V26.4863Z" fill="#068FF2"/>
<path d="M7.95232 17.1655C7.47285 17.9627 6.41137 18.2344 5.58208 17.7746L0.868751 15.1649C0.0394698 14.7051 -0.247009 13.6869 0.232466 12.8927C0.711941 12.0984 1.77342 11.8237 2.6027 12.2835L7.31604 14.8932C8.14833 15.353 8.4318 16.3682 7.95232 17.1655Z" fill="#FFC85C"/>
<path d="M7.95232 20.8946C7.47285 21.6919 6.41137 21.9636 5.58208 21.5038L0.868751 18.8941C0.0394698 18.4343 -0.247009 17.4161 0.232466 16.6218C0.711941 15.8246 1.77342 15.5529 2.6027 16.0127L7.31604 18.6224C8.14833 19.0822 8.4318 20.1004 7.95232 20.8946Z" fill="#FFC85C"/>
<path d="M7.95232 24.6251C7.47285 25.4223 6.41137 25.694 5.58208 25.2342L0.868751 22.6246C0.0394698 22.1647 -0.247009 21.1465 0.232466 20.3523C0.711941 19.5551 1.77342 19.2833 2.6027 19.7432L7.31604 22.3528C8.14833 22.8127 8.4318 23.8308 7.95232 24.6251Z" fill="#FFC85C"/>
<path d="M7.95232 28.3536C7.47285 29.1479 6.41137 29.4226 5.58208 28.9627L0.868751 26.3531C0.0394698 25.8932 -0.247009 24.875 0.232466 24.0808C0.711941 23.2836 1.77342 23.0119 2.6027 23.4717L7.31604 26.0813C8.14833 26.5412 8.4318 27.5594 7.95232 28.3536Z" fill="#FFC85C"/>
<path d="M7.95232 17.1654C7.47285 17.9626 6.41137 18.2343 5.58209 17.7745L0.868751 15.1648C0.0394698 14.705 -0.247009 13.6868 0.232466 12.8926L7.95232 17.1654Z" fill="#F0AE2B"/>
<path d="M7.95232 20.8959C7.47285 21.6931 6.41137 21.9648 5.58209 21.505L0.868751 18.8953C0.0394698 18.4355 -0.247009 17.4173 0.232466 16.623L7.95232 20.8959Z" fill="#F0AE2B"/>
<path d="M7.95232 24.6244C7.47285 25.4216 6.41137 25.6933 5.58209 25.2335L0.868751 22.6238C0.0394698 22.164 -0.247009 21.1458 0.232466 20.3516L7.95232 24.6244Z" fill="#F0AE2B"/>
<path d="M7.95232 28.3529C7.47285 29.1471 6.41137 29.4218 5.58209 28.962L0.868751 26.3523C0.0394698 25.8925 -0.247009 24.8743 0.232466 24.0801L7.95232 28.3529Z" fill="#F0AE2B"/>
</svg>
