<svg width="42" height="38" viewBox="0 0 42 38" fill="none" xmlns="http://www.w3.org/2000/svg">
<path d="M25.1238 15.7118L36 38H12L22.8762 15.7118C23.3393 14.7627 24.6606 14.7627 25.1238 15.7118Z" fill="#FFC85C"/>
<path d="M25 15.5783V38H12L23.855 15.3198C24.1381 14.7752 25 14.969 25 15.5783Z" fill="#F0AE2B"/>
<path d="M18.4946 13.6975L30.9999 38H4.53849C4.13975 38 3.87903 37.5916 4.05693 37.2459L16.1727 13.6975C16.6512 12.7675 18.0161 12.7675 18.4946 13.6975Z" fill="#FFC85C"/>
<path d="M17 13.5681V38H4.4227C4.1102 38 3.90485 37.6658 4.04473 37.3827L15.9375 13.3151C16.2054 12.7792 17 12.9688 17 13.5681Z" fill="#F0AE2B"/>
<path d="M32.3093 21.7038L38.7619 34.7474C39.5023 36.2414 38.4259 38 36.7726 38H22L30.0613 21.7008C30.5222 20.7659 31.8454 20.7659 32.3093 21.7038Z" fill="#FFC85C"/>
<path d="M31 21.5736V38H22L29.9628 21.3172C30.2221 20.777 31 20.9693 31 21.5736Z" fill="#F0AE2B"/>
<path d="M10.9387 21.703L19 38H4.22737C2.57408 38 1.49766 36.2416 2.23807 34.7478L8.69068 21.706C9.15158 20.7652 10.4748 20.7652 10.9387 21.703Z" fill="#FFC85C"/>
<path d="M10 21.5736V38H4.28019C2.58769 38 1.48575 36.2145 2.24372 34.6976L8.91631 21.3172C9.18419 20.777 10 20.9693 10 21.5736Z" fill="#F0AE2B"/>
<path d="M42 18.8719L40.872 20L26.2335 5.36147C25.9222 5.0502 25.9222 4.54473 26.2335 4.23346C26.5447 3.92218 27.0502 3.92218 27.3615 4.23346L42 18.8719Z" fill="#F0AE2B"/>
<path d="M42 19.4262L41.414 20L26.242 5.14472C25.9193 4.82884 25.9193 4.31588 26.242 4L42 19.4262Z" fill="#DB961D"/>
<path d="M29 7.43387L22.256 13.9567C22.1431 14.0659 21.9559 13.951 22.0094 13.8073C23.7177 9.20107 27.5145 6 27.5145 6L29 7.43387Z" fill="#068FF2"/>
<path d="M29 7.79149L22.1877 13.9446C22.0737 14.0476 21.9476 13.9961 22.0226 13.8795C24.3904 10.1118 28.1237 7 28.1237 7L29 7.79149Z" fill="#0088DB"/>
<path d="M29.4339 7L35.9567 0.255992C36.0659 0.143097 35.951 -0.0440768 35.8073 0.00939997C31.2011 1.71769 28 5.51453 28 5.51453L29.4339 7Z" fill="#068FF2"/>
<path d="M29.7915 7L35.9446 0.187699C36.0476 0.0736601 35.9961 -0.0523881 35.8795 0.0226373C32.1118 2.39044 29 6.12371 29 6.12371L29.7915 7Z" fill="#0088DB"/>
<path d="M29.5355 3.46447L26 7L29.5355 10.5355L33.0711 7L29.5355 3.46447Z" fill="#011625"/>
<path d="M28.8284 4.17157L26 7L28.8284 9.82843L31.6569 7L28.8284 4.17157Z" fill="#034A7D"/>
<path d="M22 36H17V37H22V36Z" fill="#DB961D"/>
<path d="M22 35H17V36H22V35Z" fill="#F0AE2B"/>
<path d="M16 34H21V32.9998H16V34Z" fill="#DB961D"/>
<path d="M16 35H21V33.9998H16V35Z" fill="#F0AE2B"/>
<path d="M12 36H17V34.9992H12V36Z" fill="#DB961D"/>
<path d="M12 37H17V35.9992H12V37Z" fill="#F0AE2B"/>
<path d="M27 37H22V38H27V37Z" fill="#DB961D"/>
<path d="M27 35H22V36H27V35Z" fill="#F0AE2B"/>
<path d="M26 34H21V35H26V34Z" fill="#FFC85C"/>
<path d="M32 37H27V38H32V37Z" fill="#FFC85C"/>
<path d="M5 37H0V38H5V37Z" fill="#DB961D"/>
<path d="M6 35H1V36H6V35Z" fill="#FFC85C"/>
<path d="M10 37H5V38H10V37Z" fill="#DB961D"/>
<path d="M11 35H6V36H11V35Z" fill="#DB961D"/>
<path d="M10 34H5V35H10V34Z" fill="#FFC85C"/>
<path d="M10 33H5V34H10V33Z" fill="#DB961D"/>
<path d="M11 32H6V33H11V32Z" fill="#FFC85C"/>
</svg>
