<svg width="33" height="42" viewBox="0 0 33 42" fill="none" xmlns="http://www.w3.org/2000/svg">
<path d="M24.031 18.8589H19.7527V7.91003C19.7527 5.93168 18.1552 4.32081 16.1932 4.32081C14.2313 4.32081 12.6338 5.93168 12.6338 7.91003V18.8589H8.35547V7.91003C8.35547 3.55062 11.87 0.00671194 16.1932 0.00671194C16.4229 0.00671194 18.5845 -0.00838993 18.6993 0.00671194C22.5333 0.520176 24.031 3.90299 24.031 7.91003V18.8589Z" fill="#0088DB"/>
<path d="M22.1038 42.0005H10.2074C5.03048 42.0005 0.832031 37.7669 0.832031 32.5467V24.0796C0.832031 21.1951 3.14842 18.8594 6.00895 18.8594H23.7812V40.3091C23.7862 41.2404 23.0324 42.0005 22.1038 42.0005Z" fill="#034A7D"/>
<path d="M23.4616 41.9997H19.2582C14.0813 41.9997 9.88281 37.7661 9.88281 32.5459V18.8535H27.6551C30.5156 18.8535 32.832 21.1893 32.832 24.0737V32.5409C32.837 37.7661 28.6385 41.9997 23.4616 41.9997Z" fill="#0088DB"/>
<path d="M26.5388 18.86H22.2605V7.91113C22.2605 5.93278 20.663 4.32192 18.7011 4.32192C16.7391 4.32192 15.1416 5.93278 15.1416 7.91113V18.86H10.8633V7.91113C10.8633 3.55172 14.3778 0.0078125 18.7011 0.0078125C23.0193 0.0078125 26.5388 3.55172 26.5388 7.91113V18.86Z" fill="#068FF2"/>
<path d="M20.7698 27.0644C20.7698 25.4888 19.4069 24.2303 17.8044 24.4216C16.6662 24.5575 15.7127 25.4737 15.528 26.6164C15.3233 27.895 16.0172 29.0327 17.0756 29.4958L16.7361 32.1085C16.6263 32.9592 17.2803 33.7143 18.1339 33.7143C18.9826 33.7143 19.6416 32.9592 19.5317 32.1085L19.1923 29.4958C20.1158 29.0881 20.7698 28.1518 20.7698 27.0644Z" fill="#011625"/>
</svg>
