<svg width="44" height="42" viewBox="0 0 44 42" fill="none" xmlns="http://www.w3.org/2000/svg">
<path d="M36.0369 35.9027H8.96315L4 15.957H41L36.0369 35.9027Z" fill="#0697FF"/>
<path d="M8.96315 35.9027L4 15.957H41L8.96315 35.9027Z" fill="#068FF2"/>
<path d="M41.0933 15.9564H2.90666C1.30236 15.9564 0 14.6158 0 12.9645C0 11.3132 1.30236 9.97266 2.90666 9.97266H41.0933C42.6976 9.97266 44 11.3132 44 12.9645C44 14.6196 42.6976 15.9564 41.0933 15.9564Z" fill="#0088DB"/>
<path d="M44 12.9648C44 14.6162 42.6976 15.9567 41.0933 15.9567H2.90666C1.30236 15.9567 0 14.6162 0 12.9648H44Z" fill="#034A7D"/>
<path d="M23 27.9248C25.7614 27.9248 28 25.9155 28 23.437C28 20.9585 25.7614 18.9492 23 18.9492C20.2386 18.9492 18 20.9585 18 23.437C18 25.9155 20.2386 27.9248 23 27.9248Z" fill="#034A7D"/>
<path d="M23.0726 22.9396C23.5832 22.9396 24 23.3828 24 23.9347C24 24.4826 23.587 24.9298 23.0726 24.9298H21V20.9414V20.9495H23.0726C23.5832 20.9495 24 21.3926 24 21.9446C24 22.4925 23.587 22.9396 23.0726 22.9396ZM23.0726 22.9396H21" stroke="#FFC85C" stroke-width="1.1556" stroke-miterlimit="10"/>
<path d="M25 19.9453V20.9433" stroke="#FFC85C" stroke-width="1.1556" stroke-miterlimit="10"/>
<path d="M25 25.9297V26.9277" stroke="#FFC85C" stroke-width="1.1556" stroke-miterlimit="10"/>
<path d="M23 19.9453V20.9433" stroke="#FFC85C" stroke-width="1.1556" stroke-miterlimit="10"/>
<path d="M23 25.9297V26.9277" stroke="#FFC85C" stroke-width="1.1556" stroke-miterlimit="10"/>
<path d="M17.6209 38.7935C20.0855 37.0227 20.7047 33.5524 19.0041 31.0423C17.3035 28.5323 13.927 27.933 11.4624 29.7038C8.9979 31.4746 8.37863 34.9449 10.0792 37.455C11.7799 39.965 15.1564 40.5643 17.6209 38.7935Z" fill="#0088DB"/>
<path d="M20.2512 30.916C21.8342 33.8222 20.8258 37.4979 17.9947 39.1229C15.1637 40.7479 11.583 39.7127 10 36.8065L20.2512 30.916Z" fill="#034A7D"/>
<path d="M17.4905 33.2135C18.5674 35.375 17.8824 38.1077 15.9522 39.32C14.0256 40.5281 11.59 39.7597 10.5095 37.5941C9.43264 35.4326 10.1176 32.6999 12.0478 31.4876C13.9744 30.2795 16.41 31.0479 17.4905 33.2135Z" fill="#011625"/>
<path d="M10.4761 36.8978C9.4698 34.961 10.1099 32.5124 11.9137 31.4262C13.7141 30.3437 15.9903 31.0323 17 32.9727L10.4761 36.8978Z" fill="#034A7D"/>
<path d="M31.6893 39.4563C34.5479 38.4318 36.0787 35.2741 35.1085 32.4034C34.1382 29.5328 31.0344 28.0363 28.1759 29.0609C25.3173 30.0854 23.7865 33.2431 24.7567 36.1138C25.7269 38.9844 28.8308 40.4809 31.6893 39.4563Z" fill="#0088DB"/>
<path d="M35.2512 30.916C36.8342 33.8222 35.8258 37.4979 32.9947 39.1229C30.1637 40.7479 26.583 39.7127 25 36.8065L35.2512 30.916Z" fill="#034A7D"/>
<path d="M33.4905 33.2135C34.5674 35.375 33.8824 38.1077 31.9522 39.32C30.0256 40.5281 27.59 39.7597 26.5095 37.5941C25.4326 35.4326 26.1176 32.6999 28.0478 31.4876C29.9744 30.2795 32.41 31.0479 33.4905 33.2135Z" fill="#011625"/>
<path d="M26.4761 36.8978C25.4698 34.961 26.1099 32.5124 27.9137 31.4262C29.7141 30.3437 31.9903 31.0323 33 32.9727L26.4761 36.8978Z" fill="#034A7D"/>
<path d="M16 8.97461H11V9.97193H16V8.97461Z" fill="#DB961D"/>
<path d="M16 8.97461H11V9.97193H16V8.97461Z" fill="#F0AE2B"/>
<path d="M15 6.98047H10V7.97779H15V6.98047Z" fill="#FFC85C"/>
<path d="M9 8.97461H4V9.97193H9V8.97461Z" fill="#DB961D"/>
<path d="M10 8.97461H5V9.97193H10V8.97461Z" fill="#F0AE2B"/>
<path d="M9 6.98047H4V7.97779H9V6.98047Z" fill="#FFC85C"/>
<path d="M18 8.97461H14V9.97193H18V8.97461Z" fill="#DB961D"/>
<path d="M18 8.97461H14V9.97193H18V8.97461Z" fill="#F0AE2B"/>
<path d="M18 6.98047H14V7.97779H18V6.98047Z" fill="#FFC85C"/>
<path d="M22 8.97461H18V9.97193H22V8.97461Z" fill="#DB961D"/>
<path d="M22 8.97461H18V9.97193H22V8.97461Z" fill="#F0AE2B"/>
<path d="M22 6.98047H18V7.97779H22V6.98047Z" fill="#FFC85C"/>
<path d="M26 8.97461H22V9.97193H26V8.97461Z" fill="#DB961D"/>
<path d="M26 8.97461H22V9.97193H26V8.97461Z" fill="#F0AE2B"/>
<path d="M26 6.98047H22V7.97779H26V6.98047Z" fill="#FFC85C"/>
<path d="M18 3.99023H14V4.98755H18V3.99023Z" fill="#DB961D"/>
<path d="M18 3.99023H14V4.98755H18V3.99023Z" fill="#F0AE2B"/>
<path d="M18 2.99219H14V3.98951H18V2.99219Z" fill="#FFC85C"/>
<path d="M22 3.99023H18V4.98755H22V3.99023Z" fill="#DB961D"/>
<path d="M22 3.99023H18V4.98755H22V3.99023Z" fill="#F0AE2B"/>
<path d="M22 2.99219H18V3.98951H22V2.99219Z" fill="#FFC85C"/>
<path d="M21 2.99219H17V3.98951H21V2.99219Z" fill="#DB961D"/>
<path d="M26 3.99023H22V4.98755H26V3.99023Z" fill="#DB961D"/>
<path d="M26 3.99023H22V4.98755H26V3.99023Z" fill="#F0AE2B"/>
<path d="M26 2.99219H22V3.98951H26V2.99219Z" fill="#FFC85C"/>
<path d="M28 1.99414H23V2.99146H28V1.99414Z" fill="#DB961D"/>
<path d="M27 1.99414H22V2.99146H27V1.99414Z" fill="#F0AE2B"/>
<path d="M27 0H22V0.997319H27V0Z" fill="#FFC85C"/>
<path d="M30 8.97461H26V9.97193H30V8.97461Z" fill="#DB961D"/>
<path d="M30 8.97461H26V9.97193H30V8.97461Z" fill="#F0AE2B"/>
<path d="M30 6.98047H26V7.97779H30V6.98047Z" fill="#FFC85C"/>
<path d="M34 8.97461H30V9.97193H34V8.97461Z" fill="#DB961D"/>
<path d="M36 8.97461H32V9.97193H36V8.97461Z" fill="#F0AE2B"/>
<path d="M34 6.98047H30V7.97779H34V6.98047Z" fill="#FFC85C"/>
<path d="M32 4.98633H28V5.98365H32V4.98633Z" fill="#DB961D"/>
<path d="M34 4.98633H30V5.98365H34V4.98633Z" fill="#F0AE2B"/>
<path d="M32 2.99219H28V3.98951H32V2.99219Z" fill="#FFC85C"/>
</svg>
