<svg width="32" height="30" viewBox="0 0 32 30" fill="none" xmlns="http://www.w3.org/2000/svg">
<path d="M26.3782 25.3625H6.62175L3 11.1602H30L26.3782 25.3625Z" fill="#0697FF"/>
<path d="M6.62175 25.3625L3 11.1602H30L6.62175 25.3625Z" fill="#068FF2"/>
<path d="M29.8861 11.1594H2.11393C0.947169 11.1594 0 10.2503 0 9.13047C0 8.01063 0.947169 7.10156 2.11393 7.10156H29.8861C31.0528 7.10156 32 8.01063 32 9.13047C32 10.2528 31.0528 11.1594 29.8861 11.1594Z" fill="#0088DB"/>
<path d="M32 9.13086C32 10.2507 31.0528 11.1598 29.8861 11.1598H2.11393C0.947169 11.1598 0 10.2507 0 9.13086H32Z" fill="#034A7D"/>
<path d="M16.5 19.2742C18.433 19.2742 20 17.9116 20 16.2309C20 14.5501 18.433 13.1875 16.5 13.1875C14.567 13.1875 13 14.5501 13 16.2309C13 17.9116 14.567 19.2742 16.5 19.2742Z" fill="#034A7D"/>
<path d="M16.3817 16.7415C16.7222 16.7415 17 17.0797 17 17.5008C17 17.9189 16.7247 18.2602 16.3817 18.2602H15V15.2168V15.2229H16.3817C16.7222 15.2229 17 15.5611 17 15.9822C17 16.4003 16.7247 16.7415 16.3817 16.7415ZM16.3817 16.7415H15" stroke="#FFC85C" stroke-width="1.1556" stroke-miterlimit="10"/>
<path d="M17 14.2031V15.2176" stroke="#FFC85C" stroke-width="1.1556" stroke-miterlimit="10"/>
<path d="M17 18.2617V19.2762" stroke="#FFC85C" stroke-width="1.1556" stroke-miterlimit="10"/>
<path d="M16 14.2031V15.2176" stroke="#FFC85C" stroke-width="1.1556" stroke-miterlimit="10"/>
<path d="M16 18.2617V19.2762" stroke="#FFC85C" stroke-width="1.1556" stroke-miterlimit="10"/>
<path d="M12.8353 27.6692C14.6438 26.3821 15.0889 23.8461 13.8294 22.0049C12.57 20.1637 10.083 19.7145 8.27453 21.0016C6.46606 22.2886 6.02096 24.8246 7.28039 26.6658C8.53981 28.507 11.0268 28.9563 12.8353 27.6692Z" fill="#0088DB"/>
<path d="M14.4554 22.3184C15.6067 24.2892 14.8733 26.7818 12.8144 27.8838C10.7554 28.9858 8.15125 28.2838 7 26.313L14.4554 22.3184Z" fill="#034A7D"/>
<path d="M12.6179 23.8764C13.4255 25.3422 12.9118 27.1954 11.4642 28.0174C10.0192 28.8367 8.19247 28.3156 7.3821 26.847C6.57448 25.3812 7.08817 23.5281 8.53584 22.706C9.98077 21.8867 11.8075 22.4078 12.6179 23.8764Z" fill="#011625"/>
<path d="M7.34008 26.3762C6.62128 25.0628 7.07847 23.4023 8.36692 22.6657C9.65292 21.9316 11.2788 22.3985 12 23.7144L7.34008 26.3762Z" fill="#034A7D"/>
<path d="M23.3923 28.6471C25.4775 27.9069 26.582 25.59 25.8594 23.4722C25.1367 21.3544 22.8606 20.2377 20.7755 20.978C18.6903 21.7183 17.5858 24.0352 18.3084 26.1529C19.031 28.2707 21.3072 29.3874 23.3923 28.6471Z" fill="#0088DB"/>
<path d="M25.4554 22.3184C26.6067 24.2892 25.8733 26.7818 23.8144 27.8838C21.7554 28.9858 19.1512 28.2838 18 26.313L25.4554 22.3184Z" fill="#034A7D"/>
<path d="M24.6179 23.8764C25.4255 25.3422 24.9118 27.1954 23.4642 28.0174C22.0192 28.8367 20.1925 28.3156 19.3821 26.847C18.5745 25.3812 19.0882 23.5281 20.5358 22.706C21.9808 21.8867 23.8075 22.4078 24.6179 23.8764Z" fill="#011625"/>
<path d="M19.3401 26.3762C18.6213 25.0628 19.0785 23.4023 20.3669 22.6657C21.6529 21.9316 23.2788 22.3985 24 23.7144L19.3401 26.3762Z" fill="#034A7D"/>
<path d="M11 6.08594H8V7.10039H11V6.08594Z" fill="#DB961D"/>
<path d="M11 6.08594H8V7.10039H11V6.08594Z" fill="#F0AE2B"/>
<path d="M10 5.07227H7V6.08672H10V5.07227Z" fill="#FFC85C"/>
<path d="M6 6.08594H3V7.10039H6V6.08594Z" fill="#DB961D"/>
<path d="M7 6.08594H4V7.10039H7V6.08594Z" fill="#F0AE2B"/>
<path d="M6 5.07227H3V6.08672H6V5.07227Z" fill="#FFC85C"/>
<path d="M13 6.08594H10V7.10039H13V6.08594Z" fill="#DB961D"/>
<path d="M13 6.08594H10V7.10039H13V6.08594Z" fill="#F0AE2B"/>
<path d="M13 5.07227H10V6.08672H13V5.07227Z" fill="#FFC85C"/>
<path d="M16 6.08594H13V7.10039H16V6.08594Z" fill="#DB961D"/>
<path d="M16 6.08594H13V7.10039H16V6.08594Z" fill="#F0AE2B"/>
<path d="M16 5.07227H13V6.08672H16V5.07227Z" fill="#FFC85C"/>
<path d="M19 6.08594H16V7.10039H19V6.08594Z" fill="#DB961D"/>
<path d="M19 6.08594H16V7.10039H19V6.08594Z" fill="#F0AE2B"/>
<path d="M19 5.07227H16V6.08672H19V5.07227Z" fill="#FFC85C"/>
<path d="M13 3.04297H10V4.05742H13V3.04297Z" fill="#DB961D"/>
<path d="M13 3.04297H10V4.05742H13V3.04297Z" fill="#F0AE2B"/>
<path d="M13 2.0293H10V3.04375H13V2.0293Z" fill="#FFC85C"/>
<path d="M16 3.04297H13V4.05742H16V3.04297Z" fill="#DB961D"/>
<path d="M16 3.04297H13V4.05742H16V3.04297Z" fill="#F0AE2B"/>
<path d="M16 2.0293H13V3.04375H16V2.0293Z" fill="#FFC85C"/>
<path d="M15 2.0293H12V3.04375H15V2.0293Z" fill="#DB961D"/>
<path d="M19 3.04297H16V4.05742H19V3.04297Z" fill="#DB961D"/>
<path d="M19 3.04297H16V4.05742H19V3.04297Z" fill="#F0AE2B"/>
<path d="M19 2.0293H16V3.04375H19V2.0293Z" fill="#FFC85C"/>
<path d="M20 1.01367H17V2.02812H20V1.01367Z" fill="#DB961D"/>
<path d="M19 1.01367H16V2.02812H19V1.01367Z" fill="#F0AE2B"/>
<path d="M19 0H16V1.01445H19V0Z" fill="#FFC85C"/>
<path d="M22 6.08594H19V7.10039H22V6.08594Z" fill="#DB961D"/>
<path d="M22 6.08594H19V7.10039H22V6.08594Z" fill="#F0AE2B"/>
<path d="M22 5.07227H19V6.08672H22V5.07227Z" fill="#FFC85C"/>
<path d="M25 6.08594H22V7.10039H25V6.08594Z" fill="#DB961D"/>
<path d="M26 6.08594H23V7.10039H26V6.08594Z" fill="#F0AE2B"/>
<path d="M25 5.07227H22V6.08672H25V5.07227Z" fill="#FFC85C"/>
<path d="M23 3.04297H20V4.05742H23V3.04297Z" fill="#DB961D"/>
<path d="M24 3.04297H21V4.05742H24V3.04297Z" fill="#F0AE2B"/>
<path d="M23 2.0293H20V3.04375H23V2.0293Z" fill="#FFC85C"/>
</svg>
