<svg width="32" height="26" viewBox="0 0 32 26" fill="none" xmlns="http://www.w3.org/2000/svg">
<path d="M20.2667 20.5507C20.2604 20.5536 20.2541 20.5571 20.2478 20.5593C20.2429 20.5621 20.2373 20.5643 20.2324 20.5671H11.7663C11.7552 20.5621 11.7433 20.5557 11.7321 20.5507C11.2853 20.3383 11.1944 19.7515 11.5104 19.4108C11.5482 19.3701 11.5901 19.3338 11.6391 19.301C12.5488 18.6979 13.2424 17.9044 13.8164 16.9904C13.8605 16.9213 13.9024 16.8514 13.9451 16.7801C14.3856 16.0401 14.7541 15.2267 15.0967 14.3733C15.1394 14.2671 15.182 14.1609 15.224 14.0539C15.4869 13.3824 15.7386 12.6894 15.9994 11.9922C16.2735 12.7236 16.5364 13.4494 16.8126 14.1495C16.8301 14.1951 16.8475 14.24 16.8657 14.2842C17.2601 15.2716 17.6859 16.2091 18.2152 17.0418C18.7823 17.935 19.4675 18.71 20.3597 19.3017C20.8212 19.6083 20.7659 20.3126 20.2667 20.5507Z" fill="#FEC611"/>
<path d="M20.2667 20.5496C20.2604 20.5524 20.2541 20.556 20.2478 20.5581C20.2094 20.5589 20.1702 20.561 20.1317 20.5617C20.0975 20.5624 20.0625 20.5646 20.0276 20.566H11.7663C11.7552 20.561 11.7433 20.5546 11.7321 20.5496C11.2853 20.3371 11.1944 19.7504 11.5104 19.4096C11.6244 19.3968 11.7398 19.3904 11.8537 19.3833C13.8325 19.2692 16.4609 19.2442 17.667 19.3127C17.9152 19.3269 18.2502 19.2884 18.3543 19.0589C18.4494 18.8486 18.4683 18.5898 18.3585 18.3652C18.0586 17.7564 17.553 17.6138 16.9091 17.4356C16.2651 17.2581 15.5897 17.2317 14.9345 17.1019C14.5961 17.0342 14.2562 16.9358 13.9451 16.7797C14.3856 16.0397 14.7541 15.2263 15.0967 14.3729C15.3477 14.2966 15.6036 14.2424 15.8595 14.2068C16.177 14.1633 16.4951 14.1448 16.8126 14.149C16.8301 14.1947 16.8475 14.2396 16.8657 14.2838C17.2601 15.2712 17.6859 16.2087 18.2152 17.0413C18.7823 17.9346 19.4675 18.7096 20.3597 19.3013C20.8212 19.6071 20.7659 20.3115 20.2667 20.5496Z" fill="#F59A00"/>
<path d="M8.95297 10.7199C6.29316 10.9758 3.64383 11.3772 1.01548 11.924C0.813411 11.9661 0.675667 11.7658 0.80642 11.6189C1.30496 11.0593 1.81399 10.5046 2.3349 9.95566C2.58942 9.68761 2.52369 9.29836 2.18947 9.13795C1.50633 8.81144 0.814111 8.49419 0.1128 8.18621C-0.0717931 8.10565 -0.0193528 7.86468 0.193908 7.82048C2.96629 7.24373 5.76105 6.82026 8.5663 6.55078C8.69566 7.94025 8.82431 9.32972 8.95297 10.7199Z" fill="#D73E16"/>
<path d="M6.2207 9.97077C7.09752 9.85457 7.97573 9.75476 8.85534 9.66992C8.88751 10.02 8.92037 10.37 8.95253 10.7208C8.05334 10.4534 7.14227 10.2032 6.2207 9.97077Z" fill="#B53419"/>
<path d="M23.0469 10.7199C25.7067 10.9758 28.356 11.3772 30.9844 11.924C31.1857 11.9661 31.3242 11.7658 31.1934 11.6189C30.6949 11.0593 30.1859 10.5046 29.6649 9.95566C29.4104 9.68761 29.4762 9.29836 29.8104 9.13795C30.4935 8.81144 31.1857 8.49419 31.887 8.18621C32.0716 8.10565 32.0192 7.86468 31.8059 7.82048C29.0335 7.24373 26.2388 6.82026 23.4335 6.55078C23.3042 7.94025 23.1755 9.32972 23.0469 10.7199Z" fill="#D73E16"/>
<path d="M8.82458 12.5448C0.32913 12.3231 0.171109 1.50891 8.64838 1.07617C9.65805 1.08188 9.67483 2.6125 8.66307 2.63746C1.58142 3.1144 2.89315 11.7649 9.66294 10.9187C10.6761 10.7739 10.9173 12.2853 9.90557 12.4607C9.54967 12.517 9.18818 12.5448 8.82458 12.5448Z" fill="#FEC611"/>
<path d="M23.5768 12.5256C23.4453 12.5356 23.3111 12.5413 23.1747 12.5448C22.8111 12.5448 22.4496 12.517 22.0937 12.4607C21.0827 12.2853 21.3232 10.7732 22.3371 10.9187C23.1314 11.0178 23.8502 10.9864 24.4892 10.8524C28.251 10.0667 29.2467 5.74434 26.5135 3.694C25.752 3.12295 24.6997 2.72871 23.3369 2.63746C22.3252 2.61322 22.3427 1.08259 23.3516 1.07617C24.6354 1.14176 25.7213 1.44546 26.61 1.91527C31.4947 4.49246 30.4263 12.0629 23.5768 12.5256Z" fill="#FEC611"/>
<path d="M25.7787 9.97077C24.9019 9.85457 24.0237 9.75476 23.1441 9.66992C23.1119 10.02 23.079 10.37 23.0469 10.7208C23.9468 10.4541 24.8578 10.2039 25.7787 9.97077Z" fill="#B53419"/>
<path d="M24.4885 10.8516C24.211 11.4233 23.9068 11.9822 23.5768 12.5248C23.4453 12.5348 23.3111 12.5405 23.1747 12.544C22.8111 12.544 22.4496 12.5162 22.0937 12.4599C21.0827 12.2845 21.3232 10.7724 22.3371 10.9179C23.1314 11.017 23.8502 10.9856 24.4885 10.8516Z" fill="#FBBA00"/>
<path d="M26.513 3.694C25.7515 3.12295 24.6992 2.72871 23.3364 2.63746C22.3247 2.61322 22.3421 1.08259 23.3511 1.07617C24.6349 1.14176 25.7207 1.44546 26.6094 1.91527C26.6402 2.51127 26.5836 3.13436 26.513 3.694Z" fill="#FBBA00"/>
<path d="M7.50977 10.8516C7.78735 11.4233 8.09151 11.9822 8.42154 12.5248C8.55299 12.5348 8.68724 12.5405 8.82359 12.544C9.18718 12.544 9.54867 12.5162 9.90457 12.4599C10.9156 12.2845 10.6751 10.7724 9.66125 10.9179C8.86764 11.017 8.14885 10.9856 7.50977 10.8516Z" fill="#FBBA00"/>
<path d="M5.48586 3.694C6.24731 3.12295 7.29962 2.72942 8.66239 2.63746C9.67416 2.61322 9.65668 1.08259 8.64771 1.07617C7.36395 1.14176 6.27807 1.44546 5.38937 1.91527C5.35861 2.51127 5.41594 3.13507 5.48586 3.694Z" fill="#FBBA00"/>
<path d="M25.924 0.600028C25.6268 9.57419 21.298 16.6948 16 16.6948C14.0255 16.6948 12.1858 15.706 10.6392 14.0014C8.31288 11.437 6.64945 7.25223 6.18867 2.37518C6.13273 1.79273 6.09497 1.20101 6.07539 0.600028C6.0677 0.359062 6.28725 0.160156 6.56135 0.160156H25.4373C25.7114 0.160156 25.9317 0.359062 25.924 0.600028Z" fill="#FFEB4A"/>
<path opacity="0.47" d="M25.924 0.600028C25.6268 9.57419 21.298 16.6948 16 16.6948C14.0255 16.6948 12.1858 15.706 10.6392 14.0014C11.3782 14.3072 12.1033 14.5354 13.0207 14.4997C14.6918 14.4348 16.3385 13.739 17.6047 12.6347C19.673 10.8339 20.8225 8.15407 21.4546 5.45711C21.6287 4.71568 21.7448 3.85662 21.2819 3.25848C20.8533 2.70526 20.0876 2.58692 19.3968 2.54842C17.0419 2.41724 9.51693 2.24401 6.18867 2.37518C6.13273 1.79273 6.09497 1.20101 6.07539 0.600028C6.0677 0.359062 6.28725 0.160156 6.56135 0.160156H25.4373C25.7114 0.160156 25.9317 0.359062 25.924 0.600028Z" fill="#FAD337"/>
<path d="M26.1291 1.31319H5.87079C5.6827 1.31319 5.53027 1.15778 5.53027 0.966003V0.347193C5.53027 0.155419 5.6827 0 5.87079 0H26.1291C26.3172 0 26.4696 0.155419 26.4696 0.347193V0.966003C26.4696 1.15778 26.3172 1.31319 26.1291 1.31319Z" fill="#FEC611"/>
<path d="M22.4069 21.4604V24.4539C22.4069 25.308 21.7272 25.9995 20.8903 25.9995H11.1103C11.0488 25.9995 10.9873 25.9959 10.9286 25.9881C10.1769 25.8961 9.59375 25.2445 9.59375 24.4539V21.4604C9.59375 20.6063 10.2734 19.9141 11.1103 19.9141H20.8903C21.7272 19.9141 22.4069 20.6063 22.4069 21.4604Z" fill="#544A3E"/>
<g opacity="0.44">
<path d="M12.7938 19.1938C12.7274 19.1938 12.6624 19.1624 12.6204 19.104C12.5505 19.0063 12.5715 18.8694 12.6673 18.7982C13.2245 18.3832 13.6727 17.8265 13.9622 17.1877C14.0118 17.0779 14.1398 17.0301 14.2475 17.0807C14.3552 17.1314 14.402 17.2618 14.3524 17.3716C14.0321 18.0774 13.5371 18.6926 12.9211 19.151C12.8819 19.1803 12.8379 19.1938 12.7938 19.1938Z" fill="white"/>
</g>
<path d="M22.406 21.4604V24.4539C22.406 25.308 21.7264 25.9995 20.8894 25.9995H11.1095C11.048 25.9995 10.9865 25.9959 10.9277 25.9881C11.4745 25.8548 12.0178 25.7115 12.5527 25.5169C13.6805 25.1055 14.7608 24.5616 15.7761 23.9128C16.5235 23.4344 17.2661 22.8648 17.6325 22.0471C17.9402 21.3606 17.8877 20.4623 17.4178 19.9141H20.8901C21.7264 19.9141 22.406 20.6063 22.406 21.4604Z" fill="#444135"/>
<path d="M20.3221 21.5176H11.6777V24.4605H20.3221V21.5176Z" fill="#FFEB4A"/>
<path d="M20.3225 21.5176V24.4605H15.9727C16.0076 24.4462 16.0419 24.4305 16.0754 24.4141C16.453 24.221 16.7984 23.9614 17.0886 23.6471C17.6235 23.0682 17.9668 22.3082 18.0528 21.5176H20.3225Z" fill="#FCDC2E"/>
<g opacity="0.22">
<path d="M15.0915 19.9141C14.3721 21.9316 13.6756 23.967 13.01 25.9995H11.9248C12.587 23.9684 13.2792 21.933 13.9973 19.9141H15.0915Z" fill="white"/>
</g>
<g opacity="0.22">
<path d="M17.5162 19.9141C16.7911 21.9295 16.0898 23.9656 15.4172 25.9995H13.8789C14.5453 23.967 15.2424 21.9316 15.9633 19.9141H17.5162Z" fill="white"/>
</g>
<g opacity="0.38">
<path d="M3.86669 10.1522C3.81774 10.1522 3.76949 10.1316 3.73593 10.0902C2.99127 9.1955 2.58922 8.00779 2.6039 6.74593C2.61719 5.54966 3.01294 4.02188 3.84851 3.49504C3.92961 3.44371 4.0352 3.47009 4.08484 3.55207C4.13448 3.63406 4.10652 3.73743 4.0289 3.79304C3.41989 4.22577 2.9598 5.61097 2.94722 6.75021C2.93393 7.92794 3.30731 9.03367 3.99814 9.86422C4.05967 9.93836 4.05058 10.0481 3.97856 10.1109C3.945 10.1387 3.90584 10.1522 3.86669 10.1522Z" fill="white"/>
</g>
<g opacity="0.47">
<path d="M6.14857 0.585805C6.05417 0.585805 5.97726 0.508096 5.97656 0.41114C5.97656 0.314184 6.05278 0.235766 6.14787 0.235766L17.4241 0.197266H17.4248C17.5192 0.197266 17.5961 0.274974 17.5968 0.371931C17.5968 0.468887 17.5206 0.547309 17.4255 0.547309L6.14857 0.585805C6.14927 0.585805 6.14927 0.585805 6.14857 0.585805Z" fill="white"/>
</g>
<path opacity="0.6" d="M9.66783 4.19297C9.12594 4.81963 8.87003 5.66586 8.84416 6.50068C8.81829 7.3355 9.00777 8.16319 9.26858 8.95524C9.58393 9.91197 10.0468 10.8815 10.8761 11.4333C11.69 11.9744 12.7304 12.0243 13.6918 11.8853C14.6155 11.7513 15.5762 11.4176 16.1391 10.6591C16.7558 9.82785 16.7565 8.69218 16.6747 7.65275C16.5977 6.67962 16.4565 5.66657 15.9062 4.86739C15.4867 4.25785 14.8553 3.82226 14.1757 3.55064C12.7437 2.97817 10.7796 2.90759 9.66783 4.19297Z" fill="#FFF377"/>
<path d="M25.7784 9.97045C19.2862 9.11139 12.7122 9.11139 6.22001 9.97045C6.04381 8.58597 5.86761 7.2022 5.69141 5.81772C12.5346 4.91232 19.4638 4.91232 26.3063 5.81772C26.1308 7.2022 25.9546 8.58668 25.7784 9.97045Z" fill="#F34522"/>
</svg>
