<svg width="210" height="165" viewBox="0 0 210 165" fill="none" xmlns="http://www.w3.org/2000/svg">
<path fill-rule="evenodd" clip-rule="evenodd" d="M74.414 164.996V64.4411L0 22.8496L1.36739 116.052L74.414 164.996Z" fill="url(#paint0_radial_1_37338)"/>
<path fill-rule="evenodd" clip-rule="evenodd" d="M74.4131 64.4454V165L208.056 135.951L209.927 39.5049L74.4131 64.4454Z" fill="url(#paint1_radial_1_37338)"/>
<path fill-rule="evenodd" clip-rule="evenodd" d="M16.1195 31.8606C13.4567 30.3468 10.722 28.8331 8.05923 27.3193C5.46842 30.563 2.80566 33.7347 0.214844 36.9063C0.286811 41.5917 0.358769 46.277 0.430736 50.9624C3.02155 47.8628 5.61234 44.6912 8.27513 41.5196C10.8659 38.348 13.5287 35.1764 16.1195 31.8606ZM24.1798 36.4017C20.2216 41.3033 16.2635 46.2049 12.3773 51.0345C8.49108 55.7919 4.53285 60.4773 0.646629 65.0185C0.718596 69.7038 0.790554 74.3892 0.862521 79.0745C6.04415 73.0196 11.2976 66.8205 16.4793 60.4772C21.7329 54.134 26.9865 47.5745 32.2401 40.9429C29.5773 39.4292 26.9145 37.9155 24.1798 36.4017ZM40.3006 45.412C33.6796 53.7736 27.1306 61.991 20.5096 69.9922C14.0326 77.8492 7.48342 85.5619 1.00638 93.0585C1.07834 97.7439 1.1503 102.429 1.22227 107.115C8.92275 98.1763 16.7673 89.0219 24.5398 79.5791C32.4562 69.9921 40.3005 60.0448 48.2888 49.8812C45.698 48.4395 43.0353 46.9258 40.3006 45.412ZM56.4211 54.4223C47.5692 65.7393 38.8611 76.84 30.0812 87.5802C21.5171 98.0322 12.8091 108.196 4.24499 117.999C6.90777 119.801 9.49863 121.531 12.1614 123.333C20.7255 113.386 29.4333 103.15 38.0694 92.4818C46.8494 81.6695 55.6295 70.4246 64.4814 58.9635C61.8186 57.3777 59.0839 55.9361 56.4211 54.4223ZM72.5417 63.4326C63.6898 75.0379 54.9098 86.4269 46.0579 97.3835C37.4218 108.124 28.7137 118.504 20.0776 128.595C22.7404 130.325 25.3313 132.127 27.994 133.929C35.6226 124.919 43.3231 115.62 51.0236 106.105C58.7961 96.3743 66.5685 86.3548 74.4129 76.1912C74.4129 72.2988 74.4129 68.4063 74.4129 64.5139C73.7652 64.0814 73.1894 63.721 72.5417 63.4326ZM74.4129 91.2565C67.9359 99.618 61.4588 107.907 55.0538 115.909C48.7206 123.838 42.2436 131.551 35.9105 139.119C38.5733 140.921 41.1641 142.651 43.8269 144.453C48.8646 138.398 53.9742 132.199 59.0119 125.856C64.1215 119.441 69.2313 112.953 74.4129 106.322C74.4129 101.348 74.4129 96.3022 74.4129 91.2565ZM74.4129 121.603C70.5987 126.433 66.7843 131.262 63.042 135.948C59.2997 140.633 55.4856 145.246 51.7433 149.787C54.4061 151.517 56.9968 153.319 59.6595 155.121C62.1064 152.166 64.5534 149.139 67.0003 146.039C69.4472 142.94 71.966 139.84 74.4129 136.74C74.4129 131.695 74.4129 126.649 74.4129 121.603ZM74.4129 151.878C72.11 154.761 69.8069 157.572 67.576 160.383C69.8789 161.897 72.11 163.411 74.4129 164.997C74.4129 160.672 74.4129 156.275 74.4129 151.878Z" fill="url(#paint2_radial_1_37338)"/>
<path opacity="0.7" fill-rule="evenodd" clip-rule="evenodd" d="M208.632 105.46C203.45 111.587 198.268 117.786 193.087 123.913C187.905 130.04 182.796 136.311 177.614 142.51C182.436 141.501 187.258 140.419 192.079 139.338C197.477 132.851 202.874 126.363 208.272 119.948C208.488 115.119 208.56 110.289 208.632 105.46ZM209.207 76.4103C199.06 88.376 188.913 100.342 178.837 112.379C168.762 124.489 158.759 136.671 148.683 148.853C153.505 147.844 158.327 146.763 163.148 145.682C170.705 136.455 178.334 127.228 185.962 118.146C193.591 108.992 201.219 99.9812 208.92 90.8988C208.992 86.0693 209.135 81.2398 209.207 76.4103ZM209.783 47.3611C194.598 65.0213 179.485 82.6815 164.516 100.63C149.475 118.579 134.65 136.815 119.824 155.124C124.646 154.115 129.468 153.034 134.29 151.953C146.74 136.671 159.19 121.462 171.713 106.469C184.235 91.4755 196.901 76.6265 209.567 61.8496C209.567 57.0201 209.639 52.1906 209.783 47.3611ZM188.409 43.4687C171.929 62.7147 155.52 82.1048 139.256 101.711C122.991 121.39 106.87 141.357 90.8216 161.395C95.6434 160.386 100.465 159.305 105.287 158.224C121.408 138.257 137.528 118.362 153.865 98.7559C170.129 79.2215 186.61 59.9034 203.09 40.7295C198.197 41.6666 193.303 42.6037 188.409 43.4687ZM159.046 48.8748C144.797 65.7421 130.547 82.6815 116.442 99.8371C102.336 116.993 88.3027 134.437 74.4131 151.881C74.4131 156.278 74.4131 160.675 74.4131 165C75.0608 164.855 75.7084 164.711 76.3561 164.567C92.4048 144.456 108.453 124.417 124.718 104.595C140.911 84.916 157.319 65.4538 173.8 46.1357C168.834 47.0727 163.94 48.0099 159.046 48.8748ZM129.756 54.281C120.472 65.3817 111.188 76.5545 101.976 87.7273C92.7646 98.9721 83.5529 110.217 74.4131 121.606C74.4131 126.652 74.4131 131.698 74.4131 136.743C85.9278 122.327 97.5865 107.982 109.245 93.7822C120.904 79.5819 132.634 65.5258 144.437 51.5419C139.543 52.4789 134.65 53.344 129.756 54.281ZM100.393 59.6872C96.0031 64.9492 91.6851 70.2112 87.3671 75.4732C83.0491 80.7352 78.7311 85.9973 74.4131 91.3314C74.4131 96.3772 74.4131 101.423 74.4131 106.469C81.106 98.1792 87.8709 89.8897 94.6358 81.6002C101.401 73.3828 108.238 65.1654 115.002 57.0201C110.109 57.8851 105.287 58.7501 100.393 59.6872ZM74.4131 64.4446C74.4131 68.3371 74.4131 72.2295 74.4131 76.122C78.1554 71.5087 81.8977 66.9675 85.712 62.3542C81.8977 63.075 78.1554 63.7238 74.4131 64.4446Z" fill="url(#paint3_radial_1_37338)"/>
<path opacity="0.5" fill-rule="evenodd" clip-rule="evenodd" d="M14.1048 122.183C5.46878 115.767 2.4461 111.226 1.22266 104.09L1.36673 115.983L74.3413 164.999V151.448C72.83 155.196 67.6484 155.557 63.4024 153.683C50.0884 147.844 26.1233 131.121 14.1048 122.183Z" fill="url(#paint4_radial_1_37338)"/>
<path fill-rule="evenodd" clip-rule="evenodd" d="M74.4131 151.445V164.996L208.056 135.947L208.416 116.269C206.401 124.126 202.515 128.667 191.144 133.785C169.41 143.588 123.783 154.04 100.105 156.563C88.3748 157.788 76.2123 157.572 74.4131 151.445Z" fill="url(#paint5_radial_1_37338)"/>
<path opacity="0.4" fill-rule="evenodd" clip-rule="evenodd" d="M0.143855 32.6528L0 22.8496L74.414 64.4411V82.2455C69.3763 65.3782 14.3933 28.6162 0.143855 32.6528Z" fill="url(#paint6_radial_1_37338)"/>
<path opacity="0.75" fill-rule="evenodd" clip-rule="evenodd" d="M74.4131 82.248C87.1513 59.4699 181.86 42.6747 209.783 47.7926L209.927 39.5752L74.4131 64.5157V82.248Z" fill="url(#paint7_radial_1_37338)"/>
<path fill-rule="evenodd" clip-rule="evenodd" d="M74.4845 64.4417L209.926 39.5012L129.755 0L0.0703125 22.8502L74.4845 64.4417Z" fill="url(#paint8_radial_1_37338)"/>
<path fill-rule="evenodd" clip-rule="evenodd" d="M129.108 54.4958L209.927 39.5027L129.468 0.217773L129.108 2.45231V54.4958Z" fill="url(#paint9_radial_1_37338)"/>
<path d="M129.323 2.30664L203.306 38.5641L74.7722 62.2072L6.40345 24.0035L129.323 2.30664ZM129.683 0L0.0703125 22.8502L74.4845 64.4417L209.998 39.5012L129.683 0Z" fill="#FF295C"/>
<defs>
<radialGradient id="paint0_radial_1_37338" cx="0" cy="0" r="1" gradientUnits="userSpaceOnUse" gradientTransform="translate(1.7049 45.5412) scale(143.63 143.861)">
<stop stop-color="#FF6163"/>
<stop offset="1" stop-color="#8F0000"/>
</radialGradient>
<radialGradient id="paint1_radial_1_37338" cx="0" cy="0" r="1" gradientUnits="userSpaceOnUse" gradientTransform="translate(31.1479 -32.8961) scale(238.942 239.325)">
<stop stop-color="#E60E10"/>
<stop offset="1" stop-color="#730000"/>
</radialGradient>
<radialGradient id="paint2_radial_1_37338" cx="0" cy="0" r="1" gradientUnits="userSpaceOnUse" gradientTransform="translate(3.64263 24.5088) scale(178.273 178.558)">
<stop stop-color="white"/>
<stop offset="1" stop-color="#FFBAF6"/>
</radialGradient>
<radialGradient id="paint3_radial_1_37338" cx="0" cy="0" r="1" gradientUnits="userSpaceOnUse" gradientTransform="translate(116.821 8.01418) scale(170.378 170.651)">
<stop stop-color="white"/>
<stop offset="1" stop-color="#FFBAF6"/>
</radialGradient>
<radialGradient id="paint4_radial_1_37338" cx="0" cy="0" r="1" gradientUnits="userSpaceOnUse" gradientTransform="translate(68.3651 84.0992) scale(85.9324 86.07)">
<stop offset="0.539" stop-color="white"/>
<stop offset="0.583" stop-color="#F9F5F6"/>
<stop offset="0.6583" stop-color="#EADADF"/>
<stop offset="0.7556" stop-color="#D1ADB8"/>
<stop offset="0.8712" stop-color="#AE7083"/>
<stop offset="1" stop-color="#822341"/>
</radialGradient>
<radialGradient id="paint5_radial_1_37338" cx="0" cy="0" r="1" gradientUnits="userSpaceOnUse" gradientTransform="translate(92.2847 32.1816) scale(174.964 175.244)">
<stop offset="0.539" stop-color="white"/>
<stop offset="0.583" stop-color="#F9F5F6"/>
<stop offset="0.6583" stop-color="#EADADF"/>
<stop offset="0.7556" stop-color="#D1ADB8"/>
<stop offset="0.8712" stop-color="#AE7083"/>
<stop offset="1" stop-color="#822341"/>
</radialGradient>
<radialGradient id="paint6_radial_1_37338" cx="0" cy="0" r="1" gradientUnits="userSpaceOnUse" gradientTransform="translate(-17.0274 143.712) scale(135.667 135.884)">
<stop offset="0.539" stop-color="white"/>
<stop offset="0.5783" stop-color="#FAF6F5"/>
<stop offset="0.6455" stop-color="#EDDEDA"/>
<stop offset="0.7325" stop-color="#D7B7AD"/>
<stop offset="0.8359" stop-color="#B98270"/>
<stop offset="0.9519" stop-color="#933E22"/>
<stop offset="1" stop-color="#822000"/>
</radialGradient>
<radialGradient id="paint7_radial_1_37338" cx="0" cy="0" r="1" gradientUnits="userSpaceOnUse" gradientTransform="translate(157.066 134.697) scale(116.099 116.285)">
<stop offset="0.539" stop-color="white"/>
<stop offset="0.5783" stop-color="#FAF6F5"/>
<stop offset="0.6455" stop-color="#EDDEDA"/>
<stop offset="0.7325" stop-color="#D7B7AD"/>
<stop offset="0.8359" stop-color="#B98270"/>
<stop offset="0.9519" stop-color="#933E22"/>
<stop offset="1" stop-color="#822000"/>
</radialGradient>
<radialGradient id="paint8_radial_1_37338" cx="0" cy="0" r="1" gradientUnits="userSpaceOnUse" gradientTransform="translate(54.2356 92.9294) scale(182.137 182.429)">
<stop stop-color="#730000"/>
<stop offset="1" stop-color="#E60E10"/>
</radialGradient>
<radialGradient id="paint9_radial_1_37338" cx="0" cy="0" r="1" gradientUnits="userSpaceOnUse" gradientTransform="translate(149.972 78.5231) scale(128.336 128.542)">
<stop stop-color="#8F0000"/>
<stop offset="1" stop-color="#FF6163"/>
</radialGradient>
</defs>
</svg>
