<svg width="20" height="20" viewBox="0 0 20 20" fill="none" xmlns="http://www.w3.org/2000/svg">
<path d="M4.397 10.1728L9.608 17.4564C9.65457 17.5213 9.71591 17.5743 9.78695 17.6108C9.858 17.6474 9.93671 17.6665 10.0166 17.6666H10.0178C10.098 17.6665 10.177 17.6472 10.2482 17.6103C10.3195 17.5735 10.3809 17.5202 10.4274 17.4548L15.6048 10.1714C15.6584 10.0962 15.6902 10.0076 15.6966 9.91538C15.7031 9.82321 15.684 9.73104 15.6414 9.64903C15.5991 9.56691 15.535 9.49805 15.4561 9.45002C15.3772 9.40199 15.2866 9.37667 15.1942 9.37683H12.7576L12.7578 2.83503C12.7578 2.76895 12.7448 2.70352 12.7195 2.64246C12.6943 2.58141 12.6572 2.52594 12.6105 2.47923C12.5637 2.43251 12.5082 2.39547 12.4472 2.37021C12.3861 2.34495 12.3207 2.33198 12.2546 2.33203L7.7464 2.33223C7.68031 2.33221 7.61487 2.3452 7.55381 2.37048C7.49274 2.39576 7.43726 2.43283 7.39053 2.47956C7.3438 2.52629 7.30673 2.58177 7.28145 2.64283C7.25617 2.7039 7.24318 2.76934 7.2432 2.83543V9.37643H4.806C4.618 9.37643 4.4454 9.48243 4.3586 9.64983C4.31617 9.73208 4.29731 9.82445 4.30408 9.91674C4.31086 10.009 4.34302 10.0977 4.397 10.1728Z" fill="white"/>
</svg>
