<svg width="12" height="16" viewBox="0 0 12 16" fill="none" xmlns="http://www.w3.org/2000/svg">
<path fill-rule="evenodd" clip-rule="evenodd" d="M3.06252 0.440084C3.18415 0.172366 3.45519 0 3.75551 0H9.74471C10.3078 0 10.675 0.579443 10.4227 1.07234L8.71911 4.40084H11.2403C11.916 4.40084 12.2539 5.19885 11.7764 5.66534L2.80199 14.4325C2.23588 14.9856 1.29286 14.4164 1.54664 13.6749L3.4597 8.0682H0.758288C0.63196 8.0682 0.507636 8.03736 0.396605 7.97849C0.285575 7.91963 0.191358 7.8346 0.122511 7.73112C0.0536643 7.62765 0.0123689 7.50901 0.00237628 7.38599C-0.00761634 7.26297 0.0140103 7.13945 0.0652917 7.02667L3.06252 0.440084Z" fill="white"/>
</svg>
