<svg width="20" height="20" viewBox="0 0 20 20" fill="none" xmlns="http://www.w3.org/2000/svg">
<path d="M15.603 9.82717L10.392 2.54357C10.3454 2.47865 10.2841 2.42574 10.213 2.3892C10.142 2.35265 10.0633 2.33351 9.9834 2.33337H9.9822C9.902 2.33354 9.82299 2.35284 9.75175 2.38968C9.68051 2.42652 9.61909 2.47982 9.5726 2.54517L4.3952 9.82857C4.34161 9.90384 4.30984 9.99244 4.30338 10.0846C4.29692 10.1768 4.31603 10.269 4.3586 10.351C4.40088 10.4331 4.465 10.502 4.5439 10.55C4.62281 10.598 4.71343 10.6233 4.8058 10.6232L7.2424 10.6232L7.2422 17.165C7.24217 17.231 7.25517 17.2965 7.28045 17.3575C7.30573 17.4186 7.3428 17.4741 7.38953 17.5208C7.43627 17.5675 7.49175 17.6045 7.55282 17.6298C7.61388 17.655 7.67932 17.668 7.7454 17.668L12.2536 17.6678C12.3197 17.6678 12.3851 17.6548 12.4462 17.6295C12.5073 17.6042 12.5627 17.5672 12.6095 17.5204C12.6562 17.4737 12.6933 17.4182 12.7185 17.3572C12.7438 17.2961 12.7568 17.2307 12.7568 17.1646V10.6236H15.194C15.382 10.6236 15.5546 10.5176 15.6414 10.3502C15.6838 10.2679 15.7027 10.1756 15.6959 10.0833C15.6891 9.99096 15.657 9.90233 15.603 9.82717Z" fill="white"/>
</svg>
