<svg width="21" height="22" viewBox="0 0 21 22" fill="none" xmlns="http://www.w3.org/2000/svg">
<path d="M20.32 18.7123L15.8267 6.83898C15.7645 6.67526 15.6707 6.52537 15.5507 6.3979C15.4306 6.27042 15.2866 6.16784 15.1269 6.09603C14.9671 6.02422 14.7948 5.98457 14.6198 5.97936C14.4447 5.97415 14.2704 6.00347 14.1067 6.06565L12 6.85898V4.90565C12 4.56617 11.8651 4.2406 11.6251 4.00055C11.3851 3.76051 11.0595 3.62565 10.72 3.62565H7.33333V2.23898C7.33333 1.89951 7.19848 1.57393 6.95843 1.33389C6.71838 1.09384 6.39281 0.958984 6.05333 0.958984H1.33333C0.979711 0.958984 0.640573 1.09946 0.390524 1.34951C0.140476 1.59956 0 1.9387 0 2.29232V20.2923C0 20.4691 0.0702379 20.6387 0.195262 20.7637C0.320286 20.8887 0.489856 20.959 0.666667 20.959H11.3333C11.5101 20.959 11.6797 20.8887 11.8047 20.7637C11.9298 20.6387 12 20.4691 12 20.2923V11.8057L15.3333 20.6123C15.3644 20.6942 15.4113 20.7691 15.4713 20.8329C15.5314 20.8966 15.6034 20.9479 15.6832 20.9838C15.7631 21.0197 15.8493 21.0395 15.9368 21.0421C16.0243 21.0447 16.1115 21.0301 16.1933 20.999L19.9333 19.5723C20.0152 19.5412 20.0901 19.4944 20.1539 19.4343C20.2176 19.3743 20.2689 19.3023 20.3048 19.2224C20.3407 19.1426 20.3605 19.0564 20.3631 18.9689C20.3658 18.8814 20.3511 18.7942 20.32 18.7123ZM6 4.84565V19.6257H1.33333V2.29232H6V4.84565ZM10.6667 19.6257H7.33333V4.95898H10.6667V19.6257ZM16.34 19.459L12.0867 8.23898L14.58 7.29232L18.84 18.5123L16.34 19.459Z" fill="black"/>
</svg>
