<svg width="16" height="16" viewBox="0 0 16 16" fill="none" xmlns="http://www.w3.org/2000/svg">
<path d="M8 11.334C8.18889 11.334 8.34733 11.27 8.47533 11.142C8.60333 11.014 8.66711 10.8558 8.66667 10.6673C8.66622 10.4789 8.60222 10.3207 8.47467 10.1927C8.34711 10.0647 8.18889 10.0007 8 10.0007C7.81111 10.0007 7.65289 10.0647 7.52533 10.1927C7.39778 10.3207 7.33378 10.4789 7.33333 10.6673C7.33289 10.8558 7.39689 11.0142 7.52533 11.1426C7.65378 11.2711 7.812 11.3349 8 11.334ZM8 8.66732C8.18889 8.66732 8.34733 8.60332 8.47533 8.47532C8.60333 8.34732 8.66711 8.1891 8.66667 8.00065V5.33398C8.66667 5.1451 8.60267 4.98687 8.47467 4.85932C8.34667 4.73176 8.18844 4.66776 8 4.66732C7.81155 4.66687 7.65333 4.73087 7.52533 4.85932C7.39733 4.98776 7.33333 5.14598 7.33333 5.33398V8.00065C7.33333 8.18954 7.39733 8.34798 7.52533 8.47598C7.65333 8.60398 7.81155 8.66776 8 8.66732ZM8 14.6673C7.07778 14.6673 6.21111 14.4922 5.4 14.142C4.58889 13.7918 3.88333 13.3169 3.28333 12.7173C2.68333 12.1178 2.20844 11.4122 1.85867 10.6006C1.50889 9.78909 1.33378 8.92243 1.33333 8.00065C1.33289 7.07887 1.508 6.21221 1.85867 5.40065C2.20933 4.5891 2.68422 3.88354 3.28333 3.28398C3.88244 2.68443 4.588 2.20954 5.4 1.85932C6.212 1.5091 7.07867 1.33398 8 1.33398C8.92133 1.33398 9.788 1.5091 10.6 1.85932C11.412 2.20954 12.1176 2.68443 12.7167 3.28398C13.3158 3.88354 13.7909 4.5891 14.142 5.40065C14.4931 6.21221 14.668 7.07887 14.6667 8.00065C14.6653 8.92243 14.4902 9.78909 14.1413 10.6006C13.7924 11.4122 13.3176 12.1178 12.7167 12.7173C12.1158 13.3169 11.4102 13.792 10.6 14.1426C9.78978 14.4933 8.92311 14.6682 8 14.6673ZM8 13.334C9.48889 13.334 10.75 12.8173 11.7833 11.784C12.8167 10.7507 13.3333 9.48954 13.3333 8.00065C13.3333 6.51176 12.8167 5.25065 11.7833 4.21732C10.75 3.18398 9.48889 2.66732 8 2.66732C6.51111 2.66732 5.25 3.18398 4.21667 4.21732C3.18333 5.25065 2.66667 6.51176 2.66667 8.00065C2.66667 9.48954 3.18333 10.7507 4.21667 11.784C5.25 12.8173 6.51111 13.334 8 13.334Z" fill="black"/>
</svg>
