<svg width="80" height="80" viewBox="0 0 80 80" fill="none" xmlns="http://www.w3.org/2000/svg">
<path d="M40 24.0009C40.5304 24.0009 41.0391 24.2116 41.4142 24.5867C41.7893 24.9618 42 25.4705 42 26.0009V46.0009C42 46.5314 41.7893 47.0401 41.4142 47.4151C41.0391 47.7902 40.5304 48.0009 40 48.0009C39.4696 48.0009 38.9609 47.7902 38.5858 47.4151C38.2107 47.0401 38 46.5314 38 46.0009V26.0009C38 25.4705 38.2107 24.9618 38.5858 24.5867C38.9609 24.2116 39.4696 24.0009 40 24.0009ZM40 58.0009C40.7956 58.0009 41.5587 57.6848 42.1213 57.1222C42.6839 56.5596 43 55.7966 43 55.0009C43 54.2053 42.6839 53.4422 42.1213 52.8796C41.5587 52.317 40.7956 52.0009 40 52.0009C39.2044 52.0009 38.4413 52.317 37.8787 52.8796C37.3161 53.4422 37 54.2053 37 55.0009C37 55.7966 37.3161 56.5596 37.8787 57.1222C38.4413 57.6848 39.2044 58.0009 40 58.0009ZM38.892 8.33692C39.2202 8.11849 39.6057 8.00195 40 8.00195C40.3943 8.00195 40.7798 8.11849 41.108 8.33692C48.6595 13.4277 57.2675 16.7388 66.284 18.0209C66.7604 18.0893 67.1962 18.3271 67.5114 18.6908C67.8266 19.0545 68.0001 19.5196 68 20.0009V38.0009C68 53.5649 58.772 64.9209 40.72 71.8689C40.2567 72.0477 39.7433 72.0477 39.28 71.8689C21.232 64.9209 12 53.5609 12 38.0009V20.0009C12.0001 19.519 12.1741 19.0534 12.4901 18.6896C12.8061 18.3258 13.2429 18.0884 13.72 18.0209C22.7351 16.7382 31.3417 13.4271 38.892 8.33692ZM38.396 13.3849C31.5197 17.5422 23.9219 20.3675 16 21.7129V38.0009C16 51.5689 23.872 61.4529 40 67.8529C56.128 61.4529 64 51.5689 64 38.0009V21.7129C56.0767 20.368 48.4776 17.5427 41.6 13.3849L40 12.3889L38.396 13.3849Z" fill="#F5A600"/>
</svg>
