<svg width="216" height="290" viewBox="0 0 216 290" fill="none" xmlns="http://www.w3.org/2000/svg">
<g opacity="0.2">
<path d="M97 290C134.555 290 165 285.732 165 280.467C165 275.203 134.555 270.935 97 270.935C59.4446 270.935 29 275.203 29 280.467C29 285.732 59.4446 290 97 290Z" fill="#000072"/>
</g>
<path d="M143.577 141.488C148.792 145.413 150.052 156.346 151.168 168.596C151.958 177.264 153.207 186.478 154.671 194.564C159.036 218.688 151.916 224.463 143.962 224.767C122.616 225.583 120 164.464 120 164.464" fill="#686779"/>
<path d="M143.964 224.768C140.342 224.904 137.259 223.259 134.637 220.433C123.29 208.205 120.568 173.85 120.088 166.051C120.024 165.028 120 164.462 120 164.462L143.58 141.488C148.793 145.41 150.053 156.346 151.168 168.593C151.959 177.263 153.207 186.478 154.671 194.563C159.036 218.689 151.916 224.463 143.964 224.768Z" fill="#5F5F82"/>
<g opacity="0.2">
<path d="M134.633 221.59C123.221 209.258 120.483 174.609 120 166.743L143.094 161.558C143.094 161.558 146.824 188.436 150.999 200.748C154.839 212.077 154.96 227.11 134.633 221.59Z" fill="#000072"/>
</g>
<path d="M144.971 212.389C148.095 209.254 148.095 204.171 144.971 201.036C141.846 197.901 136.781 197.901 133.657 201.036C130.533 204.171 130.533 209.254 133.657 212.389C136.781 215.524 141.846 215.524 144.971 212.389Z" fill="#E5E5E5"/>
<path d="M150.205 216.981C151.715 216.296 152.385 214.513 151.703 212.998C151.021 211.483 149.244 210.81 147.734 211.494C146.224 212.179 145.553 213.963 146.236 215.478C146.918 216.993 148.695 217.666 150.205 216.981Z" fill="#E5E5E5"/>
<path d="M150 159.004C143.37 160.759 134.409 162.034 123 161.386L143.394 141.488C147.197 144.354 148.915 150.916 150 159.004Z" fill="#545468"/>
<path d="M143.1 160.492C135.97 161.633 127.002 162.052 116.112 160.767C91.8555 157.902 76.9752 146.804 69 138.462C73.1713 133.388 77.6678 128.944 82.2434 125.433L119.599 131.816C119.599 131.816 142.218 138.749 144.324 143.664C146.151 147.926 143.769 157.907 143.1 160.492Z" fill="#545468"/>
<path d="M143.629 226.782C133.949 226.783 126.706 216.222 122.095 195.378C118.714 180.098 118.008 164.513 118.002 164.358C117.963 163.466 118.661 162.711 119.559 162.673C120.474 162.635 121.218 163.327 121.257 164.219C121.977 180.81 127.407 223.544 143.661 223.548C143.779 223.548 143.895 223.546 144.014 223.541C147.346 223.415 149.812 222.307 151.555 220.153C155.047 215.839 155.667 207.362 153.399 194.96C151.885 186.681 150.609 177.322 149.806 168.607C148.674 156.314 147.359 145.857 142.706 142.392C141.986 141.856 141.84 140.842 142.381 140.128C142.92 139.414 143.942 139.269 144.662 139.805C150.396 144.074 151.805 154.772 153.053 168.313C153.847 176.936 155.109 186.195 156.606 194.383C159.084 207.937 158.264 217.03 154.097 222.179C151.761 225.066 148.41 226.612 144.139 226.773C143.968 226.779 143.798 226.782 143.629 226.782Z" fill="#000072"/>
<path d="M66 223.505C66 223.505 57.736 236.99 42.4113 231.479C30.058 227.038 28.7355 209.196 38.243 201.93C43.7993 197.685 62.0643 196.892 66 223.505Z" fill="#686779"/>
<g opacity="0.3">
<path d="M66 223.146C66 223.146 65.8564 223.378 65.5673 223.772C60.886 200.096 43.6161 200.962 38.2413 205.005C34.5062 207.817 32.4419 212.237 32.0638 216.83C31.6002 211.196 33.6645 205.341 38.2413 201.897C43.7988 197.715 62.0659 196.934 66 223.146Z" fill="white"/>
</g>
<path d="M66 224.362C66 224.362 57.7393 238.06 42.4133 232.462C32.0647 228.681 29.456 215.353 34.468 206.785C32.1674 214.965 42.9787 228.791 48.6979 223.909C50.1958 222.63 42.0197 205.983 52.8318 201.695C58.5492 204.366 64.0448 210.924 66 224.362Z" fill="#545468"/>
<path d="M50.0553 234.81C47.7207 234.81 45.1693 234.398 42.4066 233.404C36.4702 231.268 32.2995 225.982 31.25 219.262C30.1509 212.222 32.7348 205.155 37.8322 201.258C40.9047 198.91 47.0198 197.513 53.1856 199.998C58.6614 202.204 65.6734 208.114 67.9827 223.74C68.0378 224.109 67.9601 224.486 67.7651 224.805C67.691 224.926 61.4774 234.81 50.0553 234.81ZM46.4825 201.909C43.7107 201.909 41.2487 202.682 39.7911 203.796C35.6113 206.991 33.5061 212.87 34.4273 218.772C35.2934 224.318 38.6847 228.663 43.4994 230.396C49.303 232.484 54.6803 231.902 59.4805 228.666C62.2685 226.787 64.0333 224.547 64.7079 223.6C62.5386 209.926 56.6076 204.829 51.9781 202.963C50.1411 202.222 48.249 201.909 46.4825 201.909Z" fill="#232333"/>
<path d="M101.038 196.679C101.329 207.792 99.7171 215.072 100.044 222.469C105.796 240.309 98.6257 263.111 102.188 272.558C104.152 277.768 110.693 280.289 127.057 279.933C136.495 279.727 141.933 277.393 142.978 273.684C145.105 266.132 136.785 262.566 136.785 262.566C136.785 262.566 150.514 238.323 140.096 202.11" fill="#696779"/>
<path d="M143.151 269.643C143.409 270.833 143.401 272.179 142.978 273.682C141.933 277.392 136.496 279.725 127.056 279.933C110.69 280.289 104.151 277.769 102.189 272.555C98.6258 263.111 105.796 240.307 100.044 222.468C99.7171 215.075 101.326 207.794 101.036 196.679L140.096 202.109C141.833 208.152 142.902 213.861 143.469 219.179C146.315 245.741 136.786 262.567 136.786 262.567C136.786 262.567 142.123 264.855 143.151 269.643Z" fill="#5F5F82"/>
<g opacity="0.2">
<path d="M142.685 269.643C142.94 270.833 142.932 272.179 142.514 273.682C141.481 277.392 136.101 279.725 126.763 279.933C110.574 280.289 104.107 277.769 102.165 272.555C98.6406 263.111 105.734 240.307 100.044 222.468C99.7202 215.075 101.311 207.794 101.025 196.679L139.663 202.109C141.381 208.152 142.438 213.861 143 219.179C139.842 227.101 131.444 234.221 120.172 238.665C111.109 242.24 107.452 244.424 107.102 258.937C106.775 272.401 116.244 273.895 127.425 273.895C138.434 273.894 142.561 269.771 142.685 269.643Z" fill="#000072"/>
</g>
<path d="M124.592 281.973C110.334 281.973 103.506 279.435 101.279 273.446C99.6057 268.947 100.108 262.057 100.689 254.079C101.42 244.036 102.249 232.653 99.1197 222.815C99.0764 222.678 99.0511 222.536 99.0448 222.393C98.8879 218.793 99.1702 215.183 99.4686 211.361C99.8041 207.07 100.184 202.206 100.032 196.333C100.01 195.439 100.708 194.696 101.595 194.673C102.471 194.635 103.218 195.355 103.241 196.248C103.397 202.291 103.011 207.245 102.669 211.615C102.371 215.416 102.114 218.711 102.243 222.039C105.485 232.423 104.638 244.05 103.891 254.317C103.337 261.915 102.859 268.477 104.286 272.311C105.546 275.699 109.283 279.108 127.508 278.705C135.645 278.525 141.007 276.609 141.848 273.579C143.557 267.432 136.873 264.403 136.588 264.277C136.173 264.093 135.852 263.741 135.707 263.307C135.563 262.874 135.606 262.399 135.829 262C135.961 261.761 149.029 237.625 138.981 202.217C138.737 201.358 139.231 200.462 140.083 200.217C140.933 199.971 141.825 200.468 142.068 201.327C147.515 220.521 146.31 236.381 144.34 246.306C142.775 254.196 140.53 259.633 139.374 262.098C142.634 264.086 146.638 268.341 144.94 274.451C144.034 277.712 140.286 281.658 127.578 281.939C126.549 281.961 125.553 281.973 124.592 281.973Z" fill="#000072"/>
<path d="M118.569 261.284C123.038 260.054 127.693 259.663 132.331 260.027C134.169 260.191 135.978 260.518 137.777 260.969C138.655 261.181 139.177 262 138.945 262.798C138.698 263.669 137.636 264.141 136.726 263.798C132.546 262.344 127.973 261.886 123.509 262.162C121.989 262.256 120.434 262.439 118.986 262.726C117.978 262.915 117.584 261.575 118.569 261.284Z" fill="#000072"/>
<path d="M142.703 188.998C143.49 207.042 146.514 234.81 89.4893 234.81C69.3479 234.81 55.425 222.641 52.6979 218.715C41.3447 202.372 45.642 178.008 56.509 157.202C63.2256 144.339 72.4531 132.838 82.0435 125.433L119.483 131.87L143 142.77L142.869 161.403C142.506 164.158 142.336 168.302 142.328 173.302C142.321 177.94 142.452 183.315 142.703 188.998Z" fill="white"/>
<path d="M142.704 188.998C142.929 194.157 143.338 200.117 142.471 205.993C142.471 205.996 142.471 205.996 142.471 205.996C140.305 220.658 130.199 234.81 89.4883 234.81C69.3477 234.81 55.4257 222.641 52.6977 218.715C44.7702 207.302 44.4731 191.98 48.7173 176.691C50.5468 170.084 53.2307 163.481 56.5088 157.203C63.2254 144.338 72.453 132.836 82.0452 125.433L119.481 131.867L143 142.77L142.868 161.401C142.507 164.156 142.338 168.302 142.33 173.3C142.323 177.943 142.451 183.316 142.704 188.998Z" fill="white"/>
<g opacity="0.2">
<path d="M143 205.989C140.822 220.655 130.66 234.81 89.7265 234.81C69.4756 234.81 55.4774 222.638 52.7344 218.711C44.7635 207.295 44.4647 191.969 48.7322 176.676L104.854 173.599C104.854 173.599 107.863 181.612 101.022 189.842C101.022 189.842 106.335 204.781 98.629 216.612C98.629 216.612 129.626 221.966 143 205.989Z" fill="#000072"/>
</g>
<path d="M145.319 143.87C147.444 148.838 143.92 161.514 143.92 161.514C143.611 163.846 143.442 167.172 143.391 171.17C111.025 180.291 79.9088 169.703 57 157.301C63.76 144.397 73.0473 132.861 82.6998 125.433L120.382 131.89C120.383 131.891 143.194 138.901 145.319 143.87Z" fill="#5F5F82"/>
<g opacity="0.2">
<path d="M143.1 160.492C135.97 161.633 127.002 162.052 116.112 160.767C91.8555 157.902 76.9752 146.804 69 138.462C73.1713 133.388 77.6678 128.944 82.2434 125.433L119.599 131.816C119.599 131.816 142.218 138.749 144.324 143.664C146.151 147.926 143.769 157.907 143.1 160.492Z" fill="#000072"/>
</g>
<path d="M119.416 133.108L81.7845 126.636L83.0398 126.324C70.6009 136.257 61.2255 149.852 54.7861 164.355C47.7792 180.705 43.4069 201.334 53.6367 217.204C57.8071 223.037 65.891 227.607 72.525 230.117C78.0195 232.169 83.8842 233.211 89.739 233.196C94.39 233.179 99.0899 233.024 103.709 232.549C118.815 231.077 136.457 226.022 140.416 209.375C141.702 204.381 141.779 199.062 141.587 193.718C141.357 188.331 141.13 182.862 141.077 177.451C141.086 171.966 141.165 166.497 142.403 161.102C142.509 160.666 142.947 160.399 143.381 160.504C143.752 160.594 144 160.927 144 161.293C144.114 171.844 144.366 182.995 144.894 193.594C145.266 201.763 144.846 210.812 140.49 218.159C133.112 230.741 117.572 234.652 104.076 236.111C98.6347 236.673 93.1184 236.895 87.652 236.793C76.4583 236.372 65.51 232.289 56.684 225.379C54.4566 223.583 52.2094 221.647 50.6419 219.198C36.8363 197.66 46.9303 168.3 59.3376 148.412C65.2213 139.115 72.3386 130.535 81.075 123.764C81.4442 123.473 81.9022 123.373 82.3312 123.452L119.964 129.924C122.048 130.36 121.525 133.402 119.416 133.108Z" fill="#000072"/>
<path d="M76.0741 215.132C71.3669 214.236 59.9106 214.593 54 219.248C59.9468 238.428 52.0331 264.203 56.0618 273.823C58.9746 280.779 66.2576 280.969 80.2247 280.969C91.0078 280.969 94.4646 279.392 96.0258 274.926C98.159 268.821 93.3199 264.204 93.3199 264.204C93.3199 264.204 98.0767 257.361 98.9405 241.06C99.4898 230.682 96.5697 219.029 76.0741 215.132Z" fill="#686779"/>
<path d="M98.9405 241.062C98.0785 257.36 93.3199 264.201 93.3199 264.201C93.3199 264.201 95.9653 266.728 96.4803 270.509V270.512C96.6655 271.849 96.5806 273.334 96.0249 274.925C94.4664 279.39 91.0087 280.969 80.2265 280.969C66.2558 280.969 58.9728 280.779 56.0618 273.824C52.0358 264.201 59.9468 238.43 54 219.249C59.9106 214.593 71.3642 214.237 76.075 215.131C91.1126 217.994 96.6926 225.029 98.3758 232.673C98.9893 235.447 99.0859 238.301 98.9405 241.062Z" fill="#5F5F82"/>
<g opacity="0.2">
<path d="M84.136 239.17C84.136 239.17 86.966 248.412 82.7949 249.295C75.2824 250.878 73.9208 242.798 73.9208 242.798C70.0203 242.697 62.2238 246.226 62.1208 259.42C62.0213 272.613 67.8694 274.649 80.3242 274.58C93.9929 274.503 96.1205 270.512 96.1205 270.512C96.3042 271.849 96.22 273.334 95.669 274.925C94.1237 279.39 90.6953 280.969 80.0044 280.969C66.1521 280.969 58.9307 280.779 56.0443 273.824C52.0525 264.201 59.8964 238.43 54 219.249C59.8606 214.593 71.2171 214.237 75.888 215.131C90.7984 217.994 96.3311 225.029 98 232.673C93.21 237.818 84.136 239.17 84.136 239.17Z" fill="#000072"/>
</g>
<path d="M79.7093 281.972C66.3771 281.972 57.5684 281.972 54.1773 273.864C52.2425 269.237 52.8263 261.596 53.5018 252.748C54.3293 241.915 55.2666 229.636 52.0725 219.319C51.8746 218.68 52.0905 217.984 52.614 217.571C59.0004 212.535 70.915 212.209 75.8748 213.152C85.494 214.984 92.3103 218.742 96.134 224.321C99.052 228.579 100.297 233.925 99.9407 240.665C99.2508 253.706 96.1115 260.873 94.7191 263.458C96.1871 265.301 98.8028 269.566 96.9508 274.872C94.8559 280.874 89.5003 281.972 79.7093 281.972ZM55.4609 219.484C58.4409 230.125 57.5153 242.253 56.695 252.995C56.0509 261.425 55.4951 268.706 57.1285 272.612C59.5904 278.499 65.8302 278.747 79.7093 278.747C90.3341 278.747 92.76 277.153 93.9294 273.802C95.6726 268.808 91.8048 264.975 91.6393 264.813C91.0726 264.263 90.9827 263.374 91.4333 262.725C91.4738 262.665 95.9235 255.971 96.7421 240.493C97.2314 231.236 95.2318 220.121 75.2784 216.32C70.9267 215.491 60.9658 215.913 55.4609 219.484Z" fill="#000072"/>
<path d="M67.5356 262.248C75.7677 259.401 86.1344 258.663 94.1234 262.738C96.0338 263.845 94.5031 266.768 92.5719 265.678C87.1525 262.458 80.4448 262.017 74.3021 262.621C72.1801 262.853 70.0689 263.248 68.0166 263.847C67.0265 264.117 66.5654 262.625 67.5356 262.248Z" fill="#000072"/>
<path d="M123.598 266.009C127.226 267.931 128.874 272.698 127.541 276.704C126.121 281.005 121.23 282.461 117.32 281.833C115.377 281.472 115.663 278.492 117.625 278.535C120.222 278.606 123.603 278.229 124.8 275.559C125.97 272.82 125.091 269.307 122.823 267.454C122.003 266.861 122.702 265.562 123.598 266.009Z" fill="#000072"/>
<path d="M134.472 266.004C138.413 267.877 140.039 272.814 138.317 276.721C136.642 280.754 131.543 282.094 127.62 281.964C125.541 281.907 125.427 278.961 127.486 278.739C130.517 278.44 134.046 278.158 135.611 275.468C137.067 272.747 136.186 269.152 133.61 267.362C132.839 266.774 133.601 265.586 134.472 266.004Z" fill="#000072"/>
<path d="M73.1063 265.968C78.8014 268.075 79.5466 276.4 75.2323 280.19C73.7132 281.544 71.4962 282.133 69.514 281.935C68.6036 281.86 67.929 281.081 68.006 280.194C68.0774 279.358 68.7939 278.729 69.6318 278.717C70.9719 278.656 72.0966 278.346 72.9791 277.64C75.6731 275.435 75.9822 270.46 73.2631 268.059C72.9949 267.811 72.6497 267.562 72.3629 267.377C71.5806 266.849 72.22 265.656 73.1063 265.968Z" fill="#000072"/>
<path d="M84.1005 265.001C89.5095 267.571 90.7898 276.105 86.1703 280.078C84.6095 281.406 82.5588 281.989 80.6106 281.973C79.7169 281.969 78.9964 281.224 79 280.309C79.0027 279.459 79.6334 278.763 80.4355 278.671C81.8383 278.473 83.0933 278.094 84.0007 277.344C86.5632 275.258 86.6766 270.722 84.7538 268.064C84.3446 267.455 83.7784 266.829 83.2366 266.379C82.5135 265.763 83.2602 264.586 84.1005 265.001Z" fill="#000072"/>
<path d="M13.35 166.268C13.35 166.268 3.06313 180.595 6.31194 211.038C6.31194 211.038 -0.425466 216.828 2.94324 224.648C6.31194 232.467 12.6888 222.798 16.478 222.379C16.478 222.379 24.5987 228.946 41.4422 232.05C58.2857 235.154 64.4818 232.289 67.3691 233.483C70.2564 234.677 75.4298 240.826 77.2345 241.482C79.0392 242.139 87.7012 243.571 84.8139 227.335C84.8139 227.335 94.2579 218.679 96.3033 208.174C98.3486 197.667 97.5666 189.728 98.1679 188.117C98.7692 186.505 105.086 180.058 105.807 176.715C106.529 173.373 105.266 171.104 101.296 170.567C97.326 170.03 92.1734 171.831 85.6558 169.134C74.4308 164.49 66.2674 162.996 56.7026 160.489C47.1378 157.982 38.217 153.983 24.0864 159.196C24.0864 159.196 16.6424 153.197 13.439 154.808C10.2365 156.419 9.786 162.686 13.35 166.268Z" fill="#12DEFF"/>
<path d="M105.806 176.716C105.086 180.057 98.7683 186.504 98.1688 188.118C97.5658 189.729 98.3469 197.669 96.3033 208.175C94.2597 218.678 84.813 227.336 84.813 227.336C87.7031 243.57 79.0375 242.14 77.2328 241.482C75.4317 240.827 70.2556 234.678 67.3692 233.481C64.4792 232.289 58.2867 235.156 41.4423 232.052C24.5979 228.948 16.4782 222.381 16.4782 222.381C12.6863 222.798 6.31125 232.47 2.94438 224.65C-0.427045 216.831 6.31216 211.039 6.31216 211.039C3.06245 180.596 13.3502 166.27 13.3502 166.27C9.7844 162.688 10.2376 156.419 13.4392 154.808C16.6444 153.197 24.0875 159.194 24.0875 159.194C35.6949 154.912 43.7856 156.848 51.6129 159.065C53.3131 159.547 54.9961 160.041 56.7046 160.49C64.7871 162.607 71.8696 164.005 80.6442 167.19C82.2509 167.772 83.9184 168.414 85.655 169.134C92.1753 171.833 97.3278 170.03 101.298 170.568C105.268 171.106 106.53 173.371 105.806 176.716Z" fill="#12DEFF"/>
<path d="M105.987 175.463C105.962 175.86 105.902 176.278 105.804 176.715C105.084 180.056 98.7665 186.503 98.167 188.118C97.564 189.728 98.3451 197.668 96.3015 208.175C94.258 218.677 84.8116 227.336 84.8116 227.336C87.7015 243.57 79.0361 242.14 77.2315 241.482C75.4305 240.827 70.2545 234.678 67.3681 233.481C64.4782 232.289 58.2859 235.156 41.4419 232.052C24.5979 228.948 16.4784 222.381 16.4784 222.381C12.7546 222.791 6.55053 232.112 3.13469 225.068C3.0702 224.935 3.00935 224.794 2.94486 224.65C0.565309 219.136 3.22006 214.625 4.98838 212.453C5.72858 211.541 6.31166 211.039 6.31166 211.039C5.40525 202.541 5.55057 195.299 6.23447 189.275C6.2381 189.271 6.2381 189.271 6.2381 189.271C6.2381 189.268 6.2381 189.268 6.2381 189.268C8.00278 173.712 13.3486 166.27 13.3486 166.27C9.78291 162.688 10.2361 156.419 13.4376 154.808C16.6427 153.197 24.0857 159.194 24.0857 159.194C35.6928 154.912 43.7833 156.848 51.6104 159.065C53.3106 159.547 54.9935 160.041 56.7019 160.491C64.7842 162.607 71.8666 164.005 80.641 167.19C82.2476 167.772 83.9151 168.415 85.6517 169.134C92.1718 171.833 97.3242 170.03 101.294 170.568C104.749 171.033 106.153 172.807 105.987 175.463Z" fill="#12DEFF"/>
<g opacity="0.5">
<path d="M83.1819 203.214C79.9802 204.586 74.0459 203.153 74.0006 197.826C73.9419 190.844 78.4105 187.073 81.2764 182.724C85.0137 177.053 88.9821 179.34 88.9999 188.036C89.0185 197.113 86.9015 201.62 83.1819 203.214Z" fill="white"/>
</g>
<g opacity="0.5">
<path d="M73.4643 216.741C70.3391 216.912 65.7479 213.863 67.3182 209.338C69.3771 203.407 76.0672 203.755 77.4272 207.112C79.041 211.095 77.0954 216.542 73.4643 216.741Z" fill="white"/>
</g>
<path d="M105 175.605C104.976 176.002 104.915 176.419 104.819 176.856C104.105 180.189 97.8394 186.622 97.245 188.233C96.6469 189.84 97.4215 197.763 95.3949 208.247C93.3683 218.727 84.0001 227.367 84.0001 227.367C86.8662 243.566 78.2726 242.139 76.4829 241.482C74.6968 240.829 69.5637 234.693 66.7012 233.499C63.8352 232.309 57.6942 235.17 40.9898 232.072C24.2854 228.975 16.2331 222.422 16.2331 222.422C12.5402 222.832 6.38754 232.133 3 225.103C4.04391 225.043 5.37605 224.643 6.982 223.54C10.1327 221.368 7.03424 216.872 4.83833 212.515C5.5724 211.605 6.15065 211.104 6.15065 211.104C5.25175 202.624 5.39587 195.398 6.0741 189.387C6.0777 189.383 6.0777 189.383 6.0777 189.383C6.11823 189.8 8.70234 214.736 35.9756 224.273C47.4028 228.273 66.9652 228.765 77.0719 223.717C87.8524 218.33 92.2758 205.866 93.2954 200.12C95.2742 188.99 92.537 178.51 92.537 178.51C92.537 178.51 101.701 179.929 105 175.605Z" fill="#15BDFF"/>
<path d="M79.1245 229.398C81.1818 231.74 81.9085 236.792 79.4307 237.68C76.3904 238.769 75.8228 233.232 76.0421 231.173C76.2442 229.276 77.8611 227.961 79.1245 229.398Z" fill="#12DEFF"/>
<path d="M73.5854 180.16C58.7246 185.457 53.6791 206.692 58.7246 218.754C52.3825 218.142 45.9919 208.875 39.0904 206.769C28.8387 203.638 19 207.478 19 207.478C24.2574 199.267 30.5241 176.529 30.5241 176.529L50.2984 158.547C51.9793 159.027 53.6432 159.52 55.3322 159.968C63.323 162.077 70.3251 163.471 79 166.645C72.4765 172.394 73.5854 180.16 73.5854 180.16Z" fill="#15BDFF"/>
<path d="M78.8281 243.841C77.7422 243.841 76.7769 243.631 76.1243 243.391C75.0475 242.995 73.7604 241.798 71.5787 239.716C69.7686 237.988 67.5153 235.839 66.2137 235.294C65.5167 235.003 64.1009 235.102 62.1403 235.238C58.1848 235.515 51.5635 235.977 40.6649 233.945C26.1561 231.243 18.0012 226.016 15.6989 224.359C14.8786 224.707 13.7338 225.563 12.6996 226.335C10.3013 228.128 7.58113 230.159 4.8447 229.42C3.24762 228.988 1.97321 227.677 1.05503 225.522C-1.73851 218.966 1.61065 213.175 4.21385 210.524C1.62606 184.384 8.62803 170.032 10.923 166.125C9.24076 163.88 8.49026 160.914 8.94709 158.098C9.33231 155.722 10.5487 153.854 12.2845 152.971C15.7288 151.22 21.4165 155.072 23.9354 157.014C36.1601 152.706 44.6068 155.146 52.7808 157.508C54.0325 157.87 55.3278 158.244 56.6022 158.582C58.6715 159.131 60.7028 159.638 62.6678 160.128C69.9517 161.947 76.8313 163.664 85.705 167.376C89.7086 169.051 93.1874 168.858 96.2592 168.687C97.8952 168.597 99.4425 168.511 100.91 168.712C103.267 169.034 104.976 169.933 105.99 171.384C106.982 172.802 107.245 174.644 106.772 176.859C106.279 179.164 104.097 182.056 101.294 185.598C100.387 186.744 99.2566 188.173 99.079 188.596C98.9575 188.976 98.9158 190.578 98.875 192.128C98.7753 195.921 98.6249 201.653 97.2925 208.569C95.467 218.051 88.1967 225.937 85.9733 228.166C87.0746 235.15 86.1972 239.895 83.3629 242.275C81.9507 243.464 80.282 243.841 78.8281 243.841ZM64.7471 231.869C65.7995 231.869 66.666 231.976 67.4537 232.307C69.3063 233.081 71.5923 235.262 73.8021 237.371C75.0221 238.535 76.6926 240.13 77.2383 240.354C77.2573 240.361 79.614 241.204 81.2917 239.794C83.2341 238.163 83.7182 233.931 82.6531 227.879C82.558 227.336 82.7447 226.782 83.1471 226.408C83.2369 226.325 92.2112 217.894 94.1237 207.957C95.4053 201.303 95.5513 195.731 95.6492 192.044C95.7171 189.449 95.7597 188.267 96.0561 187.465C96.3552 186.654 97.1909 185.578 98.7663 183.587C100.549 181.334 103.242 177.93 103.616 176.184C103.893 174.885 103.803 173.897 103.348 173.247C102.87 172.564 101.903 172.119 100.473 171.923C99.3101 171.763 97.9786 171.838 96.4359 171.923C93.1883 172.103 89.1466 172.328 84.4623 170.367C75.8143 166.75 69.0498 165.061 61.8874 163.273C59.9115 162.78 57.8684 162.27 55.7764 161.715C54.4667 161.368 53.1551 160.989 51.8862 160.622C43.6633 158.246 35.8954 156.001 24.201 160.362C23.6662 160.561 23.0661 160.462 22.622 160.102C19.4886 157.554 15.0689 155.186 13.7429 155.862C12.9489 156.266 12.3461 157.297 12.1313 158.621C11.7723 160.839 12.5328 163.282 14.071 164.844C14.6212 165.404 14.6919 166.279 14.2387 166.919C14.1091 167.104 4.38153 181.399 7.50409 210.984C7.55938 211.511 7.35454 212.032 6.95572 212.378C6.72187 212.584 1.17649 217.574 4.02169 224.25C4.37156 225.072 4.94531 226.095 5.68403 226.295C6.90768 226.627 9.05042 225.025 10.7717 223.739C12.5364 222.421 14.2042 221.174 15.8666 220.989C16.298 220.94 16.7286 221.068 17.0639 221.343C17.1401 221.405 25.1182 227.758 41.2531 230.763C51.7475 232.719 57.8666 232.293 61.9146 232.009C63.005 231.934 63.9323 231.869 64.7471 231.869Z" fill="#000072"/>
<path d="M58.6678 220.615C52.6858 216.57 48.3978 210.063 47.0086 202.986C46.9792 202.717 47.0269 202.45 47.1288 202.218C47.1792 202.145 53.464 187.966 53.5044 187.901C56.1902 184.541 60.0084 182.178 64.0468 180.778C66.0298 180.115 68.1027 179.742 70.1802 179.639C72.2586 179.555 74.336 179.74 76.3502 180.159C76.7916 180.252 77.0751 180.683 76.9824 181.123C76.8925 181.555 76.4732 181.834 76.0419 181.758C72.2595 181.11 68.3284 181.385 64.747 182.748C62.9705 183.418 61.2848 184.322 59.7451 185.429C58.2548 186.501 56.8004 187.8 55.6745 189.23L55.8378 188.947L50.1431 203.472L50.2578 202.655C50.6304 205.848 51.7435 208.956 53.2869 211.779C54.8799 214.668 57.0427 217.235 59.6331 219.302C60.4351 219.947 59.5468 221.185 58.6678 220.615Z" fill="#000072"/>
<path d="M19.0936 207.584C19.4245 206.947 19.9961 205.863 20.3218 205.242C21.2013 203.845 22.1428 202.484 23.2444 201.243C27.0892 196.998 32.5541 194.107 38.3348 193.67C39.2179 193.622 39.9736 194.306 39.9993 195.183C40.0258 196.046 39.3418 196.767 38.4711 196.794C38.0172 196.784 37.5296 196.806 37.0651 196.857C33.3982 197.237 29.8181 198.62 26.8839 200.849C25.7875 201.635 24.677 202.671 23.7851 203.679C23.0383 204.428 22.4596 205.33 21.803 206.162L21.6181 206.465C21.3455 206.901 20.7394 207.905 20.4625 208.349C19.9368 209.183 18.6432 208.471 19.0936 207.584Z" fill="#000072"/>
<path d="M78.5107 128.443C67.9372 130.98 35.5413 142.533 28.8481 175.791C25.8969 190.454 31.0147 200.403 38.5241 202.188C46.5533 204.098 53.4697 200.635 58.0524 192.185C62.6856 183.64 67.0568 167.842 81 163.584" fill="#686779"/>
<path d="M81 163.585C67.0564 167.845 62.6863 183.64 58.0505 192.185C53.4708 200.637 46.5555 204.098 38.5239 202.188C34.6573 201.269 31.4233 198.186 29.6066 193.409C27.883 188.907 27.4157 182.906 28.8492 175.792C35.543 142.534 67.9377 130.982 78.5108 128.443L80.9557 162.983L81 163.585Z" fill="#5F5F82"/>
<g opacity="0.2">
<path d="M80 163.296C66.1632 167.588 61.8265 183.499 57.2262 192.107C52.6815 200.621 45.8191 204.108 37.8491 202.184C34.012 201.258 30.8028 198.152 29 193.34C32.4971 196.032 36.7055 197.981 41.2744 197.42C58.8048 195.276 61.5942 160.165 79.9561 162.69L80 163.296Z" fill="#000072"/>
</g>
<g opacity="0.2">
<path d="M80 147.509C72.7163 142.454 67.8624 137.076 65 133.325C70.624 130.707 75.5742 129.189 78.657 128.443L80 147.509Z" fill="#000072"/>
</g>
<path d="M79.1387 129.597C56.4863 135.386 35.0384 151.693 30.4944 175.325C29.2235 181.548 29.053 188.523 32.0744 194.178C33.4903 196.794 35.7778 199.012 38.6916 199.741C45.172 201.471 51.1638 198.814 54.9501 193.391C56.8829 190.716 58.2149 187.603 59.6545 184.593C63.8922 175.268 69.9158 164.396 81.0332 162.264C81.9668 162.086 82.4099 163.419 81.5064 163.798C78.412 165.104 75.6514 166.906 73.322 169.192C70.9688 171.452 69.0205 174.126 67.2892 176.967C65.5651 179.82 64.1101 182.864 62.675 185.97C60.4587 190.805 58.2086 195.908 53.9755 199.451C51.1164 201.945 47.3246 203.529 43.4899 203.683C39.6024 203.853 35.4797 202.962 32.544 200.364C25.3734 193.956 25.1482 183.263 26.9369 174.603C30.3176 157.075 42.9538 142.39 58.6489 134.12C64.8659 130.753 71.4484 128.125 78.3819 126.478C80.4661 126.05 81.2228 129.036 79.1387 129.597Z" fill="#000072"/>
<path d="M45.2392 190.703C44.3436 193.985 45.5084 198.929 49.595 198.637C50.0153 198.606 50.5059 198.518 50.8768 198.365C51.7139 198.074 52.6248 198.525 52.9128 199.372C53.2 200.22 52.7544 201.142 51.9173 201.433C51.4978 201.559 51.1387 201.606 50.7228 201.654C48.8353 201.855 46.7947 201.331 45.3761 200.007C42.6595 197.536 42.5173 193.442 43.7243 190.175C44.0997 189.207 45.5291 189.708 45.2392 190.703Z" fill="#000072"/>
<path d="M34.0093 190.656C33.4989 194.179 35.1879 199.118 38.8245 200.604C40.9139 201.243 40.0003 204.243 37.7887 203.618C32.9735 201.45 31.0974 194.806 32.4049 190.207C32.7573 189.23 34.2659 189.654 34.0093 190.656Z" fill="#000072"/>
<path d="M12.6358 216.195C13.9221 218.245 15.5919 220.177 17.4085 221.779C19.2369 223.55 16.3859 226.032 14.8144 224.034C13.2099 221.799 11.9468 219.448 11.0448 216.867C10.893 216.419 11.1392 215.937 11.5936 215.788C12.0023 215.654 12.4392 215.837 12.6358 216.195Z" fill="#000072"/>
<path d="M94.4583 178.969C96.6255 182.289 97.9236 186.039 98.5871 189.959C98.8169 191.264 98.9237 192.591 98.9974 193.924C99.0476 194.837 98.3725 195.62 97.4891 195.672C96.5267 195.736 95.7187 194.875 95.8004 193.884C96.0248 190.284 95.6047 186.627 94.487 183.198C94.1117 182.037 93.644 180.857 93.1026 179.836C92.6358 178.929 93.8801 178.133 94.4583 178.969Z" fill="#000072"/>
<path d="M18.5843 162.043C16.7626 163.278 15.1989 164.993 14.0246 166.832C12.6414 168.749 9.8687 166.567 11.498 164.839C12.8702 163.493 14.4175 162.326 16.1216 161.419C16.6933 161.116 17.2395 160.853 17.8959 160.607C18.3144 160.45 18.7849 160.654 18.9454 161.063C19.0949 161.44 18.9253 161.848 18.5843 162.043Z" fill="#000072"/>
<g opacity="0.5">
<path d="M10 184.08C9.99908 178.383 12.7068 172.001 15.6738 168.394C20.6151 162.385 28.2236 163.321 21.0856 172.14C15.2015 179.41 10.0009 189.559 10 184.08Z" fill="white"/>
</g>
<path d="M169 46.5371C169 46.5371 177.671 22.6091 194.947 25.2976C208.871 27.4648 217.711 40.0746 212.476 53.2676C205.741 70.2399 188.084 70.2426 188.084 70.2426" fill="#5F5F82"/>
<g opacity="0.3">
<path d="M214.067 51.1769C214.924 40.1795 206.369 30.7465 194.031 28.8812C183.847 27.3401 176.499 34.3267 172 40.792C175.782 33.9998 183.687 23.4761 195.692 25.2949C209.189 27.3365 217.973 38.8023 214.067 51.1769Z" fill="white"/>
</g>
<path d="M193.594 70.2417C192.865 70.2417 192.206 69.7412 192.035 69.0007C191.836 68.1398 192.374 67.2807 193.236 67.0821C199.291 65.6883 207.355 61.9337 211.378 51.9632C213.513 46.6755 213.218 41.1892 210.552 36.5126C207.51 31.1782 201.835 27.5171 194.985 26.4693C182.65 24.5821 174.831 37.5838 172.04 43.2615C171.65 44.0541 170.691 44.3821 169.896 43.9921C169.102 43.603 168.774 42.6441 169.165 41.8506C172.268 35.5394 181.044 21.1008 195.471 23.306C203.294 24.5039 209.807 28.7393 213.335 34.9283C216.497 40.4712 216.858 46.946 214.35 53.1584C209.571 65.0008 199.522 68.918 193.956 70.1986C193.834 70.2282 193.713 70.2417 193.594 70.2417Z" fill="#000072"/>
<path d="M132.195 153.453C117.574 152.975 61.9142 147.449 55.8469 109.848C51.7587 84.513 61.654 37.983 103.543 20.1406C117.47 14.9854 130.087 15.4307 140.357 13.3934C150.628 11.3552 160.34 2.00955 166.16 2.00684C172.34 2.00322 172.988 12.9879 167.329 21.3787C176.122 23.3445 191.325 16.0697 193.72 22.2811C196.77 30.1922 183.453 35.8018 183.453 35.8018C200.283 51.8938 205.05 74.7909 202.249 99.9814C201.263 108.847 202.528 116.617 200.649 124.407C195.164 147.144 160.227 154.369 132.195 153.453Z" fill="white"/>
<g opacity="0.2">
<path d="M198 129.895C188.539 148.318 157.37 154.298 131.918 153.453C117.349 152.973 61.8902 147.4 55.8411 109.478C54.7116 102.373 54.6558 93.6185 56.0652 84.291C55.7448 90.3435 56.0328 95.9661 56.8104 100.841C63.0675 140.108 120.497 145.877 135.583 146.376C157.887 147.116 184.424 142.797 198 129.895Z" fill="#000072"/>
</g>
<path d="M137.435 155.536C135.82 155.536 134.223 155.51 132.644 155.458C125.389 155.22 61.561 151.924 54.8846 110.27C52.4993 95.3895 55.0055 77.1478 61.5871 61.4731C67.4653 47.4741 79.5022 28.6293 103.461 18.3554C103.485 18.3454 103.509 18.3354 103.533 18.3272C112.975 14.8086 121.83 13.8343 129.642 12.9747C133.515 12.549 137.174 12.146 140.533 11.4756C145.592 10.4649 150.639 7.49573 155.091 4.87677C159.538 2.26145 163.377 0.00181935 166.606 0C166.607 0 166.608 0 166.609 0C168.949 0 170.877 1.21442 172.039 3.42129C174.147 7.42022 173.408 14.1163 170.411 19.8018C173.417 19.9465 177.001 19.3497 180.489 18.7675C187.312 17.6295 193.757 16.5543 195.619 21.4138C198.379 28.6211 190.562 33.9036 186.609 36.0413C201.33 51.2821 207.258 72.8768 204.232 100.273C203.832 103.9 203.812 107.38 203.792 110.746C203.764 115.645 203.737 120.273 202.599 125.024C197.175 147.677 165.145 155.536 137.435 155.536ZM104.683 21.3519C63.2456 39.1461 54.0892 85.0137 58.0546 109.753C64.3206 148.847 125.764 151.991 132.749 152.221C148.202 152.729 163.13 150.742 174.779 146.628C184.418 143.224 196.529 136.58 199.48 124.262C200.53 119.876 200.556 115.431 200.583 110.726C200.602 107.276 200.622 103.709 201.042 99.9133C204.06 72.5858 197.91 51.3375 182.763 36.7573C182.371 36.3807 182.195 35.8294 182.292 35.2927C182.391 34.756 182.75 34.3048 183.249 34.0928C183.366 34.0428 195.072 28.9704 192.625 22.58C191.705 20.1793 186.27 21.0854 181.014 21.9623C176.288 22.751 171.403 23.5661 167.424 22.67C166.905 22.5536 166.478 22.1861 166.281 21.6876C166.084 21.19 166.146 20.626 166.442 20.1821C170.224 14.5366 170.816 7.99969 169.204 4.94045C168.601 3.79426 167.751 3.23753 166.609 3.23753C166.608 3.23753 166.608 3.23753 166.608 3.23753C164.246 3.23844 160.586 5.39255 156.709 7.67311C152.038 10.4212 146.744 13.5351 141.156 14.6512C137.66 15.3499 133.935 15.7592 129.99 16.1931C122.373 17.0328 113.741 17.9825 104.683 21.3519Z" fill="#000072"/>
<path d="M120.249 117.835C120.249 117.835 138.235 117.151 136.933 96.3525C135.63 75.5544 131.034 73.7779 120.502 73.2751C109.97 72.7723 92.9551 80.912 86.8157 87.5424C80.6763 94.1728 78.6812 106.86 80.844 111.887C82.617 116.01 89.4607 119.051 99.8541 119.358C110.247 119.665 116.243 118.591 120.249 117.835Z" fill="#5F5F82"/>
<path d="M170.435 117.844C170.435 117.844 158.059 115.418 160.263 97.6218C162.466 79.8253 165.75 78.7631 173.054 79.405C180.357 80.0468 191.595 88.8004 195.419 95.143C199.242 101.486 199.825 112.627 198.016 116.74C196.532 120.114 191.617 122.037 184.422 121.239C177.227 120.443 173.155 118.905 170.435 117.844Z" fill="#5F5F82"/>
<path d="M92.6689 43.406C105.741 35.1055 106.2 26.7843 103.987 20.9544C101.193 13.5902 95.7575 4.93407 85.5376 4.10483C70.9743 2.92264 59.0822 13.3706 61.2579 27.7765C62.5585 36.3849 67.0994 41.9096 71.5891 45.358C76.6335 49.2314 82.9813 49.5565 92.6689 43.406Z" fill="#5F5F82"/>
<g opacity="0.3">
<path d="M106 28.0967C103.319 20.0643 97.6151 9.51349 86.0388 8.57484C73.9289 7.59394 63.5857 14.3056 61.0023 24.6793C60.8152 11.9069 72.0001 3.01039 85.4747 4.10458C99.44 5.24103 104.45 21.0353 106 28.0967Z" fill="white"/>
</g>
<path d="M106.423 27.7094C103.381 20.5577 100.609 12.198 93.7155 7.94004C87.3037 3.88974 77.7976 4.95333 71.5946 8.94314C62.3754 15.0222 61.5955 25.2997 65.7783 34.76C68.2888 40.2621 72.6741 44.5914 77.9628 47.6657C78.8154 48.1686 78.1662 49.4796 77.2392 49.1022C73.2652 47.4445 69.5563 44.9363 66.6391 41.6101C65.1764 39.956 63.9262 38.1051 62.9011 36.1342C54.1096 18.4676 66.3204 1.14951 85.7947 2.03975C94.214 2.30158 100.639 7.81635 104.344 15.0051C106.409 18.8594 107.776 23.0434 107.999 27.3528C108.037 28.2602 106.773 28.541 106.423 27.7094Z" fill="#000072"/>
<path d="M117.402 114.478C124.246 113.571 128.897 106.383 127.789 98.4243C126.682 90.4657 120.236 84.7497 113.392 85.6574C106.548 86.565 101.898 93.7525 103.005 101.711C104.112 109.67 110.558 115.386 117.402 114.478Z" fill="#000072"/>
<path d="M121 107.371C123.209 107.371 125 104.675 125 101.35C125 98.0247 123.209 95.3291 121 95.3291C118.791 95.3291 117 98.0247 117 101.35C117 104.675 118.791 107.371 121 107.371Z" fill="white"/>
<g opacity="0.35">
<path d="M111.443 110.988C112.811 110.805 113.705 109.1 113.439 107.179C113.172 105.258 111.847 103.848 110.478 104.03C109.11 104.213 108.216 105.918 108.482 107.839C108.748 109.76 110.074 111.17 111.443 110.988Z" fill="white"/>
</g>
<path d="M179.803 115.569C185.535 114.691 189.416 108.643 188.471 102.061C187.526 95.4786 182.112 90.8544 176.38 91.7324C170.647 92.6105 166.766 98.6583 167.711 105.241C168.657 111.823 174.07 116.447 179.803 115.569Z" fill="#000072"/>
<path d="M181.5 108.374C183.433 108.374 185 106.128 185 103.357C185 100.586 183.433 98.3398 181.5 98.3398C179.567 98.3398 178 100.586 178 103.357C178 106.128 179.567 108.374 181.5 108.374Z" fill="white"/>
<g opacity="0.35">
<path d="M175.005 110.847C176.084 110.612 176.724 109.323 176.434 107.968C176.144 106.614 175.034 105.706 173.955 105.942C172.875 106.177 172.235 107.465 172.525 108.82C172.815 110.174 173.925 111.082 175.005 110.847Z" fill="white"/>
</g>
<path d="M104.032 54.4789C103.443 53.1783 111.054 42.2383 120.849 45.902C123.776 46.9968 123.514 49.96 121.275 51.6538C117.513 54.498 104.833 56.2465 104.032 54.4789Z" fill="#5F5F82"/>
<path d="M190.957 62.9745C191.536 61.8879 186.136 49.2631 179.087 51.4253C177.136 52.0238 176.253 54.5081 177.763 56.0819C179.06 57.4339 190.079 64.6213 190.957 62.9745Z" fill="#5F5F82"/>
<path d="M103 91.4543C109.312 93.0962 120.259 92.4417 127 89.1266C127 89.1266 122.962 81.4172 113.563 82.3649C104.164 83.3126 103 91.4543 103 91.4543Z" fill="#5F5F82"/>
<path d="M103.439 90.9368C107.44 91.16 111.38 91.0771 115.353 90.7355C119.292 90.3574 123.206 89.6605 126.9 88.356C127.326 88.1975 127.802 88.4188 127.953 88.8479C128.085 89.2214 127.928 89.6277 127.598 89.8208C122.116 92.859 115.502 93.6807 109.328 93.1896C107.257 92.9692 105.173 92.5702 103.241 91.723C102.825 91.5453 102.985 90.8931 103.439 90.9368Z" fill="#000072"/>
<path d="M190.991 96.3295C185.018 96.4333 175.363 93.7992 170 89.8369C170 89.8369 175.156 84.419 183.369 86.9903C191.582 89.5615 190.991 96.3295 190.991 96.3295Z" fill="#5F5F82"/>
<path d="M190.68 97.0915C183.883 98.2585 174.27 95.1127 169.249 90.6373C168.56 89.9949 169.436 88.938 170.244 89.4394C173.285 91.266 176.634 92.6325 180.073 93.7384C183.554 94.8211 187.048 95.6794 190.665 96.327C191.101 96.3863 191.117 97.0167 190.68 97.0915Z" fill="#000072"/>
<path d="M141.281 123.918C141.734 125.48 142.745 127 144.365 127.819C145.058 128.17 145.865 128.394 146.788 128.436C147.389 128.464 147.954 128.4 148.483 128.267C150.172 127.838 151.488 126.676 152.412 125.38C153.692 123.58 154.214 121.521 153.92 120.808C153.227 119.119 152.013 118.853 150.59 117.845C149.225 116.878 149.128 115.397 149.128 115.397C149.128 115.397 148.2 117.191 145.588 117.734C144.547 117.953 142.244 117.948 141.317 120.212C140.913 121.199 140.889 122.574 141.281 123.918Z" fill="#000072"/>
<path d="M142 124.492C142.429 126.203 143.388 127.867 144.923 128.764C145.58 129.148 146.345 129.393 147.219 129.44C147.789 129.47 148.324 129.4 148.826 129.254C148.866 129.111 148.899 128.965 148.925 128.814C149.208 127.219 148.673 125.661 147.63 124.633C147.065 124.073 146.347 123.67 145.532 123.506C144.226 123.242 142.946 123.646 142 124.492Z" fill="#FF8080"/>
<path d="M144.076 128.05C144.028 128.294 144.004 128.537 144 128.777C144.689 129.153 145.491 129.394 146.408 129.439C147.006 129.469 147.568 129.4 148.094 129.257C149.773 128.798 151.082 127.551 152 126.161C151.356 125.328 150.415 124.717 149.297 124.507C148.442 124.346 147.595 124.44 146.841 124.733C145.455 125.272 144.372 126.488 144.076 128.05Z" fill="#FF8080"/>
<path d="M147.208 121.419L146 123.974C146 123.974 146.969 124.44 147.063 126.436C147.063 126.436 149.071 124.046 147.208 121.419Z" fill="#000072"/>
<path d="M147.078 130.45C146.971 130.45 146.864 130.447 146.755 130.441C144.564 130.336 142.674 129.27 141.433 127.437C140.034 125.372 139.604 122.524 140.389 120.512C141.404 117.905 143.808 117.523 144.963 117.339C145.123 117.314 145.267 117.292 145.389 117.265C147.268 116.854 147.952 115.567 147.958 115.554L150.023 111.384L150.311 116C150.313 116.026 150.406 116.978 151.237 117.595C151.557 117.833 151.878 118.033 152.188 118.227C153.183 118.847 154.212 119.487 154.849 121.115C155.363 122.429 154.522 125.173 152.974 127.232C151.408 129.316 149.324 130.45 147.078 130.45ZM148.641 118.362C147.986 118.866 147.099 119.348 145.936 119.603C145.772 119.639 145.579 119.67 145.366 119.704C144.108 119.905 143.181 120.14 142.706 121.358C142.276 122.462 142.409 124.507 143.504 126.124C144.323 127.332 145.458 127.98 146.878 128.048C148.255 128.112 149.507 127.519 150.6 126.28C152.082 124.599 152.622 122.469 152.524 121.94C152.176 121.07 151.702 120.774 150.848 120.242C150.511 120.032 150.13 119.794 149.728 119.496C149.259 119.147 148.906 118.753 148.641 118.362Z" fill="#000072"/>
<path d="M149.218 117.405C149.077 117.405 148.933 117.379 148.794 117.324C148.164 117.077 147.843 116.341 148.076 115.679C148.089 115.641 148.974 113.051 148.34 111.067C148.126 110.396 148.47 109.67 149.107 109.444C149.747 109.218 150.436 109.58 150.65 110.251C151.562 113.109 150.41 116.43 150.36 116.57C150.177 117.086 149.713 117.405 149.218 117.405Z" fill="#000072"/>
<path d="M141.027 105.215C140.443 110.256 149.476 113.391 149.476 113.391C149.476 113.391 157.8 111.377 157.999 106.805C158.111 104.204 150.619 103.497 150.619 103.497C150.619 103.497 141.327 102.628 141.027 105.215Z" fill="#000072"/>
<g opacity="0.5">
<path d="M146.002 105.958C145.92 107.475 148.186 108.277 149.882 108.365C151.578 108.453 153.918 107.893 154 106.376C154.042 105.598 150.042 105.389 150.042 105.389C150.042 105.389 146.044 105.179 146.002 105.958Z" fill="white"/>
</g>
<path d="M174.171 28.1969C177.659 30.0795 181.006 32.144 184.307 34.3188C185.029 34.7963 185.217 35.7523 184.727 36.4556C184.199 37.2228 183.065 37.3564 182.364 36.7367C180.184 34.8386 177.945 32.9922 175.648 31.226C174.88 30.6364 174.097 30.0468 173.321 29.4891C172.544 28.9201 173.316 27.7478 174.171 28.1969Z" fill="#000072"/>
</svg>
