<svg width="216" height="290" viewBox="0 0 216 290" fill="none" xmlns="http://www.w3.org/2000/svg">
<g opacity="0.2">
<path d="M105.898 290C155.867 290 196.375 280.267 196.375 268.261C196.375 256.255 155.867 246.521 105.898 246.521C55.929 246.521 15.4209 256.255 15.4209 268.261C15.4209 280.267 55.929 290 105.898 290Z" fill="#000072"/>
</g>
<path d="M128.941 144.542C128.941 144.542 160.243 139.988 172.668 157.134C175.656 161.255 176.45 166.715 175.802 171.033C174.523 179.434 167.323 185.631 157.831 186.211C150.257 186.674 141.952 183.87 136.853 178.804L128.941 144.542Z" fill="#686779"/>
<path d="M175.792 171.033C175.564 172.577 175.125 174.053 174.504 175.42C171.781 181.519 165.56 185.739 157.812 186.211C150.229 186.674 141.933 183.87 136.835 178.794L130.768 152.51L128.923 144.533C128.923 144.533 160.224 139.978 172.649 157.124C175.646 161.255 176.45 166.715 175.792 171.033Z" fill="#5F5F82"/>
<g opacity="0.2">
<path d="M174.514 175.42C171.791 181.519 165.57 185.739 157.822 186.211C150.239 186.673 141.943 183.87 136.845 178.794L130.778 152.51C136.854 149.952 151.6 144.808 156.954 152.53C163.761 162.357 160.526 172.892 161.056 176.276C161.449 178.843 167.899 181.155 174.514 175.42Z" fill="#000072"/>
</g>
<path d="M156.168 187.805C148.575 187.805 140.764 184.814 135.867 179.935C135.291 179.355 135.255 178.381 135.784 177.761C136.324 177.132 137.228 177.102 137.804 177.673C142.536 182.385 150.357 185.129 157.73 184.676C166.501 184.135 173.189 178.558 174.367 170.787C174.897 167.285 174.431 162.101 171.517 158.087C159.749 141.837 129.416 146.028 129.115 146.067C128.329 146.185 127.607 145.585 127.507 144.749C127.397 143.903 127.955 143.126 128.731 143.017C130.047 142.831 160.992 138.552 173.773 156.189C177.254 160.989 177.821 167.137 177.19 171.279C175.793 180.506 168.027 187.126 157.885 187.755C157.328 187.785 156.752 187.805 156.168 187.805Z" fill="#000072"/>
<path d="M69.627 157.134C69.627 157.134 59.6684 160.527 49.9838 170.059C43.8533 176.089 41.2221 184.126 43.899 193.884C54.5063 215.26 78.3613 191.641 78.3613 191.641L80.1977 159.259" fill="#686779"/>
<path d="M80.2075 159.249L79.568 170.541L78.3711 191.632C78.3711 191.632 54.5161 215.26 43.9088 193.874C41.2227 184.116 43.8631 176.08 49.9936 170.05C50.8616 169.194 51.7386 168.387 52.5975 167.63C61.3775 159.937 69.6276 157.124 69.6276 157.124L80.2075 159.249Z" fill="#5F5F82"/>
<g opacity="0.2">
<path d="M80.2087 159.249L79.5691 170.541C69.7841 170.256 60.1453 169.302 52.5986 167.63C61.3787 159.937 69.6288 157.124 69.6288 157.124L80.2087 159.249Z" fill="#000072"/>
</g>
<path d="M56.554 204.38C55.6586 204.38 54.7541 204.301 53.8679 204.144C49.1261 203.278 45.3436 200.071 42.6393 194.612L42.5662 194.474L42.5205 194.327C39.8344 184.539 42.0728 175.755 49.0073 168.928C58.8106 159.278 68.7601 155.816 69.1804 155.668L70.0483 158.599C69.9478 158.629 60.2542 162.023 50.9351 171.191C44.8137 177.211 42.886 184.647 45.2157 193.284C47.4816 197.77 50.5422 200.396 54.3247 201.095C63.5524 202.786 74.6622 193.028 76.9554 190.904L78.7553 159.16L81.615 159.347L79.742 192.35L79.3217 192.773C78.8284 193.284 67.481 204.38 56.554 204.38Z" fill="#000072"/>
<path d="M113.054 258.207C142.665 258.906 158.388 271.31 172.367 271.31C182.764 271.31 188.94 262.103 190.256 251.892C190.265 251.813 190.274 251.744 190.283 251.666C190.283 251.656 190.283 251.656 190.283 251.656C190.603 249.02 190.603 246.334 190.265 243.708C187.926 225.48 173.582 226.001 168.712 230.566C168.712 230.566 168.694 230.526 168.658 230.438C167.863 228.736 158.754 210.489 140.645 223.69C139.704 224.368 138.736 225.146 137.74 226.011L113.054 258.207Z" fill="#5F5F82"/>
<g opacity="0.4">
<path d="M144.993 221.024C146.619 222.558 148.785 223.454 151.663 222.893C160.909 221.083 166.564 233.812 166.564 233.812L169.963 229.611C169.497 229.897 169.077 230.221 168.711 230.566C168.711 230.566 168.693 230.526 168.656 230.438C167.935 228.883 160.223 213.43 144.993 221.024Z" fill="white"/>
</g>
<path d="M83.0211 153.337L80.4629 166.548C76.7444 165.062 73.3823 163.262 70.4678 161.206C75.5202 157.577 80.134 154.97 83.0211 153.337Z" fill="#545468"/>
<path d="M83.0211 153.337L80.4629 166.548C76.7444 165.062 73.3823 163.262 70.4678 161.206C75.5202 157.577 80.134 154.97 83.0211 153.337Z" fill="#545468"/>
<path d="M161.42 269.382C165.303 270.543 168.884 271.31 172.365 271.31C182.762 271.31 188.939 262.103 190.254 251.892C190.273 251.814 190.282 251.735 190.291 251.656C190.611 249.02 190.611 246.325 190.273 243.708C187.934 225.5 173.608 226.002 168.738 230.546C168.729 230.556 168.729 230.556 168.729 230.556C168.729 230.556 162.745 236.262 163.677 255.503C164.006 262.192 162.891 266.549 161.42 269.382Z" fill="#FFAD40"/>
<path d="M161.42 269.382C165.303 270.543 168.884 271.31 172.365 271.31C182.762 271.31 188.939 262.103 190.254 251.892C190.273 251.814 190.282 251.735 190.291 251.656C190.611 249.02 190.611 246.325 190.273 243.708C187.934 225.5 173.608 226.002 168.738 230.546C168.729 230.556 168.729 230.556 168.729 230.556C168.729 230.556 162.745 236.262 163.677 255.503C164.006 262.192 162.891 266.549 161.42 269.382Z" fill="#5F5F82"/>
<g opacity="0.4">
<path d="M163.678 245.508C163.678 245.508 167.113 230.035 178.789 232.868C187.176 234.904 189.579 245.567 190.265 251.902C190.274 251.824 190.283 251.755 190.292 251.676C190.292 251.666 190.292 251.666 190.292 251.666C190.612 249.03 190.612 246.344 190.274 243.718C187.935 225.49 173.591 226.012 168.721 230.576C168.721 230.576 168.703 230.537 168.666 230.448C166.035 233.596 164.125 238.377 163.678 245.508Z" fill="white"/>
</g>
<g opacity="0.2">
<path d="M113.054 258.207C142.665 258.906 158.388 271.31 172.367 271.31C182.846 271.31 189.032 261.965 190.292 251.666C189.269 254.292 184.884 263.854 175.354 263.204C164.391 262.457 163.925 242.694 163.925 242.694C163.925 242.694 158.078 256.643 153.4 252.63C148.722 248.616 154.304 237.451 153.957 228.579C153.811 224.723 147.635 223.641 140.664 223.7C139.723 224.378 138.754 225.155 137.758 226.021L113.054 258.207Z" fill="#000072"/>
</g>
<path d="M172.375 272.854C166.336 272.854 160.023 270.641 152.714 268.083C142.645 264.552 130.12 260.164 113.025 259.751L113.089 256.672C130.604 257.085 143.349 261.561 153.6 265.152C160.681 267.631 166.793 269.775 172.375 269.775C176.916 269.775 180.899 267.827 183.878 264.138C187.907 259.151 189.816 251.41 188.857 243.934C187.706 234.953 183.649 231.529 180.452 230.241C176.276 228.559 171.772 229.759 169.662 231.736L168.236 233.074L167.432 231.234C167.396 231.156 163.559 222.666 156.039 220.837C150.822 219.568 144.975 221.712 138.653 227.231L136.853 224.84C143.897 218.692 150.576 216.341 156.697 217.846C163.485 219.519 167.569 225.45 169.205 228.342C172.238 226.424 176.971 225.558 181.457 227.368C184.673 228.667 190.273 232.484 191.689 243.52C192.758 251.862 190.593 260.538 186.034 266.175C182.489 270.542 177.766 272.854 172.375 272.854Z" fill="#000072"/>
<path d="M169.799 231.599L169.123 232.425L168.785 232.838L168.484 233.291C168.283 233.596 168.073 233.891 167.881 234.196L167.351 235.15C166.675 236.448 166.081 237.835 165.67 239.291C165.24 240.747 164.921 242.252 164.71 243.787C164.509 245.311 164.409 246.895 164.455 248.4V248.439C164.464 248.862 164.162 249.217 163.76 249.236C163.386 249.246 163.066 248.951 163.029 248.557C162.847 246.875 162.837 245.252 162.929 243.6C163.02 241.957 163.239 240.314 163.596 238.681C163.934 237.048 164.464 235.455 165.122 233.91L165.651 232.76C165.852 232.386 166.063 232.022 166.264 231.658L166.574 231.107L166.931 230.586L167.652 229.543C168.127 228.864 169.023 228.726 169.662 229.238C170.293 229.749 170.421 230.713 169.946 231.402C169.927 231.432 169.9 231.461 169.882 231.491L169.799 231.599Z" fill="#000072"/>
<path d="M177.356 262.683C181.191 262.683 184.299 258.949 184.299 254.342C184.299 249.735 181.191 246 177.356 246C173.521 246 170.412 249.735 170.412 254.342C170.412 258.949 173.521 262.683 177.356 262.683Z" fill="white"/>
<path d="M170.886 246.511C172.294 246.511 173.435 245.141 173.435 243.452C173.435 241.762 172.294 240.393 170.886 240.393C169.478 240.393 168.337 241.762 168.337 243.452C168.337 245.141 169.478 246.511 170.886 246.511Z" fill="white"/>
<path d="M184.299 247.75C185.707 247.75 186.848 246.381 186.848 244.691C186.848 243.001 185.707 241.632 184.299 241.632C182.891 241.632 181.75 243.001 181.75 244.691C181.75 246.381 182.891 247.75 184.299 247.75Z" fill="white"/>
<path d="M177.948 244.692C179.513 244.692 180.781 243.172 180.781 241.298C180.781 239.424 179.513 237.904 177.948 237.904C176.384 237.904 175.116 239.424 175.116 241.298C175.116 243.172 176.384 244.692 177.948 244.692Z" fill="white"/>
<path d="M98.3617 258.207C68.7508 258.906 53.0271 271.31 39.0485 271.31C28.6513 271.31 22.4752 262.103 21.1595 251.892C21.1504 251.813 21.1413 251.744 21.1321 251.666C21.1321 251.656 21.1321 251.656 21.1321 251.656C20.8123 249.02 20.8124 246.334 21.1504 243.708C23.4893 225.48 37.8334 226.001 42.7031 230.566C42.7031 230.566 42.7213 230.526 42.7579 230.438C43.5527 228.736 52.6617 210.489 70.7699 223.69C71.711 224.368 72.6794 225.146 73.6753 226.011L98.3617 258.207Z" fill="#5F5F82"/>
<g opacity="0.4">
<path d="M66.4111 221.024C64.7848 222.558 62.6195 223.454 59.7415 222.893C50.4955 221.083 44.8401 233.812 44.8401 233.812L41.4414 229.611C41.9074 229.897 42.3276 230.221 42.6931 230.566C42.6931 230.566 42.7114 230.526 42.7479 230.438C43.4697 228.883 51.1808 213.43 66.4111 221.024Z" fill="white"/>
</g>
<path d="M49.9854 269.382C46.1025 270.543 42.521 271.31 39.0401 271.31C28.6429 271.31 22.4667 262.103 21.1511 251.892C21.1328 251.814 21.1237 251.735 21.1145 251.656C20.7948 249.02 20.7948 246.325 21.1328 243.708C23.4717 225.5 37.7975 226.002 42.6672 230.546C42.6763 230.556 42.6763 230.556 42.6763 230.556C42.6763 230.556 48.6607 236.262 47.7287 255.503C47.409 262.192 48.5236 266.549 49.9854 269.382Z" fill="#FFAD40"/>
<path d="M49.9854 269.382C46.1025 270.543 42.521 271.31 39.0401 271.31C28.6429 271.31 22.4667 262.103 21.1511 251.892C21.1328 251.814 21.1237 251.735 21.1145 251.656C20.7948 249.02 20.7948 246.325 21.1328 243.708C23.4717 225.5 37.7975 226.002 42.6672 230.546C42.6763 230.556 42.6763 230.556 42.6763 230.556C42.6763 230.556 48.6607 236.262 47.7287 255.503C47.409 262.192 48.5236 266.549 49.9854 269.382Z" fill="#5F5F82"/>
<g opacity="0.4">
<path d="M47.7385 245.507C47.7385 245.507 44.3032 230.034 32.627 232.867C24.2398 234.903 21.8369 245.566 21.1517 251.901C21.1426 251.823 21.1334 251.754 21.1243 251.675C21.1243 251.665 21.1243 251.665 21.1243 251.665C20.8045 249.029 20.8045 246.343 21.1426 243.717C23.4815 225.489 37.8256 226.011 42.6952 230.575C42.6952 230.575 42.7135 230.536 42.7501 230.447C45.3722 233.595 47.2817 238.376 47.7385 245.507Z" fill="white"/>
</g>
<g opacity="0.2">
<path d="M98.3618 258.207C68.7508 258.906 53.0272 271.31 39.0486 271.31C28.5692 271.31 22.3839 261.965 21.123 251.666C22.1463 254.292 26.5318 263.854 36.061 263.204C47.0246 262.457 47.4906 242.694 47.4906 242.694C47.4906 242.694 53.3378 256.643 58.0156 252.63C62.6934 248.616 57.1111 237.451 57.4583 228.579C57.6045 224.723 63.7807 223.641 70.7517 223.7C71.6928 224.378 72.6612 225.155 73.6571 226.021L98.3618 258.207Z" fill="#000072"/>
</g>
<path d="M39.0395 272.854C33.64 272.854 28.9165 270.542 25.3716 266.165C20.8125 260.528 18.6472 251.852 19.7162 243.511C21.1323 232.474 26.7329 228.647 29.9489 227.359C34.444 225.549 39.1675 226.404 42.2007 228.332C43.8361 225.44 47.9201 219.509 54.7084 217.837C60.8297 216.331 67.4993 218.682 74.5525 224.831L72.7527 227.221C66.4212 221.702 60.5648 219.558 55.3479 220.837C47.8013 222.686 44.0097 231.146 43.9732 231.234L43.1692 233.074L41.7439 231.736C39.6334 229.749 35.1292 228.549 30.9539 230.241C27.7561 231.529 23.7087 234.953 22.5484 243.934C21.5891 251.41 23.4986 259.161 27.5277 264.139C30.5153 267.827 34.4896 269.775 39.0304 269.775C44.6219 269.775 50.7341 267.631 57.8056 265.152C68.0475 261.561 80.8018 257.086 98.3162 256.672L98.3801 259.751C81.2952 260.155 68.7601 264.552 58.6918 268.083C51.401 270.641 45.0878 272.854 39.0395 272.854Z" fill="#000072"/>
<path d="M43.7554 229.543L44.4772 230.586L44.8335 231.107L45.1441 231.658C45.3543 232.022 45.5644 232.386 45.7563 232.76L46.2862 233.911C46.944 235.455 47.4739 237.049 47.8119 238.681C48.1591 240.305 48.3875 241.947 48.4789 243.6C48.5703 245.253 48.5611 246.876 48.3784 248.558C48.3327 248.981 47.9764 249.286 47.5835 249.236C47.2089 249.187 46.9349 248.843 46.9531 248.449V248.4C46.9988 246.905 46.8983 245.312 46.6973 243.787C46.4963 242.252 46.1765 240.747 45.738 239.291C45.3177 237.826 44.733 236.449 44.0569 235.15L43.527 234.196C43.3351 233.891 43.125 233.596 42.924 233.291L42.6225 232.838L42.2844 232.425L41.6084 231.599L41.517 231.491C40.9962 230.851 41.051 229.878 41.6449 229.317C42.2388 228.756 43.1433 228.815 43.664 229.455C43.7006 229.484 43.728 229.514 43.7554 229.543Z" fill="#000072"/>
<path d="M105.679 137.273C128.42 137.273 153.663 187.284 153.389 229.307C153.389 229.307 153.801 235.937 150.648 242.134C146.217 250.84 140.279 252.669 140.279 252.669C140.279 252.669 126.227 259.221 105.67 259.221L105.597 258.099V259.211C85.0403 259.211 70.9886 252.66 70.9886 252.66C70.9886 252.66 65.0591 250.84 60.6189 242.124C57.4668 235.917 57.878 229.297 57.878 229.297C57.8597 206.485 73.3184 180.693 70.4587 159.947C70.4587 159.947 82.8567 137.273 105.597 137.273" fill="white"/>
<path d="M150.648 242.134C146.217 250.84 140.288 252.67 140.288 252.67C140.288 252.67 126.236 259.221 105.688 259.221L105.615 258.099V259.211C85.0585 259.211 71.0068 252.66 71.0068 252.66C71.0068 252.66 65.0773 250.83 60.6462 242.124C57.4942 235.917 57.9053 229.287 57.9053 229.287C57.9053 226.346 58.1611 223.346 58.5997 220.326C61.5781 199.905 72.9803 178.008 70.4861 159.938C70.4861 159.938 82.8841 137.264 105.624 137.264L105.698 137.274C126.803 137.274 150.055 180.339 153.088 220.119C153.316 223.208 153.435 226.277 153.417 229.307C153.398 229.307 153.81 235.937 150.648 242.134Z" fill="white"/>
<path d="M150.648 242.134C146.217 250.84 140.288 252.67 140.288 252.67C140.288 252.67 126.236 259.221 105.688 259.221L105.615 258.099V259.211C85.0585 259.211 71.0068 252.66 71.0068 252.66C71.0068 252.66 65.0773 250.83 60.6462 242.124C57.4942 235.917 57.9053 229.287 57.9053 229.287C57.9053 226.346 58.1611 223.346 58.5997 220.326C58.7641 219.214 58.9468 218.093 59.157 216.972C62.775 197.534 72.8432 177.024 70.4861 159.938C70.4861 159.938 82.8841 137.264 105.624 137.264L105.698 137.274C122.189 137.274 139.986 163.567 148.437 194.032C150.795 202.561 152.43 211.414 153.088 220.119C153.316 223.208 153.435 226.277 153.417 229.307C153.398 229.307 153.81 235.937 150.648 242.134Z" fill="white"/>
<path d="M148.42 194.032C144.829 200.8 137.292 210.283 122.29 213.932C98.1698 219.805 80.2077 203.908 80.2077 203.908C74.8721 212.624 65.818 215.83 59.1484 216.981C62.7664 197.544 72.8347 177.034 70.4775 159.947C70.4775 159.947 82.8755 137.273 105.616 137.273L105.689 137.283C122.171 137.273 139.978 163.557 148.42 194.032Z" fill="#E5E5E5"/>
<g opacity="0.2">
<path d="M150.648 242.134C146.217 250.84 140.288 252.669 140.288 252.669C140.288 252.669 126.236 259.221 105.688 259.221L105.615 258.099V259.211C85.0585 259.211 71.0068 252.659 71.0068 252.659C71.0068 252.659 65.0773 250.83 60.6462 242.124C57.4942 235.917 57.9053 229.287 57.9053 229.287C57.9053 226.346 58.1611 223.346 58.5997 220.326C58.5997 220.326 71.1347 243.452 105.624 243.452C140.114 243.452 152.677 220.326 152.677 220.326L153.088 220.109C153.316 223.198 153.435 226.267 153.417 229.297C153.398 229.307 153.81 235.937 150.648 242.134Z" fill="#000072"/>
</g>
<path d="M57.1846 229.297C56.8374 223.257 57.6871 217.208 58.9479 211.384C60.227 205.551 61.9263 199.865 63.5435 194.209C64.3657 191.386 65.1697 188.563 65.9189 185.739C66.6772 182.916 67.3807 180.093 67.9472 177.24C68.5136 174.398 68.943 171.535 69.1806 168.682C69.409 165.83 69.3907 162.967 69.0618 160.164L68.9979 159.593L69.2445 159.16C69.7562 158.245 70.2678 157.468 70.8069 156.652C71.3459 155.855 71.9032 155.068 72.4788 154.311C73.63 152.786 74.8543 151.32 76.1425 149.924C78.7281 147.14 81.5603 144.602 84.6667 142.497C87.7639 140.372 91.1261 138.65 94.671 137.5L95.3288 137.273L96.0049 137.086C96.4526 136.968 96.9003 136.831 97.348 136.722C98.2525 136.536 99.157 136.299 100.08 136.181C101.907 135.857 103.762 135.768 105.607 135.729C106.393 135.709 107.051 136.388 107.069 137.234C107.087 138.08 106.457 138.788 105.671 138.808H105.607C103.899 138.847 102.19 138.926 100.5 139.231C99.6503 139.339 98.8189 139.555 97.9784 139.723C97.5581 139.831 97.147 139.949 96.7358 140.057L96.1146 140.224L95.5024 140.431C92.2316 141.503 89.0978 143.097 86.2016 145.084C83.2871 147.061 80.6102 149.451 78.1708 152.088C76.9465 153.406 75.7953 154.803 74.6989 156.249C74.1508 156.967 73.6208 157.704 73.1184 158.462C72.6159 159.2 72.1134 159.996 71.7022 160.724L71.8849 159.721C72.3509 162.79 72.3966 165.889 72.2047 168.938C72.022 171.988 71.5652 174.998 70.9805 177.949C70.3957 180.9 69.6831 183.811 68.9156 186.684C68.139 189.556 67.2894 192.389 66.4488 195.212C64.7403 200.859 63.0044 206.456 61.57 212.102C60.1356 217.749 58.9662 223.464 58.6098 229.297C58.5824 229.72 58.2444 230.045 57.8515 230.015C57.4861 229.986 57.2028 229.671 57.1846 229.297Z" fill="#000072"/>
<path d="M140.572 253.377C137.822 254.754 135.027 255.807 132.167 256.732C129.316 257.656 126.411 258.424 123.487 259.024C120.555 259.624 117.604 260.145 114.625 260.391C113.136 260.548 111.647 260.607 110.158 260.686C108.668 260.755 107.17 260.735 105.681 260.765H105.58L105.461 260.745L105.388 260.735L105.608 260.755C104.118 260.696 102.62 260.735 101.131 260.657C99.6416 260.578 98.1432 260.529 96.6631 260.371C93.6847 260.125 90.7336 259.584 87.81 258.994C84.8772 258.384 81.981 257.617 79.1304 256.702C76.2708 255.787 73.475 254.715 70.725 253.368C70.3687 253.19 70.2042 252.738 70.3687 252.344C70.524 251.98 70.9077 251.803 71.2549 251.941L71.2915 251.951C73.9958 252.994 76.8464 253.781 79.6695 254.489C80.3821 254.666 81.0856 254.833 81.8074 254.991C82.52 255.148 83.2327 255.305 83.9453 255.443C84.6579 255.581 85.3706 255.728 86.0923 255.856L88.2485 256.21C88.9703 256.338 89.6921 256.417 90.4138 256.515C91.1356 256.614 91.8574 256.712 92.5792 256.781L94.7445 257.027L96.9189 257.214C98.3625 257.371 99.8151 257.43 101.259 257.538C101.98 257.597 102.711 257.597 103.433 257.617C104.155 257.637 104.886 257.656 105.608 257.666H105.717L105.827 257.686L105.9 257.696L105.681 257.676C107.133 257.627 108.586 257.627 110.03 257.538C111.482 257.44 112.926 257.381 114.369 257.224L116.544 257.027L118.709 256.781C119.431 256.712 120.153 256.614 120.874 256.515C121.596 256.407 122.318 256.338 123.04 256.21L125.196 255.846C125.909 255.719 126.63 255.571 127.343 255.433C128.056 255.296 128.768 255.138 129.481 254.981C130.194 254.833 130.906 254.666 131.619 254.489C134.442 253.781 137.292 252.984 140.006 251.971L140.043 251.961C140.417 251.823 140.819 252.03 140.956 252.433C141.066 252.807 140.901 253.21 140.572 253.377Z" fill="#000072"/>
<path d="M105.68 135.729C106.867 135.729 108.046 135.847 109.206 136.053C110.367 136.279 111.49 136.614 112.596 137.017C114.779 137.863 116.844 138.994 118.754 140.332C122.591 142.988 125.88 146.362 128.822 149.962C134.697 157.222 139.283 165.485 143.011 174.102C146.72 182.739 149.625 191.759 151.617 201.016C153.572 210.272 154.596 219.814 154.12 229.297C154.102 229.72 153.764 230.044 153.371 230.025C152.997 230.005 152.713 229.68 152.695 229.297V229.287C152.321 219.961 150.987 210.744 148.904 201.724C146.821 192.704 143.952 183.89 140.252 175.509C138.406 171.318 136.332 167.246 134.075 163.321C131.8 159.396 129.297 155.638 126.492 152.186C125.085 150.464 123.614 148.812 122.052 147.277C120.499 145.733 118.854 144.316 117.109 143.077C113.646 140.608 109.718 138.847 105.707 138.807H105.689C104.903 138.798 104.263 138.099 104.273 137.253C104.263 136.407 104.903 135.729 105.68 135.729Z" fill="#000072"/>
<path d="M34.0598 262.683C37.8947 262.683 41.0035 258.949 41.0035 254.342C41.0035 249.735 37.8947 246 34.0598 246C30.225 246 27.1162 249.735 27.1162 254.342C27.1162 258.949 30.225 262.683 34.0598 262.683Z" fill="white"/>
<path d="M40.5276 246.511C41.9354 246.511 43.0766 245.141 43.0766 243.452C43.0766 241.762 41.9354 240.393 40.5276 240.393C39.1198 240.393 37.9785 241.762 37.9785 243.452C37.9785 245.141 39.1198 246.511 40.5276 246.511Z" fill="white"/>
<path d="M27.1164 247.75C28.5242 247.75 29.6655 246.381 29.6655 244.691C29.6655 243.001 28.5242 241.632 27.1164 241.632C25.7086 241.632 24.5674 243.001 24.5674 244.691C24.5674 246.381 25.7086 247.75 27.1164 247.75Z" fill="white"/>
<path d="M33.4661 244.692C35.0303 244.692 36.2983 243.172 36.2983 241.298C36.2983 239.424 35.0303 237.904 33.4661 237.904C31.9018 237.904 30.6338 239.424 30.6338 241.298C30.6338 243.172 31.9018 244.692 33.4661 244.692Z" fill="white"/>
<path d="M129.69 44.8859C116.543 36.1606 115.995 27.2484 118.133 20.9725C120.837 13.044 126.164 3.70887 136.351 2.68583C150.878 1.23982 162.864 12.2768 160.864 27.7403C159.667 36.9771 155.199 42.9579 150.759 46.7057C145.77 50.9257 139.43 51.3487 129.69 44.8859Z" fill="#5F5F82"/>
<g opacity="0.3">
<path d="M116.095 28.684C118.68 20.0276 124.272 8.63652 135.838 7.48561C147.944 6.28551 158.369 13.3484 161.073 24.4443C161.11 10.7416 149.817 1.33758 136.35 2.67539C122.39 4.08206 117.566 21.09 116.095 28.684Z" fill="white"/>
</g>
<path d="M115.475 28.1436C115.575 25.8517 115.996 23.599 116.59 21.3857C117.174 19.1724 118.015 17.0378 119.011 14.9721C119.997 12.9064 121.176 10.9193 122.574 9.08966C123.277 8.17484 124.036 7.3092 124.849 6.49274C125.68 5.69596 126.548 4.92868 127.498 4.27945C129.38 2.96131 131.509 2.00714 133.702 1.47595C134.25 1.36774 134.807 1.22019 135.365 1.16117L136.196 1.05296L137.018 0.993942C138.106 0.905411 139.211 0.915246 140.298 0.974267C142.491 1.10215 144.666 1.52513 146.776 2.21371C148.887 2.90229 150.897 3.93516 152.769 5.21395C156.479 7.80104 159.54 11.6276 161.102 16.1427C161.924 18.3756 162.344 20.766 162.472 23.1465C162.618 25.5369 162.326 27.9174 161.906 30.1995C161.431 32.4915 160.782 34.7442 159.859 36.8886C158.918 39.0232 157.758 41.0299 156.387 42.8694C153.647 46.5582 150.129 49.4699 146.283 51.5947C145.579 51.9882 144.72 51.6832 144.355 50.9258C143.989 50.1683 144.273 49.2437 144.976 48.8502L144.985 48.8404C148.512 46.8927 151.71 44.2367 154.158 40.9315C155.382 39.2888 156.424 37.4788 157.265 35.5803C158.087 33.6621 158.672 31.6357 159.101 29.5601C159.485 27.4649 159.74 25.3795 159.613 23.2941C159.503 21.2185 159.138 19.1626 158.434 17.2444C157.073 13.3687 154.432 10.093 151.189 7.85022C147.918 5.60742 144.053 4.40733 140.152 4.22043C138.197 4.15157 136.205 4.24994 134.369 4.68276C132.523 5.13525 130.751 5.93204 129.161 7.0436C125.945 9.25689 123.442 12.6604 121.578 16.428C119.723 20.2348 118.38 24.3171 116.873 28.4683C116.727 28.8716 116.306 29.0683 115.932 28.9109C115.639 28.783 115.457 28.4683 115.475 28.1436Z" fill="#000072"/>
<path d="M39.7062 65.9562C48.2943 52.1355 45.3615 43.784 40.9944 39.0328C35.476 33.0323 27.034 26.9138 17.3678 30.5436C3.5993 35.7178 -3.05197 51.1321 4.74134 64.2938C9.39174 72.1633 15.7689 75.5964 21.2507 77.0227C27.4178 78.6359 33.3381 76.1964 39.7062 65.9562Z" fill="#5F5F82"/>
<g opacity="0.3">
<path d="M45.8288 45.1413C40.1369 38.4326 30.6625 30.5631 19.6898 34.6847C8.2145 39.0031 1.4536 50.0991 3.27173 61.4016C-2.04562 48.9482 4.5965 35.3438 17.3691 30.5434C30.6077 25.5758 41.5622 38.8851 45.8288 45.1413Z" fill="white"/>
</g>
<path d="M45.042 45.2892C42.0636 42.2004 39.2678 39.0723 36.1158 36.4459C32.9638 33.8588 29.3732 31.8816 25.5907 31.3012C23.7086 30.9963 21.7991 31.0651 19.9445 31.4783C18.1081 31.9111 16.2534 32.7079 14.5083 33.6424C11.0274 35.5606 7.97584 38.3739 5.86535 41.8758C3.78226 45.3679 2.64022 49.5289 2.89603 53.6603C2.9874 55.7261 3.46249 57.7623 4.15685 59.7002C4.84208 61.6479 5.87449 63.4283 7.0348 65.1695C8.22253 66.8614 9.53816 68.4451 11.0274 69.8223C12.5257 71.1798 14.1703 72.3503 15.9245 73.3045C19.4328 75.2129 23.3615 76.1966 27.3266 76.3933H27.3358C28.1215 76.4326 28.7336 77.1507 28.6971 78.0065C28.6605 78.8525 27.9936 79.5116 27.1987 79.4722C22.8772 79.2558 18.5466 78.1836 14.6362 76.0588C12.6811 74.9965 10.8447 73.6882 9.17271 72.1733C7.50989 70.6387 6.03894 68.8779 4.73244 67.0089C3.47163 65.1203 2.2839 63.084 1.49817 60.8511C0.694174 58.628 0.155132 56.2671 0.0454963 53.8669C-0.26514 49.0567 1.03222 44.2071 3.40767 40.1937C4.61367 38.1968 6.04808 36.3573 7.70176 34.7834C9.3463 33.2095 11.1736 31.8521 13.1105 30.7602C14.0881 30.2191 15.0839 29.7175 16.1072 29.3142L16.8747 28.9994L17.6787 28.7239C18.2086 28.5272 18.7659 28.4092 19.3049 28.2616C21.5068 27.7599 23.8091 27.6812 26.0293 28.0354C27.1439 28.1928 28.2311 28.5075 29.291 28.8617C30.3416 29.2453 31.374 29.688 32.3608 30.2093C34.3342 31.252 36.1706 32.5308 37.87 33.967C39.5694 35.4032 41.1591 36.9672 42.5478 38.7182C43.9365 40.4593 45.1882 42.3283 46.1658 44.3645C46.3485 44.7482 46.2115 45.2203 45.8552 45.4171C45.5902 45.5745 45.2522 45.5154 45.042 45.2892Z" fill="#000072"/>
<path d="M127.352 151.871C146.173 144.248 163.797 137.047 168.164 117.019C171.389 102.215 164.382 89.6236 164.382 89.604C164.062 88.8367 155.912 32.206 111.894 21.9855C99.4864 19.1033 88.5684 20.1066 78.0707 22.4183C67.6279 25.0054 57.313 28.9598 47.1259 37.1244C11.0099 66.0644 25.3814 121.249 25.3905 122.085C25.3905 122.105 23.8648 136.693 32.4986 148.723C44.184 165.003 62.9958 163.685 83.0592 162.22L127.352 151.871Z" fill="white"/>
<g opacity="0.2">
<path d="M168.172 117.029C163.805 137.057 146.181 144.258 127.36 151.881C127.36 151.881 117.091 156.986 105.205 159.77C93.3181 162.554 83.0672 162.23 83.0672 162.23C63.0037 163.695 44.192 165.004 32.5066 148.733C27.6369 141.946 26.0015 134.342 25.499 129.01C26.5771 132.286 28.1668 135.719 30.4966 138.956C39.2949 151.212 52.6888 155.649 67.3252 156.475C74.8719 156.898 82.4459 156.17 89.8281 154.439L103.56 151.842L118.461 147.75C125.908 146.009 133.125 143.284 139.868 139.477C152.695 132.227 162.882 122.282 166.153 107.261C167.058 103.12 167.158 99.1557 166.838 95.5947C168.483 100.651 170.036 108.471 168.172 117.029Z" fill="#000072"/>
</g>
<path d="M95.9772 162.072C92.1125 162.79 88.2204 163.253 84.3283 163.626C80.4362 163.981 76.535 164.256 72.5972 164.443C68.6686 164.62 64.7126 164.679 60.7382 164.423C56.7731 164.167 52.7713 163.567 48.8793 162.367C44.9963 161.167 41.2139 159.308 37.9156 156.672C36.262 155.364 34.7362 153.888 33.3475 152.275C31.9587 150.671 30.6888 148.93 29.5924 147.071C28.4961 145.212 27.5459 143.254 26.7693 141.228C26.0018 139.202 25.3623 137.116 24.8963 134.982C24.4213 132.857 24.1015 130.703 23.9187 128.529C23.8274 127.447 23.7726 126.355 23.7634 125.253C23.7543 124.702 23.7543 124.161 23.7726 123.6L23.8091 122.764L23.8365 122.341L23.8548 122.125L23.8639 122.017L23.8731 121.958C23.8731 121.928 23.8639 122.056 23.8639 122.105C23.8639 122.164 23.8731 122.233 23.8822 122.292L23.8639 122.085C23.8639 122.145 23.8639 122.204 23.8731 122.253C23.8913 122.341 23.8731 122.253 23.8731 122.263L23.8548 122.174L23.8091 121.938L23.6995 121.446L23.4893 120.443L23.0965 118.426C22.8498 117.079 22.6214 115.721 22.4204 114.364C22.0184 111.649 21.6986 108.924 21.4702 106.179C21.0134 100.7 20.9038 95.1915 21.2053 89.6927C21.5159 84.1939 22.2377 78.705 23.4893 73.3341C24.7319 67.9632 26.5043 62.7201 28.8798 57.782C31.2461 52.8439 34.2063 48.2206 37.6872 44.1088C41.1682 39.997 45.179 36.3967 49.464 33.367C51.6019 31.8423 53.8129 30.4258 56.0878 29.1371C58.3628 27.8583 60.7017 26.7074 63.0863 25.6746C67.8555 23.6187 72.7617 22.0743 77.7501 20.8447C82.7751 19.7429 87.8275 18.9658 92.9622 18.7199C95.5203 18.592 98.0968 18.6019 100.664 18.7494C103.231 18.9068 105.79 19.2118 108.32 19.6544C113.382 20.5102 118.416 21.9956 123.158 24.199C127.909 26.3828 132.376 29.2749 136.424 32.7177C140.48 36.1508 144.107 40.1347 147.296 44.4629C150.494 48.7912 153.262 53.4538 155.656 58.3231C158.05 63.1923 160.069 68.2583 161.75 73.4423C162.59 76.0392 163.358 78.6558 164.034 81.3019C164.372 82.6299 164.692 83.9579 164.984 85.2957L165.404 87.3024L165.605 88.3058L165.706 88.8074L165.751 89.0435L165.77 89.132C165.77 89.1222 165.788 89.2107 165.77 89.1222C165.761 89.073 165.742 89.0238 165.715 88.9747L165.779 89.1616C165.761 89.1025 165.742 89.0435 165.724 88.9943C165.715 88.955 165.651 88.8468 165.669 88.8763L165.697 88.9255L165.751 89.0238L165.852 89.2108L166.035 89.5845L166.391 90.3321C166.619 90.824 166.839 91.3257 167.04 91.8273C167.451 92.8307 167.825 93.8537 168.173 94.8866C168.858 96.9523 169.397 99.0771 169.79 101.231C170.183 103.386 170.42 105.579 170.493 107.783C170.557 109.986 170.457 112.209 170.164 114.403C169.561 118.79 168.255 123.049 166.208 126.925C164.18 130.801 161.43 134.204 158.305 137.028C155.19 139.87 151.736 142.182 148.182 144.169C144.628 146.156 140.974 147.868 137.292 149.442C129.928 152.58 122.546 155.442 114.917 157.665C114.533 157.774 114.14 157.537 114.04 157.124C113.948 156.76 114.113 156.387 114.423 156.229C117.977 154.38 121.605 152.737 125.259 151.163C128.905 149.599 132.587 148.124 136.195 146.53C139.813 144.946 143.367 143.245 146.775 141.297C150.174 139.339 153.427 137.136 156.323 134.509C159.219 131.893 161.713 128.804 163.55 125.302C165.395 121.81 166.619 117.915 167.177 113.931C167.451 111.934 167.551 109.907 167.497 107.881C167.433 105.855 167.222 103.828 166.866 101.831C166.51 99.8345 166.016 97.8573 165.386 95.9293C165.075 94.9653 164.728 94.021 164.344 93.0865C164.153 92.6241 163.961 92.1618 163.751 91.7093L163.431 91.0404L163.266 90.7158L163.184 90.5584L163.148 90.4797L163.129 90.4404C163.138 90.4502 163.075 90.3321 163.047 90.2731C163.02 90.2043 162.992 90.1354 162.974 90.0567L163.038 90.2436C163.001 90.1551 162.974 90.0666 162.956 89.978C162.928 89.8501 162.937 89.8993 162.928 89.8501L162.892 89.6927L162.837 89.437L162.746 88.9353L162.554 87.9516L162.152 85.9941C161.869 84.6956 161.567 83.3972 161.238 82.1085C160.58 79.5313 159.859 76.9737 159.027 74.4456C157.383 69.3993 155.409 64.4809 153.088 59.7691C150.768 55.0572 148.091 50.5519 145.003 46.4008C141.933 42.2496 138.452 38.4428 134.587 35.177C130.732 31.9111 126.483 29.1765 121.979 27.1009C117.466 25.0253 112.715 23.6187 107.827 22.8022C105.388 22.3792 102.939 22.094 100.481 21.9464C98.0237 21.7988 95.5477 21.7988 93.0809 21.9267C88.1564 22.1726 83.2137 22.9399 78.3714 24.0023C73.5565 25.1926 68.7691 26.7074 64.1918 28.6945C61.8986 29.688 59.6602 30.7897 57.4766 32.0292C55.293 33.2686 53.1825 34.6261 51.1268 36.1016C46.9972 39.033 43.233 42.4366 39.9348 46.3418C36.6365 50.2372 33.8317 54.6146 31.5841 59.3067C29.3275 63.9989 27.6372 69.0059 26.4495 74.1505C25.2527 79.2952 24.5492 84.5874 24.2568 89.8993C23.9644 95.2211 24.0649 100.572 24.5126 105.894C24.7319 108.55 25.0425 111.206 25.4445 113.842C25.6455 115.16 25.8648 116.478 26.1023 117.787L26.4769 119.744L26.6779 120.728L26.7784 121.22L26.8332 121.476L26.8607 121.633L26.8789 121.771C26.8972 121.869 26.8972 121.967 26.9063 122.066L26.8881 121.859C26.8972 121.938 26.8972 122.017 26.8972 122.095C26.8972 122.154 26.8881 122.302 26.8881 122.292V122.331L26.8789 122.42L26.8698 122.597L26.8515 122.961L26.8241 123.709C26.8058 124.21 26.8058 124.712 26.8058 125.214C26.815 126.217 26.8607 127.23 26.9429 128.243C27.0982 130.26 27.3997 132.267 27.8291 134.224C28.2494 136.192 28.8341 138.11 29.5376 139.979C30.2502 141.838 31.1091 143.628 32.1049 145.32C33.0917 147.012 34.252 148.606 35.5128 150.071C36.7736 151.537 38.1623 152.885 39.6515 154.075C42.63 156.465 46.0653 158.177 49.6741 159.298C53.2921 160.43 57.0746 161.02 60.8936 161.275C64.7217 161.541 68.5772 161.492 72.451 161.325C76.3249 161.167 80.2078 160.843 84.109 160.636C88.0103 160.449 91.9206 160.351 95.8401 160.518C96.233 160.538 96.5436 160.892 96.5345 161.325C96.5619 161.718 96.3061 162.013 95.9772 162.072Z" fill="#000072"/>
<path d="M107.835 23.825C104.208 18.5328 116.551 15.7195 114.203 10.6141C112.495 6.90564 96.2776 3.94476 88.265 17.7163C88.265 17.7163 87.3331 14.6669 86.7118 10.5059C85.9627 5.50881 84.5465 1.61342 82.4726 1.53473C78.2699 1.38717 73.8296 11.9716 62.4914 24.0119C58.1059 28.6746 49.3076 36.1407 45.0684 38.9442L85.6703 54.9783L107.835 23.825Z" fill="white"/>
<g opacity="0.4">
<path d="M113.548 14.2734C109.098 11.4601 95.9327 10.7912 88.98 22.7626C88.98 22.7626 88.0572 19.7132 87.4268 15.5522C86.6776 10.5551 85.2615 6.65972 83.1875 6.58103C78.9848 6.43348 74.5445 17.0179 63.2063 29.0681C59.9903 32.4814 54.408 37.4097 49.9769 40.8919L45.0615 38.9541C49.2917 36.1506 58.0991 28.6844 62.4846 24.0218C73.8228 11.9716 78.263 1.38717 82.4657 1.53473C84.5397 1.61342 85.9558 5.50881 86.705 10.5059C87.3354 14.6768 88.2582 17.7163 88.2582 17.7163C96.2616 3.93492 112.488 6.90564 114.196 10.6141C114.827 11.9618 114.416 13.152 113.548 14.2734Z" fill="white"/>
</g>
<path d="M107.259 24.2773C106.876 23.8543 106.519 23.333 106.318 22.6641C106.117 22.005 106.108 21.2181 106.291 20.559C106.464 19.8803 106.757 19.3097 107.086 18.8179C107.415 18.326 107.762 17.8834 108.127 17.4899C108.849 16.703 109.598 16.0242 110.32 15.3848C111.033 14.7454 111.727 14.1257 112.248 13.4863C112.513 13.1715 112.723 12.8568 112.851 12.5715C112.979 12.2862 113.024 12.0698 113.006 11.8829C112.997 11.7845 112.988 11.6862 112.951 11.578C112.924 11.4796 112.842 11.3025 112.823 11.2927C112.75 11.1845 112.513 10.9484 112.22 10.7517C111.626 10.3484 110.832 10.0237 110.028 9.78766C109.214 9.55158 108.356 9.39419 107.497 9.30565C104.025 8.95153 100.425 9.59092 97.2733 11.1747C95.7018 11.9714 94.2217 12.9945 92.9152 14.2438C91.6087 15.493 90.4667 16.939 89.48 18.5326L89.4526 18.5818C89.0232 19.2901 88.1369 19.4868 87.4882 19.0245C87.205 18.8277 87.004 18.5326 86.9126 18.208C86.4558 16.6439 86.1087 15.1487 85.798 13.6044C85.6427 12.8371 85.5057 12.06 85.3869 11.2829L85.2133 10.1615C85.1585 9.7975 85.0854 9.43353 85.0214 9.07941C84.7382 7.65306 84.3819 6.23656 83.8794 5.00695C83.6236 4.39707 83.3221 3.83637 83.0114 3.48224C82.8561 3.30518 82.7099 3.18713 82.6094 3.13795C82.5637 3.11828 82.5181 3.09861 82.4815 3.09861C82.4541 3.09861 82.4541 3.09861 82.4176 3.09861C82.3719 3.09861 82.3353 3.0986 82.2897 3.10844C81.9516 3.13795 81.4948 3.34452 81.0288 3.69865C80.5538 4.05278 80.0787 4.51511 79.6127 5.01679C78.6808 6.02999 77.7946 7.19073 76.9083 8.36132C75.145 10.7222 73.4 13.1715 71.5727 15.5619C69.7546 17.9522 67.8542 20.2934 65.8716 22.546C64.8758 23.6773 63.8799 24.779 62.811 25.8611C61.7511 26.9431 60.6822 27.976 59.5858 28.9892C57.4022 31.0156 55.1821 32.9633 52.9072 34.8519C51.7743 35.7963 50.6231 36.7209 49.4536 37.6358C48.2842 38.5506 47.0964 39.4359 45.8356 40.2819C45.1687 40.7344 44.2824 40.5081 43.8622 39.7802C43.4419 39.0523 43.652 38.1079 44.3281 37.6554L44.3373 37.6456C45.4884 36.8783 46.6488 36.0127 47.7817 35.1274C48.9146 34.2421 50.0475 33.3371 51.1621 32.4026C53.4005 30.5532 55.5841 28.6252 57.722 26.648C58.7818 25.6545 59.8325 24.6511 60.8375 23.6183C61.8334 22.5952 62.8292 21.5033 63.7977 20.4115C65.7346 18.2178 67.5801 15.9357 69.3709 13.5847C71.1616 11.2435 72.8884 8.82365 74.6882 6.40378C75.5927 5.19385 76.5155 3.98392 77.5936 2.82317C78.1326 2.2428 78.7082 1.66242 79.4117 1.14107C80.1061 0.629556 80.9649 0.127874 82.0612 0.0196689C82.1983 0.00983204 82.3353 0 82.4724 0C82.6094 0 82.783 0.0196701 82.9383 0.0393438C83.2581 0.088528 83.5596 0.196733 83.8337 0.334449C84.3819 0.609881 84.793 0.993521 85.1219 1.37716C85.7797 2.15427 86.1635 2.95105 86.5015 3.738C87.1502 5.3119 87.5248 6.87595 87.8446 8.44985C87.9177 8.84332 87.9907 9.2368 88.0547 9.62043L88.2374 10.7615C88.3562 11.4993 88.4841 12.2272 88.6303 12.9551C88.9226 14.4011 89.2698 15.8865 89.6627 17.244L87.0954 16.9095C89.1419 13.1715 92.2574 10.0139 95.9576 8.1154C97.8032 7.16122 99.7675 6.50215 101.778 6.14803C103.787 5.7939 105.834 5.70537 107.862 5.95129C108.876 6.06933 109.891 6.2759 110.905 6.58085C111.919 6.90546 112.924 7.2891 113.929 7.99735C114.422 8.36132 114.943 8.77446 115.4 9.52207C115.646 9.94505 115.747 10.2402 115.866 10.6238C115.975 10.9976 116.03 11.4107 116.039 11.8239C116.058 12.66 115.82 13.447 115.509 14.0667C115.199 14.6864 114.824 15.1881 114.44 15.6209C113.682 16.4866 112.896 17.1555 112.129 17.785C111.371 18.4146 110.612 18.9851 109.936 19.5753C109.269 20.1557 108.675 20.7656 108.383 21.346C108.246 21.6411 108.164 21.9066 108.173 22.2509C108.173 22.5854 108.283 22.9789 108.456 23.3822L108.474 23.4314C108.639 23.8248 108.474 24.2872 108.118 24.4642C107.789 24.5823 107.469 24.5036 107.259 24.2773Z" fill="#000072"/>
<path d="M73.3838 129.945C77.349 128.037 86.0285 121.387 82.6207 105.402C79.2768 89.7124 72.589 85.9449 63.2425 87.9024C53.896 89.8599 42.0096 98.0442 36.7745 108.786C33.0469 116.439 34.0336 127.614 37.1765 131.617C43.4075 139.506 69.4187 131.853 73.3838 129.945Z" fill="#5F5F82"/>
<path d="M122.968 118.328C118.619 118.367 108.158 116.193 105.097 100.13C102.091 84.3614 106.714 77.9478 115.969 75.5476C125.225 73.1474 139.203 75.282 148.102 82.7088C154.443 88.001 157.86 98.6052 156.544 103.651C153.931 113.626 127.317 118.299 122.968 118.328Z" fill="#5F5F82"/>
<path d="M41.7268 77.0033C40.53 75.7048 43.7643 60.861 55.7694 62.2185C60.0909 62.7103 61.3243 66.8615 58.3824 68.4944C55.5776 70.0486 54.0883 69.665 49.8217 72.498C47.4097 74.0916 42.9328 78.3017 41.7268 77.0033Z" fill="#5F5F82"/>
<path d="M130.942 56.1975C131.536 54.4859 122.884 42.4062 112.477 48.9969C108.731 51.3676 109.197 55.6958 112.514 55.8729C115.666 56.0401 116.872 55.0269 121.842 55.7056C124.656 56.0794 130.348 57.9189 130.942 56.1975Z" fill="#5F5F82"/>
<path d="M48.6315 171.436C39.8149 180.88 33.9311 198.055 45.8632 207.98C56.8268 217.099 77.0912 205.137 80.6818 192.222C81.7142 188.503 71.9018 165.879 67.5711 171.436C63.9623 176.07 54.296 177.043 50.4131 180.398" fill="#686779"/>
<path d="M80.682 192.221C77.0914 205.137 56.827 217.099 45.8634 207.98C39.2578 202.491 38.1157 194.779 39.8973 187.382C41.3409 181.411 44.6939 175.656 48.6317 171.436L50.4133 180.398C52.8161 178.322 57.4208 177.161 61.4408 175.479C63.9259 174.436 66.1917 173.207 67.5713 171.436C69.9559 168.367 74.0124 173.886 77 180.063C77.4934 181.096 77.9685 182.148 78.3888 183.181C80.0424 187.175 81.0474 190.903 80.682 192.221Z" fill="#5F5F82"/>
<g opacity="0.2">
<path d="M80.682 192.221C77.0914 205.137 56.827 217.099 45.8634 207.98C39.2578 202.491 38.1157 194.779 39.8973 187.382C40.0161 189.349 41.4505 205.816 55.6941 204.911C61.8428 204.518 66.0364 200.524 66.0364 197.907C66.0364 192.802 56.5529 186.595 61.3677 175.823C61.4134 175.715 61.4134 175.587 61.4317 175.469C63.9168 174.427 66.1826 173.197 67.5622 171.426C69.9468 168.357 74.0033 173.876 76.9909 180.053C77.4477 181.086 77.9137 182.129 78.3796 183.172C80.0424 187.175 81.0474 190.903 80.682 192.221Z" fill="#000072"/>
</g>
<path d="M49.646 172.529C47.8736 174.466 46.3112 176.64 44.9773 178.952C43.6434 181.264 42.5562 183.733 41.7979 186.3C41.0487 188.858 40.6284 191.524 40.7381 194.13C40.8294 196.737 41.4416 199.275 42.6202 201.498C43.214 202.61 43.9175 203.652 44.7489 204.587C45.1601 205.059 45.5986 205.512 46.0554 205.935C46.5123 206.367 46.9965 206.771 47.4716 207.115C49.3993 208.522 51.7291 209.279 54.132 209.436C56.544 209.604 59.0199 209.2 61.3954 208.443C63.78 207.676 66.0915 206.564 68.2568 205.177C70.4129 203.79 72.4321 202.128 74.1954 200.219C75.9587 198.321 77.4845 196.157 78.5077 193.806C78.7636 193.215 78.9828 192.615 79.1656 192.015L79.2387 191.789C79.2569 191.73 79.2387 191.789 79.2478 191.75C79.2569 191.701 79.2661 191.612 79.2569 191.494C79.2569 191.268 79.2295 190.973 79.1838 190.678C78.992 189.458 78.6082 188.14 78.1788 186.861C77.3109 184.293 76.2237 181.756 74.9811 179.346C74.3598 178.145 73.6929 176.975 72.9711 175.873C72.2494 174.781 71.4636 173.739 70.6139 172.952C70.2028 172.568 69.7551 172.263 69.4354 172.165C69.2709 172.106 69.1613 172.106 69.0973 172.115C69.0334 172.125 68.9694 172.145 68.8689 172.234C68.8415 172.263 68.8141 172.283 68.7867 172.302L68.7045 172.401L68.3299 172.834C68.0558 173.138 67.7725 173.424 67.4802 173.68C66.8955 174.201 66.2742 174.634 65.6529 175.017C63.1404 176.522 60.5274 177.329 58.0058 178.145C56.7358 178.539 55.4842 178.932 54.269 179.365C53.063 179.808 51.8753 180.29 50.8703 180.998L50.852 181.008C50.5231 181.244 50.0754 181.136 49.8562 180.782C49.6643 180.457 49.7191 180.044 49.9749 179.798C51.053 178.726 52.2956 178.018 53.529 177.388C54.7624 176.758 56.0141 176.247 57.2475 175.726C59.7051 174.712 62.172 173.758 64.2459 172.42C64.7575 172.086 65.2418 171.722 65.662 171.329C65.8813 171.132 66.0732 170.925 66.2559 170.719L66.5483 170.365L66.8041 170.079L67.0965 169.804C67.5167 169.45 68.074 169.155 68.6588 169.056C69.2435 168.958 69.8099 169.046 70.2759 169.194C71.2169 169.519 71.8839 170.04 72.4778 170.571C73.6472 171.643 74.5243 172.834 75.3374 174.043C76.1506 175.263 76.8723 176.513 77.5393 177.791C78.8732 180.349 80.0244 182.985 80.9837 185.749C81.4497 187.146 81.8882 188.543 82.1532 190.127C82.2171 190.53 82.2628 190.943 82.2719 191.425C82.2811 191.661 82.2719 191.927 82.2262 192.232C82.208 192.37 82.1532 192.596 82.1258 192.704L82.0435 192.979C81.8242 193.727 81.5684 194.455 81.2578 195.153C80.0609 197.967 78.3342 200.406 76.3881 202.541C74.4329 204.675 72.2311 206.515 69.8739 208.059C67.5076 209.604 64.9768 210.853 62.2907 211.709C59.6138 212.555 56.7906 213.027 53.9127 212.83C51.053 212.643 48.1385 211.719 45.6808 209.928C45.0596 209.476 44.5023 209.004 43.9632 208.502C43.4242 208 42.9034 207.469 42.41 206.899C41.4233 205.767 40.5554 204.508 39.8427 203.151C38.4083 200.426 37.65 197.298 37.5769 194.229C37.4855 191.14 37.9972 188.12 38.8651 185.267C40.6284 179.572 43.6983 174.496 47.6086 170.325C48.1751 169.725 49.0796 169.735 49.6277 170.335C50.1942 170.965 50.1942 171.929 49.646 172.529Z" fill="#000072"/>
<path d="M62.2188 172.873C62.2188 172.873 62.2005 161.935 67.7554 159.938C71.1724 158.708 74.1782 163.036 73.292 166.814C72.6525 169.539 62.2188 172.873 62.2188 172.873Z" fill="#5F5F82"/>
<path d="M60.793 174.929V172.873C60.793 172.381 60.8386 160.793 67.3072 158.472C69.171 157.803 71.1079 158.295 72.6337 159.82C74.4609 161.649 75.2832 164.61 74.6802 167.197C73.9493 170.306 66.8138 173.011 62.6294 174.349L60.793 174.929ZM68.9517 161.266C68.7233 161.266 68.4766 161.305 68.2117 161.403C65.215 162.476 64.0912 167.404 63.7714 170.729C67.9285 169.224 71.5282 167.345 71.921 166.41C72.2591 164.945 71.7657 163.154 70.6876 162.082C70.2856 161.679 69.6918 161.266 68.9517 161.266Z" fill="#000072"/>
<path d="M110.232 207.981C132.797 207.981 151.09 188.286 151.09 163.99C151.09 139.695 132.797 120 110.232 120C87.6667 120 69.374 139.695 69.374 163.99C69.374 188.286 87.6667 207.981 110.232 207.981Z" fill="#FFD62C"/>
<path d="M150.569 157.025C154.142 181.008 138.985 203.573 116.701 207.429C101.142 210.115 86.2221 202.964 77.4238 190.225C86.3957 200.603 99.8536 206.131 113.832 203.721C136.116 199.875 151.273 177.309 147.701 153.317C146.623 146.107 143.973 139.575 140.191 134.086C145.508 140.234 149.245 148.103 150.569 157.025Z" fill="#FFB42E"/>
<g opacity="0.7">
<path d="M146.695 144.119C139.085 131.174 125.49 123.088 110.744 123.658V123.678C111.054 125.301 108.286 127.269 104.577 128.095C100.867 128.911 97.6055 128.262 97.304 126.639V126.629C79.7348 133.977 68.6889 153.749 71.7953 174.594C72.4805 179.187 73.7962 183.496 75.6508 187.441C72.8003 182.571 70.7903 177.004 69.8858 170.964C66.3135 146.972 81.4707 124.406 103.754 120.56C121.762 117.442 138.893 127.505 146.695 144.119Z" fill="white"/>
</g>
<path d="M110.141 209.534C101.315 209.534 92.7361 206.564 85.4453 200.888C76.2907 193.756 70.2698 183.221 68.4791 171.21C66.6884 159.199 69.3471 147.159 75.9709 137.312C82.5948 127.456 92.3798 120.973 103.535 119.045C114.691 117.117 125.874 119.98 135.019 127.111C144.174 134.243 150.195 144.778 151.985 156.789C153.776 168.8 151.117 180.84 144.494 190.687C137.87 200.544 128.085 207.026 116.929 208.954C114.663 209.338 112.398 209.534 110.141 209.534ZM110.314 121.534C108.213 121.534 106.103 121.711 103.983 122.075C93.5858 123.875 84.4586 129.925 78.2824 139.103C72.1062 148.29 69.6303 159.514 71.2931 170.708C72.9651 181.903 78.5839 191.73 87.1081 198.379C95.6415 205.029 106.066 207.695 116.463 205.905C126.86 204.104 135.988 198.055 142.164 188.877C148.34 179.689 150.816 168.466 149.153 157.271C147.481 146.077 141.862 136.25 133.338 129.6C126.55 124.298 118.546 121.534 110.314 121.534Z" fill="#000072"/>
<path d="M110.232 197.052C127.191 197.052 140.939 182.25 140.939 163.99C140.939 145.731 127.191 130.929 110.232 130.929C93.2725 130.929 79.5244 145.731 79.5244 163.99C79.5244 182.25 93.2725 197.052 110.232 197.052Z" fill="#FF9C43"/>
<path d="M110.232 197.052C127.191 197.052 140.939 182.25 140.939 163.99C140.939 145.731 127.191 130.929 110.232 130.929C93.2725 130.929 79.5244 145.731 79.5244 163.99C79.5244 182.25 93.2725 197.052 110.232 197.052Z" fill="#FF9C43"/>
<path d="M140.555 158.757C143.241 176.788 131.839 193.747 115.102 196.649C101.397 199.02 88.3594 191.229 82.6035 178.441C88.9167 189.498 100.995 195.95 113.64 193.767C130.387 190.875 141.789 173.906 139.094 155.875C138.609 152.6 137.687 149.511 136.407 146.678C138.454 150.258 139.898 154.341 140.555 158.757Z" fill="#FF7A45"/>
<path d="M79.9077 169.233C77.2216 151.202 88.6238 134.243 105.362 131.341C119.066 128.971 132.104 136.761 137.86 149.549C131.546 138.493 119.468 132.04 106.823 134.224C90.0764 137.116 78.6743 154.084 81.3695 172.115C81.8537 175.391 82.7765 178.48 84.0556 181.313C82.009 177.722 80.5655 173.65 79.9077 169.233Z" fill="#FF7A45"/>
<path d="M121.295 169.498C121.944 173.836 119.34 177.712 115.32 179.473L116.096 184.696L110.669 185.631L109.874 180.309C105.48 179.837 101.643 176.807 101.25 176.492L104.502 171.643C104.849 171.958 108.358 174.83 111.848 174.23C114.47 173.777 115.95 172.076 115.722 170.512C115.018 165.81 100.537 167.403 99.194 158.422C98.5454 154.084 101.104 150.218 105.124 148.507L104.347 143.283L109.774 142.349L110.569 147.67C114.963 148.143 118.792 151.123 119.184 151.428L115.978 156.268C115.576 155.904 112.04 153.199 108.595 153.799C105.973 154.251 104.475 155.845 104.703 157.419C105.425 162.111 119.961 160.517 121.295 169.498Z" fill="#FFD62C"/>
<path d="M112.057 117.314C111.226 121.505 108.302 123.826 104.721 123.993C98.6358 124.269 97.5029 116.862 97.5029 116.862H97.4937C97.4937 116.862 99.321 124.102 93.6747 126.571C90.3582 128.027 86.7951 127.21 84.4288 123.777C84.4288 123.777 84.31 118.003 96.7171 114.324C109.124 110.635 112.057 117.314 112.057 117.314Z" fill="white"/>
<path d="M112.057 117.314C111.226 121.505 108.302 123.826 104.721 123.993C98.6358 124.269 97.5029 116.862 97.5029 116.862H97.4937C97.4937 116.862 99.321 124.102 93.6747 126.571C90.3582 128.027 86.7951 127.21 84.4288 123.777C84.4288 123.777 84.31 118.003 96.7171 114.324C109.124 110.635 112.057 117.314 112.057 117.314Z" fill="white"/>
<g opacity="0.2">
<path d="M111.802 116.872C110.12 118.583 107.891 119.518 105.406 119.636C100.902 119.842 99.5589 116.488 99.2117 113.694C98.426 113.852 97.5945 114.068 96.7174 114.324C96.0414 114.521 95.4018 114.727 94.7988 114.944C95.5937 117.531 95.6942 121.062 91.5189 122.892C89.1708 123.925 86.7223 124.043 84.5022 123.187C84.4199 123.571 84.4199 123.787 84.4199 123.787C86.7954 127.22 90.3494 128.036 93.675 126.581C97.1012 125.085 97.7773 121.829 97.7773 119.498C97.7773 118.465 97.6494 117.609 97.558 117.177C97.8504 118.573 99.3761 124.239 104.721 123.994C108.302 123.836 111.226 121.505 112.057 117.314C112.057 117.314 111.975 117.147 111.802 116.872ZM97.494 116.872C97.5032 116.872 97.5123 116.911 97.5215 116.99C97.5032 116.911 97.494 116.872 97.494 116.872Z" fill="#000072"/>
</g>
<path d="M112.752 117.472C112.907 119.577 111.993 121.859 110.358 123.334C108.741 124.839 106.64 125.616 104.575 125.666C104.036 125.646 103.506 125.685 102.967 125.557C102.693 125.498 102.428 125.459 102.163 125.38L101.368 125.085C100.335 124.633 99.3852 123.934 98.6543 123.079C97.9234 122.223 97.3661 121.259 96.9458 120.275C96.8362 120.029 96.7357 119.773 96.6535 119.518C96.5621 119.262 96.4799 119.006 96.4159 118.75C96.3337 118.495 96.2789 118.229 96.2241 117.973C96.1692 117.698 96.1236 117.462 96.0779 117.117L97.7955 118.377H97.7864L98.8645 116.468C98.9558 116.803 99.0015 117.029 99.0563 117.304C99.102 117.57 99.1477 117.836 99.1842 118.101C99.2573 118.632 99.2939 119.173 99.2847 119.714C99.2847 120.806 99.1477 121.928 98.8097 123.029C98.4716 124.131 97.8686 125.184 97.1194 126.059C96.9184 126.266 96.7174 126.472 96.5073 126.669C96.2972 126.856 96.0596 127.013 95.8403 127.181C95.4018 127.544 94.8993 127.741 94.4242 127.997C93.4649 128.43 92.4599 128.686 91.4183 128.774C90.3768 128.863 89.3078 128.745 88.312 128.4C86.2929 127.712 84.6849 126.089 83.8443 124.239C83.6707 123.846 83.8169 123.384 84.1824 123.197C84.4565 123.059 84.7671 123.108 84.9772 123.315L84.9864 123.324C86.238 124.515 87.5811 125.321 88.9972 125.607C90.3951 125.902 91.8843 125.675 93.2091 124.997C94.4973 124.348 95.3927 123.334 95.8495 121.937C96.0687 121.239 96.1967 120.462 96.2332 119.655C96.2423 119.459 96.2515 119.252 96.2423 119.045C96.2423 118.839 96.2423 118.632 96.2241 118.436C96.2149 118.229 96.1875 118.032 96.1784 117.826C96.1601 117.639 96.1236 117.403 96.1053 117.275L95.8586 115.671L97.1742 115.366H97.1834L98.499 115.062L98.8919 116.626C98.9193 116.753 98.9832 116.98 99.0381 117.157C99.102 117.354 99.1568 117.54 99.2299 117.737C99.3578 118.121 99.5223 118.495 99.6959 118.849C100.034 119.567 100.454 120.206 100.929 120.747C101.404 121.278 101.953 121.652 102.537 121.928C102.693 121.987 102.839 122.046 102.994 122.105C103.149 122.154 103.323 122.174 103.478 122.203C103.789 122.301 104.154 122.272 104.492 122.301C105.945 122.292 107.389 121.859 108.494 120.934C109.609 120 110.449 118.741 111.326 117.147L111.345 117.117C111.555 116.734 112.012 116.616 112.368 116.842C112.606 116.98 112.733 117.226 112.752 117.472Z" fill="#000072"/>
<path d="M104.063 109.818C104.438 111.668 102.528 113.822 100.692 115.406C98.7731 117.068 96.3702 117.629 93.9857 116.97C91.7107 116.34 89.1434 115.229 88.7688 113.379C87.6542 107.812 102.948 104.251 104.063 109.818Z" fill="#000072"/>
<g opacity="0.5">
<path d="M99.2293 109.799C99.3389 110.33 98.5441 111.009 97.7949 111.52C97.0092 112.051 96.059 112.278 95.1362 112.14C94.2591 112.012 93.2724 111.746 93.1719 111.215C92.843 109.612 98.9095 108.195 99.2293 109.799Z" fill="white"/>
</g>
<path d="M73.6461 195.783C67.8628 194.662 60.0603 185.179 61.5496 174.024C62.6459 165.79 72.4675 161.738 78.0133 166.331C82.4901 170.04 87.3872 182.139 84.966 189.064C83.2941 193.835 78.9178 196.816 73.6461 195.783Z" fill="#5F5F82"/>
<g opacity="0.7">
<path d="M63.9359 175.175C62.7116 184.343 67.7549 192.37 72.7982 195.577C67.1336 193.757 60.126 184.658 61.5513 174.034C62.6111 166.066 71.848 162.013 77.4668 165.928C71.9393 164.286 64.8678 168.25 63.9359 175.175Z" fill="white"/>
</g>
<g opacity="0.2">
<path d="M84.9661 189.064C83.2942 193.835 78.9178 196.816 73.6462 195.793C72.3397 195.537 70.9327 194.858 69.5439 193.825C74.8065 194.838 79.1737 191.858 80.8456 187.097C83.2211 180.29 78.5341 168.476 74.1121 164.561C75.5191 164.806 76.8622 165.387 78.0133 166.341C82.4993 170.04 87.3872 182.139 84.9661 189.064Z" fill="#000072"/>
</g>
<path d="M75.6947 197.524C74.9455 197.524 74.1781 197.455 73.4015 197.298C67.0426 196.059 58.5092 186.054 60.1446 173.798C60.7294 169.401 63.5434 165.702 67.6639 163.902C71.6108 162.18 75.914 162.643 78.8924 165.112C83.6707 169.066 89.0064 181.884 86.3111 189.606C84.5752 194.544 80.473 197.524 75.6947 197.524ZM72.4787 165.948C71.2544 165.948 69.9754 166.214 68.7419 166.755C65.5716 168.142 63.4154 170.935 62.9769 174.24C61.5334 185.061 69.2353 193.353 73.9131 194.268C78.2986 195.124 82.1176 192.862 83.6342 188.514C85.8178 182.277 81.1765 170.886 77.1474 167.551C75.8592 166.489 74.2237 165.948 72.4787 165.948Z" fill="#000072"/>
<path d="M151.28 176.592C151.28 176.592 145.561 178.077 141.249 173.788C136.406 168.968 135.776 157.046 138.873 151.704C142.985 144.602 153.418 142.704 157.119 152.944C160.983 163.656 159.467 179.995 152.011 180.841" fill="#686779"/>
<path d="M159.046 168.535C158.498 175.027 156.187 180.369 152.002 180.851L151.28 176.601C151.28 176.601 145.561 178.087 141.249 173.798C136.406 168.978 135.776 157.055 138.873 151.714C140.161 149.501 142.062 147.779 144.191 146.796C148.85 144.612 154.579 145.92 157.119 152.953C158.818 157.655 159.476 163.449 159.046 168.535Z" fill="#5F5F82"/>
<g opacity="0.7">
<path d="M159.046 168.535C158.744 172.175 157.876 175.44 156.442 177.703C157.072 175.873 157.474 173.758 157.657 171.496C158.086 166.41 157.428 160.616 155.729 155.914C153.189 148.881 147.461 147.573 142.801 149.756C140.873 150.661 139.119 152.157 137.858 154.085C138.132 153.199 138.471 152.403 138.873 151.714C140.161 149.501 142.061 147.779 144.19 146.796C148.849 144.612 154.578 145.92 157.118 152.953C158.817 157.655 159.475 163.449 159.046 168.535Z" fill="white"/>
</g>
<g opacity="0.2">
<path d="M159.046 168.534C158.498 175.027 156.187 180.368 152.002 180.85L151.28 176.601C151.28 176.601 145.561 178.086 141.249 173.797C136.406 168.977 135.776 157.055 138.873 151.713C140.161 149.5 142.062 147.779 144.191 146.795C143.999 146.982 137.914 152.992 141.578 164.167C145.068 174.83 155.227 171.967 159.046 168.534Z" fill="#000072"/>
</g>
<path d="M151.452 177.338C150.95 177.516 150.52 177.614 150.045 177.712C149.579 177.801 149.104 177.87 148.629 177.899C147.679 177.958 146.71 177.919 145.742 177.752C144.783 177.575 143.814 177.27 142.901 176.837C141.969 176.424 141.11 175.804 140.379 175.056C138.871 173.522 137.821 171.672 137.099 169.754C136.377 167.836 135.939 165.839 135.701 163.832C135.464 161.826 135.436 159.79 135.637 157.763C135.847 155.737 136.249 153.691 137.163 151.713C137.638 150.7 138.214 149.844 138.871 149.028C139.529 148.221 140.269 147.484 141.073 146.854C142.681 145.595 144.563 144.7 146.573 144.356C148.574 144.001 150.73 144.237 152.64 145.182C154.559 146.116 156.103 147.739 157.181 149.549C157.711 150.464 158.14 151.418 158.496 152.402C158.825 153.346 159.118 154.301 159.364 155.265C159.858 157.193 160.196 159.15 160.388 161.127C160.771 165.072 160.689 169.095 159.693 173.01C159.447 173.984 159.127 174.948 158.734 175.892C158.332 176.827 157.857 177.752 157.236 178.588C156.623 179.424 155.874 180.191 154.988 180.752C154.102 181.313 153.069 181.627 152.073 181.647C151.681 181.657 151.352 181.313 151.343 180.88C151.333 180.506 151.58 180.191 151.909 180.112H151.918C153.453 179.758 154.613 178.647 155.436 177.211C155.847 176.492 156.176 175.706 156.459 174.889C156.733 174.063 156.943 173.207 157.126 172.332C157.802 168.82 157.884 165.111 157.5 161.481C157.299 159.671 156.98 157.871 156.523 156.12C156.294 155.245 156.03 154.389 155.719 153.563C155.408 152.776 155.061 152.009 154.641 151.32C153.791 149.943 152.667 148.841 151.352 148.202C150.036 147.543 148.519 147.366 147.03 147.621C144.043 148.123 141.229 150.346 139.831 153.209C139.146 154.645 138.762 156.386 138.579 158.137C138.396 159.898 138.405 161.698 138.597 163.478C138.798 165.249 139.173 167 139.767 168.623C140.37 170.226 141.174 171.741 142.307 172.764C142.599 173.03 142.901 173.276 143.202 173.522C143.504 173.768 143.814 174.014 144.143 174.23C144.801 174.673 145.514 175.017 146.272 175.273C147.03 175.538 147.825 175.725 148.647 175.824C149.451 175.922 150.328 175.951 151.105 175.883L151.169 175.873C151.562 175.843 151.909 176.158 151.936 176.581C151.964 176.906 151.754 177.23 151.452 177.338Z" fill="#000072"/>
<path d="M135.628 158.481C136.03 156.986 136.861 156.071 137.674 155.314C138.506 154.566 139.401 154.015 140.315 153.553C142.142 152.648 144.061 152.146 145.961 151.851C146.354 151.792 146.719 152.087 146.774 152.5C146.829 152.894 146.6 153.248 146.253 153.356H146.244C144.49 153.878 142.8 154.596 141.329 155.589C140.598 156.081 139.922 156.652 139.383 157.281C139.109 157.596 138.889 157.921 138.716 158.245C138.551 158.57 138.451 158.885 138.433 159.111C138.36 159.967 137.665 160.596 136.87 160.518C136.075 160.439 135.491 159.691 135.564 158.835C135.573 158.737 135.591 158.639 135.609 158.55L135.628 158.481Z" fill="#000072"/>
<path d="M138.799 173.06C138.699 172.686 138.553 172.322 138.516 171.938C138.48 171.555 138.425 171.181 138.47 170.817C138.48 170.63 138.498 170.453 138.516 170.266L138.635 169.745C138.699 169.391 138.836 169.086 138.955 168.771C139.475 167.541 140.27 166.577 141.157 165.82C142.947 164.305 145.186 163.577 147.36 163.685C147.753 163.705 148.064 164.069 148.045 164.492C148.027 164.885 147.744 165.2 147.388 165.23H147.369C145.542 165.377 143.806 166.233 142.591 167.561C141.988 168.22 141.513 168.997 141.294 169.774C141.074 170.551 141.138 171.26 141.403 171.771L141.44 171.84C141.833 172.588 141.595 173.532 140.91 173.965C140.216 174.398 139.338 174.132 138.936 173.394C138.882 173.276 138.836 173.168 138.799 173.06Z" fill="#000072"/>
<path d="M68.915 172.282C69.783 171.456 70.6692 170.777 71.6377 170.158C72.6061 169.538 73.6294 169.007 74.7349 168.613C75.8404 168.22 77.0281 167.974 78.2707 168.003C78.8919 168.013 79.5132 168.102 80.1345 168.259C80.7557 168.417 81.3496 168.672 81.9343 168.967C82.647 169.341 82.9485 170.256 82.6013 171.023C82.2541 171.791 81.4044 172.115 80.6918 171.741C80.637 171.712 80.5822 171.682 80.5365 171.643C79.8238 171.141 79.0016 170.807 78.1062 170.679C77.2108 170.551 76.2607 170.62 75.3105 170.836C74.3603 171.053 73.401 171.407 72.4782 171.859C71.5646 172.312 70.6418 172.863 69.8378 173.473L69.8104 173.492C69.4906 173.738 69.0429 173.65 68.8145 173.305C68.5861 172.971 68.6409 172.538 68.915 172.282Z" fill="#000072"/>
<path d="M75.6482 185.877C76.6349 185.435 77.6491 184.854 78.5627 184.215C79.4763 183.566 80.3351 182.828 81.0295 182.002C81.733 181.175 82.2629 180.241 82.537 179.297C82.6649 178.815 82.7289 178.332 82.7289 177.85C82.7289 177.368 82.6466 176.886 82.537 176.404L82.5279 176.355C82.336 175.529 82.8111 174.693 83.5785 174.486C84.346 174.28 85.1226 174.791 85.3145 175.618C85.3236 175.667 85.3327 175.716 85.3419 175.765C85.4424 176.513 85.488 177.27 85.415 178.028C85.3327 178.785 85.1591 179.533 84.8942 180.221C84.346 181.598 83.4963 182.739 82.5461 183.644C81.596 184.559 80.5544 185.277 79.4763 185.877C78.3891 186.477 77.3019 186.959 76.105 187.343C75.7304 187.461 75.3284 187.235 75.2188 186.822C75.1183 186.438 75.2919 186.045 75.6299 185.897L75.6482 185.877Z" fill="#000072"/>
<path d="M68.0203 124.447C73.6821 123.676 77.546 116.869 76.6507 109.243C75.7554 101.616 70.4397 96.058 64.7779 96.8285C59.1162 97.599 55.2522 104.406 56.1475 112.033C57.0429 119.659 62.3585 125.217 68.0203 124.447Z" fill="#000072"/>
<path d="M70.7167 114.126C72.2384 113.918 73.206 111.495 72.8779 108.714C72.5499 105.933 71.0503 103.848 69.5287 104.056C68.007 104.264 67.0394 106.687 67.3674 109.468C67.6955 112.249 69.195 114.334 70.7167 114.126Z" fill="white"/>
<g opacity="0.35">
<path d="M63.9267 116.96C64.9317 118.278 65.2332 119.783 64.5937 120.334C63.9541 120.885 62.6202 120.265 61.6152 118.947C60.6102 117.629 60.3087 116.124 60.9483 115.573C61.5878 115.022 62.9217 115.642 63.9267 116.96Z" fill="white"/>
</g>
<path d="M124.149 111.273C129.725 109.964 133.013 102.815 131.493 95.3036C129.973 87.7923 124.221 82.7637 118.644 84.0718C113.068 85.38 109.78 92.5295 111.3 100.041C112.82 107.552 118.573 112.581 124.149 111.273Z" fill="#000072"/>
<path d="M118.397 102.509C119.896 102.158 120.664 99.6534 120.111 96.914C119.558 94.1746 117.895 92.2381 116.396 92.5888C114.897 92.9394 114.13 95.4443 114.682 98.1837C115.235 100.923 116.899 102.86 118.397 102.509Z" fill="white"/>
<g opacity="0.35">
<path d="M128.469 103.797C129.018 102.197 128.842 100.653 128.075 100.348C127.308 100.043 126.242 101.092 125.693 102.693C125.143 104.293 125.32 105.837 126.087 106.142C126.853 106.447 127.92 105.397 128.469 103.797Z" fill="white"/>
</g>
<path d="M176.424 70.4221C174.177 66.4677 173.071 61.7165 173.546 56.7489C174.697 44.6889 184.702 35.9242 195.903 37.1637C207.104 38.4031 215.244 49.1745 214.093 61.2345C212.942 73.2944 202.938 82.0591 191.737 80.8196C188.621 80.4753 185.743 79.3933 183.24 77.7505L173.811 80.0327L176.424 70.4221Z" fill="white"/>
<g opacity="0.5">
<path d="M195.5 41.3635C185.039 40.2028 175.619 47.787 173.49 58.6174C173.49 57.8403 173.518 57.0631 173.591 56.2762C174.742 44.2162 184.746 35.4516 195.947 36.691C207.149 37.9305 215.289 48.7018 214.138 60.7618C214.065 61.5487 213.946 62.3258 213.8 63.0833C213.754 52.007 205.961 42.5144 195.5 41.3635Z" fill="white"/>
</g>
<path d="M193.854 82.8651C193.087 82.8651 192.319 82.8258 191.552 82.7372C188.491 82.4028 185.595 81.4093 182.936 79.796L174.193 81.9109C173.572 82.0585 172.923 81.8421 172.494 81.3502C172.064 80.8584 171.9 80.1403 172.082 79.4911L174.485 70.6871C172.229 66.3786 171.288 61.5093 171.763 56.5614C172.366 50.2166 175.234 44.5113 179.821 40.4782C184.416 36.4549 190.191 34.5957 196.084 35.2449C201.977 35.8942 207.276 38.983 211.022 43.921C214.758 48.869 216.485 55.0859 215.882 61.4306C215.279 67.7754 212.41 73.4808 207.824 77.5139C203.822 81.006 198.934 82.8651 193.854 82.8651ZM183.238 75.8219C183.567 75.8219 183.887 75.9203 184.17 76.1072C186.536 77.6614 189.149 78.5959 191.917 78.9107C196.86 79.4616 201.693 77.8975 205.549 74.5235C209.404 71.1494 211.798 66.3589 212.31 61.047C213.36 50.0691 205.914 40.2224 195.718 39.0912C190.775 38.5501 185.942 40.1044 182.087 43.4784C178.231 46.8524 175.837 51.643 175.326 56.9549C174.905 61.3519 175.81 65.6605 177.948 69.4181C178.213 69.8805 178.277 70.4412 178.14 70.9724L176.376 77.4352L182.836 75.8711C182.973 75.8318 183.101 75.8219 183.238 75.8219Z" fill="#000072"/>
<g opacity="0.3">
<path d="M176.304 70.2048C181.886 75.2905 189.579 77.5136 197.217 75.4675C205.686 73.1952 211.926 66.2504 214.174 57.8301C214.229 58.9515 214.201 60.0827 214.092 61.2336C212.941 73.2936 202.936 82.0582 191.735 80.8188C188.62 80.4745 185.742 79.3924 183.238 77.7497L173.81 80.0318L176.423 70.4212C176.377 70.3524 176.34 70.2737 176.304 70.2048Z" fill="#000072"/>
</g>
<path d="M187.304 52.8239C189.067 50.9254 191.927 51.2697 193.69 53.1682L193.964 53.4633L194.238 53.1682C196.002 51.2697 198.861 50.9254 200.625 52.8239C202.388 54.7224 202.388 57.8014 200.625 59.6999L200.351 59.995L194.805 65.966C194.339 66.4676 193.59 66.4676 193.124 65.966L187.578 59.995L187.304 59.6999C185.531 57.8112 185.531 54.7323 187.304 52.8239Z" fill="#FF0068"/>
</svg>
