<svg width="160" height="124" viewBox="0 0 160 124" fill="none" xmlns="http://www.w3.org/2000/svg">
<path d="M16.6316 108.873L4.12787 88.947V88.4668L16.6316 108.873Z" fill="#B5D163"/>
<path d="M25.4935 101.911L25.2507 104.672L18.2097 93.2682L4.12787 70.2208V67.3398L21.6088 95.669L25.4935 101.911Z" fill="#B5D163"/>
<path d="M81.9428 102.391C70.7744 104.312 60.3344 105.992 51.4725 107.193C37.7549 109.113 28.0432 110.194 26.3437 110.434L26.5865 106.833C28.0432 106.713 33.3846 106.112 41.3967 105.032C51.594 103.712 66.04 101.551 81.8214 98.9102L81.9428 102.391Z" fill="#B5D163"/>
<path d="M25.2507 105.872L25.1293 108.513L12.5042 88.1063L4.12787 74.542V71.541L16.6316 91.9476L25.2507 105.872Z" fill="#546E0D"/>
<path d="M81.8217 98.1891C65.1905 101.07 50.1375 103.231 39.8188 104.551C32.7779 105.511 28.0435 105.992 26.5867 106.232L26.8295 102.631C27.8007 102.51 29.8644 102.27 32.7779 101.91C42.2468 100.71 60.8203 98.3091 81.8217 94.5879V98.1891Z" fill="#546E0D"/>
<path d="M82.1851 106.592C79.8786 106.953 77.572 107.433 75.3869 107.793C75.3869 107.793 75.3869 107.793 75.2655 107.793C49.5297 112.114 28.6496 114.515 26.3431 114.755L26.2217 114.515L26.3431 111.154C27.7999 111.034 38.6041 109.834 53.8999 107.553C62.1548 106.352 71.8665 104.912 82.0637 103.111L82.1851 106.592Z" fill="#546E0D"/>
<path d="M158.422 96.8691V100.47C149.439 102.271 138.999 104.192 127.952 106.232C138.999 103.351 149.439 100.35 158.422 96.8691Z" fill="#B5D163"/>
<path d="M82.3072 110.795C53.4151 115.836 28.7718 118.597 26.2225 118.957L25.8583 118.357L25.9797 115.356C26.2225 115.356 51.7156 112.475 82.0645 107.193L82.3072 110.795Z" fill="#B5D163"/>
<path d="M25.0079 109.713L24.8865 112.474L4.12787 78.7432V75.7422L10.1976 85.5853L25.0079 109.713Z" fill="#B5D163"/>
<path d="M147.618 67.5793C147.982 66.2589 148.953 65.1786 150.167 64.5784L133.415 42.4912C131.473 43.0914 129.409 42.4912 128.073 41.0508C120.304 44.0517 104.037 49.6936 81.9432 54.4951L101.124 83.6645C120.668 79.9433 136.45 75.862 148.104 71.4206C147.375 70.3402 147.254 68.8998 147.618 67.5793ZM123.825 74.5416C122.975 74.6616 122.125 74.7817 121.275 74.7817C115.206 74.7817 109.743 70.5803 108.529 64.4583C107.072 57.4961 111.685 50.7739 118.726 49.3334C125.767 47.893 132.565 52.4545 134.022 59.4167C135.357 66.379 130.866 73.1011 123.825 74.5416Z" fill="#B5D163"/>
<path d="M47.2227 88.3464C53.5352 87.146 57.6627 81.024 56.3273 74.782C55.2348 69.2602 50.379 65.5391 44.9162 65.5391C44.1878 65.5391 43.4594 65.6591 42.6097 65.7791C36.2971 66.9795 32.1696 73.1015 33.505 79.3435C34.719 85.4655 40.9101 89.5468 47.2227 88.3464ZM41.1529 72.3812C41.5171 71.661 42.1241 71.1809 42.8524 70.8208L42.6097 69.5003C42.6097 69.5003 42.6097 69.3803 42.7311 69.3803L44.6734 69.1402C44.7948 69.1402 44.7948 69.1402 44.7948 69.2602L45.0376 70.5807C45.7659 70.7007 46.4943 71.0608 46.9799 71.541C47.5869 72.1412 47.9511 72.7414 48.0725 73.5816L48.3152 75.0221C48.3152 75.0221 48.3152 75.1422 48.1939 75.1422L46.1301 75.5023H46.0087L45.7659 74.0618C45.6445 73.5816 45.5232 73.3416 45.159 73.1015C44.7948 72.8614 44.552 72.8614 44.1878 72.8614C43.8236 72.8614 43.4594 73.1015 43.338 73.4616C43.0952 73.8217 43.0952 74.1819 43.0952 74.542C43.2166 74.9021 43.338 75.2622 43.4594 75.5023C43.5808 75.7423 43.945 75.9824 44.4306 76.1025L46.4943 76.8227C47.2227 77.0628 47.7083 77.4229 48.1939 77.783C48.558 78.2631 48.9222 78.8633 49.0436 79.5836C49.165 80.4238 49.0436 81.2641 48.6794 81.8643C48.3152 82.5845 47.7083 83.0647 47.1013 83.4248L47.3441 84.7453C47.3441 84.7453 47.3441 84.8653 47.2227 84.8653L45.2804 85.1054C45.159 85.1054 45.159 85.1054 45.159 84.9853L44.9162 83.6649C44.0664 83.5448 43.4594 83.1847 42.8524 82.5845C42.2455 81.9843 41.8813 81.2641 41.7599 80.5439L41.6385 79.7036C41.6385 79.7036 41.6385 79.5836 41.7599 79.5836L43.8236 79.2235C43.8236 79.2235 43.945 79.2235 43.945 79.3435L44.0664 80.1838C44.1878 80.5439 44.3092 80.904 44.6734 81.1441C45.0376 81.3842 45.4018 81.5042 45.7659 81.3842C46.1301 81.3842 46.4943 81.1441 46.7371 80.784C46.9799 80.4238 46.9799 80.0637 46.9799 79.7036C46.8585 79.2235 46.6157 78.8634 45.8873 78.6233C45.6445 78.5032 45.4018 78.3832 44.9162 78.2631C44.4306 78.1431 44.0664 77.903 43.5808 77.783C42.8524 77.5429 42.2455 77.0628 41.7599 76.5826C41.2743 76.1025 41.0315 75.3822 40.9101 74.662C40.6673 73.8217 40.7887 72.9814 41.1529 72.3812Z" fill="#789C13"/>
<path d="M101.366 86.4259L79.0288 52.2148C73.2018 53.4152 67.0107 54.6156 60.3339 55.696L82.5493 89.6669C88.7405 88.7066 95.053 87.6263 101.366 86.4259Z" fill="#FFD999"/>
<path d="M158.059 70.341C152.475 72.9819 145.677 75.5027 138.15 77.7834C130.381 80.1842 121.762 82.2248 113.021 84.1455C109.622 84.8657 106.223 85.5859 102.824 86.3062L101.61 84.3855C105.373 83.6653 108.894 82.9451 112.293 82.2248C121.762 80.1842 130.138 78.1435 137.422 75.8628C141.549 74.6624 145.434 73.342 148.833 72.0215L149.197 71.9015L148.954 71.5414C148.104 70.4611 147.862 69.1406 148.226 67.8202C148.59 66.4998 149.561 65.5394 150.775 65.0593L151.139 64.9393L133.78 41.8918L133.658 41.6517L133.416 41.7718C131.716 42.492 129.652 41.8918 128.56 40.4514L128.438 40.2113L128.196 40.3313C126.86 40.8115 125.282 41.4117 123.461 42.0119C117.634 44.0525 109.258 46.8134 98.9393 49.6943C93.7193 51.1348 88.0137 52.5753 81.7011 53.8957L80.4872 51.9751C86.9211 50.5346 92.7481 49.0941 98.0895 47.6537C108.408 44.8928 116.784 42.1319 122.611 39.9712C127.71 38.0506 131.109 36.7302 132.323 36.25L158.059 70.341Z" fill="#789C13"/>
<path d="M81.6982 93.9885C59.847 97.8297 40.6665 100.231 31.5619 101.431C29.2554 101.671 27.6772 101.911 26.7061 102.031L26.8275 99.1502V98.3099C30.7121 97.9498 54.2628 95.6691 81.4554 91.3477L81.6982 93.9885Z" fill="#B5D163"/>
<path d="M25.6149 97.7104V98.3106L25.4935 100.711L22.9442 96.6301L4.12787 66.0202V62.5391L25.6149 97.7104Z" fill="#546E0D"/>
<path d="M81.0924 90.0267C75.751 90.867 70.531 91.7073 65.5538 92.3074C55.2351 93.7479 46.0091 94.8282 39.2109 95.6685C32.5342 96.3887 28.0426 96.8689 26.7072 96.9889L4.61322 60.9773C11.4114 60.8573 18.0881 60.4972 24.4007 60.1371C33.7481 59.5369 42.61 58.4565 50.9863 57.3762C53.657 57.0161 56.3277 56.6559 58.877 56.1758L60.091 58.0964C57.2989 58.5766 54.5068 58.9367 51.8361 59.2968C42.9742 60.4972 34.1123 61.4575 25.2505 62.1777C22.337 62.4178 19.4235 62.5378 16.51 62.7779H15.903L16.1458 63.2581C16.9956 64.5785 16.9956 66.139 16.2672 67.4594C15.5388 68.7798 14.2035 69.6201 12.7467 69.6201H12.1397L25.9788 92.1874L26.1002 92.3074H26.343C27.9212 92.1874 29.4993 92.9077 30.3491 94.3481L30.4705 94.4681H30.7133C32.777 94.2281 35.2049 93.988 38.1184 93.7479C45.0379 93.0277 54.1426 91.9473 64.4612 90.5069C69.317 89.7866 74.4156 89.0664 79.6356 88.2261L81.0924 90.0267Z" fill="#789C13"/>
<path d="M16.9961 67.5801C16.2677 68.9006 14.9323 69.8609 13.4756 70.1009L26.7077 91.5879C28.4072 91.4678 30.1068 92.3081 31.0779 93.7486C40.304 92.7883 58.7561 90.7476 79.5147 87.5066L60.577 58.6973C46.2524 61.098 31.6849 62.6585 17.2388 63.3788C17.8458 64.5792 17.8458 66.1397 16.9961 67.5801ZM34.1128 69.8609C36.0551 66.9799 38.9686 65.0593 42.3677 64.3391C49.4086 62.8986 56.2068 67.4601 57.6635 74.4223C59.1203 81.3846 54.5073 88.1068 47.4663 89.5472C46.6166 89.6673 45.7668 89.7873 44.917 89.7873C38.8472 89.7873 33.3844 85.5859 32.1705 79.464C31.4421 76.2229 32.1705 72.7418 34.1128 69.8609Z" fill="#B5D163"/>
<path d="M158.422 79.9434V83.5445C151.381 86.1854 143.005 88.8262 133.536 91.347C124.674 93.7478 114.72 96.0285 103.794 98.3093L103.673 94.7081C121.397 91.107 136.45 87.2657 148.711 83.3044C152.11 82.2241 155.388 81.1437 158.422 79.9434Z" fill="#B5D163"/>
<path d="M82.4286 113.794C54.6291 118.236 30.957 121.837 25.9797 122.557L25.8583 122.317L25.9797 119.556V119.676H26.2225C26.4653 119.676 52.0798 116.795 82.4286 111.514V113.794Z" fill="#546E0D"/>
<path d="M158.421 84.1465V87.6276C144.825 92.7893 126.494 97.7108 103.914 102.392V102.152L103.793 98.7912C113.262 96.8706 121.881 94.95 129.772 92.9093C140.94 90.1484 150.409 87.2675 158.421 84.1465Z" fill="#546E0D"/>
<path d="M158.424 88.4668V91.948C144.827 97.1096 126.618 102.031 104.038 106.593L103.917 103.112C126.496 98.5501 144.827 93.6285 158.424 88.4668Z" fill="#B5D163"/>
<path d="M158.422 75.7422V79.3434C156.115 80.1836 153.687 81.0239 151.138 81.8641C138.513 86.0655 122.489 90.1468 103.551 94.1081L103.43 90.5069C126.252 85.8254 144.704 80.9039 158.422 75.7422Z" fill="#546E0D"/>
<path d="M158.422 92.668V96.1491C146.768 100.591 132.444 104.552 117.633 107.913C113.142 108.633 108.771 109.473 104.28 110.194L104.158 107.313C126.617 102.751 144.826 97.8296 158.422 92.668Z" fill="#546E0D"/>
<path d="M102.824 110.434C96.3898 111.515 89.9558 112.595 83.6432 113.555L83.4004 106.713L82.9149 90.988C89.2274 90.0277 95.6614 88.8273 102.095 87.627L102.581 102.632L102.824 110.434Z" fill="#E6B767"/>
<path d="M158.422 75.0221V71.541C144.704 78.0231 124.188 83.3048 103.43 87.2661L103.551 89.6668C126.252 85.2254 144.704 80.1838 158.422 75.0221Z" fill="#B5D163"/>
<path d="M121.275 50.4141C120.546 50.4141 119.818 50.5341 118.968 50.6541C112.655 51.8545 108.528 57.9765 109.863 64.2185C111.077 70.4605 117.269 74.5419 123.581 73.2214C129.894 72.021 134.021 65.899 132.686 59.657C131.593 54.1352 126.616 50.4141 121.275 50.4141ZM125.038 66.4992C124.674 67.2195 124.067 67.6996 123.46 68.0597L123.702 69.3802C123.702 69.3802 123.702 69.5002 123.581 69.5002L121.639 69.7403C121.517 69.7403 121.517 69.7403 121.517 69.6203L121.275 68.2998C120.546 68.1798 119.818 67.8197 119.211 67.2195C118.604 66.6193 118.24 65.899 118.118 65.1788L117.997 64.3386C117.997 64.3386 117.997 64.2185 118.118 64.2185L120.182 63.8584C120.182 63.8584 120.303 63.8584 120.303 63.9784L120.425 64.8187C120.546 65.1788 120.668 65.5389 121.032 65.779C121.396 66.0191 121.76 66.1391 122.124 66.0191C122.489 66.0191 122.853 65.779 123.095 65.4189C123.338 65.0588 123.338 64.6987 123.338 64.3386C123.217 63.8584 122.853 63.4983 122.246 63.2582C122.003 63.1381 121.76 63.0181 121.275 62.8981C120.789 62.778 120.425 62.538 119.939 62.4179C119.211 62.1779 118.604 61.6977 118.118 61.2176C117.633 60.7374 117.39 60.0172 117.269 59.2969C117.147 58.4567 117.269 57.7364 117.633 57.0162C117.997 56.296 118.604 55.8158 119.332 55.4557L119.089 54.1353C119.089 54.1353 119.089 54.0152 119.211 54.0152L121.153 53.7751C121.275 53.7751 121.275 53.7751 121.275 53.8952L121.517 55.2156C122.246 55.3357 122.974 55.6958 123.46 56.1759C124.067 56.7761 124.431 57.3763 124.552 58.2166L124.795 59.657C124.795 59.657 124.795 59.7771 124.674 59.7771L122.61 60.1372H122.489L122.246 58.6967C122.124 58.2166 122.003 57.9765 121.639 57.7364C121.275 57.4964 121.032 57.4963 120.668 57.4963C120.303 57.4963 119.939 57.7364 119.818 58.0965C119.575 58.4567 119.575 58.8168 119.575 59.1769C119.696 59.537 119.818 59.8971 119.939 60.1372C120.061 60.3773 120.425 60.6174 120.91 60.7374L122.974 61.4576C123.702 61.6977 124.188 62.0578 124.674 62.4179C125.159 62.8981 125.402 63.4983 125.523 64.2185C125.523 65.0588 125.402 65.8991 125.038 66.4992Z" fill="#789C13"/>
<path d="M24.6437 117.516L24.5223 120.277L4.12787 87.2666V84.2656L24.6437 117.516Z" fill="#B5D163"/>
<path d="M24.8865 113.675L24.6437 116.436L4.12787 82.9454V80.0645L24.8865 113.675Z" fill="#546E0D"/>
<path opacity="0.5" d="M65.5541 92.3082C55.2355 93.7487 46.0094 94.829 39.2113 95.6693L38.3615 93.6287L25.3722 62.1785L24.5224 60.1379C33.8699 59.5377 42.7317 58.4573 51.108 57.377L51.9578 59.4176L64.8257 90.5077L65.5541 92.3082Z" fill="#B5D163"/>
<path opacity="0.5" d="M138.148 77.6629C130.378 80.0636 121.759 82.1043 113.019 84.0249L112.169 81.9843L98.8155 49.5738L97.9658 47.6532C108.284 44.8923 116.661 42.1314 122.488 39.9707L123.337 41.8913L137.298 75.6222L138.148 77.6629Z" fill="#B5D163"/>
<path opacity="0.5" d="M57.3001 65.8989C58.1499 68.2997 58.3927 70.2204 58.0285 70.3404C57.6643 70.4604 56.5717 68.6598 55.8434 66.3791C54.9936 63.9783 54.7508 62.0577 55.115 61.9377C55.6006 61.8176 56.5717 63.4982 57.3001 65.8989Z" fill="#B5D163"/>
<path opacity="0.5" d="M108.65 75.8634C109.499 78.2642 109.742 80.1848 109.378 80.3049C109.014 80.4249 107.921 78.6243 107.193 76.3436C106.343 73.9428 106.1 72.0222 106.465 71.9022C106.829 71.7821 107.921 73.5827 108.65 75.8634Z" fill="#B5D163"/>
<path d="M30.3504 67.0999C31.2002 69.5007 31.443 71.4213 31.0788 71.5414C30.7146 71.6614 29.622 69.8608 28.8936 67.5801C28.1653 65.2993 27.8011 63.2587 28.1653 63.1387C28.5295 62.8986 29.5006 64.6992 30.3504 67.0999Z" fill="#B5D163"/>
<path opacity="0.5" d="M4.12787 88.4668L16.6316 108.873L4.12787 88.947V88.4668Z" fill="#546E0D"/>
<path opacity="0.5" d="M4.12787 84.2656L24.6437 117.516L24.5223 120.277L4.12787 87.2666V84.2656Z" fill="#546E0D"/>
<path opacity="0.5" d="M4.12787 80.0645L24.8865 113.675L24.6437 116.436L4.12787 82.9454V80.0645Z" fill="#546E0D"/>
<path opacity="0.5" d="M10.1976 85.5863L25.0079 109.714L24.8865 112.475L4.12787 78.7441V77.1836C5.82741 80.1846 7.89113 83.0655 10.1976 85.5863Z" fill="#546E0D"/>
<path opacity="0.5" d="M16.6324 91.9476L25.1301 105.752L25.0087 108.513L12.3836 87.9863C13.8404 89.4268 15.1757 90.7472 16.6324 91.9476Z" fill="#546E0D"/>
<path opacity="0.5" d="M21.6087 95.6684L25.4933 101.91L25.3719 104.671L18.331 93.2676C19.3022 94.1078 20.5161 94.9481 21.6087 95.6684Z" fill="#546E0D"/>
<path opacity="0.5" d="M25.3702 98.0703C25.4916 98.0703 25.613 98.1903 25.613 98.1903L25.4916 100.711L22.9423 96.5098C23.7921 97.11 24.5205 97.5901 25.3702 98.0703Z" fill="#546E0D"/>
<path opacity="0.5" d="M31.5619 101.31C29.2554 101.55 27.6772 101.79 26.7061 101.91L26.8275 99.0293C28.4056 99.8696 29.9837 100.59 31.5619 101.31Z" fill="#546E0D"/>
<path opacity="0.5" d="M39.8188 104.553C32.7779 105.513 28.0435 105.993 26.5867 106.234L26.8295 102.632C27.8007 102.512 29.8644 102.272 32.7779 101.912C35.0844 102.872 37.3909 103.833 39.8188 104.553Z" fill="#546E0D"/>
<path opacity="0.5" d="M51.4726 107.192C37.7549 109.113 28.0432 110.193 26.3437 110.433L26.5865 106.832C28.0432 106.712 33.3846 106.112 41.3967 105.031C44.6744 105.992 48.0735 106.712 51.4726 107.192Z" fill="#546E0D"/>
<path opacity="0.5" d="M26.2198 114.636L26.0984 114.396L26.2198 111.035C27.6765 110.915 38.4807 109.714 53.7766 107.434C60.8175 108.274 67.9798 108.394 75.1422 107.674C49.4063 111.995 28.5263 114.396 26.2198 114.636Z" fill="#546E0D"/>
<path opacity="0.5" d="M26.2225 118.957L25.8583 118.357L25.9797 115.356C26.2225 115.356 51.7156 112.475 82.0645 107.193L82.1858 110.795C53.4151 115.836 28.7718 118.597 26.2225 118.957Z" fill="#546E0D"/>
<path opacity="0.5" d="M82.3072 111.395L82.4286 113.795C54.6291 118.237 30.957 121.838 25.9797 122.558L25.8583 122.318L25.9797 119.557V119.677H26.2225C26.3439 119.557 51.9584 116.796 82.3072 111.395Z" fill="#546E0D"/>
<path opacity="0.5" d="M102.579 102.631L102.821 110.433C96.3875 111.514 89.9535 112.594 83.641 113.554L83.3982 106.712C89.9536 105.752 96.2661 104.311 102.579 102.631Z" fill="#546E0D"/>
<path opacity="0.5" d="M158.422 77.0625V79.2232C156.116 80.0635 153.688 80.9038 151.139 81.744C153.688 80.3036 156.116 78.743 158.422 77.0625Z" fill="#546E0D"/>
<path opacity="0.5" d="M148.71 83.3044C152.23 82.2241 155.386 81.0237 158.421 79.9434V83.5445C151.38 86.1854 143.004 88.8262 133.535 91.347C138.755 88.9463 143.733 86.3054 148.71 83.3044Z" fill="#546E0D"/>
<path opacity="0.5" d="M129.774 93.0285C140.821 90.1475 150.411 87.2666 158.424 84.2656V87.7468C144.827 92.9084 126.496 97.83 103.917 102.512V102.271C104.038 102.271 104.281 102.151 104.403 102.151C113.022 99.6306 121.519 96.6296 129.774 93.0285Z" fill="#546E0D"/>
<path opacity="0.5" d="M103.917 103.112C126.496 98.5501 144.827 93.5084 158.424 88.4668V91.948C144.827 97.1096 126.618 102.031 104.038 106.593L103.917 103.112Z" fill="#546E0D"/>
<path opacity="0.5" d="M104.158 107.313C126.617 102.751 144.947 97.8296 158.544 92.668V96.1491C146.89 100.591 132.565 104.552 117.755 107.913C113.263 108.633 108.893 109.473 104.401 110.194L104.158 107.313Z" fill="#546E0D"/>
<path opacity="0.5" d="M127.952 106.112C138.999 103.351 149.439 100.23 158.422 96.8691V100.47C149.439 102.271 138.999 104.192 127.952 106.112Z" fill="#546E0D"/>
<path d="M133.051 35.0505L132.687 34.5703L132.201 34.8104C131.716 35.0505 78.9085 58.338 3.40048 59.5384H2.18652L2.67211 60.3786V89.1879L24.5233 123.999H25.0089C25.0089 123.999 25.6159 123.879 26.4656 123.759C30.7145 123.279 66.4047 119.078 103.066 111.755C123.096 108.394 143.491 104.793 159.151 101.672L159.636 101.552V70.9421L160.001 70.822L133.051 35.0505ZM158.423 96.2702C146.769 100.712 132.444 104.673 117.634 108.034C113.263 108.754 108.772 109.595 104.28 110.315L104.159 107.434C126.617 102.872 144.948 97.9508 158.544 92.7891V96.2702H158.423ZM4.12885 87.2673V84.2663L24.6447 117.517L24.5233 120.278L4.12885 87.2673ZM81.5792 91.2286L81.7006 93.9895C54.3866 98.791 31.0787 101.432 26.8298 101.912L27.0726 98.1909C30.8359 97.8307 54.3866 95.55 81.5792 91.2286ZM81.822 98.1909C54.0224 102.992 30.2289 105.753 26.587 106.233L26.8298 102.632C30.8359 102.152 54.2652 99.5113 81.822 94.7097V98.1909ZM82.1862 106.594C53.294 111.635 28.7721 114.396 26.3442 114.756L26.2228 114.516L26.3442 111.155C28.5293 110.915 53.0512 108.154 82.0648 103.112L82.1862 106.594ZM4.12885 75.7436L25.0089 109.715L24.8875 112.475L4.12885 78.7446V75.7436ZM4.12885 71.5423L25.2517 105.753L25.1303 108.514L4.12885 74.4232C4.12885 74.5432 4.12885 71.5423 4.12885 71.5423ZM25.2517 104.673L4.00746 70.3419V67.3409L25.4945 101.912L25.2517 104.673ZM4.12885 80.065L24.8875 113.676L24.7661 116.437L4.12885 83.066V80.065ZM26.1014 115.356C26.3442 115.356 51.8373 112.475 82.1862 107.194L82.3075 110.795C53.4154 115.837 28.7721 118.597 26.2228 118.958L25.8586 118.357L26.1014 115.356ZM26.3442 110.435L26.587 106.834C29.8647 106.474 53.7796 103.713 81.9434 98.791L82.0648 102.392C53.4154 107.314 29.1363 110.075 26.3442 110.435ZM25.4945 100.712L4.12885 66.0205V62.5394L25.7373 97.7107L25.4945 100.712ZM25.8586 119.558L26.1014 119.678C26.3442 119.678 51.9587 116.797 82.3075 111.515L82.4289 113.916C54.6294 118.357 30.9573 121.959 25.98 122.679L25.8586 122.439V119.558ZM83.7643 113.556L82.9145 90.9885C89.2271 90.0282 95.6611 88.8278 102.095 87.6275L102.945 110.435C96.3894 111.515 89.9555 112.596 83.7643 113.556ZM158.423 91.9489C144.826 97.1105 126.617 102.032 104.037 106.594L103.916 102.992C126.496 98.4309 144.826 93.3893 158.423 88.3477V91.9489ZM158.423 87.7475C144.826 92.9092 126.496 97.8307 103.916 102.512L103.795 98.9111C126.374 94.3496 144.705 89.308 158.423 84.1463V87.7475ZM158.423 83.5462C144.826 88.7078 126.374 93.6294 103.795 98.3109L103.673 94.7097C126.374 90.0282 144.705 85.1067 158.423 79.945V83.5462ZM158.423 79.2247C144.826 84.3864 126.374 89.428 103.673 93.9895L103.552 90.3883C126.253 85.7068 144.705 80.7853 158.423 75.6236V79.2247ZM158.423 75.0234C144.705 80.1851 126.253 85.2267 103.43 89.7881L103.309 87.3874C124.068 83.306 144.583 78.1444 158.301 71.6623L158.423 75.0234ZM132.201 36.2509L158.058 70.2218C144.341 76.824 123.703 81.9856 102.702 86.0669L101.488 84.1463C121.154 80.4251 137.057 76.2238 148.711 71.7823L149.075 71.6623L148.832 71.3022C147.982 70.2218 147.74 68.9014 148.104 67.581C148.468 66.2605 149.439 65.3002 150.653 64.8201L151.017 64.7L133.779 41.8927L133.658 41.6526L133.415 41.7726C131.716 42.4929 129.652 41.8927 128.559 40.3322L128.438 40.0921L128.195 40.2121C120.426 43.2131 104.159 48.8549 81.7006 53.7765L80.4866 51.8559C109.986 45.4939 129.045 37.6913 132.201 36.2509ZM148.104 71.4222C136.45 75.7436 120.547 79.8249 101.124 83.6662L81.9434 54.4968C104.037 49.5752 120.183 44.0534 128.074 41.0524C129.409 42.6129 131.473 43.2131 133.415 42.4929L150.168 64.58C148.954 65.1802 147.982 66.2605 147.618 67.581C147.254 68.9014 147.376 70.3419 148.104 71.4222ZM79.0299 52.216L101.367 86.4271C95.0541 87.6275 88.7415 88.7078 82.5503 89.7881L60.335 55.8172C66.8903 54.7368 73.2029 53.5365 79.0299 52.216ZM17.2396 63.2596C31.6856 62.5393 46.2531 60.9788 60.5778 58.5781L79.5155 87.3874C58.7568 90.6284 40.4261 92.6691 31.0787 93.6294C30.1075 92.1889 28.408 91.3486 26.7084 91.4687L13.5977 69.9817C15.0544 69.7417 16.3898 68.7814 17.1182 67.4609C17.8465 66.1405 17.8465 64.58 17.2396 63.2596ZM58.8782 56.0572L60.2136 57.9779C45.7675 60.3786 31.2 61.8191 16.6326 62.6594H16.0256L16.2684 63.1396C16.9968 64.46 17.1182 66.0205 16.3898 67.3409C15.6614 68.6613 14.3261 69.5016 12.8693 69.5016H12.2624L26.1014 92.0689L26.2228 92.1889H26.4656C28.0438 92.0689 29.6219 92.7891 30.4717 94.2296L30.5931 94.3496H30.8359C40.0619 93.3893 58.7568 91.3487 79.7582 88.1076L81.0936 90.0282C53.6582 94.3496 30.1075 96.6303 26.7084 96.8704L4.61443 60.8588C24.5233 60.4987 42.7326 58.5781 58.8782 56.0572ZM4.12885 88.9479V88.5878L16.6326 108.994L4.12885 88.9479ZM158.423 100.472C149.439 102.272 138.999 104.193 127.952 106.233C138.999 103.473 149.439 100.352 158.423 96.9905V100.472Z" fill="#084900"/>
<path d="M41.6388 76.583C42.003 77.1832 42.61 77.5433 43.4597 77.7834C43.8239 77.9034 44.3095 78.0235 44.7951 78.2635C45.2807 78.3836 45.6449 78.5036 45.7663 78.6237C46.3732 78.8638 46.7374 79.2239 46.8588 79.704C46.9802 80.0641 46.8588 80.4242 46.616 80.7844C46.3732 81.1445 46.1305 81.2645 45.6449 81.3846C45.2807 81.3846 44.9165 81.3846 44.5523 81.1445C44.1881 80.9044 44.0667 80.5443 43.9453 80.1842L43.8239 79.3439C43.8239 79.3439 43.8239 79.2239 43.7025 79.2239L41.6388 79.584C41.5174 79.584 41.5174 79.584 41.5174 79.704L41.6388 80.5443C41.7602 81.3846 42.1244 82.1048 42.7314 82.5849C43.3384 83.1851 44.0667 83.5452 44.7951 83.6653L45.0379 84.9857C45.0379 84.9857 45.0379 85.1058 45.1593 85.1058L47.1016 84.8657C47.223 84.8657 47.223 84.8657 47.223 84.7457L46.9802 83.4252C47.7086 83.0651 48.1942 82.5849 48.5584 81.8647C48.9226 81.1445 49.0439 80.4242 48.9225 79.584C48.8011 78.8637 48.5584 78.2635 48.0728 77.7834C47.7086 77.3032 47.1016 77.0632 46.3732 76.8231L44.3095 76.1029C43.8239 75.8628 43.4597 75.7427 43.3384 75.5027C43.217 75.2626 42.9742 74.9025 42.9742 74.5424C42.8528 74.1823 42.9742 73.8221 43.217 73.462C43.4598 73.1019 43.7025 72.9818 44.0667 72.8618C44.4309 72.8618 44.7951 72.8618 45.0379 73.1019C45.4021 73.342 45.5235 73.7021 45.6449 74.0622L45.8877 75.5027C45.8877 75.5027 45.8877 75.5027 46.0091 75.5027L48.0728 75.1426C48.0728 75.1426 48.1942 75.1426 48.1942 75.0225L47.9514 73.582C47.83 72.7418 47.4658 72.1416 46.8588 71.5414C46.2518 70.9412 45.6449 70.7011 44.9165 70.5811L44.6737 69.2606C44.6737 69.2606 44.6737 69.1406 44.5523 69.1406L42.61 69.3807C42.4886 69.3807 42.4886 69.3807 42.4886 69.5007L42.7314 70.8212C42.003 71.1813 41.5174 71.6614 41.0318 72.3816C40.6676 73.1019 40.5463 73.8221 40.6677 74.6624C40.9104 75.3826 41.1532 76.1029 41.6388 76.583Z" fill="#084900"/>
<path d="M44.9171 89.9088C45.7669 89.9088 46.6167 89.7888 47.4664 89.6687C54.5074 88.2283 59.1204 81.5061 57.6637 74.5439C56.2069 67.5816 49.4088 63.1402 42.3678 64.4606C38.9688 65.1808 36.0553 67.1015 34.1129 69.9824C32.1706 72.8633 31.4422 76.2244 32.1706 79.5855C33.3846 85.7075 38.8474 89.9088 44.9171 89.9088ZM42.6106 65.781C43.339 65.661 44.1888 65.541 44.9171 65.541C50.3799 65.541 55.2358 69.3822 56.3283 74.7839C57.5423 81.0259 53.5362 87.1479 47.2236 88.3483C40.9111 89.5487 34.7199 85.5874 33.506 79.3454C32.1706 73.1034 36.2981 66.9814 42.6106 65.781Z" fill="#084900"/>
<path d="M124.552 62.4201C124.067 61.94 123.581 61.6999 122.853 61.4598L120.789 60.7396C120.304 60.4995 119.939 60.3795 119.818 60.1394C119.697 59.8993 119.454 59.5392 119.454 59.1791C119.332 58.819 119.454 58.4589 119.697 58.0987C119.939 57.7386 120.182 57.6186 120.546 57.4986C120.911 57.4986 121.275 57.4986 121.518 57.7386C121.882 57.9787 122.003 58.3388 122.125 58.6989L122.367 60.1394C122.367 60.1394 122.367 60.1394 122.489 60.1394L124.552 59.7793C124.552 59.7793 124.674 59.7793 124.674 59.6592L124.431 58.2188C124.31 57.3785 123.945 56.7783 123.338 56.1781C122.732 55.5779 122.125 55.3379 121.396 55.2178L121.153 53.8974C121.153 53.8974 121.153 53.7773 121.032 53.7773L119.09 54.0174C118.968 54.0174 118.968 54.0174 118.968 54.1375L119.211 55.4579C118.483 55.818 117.997 56.2982 117.512 57.0184C117.147 57.7386 117.026 58.4589 117.147 59.2991C117.269 60.0194 117.512 60.7396 117.997 61.2198C118.483 61.6999 118.968 62.1801 119.818 62.4201C120.182 62.5402 120.668 62.6602 121.153 62.9003C121.639 63.1404 121.882 63.1404 122.125 63.2604C122.732 63.5005 123.096 63.8606 123.217 64.3408C123.339 64.7009 123.217 65.061 122.974 65.4211C122.732 65.7812 122.489 65.9013 122.003 66.0213C121.639 66.0213 121.275 66.0213 120.911 65.7812C120.546 65.5411 120.425 65.181 120.304 64.8209L120.182 63.9806C120.182 63.9806 120.182 63.8606 120.061 63.8606L117.997 64.2207C117.876 64.2207 117.876 64.2207 117.876 64.3408L117.997 65.181C118.118 66.0213 118.483 66.7415 119.09 67.2217C119.697 67.8219 120.425 68.182 121.153 68.302L121.396 69.6225C121.396 69.6225 121.396 69.7425 121.518 69.7425L123.46 69.5024C123.581 69.5024 123.581 69.5024 123.581 69.3824L123.338 68.0619C124.067 67.7018 124.552 67.2217 124.917 66.5015C125.281 65.7812 125.402 65.061 125.281 64.2207C125.281 63.5005 124.917 62.9003 124.552 62.4201Z" fill="#084900"/>
<path d="M118.727 49.3342C111.686 50.7747 107.073 57.4969 108.53 64.4591C109.744 70.5811 115.206 74.7824 121.276 74.7824C122.126 74.7824 122.976 74.6624 123.825 74.5424C130.866 73.1019 135.479 66.3797 134.023 59.4175C132.566 52.4552 125.768 47.8938 118.727 49.3342ZM123.583 73.2219C117.27 74.4223 111.079 70.4611 109.865 64.219C108.651 57.977 112.657 51.855 118.97 50.6547C119.698 50.5346 120.548 50.4146 121.276 50.4146C126.739 50.4146 131.595 54.2558 132.687 59.6575C133.901 65.8996 129.774 72.0216 123.583 73.2219Z" fill="#084900"/>
<path d="M143.368 74.3031L155.994 54.3766V53.8965L143.368 74.3031Z" fill="#B5D163"/>
<path d="M134.628 67.3407L134.749 70.1016L141.79 58.6979L155.994 35.7705V32.7695L138.513 61.0987L134.628 67.3407Z" fill="#B5D163"/>
<path d="M78.0588 67.821C89.2272 69.7416 99.6672 71.4221 108.529 72.6225C122.247 74.5431 131.958 75.6235 133.658 75.8635L133.415 72.2624C131.958 72.1423 126.617 71.5421 118.605 70.4618C108.408 69.1414 93.9616 66.9807 78.1802 64.3398L78.0588 67.821Z" fill="#B5D163"/>
<path d="M134.87 71.3018L134.992 74.0627L147.617 53.5361L155.993 39.9717V36.9707L143.368 57.3773L134.87 71.3018Z" fill="#546E0D"/>
<path d="M78.3009 63.6187C94.9321 66.4997 109.985 68.6604 120.304 69.9808C127.345 70.9411 132.079 71.4212 133.536 71.6613L133.414 68.0602C132.443 67.9401 130.38 67.7001 127.466 67.34C117.997 66.1396 99.4237 63.7388 78.4223 60.0176L78.3009 63.6187Z" fill="#546E0D"/>
<path d="M77.9379 72.0221C80.2444 72.3822 82.5509 72.8624 84.736 73.2225C84.736 73.2225 84.736 73.2225 84.8574 73.2225C110.593 77.5439 131.473 79.9447 133.78 80.1848L133.901 79.9447L133.78 76.5836C132.323 76.4636 121.519 75.2632 106.223 72.9824C97.9681 71.782 88.2565 70.3416 78.0593 68.541L77.9379 72.0221Z" fill="#546E0D"/>
<path d="M1.69946 62.4199V66.0211C10.6827 67.8217 21.1227 69.7423 32.1697 71.7829C21.1227 68.782 10.6827 65.781 1.69946 62.4199Z" fill="#B5D163"/>
<path d="M77.8165 76.2242C106.709 81.2658 131.352 84.0267 133.901 84.3868L134.265 83.7866L134.144 80.7857C133.901 80.7857 108.408 77.9048 78.0593 72.623L77.8165 76.2242Z" fill="#B5D163"/>
<path d="M135.112 75.1439L135.234 77.9048L155.992 44.1739V41.293L149.923 51.0161L135.112 75.1439Z" fill="#B5D163"/>
<path d="M11.8976 36.9714C23.5516 41.2928 39.4544 45.4941 58.8777 49.2153L78.0582 20.0459C55.9642 15.1243 39.8186 9.48249 31.9279 6.60156C30.714 8.16207 28.5288 8.76226 26.7079 8.04202L9.95532 30.1292C11.1693 30.7293 12.1404 31.8097 12.5046 33.1301C12.8688 34.4505 12.626 35.771 11.8976 36.9714ZM26.1009 24.8475C27.5577 17.8852 34.3558 13.3237 41.3968 14.7642C48.4377 16.2046 53.0507 22.9268 51.594 29.8891C50.38 36.0111 44.9172 40.2124 38.8475 40.2124C37.9977 40.2124 37.1479 40.0924 36.2981 39.9723C29.2572 38.5319 24.7656 31.8097 26.1009 24.8475Z" fill="#B5D163"/>
<path d="M126.615 44.7732C127.829 38.5312 123.823 32.4092 117.511 31.2088C116.782 31.0888 115.933 30.9688 115.204 30.9688C109.741 30.9688 104.886 34.81 103.793 40.2118C102.579 46.4538 106.585 52.5757 112.898 53.7761C119.21 54.9765 125.401 51.0152 126.615 44.7732ZM119.332 40.0917C119.21 40.8119 118.967 41.5322 118.482 42.0123C117.996 42.4925 117.511 42.9726 116.661 43.3327C116.297 43.4528 115.811 43.5728 115.326 43.8129C114.84 43.933 114.597 44.053 114.354 44.173C113.747 44.4131 113.383 44.7732 113.262 45.2534C113.14 45.6135 113.262 45.9736 113.505 46.3337C113.747 46.6938 113.99 46.8139 114.476 46.9339C114.84 47.0539 115.204 46.9339 115.568 46.6938C115.933 46.4538 116.054 46.0936 116.175 45.7335L116.297 44.8933C116.297 44.7732 116.297 44.7732 116.418 44.7732L118.482 45.1333C118.603 45.1333 118.603 45.1333 118.603 45.2534L118.482 46.0936C118.36 46.9339 117.996 47.6541 117.389 48.1343C116.782 48.7345 116.054 49.0946 115.326 49.2147L114.961 50.295C114.961 50.415 114.961 50.415 114.84 50.415L112.898 50.175C112.776 50.175 112.776 50.175 112.776 50.0549L113.019 48.7345C112.291 48.3744 111.805 47.8942 111.441 47.174C111.077 46.4538 110.955 45.7335 111.077 44.8933C111.198 44.173 111.441 43.5728 111.926 43.0927C112.412 42.6125 112.898 42.3724 113.626 42.1324L115.69 41.4121C116.175 41.1721 116.539 41.052 116.661 40.8119C116.782 40.5719 117.025 40.3318 117.025 39.8516C117.146 39.4915 117.025 39.1314 116.782 38.7713C116.539 38.4112 116.297 38.2911 115.933 38.1711C115.568 38.051 115.204 38.1711 114.961 38.4112C114.597 38.6512 114.476 38.8913 114.354 39.3715L114.112 40.8119C114.112 40.8119 114.112 40.932 113.99 40.932L111.926 40.5719C111.926 40.5719 111.805 40.5719 111.805 40.4518L112.048 39.0114C112.169 38.1711 112.533 37.5709 113.14 36.9707C113.747 36.3705 114.354 36.1304 115.083 36.0104L115.326 34.69C115.326 34.5699 115.326 34.5699 115.447 34.5699L117.389 34.81C117.511 34.81 117.511 34.81 117.511 34.93L117.268 36.2505C117.996 36.6106 118.482 37.0907 118.967 37.811C119.21 38.5312 119.332 39.2514 119.332 40.0917Z" fill="#789C13"/>
<path d="M58.7551 51.8556L81.0918 17.6445C86.9188 18.8449 93.11 20.0453 99.7868 21.1256L77.5714 55.0966C71.3802 54.1363 65.0676 53.056 58.7551 51.8556Z" fill="#FFD999"/>
<path d="M2.06293 35.7707C7.64712 38.4115 14.4453 40.9324 21.9718 43.2131C29.7411 45.4938 38.3602 47.6545 47.1007 49.5751C50.4997 50.2954 53.8988 51.0156 57.2979 51.7358L58.5118 49.8152C54.7486 49.095 51.2281 48.3748 47.829 47.6545C38.4816 45.4938 29.9839 43.3331 22.7002 41.1724C18.5727 39.972 14.6881 38.6516 11.289 37.3312L10.9248 37.2112L11.1676 36.851C12.0174 35.7707 12.2601 34.4503 11.896 33.1298C11.5318 31.8094 10.5606 30.8491 9.34666 30.3689L8.98247 30.2489L26.342 7.32151L26.4634 7.08143L26.7062 7.20148C28.5271 7.92171 30.4695 7.32151 31.562 5.88104L31.6834 5.64097L31.9262 5.761C33.2616 6.24115 34.8397 6.84136 36.6606 7.44155C42.4876 9.48221 50.8639 12.2431 61.1825 15.124C66.4025 16.5645 72.1081 18.005 78.4207 19.3254L79.6347 17.4048C73.2007 15.9643 67.3737 14.5238 62.0323 13.0834C51.7137 10.3225 43.3374 7.56159 37.5104 5.4009C32.4118 3.48028 29.0127 2.15984 27.7988 1.67969L2.06293 35.7707Z" fill="#789C13"/>
<path d="M78.4213 59.4182C100.272 63.2595 119.453 65.6602 128.558 66.8606C130.864 67.1007 132.442 67.3407 133.292 67.4608L133.171 64.5799V63.7396C129.286 63.3795 105.735 61.0987 78.5427 56.7773L78.4213 59.4182Z" fill="#B5D163"/>
<path d="M134.386 63.1392L134.507 63.7394L134.629 66.1402L137.178 62.0588L155.994 31.449V28.0879L134.386 63.1392Z" fill="#546E0D"/>
<path d="M79.0286 55.4564C84.37 56.2966 89.59 57.1369 94.5672 57.7371C104.886 59.1776 114.112 60.2579 120.91 61.0982C127.587 61.8184 131.957 62.2986 133.414 62.4186L155.508 26.407C148.71 26.287 142.033 25.9268 135.72 25.5667C126.373 24.8465 117.511 23.8862 109.135 22.8059C106.464 22.4457 103.793 22.0856 101.244 21.6055L100.03 23.5261C102.822 24.0062 105.614 24.3663 108.285 24.7265C117.147 25.9269 126.009 26.8872 134.87 27.6074C137.784 27.8475 140.697 27.9675 143.49 28.0876H143.975L143.732 28.5677C143.004 29.8881 142.883 31.4486 143.611 32.649C144.339 33.9695 145.675 34.8097 147.131 34.8097H147.738L133.899 57.377L133.778 57.497H133.535C131.957 57.377 130.379 58.0972 129.529 59.5377L129.408 59.6577H129.165C127.101 59.4176 124.673 59.1776 121.76 58.9375C114.84 58.2173 105.736 57.1369 95.417 55.6965C90.5611 54.9762 85.4625 54.256 80.2425 53.4157L79.0286 55.4564Z" fill="#789C13"/>
<path d="M142.883 28.6893C128.437 27.9691 113.869 26.4086 99.5444 24.0078L80.6067 52.8171C101.365 56.0582 119.696 58.0988 129.044 59.0591C130.015 57.6186 131.593 56.7784 133.414 56.8984L146.646 35.4115C145.189 35.1714 143.854 34.3311 143.125 32.8907C142.276 31.5702 142.276 30.0097 142.883 28.6893ZM127.951 45.0146C126.737 51.1366 121.274 55.3379 115.204 55.3379C114.355 55.3379 113.505 55.2179 112.655 55.0978C105.614 53.6574 101.001 46.9352 102.458 39.973C103.915 33.0107 110.713 28.4492 117.754 29.8897C121.153 30.6099 124.066 32.5306 126.009 35.4115C127.951 38.2924 128.558 41.6535 127.951 45.0146Z" fill="#B5D163"/>
<path d="M1.69946 45.373V48.8542C8.7404 51.495 17.1167 54.1359 26.5855 56.6567C35.4474 59.0575 45.4018 61.3382 56.3274 63.619L56.4488 60.0178C38.7251 56.4166 23.672 52.5754 11.4111 48.6141C7.89063 47.6538 4.73435 46.5734 1.69946 45.373Z" fill="#B5D163"/>
<path d="M77.6936 79.2241C105.493 83.6655 129.165 87.2667 134.143 87.9869L134.264 87.7468L134.143 84.9859V85.106H133.9C133.657 85.106 108.042 82.2251 77.6936 76.9434V79.2241Z" fill="#546E0D"/>
<path d="M1.69946 49.6953V53.1764C15.2958 58.3381 33.6265 63.2597 56.206 67.9412V67.7011L56.3274 64.3401C46.8586 62.4194 38.2395 60.4988 30.3488 58.4581C19.1804 55.5772 9.59017 52.6963 1.69946 49.6953Z" fill="#546E0D"/>
<path d="M1.69946 53.8965V57.3776C15.2958 62.5393 33.5051 67.4609 56.0846 72.0223L56.206 68.5412C33.6265 63.9798 15.2958 59.0582 1.69946 53.8965Z" fill="#B5D163"/>
<path d="M1.69946 41.1719V44.653C4.00598 45.4933 6.43389 46.3335 8.98319 47.1738C21.7297 51.3752 37.6325 55.4565 56.5702 59.4178L56.6916 55.8166C33.8693 51.3752 15.4172 46.3335 1.69946 41.1719Z" fill="#546E0D"/>
<path d="M1.69946 58.0977V61.5788C13.4748 66.0202 27.6781 69.9815 42.4883 73.3426C46.98 74.0628 51.3502 74.9031 55.8419 75.6233L55.9632 72.7424C33.5051 68.1809 15.2958 63.2593 1.69946 58.0977Z" fill="#546E0D"/>
<path d="M57.177 75.864C63.611 76.9444 70.0449 78.0247 76.3575 78.985L76.6003 72.1428L77.0859 56.4177C70.7733 55.4574 64.3393 54.257 57.9054 53.0566L57.4198 68.0615L57.177 75.864Z" fill="#E6B767"/>
<path d="M1.69946 40.4529V37.0918C15.4172 43.5739 35.933 48.8556 56.6916 52.8169L56.5702 55.2177C33.8693 50.6562 15.2958 45.6146 1.69946 40.4529Z" fill="#B5D163"/>
<path d="M27.4373 25.0867C26.2234 31.3287 30.2294 37.4507 36.542 38.6511C42.8545 39.8515 49.0457 35.8902 50.2597 29.6482C51.4736 23.4062 47.4676 17.2842 41.155 16.0838C40.4266 15.9638 39.5769 15.8438 38.8485 15.8438C33.3857 15.8438 28.5299 19.685 27.4373 25.0867ZM34.721 29.6482C34.8424 28.928 35.0852 28.3278 35.5708 27.8476C36.0564 27.3675 36.542 27.1274 37.2704 26.8873L39.3341 26.1671C39.8197 25.927 40.1838 25.807 40.3052 25.5669C40.4266 25.3268 40.6694 25.0867 40.6694 24.6066C40.7908 24.2465 40.6694 23.8863 40.4266 23.5262C40.1838 23.1661 39.9411 23.0461 39.5769 22.926C39.2127 22.806 38.8485 22.926 38.6057 23.1661C38.2415 23.4062 38.1201 23.6463 37.9987 24.1264L37.7559 25.5669C37.7559 25.5669 37.7559 25.6869 37.6345 25.6869L35.5708 25.3268C35.5708 25.3268 35.4494 25.3268 35.4494 25.2068L35.6922 23.7663C35.8136 22.926 36.1778 22.3258 36.7848 21.7256C37.3917 21.1254 37.9987 20.8854 38.7271 20.7653L38.9699 19.4449C38.9699 19.3249 38.9699 19.3249 39.0913 19.3249L41.0336 19.5649C41.155 19.5649 41.155 19.5649 41.155 19.685L40.9122 21.0054C41.6406 21.3655 42.1262 21.8457 42.6118 22.5659C42.9759 23.2861 43.0973 24.0064 42.9759 24.8467C42.8545 25.5669 42.6118 26.2871 42.1262 26.7673C41.762 27.3675 41.155 27.7276 40.3052 28.0877C39.9411 28.2077 39.4555 28.3278 38.9699 28.5678C38.4843 28.6879 38.1201 28.8079 37.9987 28.928C37.3917 29.168 37.0276 29.5282 36.9062 30.0083C36.7848 30.3684 36.9062 30.7286 37.149 31.0887C37.3918 31.4488 37.6345 31.5688 38.1201 31.6889C38.4843 31.8089 38.8485 31.6889 39.2127 31.4488C39.5769 31.2087 39.6983 30.8486 39.8197 30.4885L39.941 29.6482C39.941 29.5282 39.9411 29.5282 40.0625 29.5282L42.1262 29.8883C42.2476 29.8883 42.2476 29.8883 42.2476 30.0083L42.1262 30.8486C42.0048 31.6889 41.6406 32.4091 41.0336 32.8893C40.4266 33.4894 39.6983 33.8496 38.9699 33.9696L38.7271 35.29C38.7271 35.4101 38.7271 35.4101 38.6057 35.4101L36.6634 35.17C36.542 35.17 36.542 35.17 36.542 35.05L36.7848 33.7295C36.0564 33.3694 35.5708 32.8892 35.2066 32.169C34.7211 31.3287 34.5997 30.4885 34.721 29.6482Z" fill="#789C13"/>
<path d="M135.479 82.9461L135.6 85.7069L155.995 52.6963V49.6953L135.479 82.9461Z" fill="#B5D163"/>
<path d="M135.236 79.105L135.357 81.8659L155.994 48.4951V45.4941L135.236 79.105Z" fill="#546E0D"/>
<path opacity="0.5" d="M94.5667 57.7379C104.885 59.1784 114.111 60.2587 120.91 61.099L121.759 59.0583L134.749 27.6082L135.598 25.5675C126.251 24.8473 117.389 23.887 109.013 22.8066L108.163 24.8473L95.2951 55.9373L94.5667 57.7379Z" fill="#B5D163"/>
<path opacity="0.5" d="M21.8518 43.2137C29.6211 45.4944 38.2402 47.6551 46.9807 49.5757L47.8304 47.535L61.1839 15.1246L62.0337 13.204C51.7151 10.4431 43.3388 7.68218 37.5118 5.52148L36.6621 7.44211L22.7016 41.173L21.8518 43.2137Z" fill="#B5D163"/>
<path opacity="0.5" d="M102.7 31.3302C101.85 33.611 101.608 35.6516 101.972 35.7717C102.336 35.8917 103.428 34.0911 104.157 31.8104C105.007 29.5297 105.249 27.489 104.885 27.369C104.521 27.2489 103.55 29.0495 102.7 31.3302Z" fill="#B5D163"/>
<path opacity="0.5" d="M51.3495 41.2931C50.4998 43.5739 50.257 45.6145 50.6212 45.7346C50.9853 45.8546 52.0779 44.054 52.8063 41.7733C53.6561 39.4925 53.8988 37.4519 53.5347 37.3318C53.1705 37.2118 52.1993 39.0124 51.3495 41.2931Z" fill="#B5D163"/>
<path d="M129.771 32.5298C128.921 34.8106 128.679 36.8512 129.043 36.9713C129.528 37.0913 130.5 35.2907 131.228 33.01C132.078 30.7293 132.32 28.6886 131.956 28.5685C131.471 28.4485 130.5 30.1291 129.771 32.5298Z" fill="#B5D163"/>
<path opacity="0.5" d="M155.994 53.8965L143.368 74.3031L155.994 54.3766V53.8965Z" fill="#546E0D"/>
<path opacity="0.5" d="M155.995 49.6953L135.479 82.9461L135.6 85.7069L155.995 52.6963V49.6953Z" fill="#546E0D"/>
<path opacity="0.5" d="M155.994 45.4941L135.236 79.105L135.357 81.8659L155.994 48.4951V45.4941Z" fill="#546E0D"/>
<path opacity="0.5" d="M149.923 51.016L135.112 75.1438L135.234 77.9047L155.992 44.1738V42.6133C154.293 45.7343 152.229 48.4952 149.923 51.016Z" fill="#546E0D"/>
<path opacity="0.5" d="M143.368 57.3773L134.87 71.1817L134.992 73.9426L147.617 53.416C146.282 54.8565 144.825 56.1769 143.368 57.3773Z" fill="#546E0D"/>
<path opacity="0.5" d="M138.513 61.098L134.628 67.3401L134.749 70.1009L141.79 58.6973C140.698 59.5375 139.605 60.3778 138.513 61.098Z" fill="#546E0D"/>
<path opacity="0.5" d="M134.749 63.4999C134.627 63.4999 134.627 63.62 134.506 63.62L134.627 66.1408L137.177 61.9395C136.327 62.5396 135.477 63.0198 134.749 63.4999Z" fill="#546E0D"/>
<path opacity="0.5" d="M128.557 66.8608C130.863 67.1009 132.442 67.341 133.291 67.461L133.17 64.5801C131.592 65.3003 130.135 66.1406 128.557 66.8608Z" fill="#546E0D"/>
<path opacity="0.5" d="M120.302 69.9826C127.343 70.9429 132.077 71.4231 133.534 71.6632L133.413 68.062C132.442 67.942 130.378 67.7019 127.464 67.3418C125.036 68.3021 122.73 69.2624 120.302 69.9826Z" fill="#546E0D"/>
<path opacity="0.5" d="M108.528 72.6217C122.245 74.5423 131.957 75.6226 133.656 75.8627L133.414 72.2615C131.957 72.1415 126.616 71.5413 118.603 70.4609C115.326 71.4212 112.048 72.1415 108.528 72.6217Z" fill="#546E0D"/>
<path opacity="0.5" d="M133.778 80.1847L133.9 79.9447L133.778 76.5836C132.322 76.4635 121.517 75.2632 106.222 72.9824C99.1806 73.8227 92.0183 73.9427 84.856 73.2225C110.592 77.5439 131.472 79.9447 133.778 80.1847Z" fill="#546E0D"/>
<path opacity="0.5" d="M133.78 84.3868L134.144 83.7866L134.023 80.7857C133.78 80.7857 108.287 77.9048 77.9379 72.623L77.8165 76.2242C106.709 81.2658 131.352 84.1468 133.78 84.3868Z" fill="#546E0D"/>
<path opacity="0.5" d="M77.815 76.9434L77.6936 79.3441C105.493 83.7856 129.165 87.3867 134.143 88.1069L134.264 87.8669L134.143 85.106V85.226H133.9C133.657 84.9859 108.164 82.2251 77.815 76.9434Z" fill="#546E0D"/>
<path opacity="0.5" d="M57.5428 68.0605L57.3 75.8631C63.734 76.9434 70.168 78.0238 76.4805 78.9841L76.7233 72.1419C70.168 71.1816 63.734 69.8611 57.5428 68.0605Z" fill="#546E0D"/>
<path opacity="0.5" d="M1.69946 42.6133V44.774C4.00598 45.6142 6.43389 46.4545 8.98319 47.2948C6.43389 45.8543 4.00598 44.1738 1.69946 42.6133Z" fill="#546E0D"/>
<path opacity="0.5" d="M11.4111 48.7341C8.01203 47.6538 4.73435 46.4534 1.69946 45.373V48.8542C8.7404 51.495 17.1167 54.1359 26.5855 56.6567C21.3655 54.3759 16.2669 51.7351 11.4111 48.7341Z" fill="#546E0D"/>
<path opacity="0.5" d="M30.2277 58.4581C19.1807 55.5772 9.59047 52.6963 1.57837 49.6953V53.1764C15.1747 58.3381 33.5054 63.2597 56.0849 67.9412V67.7011C55.9636 67.7011 55.7208 67.5811 55.5994 67.5811C46.9803 65.0603 38.4826 62.0593 30.2277 58.4581Z" fill="#546E0D"/>
<path opacity="0.5" d="M56.0849 68.5412C33.5054 63.9798 15.2961 59.0582 1.57837 53.8965V57.3776C15.1747 62.5393 33.384 67.4609 55.9636 72.0223L56.0849 68.5412Z" fill="#546E0D"/>
<path opacity="0.5" d="M55.9635 72.7424C33.5054 68.1809 15.1747 63.2593 1.57837 58.0977V61.5788C13.3537 66.0202 27.557 69.9815 42.3672 73.3426C46.8589 74.0628 51.2291 74.9031 55.7208 75.6233L55.9635 72.7424Z" fill="#546E0D"/>
<path opacity="0.5" d="M32.1697 71.6629C21.1227 68.902 10.6827 65.781 1.69946 62.4199V66.0211C10.6827 67.7016 21.1227 69.6222 32.1697 71.6629Z" fill="#546E0D"/>
<path d="M0 36.2517L0.364186 36.3717V66.9816L0.849769 67.1017C16.5098 70.2227 36.9042 73.8238 56.9345 77.1849C93.5959 84.6273 129.286 88.7086 133.535 89.1888C134.385 89.3088 134.87 89.4289 134.992 89.4289H135.477L157.329 54.6176V25.8083L157.814 24.968H156.6C81.2136 23.7677 28.4065 0.480151 27.7996 0.240074L27.314 0L26.9498 0.480148L0 36.2517ZM1.69954 58.0988C15.2958 63.2604 33.5052 68.182 56.0847 72.7435L55.9633 75.6244C51.4717 74.9042 46.9801 74.184 42.6098 73.3437C27.7996 69.9826 13.4749 66.0213 1.82093 61.5799V58.0988H1.69954ZM135.599 85.7077L135.477 82.9468L155.993 49.696V52.697L135.599 85.7077ZM133.049 63.6205L133.292 67.3418C129.043 66.8616 105.614 64.1007 78.4215 59.4192L78.5429 56.6583C105.735 60.9797 129.165 63.2604 133.049 63.6205ZM78.3001 60.0194C105.857 64.8209 129.286 67.5818 133.292 67.9419L133.414 71.5431C129.65 71.063 105.978 68.4221 78.1787 63.5005L78.3001 60.0194ZM78.0573 68.4221C107.071 73.4637 131.593 76.2246 133.778 76.4647L133.899 79.8258L133.778 80.0658C131.229 79.8258 106.707 76.9448 77.9359 71.9032L78.0573 68.4221ZM155.993 44.1742L135.235 77.9052L135.113 75.1443L155.993 41.1733V44.1742ZM155.993 39.9729L134.992 73.9439L134.87 71.183L155.993 36.9719V39.9729ZM134.628 67.3418L155.993 32.7706V35.7715L134.87 70.1026L134.628 67.3418ZM155.993 48.4957L135.477 81.8664L135.356 79.1055L156.115 45.4947V48.4957H155.993ZM134.142 83.787L133.778 84.3872C131.229 84.1472 106.707 81.2662 77.6931 76.2246L77.8145 72.6235C108.042 77.9052 133.535 80.7861 133.899 80.7861L134.142 83.787ZM78.0573 67.8219L78.1787 64.2207C106.342 69.1423 130.257 71.9032 133.535 72.2633L133.656 75.8645C130.986 75.6244 106.707 72.8635 78.0573 67.8219ZM134.385 63.1404L155.993 27.969V31.4502L134.628 66.1414L134.385 63.1404ZM134.385 87.7483L134.263 87.9884C129.286 87.2682 105.493 83.667 77.8145 79.2256L77.9359 76.8248C108.285 82.1065 133.899 84.9874 134.142 84.9874H134.385V84.8674V87.7483ZM57.1773 75.8645L58.027 53.0571C64.461 54.2575 70.895 55.4579 77.2075 56.4182L76.3578 78.9855C70.1666 78.0252 63.7326 76.9448 57.1773 75.8645ZM1.69954 53.8974C15.2958 59.0591 33.6265 63.9807 56.2061 68.5421L56.0847 72.1433C33.6266 67.5818 15.2958 62.5402 1.69954 57.4986C1.69954 57.3785 1.69954 53.8974 1.69954 53.8974ZM1.69954 49.696C15.2958 54.8577 33.7479 59.7793 56.3275 64.4608L56.2061 68.062C33.6265 63.3804 15.2958 58.4589 1.69954 53.2972C1.69954 53.1772 1.69954 49.696 1.69954 49.696ZM1.69954 45.3746C15.4172 50.5363 33.748 55.4579 56.4489 60.1394L56.3275 63.7406C33.6265 59.0591 15.2958 54.1375 1.69954 48.9758V45.3746ZM1.69954 41.1733C15.4172 46.3349 33.8693 51.2566 56.5703 55.9381L56.4489 59.5392C33.748 54.8577 15.2958 49.9361 1.69954 44.7744V41.1733ZM1.69954 37.092C15.4172 43.5741 35.9331 48.8558 56.6917 52.8171L56.5703 55.2178C33.748 50.5363 15.2958 45.6147 1.57814 40.4531C1.69954 40.4531 1.69954 37.092 1.69954 37.092ZM79.7568 17.4056L78.5429 19.3262C56.2061 14.4046 39.8177 8.64278 32.0484 5.76185L31.8056 5.64182L31.6842 5.88189C30.5917 7.32236 28.5279 7.92255 26.8284 7.32235L26.5856 7.20233L26.4642 7.4424L8.98327 30.3698L9.34745 30.4898C10.5614 30.97 11.5326 31.9303 11.8968 33.2507C12.2609 34.5712 12.0182 35.8916 11.1684 36.9719L10.9256 37.332L11.2898 37.4521C22.9437 41.8935 38.968 45.9748 58.5126 49.8161L57.2987 51.7367C36.4186 47.6554 15.66 42.3737 2.06372 35.8916L27.921 1.92061C31.0772 3.121 50.1363 10.9235 79.7568 17.4056ZM12.5037 33.0107C12.1395 31.6902 11.1684 30.6099 9.95443 30.0097L26.707 7.92255C28.6493 8.52274 30.7131 7.92255 31.927 6.48209C39.6963 9.48306 55.9633 15.1249 78.0573 19.9264L58.9982 49.0958C39.4535 45.3746 23.6721 41.2933 12.0182 36.8519C12.6251 35.7715 12.8679 34.3311 12.5037 33.0107ZM99.7871 21.2469L77.5717 55.2178C71.3805 54.2575 65.068 53.1772 58.7554 51.9768L81.0922 17.7657C86.9192 18.9661 93.1103 20.1665 99.7871 21.2469ZM143.004 33.0107C143.732 34.3311 145.068 35.2914 146.524 35.5315L133.292 57.0184C131.593 56.8984 129.893 57.7386 128.922 59.1791C119.696 58.2188 101.244 56.1781 80.4852 52.9371L99.4229 24.1278C113.748 26.4085 128.436 28.0891 142.761 28.8093C142.276 30.0097 142.276 31.5702 143.004 33.0107ZM155.508 26.2885L133.414 62.3001C130.015 61.94 106.342 59.7793 79.0285 55.4579L80.3638 53.5373C101.487 56.8984 120.06 58.939 129.286 59.7793H129.529L129.65 59.6592C130.5 58.3388 132.078 57.4986 133.656 57.6186H133.899L134.021 57.4986L147.86 34.9313H147.253C145.796 34.8112 144.461 34.091 143.732 32.7706C143.004 31.4501 143.004 29.8896 143.854 28.6893L144.096 28.2091H143.489C129.043 27.4889 114.355 25.9284 99.9085 23.5276L101.244 21.607C117.389 24.0078 135.599 25.9284 155.508 26.2885ZM143.368 74.304L155.872 53.8974V54.2575L143.368 74.304ZM1.69954 62.4202C10.6828 65.7812 21.1228 68.9022 32.1698 71.6631C21.1228 69.7425 10.6828 67.8219 1.69954 65.9013V62.4202Z" fill="#084900"/>
<path d="M118.483 42.0127C118.119 42.6129 117.512 42.973 116.662 43.3331C116.298 43.4532 115.812 43.5732 115.327 43.8133C114.841 43.9333 114.598 44.0534 114.355 44.1734C113.748 44.4135 113.384 44.7736 113.263 45.2538C113.141 45.6139 113.263 45.974 113.506 46.3341C113.748 46.6942 113.991 46.8143 114.477 46.9343C114.841 47.0543 115.205 46.9343 115.569 46.6942C115.934 46.4542 116.055 46.094 116.176 45.7339L116.298 44.8937C116.298 44.7736 116.298 44.7736 116.419 44.7736L118.483 45.1337C118.604 45.1337 118.604 45.1337 118.604 45.2538L118.483 46.094C118.361 46.9343 117.997 47.6545 117.39 48.1347C116.783 48.7349 116.055 49.095 115.327 49.2151L114.962 50.2954C114.962 50.4154 114.962 50.4154 114.841 50.4154L112.899 50.1754C112.777 50.1754 112.777 50.1754 112.777 50.0553L113.02 48.7349C112.292 48.3748 111.806 47.8946 111.442 47.1744C111.078 46.4541 110.956 45.7339 111.078 44.8937C111.199 44.1734 111.442 43.5732 111.928 43.0931C112.413 42.6129 112.899 42.3728 113.627 42.1328L115.691 41.4125C116.176 41.1725 116.541 41.0524 116.662 40.8123C116.783 40.5723 117.026 40.3322 117.026 39.852C117.148 39.4919 117.026 39.1318 116.783 38.7717C116.541 38.4116 116.298 38.2915 115.934 38.1715C115.569 38.0514 115.205 38.1715 114.962 38.4116C114.598 38.6516 114.477 38.8917 114.355 39.3719L114.113 40.8123C114.113 40.8123 114.113 40.9324 113.991 40.9324L111.928 40.5722C111.928 40.5722 111.806 40.5723 111.806 40.4522L112.049 39.0118C112.17 38.1715 112.534 37.5713 113.141 36.9711C113.748 36.3709 114.355 36.1308 115.084 36.0108L115.327 34.6904C115.327 34.5703 115.327 34.5703 115.448 34.5703L117.39 34.8104C117.512 34.8104 117.512 34.8104 117.512 34.9304L117.269 36.2509C117.997 36.611 118.483 37.0911 118.968 37.8114C119.333 38.5316 119.454 39.2518 119.333 40.0921C119.09 40.8123 118.847 41.5326 118.483 42.0127Z" fill="#084900"/>
<path d="M127.949 45.0138C128.678 41.6527 127.949 38.1716 126.007 35.4107C124.065 32.6498 121.151 30.6091 117.752 29.8889C110.711 28.4485 103.913 33.0099 102.456 39.9722C101 46.9344 105.613 53.6566 112.654 55.0971C113.503 55.2171 114.353 55.3372 115.203 55.3372C121.273 55.3372 126.614 51.1358 127.949 45.0138ZM126.614 44.7737C125.4 51.0157 119.209 55.0971 112.896 53.7766C106.584 52.5762 102.456 46.4543 103.792 40.2123C104.884 34.6905 109.74 30.9693 115.203 30.9693C115.931 30.9693 116.66 31.0893 117.509 31.2093C123.701 32.4097 127.828 38.5317 126.614 44.7737Z" fill="#084900"/>
<path d="M35.5669 27.9681C35.931 27.4879 36.538 27.2478 37.2664 27.0078L39.3301 26.2875C39.8157 26.0474 40.1799 25.9274 40.3013 25.6873C40.4227 25.4472 40.6655 25.2072 40.6655 24.727C40.7869 24.3669 40.6655 24.0068 40.4227 23.6467C40.1799 23.2866 39.9371 23.1665 39.5729 23.0465C39.2087 22.9264 38.8445 23.0465 38.6017 23.2865C38.2376 23.5266 38.1162 23.7667 37.9948 24.2469L37.752 25.6873C37.752 25.6873 37.752 25.8074 37.6306 25.8074L35.5669 25.4473C35.5669 25.4473 35.4455 25.4472 35.4455 25.3272L35.6883 23.8867C35.8097 23.0465 36.1738 22.4463 36.7808 21.8461C37.3878 21.2459 37.9948 21.0058 38.7231 20.8858L38.9659 19.5653C38.9659 19.4453 38.9659 19.4453 39.0873 19.4453L41.0297 19.6854C41.1511 19.6854 41.1511 19.6854 41.1511 19.8054L40.9083 21.1258C41.6366 21.486 42.1222 21.9661 42.6078 22.6864C42.972 23.4066 43.0934 24.1268 42.972 24.9671C42.8506 25.6873 42.6078 26.4076 42.1222 26.8877C41.758 27.4879 41.1511 27.848 40.3013 28.2081C39.9371 28.3282 39.4515 28.4482 38.9659 28.6883C38.4804 28.8083 38.1162 28.9284 37.9948 29.0484C37.3878 29.2885 37.0236 29.6486 36.9022 30.1288C36.7808 30.4889 36.9022 30.849 37.145 31.2091C37.3878 31.5692 37.6306 31.6893 38.1162 31.8093C38.4804 31.9293 38.8445 31.8093 39.2087 31.5692C39.5729 31.3291 39.6943 30.969 39.8157 30.6089L39.9371 29.7686C39.9371 29.6486 39.9371 29.6486 40.0585 29.6486L42.1222 29.8887C42.2436 29.8887 42.2436 29.8887 42.2436 30.0087L42.1222 30.849C42.0008 31.6893 41.6366 32.4095 41.0297 32.8897C40.4227 33.4898 39.6943 33.85 38.9659 33.97L38.7231 35.2904C38.7231 35.4105 38.7231 35.4105 38.6017 35.4105L36.6594 35.1704C36.538 35.1704 36.538 35.1704 36.538 35.0504L36.7808 33.7299C36.0524 33.3698 35.5669 32.8896 35.2027 32.1694C34.8385 31.4492 34.7171 30.729 34.8385 29.8887C34.8385 28.9284 35.0813 28.3282 35.5669 27.9681Z" fill="#084900"/>
<path d="M26.1009 24.8472C24.6442 31.8094 29.2572 38.5316 36.2981 39.9721C37.1479 40.0921 37.9977 40.2121 38.8474 40.2121C44.9172 40.2121 50.38 36.0108 51.594 29.8888C53.0507 22.9266 48.4377 16.2044 41.3967 14.7639C34.3558 13.3235 27.5577 17.8849 26.1009 24.8472ZM27.4363 25.0873C28.5288 19.5655 33.3846 15.8443 38.8474 15.8443C39.5758 15.8443 40.3042 15.9643 41.1539 16.0843C47.4665 17.2847 51.594 23.4067 50.2586 29.6487C48.9233 35.8907 42.8535 39.9721 36.5409 38.6516C30.2284 37.4513 26.1009 31.3293 27.4363 25.0873Z" fill="#084900"/>
</svg>
