<svg width="24" height="18" viewBox="0 0 24 18" fill="none" xmlns="http://www.w3.org/2000/svg">
<path d="M2.4 15.75L0 12.4406V12.375L2.4 15.75Z" fill="#B5D163"/>
<path d="M3.6 14.2126L3.57541 14.625L2.38702 12.9049L0 9.44493V9L2.95253 13.2775L3.6 14.2126Z" fill="#B5D163"/>
<path d="M11.9996 15.3107C10.3141 15.6872 8.73121 15.9987 7.3993 16.2428C5.31992 16.6216 3.85793 16.8355 3.59961 16.875L3.62892 16.1777C3.84511 16.1475 4.66404 16.0266 5.87136 15.8221C7.41579 15.5594 9.59778 15.1573 11.9813 14.625L11.9996 15.3107Z" fill="#B5D163"/>
<path d="M3.6 15.3322L3.57724 15.75L1.42138 12.6337L0 10.5757V10.125L2.14345 13.2249L3.6 15.3322Z" fill="#546E0D"/>
<path d="M11.9996 14.1885C9.47998 14.751 7.17985 15.1688 5.61568 15.4302C4.55323 15.61 3.82649 15.7173 3.59961 15.75L3.62728 15.0521C3.773 15.0311 4.08657 14.9844 4.53663 14.9144C5.96983 14.6857 8.7975 14.2072 11.9812 13.5L11.9996 14.1885Z" fill="#546E0D"/>
<path d="M11.9996 15.3102C11.6536 15.3889 11.3113 15.463 10.9762 15.537C10.9726 15.5393 10.969 15.5393 10.9635 15.537C7.09764 16.368 3.96562 16.8264 3.61964 16.875L3.59961 16.831L3.6251 16.1829C3.83815 16.1528 5.46061 15.9167 7.75682 15.4884C9.00416 15.2569 10.4518 14.9676 11.9814 14.625L11.9996 15.3102Z" fill="#546E0D"/>
<path d="M24.0002 13.5V13.931C22.5856 14.1516 20.9378 14.3868 19.2002 14.625C20.9397 14.286 22.5875 13.9106 24.0002 13.5Z" fill="#B5D163"/>
<path d="M11.9996 16.4338C7.69104 17.4063 4.02486 17.9469 3.64847 18L3.59961 17.8937L3.62132 17.3162H3.62856C3.66656 17.3116 7.46484 16.7687 11.9815 15.75L11.9996 16.4338Z" fill="#B5D163"/>
<path d="M3.6 15.3283L3.57702 15.75L0 10.5798V10.125L1.0426 11.6311L3.6 15.3283Z" fill="#B5D163"/>
<path d="M22.3941 9.83211C22.4556 9.62147 22.6019 9.45068 22.8 9.3558L20.1414 5.86221C19.8413 5.95899 19.5065 5.86411 19.3045 5.625C18.0637 6.09752 15.5012 6.98562 12 7.75797L15.0299 12.375C18.1214 11.7848 20.6281 11.1358 22.4807 10.447C22.3633 10.2648 22.3325 10.0428 22.3941 9.83211ZM18.6197 10.9309C18.4831 10.9574 18.3484 10.9707 18.2157 10.9707C17.2557 10.9707 16.3939 10.3027 16.1976 9.33872C15.9745 8.23998 16.6998 7.16969 17.8117 6.94957C18.9255 6.72944 20.0105 7.44296 20.2337 8.5417C20.4569 9.63855 19.7316 10.7107 18.6197 10.9309Z" fill="#B5D163"/>
<path d="M6.95388 12.342C7.9262 12.1592 8.55942 11.2684 8.36458 10.3565C8.1941 9.55524 7.44098 9 6.59981 9C6.48365 9 6.36563 9.01054 6.24573 9.03338C5.27341 9.21612 4.64019 10.107 4.83503 11.0189C5.02987 11.9308 5.98157 12.5247 6.95388 12.342ZM6.02841 9.99977C6.08836 9.89786 6.17454 9.82231 6.28319 9.77486L6.25135 9.5851C6.24947 9.57632 6.25322 9.57105 6.26259 9.56929L6.56608 9.52536C6.57732 9.52361 6.58482 9.52712 6.58482 9.53591L6.61667 9.72918C6.73282 9.74676 6.83586 9.7942 6.92391 9.87678C7.01196 9.9576 7.06629 10.0578 7.08502 10.1755L7.12062 10.3951C7.12249 10.4021 7.11875 10.4057 7.11125 10.4057L6.79089 10.4513C6.7834 10.4531 6.77965 10.4496 6.77965 10.4426L6.74031 10.2229C6.72907 10.1597 6.70097 10.1122 6.65039 10.0806C6.60168 10.049 6.54922 10.0367 6.49302 10.0455C6.43494 10.0542 6.38811 10.0824 6.35438 10.1298C6.32066 10.1772 6.30755 10.2299 6.31692 10.2862C6.32628 10.3406 6.34689 10.3846 6.37874 10.4197C6.41059 10.4549 6.46304 10.4847 6.53611 10.5128L6.85084 10.6218C6.95388 10.6569 7.03819 10.7061 7.10563 10.7694C7.1712 10.8344 7.21429 10.9205 7.23115 11.0294C7.25176 11.1542 7.23303 11.2666 7.17495 11.3668C7.11687 11.4669 7.03444 11.5442 6.92578 11.5952L6.95763 11.7885C6.9595 11.7973 6.95388 11.8025 6.94264 11.8043L6.63915 11.8482C6.62978 11.85 6.62416 11.8465 6.62229 11.8377L6.59044 11.6479C6.46866 11.6321 6.36188 11.5811 6.27195 11.4968C6.18016 11.4125 6.12583 11.3106 6.10522 11.1911L6.08461 11.0663C6.08274 11.0575 6.08648 11.0523 6.09585 11.0505L6.41433 11.0048C6.42183 11.0031 6.42557 11.0083 6.42745 11.0171L6.44806 11.1419C6.45742 11.1981 6.4874 11.2455 6.53611 11.2824C6.58669 11.3193 6.64102 11.3334 6.6991 11.3246C6.75905 11.3158 6.80588 11.2877 6.84148 11.2385C6.8752 11.1893 6.88831 11.1401 6.87895 11.0874C6.86771 11.0206 6.81338 10.9679 6.71408 10.9328C6.68036 10.9205 6.62978 10.9011 6.55859 10.8783C6.4874 10.8555 6.42183 10.8326 6.36188 10.8133C6.24385 10.7729 6.15205 10.7114 6.08648 10.6288C6.02091 10.5462 5.9797 10.4496 5.96284 10.3389C5.94785 10.2141 5.96846 10.1017 6.02841 9.99977Z" fill="#789C13"/>
<path d="M14.4004 11.8795L11.1298 6.75C10.2762 6.93738 9.36579 7.11755 8.40039 7.2797L11.6497 12.375C12.5495 12.2272 13.4758 12.0615 14.4004 11.8795Z" fill="#FFD999"/>
<path d="M24 9.87266C23.1317 10.2976 22.0835 10.6865 20.9264 11.0413C19.7243 11.4112 18.4023 11.747 17.0427 12.043C16.5176 12.1587 15.9887 12.2687 15.458 12.375L15.2649 12.0733C15.8369 11.9614 16.3882 11.8457 16.9151 11.728C18.3704 11.4093 19.67 11.0754 20.7989 10.7283C21.4421 10.531 22.0328 10.3299 22.5654 10.125L22.6292 10.1003L22.5879 10.0453C22.4623 9.87646 22.4229 9.66398 22.481 9.46288C22.5391 9.26179 22.6854 9.10243 22.8786 9.02844L22.9423 9.00377L20.2475 5.37458L20.225 5.34422L20.1875 5.3575C19.9156 5.46564 19.6062 5.37458 19.4318 5.13933L19.4074 5.10898L19.3699 5.12416C19.1655 5.20384 18.9255 5.29679 18.646 5.39924C17.744 5.72934 16.4538 6.16188 14.8486 6.60581C14.0403 6.82967 13.1533 7.05732 12.1932 7.2736L12 6.97385C12.9864 6.75379 13.8978 6.52234 14.7248 6.29658C16.3263 5.85644 17.609 5.4239 18.5204 5.08811C19.3174 4.79406 19.8293 4.57778 20.0131 4.5L24 9.87266Z" fill="#789C13"/>
<path d="M11.9996 13.7866C8.66486 14.1856 5.72003 14.4495 4.33303 14.5657C3.9821 14.5947 3.7333 14.6149 3.59961 14.625L3.62189 14.3182L3.62746 14.2298C4.22534 14.1919 7.82375 13.9571 11.9848 13.5L11.9996 13.7866Z" fill="#B5D163"/>
<path d="M3.6 14.1773L3.59594 14.2569L3.57363 14.625L3.14569 14.011L0 9.50782V9L3.6 14.1773Z" fill="#546E0D"/>
<path d="M12 13.4858C11.1563 13.6267 10.3355 13.7557 9.55658 13.8688C7.93398 14.109 6.49421 14.2896 5.41628 14.4146C4.37645 14.5357 3.6737 14.6051 3.46231 14.625L0 8.67484C1.0665 8.653 2.10633 8.60338 3.11189 8.52995C4.57642 8.42079 5.96858 8.26201 7.28075 8.0695C7.69973 8.00797 8.11109 7.94248 8.51484 7.875L8.7129 8.19453C8.28059 8.26797 7.84637 8.33743 7.41216 8.40095C6.02571 8.60735 4.63355 8.76414 3.2452 8.86933C2.79003 8.90704 2.33677 8.93483 1.88351 8.95865L1.79781 8.9646L1.84161 9.04002C1.9654 9.2504 1.97112 9.50841 1.86066 9.72474C1.7502 9.94107 1.54261 10.078 1.30646 10.0879L1.21885 10.0919L3.38994 13.8212L3.40708 13.8509L3.44136 13.847C3.69465 13.8212 3.94223 13.9522 4.07364 14.1784L4.09078 14.2062L4.12506 14.2042C4.44501 14.1725 4.83542 14.1288 5.28678 14.0752C6.37232 13.9482 7.80638 13.7716 9.42708 13.5314C10.1851 13.4203 10.983 13.2992 11.8038 13.1622L12 13.4858Z" fill="#789C13"/>
<path d="M1.77898 9.31252C1.65964 9.52997 1.44683 9.6743 1.2002 9.71279L3.35821 13.1555C3.64263 13.1382 3.91312 13.2729 4.07025 13.5C5.58981 13.3499 8.59511 13.0266 12.0002 12.5012L8.90539 7.875C6.55246 8.25026 4.16174 8.50235 1.80086 8.61974C1.90627 8.84104 1.90031 9.09314 1.77898 9.31252ZM4.57346 9.69162C4.88771 9.23362 5.36903 8.92187 5.92594 8.8141C7.07754 8.59087 8.19931 9.31637 8.43003 10.4287C8.66075 11.5429 7.91091 12.6282 6.7613 12.8515C6.62009 12.8784 6.48086 12.8919 6.34163 12.8919C5.34915 12.8919 4.4581 12.2145 4.25522 11.2369C4.14583 10.6981 4.25721 10.1496 4.57346 9.69162Z" fill="#B5D163"/>
<path d="M23.9996 11.25V11.9037C22.9177 12.3979 21.6403 12.881 20.1767 13.3486C18.8155 13.7873 17.2941 14.2128 15.6182 14.625L15.5996 13.9713C18.3127 13.3065 20.6273 12.604 22.5099 11.8727C23.0406 11.6688 23.5378 11.4605 23.9996 11.25Z" fill="#B5D163"/>
<path d="M11.9996 16.2268C7.88419 17.134 4.37339 17.8492 3.6248 18L3.59961 17.944L3.6212 17.3895L3.6284 17.4065L3.66079 17.404C3.69858 17.3967 7.4883 16.8276 11.9888 15.75L11.9996 16.2268Z" fill="#546E0D"/>
<path d="M23.9996 12.375V13.0274C21.9108 13.9815 19.0921 14.8957 15.6183 15.75L15.6164 15.71L15.5996 15.0954C17.0463 14.7404 18.3828 14.3743 19.598 14.0015C21.3023 13.4756 22.7732 12.9342 23.9996 12.375Z" fill="#546E0D"/>
<path d="M23.9996 12.375V13.0287C21.9085 13.9825 19.091 14.8962 15.6183 15.75L15.5996 15.0963C19.0742 14.2426 21.8973 13.3288 23.9996 12.375Z" fill="#B5D163"/>
<path d="M23.9996 10.125V10.7774C23.6523 10.9367 23.2809 11.0959 22.8927 11.2529C20.952 12.0337 18.5135 12.7878 15.6182 13.5L15.5996 12.8475C19.0762 11.9961 21.9029 11.0782 23.9996 10.125Z" fill="#546E0D"/>
<path d="M23.9996 13.5V13.9525C22.1886 14.5234 19.9798 15.0251 17.6865 15.4591C16.9996 15.5576 16.3071 15.6546 15.6165 15.75L15.5996 15.3791C19.0752 14.7881 21.8996 14.1571 23.9996 13.5Z" fill="#546E0D"/>
<path d="M15.6 16.3297C14.4321 16.517 13.2708 16.7001 12.1424 16.875L12.0986 15.6907L12 12.9599C13.1306 12.785 14.2941 12.5873 15.4554 12.375L15.5496 14.9747L15.6 16.3297Z" fill="#E6B767"/>
<path d="M23.9996 10.7582V10.125C21.9038 11.3292 18.7739 12.2957 15.5996 13.0445L15.6126 13.5C19.0908 12.6401 21.9112 11.7181 23.9996 10.7582Z" fill="#B5D163"/>
<path d="M18.6007 6.75C18.4845 6.75 18.3664 6.76054 18.2465 6.78338C17.2737 6.96612 16.6401 7.85696 16.835 8.76888C17.03 9.6808 17.9822 10.2747 18.9531 10.092C19.926 9.90922 20.5595 9.01838 20.3646 8.10646C20.194 7.30523 19.4405 6.75 18.6007 6.75ZM19.1799 9.11677C19.1218 9.21693 19.0394 9.29424 18.9306 9.3452L18.9625 9.53848C18.9644 9.54726 18.9588 9.55253 18.9475 9.55429L18.6439 9.59821C18.6345 9.59997 18.6289 9.59646 18.627 9.58767L18.5951 9.39791C18.4733 9.38209 18.3664 9.33114 18.2765 9.2468C18.1846 9.16246 18.1303 9.06055 18.1096 8.94107L18.089 8.81632C18.0872 8.80753 18.0909 8.80226 18.1003 8.8005L18.4189 8.75482C18.4264 8.75306 18.4302 8.75833 18.432 8.76712L18.4527 8.89187C18.462 8.94809 18.492 8.99554 18.5408 9.03244C18.5914 9.06934 18.6457 9.08339 18.7038 9.07461C18.7638 9.06582 18.8107 9.03771 18.8463 8.98851C18.88 8.93931 18.8931 8.89011 18.8838 8.8374C18.8725 8.77063 18.8182 8.71792 18.7188 8.68278C18.6851 8.67048 18.6345 8.65115 18.5633 8.62831C18.492 8.60547 18.4264 8.58262 18.3664 8.5633C18.2484 8.52288 18.1565 8.46139 18.0909 8.37881C18.0253 8.29622 17.9841 8.19959 17.9672 8.08889C17.9466 7.9659 17.9672 7.8552 18.029 7.75329C18.089 7.65138 18.1752 7.57583 18.284 7.52838L18.254 7.33862C18.2521 7.32983 18.2559 7.32456 18.2652 7.3228L18.5689 7.27888C18.5801 7.27712 18.5876 7.28063 18.5876 7.28942L18.6195 7.4827C18.7357 7.50027 18.8388 7.54771 18.9269 7.63029C19.015 7.71112 19.0693 7.81127 19.0881 7.929L19.1237 8.14863C19.1256 8.15566 19.1218 8.15917 19.1143 8.15917L18.7938 8.20485C18.7863 8.20661 18.7826 8.2031 18.7826 8.19607L18.7432 7.97644C18.7338 7.91318 18.7038 7.86574 18.6532 7.83411C18.6045 7.80249 18.552 7.79019 18.4958 7.79722C18.4377 7.806 18.3908 7.83411 18.3571 7.88155C18.3233 7.92899 18.3102 7.98171 18.3196 8.03793C18.329 8.0924 18.3496 8.13633 18.3814 8.17147C18.4133 8.20661 18.4658 8.23648 18.5389 8.2646L18.8538 8.37354C18.9569 8.40868 19.0412 8.45787 19.1087 8.52113C19.1743 8.58614 19.2174 8.67224 19.2343 8.78118C19.2549 8.90242 19.2362 9.01662 19.1799 9.11677Z" fill="#789C13"/>
<path d="M3.6 17.5709L3.57444 18L0 12.8397V12.375L3.6 17.5709Z" fill="#B5D163"/>
<path d="M3.6 16.4497L3.57469 16.875L0 11.7105V11.25L3.6 16.4497Z" fill="#546E0D"/>
<path opacity="0.5" d="M9.59961 13.0163C8.08897 13.2291 6.74855 13.3892 5.745 13.5L5.62266 13.201L3.72372 8.58384L3.59961 8.28306C4.96308 8.18632 6.25918 8.04561 7.48082 7.875L7.60316 8.17049L9.47727 12.719L9.59961 13.0163Z" fill="#B5D163"/>
<path opacity="0.5" d="M20.4004 11.4036C19.2381 11.7623 17.9598 12.088 16.6452 12.375L16.5219 12.0696L14.5219 7.09679L14.4004 6.79691C15.9489 6.37009 17.1891 5.95063 18.0704 5.625L18.1937 5.92672L20.2771 11.0982L20.4004 11.4036Z" fill="#B5D163"/>
<path opacity="0.5" d="M0 12.375L2.4 15.75L0 12.4406V12.375Z" fill="#546E0D"/>
<path opacity="0.5" d="M0 12.375L3.6 17.5709L3.57444 18L0 12.8397V12.375Z" fill="#546E0D"/>
<path opacity="0.5" d="M0 11.25L3.6 16.4497L3.57469 16.875L0 11.7105V11.25Z" fill="#546E0D"/>
<path opacity="0.5" d="M1.042 12.5858L3.6 16.4361L3.57703 16.875L0 11.4915V11.25C0.29652 11.7253 0.647332 12.1718 1.042 12.5858Z" fill="#546E0D"/>
<path opacity="0.5" d="M1.99564 13.0172L3.6002 15.2975L3.57512 15.75L1.2002 12.375C1.45319 12.6022 1.71757 12.8156 1.99564 13.0172Z" fill="#546E0D"/>
<path opacity="0.5" d="M2.95985 13.9892L3.60039 15.2111L3.57607 15.75L2.40039 13.5C2.58282 13.6725 2.76931 13.8332 2.95985 13.9892Z" fill="#546E0D"/>
<path opacity="0.5" d="M5.99961 15.3195C4.73483 15.5614 3.86969 15.706 3.59961 15.75L3.63255 14.8104C3.80601 14.7821 4.1793 14.7193 4.71507 14.625C5.13447 14.8921 5.56484 15.1246 5.99961 15.3195Z" fill="#546E0D"/>
<path opacity="0.5" d="M7.19961 16.1995C5.2295 16.6043 3.84435 16.8328 3.59961 16.875L3.62738 16.13C3.8322 16.0977 4.60809 15.9685 5.75197 15.75C6.22931 15.9462 6.71186 16.0927 7.19961 16.1995Z" fill="#546E0D"/>
<path opacity="0.5" d="M3.61919 16.875L3.59961 16.8393L3.62454 16.3134C3.83284 16.289 5.41919 16.0975 7.6643 15.75C8.69872 15.8871 9.74916 15.8909 10.7996 15.7894C7.02157 16.4618 3.95925 16.8356 3.61919 16.875Z" fill="#546E0D"/>
<path opacity="0.5" d="M3.64847 18L3.59961 17.8937L3.62132 17.3162H3.62856C3.66656 17.3116 7.46484 16.7687 11.9815 15.75L11.9996 16.4338C7.68923 17.4063 4.02305 17.9469 3.64847 18Z" fill="#546E0D"/>
<path opacity="0.5" d="M11.987 15.75L11.9996 16.2268C7.88418 17.134 4.37339 17.8492 3.6248 18L3.59961 17.944L3.6212 17.3895L3.6284 17.4065L3.66079 17.404C3.69678 17.3943 7.4865 16.8276 11.987 15.75Z" fill="#546E0D"/>
<path opacity="0.5" d="M15.5482 14.625L15.6 16.2293C14.3992 16.4511 13.2053 16.668 12.0451 16.875L12 15.4728C13.1985 15.2731 14.3835 14.9799 15.5482 14.625Z" fill="#546E0D"/>
<path opacity="0.5" d="M23.9998 11.25V11.7627C23.6233 11.9677 23.2206 12.1728 22.7998 12.375C23.2065 12.0161 23.6072 11.643 23.9998 11.25Z" fill="#546E0D"/>
<path opacity="0.5" d="M22.5976 11.9176C23.0973 11.699 23.5673 11.4757 24.0004 11.25V11.9509C22.9816 12.4807 21.7787 12.9987 20.4004 13.5C21.1509 13.0248 21.8856 12.4997 22.5976 11.9176Z" fill="#546E0D"/>
<path opacity="0.5" d="M19.5911 13.9993C21.2969 13.4734 22.7708 12.932 23.9996 12.375V13.0274C21.9066 13.9815 19.0823 14.8957 15.6015 15.75L15.5996 15.71C15.6239 15.7034 15.6501 15.6945 15.6763 15.6856C17.008 15.2241 18.3211 14.6671 19.5911 13.9993Z" fill="#546E0D"/>
<path opacity="0.5" d="M15.5996 15.0963C19.0742 14.2426 21.8991 13.3288 23.9996 12.375V13.0287C21.9085 13.9825 19.091 14.8962 15.6183 15.75L15.5996 15.0963Z" fill="#546E0D"/>
<path opacity="0.5" d="M15.5996 15.3776C19.076 14.7881 21.8991 14.1571 23.9996 13.5V13.9525C22.1882 14.5234 19.9789 15.0251 17.6851 15.4591C16.998 15.5576 16.3054 15.6546 15.6146 15.75L15.5996 15.3776Z" fill="#546E0D"/>
<path opacity="0.5" d="M19.2002 14.625C20.9397 14.2875 22.5875 13.912 24.0002 13.5V13.931C22.5856 14.1531 20.9378 14.3883 19.2002 14.625Z" fill="#546E0D"/>
<path d="M19.876 4.56345L19.828 4.5L19.7542 4.53263C19.6748 4.56707 11.6409 8.08391 0.177217 8.26157L0 8.26338L0.0775322 8.38847V12.7446L3.40405 17.9999L3.4705 17.9909C3.47973 17.9891 3.55726 17.9782 3.69202 17.9583C4.34182 17.8857 9.7654 17.2603 15.3367 16.1382C18.3863 15.6342 21.4765 15.094 23.8652 14.6136L23.9465 14.5973V9.98192L24 9.95654L19.876 4.56345ZM23.7434 13.7924C21.962 14.4632 19.7874 15.056 17.5334 15.5672C16.8596 15.6814 16.1784 15.7974 15.4973 15.9098L15.4825 15.4729C18.8995 14.7786 21.6777 14.0353 23.7434 13.2595V13.7924ZM0.278747 12.4365V11.9869L3.39851 17.0138L3.37636 17.4271L0.278747 12.4365ZM12.0618 13.0383L12.0766 13.4498C7.92493 14.1695 4.37874 14.581 3.72525 14.6553L3.75479 14.0879C4.34736 14.0317 7.92493 13.6927 12.0618 13.0383ZM12.0988 14.0843C7.86401 14.8185 4.25321 15.2336 3.69202 15.2971L3.71971 14.755C4.3289 14.6861 7.89539 14.2746 12.0803 13.5495L12.0988 14.0843ZM12.1431 15.3569C7.7551 16.1183 4.028 16.5388 3.64587 16.5823L3.62557 16.5479L3.65141 16.0421C3.98554 16.0059 7.71633 15.5853 12.1246 14.8221L12.1431 15.3569ZM0.278747 10.707L3.45943 15.8318L3.43727 16.2452L0.276902 11.1548V10.707H0.278747ZM0.278747 10.0671L3.49081 15.2427L3.46866 15.656L0.278747 10.5167V10.0671ZM3.50004 15.0668L0.278747 9.87678V9.4272L3.52219 14.6517L3.50004 15.0668ZM0.278747 11.347L3.42989 16.4228L3.40774 16.8361L0.278747 11.7947V11.347ZM3.61818 16.6857H3.62557C3.66433 16.682 7.54096 16.2578 12.1468 15.4584L12.1652 15.9932C7.76802 16.7582 4.028 17.1806 3.64587 17.2223L3.59419 17.1389L3.61818 16.6857ZM3.65695 15.9406L3.68464 15.3968C4.18675 15.3406 7.8234 14.9254 12.1006 14.184L12.1191 14.7188C7.7754 15.4747 4.08338 15.8935 3.65695 15.9406ZM3.53142 14.4759L0.278747 9.23686V8.71477L3.55542 14.0208L3.53142 14.4759ZM3.58495 17.3147L3.59234 17.3274L3.62372 17.3238C3.66249 17.3201 7.55019 16.8941 12.1671 16.0929L12.18 16.4482C7.95816 17.1226 4.35474 17.6573 3.58865 17.7697L3.5628 17.728L3.58495 17.3147ZM12.383 16.4156L12.2631 13.0057C13.2156 12.8534 14.1958 12.683 15.1742 12.4963L15.2961 15.9424C14.3121 16.1056 13.3337 16.2633 12.383 16.4156ZM23.7434 13.1525C21.6814 13.9284 18.9032 14.6753 15.4788 15.3714L15.4603 14.8366C18.8865 14.1405 21.6722 13.3954 23.7434 12.6195V13.1525ZM23.7434 12.5126C21.6759 13.2903 18.8902 14.039 15.4567 14.7351L15.4382 14.2003C18.8755 13.5042 21.6666 12.7573 23.7434 11.9778V12.5126ZM23.7434 11.8727C21.6722 12.6522 18.8773 13.4009 15.4345 14.1006L15.416 13.5658C18.8644 12.8679 21.6648 12.1192 23.7453 11.3397V11.8727H23.7434ZM23.7434 11.2328C21.6685 12.0141 18.8662 12.7646 15.4105 13.4643L15.392 12.9295C18.8496 12.2298 21.6574 11.4811 23.7434 10.698V11.2328ZM23.7434 10.5928C21.6629 11.376 18.8533 12.1283 15.3884 12.8298L15.3754 12.4582C18.5358 11.8473 21.6537 11.0569 23.7434 10.0762V10.5928ZM19.7616 4.74473L23.6899 9.8804C21.6039 10.8684 18.462 11.6624 15.2813 12.2733L15.0911 11.9851C18.078 11.4158 20.4963 10.7886 22.2777 10.1233L22.3404 10.0998L22.2998 10.0472C22.1761 9.88584 22.1392 9.68462 22.1964 9.49246C22.2537 9.30031 22.3958 9.14803 22.586 9.07733L22.6487 9.05376L19.996 5.58406L19.972 5.55324L19.9369 5.56774C19.6693 5.66926 19.3628 5.58406 19.1911 5.35746L19.1671 5.32664L19.1321 5.33933C17.9525 5.78709 15.4696 6.64817 12.0655 7.39323L11.8772 7.10681C16.3797 6.13334 19.2687 4.9532 19.7616 4.74473ZM22.1817 10.0544C20.404 10.7125 17.9986 11.3325 15.0321 11.8962L12.1246 7.48569C15.4843 6.74788 17.9432 5.89948 19.1339 5.4481C19.3277 5.67651 19.6489 5.76715 19.9369 5.6747L22.4881 9.01026C22.298 9.1009 22.1577 9.26405 22.0986 9.46527C22.0395 9.66649 22.0691 9.87859 22.1817 10.0544ZM11.6649 7.15576L15.0671 12.3168C14.1054 12.4999 13.1418 12.6649 12.2058 12.8153L8.82578 7.68872C9.82817 7.52376 10.777 7.34429 11.6649 7.15576ZM2.2669 8.80903C4.45996 8.69845 6.67702 8.46098 8.86086 8.10748L11.7332 12.4636C8.57103 12.9567 5.78171 13.2631 4.3732 13.4045C4.22737 13.1906 3.97631 13.0655 3.71233 13.08L1.70941 9.83689C1.93831 9.80245 2.13584 9.66468 2.2466 9.45983C2.3592 9.25498 2.36474 9.01751 2.2669 8.80903ZM8.60795 7.72316L8.80178 8.01503C6.60872 8.36853 4.38243 8.60419 2.18199 8.71295L2.09707 8.71658L2.14137 8.78728C2.25952 8.97944 2.26506 9.21329 2.15799 9.4127C2.05092 9.61029 1.8497 9.73538 1.62264 9.74444L1.53773 9.74807L3.64218 13.1543L3.6588 13.1815L3.69018 13.1779C3.9357 13.1525 4.17752 13.2722 4.3049 13.4788L4.32151 13.506L4.3529 13.5024C5.75956 13.3628 8.58949 13.0528 11.7942 12.5507L11.988 12.8443C7.82155 13.5024 4.22921 13.8378 3.71233 13.8849L0.35628 8.4501C3.37451 8.39934 6.15091 8.11292 8.60795 7.72316ZM0.278747 12.6866V12.6268L2.18752 15.7031L0.278747 12.6866ZM23.7434 14.4324C22.3774 14.7061 20.7861 14.9998 19.1081 15.2934C20.7879 14.8747 22.3792 14.4088 23.7434 13.8976V14.4324Z" fill="#084900"/>
<path d="M6.11874 11.1939C6.17848 11.2738 6.26459 11.3334 6.37705 11.3725C6.43328 11.3929 6.49479 11.4133 6.56156 11.4354C6.62833 11.4576 6.67578 11.4763 6.70741 11.4882C6.80054 11.5222 6.8515 11.5715 6.86205 11.6379C6.87083 11.6889 6.85853 11.7366 6.8269 11.7842C6.79527 11.8319 6.75134 11.8591 6.69335 11.8676C6.63888 11.8761 6.58792 11.8625 6.54047 11.8267C6.49303 11.791 6.46667 11.7468 6.45788 11.6906L6.43855 11.5698C6.4368 11.5613 6.43328 11.5579 6.42625 11.5579L6.12752 11.6022C6.11874 11.6039 6.11522 11.609 6.11698 11.6175L6.13631 11.7383C6.15388 11.854 6.2066 11.9526 6.2927 12.0343C6.37881 12.116 6.47721 12.1636 6.59143 12.1806L6.62131 12.3644C6.62306 12.3729 6.62833 12.3763 6.63712 12.3746L6.92179 12.332C6.93234 12.3303 6.93761 12.3252 6.93585 12.3167L6.90598 12.1296C7.0079 12.0802 7.08521 12.0071 7.13969 11.9084C7.19416 11.8114 7.21174 11.7008 7.19241 11.5818C7.17659 11.4763 7.13617 11.3929 7.07467 11.33C7.01317 11.267 6.93234 11.2194 6.83569 11.187L6.54047 11.0816C6.47194 11.0543 6.42274 11.0254 6.39287 10.9914C6.36299 10.9574 6.34366 10.9148 6.33488 10.8621C6.32609 10.8077 6.33839 10.7566 6.37002 10.7107C6.40165 10.6647 6.44558 10.6375 6.50006 10.629C6.55277 10.6205 6.60198 10.6324 6.64766 10.663C6.69335 10.6937 6.72147 10.7396 6.73201 10.8008L6.76891 11.0135C6.77067 11.0203 6.77418 11.022 6.77946 11.022L7.07994 10.9778C7.08697 10.9761 7.08873 10.9727 7.08873 10.9676L7.05534 10.7549C7.03777 10.6409 6.98681 10.544 6.90422 10.4657C6.82163 10.3874 6.72498 10.3398 6.61604 10.3228L6.58616 10.1356C6.5844 10.1271 6.57913 10.1237 6.56859 10.1254L6.28392 10.168C6.27513 10.1697 6.27162 10.1748 6.27337 10.1833L6.30325 10.367C6.20133 10.4146 6.12225 10.4878 6.06426 10.5848C6.00803 10.6835 5.9887 10.7906 6.00628 10.9097C6.02033 11.022 6.05899 11.1156 6.11874 11.1939Z" fill="#084900"/>
<path d="M6.59815 12.375C6.71422 12.375 6.83366 12.3639 6.9531 12.3419C7.92545 12.1589 8.55967 11.2678 8.36452 10.3563C8.16938 9.4447 7.22058 8.85013 6.24655 9.03308C5.77552 9.1214 5.36841 9.37689 5.10261 9.75224C4.83682 10.1276 4.74093 10.5771 4.83513 11.0202C5.00504 11.8198 5.75701 12.375 6.59815 12.375ZM6.2802 9.20182C6.38618 9.18132 6.49216 9.17186 6.59815 9.17186C7.3518 9.17186 8.02807 9.67023 8.18284 10.3894C8.35779 11.2079 7.78919 12.0075 6.91609 12.1715C6.04468 12.3356 5.19009 11.8025 5.01514 10.984C4.8385 10.1654 5.4071 9.36584 6.2802 9.20182Z" fill="#084900"/>
<path d="M19.0733 9.08008C19.012 9.01703 18.9314 8.96933 18.835 8.93695L18.5406 8.83131C18.4723 8.80405 18.4233 8.77508 18.3935 8.74101C18.3637 8.70693 18.3444 8.66433 18.3357 8.61151C18.3269 8.55698 18.3392 8.50587 18.3707 8.45986C18.4022 8.41386 18.446 8.3866 18.5004 8.37808C18.5529 8.36956 18.602 8.38148 18.6475 8.41386C18.6931 8.44453 18.7211 8.49053 18.7316 8.55187L18.7684 8.76486C18.7702 8.77167 18.7737 8.77338 18.7789 8.77338L19.0785 8.72908C19.0856 8.72737 19.0873 8.72397 19.0873 8.71885L19.054 8.50587C19.0365 8.39171 18.9857 8.29458 18.9033 8.2162C18.821 8.13783 18.7246 8.09012 18.616 8.07308L18.5862 7.88565C18.5845 7.87713 18.5792 7.87372 18.5687 7.87543L18.2848 7.91802C18.2761 7.91973 18.2726 7.92484 18.2743 7.93336L18.3024 8.11738C18.2007 8.16509 18.1219 8.23836 18.0641 8.33548C18.008 8.4343 17.9887 8.54165 18.0063 8.66092C18.0238 8.76827 18.0623 8.86198 18.1219 8.94206C18.1815 9.02215 18.2673 9.08179 18.3795 9.12098C18.4355 9.14142 18.4968 9.16187 18.5634 9.18402C18.63 9.20617 18.6773 9.22491 18.7089 9.23684C18.8017 9.27092 18.8525 9.32033 18.863 9.38678C18.8718 9.4379 18.8595 9.48731 18.828 9.53331C18.7965 9.58102 18.7527 9.60828 18.6948 9.6168C18.6405 9.62532 18.5897 9.61169 18.5424 9.57591C18.4951 9.54013 18.4671 9.49583 18.4601 9.4396L18.4408 9.31862C18.439 9.3101 18.4355 9.3067 18.4285 9.3067L18.1307 9.351C18.1219 9.3527 18.1184 9.35781 18.1201 9.36633L18.1394 9.48731C18.1569 9.60318 18.2095 9.702 18.2954 9.78379C18.3812 9.86557 18.4793 9.91329 18.5932 9.93032L18.623 10.1143C18.6247 10.1229 18.63 10.1263 18.6388 10.1246L18.9226 10.082C18.9331 10.0803 18.9384 10.0752 18.9366 10.0666L18.9068 9.8792C19.0085 9.82979 19.0856 9.75482 19.1399 9.6577C19.1942 9.56058 19.2117 9.44982 19.1924 9.33055C19.1749 9.22661 19.1346 9.14142 19.0733 9.08008Z" fill="#084900"/>
<path d="M17.0463 6.78308C16.074 6.96602 15.4397 7.85709 15.6349 8.76867C15.8065 9.56984 16.5601 10.125 17.3996 10.125C17.5157 10.125 17.6351 10.1139 17.7529 10.0919C18.7253 9.90892 19.3595 9.01785 19.1643 8.10627C18.9692 7.1947 18.0204 6.60013 17.0463 6.78308ZM17.7159 9.92312C16.8428 10.0871 15.9899 9.55407 15.8149 8.73555C15.6399 7.91702 16.2086 7.11743 17.0817 6.95341C17.1876 6.9329 17.2936 6.92344 17.3996 6.92344C18.1533 6.92344 18.8296 7.42181 18.9843 8.14097C19.1576 8.9595 18.5907 9.7591 17.7159 9.92312Z" fill="#084900"/>
<path d="M21.5996 11.25L23.9996 7.94063V7.875L21.5996 11.25Z" fill="#B5D163"/>
<path d="M20.4004 9.7126L20.425 10.125L21.6134 8.40312L24.0004 4.94493V4.5L21.0458 8.7757L20.4004 9.7126Z" fill="#B5D163"/>
<path d="M12 10.8107C13.6855 11.1872 15.2684 11.4987 16.6003 11.7428C18.6797 12.1216 20.1417 12.3355 20.4 12.375L20.3707 11.6777C20.1545 11.6475 19.3356 11.5266 18.1282 11.3221C16.5838 11.0594 14.4018 10.6573 12.0183 10.125L12 10.8107Z" fill="#B5D163"/>
<path d="M20.4004 10.8303L20.4231 11.25L22.579 8.13188L24.0004 6.07383V5.625L21.8569 8.72485L20.4004 10.8303Z" fill="#546E0D"/>
<path d="M12 9.68853C14.5196 10.251 16.8198 10.6688 18.3839 10.9302C19.4464 11.11 20.1731 11.2173 20.4 11.25L20.3723 10.5521C20.2266 10.5311 19.913 10.4844 19.463 10.4144C18.0298 10.1857 15.2021 9.70721 12.0184 9L12 9.68853Z" fill="#546E0D"/>
<path d="M12 10.8102C12.346 10.8889 12.6883 10.963 13.0234 11.037C13.027 11.0393 13.0307 11.0393 13.0361 11.037C16.902 11.868 20.034 12.3264 20.38 12.375L20.4 12.331L20.3745 11.6829C20.1615 11.6528 18.539 11.4167 16.2428 10.9884C14.9954 10.7569 13.5478 10.4676 12.0182 10.125L12 10.8102Z" fill="#546E0D"/>
<path d="M0 9V9.43101C1.41458 9.65162 3.06237 9.88685 4.8 10.125C3.06045 9.7875 1.41266 9.41201 0 9Z" fill="#B5D163"/>
<path d="M12 11.9338C16.3086 12.9063 19.9748 13.4469 20.3511 13.5L20.4 13.3937L20.3783 12.8162H20.371C20.333 12.8116 16.5348 12.2687 12.0181 11.25L12 11.9338Z" fill="#B5D163"/>
<path d="M20.4004 10.8283L20.4234 11.25L24.0004 6.07794V5.625L22.9578 7.13113L20.4004 10.8283Z" fill="#B5D163"/>
<path d="M1.51954 5.94695C3.37212 6.6358 5.87878 7.2848 8.97027 7.87497L12.0002 3.25797C8.49895 2.48562 5.9365 1.59752 4.69567 1.125C4.49368 1.36411 4.15894 1.45899 3.85883 1.36221L1.2002 4.8539C1.39834 4.94878 1.54455 5.11957 1.60611 5.33021C1.66767 5.54085 1.63689 5.76098 1.51954 5.94695ZM3.76649 4.03791C3.98965 2.93916 5.07465 2.22564 6.18851 2.44577C7.30045 2.6659 8.0257 3.73808 7.80255 4.83492C7.60632 5.79893 6.74448 6.46691 5.78452 6.46691C5.65178 6.46691 5.51519 6.45363 5.38053 6.42706C4.26859 6.20883 3.54334 5.13665 3.76649 4.03791Z" fill="#B5D163"/>
<path d="M19.1644 6.51888C19.3592 5.60696 18.726 4.71612 17.7537 4.53338C17.6357 4.51054 17.5176 4.5 17.3996 4.5C16.5603 4.5 15.8072 5.05523 15.6348 5.85646C15.44 6.76838 16.0732 7.65922 17.0455 7.84195C18.0178 8.02469 18.9695 7.4308 19.1644 6.51888ZM18.0328 5.83538C18.0141 5.94607 17.9729 6.04271 17.9092 6.12529C17.8455 6.20787 17.7537 6.26937 17.6338 6.30978C17.5738 6.33087 17.5083 6.35195 17.4371 6.3748C17.3659 6.39764 17.3153 6.41696 17.2816 6.42926C17.1823 6.46441 17.128 6.51536 17.1167 6.58389C17.1074 6.6366 17.1205 6.6858 17.1542 6.735C17.1879 6.78419 17.2347 6.81231 17.2966 6.82109C17.3546 6.82988 17.409 6.81582 17.4596 6.77892C17.5101 6.74202 17.5401 6.69634 17.5476 6.63836L17.5682 6.51361C17.5701 6.50482 17.5738 6.5013 17.5813 6.5013L17.8998 6.54699C17.9092 6.54874 17.9129 6.55402 17.9111 6.5628L17.8904 6.68755C17.8717 6.80703 17.8155 6.90895 17.7237 6.99329C17.6319 7.07763 17.527 7.12682 17.4052 7.14439L17.3734 7.33416C17.3715 7.34294 17.3659 7.34646 17.3565 7.3447L17.053 7.30077C17.0418 7.29902 17.0362 7.29375 17.038 7.28496L17.0699 7.09168C16.9612 7.04073 16.8788 6.96341 16.8207 6.86326C16.7626 6.76311 16.7439 6.6489 16.7645 6.5259C16.7814 6.41697 16.8245 6.33087 16.89 6.26586C16.9556 6.20085 17.0418 6.15165 17.1448 6.11826L17.4596 6.00932C17.5326 5.98121 17.5851 5.95134 17.6169 5.9162C17.6488 5.88106 17.6694 5.83713 17.6788 5.78266C17.6881 5.72644 17.675 5.67372 17.6413 5.62628C17.6076 5.57884 17.5607 5.55073 17.5026 5.54194C17.4464 5.53316 17.394 5.54546 17.3453 5.57884C17.2966 5.61047 17.2666 5.65791 17.2554 5.72116L17.216 5.9408C17.2141 5.94783 17.2104 5.94958 17.2048 5.94958L16.8844 5.9039C16.8769 5.90214 16.875 5.89863 16.875 5.89336L16.9106 5.67373C16.9294 5.556 16.9837 5.45585 17.0718 5.37502C17.1598 5.2942 17.2628 5.245 17.379 5.22743L17.4108 5.03415C17.4127 5.02536 17.4183 5.02185 17.4296 5.02361L17.7331 5.06753C17.7424 5.06929 17.7462 5.07456 17.7443 5.08335L17.7125 5.27311C17.8211 5.32231 17.9054 5.39787 17.9673 5.49802C18.031 5.60169 18.0516 5.71238 18.0328 5.83538Z" fill="#789C13"/>
<path d="M8.40039 7.37951L11.671 2.25C12.5246 2.43738 13.435 2.61755 14.4004 2.77971L11.1511 7.87498C10.2513 7.72544 9.32497 7.56148 8.40039 7.37951Z" fill="#FFD999"/>
<path d="M0 5.37206C0.868261 5.79712 1.91655 6.18612 3.07361 6.54097C4.27567 6.911 5.59775 7.24687 6.95734 7.54289C7.48242 7.65865 8.01125 7.76871 8.54196 7.87497L8.73512 7.57325C8.16315 7.46129 7.61181 7.34554 7.08486 7.22789C5.62963 6.9091 4.33005 6.57512 3.20113 6.22787C2.5579 6.03052 1.96718 5.82938 1.4346 5.62444L1.37084 5.59977L1.4121 5.54663C1.53774 5.37775 1.57712 5.16522 1.51899 4.96408C1.46085 4.76293 1.31458 4.60354 1.12143 4.52953L1.05767 4.50486L3.75246 0.874786L3.77497 0.844424L3.81247 0.857705C4.08439 0.965868 4.39381 0.874785 4.56821 0.639485L4.59259 0.609123L4.6301 0.624304C4.83451 0.704002 5.07454 0.796983 5.35396 0.899453C6.25598 1.22963 7.54618 1.66228 9.15143 2.10632C9.95968 2.33023 10.8467 2.55794 11.8068 2.77427L12 2.47445C11.0136 2.25433 10.1022 2.02282 9.2752 1.79701C7.6737 1.35677 6.391 0.924121 5.47961 0.588249C4.68261 0.294124 4.17065 0.0778009 3.98687 0L0 5.37206Z" fill="#789C13"/>
<path d="M12 9.28661C15.3347 9.6856 18.2796 9.94949 19.6666 10.0657C20.0175 10.0947 20.2663 10.1149 20.4 10.125L20.3777 9.81818L20.3721 9.72979C19.7743 9.69192 16.1759 9.45707 12.0149 9L12 9.28661Z" fill="#B5D163"/>
<path d="M20.4004 9.67895L20.4044 9.75859L20.4268 10.125L20.8547 9.51257L24.0004 5.00798V4.5L20.4004 9.67895Z" fill="#546E0D"/>
<path d="M12 8.98609C12.8437 9.12696 13.6645 9.25593 14.4434 9.36903C16.066 9.6091 17.5058 9.78966 18.5837 9.91466C19.6236 10.0357 20.3263 10.1051 20.5377 10.125L24 4.1746C22.9335 4.15277 21.8937 4.10317 20.8881 4.02976C19.4236 3.92063 18.0314 3.7619 16.7193 3.56944C16.3003 3.50794 15.8889 3.44246 15.4852 3.375L15.2871 3.69444C15.7194 3.76786 16.1536 3.8373 16.5878 3.90079C17.9743 4.10714 19.3665 4.26388 20.7548 4.36904C21.21 4.40674 21.6632 4.43452 22.1165 4.45833L22.2022 4.46428L22.1584 4.53968C22.0346 4.74999 22.0289 5.00793 22.1393 5.2242C22.2498 5.44047 22.4574 5.57737 22.6935 5.58729L22.7811 5.59126L20.6101 9.31942L20.5929 9.34918L20.5586 9.34521C20.3053 9.31942 20.0578 9.45037 19.9264 9.67656L19.9092 9.70434L19.8749 9.70236C19.555 9.67061 19.1646 9.62696 18.7132 9.57339C17.6277 9.44641 16.1936 9.26982 14.5729 9.02974C13.815 8.91863 13.017 8.7976 12.1962 8.66069L12 8.98609Z" fill="#789C13"/>
<path d="M22.2013 4.11999C19.8385 4.00257 17.4497 3.75038 15.0948 3.375L12 8.00088C15.4071 8.52449 18.4124 8.84983 19.9299 8.99998C20.0871 8.77282 20.3576 8.63999 20.642 8.65539L22.8 5.21149C22.5534 5.17492 22.3406 5.02861 22.2212 4.81108C22.1019 4.59355 22.0959 4.34137 22.2013 4.11999ZM19.745 6.73805C19.5421 7.71597 18.651 8.39359 17.6586 8.39359C17.5213 8.39359 17.3801 8.38012 17.2389 8.35317C16.0893 8.12986 15.3394 7.04221 15.5702 5.92953C15.8009 4.81686 16.9227 4.09112 18.0743 4.31442C18.6312 4.42222 19.1125 4.73408 19.4267 5.19224C19.741 5.6504 19.8564 6.19904 19.745 6.73805Z" fill="#B5D163"/>
<path d="M0 6.75V7.40372C1.08189 7.89789 2.3593 8.38098 3.82292 8.84856C5.18413 9.28733 6.70548 9.71281 8.38138 10.125L8.4 9.47126C5.6869 8.80646 3.37229 8.10398 1.48969 7.3727C0.958989 7.16883 0.461804 6.96052 0 6.75Z" fill="#B5D163"/>
<path d="M12 11.7268C16.1154 12.634 19.6262 13.3492 20.3748 13.5L20.4 13.444L20.3784 12.8895L20.3712 12.9065L20.3388 12.904C20.301 12.8967 16.5113 12.3276 12.0108 11.25L12 11.7268Z" fill="#546E0D"/>
<path d="M0 7.875V8.52737C2.0888 9.4815 4.90747 10.3957 8.38133 11.25L8.3832 11.21L8.4 10.5954C6.95333 10.2404 5.6168 9.87425 4.4016 9.50147C2.69733 8.97559 1.2264 8.43195 0 7.875Z" fill="#546E0D"/>
<path d="M0 7.875V8.52865C2.09111 9.48246 4.90858 10.3962 8.38128 11.25L8.4 10.5963C4.92543 9.74258 2.10234 8.8288 0 7.875Z" fill="#B5D163"/>
<path d="M0 5.625V6.27744C0.347292 6.43668 0.718727 6.59591 1.10688 6.75294C3.04762 7.53366 5.48609 8.28783 8.38143 8.99999L8.4 8.34755C4.92337 7.49385 2.09675 6.57822 0 5.625Z" fill="#546E0D"/>
<path d="M0 9V9.45246C1.81099 10.0234 4.01984 10.5251 6.31314 10.9591C7 11.0576 7.69249 11.1546 8.38311 11.25L8.4 10.8791C4.9244 10.2897 2.1 9.65868 0 9Z" fill="#546E0D"/>
<path d="M8.40039 11.8297C9.56825 12.017 10.7295 12.2001 11.858 12.375L11.9018 11.1907L12.0004 8.45988C10.8698 8.28504 9.70629 8.0873 8.545 7.875L8.45079 10.4747L8.40039 11.8297Z" fill="#E6B767"/>
<path d="M0 6.25823V5.625C2.09583 6.82924 5.22568 7.79574 8.4 8.5445L8.38703 8.99999C4.9088 8.14013 2.08842 7.21806 0 6.25823Z" fill="#B5D163"/>
<path d="M3.63485 3.60646C3.43991 4.51838 4.07346 5.40922 5.04628 5.59195C6.0191 5.77469 6.96943 5.18079 7.16437 4.26887C7.35931 3.35695 6.72576 2.46612 5.75294 2.28338C5.63485 2.26054 5.51676 2.25 5.39867 2.25C4.56081 2.25 3.8073 2.80523 3.63485 3.60646ZM4.767 4.27766C4.78386 4.16872 4.82698 4.08263 4.89258 4.01761C4.95818 3.9526 5.04441 3.9034 5.1475 3.87002L5.4624 3.76108C5.5355 3.73297 5.58799 3.7031 5.61985 3.66796C5.65172 3.63281 5.67234 3.58889 5.68171 3.53442C5.69108 3.47819 5.67796 3.42548 5.64422 3.37804C5.61048 3.3306 5.56362 3.30249 5.50551 3.29546C5.44928 3.28667 5.3968 3.29897 5.34806 3.33236C5.29933 3.36398 5.26934 3.41142 5.25809 3.47468L5.21873 3.69431C5.21685 3.70134 5.2131 3.7031 5.20748 3.7031L4.88696 3.65741C4.87946 3.65566 4.87759 3.65214 4.87759 3.64687L4.9132 3.42724C4.93194 3.30951 4.9863 3.20936 5.0744 3.12854C5.1625 3.04771 5.26559 2.99851 5.3818 2.98094L5.41367 2.78766C5.41554 2.77888 5.42117 2.77536 5.43241 2.77712L5.73607 2.82105C5.74544 2.82281 5.74919 2.82808 5.74731 2.83686L5.71545 3.02663C5.82416 3.07582 5.90851 3.15138 5.97037 3.25153C6.03222 3.35344 6.05097 3.46414 6.03222 3.58713C6.01348 3.69783 5.97224 3.79447 5.90851 3.87705C5.84478 3.95963 5.75294 4.02113 5.63297 4.06154C5.57299 4.08263 5.50739 4.10371 5.43616 4.12655C5.36493 4.14939 5.31432 4.16872 5.28058 4.18102C5.18124 4.21616 5.12688 4.26712 5.11564 4.33564C5.10626 4.38836 5.11939 4.43931 5.15312 4.48675C5.18686 4.53595 5.23372 4.56406 5.29558 4.57285C5.35369 4.58163 5.40804 4.56758 5.45865 4.53068C5.50926 4.49378 5.53925 4.4481 5.54675 4.39011L5.56737 4.26536C5.56924 4.25658 5.57299 4.25306 5.58049 4.25306L5.89914 4.29875C5.90851 4.3005 5.91226 4.30577 5.91039 4.31456L5.88977 4.43931C5.87102 4.55879 5.81479 4.6607 5.72294 4.74504C5.6311 4.82938 5.52613 4.87858 5.4043 4.89615L5.37243 5.08591C5.37056 5.0947 5.36493 5.09821 5.35556 5.09646L5.05191 5.05253C5.04066 5.05077 5.03504 5.0455 5.03691 5.03672L5.06878 4.84344C4.96006 4.79248 4.87759 4.71693 4.81948 4.61502C4.76512 4.51486 4.74638 4.40241 4.767 4.27766Z" fill="#789C13"/>
<path d="M20.4004 13.0707L20.426 13.5L24.0004 8.33797V7.875L20.4004 13.0707Z" fill="#B5D163"/>
<path d="M20.4004 11.9497L20.4257 12.375L24.0004 7.20869V6.75L20.4004 11.9497Z" fill="#546E0D"/>
<path opacity="0.5" d="M14.4004 8.51628C15.911 8.72911 17.2515 8.88917 18.255 8.99998L18.3773 8.70096L20.2763 4.08384L20.4004 3.78306C19.0369 3.68632 17.7408 3.54561 16.5192 3.375L16.3968 3.67049L14.5227 8.21902L14.4004 8.51628Z" fill="#B5D163"/>
<path opacity="0.5" d="M3.59961 6.9036C4.76189 7.26234 6.04023 7.58798 7.35482 7.87497L7.47812 7.56958L9.47812 2.59679L9.59961 2.29691C8.05111 1.87009 6.81085 1.45063 5.92962 1.125L5.80632 1.42672L3.72291 6.5982L3.59961 6.9036Z" fill="#B5D163"/>
<path opacity="0.5" d="M23.9996 7.875L21.5996 11.25L23.9996 7.94063V7.875Z" fill="#546E0D"/>
<path opacity="0.5" d="M24.0004 7.875L20.4004 13.0707L20.426 13.5L24.0004 8.33797V7.875Z" fill="#546E0D"/>
<path opacity="0.5" d="M24.0004 6.75L20.4004 11.9497L20.4257 12.375L24.0004 7.20869V6.75Z" fill="#546E0D"/>
<path opacity="0.5" d="M22.9599 8.08581L20.4004 11.9361L20.4234 12.375L24.0004 6.99148V6.75C23.7058 7.2253 23.3548 7.67184 22.9599 8.08581Z" fill="#546E0D"/>
<path opacity="0.5" d="M22.0049 8.5172L20.4004 10.7975L20.4255 11.25L22.8004 7.875C22.5474 8.10026 22.283 8.31564 22.0049 8.5172Z" fill="#546E0D"/>
<path opacity="0.5" d="M21.0409 9.48923L20.4004 10.7111L20.4247 11.25L21.6004 9C21.42 9.17489 21.2335 9.3356 21.0409 9.48923Z" fill="#546E0D"/>
<path opacity="0.5" d="M18 10.8195C19.2648 11.0614 20.1299 11.206 20.4 11.25L20.3671 10.3104C20.1936 10.2821 19.8203 10.2193 19.2845 10.125C18.8651 10.3921 18.4348 10.6246 18 10.8195Z" fill="#546E0D"/>
<path opacity="0.5" d="M16.7998 11.6995C18.7699 12.1043 20.1551 12.3328 20.3998 12.375L20.372 11.63C20.1672 11.5977 19.3913 11.4685 18.2474 11.25C17.7701 11.4487 17.2876 11.5952 16.7998 11.6995Z" fill="#546E0D"/>
<path opacity="0.5" d="M20.3806 12.375L20.4002 12.3393L20.3753 11.8134C20.167 11.789 18.5806 11.5975 16.3355 11.25C15.3011 11.3871 14.2506 11.3909 13.2002 11.2894C16.9782 11.9637 20.0406 12.3374 20.3806 12.375Z" fill="#546E0D"/>
<path opacity="0.5" d="M20.3511 13.5L20.4 13.3937L20.3783 12.8162H20.371C20.333 12.8116 16.5348 12.2687 12.0181 11.25L12 11.9338C16.3104 12.9086 19.9766 13.4469 20.3511 13.5Z" fill="#546E0D"/>
<path opacity="0.5" d="M12.0126 11.25L12 11.7268C16.1154 12.634 19.6262 13.3492 20.3748 13.5L20.4 13.444L20.3784 12.8895L20.3712 12.9065L20.3388 12.904C20.3028 12.8943 16.5131 12.3276 12.0126 11.25Z" fill="#546E0D"/>
<path opacity="0.5" d="M8.45221 10.125L8.40039 11.7293C9.60114 11.9511 10.7951 12.168 11.9553 12.375L12.0004 10.9728C10.8019 10.7731 9.61691 10.4799 8.45221 10.125Z" fill="#546E0D"/>
<path opacity="0.5" d="M0 6.75V7.26266C0.37651 7.46772 0.779195 7.67278 1.2 7.875C0.793289 7.51898 0.392617 7.14304 0 6.75Z" fill="#546E0D"/>
<path opacity="0.5" d="M1.40282 7.41763C0.903069 7.19905 0.433122 6.97571 0 6.75V7.45089C1.0188 7.98072 2.22172 8.49867 3.6 8.99999C2.84949 8.52481 2.11476 7.99735 1.40282 7.41763Z" fill="#546E0D"/>
<path opacity="0.5" d="M4.40855 9.49925C2.70274 8.97337 1.22886 8.43195 0 7.875V8.52737C2.09299 9.48151 4.9173 10.3957 8.39813 11.25L8.4 11.21C8.37568 11.2034 8.3495 11.1945 8.32331 11.1856C6.98971 10.7241 5.67856 10.1671 4.40855 9.49925Z" fill="#546E0D"/>
<path opacity="0.5" d="M8.4 10.5963C4.92543 9.74258 2.10234 8.8288 0 7.875V8.52865C2.09111 9.48246 4.90858 10.3962 8.38128 11.25L8.4 10.5963Z" fill="#546E0D"/>
<path opacity="0.5" d="M8.4 10.8776C4.92362 10.2881 2.10047 9.65715 0 9V9.45246C1.8114 10.0234 4.02074 10.5251 6.31455 10.9591C7.00156 11.0576 7.69421 11.1546 8.38498 11.25L8.4 10.8776Z" fill="#546E0D"/>
<path opacity="0.5" d="M4.8 10.125C3.06045 9.7875 1.41266 9.41201 0 9V9.43101C1.41458 9.65308 3.06237 9.88831 4.8 10.125Z" fill="#546E0D"/>
<path d="M0 5.45654L0.0535345 5.48192V10.0973L0.134759 10.1136C2.5235 10.594 5.61372 11.1342 8.66333 11.6382C14.2346 12.7603 19.66 13.3857 20.308 13.4583C20.4427 13.4782 20.5203 13.4891 20.5295 13.4909L20.596 13.4999L23.9225 8.24463V3.88846L24 3.76338L23.8228 3.76157C12.359 3.58391 4.32521 0.068888 4.24583 0.0326319L4.17199 0L4.12399 0.0634492L0 5.45654ZM0.254749 8.76128C2.32044 9.53535 5.09868 10.2804 8.51565 10.9747L8.50088 11.4116C7.81971 11.2992 7.13853 11.185 6.46473 11.069C4.21075 10.5578 2.03615 9.96498 0.254749 9.29424V8.76128ZM20.6218 12.9307L20.5996 12.5174L23.7194 7.4905V7.94008L20.6218 12.9307ZM20.2434 9.58792L20.2729 10.1553C19.6194 10.081 16.0732 9.66949 11.9215 8.94981L11.9363 8.5383C16.0732 9.19635 19.6508 9.53535 20.2434 9.58792ZM11.9179 9.05314C16.1028 9.77645 19.6693 10.1898 20.2784 10.2587L20.3061 10.8007C19.7431 10.7372 16.1323 10.3221 11.8994 9.58792L11.9179 9.05314ZM11.8735 10.3239C16.2818 11.0871 20.0126 11.5077 20.3467 11.5439L20.3726 12.0497L20.3523 12.0841C19.9702 12.0424 16.2431 11.6201 11.8551 10.8587L11.8735 10.3239ZM23.7194 6.66024L20.559 11.7506L20.5369 11.3373L23.7176 6.21248V6.66024H23.7194ZM23.7194 6.02032L20.5295 11.1596L20.5073 10.7463L23.7194 5.57074V6.02032ZM20.476 10.1553L23.7194 4.93082V5.3804L20.4981 10.5705L20.476 10.1553ZM23.7194 7.30016L20.5904 12.3416L20.5683 11.9282L23.7194 6.8524V7.30016ZM20.404 12.6407L20.3523 12.7241C19.9702 12.6824 16.2301 12.26 11.8329 11.495L11.8514 10.9602C16.4572 11.7597 20.3338 12.1839 20.3726 12.1875H20.38L20.404 12.6407ZM11.8772 10.2242L11.8957 9.68943C16.1729 10.4309 19.8096 10.846 20.3117 10.9022L20.3394 11.446C19.9148 11.3971 16.2227 10.9783 11.8772 10.2242ZM20.4427 9.52266L23.7194 4.21658V4.73867L20.4667 9.97767L20.4427 9.52266ZM20.4335 13.2317L20.4077 13.2733C19.6416 13.161 16.0382 12.6262 11.8163 11.9518L11.8292 11.5965C16.4461 12.3978 20.3338 12.8238 20.3726 12.8274L20.404 12.831L20.4114 12.8183L20.4335 13.2317ZM8.7021 11.446L8.82394 7.9999C9.80232 8.18662 10.7826 8.35521 11.7351 8.5093L11.6151 11.9192C10.6644 11.7669 9.68602 11.6074 8.7021 11.446ZM0.254749 8.12136C2.32597 8.89724 5.11161 9.64412 8.5378 10.3384L8.51934 10.8732C5.09499 10.1771 2.3149 9.43202 0.254749 8.65432V8.12136ZM0.254749 7.48144C2.33151 8.25913 5.12453 9.00782 8.55996 9.70394L8.5415 10.2387C5.10791 9.54078 2.32044 8.79391 0.254749 8.01622V7.48144ZM0.254749 6.84152C2.3352 7.62103 5.1356 8.36971 8.58395 9.06764L8.56549 9.60242C5.12268 8.90449 2.32782 8.1558 0.256596 7.37449V6.84152H0.254749ZM0.254749 6.2016C2.34074 6.98292 5.14668 7.73342 8.60611 8.43316L8.58765 8.96794C5.13376 8.2682 2.33151 7.5177 0.254749 6.73638V6.2016ZM0.254749 5.578C2.34259 6.56054 5.4605 7.3491 8.62272 7.96002L8.6098 8.33165C5.14483 7.63009 2.3352 6.87959 0.254749 6.09465V5.578ZM12.1228 2.61406L11.9345 2.90049C8.52857 2.15542 6.04753 1.29434 4.86793 0.846579L4.83286 0.833891L4.80886 0.864708C4.63718 1.0895 4.3289 1.17651 4.06307 1.07499L4.028 1.0623L4.004 1.09312L1.34943 4.55739L1.4122 4.58095C1.60418 4.65165 1.74633 4.80393 1.80171 4.99609C1.85709 5.18824 1.82017 5.39128 1.69833 5.55081L1.65772 5.60338L1.72048 5.62694C3.50188 6.29224 5.92016 6.91947 8.90701 7.48869L8.71687 7.77693C5.53434 7.1642 2.39243 6.372 0.308284 5.38403L4.2366 0.248356C4.72948 0.456828 7.61849 1.63696 12.1228 2.61406ZM1.89955 4.96889C1.84047 4.76767 1.70018 4.60452 1.51004 4.51388L4.06123 1.17651C4.3492 1.26896 4.67041 1.17832 4.86424 0.94991C6.05492 1.4013 8.51381 2.24969 11.8735 2.9875L8.96608 7.39805C5.99954 6.83427 3.59418 6.21429 1.81648 5.55624C1.92908 5.3804 1.95862 5.17012 1.89955 4.96889ZM15.1724 3.19053L11.7923 8.31714C10.8564 8.16668 9.89278 8.00171 8.931 7.81862L12.3332 2.65757C13.2211 2.84791 14.1681 3.02738 15.1724 3.19053ZM21.7516 4.96527C21.8623 5.17011 22.0598 5.30608 22.2887 5.34233L20.2858 8.58544C20.0218 8.56912 19.7708 8.69602 19.625 8.90993C18.2146 8.76853 15.4253 8.46398 12.2649 7.96908L15.1373 3.61292C17.3211 3.96642 19.54 4.20389 21.7331 4.31447C21.6334 4.52113 21.6389 4.75861 21.7516 4.96527ZM23.6419 3.95916L20.2858 9.39395C19.7689 9.34681 16.1766 9.01145 12.0102 8.3534L12.204 8.05972C15.4105 8.56187 18.2386 8.87005 19.6453 9.01145L19.6766 9.01507L19.6933 8.98788C19.8206 8.78122 20.0625 8.66157 20.308 8.68695L20.3394 8.69058L20.356 8.66339L22.4604 5.25713L22.3755 5.2535C22.1484 5.24263 21.9472 5.11936 21.8402 4.92176C21.7331 4.72235 21.7386 4.49031 21.8568 4.29634L21.9011 4.22564L21.8162 4.22202C19.6157 4.11325 17.3894 3.87759 15.1964 3.52409L15.3902 3.23223C17.8454 3.61654 20.6236 3.90296 23.6419 3.95916ZM21.8088 11.2067L23.7176 8.13042V8.19025L21.8088 11.2067ZM0.254749 9.4012C1.61895 9.91241 3.21021 10.3783 4.89008 10.7971C3.21206 10.5034 1.6208 10.2097 0.254749 9.93598V9.4012Z" fill="#084900"/>
<path d="M17.8809 6.69296C17.8211 6.77298 17.735 6.83257 17.6226 6.87173C17.5664 6.89216 17.5049 6.91259 17.4381 6.93473C17.3714 6.95686 17.3239 6.97559 17.2923 6.98751C17.1992 7.02156 17.1482 7.07094 17.1377 7.13734C17.1289 7.18842 17.1412 7.23609 17.1728 7.28376C17.2045 7.33144 17.2484 7.35868 17.3064 7.36719C17.3608 7.3757 17.4118 7.36208 17.4592 7.32633C17.5066 7.29057 17.5347 7.2463 17.5418 7.19012L17.5611 7.06924C17.5629 7.06072 17.5664 7.05732 17.5734 7.05732L17.8721 7.10158C17.8809 7.10329 17.8844 7.1084 17.8826 7.11691L17.8633 7.23779C17.8457 7.35357 17.793 7.45232 17.7069 7.53405C17.6208 7.61577 17.5225 7.66344 17.4083 7.68047L17.3784 7.86435C17.3766 7.87286 17.3714 7.87627 17.3626 7.87457L17.078 7.832C17.0674 7.8303 17.0621 7.82519 17.0639 7.81668L17.0938 7.62939C16.9919 7.58002 16.9146 7.5051 16.8601 7.40805C16.8056 7.311 16.7881 7.20033 16.8074 7.08115C16.8232 6.97559 16.8636 6.89216 16.9251 6.82917C16.9866 6.76617 17.0674 6.7185 17.164 6.68615L17.4592 6.58059C17.5277 6.55334 17.5769 6.5244 17.6068 6.49035C17.6366 6.4563 17.656 6.41373 17.6648 6.36095C17.6735 6.30647 17.6612 6.25539 17.6296 6.20942C17.598 6.16345 17.5541 6.13621 17.4996 6.1277C17.4469 6.11918 17.3977 6.1311 17.352 6.16345C17.3064 6.1941 17.2782 6.24007 17.2677 6.30136L17.2308 6.51418C17.229 6.521 17.2255 6.5227 17.2203 6.5227L16.9198 6.47843C16.9128 6.47673 16.9111 6.47332 16.9111 6.46822L16.9444 6.25539C16.962 6.14132 17.013 6.04427 17.0955 5.96595C17.1781 5.88763 17.2747 5.83995 17.3837 5.82293L17.4135 5.63564C17.4153 5.62713 17.4206 5.62372 17.4311 5.62543L17.7157 5.66799C17.7245 5.66969 17.728 5.6748 17.7262 5.68332L17.6964 5.8672C17.7983 5.91487 17.8773 5.98808 17.9353 6.08513C17.9933 6.18388 18.0109 6.29114 17.9933 6.41033C17.981 6.51929 17.9423 6.61294 17.8809 6.69296Z" fill="#084900"/>
<path d="M19.164 6.52024C19.2582 6.07865 19.164 5.62759 18.8966 5.25224C18.6291 4.87689 18.2237 4.6214 17.7527 4.53308C16.7788 4.35013 15.83 4.9447 15.6349 5.85628C15.4398 6.76943 16.0739 7.65892 17.0462 7.84187C17.1656 7.86395 17.2834 7.87498 17.4011 7.87498C18.2405 7.87656 18.9925 7.32142 19.164 6.52024ZM18.9841 6.48712C18.8091 7.30565 17.9546 7.83871 17.0832 7.67469C16.2102 7.51067 15.6416 6.71107 15.8166 5.89255C15.9696 5.17339 16.6459 4.67502 17.4011 4.67502C17.5054 4.67502 17.6114 4.68448 17.7191 4.70498C18.5904 4.86742 19.159 5.66702 18.9841 6.48712Z" fill="#084900"/>
<path d="M4.92825 4.57837C4.98956 4.51533 5.07014 4.46762 5.16648 4.43525L5.46078 4.32961C5.5291 4.30234 5.57815 4.27338 5.60793 4.2393C5.63771 4.20522 5.65698 4.16262 5.66574 4.1098C5.6745 4.05528 5.66223 4.00416 5.6307 3.95816C5.59917 3.91215 5.55538 3.88489 5.50107 3.87807C5.44852 3.86955 5.39947 3.88148 5.35392 3.91386C5.30838 3.94453 5.28035 3.99053 5.26984 4.05187L5.23305 4.26486C5.2313 4.27167 5.2278 4.27338 5.22254 4.27338L4.92299 4.22908C4.91598 4.22737 4.91423 4.22396 4.91423 4.21885L4.94751 4.00587C4.96503 3.89171 5.01583 3.79458 5.09817 3.7162C5.1805 3.63783 5.27685 3.59012 5.38545 3.57308L5.41524 3.38565C5.41699 3.37713 5.42224 3.37372 5.43275 3.37543L5.71654 3.41802C5.7253 3.41973 5.7288 3.42484 5.72705 3.43336L5.69727 3.61738C5.79887 3.66509 5.8777 3.73835 5.93551 3.83548C5.99332 3.9343 6.01083 4.04165 5.99332 4.16092C5.9758 4.26827 5.93726 4.36198 5.8777 4.44206C5.81814 4.52215 5.7323 4.58178 5.62019 4.62097C5.56413 4.64142 5.50282 4.66186 5.43626 4.68402C5.36969 4.70617 5.32239 4.72491 5.29086 4.73684C5.19802 4.77091 5.14722 4.82033 5.13671 4.88678C5.12795 4.9379 5.14021 4.98731 5.17174 5.03331C5.20327 5.08102 5.24707 5.10829 5.30487 5.11681C5.35918 5.12533 5.40998 5.11169 5.45728 5.07591C5.50458 5.04013 5.5326 4.99583 5.53961 4.9396L5.55888 4.81862C5.56063 4.81011 5.56414 4.8067 5.57114 4.8067L5.86894 4.851C5.8777 4.8527 5.8812 4.85781 5.87945 4.86633L5.86018 4.98731C5.84267 5.10317 5.79011 5.202 5.70427 5.28379C5.61844 5.36557 5.52034 5.41328 5.40648 5.43032L5.3767 5.61434C5.37494 5.62286 5.36969 5.62627 5.36093 5.62457L5.07715 5.58197C5.06664 5.58026 5.06138 5.57515 5.06313 5.56663L5.09291 5.3792C4.99131 5.32979 4.91423 5.25652 4.85993 5.1577C4.80562 5.06058 4.78811 4.94982 4.80737 4.83055C4.82664 4.72491 4.86693 4.64142 4.92825 4.57837Z" fill="#084900"/>
<path d="M3.63489 3.60628C3.43975 4.51943 4.07397 5.40892 5.04633 5.59187C5.16577 5.61395 5.28353 5.62499 5.39961 5.62499C6.23907 5.62499 6.99273 5.06984 7.16433 4.26867C7.35947 3.35552 6.72525 2.46602 5.75289 2.28308C4.77885 2.10013 3.83004 2.6947 3.63489 3.60628ZM3.8149 3.64097C3.96798 2.92181 4.64426 2.42344 5.39961 2.42344C5.50391 2.42344 5.6099 2.4329 5.71756 2.45341C6.59067 2.61743 7.15928 3.41702 6.98432 4.23555C6.80936 5.05407 5.95476 5.58714 5.08334 5.42312C4.20855 5.2591 3.64162 4.4595 3.8149 3.64097Z" fill="#084900"/>
</svg>
