<svg width="12" height="15" viewBox="0 0 12 15" fill="none" xmlns="http://www.w3.org/2000/svg">
<path fill-rule="evenodd" clip-rule="evenodd" d="M6.44774 14.5923L6.43948 14.5938L6.38617 14.6195L6.37116 14.6224L6.36064 14.6195L6.30734 14.5938C6.29933 14.5914 6.29332 14.5926 6.28932 14.5975L6.28631 14.6048L6.27355 14.9187L6.2773 14.9334L6.28481 14.9429L6.3629 14.9972L6.37416 15.0001L6.38317 14.9972L6.46125 14.9429L6.47026 14.9312L6.47327 14.9187L6.4605 14.6055C6.4585 14.5977 6.45425 14.5933 6.44774 14.5923ZM6.6467 14.5094L6.63694 14.5109L6.49804 14.5791L6.49053 14.5865L6.48828 14.5945L6.5018 14.9099L6.50555 14.9187L6.51156 14.9239L6.66247 14.9921C6.67198 14.9945 6.67924 14.9926 6.68424 14.9862L6.68725 14.9759L6.66172 14.5256C6.65922 14.5168 6.65421 14.5114 6.6467 14.5094ZM6.10987 14.5109C6.10657 14.509 6.10261 14.5083 6.09883 14.5091C6.09506 14.51 6.09175 14.5122 6.0896 14.5153L6.0851 14.5256L6.05957 14.9759C6.06007 14.9847 6.06433 14.9906 6.07233 14.9935L6.0836 14.9921L6.23451 14.9239L6.24202 14.918L6.24502 14.9099L6.25778 14.5945L6.25553 14.5857L6.24802 14.5784L6.10987 14.5109Z" fill="#FFA329"/>
<path fill-rule="evenodd" clip-rule="evenodd" d="M3.06252 0.450474C3.18415 0.176436 3.45519 0 3.75551 0H9.74471C10.3078 0 10.675 0.593125 10.4227 1.09766L8.71911 4.50475H11.2403C11.916 4.50475 12.2539 5.32161 11.7764 5.79911L2.80199 14.7733C2.23588 15.3394 1.29286 14.7568 1.54664 13.9977L3.4597 8.2587H0.758288C0.63196 8.25869 0.507636 8.22713 0.396605 8.16687C0.285575 8.10662 0.191358 8.01958 0.122511 7.91366C0.0536643 7.80775 0.0123689 7.68631 0.00237628 7.56038C-0.00761634 7.43445 0.0140103 7.30802 0.0652917 7.19258L3.06252 0.450474Z" fill="#FFA329"/>
</svg>
