<svg width="12" height="15" viewBox="0 0 12 15" fill="none" xmlns="http://www.w3.org/2000/svg">
<path fill-rule="evenodd" clip-rule="evenodd" d="M3.06252 0.450474C3.18415 0.176436 3.45519 0 3.75551 0H9.74471C10.3078 0 10.675 0.593125 10.4227 1.09766L8.71911 4.50475H11.2403C11.916 4.50475 12.2539 5.32161 11.7764 5.79911L2.80199 14.7733C2.23588 15.3394 1.29286 14.7568 1.54664 13.9977L3.4597 8.2587H0.758288C0.63196 8.25869 0.507636 8.22713 0.396605 8.16687C0.285575 8.10662 0.191358 8.01958 0.122511 7.91366C0.0536643 7.80775 0.0123689 7.68631 0.00237628 7.56038C-0.00761634 7.43445 0.0140103 7.30802 0.0652917 7.19258L3.06252 0.450474Z" fill="white"/>
</svg>
