<svg width="20" height="22" viewBox="0 0 20 22" fill="none" xmlns="http://www.w3.org/2000/svg">
<path d="M3.23882 10.4521C3.23882 11.8187 3.56877 13.0889 4.22866 14.2626C4.88855 15.4363 5.78466 16.3768 6.91697 17.0843C7.13424 17.229 7.28571 17.4261 7.37138 17.6756C7.45705 17.9251 7.43749 18.1621 7.31272 18.3866C7.18856 18.6277 6.9986 18.7847 6.74284 18.8573C6.48707 18.93 6.24248 18.9017 6.00907 18.7724C4.56575 17.9042 3.43282 16.7305 2.61028 15.2514C1.78774 13.7722 1.37647 12.1725 1.37647 10.4521C1.37647 10.0341 1.40378 9.6241 1.45841 9.22216C1.51304 8.82021 1.5866 8.41826 1.6791 8.01631L1.37647 8.20925C1.15919 8.35395 0.926401 8.39029 0.678087 8.31826C0.429774 8.24623 0.243538 8.09735 0.119382 7.87161C-0.00477526 7.64588 -0.0320898 7.40053 0.037438 7.13556C0.106966 6.8706 0.250677 6.67381 0.468572 6.54518L3.28538 4.857C3.50265 4.72838 3.73948 4.7004 3.99587 4.77308C4.25225 4.84575 4.44221 4.99431 4.56575 5.21876L6.1953 8.11278C6.31946 8.33787 6.34678 8.58322 6.27725 8.84883C6.20772 9.11444 6.06401 9.31123 5.84611 9.43921C5.62822 9.56719 5.3917 9.59549 5.13656 9.5241C4.88142 9.45271 4.69115 9.30383 4.56575 9.07746L3.77425 7.65456C3.60353 8.10474 3.47162 8.56296 3.3785 9.02922C3.28538 9.49548 3.23882 9.96978 3.23882 10.4521ZM10.6882 2.7106C10.0519 2.7106 9.42338 2.79517 8.8026 2.96431C8.18181 3.13345 7.59207 3.37848 7.03336 3.69939C6.80057 3.82802 6.55629 3.87239 6.30053 3.83252C6.04476 3.79264 5.85449 3.65984 5.72972 3.43411C5.59004 3.17686 5.559 2.91575 5.6366 2.65079C5.7142 2.38583 5.87715 2.18067 6.12547 2.03533C6.82385 1.6173 7.5573 1.30378 8.32584 1.09477C9.09437 0.885757 9.88183 0.78125 10.6882 0.78125C11.9143 0.78125 13.09 1.01856 14.2155 1.49318C15.341 1.9678 16.3457 2.65497 17.2297 3.55469V3.19294C17.2297 2.91961 17.3191 2.69066 17.4979 2.50609C17.6767 2.32151 17.8977 2.22891 18.1609 2.22826C18.4241 2.22762 18.6454 2.32023 18.8248 2.50609C19.0043 2.69195 19.0933 2.9209 19.0921 3.19294V6.5693C19.0921 6.84263 19.003 7.0719 18.8248 7.25711C18.6467 7.44233 18.4254 7.53462 18.1609 7.53398H14.9018C14.638 7.53398 14.417 7.44137 14.2388 7.25615C14.0606 7.07093 13.9712 6.84198 13.9706 6.5693C13.97 6.29662 14.0594 6.06767 14.2388 5.88245C14.4182 5.69723 14.6392 5.60463 14.9018 5.60463H16.5081C15.7942 4.68818 14.9328 3.9769 13.9241 3.47076C12.9153 2.96463 11.8367 2.71124 10.6882 2.7106ZM16.3218 15.5167C16.9116 14.8092 17.3617 14.0295 17.672 13.1773C17.9824 12.3252 18.1376 11.4329 18.1376 10.5004C18.1376 10.227 18.227 9.98586 18.4058 9.77684C18.5846 9.56783 18.8056 9.46333 19.0688 9.46333C19.332 9.46333 19.5533 9.56783 19.7327 9.77684C19.9121 9.98586 20.0012 10.227 20 10.5004C20 11.5454 19.8408 12.5541 19.5223 13.5265C19.2038 14.4989 18.7423 15.4035 18.1376 16.2402C17.533 17.0769 16.8154 17.7923 15.9848 18.3866C15.1541 18.9808 14.25 19.423 13.2722 19.713L13.505 19.8577C13.7223 19.9863 13.862 20.1834 13.9241 20.449C13.9861 20.7147 13.9551 20.9597 13.8309 21.1841C13.7068 21.4086 13.5206 21.5533 13.2722 21.6182C13.0239 21.6832 12.7911 21.651 12.5739 21.5218L9.73377 19.8336C9.5165 19.705 9.3731 19.5078 9.30357 19.2422C9.23404 18.9766 9.26105 18.7316 9.38458 18.5072L11.0141 15.589C11.1383 15.3639 11.3245 15.2192 11.5728 15.1549C11.8212 15.0906 12.054 15.1228 12.2712 15.2514C12.4885 15.38 12.6322 15.5771 12.7024 15.8427C12.7725 16.1083 12.7452 16.3534 12.6204 16.5778L11.7591 18.0972C12.6437 17.9685 13.478 17.683 14.2621 17.2405C15.0461 16.7981 15.7327 16.2234 16.3218 15.5167Z" fill="#0C46BE"/>
</svg>
