<svg width="325" height="325" viewBox="0 0 325 325" fill="none" xmlns="http://www.w3.org/2000/svg">
<path d="M162.5 325C252.246 325 325 252.246 325 162.5C325 72.7537 252.246 0 162.5 0C72.7537 0 0 72.7537 0 162.5C0 252.246 72.7537 325 162.5 325Z" fill="white"/>
<path d="M163 315C246.947 315 315 246.947 315 163C315 79.0527 246.947 11 163 11C79.0527 11 11 79.0527 11 163C11 246.947 79.0527 315 163 315Z" fill="#8ABBFD"/>
<path d="M166 5.5C166 7.43892 164.429 9 162.5 9C160.561 9 159 7.42898 159 5.5C159 3.56108 160.571 2 162.5 2C164.429 2 166 3.57102 166 5.5Z" fill="#0C54EA"/>
<path d="M166 319.5C166 321.439 164.429 323 162.5 323C160.561 323 159 321.429 159 319.5C159 317.561 160.571 316 162.5 316C164.429 316 166 317.571 166 319.5Z" fill="#0C54EA"/>
<path d="M5.5 159C7.43892 159 9 160.571 9 162.5C9 164.439 7.42898 166 5.5 166C3.56108 166 2 164.429 2 162.5C2 160.561 3.56108 159 5.5 159Z" fill="#0C54EA"/>
<path d="M319.5 159C321.439 159 323 160.571 323 162.5C323 164.439 321.429 166 319.5 166C317.561 166 316 164.429 316 162.5C316 160.561 317.561 159 319.5 159Z" fill="#0C54EA"/>
<path d="M16.1634 219.265C17.9522 218.53 19.9993 219.375 20.7347 221.163C21.4701 222.952 20.6254 224.999 18.8366 225.735C17.0478 226.47 15.0007 225.625 14.2653 223.837C13.5299 222.048 14.3746 220.001 16.1634 219.265Z" fill="#0C54EA"/>
<path d="M306.163 99.2653C307.952 98.5299 309.999 99.3746 310.735 101.163C311.47 102.952 310.625 104.999 308.837 105.735C307.048 106.47 305.001 105.625 304.265 103.837C303.53 102.058 304.375 100.011 306.163 99.2653Z" fill="#0C54EA"/>
<path d="M308.837 219.265C307.048 218.53 305.001 219.375 304.265 221.163C303.53 222.952 304.375 224.999 306.163 225.735C307.952 226.47 309.999 225.625 310.735 223.837C311.47 222.048 310.625 220.001 308.837 219.265Z" fill="#0C54EA"/>
<path d="M18.8375 99.2653C17.0484 98.5299 15.0009 99.3746 14.2654 101.163C13.5299 102.952 14.3747 104.999 16.1638 105.735C17.9529 106.47 20.0004 105.625 20.736 103.837C21.4715 102.058 20.6167 100.011 18.8375 99.2653Z" fill="#0C54EA"/>
<path d="M49.0277 271.028C50.3979 269.657 52.6121 269.657 53.9723 271.028C55.3426 272.398 55.3426 274.612 53.9723 275.972C52.6021 277.343 50.3879 277.343 49.0277 275.972C47.6574 274.602 47.6574 272.388 49.0277 271.028Z" fill="#0C54EA"/>
<path d="M271.021 49.0277C272.393 47.6574 274.61 47.6574 275.971 49.0277C277.343 50.3979 277.343 52.6121 275.971 53.9723C274.6 55.3426 272.383 55.3426 271.021 53.9723C269.66 52.6121 269.66 50.3979 271.021 49.0277Z" fill="#0C54EA"/>
<path d="M99.2653 306.163C100.001 304.375 102.048 303.53 103.837 304.265C105.625 305.001 106.47 307.058 105.735 308.837C104.999 310.625 102.942 311.47 101.163 310.735C99.3746 309.999 98.5299 307.952 99.2653 306.163Z" fill="#0C54EA"/>
<path d="M219.265 16.1634C220.001 14.3746 222.058 13.5299 223.837 14.2653C225.625 15.0007 226.47 17.0578 225.735 18.8366C224.999 20.6254 222.952 21.4701 221.163 20.7347C219.375 19.9993 218.53 17.9522 219.265 16.1634Z" fill="#0C54EA"/>
<path d="M275.972 271.028C274.602 269.657 272.388 269.657 271.028 271.028C269.657 272.398 269.657 274.612 271.028 275.972C272.398 277.343 274.612 277.343 275.972 275.972C277.343 274.612 277.343 272.398 275.972 271.028Z" fill="#0C54EA"/>
<path d="M53.9787 49.0277C52.607 47.6574 50.3905 47.6574 49.0288 49.0277C47.6571 50.3979 47.6571 52.6121 49.0288 53.9723C50.4004 55.3426 52.617 55.3426 53.9787 53.9723C55.3404 52.6021 55.3404 50.3879 53.9787 49.0277Z" fill="#0C54EA"/>
<path d="M225.735 305.163C224.999 303.375 222.952 302.53 221.163 303.265C219.375 304.001 218.53 306.058 219.265 307.837C220.001 309.625 222.058 310.47 223.837 309.735C225.625 308.999 226.47 306.952 225.735 305.163Z" fill="#0C54EA"/>
<path d="M105.731 15.1634C104.996 13.3746 102.94 12.5299 101.162 13.2653C99.3744 14.0007 98.5302 16.0478 99.2652 17.8366C100 19.6254 102.046 20.4701 103.834 19.7347C105.621 18.9993 106.476 16.9522 105.731 15.1634Z" fill="#0C54EA"/>
<path d="M162 163V29C193.455 29 223.904 40.0998 248 60.35L162 163Z" fill="#0C46BE"/>
<path d="M162 162L247.504 60C271.461 80.122 287.569 108.05 293 138.878L162 162Z" fill="#0C54EA"/>
<path d="M162 162.2L293.964 139C299.435 169.933 293.799 201.798 278.047 229L162 162.2Z" fill="white"/>
<path d="M162 162L278 228.511C262.255 255.595 237.404 276.304 207.812 287L162 162Z" fill="#0C54EA"/>
<path d="M162.5 162L208 287.919C178.61 298.694 146.39 298.694 117 287.919L162.5 162Z" fill="white"/>
<path d="M163 162L117.188 287C87.5963 276.304 62.7454 255.595 47 228.511L163 162Z" fill="#0C54EA"/>
<path d="M163 162.2L46.9528 229C31.201 201.798 25.5655 169.933 31.036 139L163 162.2Z" fill="white"/>
<path d="M162 162L31 138.878C36.4306 108.05 52.5389 80.122 76.4958 60L162 162Z" fill="#0C54EA"/>
<path d="M163 163L77 60.35C101.096 40.0998 131.545 29 163 29V163Z" fill="white"/>
<path d="M84.0106 234.072C84.2085 233.877 84.4406 233.788 84.7068 233.806C84.9636 233.814 85.1903 233.918 85.3866 234.117L86.635 235.384L86.0161 235.377C86.6554 234.783 87.2928 234.323 87.9282 233.995C88.5545 233.676 89.1323 233.452 89.6615 233.322C89.9263 233.267 90.165 233.284 90.3776 233.374C90.5995 233.473 90.7809 233.612 90.9219 233.791C91.0629 233.97 91.1445 234.161 91.1668 234.363C91.1894 234.584 91.1428 234.78 91.0269 234.95C90.9204 235.13 90.7166 235.257 90.4155 235.329C90.014 235.426 89.5407 235.603 88.9956 235.861C88.451 236.136 87.8908 236.558 87.3151 237.127C86.8653 237.571 86.5571 237.987 86.3905 238.376C86.2238 238.765 86.1757 239.122 86.2462 239.445C86.3076 239.777 86.4646 240.072 86.717 240.328C86.9228 240.536 87.1454 240.672 87.385 240.735C87.6339 240.808 87.9179 240.799 88.237 240.708C88.5655 240.627 88.9425 240.452 89.3681 240.181L91.121 239.097C92.1266 238.478 93.0515 238.192 93.8958 238.238C94.7401 238.285 95.5176 238.668 96.2283 239.389C96.78 239.949 97.1405 240.575 97.3097 241.269C97.4884 241.972 97.4747 242.688 97.2688 243.415C97.0629 244.142 96.6685 244.84 96.0856 245.509L96.145 245.03L97.3233 246.225C97.5196 246.424 97.6203 246.652 97.6253 246.909C97.6396 247.176 97.5478 247.407 97.35 247.602C97.1611 247.789 96.9335 247.873 96.6673 247.855C96.4015 247.855 96.1703 247.756 95.974 247.557L94.7957 246.362L95.3035 246.31C94.9074 246.682 94.4051 247.019 93.7967 247.32C93.1794 247.63 92.5687 247.811 91.9647 247.865C91.7175 247.884 91.4967 247.84 91.3021 247.733C91.1168 247.635 90.9721 247.497 90.8678 247.319C90.7728 247.151 90.7281 246.971 90.7335 246.778C90.739 246.586 90.8088 246.404 90.943 246.234C91.0776 246.083 91.2954 245.971 91.5965 245.898C92.0164 245.802 92.435 245.641 92.8523 245.417C93.279 245.201 93.7172 244.872 94.167 244.428C94.7427 243.859 95.0613 243.273 95.123 242.67C95.185 242.085 95.0009 241.574 94.5708 241.137C94.2528 240.815 93.8967 240.652 93.5025 240.648C93.1175 240.654 92.6306 240.835 92.0416 241.192L90.2343 242.302C89.1744 242.955 88.2269 243.263 87.392 243.227C86.5664 243.2 85.8076 242.835 85.1157 242.133C84.5733 241.583 84.2221 240.966 84.0622 240.281C83.9116 239.607 83.9395 238.915 84.1458 238.206C84.3524 237.515 84.7243 236.839 85.2615 236.178L85.2997 236.73L84.0373 235.449C83.841 235.25 83.7403 235.022 83.7353 234.765C83.721 234.498 83.8128 234.267 84.0106 234.072Z" fill="white"/>
<path d="M94.6146 227.543C95.7684 226.404 97.0747 225.965 98.5335 226.225C100.001 226.495 101.526 227.432 103.108 229.036C104.174 230.118 104.935 231.157 105.391 232.155C105.846 233.171 105.996 234.126 105.84 235.022C105.675 235.926 105.21 236.756 104.444 237.513C103.281 238.661 101.983 239.109 100.552 238.858C99.1111 238.616 97.5953 237.688 96.0046 236.075C94.9472 235.002 94.1863 233.953 93.7221 232.928C93.2577 231.921 93.0943 230.961 93.2318 230.048C93.3783 229.143 93.8393 228.308 94.6146 227.543ZM96.0381 228.987C95.4105 229.606 95.2336 230.351 95.5077 231.22C95.7724 232.098 96.5104 233.152 97.7215 234.38C98.9326 235.608 99.9616 236.347 100.809 236.597C101.655 236.864 102.392 236.688 103.02 236.069C103.639 235.458 103.824 234.723 103.578 233.863C103.34 233.012 102.616 231.973 101.404 230.744C100.193 229.516 99.1508 228.763 98.2768 228.486C97.4028 228.21 96.6566 228.376 96.0381 228.987Z" fill="white"/>
<path d="M102.615 219.543C103.768 218.404 105.075 217.965 106.534 218.225C108.001 218.495 109.526 219.432 111.108 221.036C112.174 222.118 112.935 223.157 113.391 224.155C113.846 225.171 113.996 226.126 113.84 227.022C113.675 227.926 113.21 228.756 112.444 229.513C111.281 230.661 109.983 231.109 108.552 230.858C107.111 230.616 105.595 229.688 104.005 228.075C102.947 227.002 102.186 225.953 101.722 224.928C101.258 223.921 101.094 222.961 101.232 222.048C101.378 221.143 101.839 220.308 102.615 219.543ZM104.038 220.987C103.41 221.606 103.234 222.351 103.508 223.22C103.772 224.098 104.51 225.152 105.722 226.38C106.933 227.608 107.962 228.347 108.809 228.597C109.655 228.864 110.392 228.688 111.02 228.069C111.639 227.458 111.824 226.723 111.578 225.863C111.34 225.012 110.616 223.973 109.404 222.744C108.193 221.516 107.151 220.763 106.277 220.486C105.403 220.21 104.657 220.376 104.038 220.987Z" fill="white"/>
<path d="M111.615 211.543C112.768 210.404 114.075 209.965 115.534 210.225C117.001 210.495 118.526 211.432 120.108 213.036C121.174 214.118 121.935 215.157 122.391 216.155C122.846 217.171 122.996 218.126 122.84 219.022C122.675 219.926 122.21 220.756 121.444 221.513C120.281 222.661 118.983 223.109 117.552 222.858C116.111 222.616 114.595 221.688 113.005 220.075C111.947 219.002 111.186 217.953 110.722 216.928C110.258 215.921 110.094 214.961 110.232 214.048C110.378 213.143 110.839 212.308 111.615 211.543ZM113.038 212.987C112.41 213.606 112.234 214.351 112.508 215.22C112.772 216.098 113.51 217.152 114.722 218.38C115.933 219.608 116.962 220.347 117.809 220.597C118.655 220.864 119.392 220.688 120.02 220.069C120.639 219.458 120.824 218.723 120.578 217.863C120.34 217.012 119.616 215.973 118.404 214.744C117.193 213.516 116.151 212.763 115.277 212.486C114.403 212.21 113.657 212.376 113.038 212.987Z" fill="white"/>
<path d="M121.391 200.8C121.636 200.557 121.894 200.431 122.165 200.422C122.435 200.431 122.685 200.552 122.914 200.786C123.153 201.028 123.266 201.275 123.254 201.527C123.231 201.788 123.098 202.039 122.852 202.282L121.265 203.849L128.033 210.714L127.155 211.581L128.011 208.281C128.089 208.001 128.218 207.791 128.397 207.651C128.576 207.53 128.772 207.465 128.987 207.455C129.201 207.465 129.401 207.525 129.585 207.637C129.77 207.749 129.908 207.907 129.998 208.112C130.088 208.336 130.094 208.588 130.016 208.868L129.204 211.958C129.126 212.257 129.029 212.537 128.913 212.798C128.807 213.068 128.674 213.283 128.513 213.441C128.315 213.637 128.094 213.744 127.852 213.763C127.618 213.791 127.382 213.684 127.143 213.441L119.451 205.639L118.006 207.066C117.76 207.308 117.511 207.434 117.26 207.444C116.998 207.462 116.748 207.35 116.509 207.108C116.27 206.866 116.158 206.609 116.171 206.339C116.174 206.078 116.299 205.826 116.544 205.584L121.391 200.8Z" fill="white"/>
<path d="M257.995 121.6C257.738 121.706 257.49 121.7 257.25 121.583C257.015 121.479 256.845 121.297 256.738 121.039L256.059 119.395L256.629 119.635C255.813 119.944 255.049 120.13 254.337 120.194C253.637 120.253 253.017 120.243 252.478 120.163C252.212 120.115 251.997 120.009 251.834 119.846C251.666 119.67 251.55 119.473 251.487 119.254C251.424 119.035 251.42 118.828 251.476 118.632C251.539 118.419 251.655 118.255 251.827 118.141C251.994 118.014 252.23 117.974 252.536 118.02C252.945 118.082 253.45 118.096 254.052 118.064C254.66 118.014 255.338 117.834 256.086 117.525C256.67 117.283 257.112 117.014 257.413 116.716C257.714 116.418 257.893 116.107 257.95 115.781C258.018 115.45 257.984 115.118 257.846 114.785C257.734 114.515 257.579 114.305 257.381 114.156C257.178 113.995 256.911 113.897 256.582 113.86C256.247 113.811 255.832 113.832 255.335 113.922L253.303 114.265C252.138 114.459 251.174 114.375 250.409 114.014C249.644 113.653 249.069 113.005 248.682 112.069C248.382 111.343 248.284 110.626 248.389 109.92C248.489 109.201 248.771 108.544 249.236 107.948C249.701 107.352 250.329 106.854 251.121 106.454L250.885 106.876L250.244 105.325C250.138 105.067 250.13 104.818 250.223 104.578C250.31 104.325 250.482 104.146 250.739 104.04C250.984 103.938 251.227 103.946 251.467 104.063C251.713 104.163 251.89 104.342 251.996 104.601L252.637 106.152L252.147 106.008C252.655 105.813 253.247 105.69 253.924 105.641C254.613 105.587 255.247 105.648 255.826 105.827C256.063 105.902 256.251 106.026 256.39 106.199C256.525 106.359 256.607 106.541 256.637 106.745C256.661 106.937 256.635 107.121 256.557 107.297C256.48 107.474 256.347 107.615 256.158 107.722C255.976 107.811 255.732 107.833 255.426 107.787C255.001 107.718 254.553 107.709 254.081 107.759C253.605 107.798 253.075 107.938 252.491 108.18C251.743 108.489 251.227 108.912 250.943 109.447C250.665 109.966 250.643 110.508 250.877 111.075C251.049 111.493 251.318 111.779 251.682 111.931C252.04 112.071 252.56 112.086 253.24 111.978L255.332 111.631C256.56 111.426 257.554 111.497 258.314 111.846C259.068 112.183 259.634 112.806 260.01 113.717C260.305 114.431 260.398 115.135 260.288 115.829C260.173 116.511 259.887 117.141 259.428 117.72C258.977 118.282 258.377 118.768 257.63 119.178L257.803 118.652L258.49 120.314C258.596 120.572 258.604 120.822 258.511 121.062C258.424 121.314 258.252 121.493 257.995 121.6Z" fill="white"/>
<path d="M246.968 123.027C245.47 123.647 244.094 123.561 242.841 122.77C241.583 121.967 240.524 120.525 239.663 118.443C239.083 117.039 238.77 115.789 238.724 114.693C238.686 113.581 238.907 112.639 239.389 111.869C239.882 111.093 240.626 110.5 241.621 110.088C243.131 109.464 244.502 109.537 245.733 110.31C246.977 111.077 248.031 112.508 248.896 114.602C249.471 115.994 249.781 117.252 249.824 118.376C249.875 119.484 249.665 120.435 249.193 121.229C248.716 122.011 247.975 122.611 246.968 123.027ZM246.194 121.153C247.008 120.816 247.453 120.193 247.527 119.285C247.612 118.372 247.326 117.118 246.667 115.524C246.008 113.93 245.334 112.857 244.643 112.307C243.96 111.74 243.21 111.625 242.395 111.962C241.593 112.295 241.143 112.905 241.048 113.795C240.947 114.672 241.226 115.908 241.885 117.502C242.544 119.097 243.226 120.187 243.931 120.773C244.636 121.359 245.391 121.486 246.194 121.153Z" fill="white"/>
<path d="M235.968 128.027C234.47 128.647 233.094 128.561 231.841 127.77C230.583 126.967 229.524 125.525 228.663 123.443C228.083 122.039 227.77 120.789 227.724 119.693C227.686 118.581 227.907 117.639 228.389 116.869C228.882 116.093 229.626 115.5 230.621 115.088C232.131 114.464 233.502 114.537 234.733 115.31C235.977 116.077 237.031 117.508 237.896 119.602C238.471 120.994 238.781 122.252 238.824 123.376C238.875 124.484 238.665 125.435 238.193 126.229C237.716 127.011 236.975 127.611 235.968 128.027ZM235.194 126.153C236.008 125.816 236.453 125.193 236.527 124.285C236.612 123.372 236.326 122.118 235.667 120.524C235.008 118.93 234.334 117.857 233.643 117.307C232.96 116.74 232.21 116.625 231.395 116.962C230.593 117.295 230.143 117.905 230.048 118.795C229.947 119.672 230.226 120.908 230.885 122.502C231.544 124.097 232.226 125.187 232.931 125.773C233.636 126.359 234.391 126.486 235.194 126.153Z" fill="white"/>
<path d="M222.36 133.52C222.041 133.652 221.754 133.671 221.5 133.578C221.254 133.468 221.068 133.261 220.943 132.959C220.813 132.644 220.801 132.373 220.908 132.145C221.027 131.911 221.246 131.728 221.565 131.597L223.625 130.744L219.943 121.834L221.084 121.362L219.047 124.096C218.869 124.325 218.671 124.471 218.452 124.533C218.241 124.578 218.034 124.565 217.832 124.492C217.637 124.403 217.475 124.272 217.346 124.098C217.217 123.925 217.149 123.727 217.143 123.503C217.144 123.261 217.233 123.026 217.411 122.796L219.328 120.24C219.513 119.993 219.709 119.771 219.914 119.572C220.114 119.362 220.319 119.214 220.527 119.127C220.785 119.021 221.029 119.005 221.261 119.079C221.488 119.141 221.666 119.329 221.796 119.644L225.98 129.77L227.857 128.993C228.176 128.861 228.454 128.838 228.691 128.924C228.94 129.006 229.129 129.203 229.259 129.518C229.389 129.833 229.397 130.113 229.283 130.358C229.181 130.599 228.971 130.785 228.652 130.917L222.36 133.52Z" fill="white"/>
<path d="M260.005 188.591C259.702 188.55 259.467 188.417 259.302 188.192C259.134 187.981 259.069 187.737 259.107 187.46L259.349 185.698L259.765 186.199C258.818 186.042 257.987 185.807 257.272 185.493C256.571 185.182 255.985 184.853 255.513 184.506C255.285 184.326 255.137 184.125 255.07 183.9C255.004 183.663 255.001 183.434 255.059 183.213C255.117 182.992 255.226 182.812 255.386 182.673C255.561 182.522 255.761 182.442 255.987 182.433C256.215 182.41 256.462 182.498 256.73 182.696C257.086 182.96 257.561 183.234 258.154 183.517C258.762 183.789 259.507 183.985 260.388 184.107C261.077 184.201 261.646 184.199 262.095 184.099C262.543 183.999 262.883 183.824 263.114 183.574C263.359 183.325 263.505 183.022 263.554 182.666C263.594 182.376 263.56 182.116 263.451 181.885C263.344 181.642 263.143 181.42 262.848 181.218C262.555 181.003 262.147 180.806 261.624 180.626L259.496 179.87C258.279 179.434 257.403 178.863 256.868 178.158C256.334 177.452 256.135 176.598 256.273 175.595C256.38 174.817 256.674 174.152 257.157 173.599C257.642 173.034 258.267 172.616 259.034 172.345C259.801 172.074 260.671 171.971 261.645 172.038L261.191 172.278L261.419 170.615C261.457 170.338 261.585 170.121 261.803 169.962C262.023 169.791 262.285 169.726 262.588 169.768C262.877 169.807 263.104 169.94 263.27 170.164C263.451 170.377 263.523 170.622 263.485 170.899L263.257 172.562L262.866 172.186C263.457 172.28 264.089 172.481 264.762 172.789C265.45 173.099 266.022 173.48 266.479 173.932C266.664 174.119 266.776 174.323 266.816 174.543C266.858 174.751 266.838 174.95 266.755 175.14C266.675 175.317 266.55 175.461 266.38 175.572C266.211 175.684 266.007 175.736 265.769 175.731C265.547 175.713 265.302 175.606 265.035 175.408C264.666 175.129 264.243 174.889 263.765 174.689C263.289 174.476 262.707 174.322 262.018 174.227C261.136 174.106 260.414 174.202 259.852 174.514C259.306 174.816 258.991 175.27 258.908 175.877C258.846 176.325 258.948 176.709 259.213 177.028C259.48 177.333 259.967 177.615 260.675 177.874L262.862 178.659C264.147 179.117 265.057 179.693 265.593 180.385C266.132 181.064 266.334 181.892 266.2 182.868C266.095 183.634 265.802 184.286 265.321 184.825C264.842 185.35 264.227 185.743 263.475 186.003C262.74 186.251 261.904 186.358 260.968 186.324L261.418 185.962L261.173 187.744C261.135 188.021 261.007 188.238 260.789 188.397C260.569 188.568 260.308 188.633 260.005 188.591Z" fill="#0C54EA"/>
<path d="M248.05 183.551C246.444 183.33 245.299 182.562 244.616 181.246C243.934 179.918 243.746 178.138 244.052 175.906C244.259 174.401 244.618 173.164 245.131 172.195C245.658 171.215 246.324 170.514 247.128 170.092C247.945 169.671 248.887 169.534 249.953 169.681C251.572 169.903 252.719 170.658 253.393 171.946C254.08 173.236 254.27 175.004 253.962 177.248C253.757 178.741 253.39 179.983 252.861 180.976C252.347 181.958 251.686 182.673 250.878 183.12C250.072 183.556 249.129 183.699 248.05 183.551ZM248.326 181.542C249.2 181.662 249.897 181.348 250.419 180.601C250.953 179.856 251.337 178.629 251.572 176.92C251.806 175.211 251.764 173.945 251.445 173.121C251.141 172.287 250.552 171.809 249.678 171.689C248.817 171.571 248.121 171.872 247.59 172.592C247.061 173.299 246.679 174.507 246.445 176.216C246.21 177.925 246.25 179.21 246.564 180.072C246.878 180.934 247.465 181.424 248.326 181.542Z" fill="#0C54EA"/>
<path d="M236.05 182.551C234.444 182.33 233.299 181.562 232.616 180.246C231.934 178.918 231.746 177.138 232.052 174.906C232.259 173.401 232.618 172.164 233.131 171.195C233.658 170.215 234.324 169.514 235.128 169.092C235.945 168.671 236.887 168.534 237.953 168.681C239.572 168.903 240.719 169.658 241.393 170.946C242.08 172.236 242.27 174.004 241.962 176.248C241.757 177.741 241.39 178.983 240.861 179.976C240.347 180.958 239.686 181.673 238.878 182.12C238.072 182.556 237.129 182.699 236.05 182.551ZM236.326 180.542C237.2 180.662 237.897 180.348 238.419 179.601C238.953 178.856 239.337 177.629 239.572 175.92C239.806 174.211 239.764 172.945 239.445 172.121C239.141 171.287 238.552 170.809 237.678 170.689C236.817 170.571 236.121 170.872 235.59 171.592C235.061 172.299 234.679 173.507 234.445 175.216C234.21 176.925 234.25 178.21 234.564 179.072C234.878 179.934 235.465 180.424 236.326 180.542Z" fill="#0C54EA"/>
<path d="M221.621 180.079C221.198 180.021 220.9 179.888 220.726 179.68C220.568 179.46 220.513 179.169 220.563 178.807C220.593 178.587 220.682 178.382 220.829 178.192C220.977 178.001 221.179 177.805 221.435 177.603L225.989 173.999C226.682 173.462 227.196 172.959 227.529 172.491C227.864 172.01 228.068 171.511 228.139 170.994C228.227 170.347 228.083 169.827 227.707 169.432C227.343 169.04 226.765 168.789 225.972 168.68C225.523 168.618 225.064 168.621 224.597 168.689C224.132 168.743 223.648 168.888 223.144 169.122C222.885 169.244 222.652 169.278 222.444 169.223C222.249 169.17 222.082 169.061 221.943 168.897C221.817 168.735 221.742 168.547 221.718 168.333C221.693 168.118 221.728 167.912 221.823 167.715C221.932 167.506 222.117 167.34 222.376 167.217C222.995 166.92 223.669 166.723 224.396 166.625C225.136 166.529 225.863 166.53 226.577 166.629C227.581 166.767 228.406 167.031 229.053 167.423C229.699 167.815 230.162 168.32 230.44 168.938C230.719 169.556 230.802 170.273 230.691 171.087C230.616 171.631 230.451 172.148 230.195 172.64C229.952 173.134 229.609 173.62 229.167 174.1C228.737 174.581 228.191 175.079 227.528 175.594L223.279 178.884L223.37 178.224L229.197 179.025C229.554 179.074 229.814 179.195 229.976 179.389C230.138 179.583 230.195 179.847 230.149 180.184C230.103 180.52 229.975 180.766 229.765 180.921C229.555 181.077 229.272 181.13 228.915 181.081L221.621 180.079Z" fill="#0C54EA"/>
<path d="M218.747 245.319C218.555 245.081 218.476 244.823 218.51 244.546C218.533 244.278 218.653 244.056 218.871 243.88L220.255 242.764L220.214 243.413C219.633 242.65 219.19 241.908 218.885 241.19C218.588 240.482 218.388 239.84 218.283 239.264C218.24 238.977 218.271 238.729 218.376 238.519C218.491 238.301 218.645 238.132 218.839 238.012C219.033 237.891 219.235 237.835 219.447 237.843C219.678 237.853 219.878 237.933 220.049 238.081C220.23 238.221 220.35 238.454 220.409 238.782C220.487 239.219 220.645 239.744 220.882 240.357C221.138 240.972 221.545 241.626 222.103 242.319C222.539 242.86 222.954 243.249 223.349 243.484C223.744 243.719 224.111 243.825 224.451 243.801C224.799 243.788 225.114 243.668 225.394 243.443C225.622 243.259 225.775 243.046 225.854 242.804C225.943 242.553 225.949 242.253 225.873 241.904C225.807 241.546 225.646 241.123 225.389 240.634L224.36 238.623C223.774 237.471 223.528 236.454 223.623 235.574C223.718 234.694 224.159 233.936 224.947 233.301C225.559 232.808 226.23 232.526 226.959 232.455C227.7 232.376 228.442 232.501 229.185 232.83C229.929 233.159 230.632 233.682 231.295 234.398L230.8 234.261L232.106 233.208C232.324 233.032 232.566 232.962 232.834 232.996C233.111 233.022 233.346 233.155 233.538 233.393C233.721 233.62 233.796 233.872 233.762 234.149C233.748 234.429 233.632 234.656 233.414 234.832L232.108 235.885L232.082 235.344C232.447 235.818 232.768 236.398 233.047 237.084C233.335 237.78 233.49 238.45 233.512 239.094C233.518 239.356 233.46 239.582 233.338 239.77C233.226 239.949 233.075 240.08 232.884 240.162C232.704 240.236 232.514 240.255 232.315 240.219C232.115 240.184 231.931 240.082 231.762 239.915C231.612 239.75 231.508 239.504 231.449 239.176C231.372 238.72 231.229 238.255 231.019 237.782C230.819 237.3 230.501 236.788 230.065 236.247C229.506 235.554 228.916 235.128 228.292 234.97C227.688 234.814 227.147 234.929 226.671 235.313C226.318 235.598 226.129 235.947 226.103 236.361C226.087 236.766 226.249 237.306 226.586 237.98L227.639 240.051C228.258 241.267 228.526 242.31 228.441 243.182C228.367 244.045 227.947 244.787 227.179 245.405C226.578 245.89 225.918 246.164 225.198 246.226C224.489 246.28 223.772 246.143 223.047 245.817C222.342 245.493 221.66 244.997 221.004 244.33L221.579 244.376L220.179 245.504C219.961 245.68 219.719 245.75 219.451 245.716C219.174 245.69 218.939 245.557 218.747 245.319Z" fill="white"/>
<path d="M213.237 233.682C212.22 232.419 211.914 231.075 212.319 229.649C212.734 228.214 213.819 226.79 215.572 225.376C216.755 224.422 217.865 223.769 218.903 223.415C219.958 223.064 220.924 223.01 221.798 223.255C222.681 223.509 223.46 224.056 224.135 224.894C225.16 226.167 225.476 227.503 225.083 228.903C224.698 230.314 223.624 231.73 221.86 233.152C220.687 234.097 219.568 234.75 218.502 235.11C217.455 235.471 216.484 235.538 215.589 235.309C214.704 235.073 213.92 234.531 213.237 233.682ZM214.815 232.409C215.369 233.096 216.091 233.347 216.983 233.161C217.882 232.985 219.004 232.356 220.347 231.273C221.69 230.19 222.527 229.24 222.86 228.421C223.211 227.605 223.11 226.854 222.557 226.167C222.012 225.49 221.299 225.231 220.42 225.391C219.55 225.543 218.444 226.16 217.101 227.243C215.758 228.325 214.905 229.288 214.542 230.13C214.179 230.973 214.27 231.733 214.815 232.409Z" fill="white"/>
<path d="M205.237 223.682C204.22 222.419 203.914 221.075 204.319 219.649C204.734 218.214 205.819 216.79 207.572 215.376C208.755 214.422 209.865 213.769 210.903 213.415C211.958 213.064 212.924 213.01 213.798 213.255C214.681 213.509 215.46 214.056 216.135 214.894C217.16 216.167 217.476 217.503 217.083 218.903C216.698 220.314 215.624 221.73 213.86 223.152C212.687 224.097 211.568 224.75 210.502 225.11C209.455 225.471 208.484 225.538 207.589 225.309C206.704 225.073 205.92 224.531 205.237 223.682ZM206.815 222.409C207.369 223.096 208.091 223.347 208.983 223.161C209.882 222.985 211.004 222.356 212.347 221.273C213.69 220.19 214.527 219.24 214.86 218.421C215.211 217.605 215.11 216.854 214.557 216.167C214.012 215.49 213.299 215.231 212.42 215.391C211.55 215.543 210.444 216.16 209.101 217.243C207.758 218.325 206.905 219.288 206.542 220.13C206.179 220.973 206.27 221.733 206.815 222.409Z" fill="white"/>
<path d="M198.13 215.548C197.683 214.992 197.297 214.369 196.975 213.677C196.653 212.985 196.445 212.28 196.351 211.559C196.312 211.262 196.345 211.011 196.448 210.806C196.57 210.604 196.725 210.453 196.913 210.353C197.12 210.256 197.325 210.22 197.53 210.245C197.753 210.273 197.943 210.362 198.098 210.514C198.262 210.676 198.373 210.907 198.43 211.206C198.529 211.767 198.683 212.291 198.892 212.78C199.102 213.269 199.388 213.738 199.751 214.189C200.106 214.63 200.486 214.946 200.892 215.138C201.298 215.33 201.706 215.399 202.115 215.345C202.525 215.292 202.912 215.118 203.278 214.823C203.847 214.364 204.161 213.817 204.219 213.182C204.288 212.538 204.073 211.907 203.574 211.288C203.304 210.953 202.986 210.673 202.621 210.448C202.266 210.215 201.834 210.053 201.324 209.962C201.167 209.933 200.989 209.878 200.789 209.797C200.6 209.708 200.437 209.579 200.302 209.411C200.091 209.149 199.997 208.896 200.019 208.653C200.041 208.41 200.169 208.195 200.403 208.006L205.387 203.987C205.662 203.766 205.929 203.671 206.19 203.704C206.469 203.738 206.722 203.897 206.95 204.18L211.119 209.356C211.347 209.64 211.449 209.912 211.425 210.174C211.42 210.438 211.285 210.676 211.021 210.889C210.767 211.094 210.506 211.175 210.237 211.132C209.976 211.1 209.732 210.943 209.504 210.659L206.209 206.569L202.795 209.322L202.377 208.802C202.952 208.788 203.518 208.929 204.074 209.224C204.63 209.52 205.124 209.935 205.555 210.47C206.121 211.173 206.463 211.9 206.583 212.651C206.72 213.405 206.644 214.133 206.354 214.834C206.083 215.537 205.606 216.163 204.926 216.712C204.224 217.278 203.474 217.615 202.673 217.724C201.883 217.825 201.09 217.694 200.296 217.332C199.519 216.971 198.798 216.377 198.13 215.548Z" fill="white"/>
<path d="M150.925 259.833C150.929 259.555 151.033 259.329 151.235 259.155C151.424 258.981 151.659 258.896 151.938 258.9L153.716 258.928L153.27 259.357C153.31 258.485 153.442 257.71 153.666 257.031C153.889 256.364 154.144 255.799 154.431 255.336C154.581 255.111 154.764 254.956 154.978 254.871C155.206 254.786 155.433 254.758 155.659 254.786C155.885 254.815 156.077 254.894 156.234 255.023C156.405 255.165 156.509 255.337 156.546 255.54C156.596 255.743 156.539 255.976 156.375 256.239C156.157 256.589 155.943 257.047 155.735 257.613C155.539 258.191 155.435 258.885 155.423 259.694C155.413 260.326 155.485 260.839 155.639 261.233C155.793 261.627 156.008 261.915 156.285 262.096C156.562 262.29 156.88 262.39 157.239 262.395C157.532 262.4 157.786 262.341 158.001 262.218C158.23 262.095 158.426 261.889 158.59 261.601C158.768 261.313 158.914 260.923 159.028 260.432L159.519 258.43C159.803 257.284 160.262 256.431 160.897 255.872C161.532 255.313 162.355 255.042 163.367 255.057C164.153 255.07 164.849 255.264 165.456 255.64C166.077 256.016 166.568 256.535 166.931 257.198C167.294 257.861 167.501 258.636 167.554 259.521L167.26 259.138L168.939 259.164C169.218 259.168 169.45 259.26 169.634 259.44C169.831 259.62 169.927 259.849 169.923 260.127C169.919 260.392 169.815 260.612 169.613 260.786C169.423 260.972 169.189 261.064 168.909 261.059L167.231 261.033L167.557 260.64C167.535 261.183 167.413 261.776 167.19 262.417C166.967 263.071 166.658 263.628 166.265 264.09C166.102 264.277 165.914 264.401 165.7 264.461C165.499 264.521 165.299 264.524 165.1 264.47C164.914 264.417 164.756 264.32 164.625 264.178C164.494 264.037 164.417 263.859 164.393 263.644C164.383 263.442 164.46 263.209 164.624 262.946C164.856 262.583 165.042 262.175 165.182 261.722C165.336 261.269 165.418 260.727 165.427 260.095C165.44 259.286 165.257 258.645 164.878 258.172C164.512 257.711 164.023 257.476 163.41 257.466C162.957 257.459 162.589 257.593 162.305 257.866C162.034 258.14 161.814 258.611 161.644 259.278L161.132 261.337C160.834 262.546 160.374 263.43 159.752 263.989C159.144 264.549 158.347 264.821 157.362 264.806C156.59 264.794 155.907 264.6 155.313 264.224C154.733 263.848 154.268 263.335 153.918 262.685C153.582 262.048 153.373 261.305 153.293 260.457L153.707 260.824L151.909 260.796C151.629 260.792 151.398 260.7 151.214 260.52C151.017 260.34 150.921 260.111 150.925 259.833Z" fill="#0C54EA"/>
<path d="M153.924 247.783C153.949 246.162 154.574 244.932 155.797 244.095C157.033 243.258 158.777 242.857 161.03 242.892C162.549 242.916 163.82 243.123 164.844 243.515C165.881 243.921 166.657 244.497 167.173 245.244C167.69 246.005 167.939 246.923 167.923 247.999C167.897 249.633 167.286 250.863 166.089 251.687C164.891 252.525 163.16 252.926 160.895 252.891C159.388 252.868 158.111 252.654 157.061 252.248C156.024 251.856 155.235 251.286 154.693 250.538C154.164 249.791 153.908 248.872 153.924 247.783ZM155.952 247.814C155.938 248.696 156.334 249.351 157.138 249.778C157.942 250.219 159.207 250.452 160.932 250.479C162.657 250.506 163.909 250.311 164.687 249.895C165.479 249.492 165.882 248.85 165.895 247.968C165.909 247.099 165.526 246.445 164.748 246.004C163.982 245.565 162.737 245.331 161.012 245.305C159.287 245.278 158.016 245.472 157.198 245.888C156.381 246.303 155.965 246.945 155.952 247.814Z" fill="#0C54EA"/>
<path d="M154.924 235.783C154.949 234.162 155.574 232.932 156.797 232.095C158.033 231.258 159.777 230.857 162.03 230.892C163.549 230.916 164.82 231.123 165.844 231.515C166.881 231.921 167.657 232.497 168.173 233.244C168.69 234.005 168.939 234.923 168.923 235.999C168.897 237.633 168.286 238.863 167.089 239.687C165.891 240.525 164.16 240.926 161.895 240.891C160.388 240.868 159.111 240.654 158.061 240.248C157.024 239.856 156.235 239.286 155.693 238.538C155.164 237.791 154.908 236.872 154.924 235.783ZM156.952 235.814C156.938 236.696 157.334 237.351 158.138 237.778C158.942 238.219 160.207 238.452 161.932 238.479C163.657 238.506 164.909 238.311 165.687 237.895C166.479 237.492 166.882 236.85 166.895 235.968C166.909 235.099 166.526 234.445 165.748 234.004C164.982 233.565 163.737 233.331 162.012 233.305C160.287 233.278 159.016 233.472 158.198 233.888C157.381 234.303 156.965 234.945 156.952 235.814Z" fill="#0C54EA"/>
<path d="M154.963 221.263C154.968 220.959 155.044 220.709 155.191 220.513C155.338 220.316 155.53 220.2 155.766 220.164C156.015 220.128 156.289 220.192 156.588 220.356L167.647 226.52L166.783 226.506L166.882 220.078C166.888 219.721 166.984 219.445 167.17 219.249C167.356 219.067 167.613 218.979 167.94 218.984C168.28 218.989 168.54 219.085 168.721 219.273C168.901 219.475 168.988 219.754 168.983 220.111L168.864 227.789C168.859 228.146 168.762 228.435 168.576 228.657C168.389 228.879 168.126 228.988 167.785 228.982C167.497 228.978 167.243 228.934 167.021 228.852C166.813 228.769 166.586 228.66 166.339 228.523L155.766 222.724C155.48 222.574 155.273 222.379 155.146 222.139C155.019 221.912 154.958 221.62 154.963 221.263Z" fill="#0C54EA"/>
<path d="M55.4283 167.45C55.7055 167.429 55.94 167.511 56.1318 167.697C56.3226 167.869 56.4287 168.095 56.4502 168.374L56.5868 170.146L56.1182 169.742C56.9898 169.701 57.7741 169.761 58.4709 169.921C59.1552 170.082 59.7412 170.284 60.229 170.527C60.4671 170.655 60.6384 170.822 60.743 171.028C60.8486 171.247 60.8975 171.47 60.8897 171.698C60.8819 171.926 60.8211 172.124 60.7074 172.293C60.5821 172.477 60.4201 172.596 60.2216 172.651C60.024 172.72 59.7868 172.685 59.5099 172.546C59.1406 172.361 58.6648 172.19 58.0824 172.035C57.4883 171.894 56.7881 171.854 55.9815 171.916C55.3514 171.965 54.8472 172.084 54.4688 172.274C54.0904 172.463 53.8237 172.704 53.6688 172.997C53.5012 173.29 53.4313 173.616 53.4589 173.975C53.4814 174.267 53.5639 174.514 53.7062 174.717C53.8497 174.933 54.0724 175.11 54.3746 175.247C54.6777 175.397 55.0791 175.506 55.5788 175.574L57.6178 175.878C58.7851 176.055 59.6763 176.434 60.2915 177.014C60.9066 177.595 61.2531 178.39 61.3309 179.399C61.3912 180.182 61.2622 180.894 60.9438 181.533C60.6264 182.185 60.1544 182.722 59.5278 183.145C58.9011 183.567 58.1492 183.846 57.2722 183.98L57.6273 183.652L57.7562 185.325C57.7776 185.604 57.7073 185.844 57.5452 186.043C57.3841 186.256 57.165 186.373 56.8877 186.394C56.6231 186.415 56.3949 186.332 56.2031 186.147C55.9997 185.975 55.8873 185.75 55.8658 185.471L55.7369 183.798L56.1585 184.086C55.6155 184.115 55.0145 184.047 54.3555 183.884C53.6838 183.723 53.1 183.467 52.604 183.118C52.4027 182.973 52.2624 182.797 52.183 182.589C52.1046 182.395 52.083 182.196 52.118 181.993C52.1541 181.803 52.2364 181.637 52.3648 181.493C52.4932 181.35 52.6634 181.256 52.8756 181.213C53.0762 181.184 53.315 181.24 53.5919 181.378C53.9748 181.576 54.3982 181.724 54.8621 181.822C55.327 181.933 55.8745 181.964 56.5046 181.915C57.3112 181.853 57.9327 181.611 58.3694 181.19C58.7944 180.783 58.9834 180.275 58.9363 179.664C58.9015 179.212 58.7348 178.858 58.436 178.6C58.1383 178.356 57.6494 178.18 56.9692 178.072L54.8719 177.753C53.6406 177.567 52.7179 177.191 52.1037 176.624C51.4906 176.07 51.1462 175.302 51.0705 174.319C51.0111 173.549 51.1412 172.851 51.4606 172.225C51.781 171.613 52.2488 171.102 52.8639 170.694C53.4674 170.3 54.1877 170.024 55.0249 169.866L54.698 170.312L54.5599 168.519C54.5384 168.24 54.6087 168.001 54.7708 167.802C54.9319 167.589 55.151 167.472 55.4283 167.45Z" fill="#0C54EA"/>
<path d="M66.9394 168.426C68.5559 168.301 69.8374 168.809 70.7838 169.95C71.7312 171.103 72.2915 172.803 72.4645 175.05C72.5812 176.564 72.4916 177.849 72.1957 178.905C71.8878 179.975 71.3856 180.801 70.6891 181.384C69.9796 181.968 69.0881 182.302 68.0148 182.385C66.3854 182.51 65.1049 182.015 64.1734 180.899C63.2289 179.784 62.6697 178.097 62.4956 175.838C62.3799 174.336 62.4755 173.044 62.7824 171.962C63.0773 170.893 63.5721 170.054 64.2667 169.446C64.9622 168.85 65.8532 168.51 66.9394 168.426ZM67.0952 170.447C66.2158 170.515 65.6004 170.97 65.2489 171.81C64.8844 172.652 64.7684 173.932 64.9009 175.652C65.0334 177.372 65.3427 178.601 65.8288 179.338C66.303 180.089 66.9797 180.431 67.8591 180.363C68.7255 180.296 69.3419 179.855 69.7083 179.039C70.0758 178.236 70.1932 176.974 70.0607 175.254C69.9282 173.534 69.6174 172.287 69.1284 171.511C68.6393 170.735 67.9616 170.381 67.0952 170.447Z" fill="#0C54EA"/>
<path d="M78.9394 167.426C80.5559 167.301 81.8374 167.809 82.7838 168.95C83.7312 170.103 84.2915 171.803 84.4645 174.05C84.5812 175.564 84.4916 176.849 84.1957 177.905C83.8878 178.975 83.3856 179.801 82.6891 180.384C81.9796 180.968 81.0881 181.302 80.0148 181.385C78.3854 181.51 77.1049 181.015 76.1734 179.899C75.2289 178.784 74.6697 177.097 74.4956 174.838C74.3799 173.336 74.4755 172.044 74.7824 170.962C75.0773 169.893 75.5721 169.054 76.2667 168.446C76.9622 167.85 77.8532 167.51 78.9394 167.426ZM79.0952 169.447C78.2158 169.515 77.6004 169.97 77.2489 170.81C76.8844 171.652 76.7684 172.932 76.9009 174.652C77.0334 176.372 77.3427 177.601 77.8288 178.338C78.303 179.089 78.9797 179.431 79.8591 179.363C80.7255 179.296 81.3419 178.855 81.7083 178.039C82.0758 177.236 82.1932 175.974 82.0607 174.254C81.9282 172.534 81.6174 171.287 81.1284 170.511C80.6393 169.735 79.9616 169.381 79.0952 169.447Z" fill="#0C54EA"/>
<path d="M91.1106 166.413C91.8223 166.358 92.5545 166.393 93.307 166.518C94.0596 166.643 94.7593 166.871 95.4061 167.201C95.6732 167.337 95.8619 167.506 95.9719 167.707C96.0695 167.922 96.1062 168.135 96.082 168.347C96.0453 168.572 95.9586 168.762 95.8219 168.917C95.6728 169.085 95.4919 169.191 95.279 169.233C95.0527 169.277 94.7998 169.238 94.5202 169.115C94.0023 168.88 93.4827 168.711 92.9614 168.607C92.4401 168.503 91.8908 168.473 91.3134 168.518C90.7494 168.562 90.2735 168.696 89.8857 168.923C89.4979 169.149 89.2101 169.446 89.0223 169.814C88.8345 170.182 88.7587 170.6 88.7948 171.069C88.8509 171.798 89.1243 172.366 89.615 172.773C90.1066 173.193 90.7486 173.373 91.5408 173.312C91.9705 173.279 92.3813 173.175 92.7731 173.001C93.1659 172.84 93.544 172.575 93.9074 172.206C94.0202 172.093 94.1666 171.977 94.3466 171.858C94.5275 171.753 94.7255 171.692 94.9403 171.675C95.276 171.649 95.5377 171.714 95.7253 171.87C95.9129 172.025 96.0182 172.253 96.0413 172.552L96.5331 178.936C96.5601 179.288 96.4867 179.562 96.3127 179.758C96.1264 179.969 95.8519 180.089 95.4893 180.117L88.8626 180.628C88.5 180.656 88.2177 180.586 88.0157 180.418C87.8012 180.264 87.681 180.018 87.6549 179.68C87.6298 179.355 87.711 179.093 87.8984 178.895C88.0723 178.699 88.3406 178.586 88.7031 178.558L93.9401 178.154L93.6032 173.781L94.2679 173.73C93.9538 174.212 93.5177 174.6 92.9593 174.891C92.4009 175.183 91.7793 175.356 91.0945 175.408C90.1948 175.478 89.4015 175.349 88.7144 175.022C88.0149 174.71 87.4583 174.236 87.0446 173.6C86.6185 172.978 86.3719 172.231 86.3047 171.359C86.2355 170.461 86.3825 169.651 86.7456 168.929C87.1097 168.22 87.6662 167.641 88.4149 167.19C89.1512 166.754 90.0498 166.495 91.1106 166.413Z" fill="#0C54EA"/>
<path d="M105.833 166.126C106.177 166.099 106.455 166.169 106.668 166.337C106.868 166.518 106.981 166.772 107.006 167.099C107.032 167.438 106.959 167.7 106.787 167.883C106.601 168.068 106.337 168.174 105.993 168.201L103.769 168.372L104.51 177.985L103.279 178.08L106.063 176.112C106.303 175.949 106.537 175.872 106.764 175.881C106.979 175.904 107.171 175.981 107.341 176.112C107.499 176.257 107.612 176.433 107.681 176.637C107.75 176.842 107.753 177.052 107.69 177.267C107.614 177.496 107.456 177.692 107.216 177.855L104.601 179.691C104.349 179.868 104.094 180.019 103.837 180.144C103.582 180.282 103.341 180.359 103.116 180.377C102.838 180.398 102.601 180.338 102.403 180.195C102.207 180.066 102.096 179.832 102.07 179.492L101.228 168.568L99.203 168.725C98.8589 168.751 98.5877 168.687 98.3893 168.531C98.1777 168.377 98.0589 168.13 98.0327 167.791C98.0066 167.451 98.0857 167.183 98.2702 166.985C98.4414 166.788 98.6991 166.676 99.0432 166.649L105.833 166.126Z" fill="#0C54EA"/>
<path d="M72.2834 99.6458C72.5508 99.7943 72.7212 100.003 72.7945 100.272C72.8743 100.53 72.8463 100.781 72.7107 101.026L71.8484 102.581L71.6422 101.963C72.468 102.452 73.1575 102.972 73.7105 103.523C74.2515 104.067 74.679 104.586 74.9931 105.081C75.1409 105.33 75.2056 105.572 75.1874 105.805C75.1627 106.051 75.0832 106.266 74.9491 106.45C74.815 106.635 74.6484 106.763 74.4494 106.835C74.2317 106.913 74.0159 106.915 73.802 106.842C73.5817 106.78 73.3827 106.609 73.2049 106.327C72.9679 105.952 72.6243 105.525 72.1742 105.047C71.7054 104.573 71.0821 104.12 70.3041 103.688C69.6963 103.351 69.1652 103.148 68.7109 103.078C68.2566 103.009 67.8765 103.049 67.5707 103.199C67.2527 103.343 67.0065 103.572 66.8321 103.886C66.69 104.142 66.6281 104.397 66.6463 104.651C66.6581 104.917 66.765 105.197 66.9671 105.492C67.1627 105.799 67.4717 106.13 67.8941 106.487L69.604 107.962C70.581 108.809 71.1913 109.658 71.4347 110.509C71.6781 111.36 71.5544 112.228 71.0635 113.114C70.6825 113.801 70.1671 114.315 69.5175 114.655C68.8614 115.006 68.1269 115.17 67.3139 115.145C66.501 115.12 65.6529 114.901 64.7697 114.487L65.2797 114.427L64.4659 115.895C64.3302 116.139 64.1321 116.296 63.8715 116.365C63.6044 116.445 63.3372 116.411 63.0698 116.262C62.8145 116.121 62.6502 115.915 62.5769 115.646C62.485 115.382 62.5069 115.127 62.6425 114.883L63.4563 113.415L63.6842 113.907C63.168 113.605 62.6516 113.189 62.1349 112.658C61.6062 112.121 61.2106 111.559 60.9481 110.971C60.8433 110.73 60.8122 110.5 60.8547 110.279C60.8908 110.071 60.9816 109.893 61.1271 109.745C61.2662 109.609 61.4349 109.52 61.6332 109.478C61.8315 109.435 62.0404 109.46 62.26 109.551C62.4609 109.648 62.6503 109.837 62.828 110.118C63.0708 110.512 63.3786 110.889 63.7517 111.248C64.1182 111.619 64.6054 111.973 65.2132 112.311C65.9912 112.743 66.6987 112.915 67.3358 112.826C67.9542 112.743 68.412 112.434 68.7091 111.898C68.9287 111.502 68.9726 111.107 68.8408 110.714C68.7026 110.333 68.3501 109.893 67.7833 109.396L66.0284 107.873C64.997 106.981 64.3564 106.115 64.1065 105.275C63.8502 104.447 63.961 103.602 64.4389 102.74C64.8135 102.065 65.3224 101.563 65.9656 101.234C66.6023 100.917 67.3178 100.774 68.1122 100.803C68.8879 100.838 69.7056 101.041 70.5652 101.411L70.0154 101.586L70.8873 100.013C71.0229 99.7687 71.2211 99.6121 71.4817 99.5435C71.7487 99.4632 72.016 99.4973 72.2834 99.6458Z" fill="white"/>
<path d="M82.4195 108.329C83.8369 109.116 84.6265 110.247 84.7881 111.72C84.9435 113.206 84.4749 114.933 83.3824 116.903C82.6458 118.232 81.8633 119.255 81.035 119.973C80.1892 120.696 79.3151 121.109 78.4128 121.212C77.4991 121.309 76.5717 121.096 75.6305 120.573C74.2016 119.78 73.4059 118.661 73.2431 117.216C73.069 115.764 73.5313 114.048 74.6301 112.066C75.3605 110.749 76.1517 109.723 77.0038 108.989C77.8383 108.26 78.713 107.832 79.6278 107.707C80.5364 107.593 81.4669 107.8 82.4195 108.329ZM81.4362 110.103C80.6651 109.674 79.9015 109.714 79.1453 110.222C78.3778 110.724 77.5758 111.729 76.7393 113.237C75.9027 114.746 75.4843 115.942 75.4839 116.825C75.466 117.714 75.8426 118.372 76.6137 118.8C77.3735 119.222 78.1309 119.193 78.8859 118.714C79.6347 118.246 80.4273 117.258 81.2638 115.749C82.1004 114.241 82.5282 113.028 82.5473 112.111C82.5663 111.194 82.196 110.524 81.4362 110.103Z" fill="white"/>
<path d="M92.4195 114.329C93.8369 115.116 94.6265 116.247 94.7881 117.72C94.9435 119.206 94.4749 120.933 93.3824 122.903C92.6458 124.232 91.8633 125.255 91.035 125.973C90.1892 126.696 89.3151 127.109 88.4128 127.212C87.4991 127.309 86.5717 127.096 85.6305 126.573C84.2016 125.78 83.4059 124.661 83.2431 123.216C83.069 121.764 83.5313 120.048 84.6301 118.066C85.3605 116.749 86.1517 115.723 87.0038 114.989C87.8383 114.26 88.713 113.832 89.6278 113.707C90.5364 113.593 91.4669 113.8 92.4195 114.329ZM91.4362 116.103C90.6651 115.674 89.9015 115.714 89.1453 116.222C88.3778 116.724 87.5758 117.729 86.7393 119.237C85.9027 120.746 85.4843 121.942 85.4839 122.825C85.466 123.714 85.8426 124.372 86.6137 124.8C87.3735 125.222 88.1309 125.193 88.8859 124.714C89.6347 124.246 90.4273 123.258 91.2638 121.749C92.1004 120.241 92.5282 119.028 92.5473 118.111C92.5663 117.194 92.196 116.524 91.4362 116.103Z" fill="white"/>
<path d="M103.419 119.329C104.837 120.116 105.626 121.247 105.788 122.72C105.943 124.206 105.475 125.933 104.382 127.903C103.646 129.232 102.863 130.255 102.035 130.973C101.189 131.696 100.315 132.109 99.4128 132.212C98.4991 132.309 97.5717 132.096 96.6305 131.573C95.2016 130.78 94.4059 129.661 94.2431 128.216C94.069 126.764 94.5313 125.048 95.6301 123.066C96.3605 121.749 97.1517 120.723 98.0038 119.989C98.8383 119.26 99.713 118.832 100.628 118.707C101.536 118.593 102.467 118.8 103.419 119.329ZM102.436 121.103C101.665 120.674 100.901 120.714 100.145 121.222C99.3778 121.724 98.5758 122.729 97.7393 124.237C96.9027 125.746 96.4843 126.942 96.4839 127.825C96.466 128.714 96.8426 129.372 97.6137 129.8C98.3735 130.222 99.1309 130.193 99.8859 129.714C100.635 129.246 101.427 128.258 102.264 126.749C103.1 125.241 103.528 124.028 103.547 123.111C103.566 122.194 103.196 121.524 102.436 121.103Z" fill="white"/>
<path d="M116.447 127.011C116.82 127.218 117.05 127.45 117.136 127.707C117.204 127.969 117.15 128.259 116.973 128.579C116.865 128.773 116.708 128.932 116.502 129.057C116.296 129.181 116.036 129.291 115.724 129.386L110.176 131.099C109.336 131.349 108.676 131.632 108.195 131.948C107.709 132.275 107.339 132.667 107.086 133.123C106.769 133.694 106.716 134.232 106.924 134.736C107.121 135.233 107.569 135.676 108.269 136.065C108.666 136.285 109.094 136.448 109.554 136.554C110.007 136.671 110.511 136.712 111.065 136.676C111.351 136.656 111.58 136.709 111.754 136.835C111.917 136.955 112.033 137.117 112.103 137.32C112.162 137.517 112.164 137.719 112.109 137.928C112.055 138.136 111.948 138.316 111.788 138.466C111.61 138.621 111.379 138.709 111.093 138.73C110.408 138.782 109.709 138.723 108.996 138.551C108.271 138.372 107.594 138.108 106.964 137.759C106.077 137.267 105.404 136.721 104.943 136.122C104.482 135.522 104.234 134.884 104.197 134.207C104.161 133.53 104.342 132.832 104.741 132.113C105.007 131.633 105.348 131.21 105.764 130.844C106.169 130.472 106.665 130.142 107.251 129.856C107.825 129.562 108.514 129.296 109.319 129.055L114.469 127.525L114.146 128.107L109.003 125.252C108.688 125.077 108.49 124.87 108.409 124.631C108.328 124.392 108.37 124.124 108.534 123.827C108.699 123.53 108.907 123.347 109.159 123.278C109.411 123.209 109.694 123.262 110.009 123.437L116.447 127.011Z" fill="white"/>
<path d="M217.617 52.8067C217.49 53.0847 217.294 53.2705 217.032 53.364C216.781 53.463 216.529 53.4542 216.275 53.3374L214.659 52.595L215.258 52.3425C214.834 53.2033 214.368 53.9304 213.862 54.5238C213.361 55.1046 212.876 55.5703 212.407 55.9211C212.169 56.0874 211.934 56.1702 211.699 56.1697C211.453 56.1636 211.233 56.1007 211.039 55.9809C210.844 55.8611 210.704 55.7046 210.617 55.5115C210.523 55.3002 210.504 55.0851 210.561 54.8663C210.605 54.6418 210.761 54.4303 211.028 54.2317C211.384 53.9668 211.783 53.5918 212.226 53.1066C212.662 52.6032 213.066 51.9471 213.437 51.1384C213.727 50.5066 213.889 49.9614 213.924 49.503C213.958 49.0445 213.889 48.6684 213.716 48.3747C213.549 48.0684 213.302 47.8401 212.975 47.69C212.709 47.5677 212.45 47.5252 212.198 47.5626C211.934 47.5944 211.663 47.7223 211.385 47.9462C211.094 48.1645 210.787 48.4978 210.464 48.9462L209.124 50.7635C208.355 51.8022 207.555 52.4752 206.725 52.7824C205.895 53.0897 205.02 53.032 204.101 52.6094C203.387 52.2813 202.835 51.8061 202.447 51.1838C202.046 50.556 201.827 49.8357 201.79 49.0229C201.752 48.2101 201.906 47.3475 202.252 46.4351L202.35 46.9393L200.825 46.2387C200.571 46.1219 200.4 45.9361 200.312 45.6813C200.211 45.421 200.225 45.1518 200.352 44.8738C200.474 44.6085 200.667 44.429 200.929 44.3355C201.186 44.2239 201.441 44.2264 201.695 44.3432L203.22 45.0439L202.747 45.3085C203.008 44.7707 203.384 44.224 203.873 43.6685C204.368 43.1004 204.899 42.6632 205.464 42.357C205.697 42.2341 205.924 42.1856 206.147 42.2114C206.357 42.2317 206.542 42.3088 206.7 42.4427C206.846 42.5711 206.948 42.7326 207.005 42.9272C207.062 43.1219 207.054 43.3321 206.979 43.5581C206.899 43.7658 206.725 43.969 206.458 44.1676C206.084 44.4396 205.732 44.7752 205.402 45.1745C205.06 45.5682 204.745 46.081 204.455 46.7128C204.083 47.5215 203.966 48.2403 204.103 48.8691C204.233 49.4797 204.576 49.913 205.133 50.1688C205.544 50.3578 205.941 50.3718 206.323 50.2106C206.692 50.0438 207.103 49.6589 207.556 49.0559L208.94 47.19C209.751 46.0937 210.565 45.3892 211.383 45.0763C212.188 44.7579 213.039 44.8045 213.934 45.216C214.636 45.5386 215.176 46.0082 215.552 46.6249C215.916 47.2361 216.114 47.9389 216.145 48.7335C216.17 49.5099 216.03 50.3409 215.726 51.2265L215.511 50.6912L217.144 51.4419C217.399 51.5587 217.57 51.7445 217.658 51.9993C217.758 52.2596 217.745 52.5287 217.617 52.8067Z" fill="white"/>
<path d="M210.806 63.301C210.13 64.7745 209.063 65.6476 207.607 65.9204C206.138 66.1878 204.38 65.8512 202.333 64.9106C200.953 64.2763 199.873 63.5733 199.094 62.8014C198.309 62.0124 197.831 61.1717 197.66 60.2794C197.494 59.3753 197.635 58.4341 198.084 57.4557C198.766 55.9704 199.821 55.0919 201.249 54.8201C202.682 54.5366 204.428 54.8679 206.487 55.8139C207.855 56.4427 208.938 57.1544 209.735 57.9488C210.526 58.726 211.018 59.5661 211.213 60.4692C211.396 61.3668 211.26 62.3108 210.806 63.301ZM208.963 62.4544C209.331 61.6528 209.233 60.8941 208.669 60.1783C208.111 59.4506 207.048 58.7267 205.481 58.0064C203.913 57.2862 202.689 56.9593 201.809 57.0258C200.922 57.0752 200.295 57.5007 199.927 58.3022C199.564 59.092 199.651 59.8454 200.186 60.5623C200.709 61.2738 201.755 61.9897 203.322 62.7099C204.89 63.4302 206.131 63.7651 207.047 63.7147C207.962 63.6643 208.601 63.2442 208.963 62.4544Z" fill="white"/>
<path d="M205.806 73.301C205.13 74.7745 204.063 75.6476 202.607 75.9204C201.138 76.1878 199.38 75.8512 197.333 74.9106C195.953 74.2763 194.873 73.5733 194.094 72.8014C193.309 72.0124 192.831 71.1717 192.66 70.2794C192.494 69.3753 192.635 68.4341 193.084 67.4557C193.766 65.9704 194.821 65.0919 196.249 64.8201C197.682 64.5366 199.428 64.8679 201.487 65.8139C202.855 66.4427 203.938 67.1544 204.735 67.9488C205.526 68.726 206.018 69.5661 206.213 70.4692C206.396 71.3668 206.26 72.3108 205.806 73.301ZM203.963 72.4544C204.331 71.6528 204.233 70.8941 203.669 70.1783C203.111 69.4506 202.048 68.7267 200.481 68.0064C198.913 67.2862 197.689 66.9593 196.809 67.0258C195.922 67.0752 195.295 67.5007 194.927 68.3022C194.564 69.092 194.651 69.8454 195.186 70.5623C195.709 71.2738 196.755 71.9897 198.322 72.7099C199.89 73.4302 201.131 73.7651 202.047 73.7147C202.962 73.6643 203.601 73.2442 203.963 72.4544Z" fill="white"/>
<path d="M200.806 84.301C200.13 85.7745 199.063 86.6476 197.607 86.9204C196.138 87.1878 194.38 86.8512 192.333 85.9106C190.953 85.2763 189.873 84.5733 189.094 83.8014C188.309 83.0124 187.831 82.1717 187.66 81.2794C187.494 80.3753 187.635 79.4341 188.084 78.4557C188.766 76.9704 189.821 76.0919 191.249 75.8201C192.682 75.5366 194.428 75.8679 196.487 76.8139C197.855 77.4427 198.938 78.1544 199.735 78.9488C200.526 79.726 201.018 80.5661 201.213 81.4692C201.396 82.3668 201.26 83.3108 200.806 84.301ZM198.963 83.4544C199.331 82.6528 199.233 81.8941 198.669 81.1783C198.111 80.4506 197.048 79.7267 195.481 79.0064C193.913 78.2862 192.689 77.9593 191.809 78.0258C190.922 78.0752 190.295 78.5007 189.927 79.3022C189.564 80.092 189.651 80.8454 190.186 81.5623C190.709 82.2738 191.755 82.9897 193.322 83.7099C194.89 84.4302 196.131 84.7651 197.047 84.7147C197.962 84.6643 198.601 84.2442 198.963 83.4544Z" fill="white"/>
<path d="M195.806 95.301C195.13 96.7745 194.063 97.6476 192.607 97.9204C191.138 98.1878 189.38 97.8512 187.333 96.9106C185.953 96.2763 184.873 95.5733 184.094 94.8014C183.309 94.0124 182.831 93.1717 182.66 92.2794C182.494 91.3753 182.635 90.4341 183.084 89.4557C183.766 87.9704 184.821 87.0919 186.249 86.8201C187.682 86.5366 189.428 86.8679 191.487 87.8139C192.855 88.4427 193.938 89.1544 194.735 89.9488C195.526 90.726 196.018 91.5661 196.213 92.4692C196.396 93.3668 196.26 94.3108 195.806 95.301ZM193.963 94.4544C194.331 93.6528 194.233 92.8941 193.669 92.1783C193.111 91.4506 192.048 90.7267 190.481 90.0064C188.913 89.2862 187.689 88.9593 186.809 89.0258C185.922 89.0752 185.295 89.5007 184.927 90.3022C184.564 91.092 184.651 91.8454 185.186 92.5623C185.709 93.2738 186.755 93.9897 188.322 94.7099C189.89 95.4302 191.131 95.7651 192.047 95.7147C192.962 95.6643 193.601 95.2442 193.963 94.4544Z" fill="white"/>
<path d="M189.178 108.849C189.034 109.163 188.837 109.372 188.588 109.476C188.332 109.563 188.055 109.538 187.758 109.402C187.449 109.26 187.255 109.068 187.178 108.829C187.107 108.577 187.143 108.294 187.287 107.98L188.217 105.953L179.457 101.928L179.972 100.806L180.339 104.196C180.364 104.485 180.318 104.727 180.2 104.921C180.076 105.098 179.915 105.228 179.718 105.313C179.514 105.38 179.306 105.394 179.094 105.355C178.881 105.316 178.696 105.216 178.539 105.056C178.376 104.879 178.281 104.646 178.256 104.356L177.921 101.178C177.889 100.872 177.881 100.576 177.896 100.291C177.9 100 177.949 99.7523 178.043 99.5472C178.159 99.2938 178.328 99.1155 178.548 99.0122C178.756 98.9034 179.015 98.9201 179.324 99.0622L189.28 103.637L190.127 101.791C190.271 101.477 190.459 101.271 190.691 101.174C190.929 101.064 191.202 101.08 191.512 101.222C191.821 101.364 192.017 101.564 192.101 101.821C192.19 102.067 192.162 102.346 192.018 102.66L189.178 108.849Z" fill="white"/>
<path d="M139.565 66.3739C139.649 66.639 139.623 66.8861 139.486 67.1151C139.361 67.3401 139.166 67.4949 138.899 67.5793L137.204 68.1163L137.491 67.5678C137.729 68.4074 137.849 69.1847 137.852 69.8998C137.851 70.6028 137.788 71.2195 137.662 71.7499C137.591 72.011 137.467 72.216 137.291 72.3647C137.102 72.5174 136.895 72.6159 136.672 72.6602C136.448 72.7045 136.241 72.6905 136.051 72.6182C135.844 72.538 135.691 72.4074 135.592 72.2267C135.48 72.05 135.46 71.8109 135.532 71.5096C135.629 71.1078 135.686 70.6056 135.705 70.003C135.708 69.3924 135.587 68.7014 135.343 67.9302C135.152 67.3276 134.922 66.8637 134.651 66.5384C134.381 66.2131 134.085 66.0083 133.765 65.924C133.441 65.8277 133.108 65.8339 132.765 65.9425C132.486 66.031 132.264 66.1676 132.099 66.3525C131.921 66.5414 131.8 66.7985 131.735 67.124C131.658 67.4534 131.643 67.8692 131.69 68.3714L131.858 70.4263C131.951 71.6033 131.785 72.5575 131.359 73.2888C130.934 74.0202 130.239 74.5387 129.274 74.8444C128.525 75.0817 127.803 75.1181 127.108 74.9536C126.401 74.7932 125.77 74.456 125.217 73.9419C124.663 73.4279 124.221 72.7592 123.89 71.9357L124.291 72.2067L122.691 72.7135C122.424 72.798 122.175 72.784 121.944 72.6716C121.7 72.5632 121.536 72.3765 121.452 72.1114C121.372 71.8583 121.401 71.6172 121.538 71.3882C121.659 71.1511 121.852 70.9904 122.119 70.9059L123.719 70.3991L123.534 70.8752C123.383 70.353 123.312 69.7525 123.32 69.0735C123.325 68.3825 123.441 67.7558 123.668 67.1932C123.764 66.9642 123.903 66.7874 124.087 66.6628C124.259 66.5422 124.447 66.4758 124.653 66.4637C124.846 66.4556 125.027 66.4977 125.196 66.5901C125.365 66.6824 125.494 66.827 125.585 67.0238C125.658 67.2126 125.659 67.4576 125.587 67.759C125.481 68.1768 125.434 68.6228 125.444 69.0968C125.442 69.5749 125.536 70.1152 125.726 70.7178C125.97 71.489 126.347 72.0393 126.856 72.3685C127.349 72.6897 127.888 72.7578 128.472 72.5728C128.903 72.4361 129.211 72.1929 129.393 71.8433C129.563 71.4977 129.624 70.9815 129.574 70.2945L129.408 68.1794C129.308 66.9381 129.465 65.9537 129.877 65.2264C130.277 64.5032 130.947 63.9927 131.887 63.6951C132.623 63.4618 133.332 63.4294 134.014 63.5979C134.683 63.7704 135.287 64.1096 135.824 64.6156C136.345 65.1136 136.777 65.7522 137.122 66.5314L136.613 66.3147L138.327 65.7717C138.594 65.6872 138.843 65.7012 139.074 65.8136C139.318 65.922 139.482 66.1087 139.565 66.3739Z" fill="#0C54EA"/>
<path d="M139.836 79.0052C140.325 80.551 140.122 81.9147 139.227 83.0963C138.319 84.2817 136.791 85.2146 134.644 85.8949C133.195 86.3537 131.924 86.5592 130.829 86.5116C129.717 86.4555 128.798 86.1547 128.072 85.6092C127.342 85.0514 126.815 84.2593 126.49 83.2329C125.997 81.6748 126.188 80.315 127.063 79.1535C127.934 77.9797 129.449 77.0507 131.609 76.3665C133.045 75.9117 134.325 75.7104 135.448 75.7626C136.556 75.8063 137.485 76.097 138.236 76.6347C138.974 77.1763 139.508 77.9665 139.836 79.0052ZM137.903 79.6175C137.637 78.7766 137.055 78.2808 136.157 78.13C135.255 77.9668 133.981 78.1457 132.337 78.6666C130.692 79.1875 129.566 79.7687 128.959 80.41C128.335 81.0428 128.157 81.7797 128.423 82.6206C128.685 83.4491 129.255 83.9489 130.133 84.1198C130.998 84.2946 132.253 84.1216 133.898 83.6007C135.542 83.0798 136.686 82.4928 137.33 81.8398C137.975 81.1868 138.165 80.4461 137.903 79.6175Z" fill="#0C54EA"/>
<path d="M143.888 89.169C144.103 89.8495 144.236 90.5705 144.285 91.3319C144.334 92.0934 144.272 92.8266 144.098 93.5316C144.026 93.8228 143.904 94.045 143.733 94.1979C143.546 94.342 143.347 94.4263 143.136 94.4508C142.908 94.4665 142.703 94.4253 142.522 94.3275C142.324 94.2207 142.18 94.0685 142.09 93.8709C141.996 93.6605 141.977 93.4052 142.032 93.105C142.143 92.5472 142.19 92.0026 142.173 91.4713C142.155 90.9399 142.059 90.3982 141.884 89.8461C141.714 89.3068 141.474 88.8741 141.166 88.548C140.857 88.2219 140.502 88.0093 140.101 87.9103C139.7 87.8113 139.276 87.8327 138.828 87.9746C138.131 88.1954 137.64 88.591 137.355 89.1616C137.058 89.7362 137.029 90.4023 137.268 91.1599C137.398 91.5708 137.593 91.9472 137.852 92.289C138.098 92.6348 138.442 92.9427 138.883 93.2126C139.019 93.2966 139.165 93.4127 139.322 93.561C139.466 93.7131 139.57 93.892 139.635 94.0974C139.737 94.4184 139.733 94.688 139.624 94.9062C139.515 95.1244 139.318 95.2788 139.031 95.3694L132.928 97.3029C132.592 97.4094 132.308 97.4003 132.077 97.2757C131.829 97.1422 131.651 96.9021 131.541 96.5554L129.536 90.2185C129.427 89.8718 129.43 89.581 129.548 89.346C129.649 89.1022 129.861 88.929 130.184 88.8265C130.495 88.728 130.769 88.7474 131.004 88.8848C131.235 89.0094 131.405 89.2451 131.515 89.5918L133.099 94.5996L137.28 93.2752L137.482 93.9108C136.94 93.7149 136.464 93.3783 136.053 92.9011C135.642 92.4238 135.333 91.8578 135.126 91.2029C134.853 90.3426 134.798 89.5406 134.96 88.7971C135.105 88.0447 135.441 87.3946 135.966 86.8469C136.474 86.2903 137.145 85.8799 137.979 85.6158C138.838 85.3438 139.66 85.3024 140.445 85.4915C141.218 85.6846 141.909 86.0944 142.518 86.7209C143.11 87.3385 143.567 88.1545 143.888 89.169Z" fill="#0C54EA"/>
<path d="M148.015 102.728C148.119 103.057 148.114 103.344 147.999 103.59C147.868 103.826 147.647 103.994 147.335 104.093C147.01 104.195 146.739 104.184 146.521 104.058C146.298 103.92 146.135 103.686 146.031 103.357L145.358 101.231L136.167 104.142L135.795 102.965L138.344 105.228C138.557 105.425 138.685 105.635 138.729 105.858C138.755 106.072 138.724 106.277 138.635 106.472C138.529 106.659 138.384 106.809 138.201 106.923C138.017 107.037 137.813 107.088 137.59 107.075C137.349 107.054 137.123 106.944 136.909 106.747L134.527 104.62C134.297 104.414 134.092 104.2 133.912 103.979C133.72 103.761 133.59 103.545 133.522 103.33C133.437 103.064 133.442 102.819 133.536 102.594C133.617 102.374 133.82 102.212 134.144 102.109L144.59 98.8006L143.977 96.8642C143.873 96.5351 143.874 96.2563 143.98 96.0277C144.082 95.7865 144.295 95.6145 144.62 95.5117C144.944 95.409 145.224 95.4248 145.459 95.5593C145.69 95.6812 145.857 95.9066 145.961 96.2357L148.015 102.728Z" fill="#0C54EA"/>
<path d="M177.168 194.593C195.102 186.669 203.215 165.707 195.291 147.774C187.366 129.84 166.404 121.727 148.471 129.651C130.538 137.576 122.424 158.538 130.349 176.471C138.273 194.404 159.235 202.518 177.168 194.593Z" fill="#8ABBFD"/>
<path d="M191.617 172.103C197.121 156.183 188.676 138.815 172.756 133.312C156.835 127.809 139.468 136.253 133.965 152.174C128.461 168.094 136.906 185.461 152.826 190.965C168.747 196.468 186.114 188.023 191.617 172.103Z" fill="#0C46BE"/>
<path d="M174.8 162C175.64 147.951 174.206 126.785 163.276 100C152.673 126.766 151.337 147.902 152.228 162H174.8Z" fill="#8ABBFD"/>
<path d="M172.838 162C173.547 148.872 172.188 129.997 163.509 106C154.821 129.997 153.453 148.872 154.161 162H172.838Z" fill="#0C46BE"/>
<path d="M167.242 162C167.994 156.208 168.29 149.628 167.648 142.446C167.005 135.322 165.59 129.112 164.008 124C162.425 129.131 161.011 135.342 160.368 142.446C159.715 149.618 159.992 156.198 160.724 162H167.242Z" fill="white"/>
<path d="M179 162C179 170.841 171.841 178 163 178C154.159 178 147 170.831 147 162C147 153.159 154.159 146 163 146C171.841 146 179 153.169 179 162Z" fill="#0C54EA"/>
<path d="M162.5 173C156.711 173 152 168.289 152 162.5C152 156.711 156.711 152 162.5 152C168.289 152 173 156.711 173 162.5C173 168.289 168.289 173 162.5 173Z" fill="white"/>
<path d="M169 162.5C169 165.538 166.538 168 163.5 168C160.462 168 158 165.538 158 162.5C158 159.462 160.462 157 163.5 157C166.538 157 169 159.462 169 162.5Z" fill="#0C54EA"/>
</svg>
