<svg width="120" height="152" viewBox="0 0 120 152" fill="none" xmlns="http://www.w3.org/2000/svg">
<g opacity="0.2">
<path d="M57.5 151.5C89.2564 151.5 115 146.799 115 141C115 135.201 89.2564 130.5 57.5 130.5C25.7436 130.5 0 135.201 0 141C0 146.799 25.7436 151.5 57.5 151.5Z" fill="#000072"/>
</g>
<path d="M64 135.495C81.5812 135.871 90.9132 142.5 99.2161 142.5C105.39 142.5 109.057 137.576 109.838 132.121C109.846 132.079 109.851 132.04 109.857 131.997C109.857 131.995 109.857 131.995 109.857 131.995C110.049 130.587 110.049 129.148 109.849 127.748C108.459 118.005 99.9422 118.283 97.0543 120.72C97.0543 120.72 97.0433 120.697 97.0217 120.652C96.5475 119.744 91.1406 109.989 80.3914 117.046C79.8309 117.411 79.2563 117.826 78.6657 118.288L64 135.495Z" fill="#5F5F82"/>
<path d="M93 141.432C95.2666 142.077 97.3595 142.5 99.3916 142.5C105.465 142.5 109.073 137.408 109.84 131.768C109.849 131.724 109.854 131.683 109.86 131.639C109.86 131.637 109.86 131.637 109.86 131.637C110.048 130.18 110.048 128.691 109.852 127.244C108.486 117.177 100.121 117.458 97.2741 119.971C97.2696 119.975 97.2672 119.978 97.2672 119.978C97.2672 119.978 93.77 123.13 94.3164 133.77C94.506 137.459 93.8554 139.867 93 141.432Z" fill="#FFAD40"/>
<path d="M93 141.432C95.2666 142.077 97.3595 142.5 99.3916 142.5C105.465 142.5 109.073 137.408 109.84 131.768C109.849 131.724 109.854 131.683 109.86 131.639C109.86 131.637 109.86 131.637 109.86 131.637C110.048 130.18 110.048 128.691 109.852 127.244C108.486 117.177 100.121 117.458 97.2741 119.971C97.2696 119.975 97.2672 119.978 97.2672 119.978C97.2672 119.978 93.77 123.13 94.3164 133.77C94.506 137.459 93.8554 139.867 93 141.432Z" fill="#5F5F82"/>
<g opacity="0.4">
<path d="M94 128.038C94 128.038 95.9189 119.655 102.441 121.188C107.124 122.289 108.465 128.067 108.847 131.5C108.855 131.458 108.86 131.418 108.865 131.375C108.865 131.372 108.865 131.372 108.865 131.372C109.046 129.946 109.046 128.487 108.858 127.069C107.551 117.196 99.5383 117.478 96.8215 119.948C96.8215 119.948 96.8112 119.924 96.7909 119.879C95.3175 121.587 94.2521 124.177 94 128.038Z" fill="white"/>
</g>
<g opacity="0.2">
<path d="M64 135.396C81.2527 135.776 90.4104 142.5 98.5581 142.5C104.662 142.5 108.269 137.431 109 131.848C108.405 133.27 105.85 138.456 100.297 138.103C93.9091 137.697 93.6377 126.982 93.6377 126.982C93.6377 126.982 90.2941 134.319 87.5695 132.146C84.8449 129.97 89.0365 122.212 86.988 116.293C86.3035 114.316 84.1477 116.654 80.0856 116.684C79.5356 117.054 78.9718 117.475 78.3922 117.943L64 135.396Z" fill="#000072"/>
</g>
<path d="M98.566 144.5C95.0425 144.5 91.3643 143.264 87.1054 141.834C81.2436 139.866 73.9484 137.415 64 137.188L64.0379 135.42C74.2389 135.653 81.6675 138.148 87.636 140.152C91.7562 141.536 95.3142 142.732 98.566 142.732C101.205 142.732 103.516 141.647 105.249 139.595C107.594 136.819 108.703 132.505 108.145 128.338C107.475 123.338 105.123 121.434 103.267 120.717C100.844 119.781 98.2332 120.446 97.0075 121.548L96.1535 122.316L95.6696 121.259C95.6484 121.213 93.4205 116.488 89.0503 115.468C86.0214 114.761 82.6219 115.958 78.9468 119.029L77.8678 117.654C81.9781 114.22 85.8728 112.906 89.4441 113.746C93.3885 114.675 95.771 117.968 96.7309 119.592C98.5055 118.525 101.256 118.051 103.869 119.061C105.745 119.785 109.017 121.923 109.843 128.095C110.467 132.755 109.202 137.607 106.542 140.757C104.474 143.206 101.715 144.5 98.566 144.5Z" fill="#000072"/>
<path d="M97.7546 120.983L97.3925 121.427L97.2096 121.649L97.0482 121.89C96.9408 122.052 96.8294 122.211 96.7238 122.375L96.4368 122.892C96.0715 123.593 95.7545 124.338 95.5298 125.126C95.2973 125.909 95.1235 126.722 95.0135 127.548C94.9056 128.369 94.8497 129.227 94.8738 130.034L94.8743 130.059C94.8815 130.294 94.71 130.492 94.4912 130.5C94.2843 130.507 94.1091 130.34 94.0855 130.121C93.9877 129.209 93.9818 128.336 94.0277 127.441C94.0773 126.552 94.1956 125.663 94.3839 124.784C94.564 123.902 94.8497 123.039 95.205 122.204L95.4888 121.583C95.5948 121.382 95.7094 121.186 95.8204 120.986L95.9887 120.688L96.1816 120.407L96.5714 119.843C96.8339 119.465 97.3311 119.387 97.6818 119.671C98.0325 119.954 98.1044 120.492 97.8419 120.87C97.8292 120.889 97.8165 120.906 97.8028 120.922L97.7546 120.983Z" fill="#000072"/>
<path d="M102 137.5C104.209 137.5 106 135.485 106 133C106 130.515 104.209 128.5 102 128.5C99.7909 128.5 98 130.515 98 133C98 135.485 99.7909 137.5 102 137.5Z" fill="white"/>
<path d="M98.5 128.5C99.3284 128.5 100 127.828 100 127C100 126.172 99.3284 125.5 98.5 125.5C97.6716 125.5 97 126.172 97 127C97 127.828 97.6716 128.5 98.5 128.5Z" fill="white"/>
<path d="M105.5 129.5C106.328 129.5 107 128.828 107 128C107 127.172 106.328 126.5 105.5 126.5C104.672 126.5 104 127.172 104 128C104 128.828 104.672 129.5 105.5 129.5Z" fill="white"/>
<path d="M101.5 127.5C102.328 127.5 103 126.828 103 126C103 125.172 102.328 124.5 101.5 124.5C100.672 124.5 100 125.172 100 126C100 126.828 100.672 127.5 101.5 127.5Z" fill="white"/>
<path d="M31.2577 96.4659C37.9056 96.8551 46.2452 93.8668 48.1258 90.0777C51.0036 84.2801 54 77.6407 54 77.6407C54 77.6407 33.4795 80.2457 27 70.5" fill="#5F5F82"/>
<g opacity="0.2">
<path d="M55 77.561C55 77.561 53.2794 81.2422 51.1762 85.5C42.3856 83.9785 35.7206 80.1732 34 75.5C42.7661 79.0607 55 77.561 55 77.561Z" fill="#000072"/>
</g>
<path d="M79 81.7418C76.6614 83.3218 73.5888 84.6166 70.0339 85.5L67 81.0119C67 81.0119 73.2456 80.0492 76.3774 80.7642C76.9415 80.8937 77.866 81.2239 79 81.7418Z" fill="#545468"/>
<path d="M77 81.3347C72.4201 83.892 65.7909 85.5 58.4158 85.5C51.1328 85.5 44.574 83.9314 40 81.4279C42.9674 78.0137 48.7413 73.5 58.5411 73.5C68.2513 73.5 74.0096 77.9314 77 81.3347Z" fill="#545468"/>
<path d="M47 91.5035C44.3848 94.5508 37.3893 96.7962 31.7005 96.4682L31 92.2565C33.8928 92.6181 37.1571 92.5864 40.8429 92.031C43.4865 91.6321 45.4993 91.4737 47 91.5035Z" fill="#5F5F82"/>
<path d="M33 92.2321L32.1874 96.5C13.6899 94.9735 9.36647 82.4786 9 72.5C9 72.502 9.00199 72.5039 9.00199 72.5059C10.3424 76.9347 15.7831 90.9405 33 92.2321Z" fill="#545468"/>
<g opacity="0.2">
<path d="M47 91.5035C44.3848 94.5508 37.3893 96.7962 31.7005 96.4682L31 92.2565C33.8928 92.6181 37.1571 92.5864 40.8429 92.031C43.4865 91.6321 45.4993 91.4737 47 91.5035Z" fill="#000072"/>
</g>
<path d="M32.2192 97.5C31.8134 97.5 31.4149 97.4888 31.0239 97.4665C30.5505 97.4394 30.189 97.0396 30.2166 96.5738C30.2442 96.108 30.6526 95.7524 31.124 95.7796C37.4859 96.1434 45.3528 93.2974 47.0029 90.0283C49.0444 85.9833 51.1679 81.4707 52.1862 79.2825C47.2529 79.677 31.805 80.1864 26.1438 71.8127C25.881 71.4241 25.9885 70.8996 26.3835 70.6415C26.7785 70.3829 27.3116 70.4887 27.5739 70.8773C33.6173 79.8167 53.2804 77.483 53.4787 77.4583L55 77.2691L54.3693 78.6441C54.3397 78.7086 51.3641 85.1862 48.5409 90.7793C46.5112 94.8019 38.5545 97.5 32.2192 97.5Z" fill="#000072"/>
<path d="M78 83.4384C72.9048 86.5628 65.8265 88.5 57.9988 88.5C50.1735 88.5 43.0952 86.5628 38 83.4384C40.4324 79.9125 46.4467 73.5 57.9988 73.5C69.5508 73.4995 75.5651 79.912 78 83.4384Z" fill="#545468"/>
<path d="M54 135.495C36.4188 135.871 27.0868 142.5 18.7839 142.5C12.6102 142.5 8.94253 137.576 8.16222 132.121C8.15419 132.079 8.14868 132.04 8.14316 131.997C8.14316 131.995 8.14316 131.995 8.14316 131.995C7.95096 130.587 7.95096 129.148 8.15118 127.748C9.54068 118.005 18.0578 118.283 20.9457 120.72C20.9457 120.72 20.9567 120.697 20.9783 120.652C21.4525 119.744 26.8594 109.989 37.6086 117.046C38.1691 117.411 38.7437 117.826 39.3343 118.288L54 135.495Z" fill="#5F5F82"/>
<path d="M25 141.432C22.7334 142.077 20.6405 142.5 18.6084 142.5C12.5351 142.5 8.92737 137.408 8.15982 131.768C8.15094 131.724 8.1465 131.683 8.13959 131.639C8.13959 131.637 8.13959 131.637 8.13959 131.637C7.95202 130.18 7.95202 128.691 8.14847 127.244C9.51426 117.177 17.8788 117.458 20.7259 119.971C20.7304 119.975 20.7328 119.978 20.7328 119.978C20.7328 119.978 24.23 123.13 23.6836 133.77C23.494 137.459 24.1441 139.867 25 141.432Z" fill="#FFAD40"/>
<path d="M25 141.432C22.7334 142.077 20.6405 142.5 18.6084 142.5C12.5351 142.5 8.92737 137.408 8.15982 131.768C8.15094 131.724 8.1465 131.683 8.13959 131.639C8.13959 131.637 8.13959 131.637 8.13959 131.637C7.95202 130.18 7.95202 128.691 8.14847 127.244C9.51426 117.177 17.8788 117.458 20.7259 119.971C20.7304 119.975 20.7328 119.978 20.7328 119.978C20.7328 119.978 24.23 123.13 23.6836 133.77C23.494 137.459 24.1441 139.867 25 141.432Z" fill="#5F5F82"/>
<g opacity="0.4">
<path d="M23 128.038C23 128.038 21.0811 119.655 14.5595 121.188C9.87565 122.289 8.53498 128.067 8.15261 131.5C8.14506 131.458 8.13986 131.418 8.13467 131.375C8.13467 131.372 8.13467 131.372 8.13467 131.372C7.95387 129.946 7.95387 128.487 8.14222 127.069C9.44937 117.196 17.4617 117.478 20.1785 119.948C20.1785 119.948 20.1889 119.924 20.2092 119.879C21.6825 121.587 22.7479 124.177 23 128.038Z" fill="white"/>
</g>
<path d="M53 135.396C35.7473 135.776 26.5896 142.5 18.4419 142.5C12.3383 142.5 8.73125 137.431 8 131.848C8.59534 133.27 11.1501 138.456 16.7032 138.103C23.0909 137.697 23.3623 126.982 23.3623 126.982C23.3623 126.982 26.7058 134.319 29.4304 132.146C32.155 129.97 27.9635 122.212 30.012 116.293C30.6965 114.316 32.8523 116.654 36.9144 116.684C37.4644 117.054 38.0282 117.475 38.6078 117.943L53 135.396Z" fill="#5F5F82"/>
<g opacity="0.2">
<path d="M51 133.486C35.096 134.306 26.3745 140.5 18.5842 140.5C14.6423 140.5 11.7467 138.371 10 135.355C11.4056 136.883 13.4915 138.238 16.4101 138.051C20.5697 137.787 22.1223 133.119 22.6987 129.923C23.0045 128.233 23.0379 126.955 23.0379 126.955C23.0379 126.955 23.1104 127.117 23.2437 127.382C24.0102 128.916 26.7666 133.955 29.0775 132.108C29.7499 131.568 29.9989 130.688 30.0243 129.58C30.1028 126.226 28.1404 120.78 29.6362 116.35C29.6421 116.33 29.6499 116.31 29.6558 116.291C30.3361 114.32 32.4827 116.651 36.5247 116.681C37.0736 117.051 37.6343 117.47 38.2106 117.939L51 133.486Z" fill="#000072"/>
</g>
<path d="M18.434 144.5C15.2846 144.5 12.5265 143.206 10.458 140.756C7.79742 137.606 6.53282 132.755 7.157 128.095C7.98398 121.923 11.255 119.785 13.1315 119.06C15.7439 118.051 18.4941 118.525 20.2691 119.592C21.2295 117.968 23.6115 114.674 27.556 113.746C31.1277 112.906 35.0219 114.22 39.1323 117.654L38.0532 119.029C34.3776 115.958 30.9781 114.761 27.9498 115.468C23.5795 116.488 21.3516 121.213 21.3299 121.26L20.8441 122.312L19.9925 121.548C18.7668 120.446 16.1569 119.781 13.733 120.716C11.8777 121.434 9.52523 123.337 8.85527 128.337C8.29657 132.505 9.4061 136.818 11.7507 139.594C13.4839 141.646 15.795 142.731 18.434 142.731C21.6858 142.731 25.2438 141.535 29.364 140.151C35.3326 138.147 42.7612 135.652 52.9621 135.419L53 137.187C43.0516 137.414 35.7564 139.865 29.8946 141.833C25.6357 143.265 21.9576 144.5 18.434 144.5Z" fill="#000072"/>
<path d="M21.4286 119.844L21.8184 120.407L22.0117 120.689L22.18 120.987C22.291 121.186 22.4056 121.383 22.5116 121.584L22.7954 122.204C23.1506 123.04 23.4363 123.903 23.6159 124.784C23.8042 125.663 23.9225 126.552 23.9721 127.442C24.0185 128.337 24.0121 129.209 23.9143 130.122C23.8893 130.356 23.6928 130.524 23.4759 130.497C23.2703 130.472 23.1197 130.28 23.1256 130.06L23.1265 130.034C23.1506 129.226 23.0947 128.369 22.9869 127.548C22.8768 126.722 22.7031 125.909 22.4707 125.126C22.2464 124.338 21.929 123.593 21.5642 122.892L21.2772 122.375C21.1721 122.211 21.0602 122.052 20.9529 121.89L20.7914 121.649L20.6086 121.427L20.2465 120.983L20.1983 120.924C19.9086 120.569 19.9399 120.027 20.2688 119.714C20.5972 119.401 21.0984 119.435 21.3886 119.79C21.4022 119.808 21.4163 119.826 21.4286 119.844Z" fill="#000072"/>
<path d="M87.6685 120.181C87.6685 120.181 86.8857 124.285 85.2322 126.963C85.2084 127.001 85.1846 127.039 85.1612 127.075C82.858 130.754 79.2114 133.381 75.0174 134.498C71.4259 135.457 66.0217 136.5 59.5 136.5C52.8954 136.5 47.4346 135.43 43.8427 134.462C39.8288 133.378 36.3203 130.882 34.0453 127.4C33.9529 127.258 33.8601 127.111 33.7678 126.964C32.1143 124.285 31.3315 120.182 31.3315 120.182C30.9612 118.329 30.843 115.425 31.2818 111.461C31.7921 106.812 33.0728 100.701 35.6114 93.1093C36.3897 90.7797 37.2887 88.3102 38.3207 85.6982C38.3207 85.6982 43.5066 73.5 59.5005 73.5C75.4944 73.5 80.6803 85.6982 80.6803 85.6982C81.7123 88.3102 82.6112 90.7797 83.3896 93.1093C85.9282 100.701 87.2089 106.812 87.7192 111.461C88.157 115.425 88.0384 118.329 87.6685 120.181Z" fill="white"/>
<path d="M87.6685 120.181C87.6685 120.181 86.8857 124.285 85.2322 126.963C85.2084 127.001 85.1846 127.039 85.1612 127.075C82.858 130.754 79.2114 133.381 75.0174 134.498C71.4259 135.457 66.0217 136.5 59.5 136.5C52.8954 136.5 47.4346 135.43 43.8427 134.462C39.8288 133.378 36.3203 130.882 34.0453 127.4C33.9529 127.258 33.8601 127.111 33.7678 126.964C32.1143 124.285 31.3315 120.182 31.3315 120.182C30.9612 118.329 30.843 115.425 31.2818 111.461C31.7326 107.354 32.7834 102.112 34.7715 95.714C35.0346 94.8672 35.3145 93.999 35.6114 93.1094C36.3897 90.7799 37.2887 88.3103 38.3207 85.6983C38.3207 85.6983 43.5066 73.5 59.5005 73.5C75.4944 73.5 80.6803 85.6983 80.6803 85.6983C81.7123 88.3103 82.6112 90.7799 83.3896 93.1094C83.6859 93.999 83.9659 94.8672 84.2295 95.714C86.2176 102.112 87.2684 107.355 87.7192 111.461C88.157 115.425 88.0384 118.329 87.6685 120.181Z" fill="white"/>
<g opacity="0.2">
<path d="M87.6686 121.207C87.6686 121.207 86.8858 125.304 85.2323 127.978C85.2085 128.016 85.1846 128.054 85.1613 128.09C82.858 131.763 79.2115 134.386 75.0174 135.501C71.426 136.458 66.0217 137.5 59.5 137.5C52.8955 137.5 47.4346 136.432 43.8427 135.465C39.8288 134.383 36.3203 131.891 34.0453 128.414C33.9529 128.272 33.8601 128.125 33.7678 127.979C32.1143 125.304 31.3315 121.207 31.3315 121.207C30.9612 119.357 30.843 116.458 31.2818 112.5C31.321 112.557 32.0269 113.562 33.389 115.028C47.4505 130.165 71.5501 130.165 85.6115 115.028C86.9737 113.562 87.68 112.557 87.7188 112.5C88.1571 116.458 88.0384 119.357 87.6686 121.207Z" fill="#000072"/>
</g>
<path d="M83 95.0594C74.0006 99.2614 62.5711 100.5 58.5 100.5C54.4294 100.5 42.9994 99.2614 34 95.0594C34.2607 94.2375 34.538 93.3949 34.8321 92.5316C35.6033 90.2707 36.2588 87.8739 37.2813 85.3389C37.2813 85.3389 42.6542 73.5 58.5 73.5C74.3458 73.5 79.7187 85.3389 79.7187 85.3389C80.7412 87.8739 81.3967 90.2707 82.1679 92.5316C82.462 93.3949 82.7393 94.2375 83 95.0594Z" fill="#5F5F82"/>
<g opacity="0.2">
<path d="M77 81.3347C72.4201 83.892 65.7909 85.5 58.4158 85.5C51.1328 85.5 44.574 83.9314 40 81.4279C42.9674 78.0137 48.7413 73.5 58.5411 73.5C68.2513 73.5 74.0096 77.9314 77 81.3347Z" fill="#000072"/>
</g>
<path d="M82.943 92.7727C84.0094 95.0768 84.9769 97.4227 85.7778 99.8196C86.5961 102.211 87.2981 104.64 87.8397 107.105C87.9893 107.717 88.086 108.342 88.212 108.96C88.3386 109.578 88.4314 110.202 88.5298 110.825C88.6305 111.448 88.6952 112.076 88.7683 112.703C88.8526 113.328 88.8853 113.961 88.9297 114.591C88.9741 115.22 88.9814 115.855 89 116.486C88.9809 117.121 88.9944 117.752 88.9415 118.388C88.8583 119.654 88.703 120.928 88.3223 122.174C88.2503 122.411 87.9797 122.549 87.7182 122.484C87.4825 122.425 87.3346 122.22 87.361 122.007L87.3622 122C87.5073 120.804 87.5309 119.586 87.4763 118.368C87.4735 117.761 87.4077 117.15 87.374 116.543C87.3054 115.934 87.2699 115.325 87.1861 114.717C87.0281 113.502 86.8689 112.286 86.6383 111.077C86.4369 109.864 86.1855 108.656 85.9212 107.451C85.411 105.036 84.7642 102.641 84.1073 100.245C83.4566 97.8469 82.6995 95.4709 82.0178 93.0633L82.0156 93.0556C81.9481 92.8176 82.1061 92.5754 82.3688 92.5143C82.6073 92.4582 82.8502 92.5724 82.943 92.7727Z" fill="#000072"/>
<path d="M29.6696 122.172C29.2934 120.925 29.1374 119.652 29.0569 118.386C29.0017 117.75 29.0186 117.119 29 116.484C29.0045 116.168 29.0141 115.852 29.0253 115.536C29.036 115.22 29.0428 114.903 29.0698 114.589C29.2219 112.066 29.6246 109.569 30.154 107.103C30.2931 106.488 30.4378 105.874 30.5877 105.261L31.0737 103.432C31.2415 102.823 31.4398 102.222 31.6211 101.618L31.8993 100.713L32.2102 99.8164C33.0105 97.4191 33.9821 95.0743 35.0561 92.7718C35.162 92.5455 35.4498 92.4395 35.6998 92.5353C35.9268 92.622 36.0439 92.8447 35.9848 93.0542L35.9825 93.0624C35.3067 95.4714 34.5509 97.8483 33.8981 100.246C33.7275 100.844 33.563 101.443 33.4059 102.042C33.2499 102.642 33.077 103.239 32.9351 103.841L32.4828 105.642L32.0734 107.45C31.5367 109.859 31.0996 112.284 30.7994 114.716C30.7149 115.324 30.6834 115.932 30.6108 116.542C30.577 117.149 30.5144 117.76 30.5094 118.367C30.4581 119.585 30.4812 120.803 30.631 121.998L30.6316 122.005C30.662 122.249 30.4683 122.469 30.1985 122.497C29.9546 122.521 29.7322 122.38 29.6696 122.172Z" fill="#000072"/>
<path d="M78.7558 133.177C77.9536 133.494 77.1572 133.755 76.3398 134.001C75.5253 134.243 74.7049 134.474 73.8762 134.679C72.2163 135.084 70.5343 135.429 68.8322 135.692C65.4305 136.228 61.9654 136.484 58.4999 136.5C55.0344 136.484 51.5694 136.227 48.1676 135.692C46.4655 135.429 44.7835 135.084 43.1236 134.679C42.2944 134.474 41.4745 134.243 40.66 134.001C39.8431 133.755 39.0463 133.494 38.244 133.177C38.0306 133.093 37.9403 132.881 38.0414 132.703C38.1361 132.537 38.3647 132.461 38.5684 132.52L38.5836 132.525C38.9663 132.638 39.374 132.747 39.7764 132.846C40.1777 132.952 40.584 133.05 40.9903 133.145C41.8048 133.331 42.6232 133.507 43.4489 133.656C45.0951 133.972 46.7545 134.236 48.4233 134.446C50.0944 134.638 51.7666 134.828 53.4501 134.914C54.2896 134.977 55.132 135.001 55.9735 135.038C56.815 135.069 57.6584 135.063 58.5004 135.078C59.3424 135.063 60.1858 135.069 61.0273 135.038C61.8688 135.001 62.7112 134.977 63.5508 134.914C65.2342 134.828 66.9064 134.638 68.5776 134.446C70.2463 134.236 71.9057 133.972 73.5519 133.656C74.3777 133.507 75.1961 133.331 76.0106 133.145C76.4163 133.05 76.8226 132.952 77.224 132.846C77.6263 132.747 78.034 132.638 78.4168 132.525L78.43 132.521C78.6523 132.455 78.8966 132.552 78.9756 132.737C79.0492 132.91 78.9506 133.099 78.7558 133.177Z" fill="#000072"/>
<path d="M15 137.5C17.2091 137.5 19 135.485 19 133C19 130.515 17.2091 128.5 15 128.5C12.7909 128.5 11 130.515 11 133C11 135.485 12.7909 137.5 15 137.5Z" fill="white"/>
<path d="M18.5 128.5C19.3284 128.5 20 127.828 20 127C20 126.172 19.3284 125.5 18.5 125.5C17.6716 125.5 17 126.172 17 127C17 127.828 17.6716 128.5 18.5 128.5Z" fill="white"/>
<path d="M12.5 129.5C13.3284 129.5 14 128.828 14 128C14 127.172 13.3284 126.5 12.5 126.5C11.6716 126.5 11 127.172 11 128C11 128.828 11.6716 129.5 12.5 129.5Z" fill="white"/>
<path d="M14.5 127.5C15.3284 127.5 16 126.828 16 126C16 125.172 15.3284 124.5 14.5 124.5C13.6716 124.5 13 125.172 13 126C13 126.828 13.6716 127.5 14.5 127.5Z" fill="white"/>
<path d="M76.836 96.4784C78.2599 101.479 78.0088 108.804 78.0088 108.804C83.1557 112.09 91.9193 110.6 93.5217 104.342C97.0559 90.5398 79.9593 81.6298 76.4687 80.7836C73.3068 80.0168 67 81.0479 67 81.0479L76.836 96.4784Z" fill="#686779"/>
<path d="M93.5218 104.342C91.9198 110.599 83.155 112.091 78.0095 108.804C78.0095 108.804 78.1183 105.626 77.786 102.027C77.612 100.163 77.3212 98.1861 76.8347 96.4796L67 81.0475C67 81.0475 73.3065 80.0164 76.4689 80.7842C79.5541 81.532 93.2607 88.5746 93.9707 99.7253C94.0657 101.195 93.9332 102.737 93.5218 104.342Z" fill="#5F5F82"/>
<g opacity="0.2">
<path d="M92.5281 103.213C90.9473 109.601 82.2982 111.124 77.2205 107.769C77.2205 107.769 77.3279 104.524 77 100.849C79.7655 101.05 83.0632 101.717 84.4879 103.652C86.5039 106.394 92.7486 105.659 92.9711 98.5C93.0648 100 92.934 101.574 92.5281 103.213Z" fill="#000072"/>
</g>
<g opacity="0.2">
<path d="M79 81.7418C76.6614 83.3218 73.5888 84.6166 70.0339 85.5L67 81.0119C67 81.0119 73.2456 80.0492 76.3774 80.7642C76.9415 80.8937 77.866 81.2239 79 81.7418Z" fill="#000072"/>
</g>
<path d="M82.5922 111.5C80.2739 111.5 77.959 110.873 76.1237 109.662L75.7149 109.392L75.7318 108.884C75.7342 108.812 75.955 101.579 74.6209 96.7351C74.4922 96.267 74.7486 95.7777 75.1939 95.6424C75.6398 95.5066 76.1044 95.7772 76.2335 96.2442C77.4428 100.635 77.45 106.614 77.4216 108.419C80.0546 109.951 83.6684 110.182 86.5752 108.97C88.8207 108.034 90.35 106.338 90.8807 104.195C91.8109 100.438 91.2552 96.7351 89.229 93.1901C85.1934 86.1301 76.7748 82.0021 74.8749 81.5254C71.9917 80.8025 66.0326 81.7944 65.9728 81.805C65.5154 81.8825 65.0846 81.5553 65.0108 81.074C64.9371 80.5933 65.2484 80.1404 65.7063 80.0629C65.9641 80.0194 72.0568 79.0047 75.2643 79.8091C77.3946 80.3436 86.299 84.6383 90.6677 92.2813C92.9348 96.2483 93.5532 100.406 92.5049 104.639C91.836 107.34 89.95 109.461 87.1941 110.609C85.7597 111.207 84.1755 111.5 82.5922 111.5Z" fill="#000072"/>
<path d="M83.6437 28.44C77.8423 22.6682 78.477 18.2494 80.2135 15.4275C82.4073 11.8628 86.0835 7.9052 91.3833 8.57467C98.9353 9.52869 103.911 16.3002 101.297 23.6292C99.7348 28.0089 96.8421 30.4188 94.1919 31.7442C91.2152 33.2327 87.9429 32.7167 83.6437 28.44Z" fill="#5F5F82"/>
<g opacity="0.2">
<path d="M83.8411 28.3241C88.3262 32.7224 91.7369 33.2531 94.8425 31.7236C97.0004 30.6583 99.3134 28.9141 101 26.054L100.997 26.0514C100.997 26.0514 96.0948 29.3745 93.2263 25.0743C91.0142 21.7605 86.2879 15.0709 80.55 14.5C80.4516 14.6456 80.3574 14.7937 80.2662 14.9398C78.4554 17.8433 77.7915 22.3871 83.8411 28.3241Z" fill="#000072"/>
</g>
<g opacity="0.3">
<path d="M77 18.5438C79.2461 14.7688 83.3305 10.0382 89.4452 10.7688C95.8414 11.5337 100.503 15.9964 100.743 21.5C102.197 15.0741 97.3299 9.42125 90.2127 8.57166C82.8361 7.69173 78.5552 15.1411 77 18.5438Z" fill="white"/>
</g>
<path d="M77.0133 18.4627C77.5736 16.2421 78.7081 14.2088 80.1646 12.4223C80.8891 11.5251 81.701 10.6817 82.6192 9.94795C83.0785 9.58109 83.5668 9.24662 84.0747 8.93956C84.5904 8.64497 85.1214 8.36882 85.6847 8.16146C86.8019 7.73129 88.0074 7.50548 89.2041 7.5C89.5027 7.50897 89.8032 7.50249 90.0993 7.53788L90.5444 7.57876L90.9748 7.64306C91.5489 7.72431 92.1161 7.8569 92.6775 8.00793C93.7986 8.31997 94.8835 8.77706 95.9018 9.35877C96.921 9.93998 97.8568 10.6752 98.6922 11.5151C100.345 13.2084 101.529 15.4355 101.87 17.8287C102.062 19.019 102.03 20.2372 101.847 21.4176C101.672 22.603 101.272 23.7375 100.816 24.8027C100.333 25.8669 99.757 26.8942 99.0574 27.8363C98.3486 28.7704 97.5348 29.6228 96.6342 30.364C94.8316 31.8524 92.7039 32.8713 90.4929 33.4705C90.0375 33.5941 89.5698 33.3184 89.4482 32.8549C89.3267 32.3918 89.5978 31.9163 90.0532 31.7926L90.0591 31.7911C92.0617 31.2483 93.9697 30.3291 95.5606 29.0142C96.3567 28.3587 97.0725 27.6085 97.6985 26.7856C98.3152 25.9541 98.8246 25.0434 99.2575 24.0939C99.6698 23.1253 100.013 22.1528 100.162 21.137C100.318 20.1276 100.346 19.0978 100.183 18.0953C99.8884 16.0821 98.8824 14.2133 97.4602 12.7673C96.0268 11.3212 94.1781 10.3113 92.2068 9.78147C91.2195 9.52725 90.1885 9.3503 89.2144 9.35179C88.229 9.35977 87.2529 9.5442 86.3298 9.9011C84.4708 10.6019 82.8521 11.9642 81.498 13.5613C81.1578 13.9616 80.8347 14.3798 80.5264 14.8115C80.2155 15.2411 79.9092 15.6768 79.6106 16.1209C78.9993 17.0017 78.4262 17.9159 77.7918 18.8221L77.7874 18.8281C77.6486 19.0265 77.378 19.0728 77.1829 18.9318C77.0314 18.8226 76.9707 18.6337 77.0133 18.4627Z" fill="#000072"/>
<path d="M33.3563 28.44C39.1577 22.6682 38.5229 18.2494 36.7865 15.4275C34.5927 11.8628 30.9165 7.9052 25.6167 8.57467C18.0647 9.52869 13.0895 16.3002 15.7032 23.6292C17.2652 28.0089 20.1579 30.4188 22.8081 31.7442C25.7848 33.2327 29.0571 32.7167 33.3563 28.44Z" fill="#686779"/>
<path d="M33.3575 28.4401C29.0563 32.7163 25.7854 33.2322 22.8072 31.7452C20.7378 30.7094 18.5196 29.0137 16.9022 26.233C16.4502 25.4526 16.0453 24.5885 15.7032 23.629C13.0894 16.3006 18.0652 9.52978 25.6168 8.57478C30.7053 7.93142 34.2955 11.5552 36.5136 14.9998C36.6079 15.1413 36.6983 15.2854 36.7858 15.4274C38.5223 18.2502 39.1589 22.6679 33.3575 28.4401Z" fill="#5F5F82"/>
<g opacity="0.2">
<path d="M34.1589 28.3241C29.6738 32.7224 26.2631 33.2531 23.1575 31.7236C20.9996 30.6583 18.6866 28.9141 17 26.054L17.0025 26.0514C17.0025 26.0514 21.9052 29.3745 24.7737 25.0743C26.9858 21.7605 31.7121 15.0709 37.45 14.5C37.5484 14.6456 37.6426 14.7937 37.7338 14.9398C39.5446 17.8433 40.2085 22.3871 34.1589 28.3241Z" fill="#000072"/>
</g>
<g opacity="0.3">
<path d="M39 18.5438C36.7539 14.7688 32.6695 10.0382 26.5548 10.7688C20.1586 11.5337 15.4974 15.9964 15.2574 21.5C13.8034 15.0741 18.6701 9.42125 25.7873 8.57166C33.1639 7.69173 37.4448 15.1411 39 18.5438Z" fill="white"/>
</g>
<path d="M39.2079 18.8226C38.5735 17.9164 38.0004 17.0022 37.3891 16.1214C37.0901 15.6773 36.7837 15.2416 36.4734 14.812C36.165 14.3803 35.8419 13.9621 35.5017 13.5618C34.1477 11.9642 32.5284 10.6019 30.67 9.9016C29.7469 9.5447 28.7703 9.36027 27.7854 9.35229C26.8113 9.3508 25.7804 9.52725 24.793 9.78197C22.8218 10.3118 20.9731 11.3222 19.5397 12.7678C18.1175 14.2138 17.1111 16.0825 16.8174 18.0958C16.6542 19.0983 16.6821 20.1281 16.838 21.1375C16.9866 22.1533 17.3302 23.1258 17.7425 24.0944C18.1754 25.0444 18.6847 25.9546 19.3014 26.7861C19.9275 27.609 20.6432 28.3592 21.4394 29.0147C23.0302 30.3296 24.9377 31.2488 26.9408 31.7916L26.9466 31.7931C27.4021 31.9167 27.6732 32.3923 27.5516 32.8553C27.43 33.3184 26.9623 33.5941 26.5069 33.4705C24.2955 32.8718 22.1683 31.8524 20.3657 30.364C19.4652 29.6228 18.6514 28.7704 17.9425 27.8363C17.2425 26.8937 16.6669 25.8669 16.184 24.8027C15.7281 23.7375 15.3281 22.6029 15.1531 21.4176C14.9697 20.2372 14.9379 19.019 15.13 17.8287C15.4708 15.435 16.6547 13.2079 18.3077 11.5151C19.1436 10.6757 20.079 9.93998 21.0982 9.35877C22.1164 8.77707 23.2013 8.31997 24.3224 8.00793C24.8837 7.8569 25.4509 7.72431 26.025 7.64306L26.4554 7.57876L26.9006 7.53788C27.1967 7.50249 27.4972 7.50897 27.7957 7.5C28.9924 7.50598 30.1979 7.73179 31.3151 8.16146C31.8779 8.36882 32.4093 8.64497 32.925 8.93956C33.4329 9.24662 33.9212 9.58159 34.3805 9.94796C35.2988 10.6817 36.1106 11.5251 36.8351 12.4223C38.2916 14.2088 39.426 16.2421 39.9864 18.4627C40.0457 18.6985 39.906 18.9387 39.6741 18.9991C39.4956 19.0454 39.3147 18.9721 39.2138 18.8286L39.2079 18.8226Z" fill="#000072"/>
<path d="M64.7812 82.5C76.5241 80.6094 91.948 76.0914 96.296 66.9698C99.5092 60.2298 97.1918 53.4031 97.1909 53.3928C97.1069 52.9905 98.7807 24.9037 77.0556 15.0773C70.9303 12.3067 65.1751 11.567 59.4999 11.5C53.8247 11.567 48.069 12.3067 41.9441 15.0773C20.2196 24.9037 21.8928 52.9905 21.8089 53.3928C21.8079 53.4031 19.4911 60.2293 22.7038 66.9698C27.0523 76.0914 42.4757 80.6094 54.2186 82.5H64.7812Z" fill="white"/>
<path d="M97.7465 62.2993C97.4997 63.8014 97.0495 65.3881 96.2958 66.9699C91.9484 76.0925 76.525 80.6099 64.7822 82.5H54.2181C42.4753 80.6104 27.0524 76.0925 22.7044 66.9699C22.0509 65.5979 21.626 64.2234 21.3634 62.9036C20.3377 57.7336 21.8091 53.4004 21.8091 53.394C21.8935 52.9907 20.2193 24.9055 41.9452 15.0788C48.07 12.3072 53.8252 11.5685 59.4999 11.5C65.1746 11.5685 70.9317 12.3067 77.057 15.0788C98.781 24.9055 97.1063 52.9907 97.1912 53.394C97.1912 53.4004 98.5485 57.4007 97.7465 62.2993Z" fill="white"/>
<g opacity="0.2">
<path d="M97 61.5C96.7544 63.0133 96.3065 64.612 95.5566 66.2057C91.231 75.3968 75.8849 79.9481 64.201 81.8524L63.8519 81.9338C60.5055 82.7153 57.0235 82.6875 53.6899 81.8524C42.006 79.9486 26.6605 75.3968 22.3343 66.2057C21.6841 64.8234 21.2613 63.4385 21 62.1088C22.712 64.805 29.0477 68.955 38.555 71.8645C51.7186 75.8924 65.803 75.8924 78.9666 71.8645C88.4661 68.957 94.7989 64.8119 96.5172 62.1157C96.666 61.8835 96.8271 61.6791 97 61.5Z" fill="#000072"/>
</g>
<path d="M64.7108 82.6438C66.7327 82.0533 68.758 81.5646 70.7759 81.0526C72.7963 80.5561 74.8118 80.0441 76.7926 79.4257C78.7764 78.8168 80.73 78.1203 82.6326 77.3166C84.5377 76.5192 86.3815 75.5927 88.1297 74.5314C88.9972 73.9916 89.8409 73.4179 90.6435 72.7986C91.4382 72.1707 92.1982 71.5047 92.895 70.7844C93.5823 70.0567 94.2083 69.2802 94.7466 68.453L95.1311 67.8223L95.4706 67.1696C95.5918 66.9578 95.6705 66.7152 95.7729 66.4896L96.0644 65.8011C96.7537 63.9286 97.109 61.9303 97.1565 59.9181C97.1773 58.911 97.1169 57.901 96.9937 56.9003C96.9308 56.4003 96.8502 55.9017 96.7482 55.4106C96.7002 55.1635 96.6433 54.9209 96.5839 54.6789C96.5557 54.5571 96.5206 54.4408 96.4894 54.321L96.4395 54.147L96.4137 54.061L96.3999 54.0138L96.3781 53.9312C96.3647 53.8761 96.3538 53.8199 96.3459 53.7642L96.3623 53.881C96.3474 53.7781 96.339 53.6509 96.339 53.5644L96.34 53.4347L96.3415 53.1796L96.343 52.6831L96.3341 51.6939C96.3202 51.0342 96.2979 50.3746 96.2618 49.715C96.1896 48.3962 96.0768 47.0784 95.91 45.7681C95.7442 44.4578 95.5458 43.151 95.283 41.8586C95.0351 40.5622 94.7189 39.2817 94.3725 38.0111C93.6565 35.4775 92.7411 33.004 91.5876 30.6523C91.4525 30.3535 91.2947 30.0672 91.1403 29.7789L90.6776 28.9135C90.356 28.3448 90.0086 27.7916 89.6766 27.2294C89.3084 26.6915 88.9531 26.1432 88.5751 25.6128L87.9837 24.8354C87.7828 24.5794 87.5998 24.3085 87.3805 24.0679C85.7273 22.0582 83.8202 20.2652 81.7078 18.7571C79.5934 17.2464 77.2944 16.0206 74.8519 15.0747C73.6366 14.597 72.3985 14.1794 71.1411 13.828C69.8828 13.4795 68.6056 13.1997 67.3166 12.979C64.7424 12.5371 62.102 12.3482 59.4843 12.3153C56.8667 12.3447 54.2258 12.5291 51.6501 12.967C50.3606 13.1857 49.0825 13.4636 47.8231 13.8101C46.5648 14.1595 45.3252 14.5751 44.1084 15.0513C41.6629 15.9943 39.359 17.2176 37.2401 18.7267C35.1237 20.2344 33.2122 22.0279 31.5545 24.0391C31.3348 24.2797 31.1512 24.5511 30.9498 24.8071L30.357 25.585C29.9779 26.1159 29.6217 26.6642 29.2525 27.203C28.919 27.7657 28.5706 28.3195 28.248 28.8886L27.7839 29.7546C27.629 30.0429 27.4701 30.3297 27.335 30.6289C26.1776 32.9826 25.2587 35.4591 24.5392 37.9952C24.1909 39.2668 23.8737 40.5487 23.6238 41.8461C23.3596 43.1405 23.1596 44.4484 22.9924 45.7602C22.8227 47.072 22.7163 48.3917 22.6455 49.712C22.6104 50.3721 22.5896 51.0327 22.5772 51.6934L22.5718 52.6836L22.5753 53.1806L22.5777 53.4356L22.5792 53.5654C22.5792 53.6489 22.5718 53.7722 22.5579 53.8716L22.5733 53.7612C22.5654 53.8144 22.555 53.8686 22.5426 53.9218L22.5218 54.0008L22.5079 54.0471L22.4827 54.1336L22.4332 54.3085C22.4025 54.4283 22.3679 54.5461 22.3402 54.6679C22.2818 54.911 22.2254 55.1546 22.1784 55.4021C22.0784 55.8952 21.9993 56.3948 21.9384 56.8963C21.8191 57.8995 21.7627 58.9115 21.7875 59.9196C21.8434 61.9343 22.2071 63.9331 22.9038 65.8031L23.1982 66.4901C23.3012 66.7152 23.3813 66.9573 23.5031 67.1686L23.845 67.8198L24.232 68.4486C24.7733 69.2728 25.4012 70.0462 26.0891 70.772C26.7868 71.4902 27.5473 72.1533 28.3425 72.7787C29.1461 73.3956 29.9898 73.9662 30.8578 74.5041C34.3627 76.6122 38.2224 78.185 42.181 79.4153C44.1604 80.0381 46.1733 80.558 48.1908 81.0705C50.2067 81.592 52.2341 82.0786 54.2594 82.6448L54.2624 82.6458C54.493 82.7104 54.6281 82.95 54.5637 83.1817C54.5083 83.3825 54.3213 83.5107 54.1223 83.4993C49.8876 83.2642 45.7295 82.3366 41.6669 81.1068C39.6326 80.4959 37.6206 79.794 35.6473 78.9748C33.6704 78.1661 31.7445 77.2062 29.8993 76.0848C28.9814 75.5151 28.0832 74.9067 27.2198 74.2416C26.3632 73.5671 25.5368 72.8453 24.7693 72.0529C24.0093 71.2521 23.3081 70.3852 22.699 69.4457L22.262 68.7274C22.1284 68.4799 22.0022 68.2284 21.8726 67.9788L21.7761 67.7909L21.6944 67.5991L21.5321 67.2158L21.2095 66.4483C20.442 64.3645 20.0546 62.1575 20.0041 59.9604C19.9823 58.8603 20.0481 57.7628 20.1832 56.6741C20.252 56.1298 20.3401 55.5875 20.4519 55.0487C20.5049 54.7788 20.5682 54.5093 20.634 54.2404C20.6657 54.1057 20.7053 53.9705 20.7409 53.8353L20.7998 53.6305L20.8305 53.5276L20.8344 53.5147C20.8349 53.5122 20.8319 53.5226 20.8315 53.5261C20.829 53.5366 20.8265 53.5475 20.8255 53.5579C20.8225 53.5798 20.8221 53.6022 20.8245 53.624L20.8404 53.5137C20.8285 53.5291 20.8245 53.5684 20.8255 53.5679L20.825 53.4461L20.8235 53.1975L20.8226 52.687L20.8329 51.6635C20.8488 50.981 20.8735 50.2995 20.9126 49.619C20.9893 48.2575 21.113 46.9 21.2823 45.5479C21.4525 44.1958 21.6568 42.8468 21.9275 41.5096C22.1833 40.1695 22.5094 38.8427 22.8687 37.525C23.6099 34.8954 24.5615 32.3165 25.7689 29.852C25.9104 29.5398 26.0757 29.2386 26.2375 28.9359L26.7224 28.0277C27.0599 27.4297 27.4246 26.8466 27.775 26.2556C28.1619 25.6869 28.5365 25.1098 28.9358 24.5496L29.5598 23.7269C29.7721 23.456 29.9661 23.1707 30.1977 22.9152C31.9464 20.7867 33.9712 18.8793 36.2143 17.2772C38.453 15.6756 40.9147 14.3683 43.4592 13.3836C44.7324 12.883 46.0313 12.4456 47.3496 12.0772C48.6683 11.7119 50.0058 11.4191 51.3518 11.189C54.0496 10.7277 56.7588 10.5338 59.4863 10.5C62.2138 10.5303 64.9235 10.7197 67.6229 11.177C68.9693 11.4052 70.3078 11.6965 71.628 12.0599C72.9473 12.4262 74.2472 12.8621 75.5224 13.3612C78.0693 14.3425 80.536 15.6473 82.7796 17.2479C85.0271 18.8495 87.0564 20.7578 88.8091 22.8868C89.0412 23.1428 89.2357 23.4282 89.4485 23.6991L90.0744 24.5222C90.4742 25.083 90.8498 25.6606 91.2383 26.2292C91.5896 26.8208 91.9553 27.4043 92.2937 28.0028L92.7807 28.912C92.943 29.2152 93.1087 29.5165 93.2508 29.8291C94.4621 32.2957 95.4171 34.877 96.1618 37.5086C96.5226 38.8278 96.8502 40.156 97.1075 41.4972C97.3801 42.8358 97.5855 44.1859 97.7572 45.5395C97.9299 46.893 98.0472 48.253 98.1224 49.6156C98.16 50.2971 98.1837 50.9796 98.1981 51.6621L98.205 52.687L98.2016 53.1975L98.1991 53.4461L98.1981 53.5679C98.1996 53.5654 98.1946 53.5216 98.1818 53.5032L98.1981 53.6201C98.2001 53.5957 98.1991 53.5713 98.1956 53.5475C98.1941 53.5356 98.1917 53.5236 98.1887 53.5122L98.1852 53.4993L98.1892 53.5122L98.2199 53.6156L98.2783 53.8214C98.3134 53.9571 98.353 54.0933 98.3842 54.228C98.4495 54.4979 98.5118 54.7683 98.5638 55.0387C98.6741 55.5796 98.7602 56.1229 98.827 56.6687C98.9582 57.7598 99.02 58.8593 98.9943 59.9604C98.9359 62.1605 98.54 64.3675 97.7646 66.4488L97.439 67.2153L97.2757 67.5981L97.1936 67.7895L97.0966 67.9769C96.966 68.2259 96.8388 68.4774 96.7047 68.724L96.2653 69.4403C95.6532 70.3768 94.95 71.2407 94.1895 72.039C93.421 72.8294 92.5941 73.5487 91.7371 74.2207C90.8731 74.8833 89.975 75.4893 89.0566 76.0564C87.2098 77.1704 85.2849 78.1278 83.3135 78.9455C81.3441 79.7702 79.3346 80.4785 77.3028 81.0954C75.271 81.7133 73.2209 82.262 71.1471 82.693C69.0722 83.1165 66.9712 83.4088 64.8508 83.4993C64.6113 83.5097 64.4089 83.3228 64.399 83.0822C64.3906 82.8774 64.5237 82.7 64.7113 82.6453L64.7108 82.6438Z" fill="#000072"/>
<path d="M74.2508 15.061C72.9191 12.1216 79.6398 12.1555 78.9502 9.44963C78.4491 7.48216 70.3219 4.24336 64.7066 9.94371C64.7066 9.94371 64.5429 8.38134 64.655 6.31456C64.7894 3.83827 64.464 1.81131 63.3923 1.54387C61.2217 1.0021 57.7984 5.57172 50.6342 10.0701C47.8633 11.8099 42.4976 14.3988 40 15.267L59.4421 27.5L74.2508 15.061Z" fill="white"/>
<g opacity="0.4">
<path d="M78.2257 10.974C76.2044 9.15603 69.4275 7.38931 64.5484 12.2619C64.5484 12.2619 64.3857 10.7254 64.4983 8.69174C64.6318 6.25568 64.3058 4.26165 63.2361 3.99856C61.0645 3.46608 57.6405 7.96145 50.4772 12.3867C48.4454 13.6403 45.0205 15.3451 42.3517 16.5L40 15.0433C42.4976 14.1887 47.8634 11.6414 50.6339 9.93129C57.7993 5.50653 61.2212 1.01019 63.3929 1.54315C64.4646 1.80673 64.7905 3.80075 64.6551 6.23633C64.5429 8.27001 64.7072 9.80651 64.7072 9.80651C70.3211 4.1983 78.45 7.38496 78.9501 9.31998C79.1332 10.0256 78.7948 10.5412 78.2257 10.974Z" fill="white"/>
</g>
<path d="M73.0672 14.6392C72.906 14.4015 72.7712 14.1133 72.7328 13.7703C72.6943 13.4306 72.7707 13.0495 72.9382 12.7493C73.0988 12.4421 73.3134 12.202 73.5339 12.0019C73.7544 11.8027 73.9803 11.6331 74.2081 11.4869C74.6627 11.192 75.1149 10.9605 75.5456 10.7384C75.9725 10.5164 76.3882 10.3059 76.7099 10.0724C76.8705 9.9581 77.0044 9.83853 77.09 9.73229C77.1762 9.62415 77.2112 9.54315 77.219 9.47408C77.2239 9.43787 77.2254 9.40071 77.2195 9.35403C77.2147 9.31496 77.1918 9.22492 77.1913 9.23826C77.1762 9.20062 77.0866 9.07247 76.962 8.95956C76.7118 8.72184 76.3487 8.48793 75.9671 8.29546C75.5826 8.10013 75.1665 7.93721 74.7396 7.80286C73.0224 7.26691 71.1392 7.17591 69.3865 7.56085C68.5108 7.75903 67.661 8.0644 66.8734 8.49459C66.0854 8.92383 65.3587 9.46598 64.6972 10.0891L64.6967 10.0896L64.6753 10.1101C64.3434 10.4288 63.8099 10.4235 63.4843 10.0986C63.3426 9.95763 63.2638 9.7785 63.2467 9.59604C63.1742 8.81283 63.1533 8.08251 63.1533 7.32693C63.1538 6.952 63.164 6.5766 63.1805 6.20167L63.2059 5.66096C63.2132 5.48707 63.2166 5.31366 63.2185 5.14025C63.2229 4.45185 63.1874 3.76107 63.0555 3.14794C62.9912 2.84542 62.8944 2.55815 62.7814 2.37331C62.7259 2.28231 62.67 2.22181 62.6378 2.19847C62.6218 2.18751 62.6115 2.18227 62.6038 2.17893C62.596 2.17798 62.6028 2.17751 62.5838 2.17369C62.5658 2.16988 62.5483 2.16559 62.5283 2.16417C62.3799 2.14177 62.1423 2.18275 61.8737 2.29327C61.6059 2.40094 61.3183 2.56053 61.0326 2.74204C60.4592 3.10649 59.8863 3.54668 59.3159 3.99498C58.1749 4.89871 57.0296 5.84771 55.8503 6.75763C54.6719 7.67042 53.4609 8.55319 52.2119 9.38499C51.5845 9.80184 50.9615 10.2039 50.3044 10.5955C49.6517 10.9824 48.9946 11.3478 48.3326 11.7003C47.0082 12.4025 45.6707 13.0671 44.3127 13.6969C43.6346 14.0137 42.9503 14.3186 42.2581 14.6149C41.565 14.9108 40.8685 15.1957 40.1311 15.452C39.6901 15.6054 39.2053 15.3791 39.0491 14.9475C38.8923 14.5158 39.1235 14.0413 39.5645 13.8884L39.5699 13.8865C40.2343 13.6559 40.9113 13.3801 41.5816 13.0938C42.2523 12.8065 42.9216 12.5088 43.586 12.1981C44.9157 11.5812 46.2319 10.9276 47.5222 10.243C48.1666 9.8995 48.8033 9.54554 49.4224 9.17823C50.0357 8.81283 50.6548 8.41408 51.2579 8.01295C52.4684 7.20688 53.6449 6.34983 54.7989 5.45563C55.9559 4.56333 57.0812 3.63006 58.2523 2.7025C58.8418 2.24039 59.4385 1.7778 60.1126 1.34809C60.4509 1.13466 60.8106 0.92838 61.2302 0.757828C61.6449 0.59347 62.1545 0.446261 62.7488 0.519151C62.8218 0.527726 62.8948 0.541541 62.9678 0.557739C63.0394 0.572984 63.1353 0.602044 63.2146 0.631581C63.3801 0.694466 63.532 0.781171 63.6649 0.878834C63.9282 1.07702 64.1058 1.30903 64.2407 1.52912C64.5045 1.97456 64.6218 2.39522 64.7133 2.80207C64.8856 3.61576 64.9163 4.38849 64.9138 5.15406C64.9119 5.3451 64.908 5.53566 64.8997 5.72479L64.8739 6.27456C64.8583 6.62662 64.8486 6.97916 64.8481 7.3317C64.8467 8.03106 64.8705 8.75757 64.9323 9.42453L63.4828 8.93098L63.4833 8.9305C64.9192 7.40364 66.8569 6.25836 68.962 5.77672C70.0119 5.53137 71.0949 5.438 72.1657 5.49279C73.237 5.54614 74.2996 5.73099 75.3222 6.07066C75.8343 6.24026 76.3371 6.44511 76.8267 6.70285C77.3154 6.96582 77.7963 7.25976 78.2475 7.70758C78.36 7.82001 78.4704 7.94435 78.5761 8.09013C78.6812 8.23496 78.7834 8.39932 78.8637 8.60989C78.9508 8.84952 78.9708 9.00053 78.9932 9.2011C79.0088 9.39547 78.9981 9.60223 78.9567 9.80375C78.8759 10.2135 78.6608 10.5689 78.431 10.8309C78.1984 11.0958 77.9491 11.2896 77.7063 11.454C77.2181 11.7784 76.7454 12.0033 76.2874 12.2124C75.8318 12.4201 75.3884 12.6021 74.9878 12.7951C74.5872 12.9833 74.2309 13.1972 74.0314 13.4106C73.9336 13.5192 73.8649 13.6212 73.8304 13.766C73.7919 13.9094 73.8012 14.0952 73.8377 14.2996L73.844 14.3348C73.8849 14.563 73.7291 14.7807 73.496 14.8207C73.3256 14.8508 73.1582 14.7741 73.0672 14.6392Z" fill="#000072"/>
<path d="M44.8802 62.135C47.0628 61.6576 52.0882 59.4086 51.9979 51.2363C51.909 43.216 48.939 40.6181 44.0566 40.5036C39.1741 40.3891 32.382 43.0226 28.6721 47.6531C26.0286 50.9524 25.3905 56.5087 26.5631 58.8147C28.88 63.3713 42.698 62.6124 44.8802 62.135Z" fill="#5F5F82"/>
<path d="M72.1189 62.135C69.9363 61.6576 64.9109 59.4086 65.0012 51.2363C65.0901 43.216 68.06 40.6181 72.9425 40.5036C77.825 40.3891 84.6171 43.0226 88.327 47.6531C90.9704 50.9524 91.6086 56.5087 90.436 58.8147C88.1191 63.3713 74.3015 62.6124 72.1189 62.135Z" fill="#5F5F82"/>
<g opacity="0.5">
<path d="M61 56.7615C61 57.2709 59.8478 57.5 59 57.5C58.1517 57.5 57 57.2709 57 56.7615C57 56.5 59.0005 56.5 59.0005 56.5C59.0005 56.5 61 56.5 61 56.7615Z" fill="white"/>
</g>
<path d="M64 60.5C62.9511 61.884 62.6402 63.4745 62.2613 64.8739C61.8508 66.3906 61.3628 67.6883 59.7822 68.271C58.9566 68.5763 58.0434 68.5763 57.2178 68.271C55.6443 67.6908 55.1539 66.4036 54.7459 64.8944C54.3621 63.49 54.0536 61.892 53 60.5H64Z" fill="#000072"/>
<path d="M64 65.8742C63.5631 67.3907 63.0436 68.6883 61.361 69.271C60.4822 69.5763 59.5102 69.5763 58.6314 69.271C56.9564 68.6908 56.4343 67.4037 56 65.8946C56.5271 65.6427 57.119 65.5 57.7419 65.5C58.5898 65.5 59.3754 65.7619 60.0215 66.2074C60.6677 65.7619 61.4563 65.5 62.3037 65.5C62.9119 65.5 63.4856 65.6352 64 65.8742Z" fill="#FF7B7B"/>
<path d="M64 65.6174C63.5636 66.823 63.045 67.8542 61.3607 68.3168C60.4833 68.5611 59.5121 68.5611 58.6322 68.3168C56.957 67.8562 56.4339 66.8341 56 65.634C56.1171 65.59 56.2367 65.5496 56.3614 65.5147C56.772 66.3258 57.3797 66.9843 58.6322 67.3297C59.5121 67.5719 60.4833 67.5719 61.3607 67.3297C62.6208 66.9828 63.228 66.3187 63.6386 65.5C63.7633 65.5345 63.8829 65.573 64 65.6174Z" fill="#DB5656"/>
<path d="M61 63.5L60.6558 64.2059C60.6558 64.2059 59.5 64.42 59.5 65.5C59.5 64.42 58.3442 64.2059 58.3442 64.2059L58 63.5L59.5 64.0275L61 63.5Z" fill="#000072"/>
<path d="M58.5007 68.5C57.9647 68.5 57.4292 68.4146 56.9195 68.2432C54.7159 67.5029 54.2088 65.7239 53.7178 64.0038C53.3795 62.818 53.0296 61.5917 52.1427 60.5217C51.9162 60.249 51.9647 59.8523 52.2504 59.6365C52.5361 59.4203 52.9517 59.4662 53.1777 59.7393C54.2325 61.0111 54.636 62.4252 54.9915 63.6723C55.4653 65.333 55.8076 66.5333 57.3574 67.054C58.0946 67.3016 58.9057 67.3016 59.6429 67.054C61.1927 66.5333 61.5351 65.3335 62.0084 63.6723C62.3643 62.4252 62.7673 61.0111 63.8221 59.7393C64.0481 59.4662 64.4638 59.4198 64.7495 59.6365C65.0357 59.8528 65.0837 60.249 64.8572 60.5217C63.9703 61.5912 63.6204 62.8175 63.2821 64.0038C62.7916 65.7239 62.2839 67.5029 60.0803 68.2432C59.5721 68.4146 59.0362 68.5 58.5007 68.5Z" fill="#000072"/>
<path d="M65 60.3735C64.8989 62.1805 63.0807 63.9168 61.2022 63.411C58.4401 62.6677 58.501 58.7426 58.501 58.7426H58.5H58.499C58.499 58.7426 58.5599 62.6671 55.7978 63.4105C53.9193 63.9163 52.1011 62.18 52 60.3725C52 60.3725 52.6259 55.5 58.4995 55.5C64.3737 55.501 65 60.3735 65 60.3735Z" fill="white"/>
<g opacity="0.2">
<path d="M65 60.7651C64.6811 62.4192 62.9791 63.878 61.2241 63.4105C58.4429 62.6661 58.5042 58.7427 58.5042 58.7427H58.5027C58.5027 58.7427 58.5077 59.0573 58.4523 59.5232C58.3104 60.7083 57.7775 62.8774 55.7818 63.411C54.0155 63.8837 52.3011 62.3985 52 60.7284C52.8646 61.3307 53.9305 61.6087 55.0116 61.3199C58.1646 60.4763 58.4904 56.4682 58.5225 55.5006C58.5255 55.4996 58.5284 55.5001 58.5309 55.5001C58.5635 56.4666 58.8878 60.4768 62.0428 61.3204C63.1017 61.6035 64.1463 61.3426 65 60.7651Z" fill="#000072"/>
</g>
<path d="M65.9888 60.2409C66.0381 60.8295 65.9209 61.4308 65.7032 61.9795C65.4794 62.5264 65.152 63.0273 64.7335 63.4393C64.3191 63.8558 63.8051 64.1751 63.2318 64.3583C62.6595 64.5332 62.0167 64.5488 61.4288 64.3822C60.8505 64.2317 60.2962 63.9007 59.8361 63.466C59.3864 63.0162 59.057 62.4709 58.8121 61.9151C58.5672 61.3559 58.4153 60.7839 58.3041 60.2126C58.2488 59.9266 58.2096 59.6406 58.1789 59.353C58.1613 59.2097 58.1543 59.0637 58.1432 58.9187C58.1362 58.7666 58.1291 58.6372 58.1306 58.4512L59.0012 59.4285H59.0007H58.9997L59.8703 58.4512C59.8793 58.6372 59.8798 58.7672 59.8803 58.9204C59.8753 59.0659 59.8728 59.213 59.8607 59.358C59.8416 59.6489 59.8049 59.9371 59.7541 60.2264C59.646 60.8023 59.4961 61.3831 59.2341 61.9395C58.9796 62.4981 58.6255 63.0289 58.1724 63.4748C57.9315 63.6792 57.6916 63.8913 57.412 64.0279C57.2742 64.0973 57.1429 64.1889 56.9996 64.2345L56.5721 64.3805C55.9847 64.5488 55.3414 64.536 54.7681 64.3633C54.1937 64.1806 53.6782 63.863 53.2628 63.4454C52.8434 63.0328 52.5155 62.5309 52.2922 61.9822C52.0754 61.4325 51.9593 60.8289 52.0131 60.2398C52.0312 60.0382 52.1941 59.891 52.3772 59.911C52.518 59.9266 52.6292 60.0371 52.6649 60.1787L52.6694 60.197C52.8892 61.0882 53.4464 61.8095 54.0962 62.2427C54.4246 62.4526 54.7701 62.5997 55.1116 62.638C55.4521 62.688 55.7749 62.6447 56.0842 62.5142C56.4157 62.3948 56.6822 62.1821 56.9297 61.9445C57.167 61.6863 57.3602 61.362 57.5322 60.9999C57.6991 60.6346 57.8228 60.2153 57.9209 59.7844C57.9747 59.5695 58.0109 59.3458 58.0472 59.1231C58.0683 59.0115 58.0778 58.8999 58.0944 58.7883L58.1296 58.4817L58.2423 57.5044H59.0002H59.0012H59.0022L59.8693 57.5L59.8728 58.4817C59.8733 58.5545 59.8788 58.6839 59.8853 58.7899C59.8959 58.9026 59.9009 59.0154 59.9165 59.1281C59.9417 59.3535 59.9749 59.5801 60.0241 59.7983C60.1197 60.2342 60.2409 60.6623 60.4255 61.0249C60.6065 61.3898 60.8243 61.7002 61.0652 61.9545C61.201 62.0572 61.3136 62.1966 61.465 62.2721C61.5395 62.3115 61.6003 62.3776 61.6818 62.407C61.7608 62.4409 61.8397 62.4764 61.9187 62.5136C62.2275 62.6464 62.5508 62.6924 62.8923 62.6441C63.2348 62.6064 63.5828 62.4609 63.9118 62.2504C64.5635 61.8168 65.1213 61.0899 65.333 60.197L65.337 60.1803C65.3833 59.9843 65.5649 59.8677 65.7424 59.9188C65.8807 59.9599 65.9758 60.0921 65.9888 60.2409Z" fill="#000072"/>
<path d="M64 55.6723C63.999 56.6309 62.6806 57.4763 61.4709 58.0504C60.2055 58.6511 58.7883 58.6497 57.524 58.047C56.3153 57.4705 54.999 56.6227 55 55.664C55.0031 52.7732 64.0031 52.7814 64 55.6723Z" fill="#000072"/>
<g opacity="0.5">
<path d="M60 54.9348C59.9996 55.1264 59.5605 55.2954 59.1574 55.4102C58.7358 55.5303 58.2633 55.5299 57.8418 55.4092C57.4387 55.2938 57 55.124 57 54.9325C57.0009 54.3544 60.0009 54.3565 60 54.9348Z" fill="white"/>
</g>
<path d="M35.0225 33.1221C34.6473 32.3385 39.0313 25.946 42.8396 26.5387C45.0123 26.8765 45.7538 29.9474 44.0965 30.9778C42.7351 31.8241 35.6705 34.4753 35.0225 33.1221Z" fill="#5F5F82"/>
<path d="M82.9775 33.1221C83.3527 32.3385 78.9687 25.946 75.1604 26.5387C72.9877 26.8765 72.2462 29.9474 73.9035 30.9778C75.2644 31.8241 82.3295 34.4753 82.9775 33.1221Z" fill="#5F5F82"/>
<path d="M81.6727 54.9175C81.3627 53.4383 80.5101 52.0423 79.4818 51.0087C78.4441 49.971 77.1783 49.326 75.9486 49.3769C74.632 49.4108 73.4832 49.9253 72.5511 50.9445C72.093 51.4544 71.6971 52.065 71.3426 52.73C71.1659 53.0631 70.999 53.4105 70.8435 53.7724C70.6875 54.1342 70.5478 54.5089 70.3978 54.8995L70.3844 54.9344C70.2472 55.2916 69.8577 55.4649 69.5151 55.322C69.3033 55.2336 69.1577 55.0408 69.1103 54.8255C69.0081 54.3434 68.9859 53.8505 69.0076 53.3581C69.0303 52.8657 69.1024 52.3733 69.2243 51.8897C69.4672 50.9229 69.9066 49.989 70.5335 49.1641C71.1516 48.3351 71.9736 47.6129 72.9337 47.1401C73.8949 46.6672 74.9607 46.4673 75.9826 46.5043C77.0485 46.5331 78.0886 46.8718 78.9782 47.3847C79.425 47.6417 79.8323 47.9522 80.207 48.2868C80.5827 48.6214 80.9203 48.9899 81.2195 49.3841C81.8233 50.1669 82.2868 51.0401 82.6003 51.9683C82.9113 52.894 83.0791 53.8916 82.9631 54.9041C82.9207 55.2747 82.5978 55.5394 82.2414 55.4952C81.96 55.4602 81.7418 55.2423 81.684 54.9694L81.6727 54.9175Z" fill="#000072"/>
<path d="M35.0369 54.904C34.9208 53.892 35.0887 52.8939 35.3997 51.9683C35.7127 51.04 36.1768 50.1663 36.7806 49.3841C37.0797 48.9898 37.4174 48.6213 37.7931 48.2867C38.1678 47.9521 38.5751 47.6417 39.0219 47.3847C39.9111 46.8713 40.9518 46.5331 42.0176 46.5043C43.0391 46.4673 44.1049 46.6678 45.0662 47.1401C46.0259 47.6129 46.8484 48.335 47.4665 49.1641C48.0935 49.9895 48.5329 50.9229 48.7757 51.8896C48.8977 52.3728 48.9698 52.8656 48.9925 53.358C49.0142 53.8504 48.9915 54.3433 48.8898 54.8254C48.8103 55.2011 48.4534 55.4386 48.0925 55.3558C47.8693 55.3044 47.697 55.143 47.6171 54.9385L47.6018 54.8994C47.4517 54.5088 47.3125 54.1341 47.156 53.7723C47.0004 53.411 46.8331 53.063 46.6568 52.73C46.3024 52.0649 45.9064 51.4543 45.4483 50.9444C44.5167 49.9253 43.3679 49.4108 42.0507 49.3769C40.8209 49.3255 39.5551 49.971 38.5174 51.0087C37.489 52.0423 36.6364 53.4382 36.3264 54.9174L36.3155 54.9683C36.239 55.3327 35.8934 55.564 35.5429 55.4843C35.2659 55.4211 35.069 55.1816 35.0369 54.904Z" fill="#000072"/>
<path d="M63.1649 143.401C57.6452 142.465 52.7122 140.465 48.0924 137.291C45.5644 135.554 44.4439 132.379 45.2665 129.415C48.1825 118.912 52.2056 108.895 57.3606 99.299C58.8154 96.5914 61.815 95.0873 64.8349 95.5992C70.3532 96.5351 75.2866 98.5343 79.9074 101.709C82.4354 103.446 83.5564 106.621 82.7333 109.585C79.8173 120.088 75.7942 130.105 70.6392 139.701C69.1844 142.409 66.1848 143.913 63.1649 143.401Z" fill="#FFD72E"/>
<path d="M70.6389 139.7C69.1832 142.409 66.1851 143.912 63.1633 143.401C57.6446 142.465 52.7122 140.465 48.0924 137.291C45.5654 135.553 44.4435 132.38 45.2666 129.414C45.4256 128.841 45.5871 128.271 45.753 127.7C46.0538 129.605 47.1063 131.356 48.7585 132.492C53.3788 135.666 58.3107 137.665 63.8294 138.602C66.8512 139.113 69.8493 137.609 71.305 134.9C76.1778 125.829 80.04 116.379 82.9116 106.5C83.0701 107.509 83.0184 108.558 82.7329 109.583C79.8165 120.086 75.7934 130.105 70.6389 139.7Z" fill="#FCA924"/>
<path d="M64.3455 144.5C63.9047 144.5 63.4599 144.463 63.0151 144.388C57.329 143.425 52.2511 141.37 47.4912 138.105C44.6505 136.156 43.3683 132.593 44.301 129.238C47.2383 118.675 51.3606 108.426 56.5535 98.7751C58.2026 95.7107 61.5906 94.0375 64.9846 94.612C70.6713 95.5749 75.7491 97.6296 80.5086 100.895C83.3497 102.844 84.6319 106.407 83.6988 109.762C80.7615 120.325 76.6391 130.574 71.4463 140.224C70.0138 142.887 67.2674 144.5 64.3455 144.5ZM63.3022 142.68C65.9673 143.13 68.629 141.813 69.9265 139.402C75.0584 129.865 79.1327 119.736 82.0357 109.297C82.7696 106.657 81.764 103.855 79.5338 102.325C74.985 99.2043 70.1318 97.2402 64.697 96.32C62.0334 95.8689 59.3708 97.1859 58.0732 99.5977C52.9413 109.135 48.8671 119.264 45.9645 129.703C45.2307 132.343 46.2357 135.144 48.466 136.674C53.0147 139.795 57.8679 141.759 63.3022 142.68Z" fill="#000072"/>
<path d="M56.3111 140.282C53.8676 139.297 51.5752 138.063 49.303 136.51C47.4264 135.228 46.5816 132.876 47.2006 130.659C50.1362 120.141 54.2567 109.937 59.4468 100.328C60.5412 98.3025 62.7826 97.1952 65.0245 97.5734C67.7388 98.0314 70.2464 98.7327 72.6894 99.7178C75.1324 100.703 77.4248 101.936 79.697 103.49C81.5736 104.772 82.4184 107.124 81.7994 109.341C78.8638 119.858 74.7433 130.063 69.5532 139.672C68.4588 141.697 66.2174 142.805 63.9755 142.427C61.2612 141.969 58.7541 141.267 56.3111 140.282Z" fill="#FFD72E"/>
<path d="M56.3111 140.282C53.8676 139.297 51.5752 138.063 49.303 136.51C47.4264 135.228 46.5816 132.876 47.2006 130.659C50.1362 120.141 54.2567 109.937 59.4468 100.328C60.5412 98.3025 62.7826 97.1952 65.0245 97.5734C67.7388 98.0314 70.2464 98.7327 72.6894 99.7178C75.1324 100.703 77.4248 101.936 79.697 103.49C81.5736 104.772 82.4184 107.124 81.7994 109.341C78.8638 119.858 74.7433 130.063 69.5532 139.672C68.4588 141.697 66.2174 142.805 63.9755 142.427C61.2612 141.969 58.7541 141.267 56.3111 140.282Z" fill="#FFD72E"/>
<path d="M56.3111 140.282C53.8676 139.297 51.5752 138.063 49.303 136.51C47.4264 135.228 46.5816 132.876 47.2006 130.659C50.1362 120.141 54.2567 109.937 59.4468 100.328C60.5412 98.3025 62.7826 97.1952 65.0245 97.5734C67.7388 98.0314 70.2464 98.7327 72.6894 99.7178C75.1324 100.703 77.4248 101.936 79.697 103.49C81.5736 104.772 82.4184 107.124 81.7994 109.341C78.8638 119.858 74.7433 130.063 69.5532 139.672C68.4588 141.697 66.2174 142.805 63.9755 142.427C61.2612 141.969 58.7541 141.267 56.3111 140.282Z" fill="#FFD72E"/>
<path d="M68.0051 137.713C66.9509 139.709 64.79 140.8 62.6291 140.428C60.013 139.976 57.5969 139.286 55.2437 138.316C54.4821 138.002 53.7362 137.663 53 137.296C54.6307 137.832 56.3085 138.248 58.0785 138.553C60.2394 138.925 62.4003 137.834 63.4544 135.839C68.4555 126.372 72.4252 116.32 75.2556 105.959C75.8521 103.774 75.0375 101.457 73.2281 100.195C71.747 99.1599 70.2565 98.269 68.7204 97.5C69.4984 97.7572 70.2673 98.0422 71.0273 98.3551C73.3806 99.325 75.5911 100.54 77.7793 102.071C79.5886 103.333 80.4032 105.65 79.8068 107.834C76.9759 118.195 73.0056 128.247 68.0051 137.713Z" fill="#FCA924"/>
<g opacity="0.3">
<path d="M76 100.477C74.1426 99.8593 72.2315 99.3928 70.2036 99.0579C67.9537 98.6843 65.7042 99.7749 64.6061 101.768C62.1553 106.214 59.9428 110.792 57.9779 115.472C57.5498 116.491 56.862 117.69 55.4713 117.475C54.0501 117.254 53.7153 115.793 54.2235 113.992C56.1864 109.311 58.4019 104.732 60.8512 100.283C61.5314 99.0475 62.6554 98.1596 63.9472 97.7512C64.7395 97.4998 65.5951 97.4308 66.4488 97.5729C69.1745 98.022 71.6908 98.7131 74.1436 99.683C74.771 99.9319 75.3903 100.196 76 100.477Z" fill="white"/>
</g>
<path d="M63.8443 141.5C63.5418 141.5 63.2368 141.475 62.9313 141.423C60.2439 140.968 57.7613 140.271 55.3412 139.291C52.9211 138.311 50.6507 137.084 48.4012 135.54C46.4453 134.198 45.5641 131.737 46.2088 129.418C49.0965 119.029 53.1497 108.949 58.2552 99.4578C59.3954 97.3389 61.7307 96.1819 64.0685 96.5765C66.7559 97.0314 69.2385 97.7291 71.6591 98.7089C74.0797 99.6887 76.3495 100.916 78.5985 102.459C80.5549 103.802 81.4362 106.262 80.791 108.581C77.9032 118.97 73.8505 129.05 68.7445 138.542C67.7532 140.384 65.8582 141.5 63.8443 141.5ZM55.5837 138.688C57.9597 139.65 60.3981 140.336 63.0389 140.782C65.1025 141.133 67.1665 140.108 68.1742 138.233C73.2569 128.784 77.2918 118.749 80.1666 108.407C80.7369 106.356 79.9593 104.181 78.232 102.996C76.0222 101.479 73.7925 100.274 71.4156 99.3115C69.0391 98.3491 66.6001 97.6644 63.9598 97.2175C61.8968 96.8677 59.8328 97.8923 58.8246 99.7664C53.7418 109.215 49.707 119.25 46.8321 129.592C46.2618 131.644 47.0394 133.819 48.7667 135.004C50.9776 136.521 53.2072 137.726 55.5837 138.688Z" fill="#E27B00"/>
<path d="M85.3507 104.754C85.3507 104.754 83.5576 108.613 79.1682 109.356C73.146 110.375 68.2488 105.851 69.0956 100.541C70.1548 93.8969 75.1147 91.534 76.4657 90.9629C78.0945 90.2742 83.7309 89.6197 87.9556 94.794C87.9556 94.794 88.1806 97.5597 87.6181 100C87.0561 102.441 85.3507 104.754 85.3507 104.754Z" fill="#686779"/>
<path d="M87.6173 100.001C87.0558 102.44 85.3514 104.754 85.3514 104.754C85.3514 104.754 83.5575 108.614 79.1677 109.355C73.1453 110.376 68.2493 105.851 69.0955 100.541C69.3125 99.1807 69.6928 97.9993 70.1726 96.9745H70.1746C72.0362 93.0047 75.3907 91.4174 76.4659 90.9633C78.0945 90.2741 83.7307 89.6191 87.9552 94.7945C87.9557 94.7955 88.1807 97.5597 87.6173 100.001Z" fill="#686779"/>
<path d="M87.6173 100.001C87.0558 102.44 85.3514 104.754 85.3514 104.754C85.3514 104.754 83.5575 108.614 79.1677 109.355C73.1453 110.376 68.2493 105.851 69.0955 100.541C69.3125 99.1807 69.6928 97.9993 70.1726 96.9745H70.1746C72.0362 93.0047 75.3907 91.4174 76.4659 90.9633C78.0945 90.2741 83.7307 89.6191 87.9552 94.7945C87.9557 94.7955 88.1807 97.5597 87.6173 100.001Z" fill="#5F5F82"/>
<g opacity="0.3">
<path d="M88 95.39C83.7139 90.8962 78.6879 91.8174 76.6677 92.6145C75.5258 93.0642 72.0209 94.9833 70.0639 99.2258H70.0619C69.6195 100.184 69.2588 101.27 69.0216 102.5C68.9778 101.92 68.9997 101.321 69.0954 100.714C69.3126 99.33 69.6932 98.1283 70.1735 97.0859H70.1755C72.0388 93.0478 75.3963 91.4332 76.4724 90.9713C78.1025 90.2702 83.7438 89.604 87.9721 94.8683C87.9721 94.8689 87.988 95.061 88 95.39Z" fill="white"/>
</g>
<g opacity="0.2">
<path d="M85 103.954C85 103.954 83.2446 107.651 78.9492 108.361C73.0562 109.339 68.2654 105.004 69.0934 99.9168C69.3058 98.6136 69.6779 97.4817 70.1474 96.5H70.1494C70.1494 96.5 68.8284 102.6 73.5238 104.598C79.6773 107.217 85 103.954 85 103.954Z" fill="#000072"/>
</g>
<path d="M85.416 104.969C85.3333 105.267 85.2344 105.511 85.1188 105.769C85.0026 106.021 84.8727 106.267 84.7295 106.504L84.5071 106.856C84.4283 106.97 84.3432 107.079 84.261 107.191C84.1006 107.419 83.9102 107.622 83.7251 107.831C82.9639 108.647 82.0141 109.291 80.9846 109.739C80.7322 109.864 80.462 109.943 80.1977 110.037C79.9345 110.138 79.6594 110.192 79.3872 110.257C78.841 110.391 78.3026 110.445 77.751 110.483C77.2013 110.518 76.6472 110.496 76.0971 110.439C75.5469 110.374 75.0011 110.264 74.4652 110.113C73.3979 109.796 72.3694 109.306 71.4683 108.619C70.5619 107.942 69.7853 107.075 69.1919 106.088C68.6107 105.094 68.2037 103.978 68.0679 102.819C67.9985 102.242 67.9764 101.656 68.0295 101.079C68.0349 100.934 68.06 100.791 68.0763 100.647C68.0935 100.503 68.1122 100.36 68.1427 100.228L68.3066 99.4192C68.3514 99.1475 68.4326 98.8833 68.5078 98.6182C68.5876 98.3541 68.6501 98.0844 68.7445 97.8248L69.0383 97.0486L69.1121 96.8548L69.2012 96.6671L69.3803 96.2921C69.8636 95.2974 70.4605 94.3517 71.1829 93.5178C71.8999 92.6799 72.7183 91.9366 73.6095 91.3061C74.0597 90.9979 74.5218 90.707 75.0061 90.4565C75.2452 90.3265 75.4928 90.2096 75.7408 90.0978C75.8564 90.0421 76.004 89.986 76.1527 89.9318C76.3018 89.8721 76.441 89.8362 76.5813 89.7977C76.8647 89.7112 77.1378 89.6707 77.4159 89.6151C77.691 89.5827 77.968 89.5326 78.2426 89.5255C78.5177 89.5083 78.7928 89.4931 79.0669 89.5033L79.4778 89.5093L79.8867 89.5427C80.9763 89.6384 82.0495 89.8984 83.0647 90.3047C85.1006 91.1245 86.8175 92.648 87.9336 94.4701C88.0606 94.6775 88 94.9513 87.7983 95.0818C87.6374 95.186 87.4346 95.1673 87.2953 95.0499L87.2722 95.0302C87.0803 94.8683 86.8918 94.7059 86.7087 94.5404L86.4366 94.2925C86.3461 94.2105 86.2432 94.1417 86.1478 94.0663L85.5779 93.6155L84.9825 93.2122C84.1798 92.7001 83.3536 92.2422 82.4683 91.9457C81.5919 91.6325 80.6766 91.4392 79.7544 91.3795L79.4084 91.3557L79.063 91.3572C78.8322 91.3511 78.6033 91.3683 78.375 91.386C78.1447 91.3936 77.9237 91.4422 77.6974 91.464C77.4813 91.5085 77.2525 91.5399 77.0522 91.6031C76.9489 91.6309 76.8426 91.6573 76.757 91.6937C76.6679 91.7261 76.5773 91.7564 76.4642 91.8101C76.2501 91.9062 76.0385 92.0049 75.8313 92.1172C75.413 92.3317 75.013 92.5832 74.6222 92.8479C73.8447 93.3837 73.1302 94.0126 72.5042 94.7241C71.8699 95.4289 71.3547 96.2385 70.9315 97.0941L70.774 97.4165L70.6952 97.5779L70.6308 97.7459L70.3704 98.4178C70.2858 98.643 70.2312 98.8798 70.1593 99.11C70.0919 99.3418 70.0161 99.5715 69.9777 99.8128L69.838 100.529C69.8104 100.65 69.7972 100.764 69.7848 100.877C69.773 100.991 69.7524 101.105 69.7499 101.219C69.7096 101.676 69.7332 102.134 69.7898 102.585C69.9025 103.488 70.2223 104.357 70.6918 105.132C71.645 106.682 73.2158 107.807 74.9588 108.307C75.3968 108.428 75.8431 108.517 76.2959 108.57C76.7496 108.611 77.2062 108.637 77.6644 108.616C78.1186 108.591 78.59 108.553 79.0265 108.449C79.246 108.399 79.4709 108.368 79.6825 108.29C79.8961 108.22 80.1165 108.167 80.3213 108.069C81.1618 107.735 81.9255 107.224 82.6524 106.64L82.9151 106.407C83.0067 106.334 83.0952 106.256 83.1789 106.173C83.3531 106.012 83.5189 105.842 83.6892 105.673C84.0155 105.331 84.3506 104.952 84.6399 104.595L84.667 104.562C84.8206 104.373 85.0932 104.348 85.2767 104.506C85.413 104.622 85.4618 104.805 85.416 104.969Z" fill="#000072"/>
<path d="M71.6069 99.1739C71.4177 99.8045 71.2674 100.516 71.164 101.205C71.061 101.901 71.0059 102.604 71.0055 103.294C71.0082 103.985 71.085 104.655 71.2172 105.281C71.3506 105.91 71.5863 106.461 71.8474 106.967L71.8729 107.017C72.0869 107.432 72.0243 108.015 71.7332 108.319C71.442 108.624 71.0329 108.535 70.8193 108.12C70.8077 108.097 70.7961 108.072 70.786 108.048C70.4731 107.307 70.2243 106.513 70.1112 105.683C69.9991 104.858 69.9725 104.028 70.028 103.225C70.0872 102.423 70.2078 101.647 70.3768 100.901C70.5499 100.15 70.753 99.4467 71.0299 98.7387C71.1176 98.5145 71.3161 98.4339 71.4735 98.5588C71.6204 98.6758 71.6792 98.9299 71.6151 99.1456L71.6069 99.1739Z" fill="#000072"/>
<path d="M77.8391 102.174C77.5542 102.802 77.365 103.54 77.2511 104.266C77.1395 104.995 77.1041 105.738 77.1862 106.428C77.2665 107.115 77.4843 107.739 77.8369 108.12C78.1822 108.507 78.6745 108.673 79.2366 108.699H79.2403C79.6768 108.718 80.0166 109.137 79.9994 109.635C79.9821 110.132 79.6142 110.519 79.1777 110.499C79.1518 110.498 79.125 110.495 79.0996 110.492C78.6917 110.427 78.2747 110.311 77.8741 110.098C77.4743 109.887 77.0982 109.569 76.811 109.177C76.5215 108.785 76.3237 108.333 76.1998 107.883C76.0755 107.432 76.0201 106.98 76.0042 106.54C75.9756 105.658 76.0945 104.819 76.2874 104.015C76.4879 103.211 76.7497 102.44 77.1631 101.707C77.281 101.498 77.5256 101.437 77.7089 101.571C77.8813 101.698 77.939 101.951 77.8473 102.155L77.8391 102.174Z" fill="#000072"/>
<path d="M35 77.1935C24.8043 71.0866 30.0004 61.3784 27.7835 56.3139C26.2756 52.8697 22.0787 51.5 22.0787 51.5C22.0787 51.5 11.7855 56.1689 11.2534 57.0874C10.4602 58.4577 9.91413 61.3232 9.91413 61.3232C8.27027 69.2656 5.87876 94.2705 32.3154 96.5L34.9835 82.166L35 77.1935Z" fill="#5F5F82"/>
<g opacity="0.2">
<path d="M33 92.2321L32.1874 96.5C13.6899 94.9735 9.36647 82.4786 9 72.5C9 72.502 9.00199 72.5039 9.00199 72.5059C10.3424 76.9347 15.7831 90.9405 33 92.2321Z" fill="#000072"/>
</g>
<g opacity="0.2">
<path d="M27 67.8763C25.2662 68.4453 22.8739 68.7875 19.8797 68.1763C12.553 66.6806 13.0055 59.5 13.0055 59.5L26.9393 60.4838C27.0019 62.7054 26.7391 65.2775 27 67.8763Z" fill="#000072"/>
</g>
<path d="M31.5412 96.5C31.5174 96.5 31.4935 96.499 31.4692 96.497C23.1282 95.7868 16.8881 92.6956 12.9214 87.3105C6.07672 78.0168 8.11731 64.7448 8.90541 60.8985C8.92585 60.7909 9.47104 57.9351 10.3059 56.479C10.4865 56.1639 10.7596 55.6874 16.1322 53.0535C18.6819 51.8031 21.2015 50.6485 21.2263 50.6371L21.5257 50.5L21.8377 50.6026C22.0193 50.6623 26.302 52.1104 27.904 55.8048C28.677 57.5874 28.6186 59.8015 28.5563 62.1459C28.4326 66.8233 28.292 72.1246 34.5865 75.9309C34.9886 76.1741 35.12 76.7014 34.8801 77.1088C34.6406 77.5157 34.1197 77.6499 33.7176 77.4062C26.5702 73.0844 26.7313 66.9939 26.8613 62.1C26.9207 59.8602 26.9718 57.9262 26.3517 56.4958C25.2681 53.9971 22.5148 52.7127 21.6075 52.3477C17.1812 54.3838 12.4005 56.7691 11.7419 57.394C11.1821 58.413 10.7055 60.5029 10.5673 61.2344C9.81276 64.9164 7.85834 77.5641 14.2795 86.2826C17.943 91.2569 23.7741 94.1177 31.6104 94.785C32.0772 94.825 32.4233 95.2403 32.3843 95.7128C32.3478 96.1611 31.9774 96.5 31.5412 96.5Z" fill="#000072"/>
<path d="M15.8969 62.377C17.1623 63.5387 18.979 64.2372 21.6392 64.4245C24.9829 64.6602 29.9368 64.4845 31.964 61.8136C33.6271 59.6224 33.4023 54.4051 30.4514 51.8707C26.4807 48.4603 18.9969 48.9695 15.0762 51.8707C11.8469 54.2604 10.8583 57.6568 10 61.3441L10.7969 61.1297C10.7974 61.1292 14.9534 61.5111 15.8969 62.377Z" fill="#5F5F82"/>
<g opacity="0.3">
<path d="M32.7724 60.1505C32.8755 57.8144 32.1008 55.1002 30.2325 53.4761C26.2627 50.022 18.7782 50.5359 14.8574 53.4761C12.1016 55.5435 10.9787 58.3518 10.1724 61.4529L10 61.5C10.8579 57.7634 11.8465 54.3235 15.0753 51.9011C18.9976 48.9628 26.4801 48.4469 30.4524 51.9011C32.7605 53.9116 33.4005 57.5849 32.7724 60.1505Z" fill="white"/>
</g>
<g opacity="0.2">
<path d="M30 58.5C29.9113 59.1241 29.7548 59.7303 29.4964 60.247C28.1986 62.8427 24.736 63.8325 19.96 63.4032C16.6346 63.1031 14.8186 61.1573 14 59.9509C15.4618 60.7081 18.3096 61.6641 23.0214 61.2865C26.4713 61.0102 28.6419 59.8038 30 58.5Z" fill="#000072"/>
</g>
<path d="M14.1845 59.5455C14.7001 60.7051 15.3217 61.7633 16.1507 62.5447C16.9737 63.3308 17.993 63.8391 19.1083 64.1482C19.6669 64.2985 20.2445 64.4145 20.8351 64.4863C21.1309 64.5222 21.4277 64.5488 21.729 64.5696C22.0349 64.5914 22.3412 64.607 22.6465 64.6195C23.8687 64.6637 25.0904 64.6341 26.2776 64.4744C27.4613 64.3167 28.6206 64.0249 29.6159 63.5119C30.1091 63.2518 30.5563 62.9365 30.9186 62.5577C31.0934 62.3694 31.2708 62.1598 31.3917 61.9553C31.5207 61.7425 31.6321 61.5016 31.7275 61.2467C32.1008 60.2114 32.2117 58.9852 32.1093 57.8016C32.0078 56.6144 31.699 55.4371 31.1674 54.4179C30.6432 53.381 29.8857 52.5882 28.9089 51.9607C27.9475 51.3385 26.8467 50.9166 25.701 50.6684C23.4025 50.1862 20.9346 50.3537 18.684 51.0961C17.5603 51.4686 16.4875 51.9997 15.5736 52.7057C14.6407 53.4263 13.8382 54.3091 13.1991 55.3231C11.906 57.3537 11.2739 59.8457 10.7192 62.3783L10.7187 62.3809C10.6118 62.8689 10.1456 63.1737 9.67692 63.0629C9.20822 62.9516 8.91541 62.4662 9.02184 61.9782L9.02234 61.9766C9.30715 60.6869 9.60396 59.3795 10.0212 58.082C10.4359 56.7871 10.9726 55.4958 11.7196 54.3112C12.4596 53.124 13.412 52.0643 14.5033 51.2147C15.616 50.35 16.8552 49.7408 18.1314 49.31C20.6867 48.4615 23.4135 48.2591 26.0682 48.8002C27.3909 49.0822 28.7 49.566 29.8852 50.3313C30.4778 50.7194 31.0305 51.1507 31.5406 51.7027C32.0433 52.2443 32.4606 52.8556 32.7943 53.5017C33.1326 54.1463 33.3899 54.8247 33.5798 55.5177C33.7727 56.2102 33.8956 56.9182 33.9571 57.6325C34.07 59.0585 33.9796 60.521 33.4509 61.948C33.3145 62.3033 33.1496 62.6561 32.9382 62.9968C32.7204 63.3475 32.4775 63.6331 32.2122 63.914C31.6791 64.464 31.0625 64.8838 30.4289 65.2131C29.1532 65.8582 27.8176 66.1673 26.5034 66.3374C25.1858 66.5059 23.8756 66.5278 22.5775 66.4737C21.2963 66.4196 19.9442 66.2859 18.6341 65.878C17.981 65.6652 17.3284 65.3994 16.7243 65.0185C16.4225 64.8292 16.1312 64.619 15.8549 64.388C15.5791 64.156 15.3272 63.8943 15.0919 63.6217C14.148 62.5167 13.6094 61.1598 13.357 59.8264C13.31 59.5793 13.4649 59.3395 13.7023 59.2906C13.9037 59.2469 14.1015 59.3592 14.1845 59.5455Z" fill="#000072"/>
<path d="M28.1437 57.7383C28.5166 58.488 28.7808 59.2964 28.9114 60.1368C29.0405 60.9761 29.0375 61.8512 28.8426 62.7155C28.6487 63.5754 28.2495 64.4363 27.5887 65.1296C27.4299 65.307 27.2335 65.4501 27.0529 65.6093C26.8585 65.7509 26.6478 65.8715 26.4415 65.9998C26.2229 66.0993 26.0003 66.1968 25.7757 66.2865C25.5462 66.3507 25.3147 66.4129 25.0812 66.4727C24.6187 66.5907 24.1468 66.3154 24.0276 65.8568C23.9084 65.3986 24.1864 64.9312 24.6489 64.8131C24.6904 64.8023 24.7325 64.795 24.774 64.7906L24.8121 64.7871C25.4572 64.7234 26.0557 64.4858 26.535 64.0615C27.0173 63.6421 27.3794 63.0497 27.5941 62.3843C27.8108 61.7184 27.8864 60.9854 27.8409 60.2539C27.7949 59.5209 27.6292 58.7864 27.3572 58.0867L27.3547 58.0798C27.2691 57.8598 27.3799 57.6129 27.602 57.5281C27.8117 57.4487 28.0462 57.5433 28.1437 57.7383Z" fill="#000072"/>
<path d="M20.253 58.0341C19.9747 59.4063 19.9663 60.848 20.3084 62.1388C20.4797 62.7803 20.7465 63.3782 21.1063 63.8473C21.4656 64.3179 21.9116 64.6436 22.4022 64.788C22.8347 64.9148 23.0893 65.3944 22.9711 65.8585C22.8528 66.3226 22.4059 66.5958 21.9735 66.4689C21.9479 66.4614 21.9232 66.453 21.8986 66.443L21.8827 66.4365C21.0695 66.1028 20.3992 65.4643 19.9593 64.7435C19.5124 64.0196 19.2597 63.2234 19.1238 62.4336C18.9892 61.6413 18.9715 60.847 19.0362 60.0707C19.1014 59.2939 19.2508 58.5326 19.4729 57.8008C19.5422 57.572 19.7708 57.4471 19.984 57.5215C20.1832 57.591 20.2982 57.8108 20.2554 58.0261L20.253 58.0341Z" fill="#000072"/>
<path d="M103.319 45.1869C102.327 43.5649 101.839 41.6175 102.048 39.5809C102.555 34.6368 106.975 31.0402 111.919 31.5478C116.863 32.0553 120.46 36.475 119.952 41.4191C119.445 46.3632 115.025 49.9598 110.081 49.4522C108.706 49.311 107.435 48.8665 106.328 48.193L102.163 49.1268L103.319 45.1869Z" fill="white"/>
<g opacity="0.5">
<path d="M111.721 33.3079C107.102 32.872 102.942 35.73 102 39.8151C101.999 39.5236 102.013 39.2291 102.046 38.9322C102.553 34.385 106.974 31.0771 111.918 31.5439C116.863 32.0108 120.46 36.0756 119.952 40.6228C119.919 40.9207 119.868 41.2132 119.802 41.5C119.784 37.3221 116.342 33.7439 111.721 33.3079Z" fill="white"/>
</g>
<path d="M110.518 49.5C110.19 49.5 109.86 49.4832 109.53 49.4491C108.217 49.3141 106.978 48.921 105.84 48.2788L102.095 49.1186C101.829 49.1787 101.552 49.0926 101.367 48.8945C101.181 48.6959 101.114 48.4142 101.19 48.153L102.218 44.6492C101.252 42.9345 100.849 40.9993 101.051 39.0295C101.586 33.8187 106.26 30.015 111.471 30.5502C113.994 30.8094 116.267 32.0358 117.868 34.0041C119.469 35.9724 120.208 38.4459 119.949 40.9698C119.69 43.4937 118.464 45.7661 116.496 47.3677C114.786 48.759 112.693 49.4995 110.518 49.5ZM105.967 46.695C106.107 46.695 106.245 46.7332 106.366 46.807C107.381 47.4242 108.499 47.7991 109.687 47.9213C111.803 48.1392 113.877 47.519 115.527 46.176C117.177 44.8336 118.205 42.9289 118.422 40.8124C118.639 38.6964 118.019 36.6227 116.677 34.9727C115.334 33.3227 113.43 32.2945 111.314 32.0775C106.945 31.6273 103.028 34.8179 102.579 39.1858C102.399 40.9336 102.788 42.6488 103.704 44.1461C103.817 44.331 103.846 44.555 103.785 44.7628L103.031 47.3346L105.8 46.7138C105.855 46.7016 105.911 46.695 105.967 46.695Z" fill="#000072"/>
<g opacity="0.3">
<path d="M103.053 44.3211C105.402 46.3014 108.639 47.1684 111.853 46.3717C115.418 45.4877 118.044 42.7825 118.988 39.5C119.011 39.9352 119.001 40.378 118.955 40.8247C118.471 45.5206 114.259 48.9368 109.546 48.4546C108.236 48.3205 107.025 47.8982 105.969 47.2586L102 48.1455L103.102 44.4033C103.085 44.3764 103.07 44.3485 103.053 44.3211Z" fill="#000072"/>
</g>
<path d="M107.58 38.0137C108.353 37.2428 109.606 37.381 110.38 38.1518L110.5 38.2718L110.62 38.1518C111.394 37.381 112.647 37.2428 113.42 38.0137C114.193 38.7845 114.193 40.0337 113.42 40.8046L113.3 40.9245L110.869 43.3477C110.665 43.5508 110.335 43.5508 110.131 43.3477L107.7 40.9245L107.579 40.8046C106.807 40.0342 106.807 38.7845 107.58 38.0137Z" fill="#FF0068"/>
</svg>
