<svg width="32" height="32" viewBox="0 0 32 32" fill="none" xmlns="http://www.w3.org/2000/svg">
<path d="M32 16C32 24.8405 24.8405 32 16 32C7.15946 32 0 24.8306 0 16C0 7.15945 7.15946 0 16 0C24.8405 0 32 7.16934 32 16Z" fill="#0C54EA"/>
<path d="M15.5 27C9.71065 27 5 22.2893 5 16.5C5 10.7107 9.71065 6 15.5 6C21.2893 6 26 10.7107 26 16.5C26 22.2893 21.2893 27 15.5 27Z" fill="white"/>
<path d="M22 16.5C22 19.5376 19.5376 22 16.5 22C13.4624 22 11 19.5376 11 16.5C11 13.4624 13.4624 11 16.5 11C19.5376 11 22 13.4624 22 16.5Z" fill="#0C54EA"/>
</svg>
