<svg width="180" height="136" viewBox="0 0 180 136" fill="none" xmlns="http://www.w3.org/2000/svg">
<path d="M34 68C52.7777 68 68 52.7777 68 34C68 15.2223 52.7777 0 34 0C15.2223 0 0 15.2223 0 34C0 52.7777 15.2223 68 34 68Z" fill="url(#paint0_linear_1_45914)"/>
<path d="M34 68C52.7777 68 68 52.7777 68 34C68 15.2223 52.7777 0 34 0C15.2223 0 0 15.2223 0 34C0 52.7777 15.2223 68 34 68Z" fill="url(#paint1_radial_1_45914)"/>
<path d="M33.9998 60.234C48.4885 60.234 60.234 48.4885 60.234 33.9998C60.234 19.5111 48.4885 7.76562 33.9998 7.76562C19.5111 7.76562 7.76562 19.5111 7.76562 33.9998C7.76562 48.4885 19.5111 60.234 33.9998 60.234Z" fill="url(#paint2_linear_1_45914)"/>
<path d="M33.985 58.7961C47.6792 58.7961 58.7805 47.6948 58.7805 34.0006C58.7805 20.3064 47.6792 9.20508 33.985 9.20508C20.2908 9.20508 9.18945 20.3064 9.18945 34.0006C9.18945 47.6948 20.2908 58.7961 33.985 58.7961Z" fill="url(#paint3_linear_1_45914)"/>
<path d="M43.3839 34.3952C41.8564 33.0592 39.5857 32.0579 36.6365 31.4181L35.7705 31.2282V24.071C36.1087 24.1425 36.4279 24.2363 36.7246 24.3518C37.4685 24.6416 38.0719 25.0631 38.5188 25.6026C38.9593 26.1348 39.2398 26.8016 39.3529 27.5843L39.4277 28.2523H45.4425L45.3847 27.3257C45.2497 25.5286 44.6731 23.9526 43.6713 22.6416C42.6763 21.3404 41.331 20.3257 39.6722 19.6257C38.5014 19.1331 37.1913 18.8119 35.7713 18.6708V15.0625H32.3876V18.6599C30.8973 18.7997 29.518 19.1392 28.2814 19.6702C26.5842 20.4 25.2328 21.4503 24.2658 22.7924C23.289 24.1474 22.794 25.7585 22.794 27.5791V27.6215C22.794 29.9484 23.5707 31.8473 25.1019 33.2645C26.5894 34.6413 28.785 35.6569 31.6263 36.2837L32.3876 36.453V43.9683C31.8599 43.8842 31.3891 43.7597 30.9825 43.5965C30.1816 43.2744 29.5629 42.8307 29.145 42.2775C28.7179 41.7121 28.4378 41.0764 28.313 40.3866L28.1889 39.7049H22.2012L22.2638 40.5875C22.3988 42.4322 23.0066 44.0402 24.0698 45.3677C25.1225 46.6815 26.5329 47.6974 28.262 48.3876C29.5095 48.8859 30.8948 49.2052 32.3868 49.3393V52.9367H35.7705V49.3393C37.281 49.2023 38.6881 48.8758 39.9595 48.3662C41.7206 47.6598 43.1411 46.6083 44.1812 45.2392C45.2336 43.8535 45.767 42.1465 45.767 40.1656V40.1231C45.7674 37.7053 44.9656 35.7781 43.3839 34.3952ZM32.3868 30.4527C31.2133 30.1137 30.3642 29.7003 29.8591 29.2206C29.2812 28.6726 29 28.0248 29 27.2396V27.2182C29 26.65 29.1713 26.1315 29.5249 25.6349C29.8817 25.1322 30.4342 24.7151 31.166 24.3967C31.5269 24.2395 31.9354 24.1191 32.3868 24.0358V30.4527ZM39.582 40.6327C39.582 41.2934 39.4139 41.8681 39.068 42.3902C38.7298 42.9014 38.1721 43.314 37.4108 43.6175C36.9541 43.7993 36.4037 43.9307 35.7709 44.0099V37.2208C37.2063 37.599 38.1988 38.0379 38.7278 38.5277C39.3028 39.0619 39.5825 39.7364 39.5825 40.5899V40.6327H39.582Z" fill="url(#paint4_linear_1_45914)"/>
<path d="M32.9327 15.6085L32.3867 15.0625H35.7708L35.2248 15.6085C35.2252 15.6085 32.8882 15.6533 32.9327 15.6085Z" fill="url(#paint5_linear_1_45914)"/>
<path d="M24.2352 27.2876C24.2352 33.1609 31.0264 35.485 32.9321 36.0152L32.3866 36.4532L31.6252 36.2839C28.7839 35.6575 26.5888 34.6416 25.1009 33.2648C23.5697 31.8476 22.793 29.949 22.793 27.6218V27.5793C22.793 25.7588 23.288 24.1476 24.2647 22.7926C25.2318 21.4506 26.5831 20.4003 28.2804 19.6704C29.517 19.1394 30.8962 18.8 32.3866 18.6602L32.9673 19.1556C31.0615 19.5532 24.2352 21.4142 24.2352 27.2876Z" fill="url(#paint6_linear_1_45914)"/>
<path d="M32.9327 44.5864L32.9129 44.9145C27.0189 44.9145 27.7322 40.2506 27.7322 40.2506L28.188 39.7051L28.3121 40.3868C28.4369 41.0766 28.717 41.7123 29.1441 42.2777C29.562 42.8309 30.1807 43.2746 30.9816 43.5967C31.3882 43.7599 31.8594 43.8844 32.3867 43.9685L32.9327 44.5864Z" fill="url(#paint7_linear_1_45914)"/>
<path d="M32.9324 48.8336L32.3868 49.3395C30.8948 49.2054 29.5095 48.8861 28.262 48.3878C26.5324 47.6976 25.1225 46.6813 24.0698 45.3679C23.0066 44.0408 22.3988 42.4324 22.2638 40.5877L22.2012 39.7051L22.7871 40.2506C22.7871 40.2506 24.4048 47.4863 32.9324 48.8336Z" fill="url(#paint8_linear_1_45914)"/>
<path d="M32.3867 52.9372L32.9323 52.3916H35.2248L35.7704 52.9372H32.3867Z" fill="url(#paint9_linear_1_45914)"/>
<path d="M45.7677 40.1234V40.1659C45.7677 42.1468 45.2338 43.8538 44.1819 45.2395C43.1417 46.6086 41.7213 47.6605 39.9602 48.3665C38.6884 48.8761 37.2817 49.2026 35.7711 49.3396L35.2256 48.8337C35.2256 48.8337 44.3787 47.7822 44.3787 39.7052C44.3787 33.9999 35.2256 31.6674 35.2256 31.6674L35.7711 31.2285L36.6372 31.4184C39.5864 32.0582 41.8571 33.0595 43.3846 34.3955C44.9659 35.7788 45.7677 37.706 45.7677 40.1234Z" fill="url(#paint10_linear_1_45914)"/>
<path d="M39.9151 27.7059L39.4274 28.2523L39.3526 27.5843C39.2395 26.8015 38.959 26.1347 38.5185 25.6025C38.0716 25.0626 37.4678 24.6415 36.7243 24.3518C36.4281 24.2362 36.1088 24.142 35.7702 24.0709L35.2246 23.4276C39.61 22.3025 39.9151 27.7059 39.9151 27.7059Z" fill="url(#paint11_linear_1_45914)"/>
<path d="M32.3866 30.453L32.9321 31.1614C32.9321 31.1614 28.1777 31.2895 28.1777 27.2447C28.1777 23.1999 32.9321 23.4081 32.9321 23.4081L32.3866 24.0361C31.9352 24.1189 31.5266 24.2397 31.1657 24.3969C30.4339 24.7158 29.8815 25.1324 29.5246 25.6351C29.171 26.1318 28.9997 26.6503 28.9997 27.2184V27.2399C28.9997 28.025 29.2806 28.6728 29.8588 29.2208C30.364 29.7005 31.2134 30.1143 32.3866 30.453Z" fill="url(#paint12_linear_1_45914)"/>
<path d="M45.4418 28.2528L44.8607 27.7064L44.3648 26.4577C42.8252 22.5807 39.3474 19.8089 35.2246 19.1724L35.7702 18.6709C37.1902 18.8123 38.5003 19.1332 39.6711 19.6258C41.3299 20.3253 42.6752 21.3405 43.6702 22.6417C44.6719 23.9526 45.249 25.5287 45.3836 27.3258L45.4418 28.2528Z" fill="url(#paint13_linear_1_45914)"/>
<path d="M40.4963 41.1549C40.4963 45.7327 35.225 44.6105 35.225 44.6105L35.7706 44.01C36.4038 43.9307 36.9538 43.7994 37.4105 43.6176C38.1718 43.3141 38.7295 42.9015 39.0677 42.3903C39.4136 41.8686 39.5817 41.2939 39.5817 40.6328V40.5904C39.5817 39.7369 39.3025 39.0624 38.727 38.5282C38.1981 38.038 37.2056 37.5995 35.7702 37.2213L35.2246 36.5254C35.2246 36.5254 40.4963 36.5771 40.4963 41.1549Z" fill="url(#paint14_linear_1_45914)"/>
<path d="M43.0251 34.8063C41.5606 33.5257 39.3921 32.5744 36.5197 31.9517L35.2249 31.6676V23.4277C35.842 23.5045 36.4081 23.6431 36.923 23.844C37.7579 24.1697 38.4299 24.6401 38.9395 25.2555C39.4487 25.871 39.7671 26.6247 39.8944 27.5161L39.9158 27.7073H44.8613L44.8399 27.3678C44.7126 25.6698 44.1784 24.2052 43.2376 22.9743C42.2964 21.7434 41.0372 20.7953 39.4596 20.1302C38.1991 19.5992 36.7876 19.2807 35.2253 19.1736V15.6094H32.9328V19.1664C31.3014 19.2678 29.8223 19.6032 28.4968 20.173C26.8836 20.8665 25.6207 21.8464 24.7083 23.1125C23.7958 24.379 23.3391 25.8686 23.3391 27.5804V27.6228C23.3391 29.8022 24.0504 31.5496 25.4724 32.8654C26.8945 34.1812 28.9854 35.1438 31.7447 35.752L32.9332 36.0162V44.5879C32.1039 44.5087 31.3854 44.3478 30.7788 44.1042C29.8801 43.7433 29.1903 43.2446 28.7094 42.6077C28.2281 41.9708 27.9169 41.2636 27.7755 40.4853L27.733 40.2517H22.7871L22.8081 40.5488C22.9354 42.2893 23.4979 43.7825 24.4957 45.0271C25.4934 46.2726 26.8161 47.2239 28.4649 47.8818C29.8065 48.4172 31.2957 48.7349 32.9328 48.8347V52.3925H35.2253V48.8347C36.8793 48.7337 38.3899 48.4092 39.757 47.8612C41.4337 47.1891 42.7636 46.2055 43.7472 44.9108C44.7304 43.616 45.2222 42.0347 45.2222 40.1669V40.1245C45.2218 37.8594 44.4896 36.087 43.0251 34.8063ZM29.4837 29.6167C28.7971 28.9661 28.4544 28.1732 28.4544 27.2393V27.2179C28.4544 26.5386 28.6629 25.9058 29.0804 25.3182C29.4978 24.731 30.1205 24.257 30.9482 23.8961C31.5176 23.648 32.1791 23.4851 32.9328 23.4075V31.1608C31.3054 30.7684 30.1549 30.254 29.4837 29.6167ZM40.1276 40.6324C40.1276 41.3966 39.9259 42.0832 39.5226 42.6914C39.1193 43.3 38.4824 43.7776 37.6124 44.124C36.9638 44.3826 36.1677 44.5442 35.2245 44.6101V36.5246C37.125 36.9615 38.4166 37.4957 39.0979 38.1277C39.7841 38.7646 40.1272 39.5854 40.1272 40.59V40.6324H40.1276Z" fill="url(#paint15_linear_1_45914)"/>
<path d="M146 68C164.778 68 180 52.7777 180 34C180 15.2223 164.778 0 146 0C127.222 0 112 15.2223 112 34C112 52.7777 127.222 68 146 68Z" fill="url(#paint16_linear_1_45914)"/>
<path d="M146 68C164.778 68 180 52.7777 180 34C180 15.2223 164.778 0 146 0C127.222 0 112 15.2223 112 34C112 52.7777 127.222 68 146 68Z" fill="url(#paint17_radial_1_45914)"/>
<path d="M146 60.234C160.489 60.234 172.234 48.4885 172.234 33.9998C172.234 19.5111 160.489 7.76562 146 7.76562C131.511 7.76562 119.766 19.5111 119.766 33.9998C119.766 48.4885 131.511 60.234 146 60.234Z" fill="url(#paint18_linear_1_45914)"/>
<path d="M145.985 58.7961C159.679 58.7961 170.781 47.6948 170.781 34.0006C170.781 20.3064 159.679 9.20508 145.985 9.20508C132.291 9.20508 121.189 20.3064 121.189 34.0006C121.189 47.6948 132.291 58.7961 145.985 58.7961Z" fill="url(#paint19_linear_1_45914)"/>
<path d="M155.384 34.3952C153.856 33.0592 151.586 32.0579 148.636 31.4181L147.77 31.2282V24.071C148.109 24.1425 148.428 24.2363 148.725 24.3518C149.469 24.6416 150.072 25.0631 150.519 25.6026C150.959 26.1348 151.24 26.8016 151.353 27.5843L151.428 28.2523H157.442L157.385 27.3257C157.25 25.5286 156.673 23.9526 155.671 22.6416C154.676 21.3404 153.331 20.3257 151.672 19.6257C150.501 19.1331 149.191 18.8119 147.771 18.6708V15.0625H144.388V18.6599C142.897 18.7997 141.518 19.1392 140.281 19.6702C138.584 20.4 137.233 21.4503 136.266 22.7924C135.289 24.1474 134.794 25.7585 134.794 27.5791V27.6215C134.794 29.9484 135.571 31.8473 137.102 33.2645C138.589 34.6413 140.785 35.6569 143.626 36.2837L144.388 36.453V43.9683C143.86 43.8842 143.389 43.7597 142.983 43.5965C142.182 43.2744 141.563 42.8307 141.145 42.2775C140.718 41.7121 140.438 41.0764 140.313 40.3866L140.189 39.7049H134.201L134.264 40.5875C134.399 42.4322 135.007 44.0402 136.07 45.3677C137.123 46.6815 138.533 47.6974 140.262 48.3876C141.51 48.8859 142.895 49.2052 144.387 49.3393V52.9367H147.77V49.3393C149.281 49.2023 150.688 48.8758 151.959 48.3662C153.721 47.6598 155.141 46.6083 156.181 45.2392C157.234 43.8535 157.767 42.1465 157.767 40.1656V40.1231C157.767 37.7053 156.966 35.7781 155.384 34.3952ZM144.387 30.4527C143.213 30.1137 142.364 29.7003 141.859 29.2206C141.281 28.6726 141 28.0248 141 27.2396V27.2182C141 26.65 141.171 26.1315 141.525 25.6349C141.882 25.1322 142.434 24.7151 143.166 24.3967C143.527 24.2395 143.935 24.1191 144.387 24.0358V30.4527ZM151.582 40.6327C151.582 41.2934 151.414 41.8681 151.068 42.3902C150.73 42.9014 150.172 43.314 149.411 43.6175C148.954 43.7993 148.404 43.9307 147.771 44.0099V37.2208C149.206 37.599 150.199 38.0379 150.728 38.5277C151.303 39.0619 151.582 39.7364 151.582 40.5899V40.6327H151.582Z" fill="url(#paint20_linear_1_45914)"/>
<path d="M144.933 15.6085L144.387 15.0625H147.771L147.225 15.6085C147.225 15.6085 144.888 15.6533 144.933 15.6085Z" fill="url(#paint21_linear_1_45914)"/>
<path d="M136.235 27.2876C136.235 33.1609 143.026 35.485 144.932 36.0152L144.387 36.4532L143.625 36.2839C140.784 35.6575 138.589 34.6416 137.101 33.2648C135.57 31.8476 134.793 29.949 134.793 27.6218V27.5793C134.793 25.7588 135.288 24.1476 136.265 22.7926C137.232 21.4506 138.583 20.4003 140.28 19.6704C141.517 19.1394 142.896 18.8 144.387 18.6602L144.967 19.1556C143.062 19.5532 136.235 21.4142 136.235 27.2876Z" fill="url(#paint22_linear_1_45914)"/>
<path d="M144.933 44.5864L144.913 44.9145C139.019 44.9145 139.732 40.2506 139.732 40.2506L140.188 39.7051L140.312 40.3868C140.437 41.0766 140.717 41.7123 141.144 42.2777C141.562 42.8309 142.181 43.2746 142.982 43.5967C143.388 43.7599 143.859 43.8844 144.387 43.9685L144.933 44.5864Z" fill="url(#paint23_linear_1_45914)"/>
<path d="M144.932 48.8336L144.387 49.3395C142.895 49.2054 141.51 48.8861 140.262 48.3878C138.532 47.6976 137.123 46.6813 136.07 45.3679C135.007 44.0408 134.399 42.4324 134.264 40.5877L134.201 39.7051L134.787 40.2506C134.787 40.2506 136.405 47.4863 144.932 48.8336Z" fill="url(#paint24_linear_1_45914)"/>
<path d="M144.387 52.9372L144.932 52.3916H147.225L147.77 52.9372H144.387Z" fill="url(#paint25_linear_1_45914)"/>
<path d="M157.768 40.1234V40.1659C157.768 42.1468 157.234 43.8538 156.182 45.2395C155.142 46.6086 153.721 47.6605 151.96 48.3665C150.688 48.8761 149.282 49.2026 147.771 49.3396L147.226 48.8337C147.226 48.8337 156.379 47.7822 156.379 39.7052C156.379 33.9999 147.226 31.6674 147.226 31.6674L147.771 31.2285L148.637 31.4184C151.586 32.0582 153.857 33.0595 155.385 34.3955C156.966 35.7788 157.768 37.706 157.768 40.1234Z" fill="url(#paint26_linear_1_45914)"/>
<path d="M151.915 27.7059L151.427 28.2523L151.353 27.5843C151.239 26.8015 150.959 26.1347 150.519 25.6025C150.072 25.0626 149.468 24.6415 148.724 24.3518C148.428 24.2362 148.109 24.142 147.77 24.0709L147.225 23.4276C151.61 22.3025 151.915 27.7059 151.915 27.7059Z" fill="url(#paint27_linear_1_45914)"/>
<path d="M144.387 30.453L144.932 31.1614C144.932 31.1614 140.178 31.2895 140.178 27.2447C140.178 23.1999 144.932 23.4081 144.932 23.4081L144.387 24.0361C143.935 24.1189 143.527 24.2397 143.166 24.3969C142.434 24.7158 141.881 25.1324 141.525 25.6351C141.171 26.1318 141 26.6503 141 27.2184V27.2399C141 28.025 141.281 28.6728 141.859 29.2208C142.364 29.7005 143.213 30.1143 144.387 30.453Z" fill="url(#paint28_linear_1_45914)"/>
<path d="M157.442 28.2528L156.861 27.7064L156.365 26.4577C154.825 22.5807 151.347 19.8089 147.225 19.1724L147.77 18.6709C149.19 18.8123 150.5 19.1332 151.671 19.6258C153.33 20.3253 154.675 21.3405 155.67 22.6417C156.672 23.9526 157.249 25.5287 157.384 27.3258L157.442 28.2528Z" fill="url(#paint29_linear_1_45914)"/>
<path d="M152.496 41.1549C152.496 45.7327 147.225 44.6105 147.225 44.6105L147.771 44.01C148.404 43.9307 148.954 43.7994 149.41 43.6176C150.172 43.3141 150.729 42.9015 151.068 42.3903C151.414 41.8686 151.582 41.2939 151.582 40.6328V40.5904C151.582 39.7369 151.303 39.0624 150.727 38.5282C150.198 38.038 149.206 37.5995 147.77 37.2213L147.225 36.5254C147.225 36.5254 152.496 36.5771 152.496 41.1549Z" fill="url(#paint30_linear_1_45914)"/>
<path d="M155.025 34.8063C153.561 33.5257 151.392 32.5744 148.52 31.9517L147.225 31.6676V23.4277C147.842 23.5045 148.408 23.6431 148.923 23.844C149.758 24.1697 150.43 24.6401 150.939 25.2555C151.449 25.871 151.767 26.6247 151.894 27.5161L151.916 27.7073H156.861L156.84 27.3678C156.713 25.6698 156.178 24.2052 155.238 22.9743C154.296 21.7434 153.037 20.7953 151.46 20.1302C150.199 19.5992 148.788 19.2807 147.225 19.1736V15.6094H144.933V19.1664C143.301 19.2678 141.822 19.6032 140.497 20.173C138.884 20.8665 137.621 21.8464 136.708 23.1125C135.796 24.379 135.339 25.8686 135.339 27.5804V27.6228C135.339 29.8022 136.05 31.5496 137.472 32.8654C138.895 34.1812 140.985 35.1438 143.745 35.752L144.933 36.0162V44.5879C144.104 44.5087 143.385 44.3478 142.779 44.1042C141.88 43.7433 141.19 43.2446 140.709 42.6077C140.228 41.9708 139.917 41.2636 139.775 40.4853L139.733 40.2517H134.787L134.808 40.5488C134.935 42.2893 135.498 43.7825 136.496 45.0271C137.493 46.2726 138.816 47.2239 140.465 47.8818C141.807 48.4172 143.296 48.7349 144.933 48.8347V52.3925H147.225V48.8347C148.879 48.7337 150.39 48.4092 151.757 47.8612C153.434 47.1891 154.764 46.2055 155.747 44.9108C156.73 43.616 157.222 42.0347 157.222 40.1669V40.1245C157.222 37.8594 156.49 36.087 155.025 34.8063ZM141.484 29.6167C140.797 28.9661 140.454 28.1732 140.454 27.2393V27.2179C140.454 26.5386 140.663 25.9058 141.08 25.3182C141.498 24.731 142.121 24.257 142.948 23.8961C143.518 23.648 144.179 23.4851 144.933 23.4075V31.1608C143.305 30.7684 142.155 30.254 141.484 29.6167ZM152.128 40.6324C152.128 41.3966 151.926 42.0832 151.523 42.6914C151.119 43.3 150.482 43.7776 149.612 44.124C148.964 44.3826 148.168 44.5442 147.224 44.6101V36.5246C149.125 36.9615 150.417 37.4957 151.098 38.1277C151.784 38.7646 152.127 39.5854 152.127 40.59V40.6324H152.128Z" fill="url(#paint31_linear_1_45914)"/>
<path d="M90 136C108.778 136 124 120.778 124 102C124 83.2223 108.778 68 90 68C71.2223 68 56 83.2223 56 102C56 120.778 71.2223 136 90 136Z" fill="url(#paint32_linear_1_45914)"/>
<path d="M90 136C108.778 136 124 120.778 124 102C124 83.2223 108.778 68 90 68C71.2223 68 56 83.2223 56 102C56 120.778 71.2223 136 90 136Z" fill="url(#paint33_radial_1_45914)"/>
<path d="M89.9998 128.234C104.489 128.234 116.234 116.489 116.234 102C116.234 87.5111 104.489 75.7656 89.9998 75.7656C75.5111 75.7656 63.7656 87.5111 63.7656 102C63.7656 116.489 75.5111 128.234 89.9998 128.234Z" fill="url(#paint34_linear_1_45914)"/>
<path d="M89.985 126.796C103.679 126.796 114.781 115.695 114.781 102.001C114.781 88.3064 103.679 77.2051 89.985 77.2051C76.2908 77.2051 65.1895 88.3064 65.1895 102.001C65.1895 115.695 76.2908 126.796 89.985 126.796Z" fill="url(#paint35_linear_1_45914)"/>
<path d="M99.3839 102.395C97.8564 101.059 95.5857 100.058 92.6365 99.4181L91.7705 99.2282V92.071C92.1087 92.1425 92.4279 92.2363 92.7246 92.3518C93.4685 92.6416 94.0719 93.0631 94.5188 93.6026C94.9593 94.1348 95.2398 94.8016 95.3529 95.5843L95.4277 96.2523H101.442L101.385 95.3257C101.25 93.5286 100.673 91.9526 99.6713 90.6416C98.6763 89.3404 97.331 88.3257 95.6722 87.6257C94.5014 87.1331 93.1913 86.8119 91.7713 86.6708V83.0625H88.3876V86.6599C86.8973 86.7997 85.518 87.1392 84.2814 87.6702C82.5842 88.4 81.2328 89.4503 80.2658 90.7924C79.289 92.1474 78.794 93.7585 78.794 95.5791V95.6215C78.794 97.9484 79.5707 99.8473 81.1019 101.265C82.5894 102.641 84.785 103.657 87.6263 104.284L88.3876 104.453V111.968C87.8599 111.884 87.3891 111.76 86.9825 111.596C86.1816 111.274 85.5629 110.831 85.145 110.277C84.7179 109.712 84.4378 109.076 84.313 108.387L84.1889 107.705H78.2012L78.2638 108.587C78.3988 110.432 79.0066 112.04 80.0698 113.368C81.1225 114.681 82.5329 115.697 84.262 116.388C85.5095 116.886 86.8948 117.205 88.3868 117.339V120.937H91.7705V117.339C93.281 117.202 94.6881 116.876 95.9595 116.366C97.7206 115.66 99.1411 114.608 100.181 113.239C101.234 111.853 101.767 110.147 101.767 108.166V108.123C101.767 105.705 100.966 103.778 99.3839 102.395ZM88.3868 98.4527C87.2133 98.1137 86.3642 97.7003 85.8591 97.2206C85.2812 96.6726 85 96.0248 85 95.2396V95.2182C85 94.65 85.1713 94.1315 85.5249 93.6349C85.8817 93.1322 86.4342 92.7151 87.166 92.3967C87.5269 92.2395 87.9354 92.1191 88.3868 92.0358V98.4527ZM95.582 108.633C95.582 109.293 95.4139 109.868 95.068 110.39C94.7298 110.901 94.1721 111.314 93.4108 111.617C92.9541 111.799 92.4037 111.931 91.7709 112.01V105.221C93.2063 105.599 94.1988 106.038 94.7278 106.528C95.3028 107.062 95.5825 107.736 95.5825 108.59V108.633H95.582Z" fill="url(#paint36_linear_1_45914)"/>
<path d="M88.9327 83.6085L88.3867 83.0625H91.7708L91.2248 83.6085C91.2252 83.6085 88.8882 83.6533 88.9327 83.6085Z" fill="url(#paint37_linear_1_45914)"/>
<path d="M80.2352 95.2876C80.2352 101.161 87.0264 103.485 88.9321 104.015L88.3866 104.453L87.6252 104.284C84.7839 103.658 82.5888 102.642 81.1009 101.265C79.5697 99.8476 78.793 97.949 78.793 95.6218V95.5793C78.793 93.7588 79.288 92.1476 80.2647 90.7926C81.2318 89.4506 82.5831 88.4003 84.2804 87.6704C85.517 87.1394 86.8962 86.8 88.3866 86.6602L88.9673 87.1556C87.0615 87.5532 80.2352 89.4142 80.2352 95.2876Z" fill="url(#paint38_linear_1_45914)"/>
<path d="M88.9327 112.586L88.9129 112.914C83.0189 112.914 83.7322 108.251 83.7322 108.251L84.188 107.705L84.3121 108.387C84.4369 109.077 84.717 109.712 85.1441 110.278C85.562 110.831 86.1807 111.275 86.9816 111.597C87.3882 111.76 87.8594 111.884 88.3867 111.968L88.9327 112.586Z" fill="url(#paint39_linear_1_45914)"/>
<path d="M88.9324 116.834L88.3868 117.34C86.8948 117.205 85.5095 116.886 84.262 116.388C82.5324 115.698 81.1225 114.681 80.0698 113.368C79.0066 112.041 78.3988 110.432 78.2638 108.588L78.2012 107.705L78.7871 108.251C78.7871 108.251 80.4048 115.486 88.9324 116.834Z" fill="url(#paint40_linear_1_45914)"/>
<path d="M88.3867 120.937L88.9323 120.392H91.2248L91.7704 120.937H88.3867Z" fill="url(#paint41_linear_1_45914)"/>
<path d="M101.768 108.123V108.166C101.768 110.147 101.234 111.854 100.182 113.239C99.1417 114.609 97.7213 115.661 95.9602 116.367C94.6884 116.876 93.2817 117.203 91.7711 117.34L91.2256 116.834C91.2256 116.834 100.379 115.782 100.379 107.705C100.379 102 91.2256 99.6674 91.2256 99.6674L91.7711 99.2285L92.6372 99.4184C95.5864 100.058 97.8571 101.06 99.3846 102.396C100.966 103.779 101.768 105.706 101.768 108.123Z" fill="url(#paint42_linear_1_45914)"/>
<path d="M95.9151 95.7059L95.4274 96.2523L95.3526 95.5843C95.2395 94.8015 94.959 94.1347 94.5185 93.6025C94.0716 93.0626 93.4678 92.6415 92.7243 92.3518C92.4281 92.2362 92.1088 92.142 91.7702 92.0709L91.2246 91.4276C95.61 90.3025 95.9151 95.7059 95.9151 95.7059Z" fill="url(#paint43_linear_1_45914)"/>
<path d="M88.3866 98.453L88.9321 99.1614C88.9321 99.1614 84.1777 99.2895 84.1777 95.2447C84.1777 91.1999 88.9321 91.4081 88.9321 91.4081L88.3866 92.0361C87.9352 92.1189 87.5266 92.2397 87.1657 92.3969C86.4339 92.7158 85.8815 93.1324 85.5246 93.6351C85.171 94.1318 84.9997 94.6503 84.9997 95.2184V95.2399C84.9997 96.025 85.2806 96.6728 85.8588 97.2208C86.364 97.7005 87.2134 98.1143 88.3866 98.453Z" fill="url(#paint44_linear_1_45914)"/>
<path d="M101.442 96.2528L100.861 95.7064L100.365 94.4577C98.8252 90.5807 95.3474 87.8089 91.2246 87.1724L91.7702 86.6709C93.1902 86.8123 94.5003 87.1332 95.6711 87.6258C97.3299 88.3253 98.6752 89.3405 99.6702 90.6417C100.672 91.9526 101.249 93.5287 101.384 95.3258L101.442 96.2528Z" fill="url(#paint45_linear_1_45914)"/>
<path d="M96.4963 109.155C96.4963 113.733 91.225 112.61 91.225 112.61L91.7706 112.01C92.4038 111.931 92.9538 111.799 93.4105 111.618C94.1718 111.314 94.7295 110.901 95.0677 110.39C95.4136 109.869 95.5817 109.294 95.5817 108.633V108.59C95.5817 107.737 95.3025 107.062 94.727 106.528C94.1981 106.038 93.2056 105.6 91.7702 105.221L91.2246 104.525C91.2246 104.525 96.4963 104.577 96.4963 109.155Z" fill="url(#paint46_linear_1_45914)"/>
<path d="M99.0251 102.806C97.5606 101.526 95.3921 100.574 92.5197 99.9517L91.2249 99.6676V91.4277C91.842 91.5045 92.4081 91.6431 92.923 91.844C93.7579 92.1697 94.4299 92.6401 94.9395 93.2555C95.4487 93.871 95.7671 94.6247 95.8944 95.5161L95.9158 95.7073H100.861L100.84 95.3678C100.713 93.6698 100.178 92.2052 99.2376 90.9743C98.2964 89.7434 97.0372 88.7953 95.4596 88.1302C94.1991 87.5992 92.7876 87.2807 91.2253 87.1736V83.6094H88.9328V87.1664C87.3014 87.2678 85.8223 87.6032 84.4968 88.173C82.8836 88.8665 81.6207 89.8464 80.7083 91.1125C79.7958 92.379 79.3391 93.8686 79.3391 95.5804V95.6228C79.3391 97.8022 80.0504 99.5496 81.4724 100.865C82.8945 102.181 84.9854 103.144 87.7447 103.752L88.9332 104.016V112.588C88.1039 112.509 87.3854 112.348 86.7788 112.104C85.8801 111.743 85.1903 111.245 84.7094 110.608C84.2281 109.971 83.9169 109.264 83.7755 108.485L83.733 108.252H78.7871L78.8081 108.549C78.9354 110.289 79.4979 111.782 80.4957 113.027C81.4934 114.273 82.8161 115.224 84.4649 115.882C85.8065 116.417 87.2957 116.735 88.9328 116.835V120.392H91.2253V116.835C92.8793 116.734 94.3899 116.409 95.757 115.861C97.4337 115.189 98.7636 114.206 99.7472 112.911C100.73 111.616 101.222 110.035 101.222 108.167V108.124C101.222 105.859 100.49 104.087 99.0251 102.806ZM85.4837 97.6167C84.7971 96.9661 84.4544 96.1732 84.4544 95.2393V95.2179C84.4544 94.5386 84.6629 93.9058 85.0804 93.3182C85.4978 92.731 86.1205 92.257 86.9482 91.8961C87.5176 91.648 88.1791 91.4851 88.9328 91.4075V99.1608C87.3054 98.7684 86.1549 98.254 85.4837 97.6167ZM96.1276 108.632C96.1276 109.397 95.9259 110.083 95.5226 110.691C95.1193 111.3 94.4824 111.778 93.6124 112.124C92.9638 112.383 92.1677 112.544 91.2245 112.61V104.525C93.125 104.961 94.4166 105.496 95.0979 106.128C95.7841 106.765 96.1272 107.585 96.1272 108.59V108.632H96.1276Z" fill="url(#paint47_linear_1_45914)"/>
<defs>
<linearGradient id="paint0_linear_1_45914" x1="5.90301" y1="18.0611" x2="63.3527" y2="50.6513" gradientUnits="userSpaceOnUse">
<stop offset="0.00112718" stop-color="#FF9721"/>
<stop offset="0.1449" stop-color="#FFB021"/>
<stop offset="0.3145" stop-color="#FFDD54"/>
<stop offset="0.5122" stop-color="#FFB021"/>
<stop offset="0.7308" stop-color="#FFDD54"/>
<stop offset="0.887" stop-color="#FF9721"/>
<stop offset="1" stop-color="#FFB021"/>
</linearGradient>
<radialGradient id="paint1_radial_1_45914" cx="0" cy="0" r="1" gradientUnits="userSpaceOnUse" gradientTransform="translate(34 34) scale(34.0001)">
<stop offset="0.9502" stop-opacity="0"/>
<stop offset="1" stop-color="#1D1D1B" stop-opacity="0.2"/>
</radialGradient>
<linearGradient id="paint2_linear_1_45914" x1="7.39644" y1="23.4216" x2="60.2379" y2="44.4328" gradientUnits="userSpaceOnUse">
<stop stop-color="#F27E1F"/>
<stop offset="0.2071" stop-color="#D1791B"/>
<stop offset="0.3871" stop-color="#E87833"/>
<stop offset="0.569" stop-color="#F27E1F"/>
<stop offset="0.7334" stop-color="#D1791B"/>
<stop offset="0.9032" stop-color="#F27E1F"/>
<stop offset="1" stop-color="#E87833"/>
</linearGradient>
<linearGradient id="paint3_linear_1_45914" x1="13.4946" y1="22.3768" x2="55.3911" y2="46.1439" gradientUnits="userSpaceOnUse">
<stop offset="0.00112718" stop-color="#FF9721"/>
<stop offset="0.1449" stop-color="#FFB021"/>
<stop offset="0.3145" stop-color="#FFDD54"/>
<stop offset="0.5122" stop-color="#FFB021"/>
<stop offset="0.7308" stop-color="#FFDD54"/>
<stop offset="0.887" stop-color="#FF9721"/>
<stop offset="1" stop-color="#FFB021"/>
</linearGradient>
<linearGradient id="paint4_linear_1_45914" x1="20.3893" y1="28.5564" x2="47.8776" y2="39.4864" gradientUnits="userSpaceOnUse">
<stop stop-color="#F27E1F"/>
<stop offset="0.2071" stop-color="#D1791B"/>
<stop offset="0.3871" stop-color="#E87833"/>
<stop offset="0.569" stop-color="#F27E1F"/>
<stop offset="0.7334" stop-color="#D1791B"/>
<stop offset="0.9032" stop-color="#F27E1F"/>
<stop offset="1" stop-color="#E87833"/>
</linearGradient>
<linearGradient id="paint5_linear_1_45914" x1="32.4281" y1="14.5722" x2="35.5941" y2="15.831" gradientUnits="userSpaceOnUse">
<stop stop-color="#CC6A1A"/>
<stop offset="0.2818" stop-color="#AB6316"/>
<stop offset="0.7487" stop-color="#F27E1F"/>
<stop offset="1" stop-color="#9C5022"/>
</linearGradient>
<linearGradient id="paint6_linear_1_45914" x1="22.8945" y1="23.9965" x2="36.1537" y2="29.2688" gradientUnits="userSpaceOnUse">
<stop stop-color="#CC6A1A"/>
<stop offset="0.2818" stop-color="#AB6316"/>
<stop offset="0.7487" stop-color="#F27E1F"/>
<stop offset="1" stop-color="#9C5022"/>
</linearGradient>
<linearGradient id="paint7_linear_1_45914" x1="27.0257" y1="41.2229" x2="33.6078" y2="43.8401" gradientUnits="userSpaceOnUse">
<stop stop-color="#CC6A1A"/>
<stop offset="0.2818" stop-color="#AB6316"/>
<stop offset="0.7487" stop-color="#F27E1F"/>
<stop offset="1" stop-color="#9C5022"/>
</linearGradient>
<linearGradient id="paint8_linear_1_45914" x1="20.56" y1="42.1888" x2="33.9963" y2="47.5315" gradientUnits="userSpaceOnUse">
<stop stop-color="#CC6A1A"/>
<stop offset="0.2818" stop-color="#AB6316"/>
<stop offset="0.7487" stop-color="#F27E1F"/>
<stop offset="1" stop-color="#9C5022"/>
</linearGradient>
<linearGradient id="paint9_linear_1_45914" x1="32.5412" y1="52.1616" x2="35.7069" y2="53.4203" gradientUnits="userSpaceOnUse">
<stop stop-color="#CC6A1A"/>
<stop offset="0.2818" stop-color="#AB6316"/>
<stop offset="0.7487" stop-color="#F27E1F"/>
<stop offset="1" stop-color="#9C5022"/>
</linearGradient>
<linearGradient id="paint10_linear_1_45914" x1="31.85" y1="38.4795" x2="45.5519" y2="43.9278" gradientUnits="userSpaceOnUse">
<stop stop-color="#CC6A1A"/>
<stop offset="0.2818" stop-color="#AB6316"/>
<stop offset="0.7487" stop-color="#F27E1F"/>
<stop offset="1" stop-color="#9C5022"/>
</linearGradient>
<linearGradient id="paint11_linear_1_45914" x1="34.5783" y1="24.3207" x2="40.5586" y2="26.6986" gradientUnits="userSpaceOnUse">
<stop stop-color="#CC6A1A"/>
<stop offset="0.2818" stop-color="#AB6316"/>
<stop offset="0.7487" stop-color="#F27E1F"/>
<stop offset="1" stop-color="#9C5022"/>
</linearGradient>
<linearGradient id="paint12_linear_1_45914" x1="28.1829" y1="25.6482" x2="34.3948" y2="28.1182" gradientUnits="userSpaceOnUse">
<stop stop-color="#CC6A1A"/>
<stop offset="0.2818" stop-color="#AB6316"/>
<stop offset="0.7487" stop-color="#F27E1F"/>
<stop offset="1" stop-color="#9C5022"/>
</linearGradient>
<linearGradient id="paint13_linear_1_45914" x1="34.0458" y1="20.5543" x2="46.9831" y2="25.6986" gradientUnits="userSpaceOnUse">
<stop stop-color="#CC6A1A"/>
<stop offset="0.2818" stop-color="#AB6316"/>
<stop offset="0.7487" stop-color="#F27E1F"/>
<stop offset="1" stop-color="#9C5022"/>
</linearGradient>
<linearGradient id="paint14_linear_1_45914" x1="33.6214" y1="39.7028" x2="40.6102" y2="42.4817" gradientUnits="userSpaceOnUse">
<stop stop-color="#CC6A1A"/>
<stop offset="0.2818" stop-color="#AB6316"/>
<stop offset="0.7487" stop-color="#F27E1F"/>
<stop offset="1" stop-color="#9C5022"/>
</linearGradient>
<linearGradient id="paint15_linear_1_45914" x1="22.8767" y1="27.645" x2="46.0378" y2="40.7839" gradientUnits="userSpaceOnUse">
<stop stop-color="#FFB021"/>
<stop offset="0.2522" stop-color="#FFDD54"/>
<stop offset="0.5122" stop-color="#FFB021"/>
<stop offset="0.7548" stop-color="#FFDD54"/>
<stop offset="1" stop-color="#FFB021"/>
</linearGradient>
<linearGradient id="paint16_linear_1_45914" x1="117.903" y1="18.0611" x2="175.353" y2="50.6513" gradientUnits="userSpaceOnUse">
<stop offset="0.00112718" stop-color="#FF9721"/>
<stop offset="0.1449" stop-color="#FFB021"/>
<stop offset="0.3145" stop-color="#FFDD54"/>
<stop offset="0.5122" stop-color="#FFB021"/>
<stop offset="0.7308" stop-color="#FFDD54"/>
<stop offset="0.887" stop-color="#FF9721"/>
<stop offset="1" stop-color="#FFB021"/>
</linearGradient>
<radialGradient id="paint17_radial_1_45914" cx="0" cy="0" r="1" gradientUnits="userSpaceOnUse" gradientTransform="translate(146 34) scale(34.0001)">
<stop offset="0.9502" stop-opacity="0"/>
<stop offset="1" stop-color="#1D1D1B" stop-opacity="0.2"/>
</radialGradient>
<linearGradient id="paint18_linear_1_45914" x1="119.396" y1="23.4216" x2="172.238" y2="44.4328" gradientUnits="userSpaceOnUse">
<stop stop-color="#F27E1F"/>
<stop offset="0.2071" stop-color="#D1791B"/>
<stop offset="0.3871" stop-color="#E87833"/>
<stop offset="0.569" stop-color="#F27E1F"/>
<stop offset="0.7334" stop-color="#D1791B"/>
<stop offset="0.9032" stop-color="#F27E1F"/>
<stop offset="1" stop-color="#E87833"/>
</linearGradient>
<linearGradient id="paint19_linear_1_45914" x1="125.495" y1="22.3768" x2="167.391" y2="46.1439" gradientUnits="userSpaceOnUse">
<stop offset="0.00112718" stop-color="#FF9721"/>
<stop offset="0.1449" stop-color="#FFB021"/>
<stop offset="0.3145" stop-color="#FFDD54"/>
<stop offset="0.5122" stop-color="#FFB021"/>
<stop offset="0.7308" stop-color="#FFDD54"/>
<stop offset="0.887" stop-color="#FF9721"/>
<stop offset="1" stop-color="#FFB021"/>
</linearGradient>
<linearGradient id="paint20_linear_1_45914" x1="132.389" y1="28.5564" x2="159.878" y2="39.4864" gradientUnits="userSpaceOnUse">
<stop stop-color="#F27E1F"/>
<stop offset="0.2071" stop-color="#D1791B"/>
<stop offset="0.3871" stop-color="#E87833"/>
<stop offset="0.569" stop-color="#F27E1F"/>
<stop offset="0.7334" stop-color="#D1791B"/>
<stop offset="0.9032" stop-color="#F27E1F"/>
<stop offset="1" stop-color="#E87833"/>
</linearGradient>
<linearGradient id="paint21_linear_1_45914" x1="144.428" y1="14.5722" x2="147.594" y2="15.831" gradientUnits="userSpaceOnUse">
<stop stop-color="#CC6A1A"/>
<stop offset="0.2818" stop-color="#AB6316"/>
<stop offset="0.7487" stop-color="#F27E1F"/>
<stop offset="1" stop-color="#9C5022"/>
</linearGradient>
<linearGradient id="paint22_linear_1_45914" x1="134.894" y1="23.9965" x2="148.154" y2="29.2688" gradientUnits="userSpaceOnUse">
<stop stop-color="#CC6A1A"/>
<stop offset="0.2818" stop-color="#AB6316"/>
<stop offset="0.7487" stop-color="#F27E1F"/>
<stop offset="1" stop-color="#9C5022"/>
</linearGradient>
<linearGradient id="paint23_linear_1_45914" x1="139.026" y1="41.2229" x2="145.608" y2="43.8401" gradientUnits="userSpaceOnUse">
<stop stop-color="#CC6A1A"/>
<stop offset="0.2818" stop-color="#AB6316"/>
<stop offset="0.7487" stop-color="#F27E1F"/>
<stop offset="1" stop-color="#9C5022"/>
</linearGradient>
<linearGradient id="paint24_linear_1_45914" x1="132.56" y1="42.1888" x2="145.996" y2="47.5315" gradientUnits="userSpaceOnUse">
<stop stop-color="#CC6A1A"/>
<stop offset="0.2818" stop-color="#AB6316"/>
<stop offset="0.7487" stop-color="#F27E1F"/>
<stop offset="1" stop-color="#9C5022"/>
</linearGradient>
<linearGradient id="paint25_linear_1_45914" x1="144.541" y1="52.1616" x2="147.707" y2="53.4203" gradientUnits="userSpaceOnUse">
<stop stop-color="#CC6A1A"/>
<stop offset="0.2818" stop-color="#AB6316"/>
<stop offset="0.7487" stop-color="#F27E1F"/>
<stop offset="1" stop-color="#9C5022"/>
</linearGradient>
<linearGradient id="paint26_linear_1_45914" x1="143.85" y1="38.4795" x2="157.552" y2="43.9278" gradientUnits="userSpaceOnUse">
<stop stop-color="#CC6A1A"/>
<stop offset="0.2818" stop-color="#AB6316"/>
<stop offset="0.7487" stop-color="#F27E1F"/>
<stop offset="1" stop-color="#9C5022"/>
</linearGradient>
<linearGradient id="paint27_linear_1_45914" x1="146.578" y1="24.3207" x2="152.559" y2="26.6986" gradientUnits="userSpaceOnUse">
<stop stop-color="#CC6A1A"/>
<stop offset="0.2818" stop-color="#AB6316"/>
<stop offset="0.7487" stop-color="#F27E1F"/>
<stop offset="1" stop-color="#9C5022"/>
</linearGradient>
<linearGradient id="paint28_linear_1_45914" x1="140.183" y1="25.6482" x2="146.395" y2="28.1182" gradientUnits="userSpaceOnUse">
<stop stop-color="#CC6A1A"/>
<stop offset="0.2818" stop-color="#AB6316"/>
<stop offset="0.7487" stop-color="#F27E1F"/>
<stop offset="1" stop-color="#9C5022"/>
</linearGradient>
<linearGradient id="paint29_linear_1_45914" x1="146.046" y1="20.5543" x2="158.983" y2="25.6986" gradientUnits="userSpaceOnUse">
<stop stop-color="#CC6A1A"/>
<stop offset="0.2818" stop-color="#AB6316"/>
<stop offset="0.7487" stop-color="#F27E1F"/>
<stop offset="1" stop-color="#9C5022"/>
</linearGradient>
<linearGradient id="paint30_linear_1_45914" x1="145.621" y1="39.7028" x2="152.61" y2="42.4817" gradientUnits="userSpaceOnUse">
<stop stop-color="#CC6A1A"/>
<stop offset="0.2818" stop-color="#AB6316"/>
<stop offset="0.7487" stop-color="#F27E1F"/>
<stop offset="1" stop-color="#9C5022"/>
</linearGradient>
<linearGradient id="paint31_linear_1_45914" x1="134.877" y1="27.645" x2="158.038" y2="40.7839" gradientUnits="userSpaceOnUse">
<stop stop-color="#FFB021"/>
<stop offset="0.2522" stop-color="#FFDD54"/>
<stop offset="0.5122" stop-color="#FFB021"/>
<stop offset="0.7548" stop-color="#FFDD54"/>
<stop offset="1" stop-color="#FFB021"/>
</linearGradient>
<linearGradient id="paint32_linear_1_45914" x1="61.903" y1="86.0611" x2="119.353" y2="118.651" gradientUnits="userSpaceOnUse">
<stop offset="0.00112718" stop-color="#FF9721"/>
<stop offset="0.1449" stop-color="#FFB021"/>
<stop offset="0.3145" stop-color="#FFDD54"/>
<stop offset="0.5122" stop-color="#FFB021"/>
<stop offset="0.7308" stop-color="#FFDD54"/>
<stop offset="0.887" stop-color="#FF9721"/>
<stop offset="1" stop-color="#FFB021"/>
</linearGradient>
<radialGradient id="paint33_radial_1_45914" cx="0" cy="0" r="1" gradientUnits="userSpaceOnUse" gradientTransform="translate(90 102) scale(34.0001)">
<stop offset="0.9502" stop-opacity="0"/>
<stop offset="1" stop-color="#1D1D1B" stop-opacity="0.2"/>
</radialGradient>
<linearGradient id="paint34_linear_1_45914" x1="63.3964" y1="91.4216" x2="116.238" y2="112.433" gradientUnits="userSpaceOnUse">
<stop stop-color="#F27E1F"/>
<stop offset="0.2071" stop-color="#D1791B"/>
<stop offset="0.3871" stop-color="#E87833"/>
<stop offset="0.569" stop-color="#F27E1F"/>
<stop offset="0.7334" stop-color="#D1791B"/>
<stop offset="0.9032" stop-color="#F27E1F"/>
<stop offset="1" stop-color="#E87833"/>
</linearGradient>
<linearGradient id="paint35_linear_1_45914" x1="69.4946" y1="90.3768" x2="111.391" y2="114.144" gradientUnits="userSpaceOnUse">
<stop offset="0.00112718" stop-color="#FF9721"/>
<stop offset="0.1449" stop-color="#FFB021"/>
<stop offset="0.3145" stop-color="#FFDD54"/>
<stop offset="0.5122" stop-color="#FFB021"/>
<stop offset="0.7308" stop-color="#FFDD54"/>
<stop offset="0.887" stop-color="#FF9721"/>
<stop offset="1" stop-color="#FFB021"/>
</linearGradient>
<linearGradient id="paint36_linear_1_45914" x1="76.3893" y1="96.5564" x2="103.878" y2="107.486" gradientUnits="userSpaceOnUse">
<stop stop-color="#F27E1F"/>
<stop offset="0.2071" stop-color="#D1791B"/>
<stop offset="0.3871" stop-color="#E87833"/>
<stop offset="0.569" stop-color="#F27E1F"/>
<stop offset="0.7334" stop-color="#D1791B"/>
<stop offset="0.9032" stop-color="#F27E1F"/>
<stop offset="1" stop-color="#E87833"/>
</linearGradient>
<linearGradient id="paint37_linear_1_45914" x1="88.4281" y1="82.5722" x2="91.5941" y2="83.831" gradientUnits="userSpaceOnUse">
<stop stop-color="#CC6A1A"/>
<stop offset="0.2818" stop-color="#AB6316"/>
<stop offset="0.7487" stop-color="#F27E1F"/>
<stop offset="1" stop-color="#9C5022"/>
</linearGradient>
<linearGradient id="paint38_linear_1_45914" x1="78.8945" y1="91.9965" x2="92.1537" y2="97.2688" gradientUnits="userSpaceOnUse">
<stop stop-color="#CC6A1A"/>
<stop offset="0.2818" stop-color="#AB6316"/>
<stop offset="0.7487" stop-color="#F27E1F"/>
<stop offset="1" stop-color="#9C5022"/>
</linearGradient>
<linearGradient id="paint39_linear_1_45914" x1="83.0257" y1="109.223" x2="89.6078" y2="111.84" gradientUnits="userSpaceOnUse">
<stop stop-color="#CC6A1A"/>
<stop offset="0.2818" stop-color="#AB6316"/>
<stop offset="0.7487" stop-color="#F27E1F"/>
<stop offset="1" stop-color="#9C5022"/>
</linearGradient>
<linearGradient id="paint40_linear_1_45914" x1="76.56" y1="110.189" x2="89.9963" y2="115.531" gradientUnits="userSpaceOnUse">
<stop stop-color="#CC6A1A"/>
<stop offset="0.2818" stop-color="#AB6316"/>
<stop offset="0.7487" stop-color="#F27E1F"/>
<stop offset="1" stop-color="#9C5022"/>
</linearGradient>
<linearGradient id="paint41_linear_1_45914" x1="88.5412" y1="120.162" x2="91.7069" y2="121.42" gradientUnits="userSpaceOnUse">
<stop stop-color="#CC6A1A"/>
<stop offset="0.2818" stop-color="#AB6316"/>
<stop offset="0.7487" stop-color="#F27E1F"/>
<stop offset="1" stop-color="#9C5022"/>
</linearGradient>
<linearGradient id="paint42_linear_1_45914" x1="87.85" y1="106.48" x2="101.552" y2="111.928" gradientUnits="userSpaceOnUse">
<stop stop-color="#CC6A1A"/>
<stop offset="0.2818" stop-color="#AB6316"/>
<stop offset="0.7487" stop-color="#F27E1F"/>
<stop offset="1" stop-color="#9C5022"/>
</linearGradient>
<linearGradient id="paint43_linear_1_45914" x1="90.5783" y1="92.3207" x2="96.5586" y2="94.6986" gradientUnits="userSpaceOnUse">
<stop stop-color="#CC6A1A"/>
<stop offset="0.2818" stop-color="#AB6316"/>
<stop offset="0.7487" stop-color="#F27E1F"/>
<stop offset="1" stop-color="#9C5022"/>
</linearGradient>
<linearGradient id="paint44_linear_1_45914" x1="84.1829" y1="93.6482" x2="90.3948" y2="96.1182" gradientUnits="userSpaceOnUse">
<stop stop-color="#CC6A1A"/>
<stop offset="0.2818" stop-color="#AB6316"/>
<stop offset="0.7487" stop-color="#F27E1F"/>
<stop offset="1" stop-color="#9C5022"/>
</linearGradient>
<linearGradient id="paint45_linear_1_45914" x1="90.0458" y1="88.5543" x2="102.983" y2="93.6986" gradientUnits="userSpaceOnUse">
<stop stop-color="#CC6A1A"/>
<stop offset="0.2818" stop-color="#AB6316"/>
<stop offset="0.7487" stop-color="#F27E1F"/>
<stop offset="1" stop-color="#9C5022"/>
</linearGradient>
<linearGradient id="paint46_linear_1_45914" x1="89.6214" y1="107.703" x2="96.6102" y2="110.482" gradientUnits="userSpaceOnUse">
<stop stop-color="#CC6A1A"/>
<stop offset="0.2818" stop-color="#AB6316"/>
<stop offset="0.7487" stop-color="#F27E1F"/>
<stop offset="1" stop-color="#9C5022"/>
</linearGradient>
<linearGradient id="paint47_linear_1_45914" x1="78.8767" y1="95.645" x2="102.038" y2="108.784" gradientUnits="userSpaceOnUse">
<stop stop-color="#FFB021"/>
<stop offset="0.2522" stop-color="#FFDD54"/>
<stop offset="0.5122" stop-color="#FFB021"/>
<stop offset="0.7548" stop-color="#FFDD54"/>
<stop offset="1" stop-color="#FFB021"/>
</linearGradient>
</defs>
</svg>
