<svg width="16" height="16" viewBox="0 0 16 16" fill="none" xmlns="http://www.w3.org/2000/svg">
<path d="M5.6 14C4.58889 14 3.73611 13.6528 3.04167 12.9583C2.34722 12.2639 2 11.4111 2 10.4C2 9.97778 2.07222 9.56667 2.21667 9.16667C2.36111 8.76667 2.56667 8.40556 2.83333 8.08333L5.2 5.23333L3.58333 2H12.4167L10.8 5.23333L13.1667 8.08333C13.4333 8.40556 13.6389 8.76667 13.7833 9.16667C13.9278 9.56667 14 9.97778 14 10.4C14 11.4111 13.65 12.2639 12.95 12.9583C12.25 13.6528 11.4 14 10.4 14H5.6ZM8 10.6667C7.63333 10.6667 7.31944 10.5361 7.05833 10.275C6.79722 10.0139 6.66667 9.7 6.66667 9.33333C6.66667 8.96667 6.79722 8.65278 7.05833 8.39167C7.31944 8.13056 7.63333 8 8 8C8.36667 8 8.68056 8.13056 8.94167 8.39167C9.20278 8.65278 9.33333 8.96667 9.33333 9.33333C9.33333 9.7 9.20278 10.0139 8.94167 10.275C8.68056 10.5361 8.36667 10.6667 8 10.6667ZM6.41667 4.66667H9.58333L10.25 3.33333H5.75L6.41667 4.66667ZM5.6 12.6667H10.4C11.0333 12.6667 11.5694 12.4472 12.0083 12.0083C12.4472 11.5694 12.6667 11.0333 12.6667 10.4C12.6667 10.1333 12.6194 9.875 12.525 9.625C12.4306 9.375 12.3 9.15 12.1333 8.95L9.68333 6H6.33333L3.86667 8.93333C3.7 9.13333 3.56944 9.36111 3.475 9.61667C3.38056 9.87222 3.33333 10.1333 3.33333 10.4C3.33333 11.0333 3.55278 11.5694 3.99167 12.0083C4.43056 12.4472 4.96667 12.6667 5.6 12.6667Z" fill="#0C46BE"/>
</svg>
