<svg width="16" height="16" viewBox="0 0 16 16" fill="none" xmlns="http://www.w3.org/2000/svg">
<path d="M3.33333 14C2.96667 14 2.65278 13.8694 2.39167 13.6083C2.13056 13.3472 2 13.0333 2 12.6667V3.33333C2 2.96667 2.13056 2.65278 2.39167 2.39167C2.65278 2.13056 2.96667 2 3.33333 2H12.6667C13.0333 2 13.3472 2.13056 13.6083 2.39167C13.8694 2.65278 14 2.96667 14 3.33333V5H12.6667V3.33333H3.33333V12.6667H12.6667V11H14V12.6667C14 13.0333 13.8694 13.3472 13.6083 13.6083C13.3472 13.8694 13.0333 14 12.6667 14H3.33333ZM8.66667 11.3333C8.3 11.3333 7.98611 11.2028 7.725 10.9417C7.46389 10.6806 7.33333 10.3667 7.33333 10V6C7.33333 5.63333 7.46389 5.31944 7.725 5.05833C7.98611 4.79722 8.3 4.66667 8.66667 4.66667H13.3333C13.7 4.66667 14.0139 4.79722 14.275 5.05833C14.5361 5.31944 14.6667 5.63333 14.6667 6V10C14.6667 10.3667 14.5361 10.6806 14.275 10.9417C14.0139 11.2028 13.7 11.3333 13.3333 11.3333H8.66667ZM13.3333 10V6H8.66667V10H13.3333ZM10.6667 9C10.9444 9 11.1806 8.90278 11.375 8.70833C11.5694 8.51389 11.6667 8.27778 11.6667 8C11.6667 7.72222 11.5694 7.48611 11.375 7.29167C11.1806 7.09722 10.9444 7 10.6667 7C10.3889 7 10.1528 7.09722 9.95833 7.29167C9.76389 7.48611 9.66667 7.72222 9.66667 8C9.66667 8.27778 9.76389 8.51389 9.95833 8.70833C10.1528 8.90278 10.3889 9 10.6667 9Z" fill="#0C46BE"/>
</svg>
