<svg width="16" height="16" viewBox="0 0 16 16" fill="none" xmlns="http://www.w3.org/2000/svg">
<path d="M13.5 11.0715V4.92953C13.8412 4.84209 14.1532 4.66593 14.4043 4.41892C14.6554 4.17191 14.8366 3.86286 14.9297 3.52314C15.0227 3.18343 15.0242 2.82514 14.9339 2.48467C14.8437 2.1442 14.665 1.83367 14.4159 1.58461C14.1669 1.33556 13.8563 1.15684 13.5159 1.06661C13.1754 0.976375 12.8171 0.977845 12.4774 1.07087C12.1377 1.16389 11.8286 1.34515 11.5816 1.59625C11.3346 1.84734 11.1584 2.15933 11.071 2.50053H4.92901C4.84157 2.15933 4.66541 1.84734 4.4184 1.59625C4.1714 1.34515 3.86234 1.16389 3.52262 1.07087C3.18291 0.977845 2.82462 0.976375 2.48415 1.06661C2.14369 1.15684 1.83316 1.33556 1.5841 1.58461C1.33504 1.83367 1.15632 2.1442 1.06609 2.48467C0.975856 2.82514 0.977326 3.18343 1.07035 3.52314C1.16337 3.86286 1.34463 4.17191 1.59573 4.41892C1.84682 4.66593 2.15881 4.84209 2.50001 4.92953V11.0715C2.15881 11.159 1.84682 11.3351 1.59573 11.5821C1.34463 11.8291 1.16337 12.1382 1.07035 12.4779C0.977326 12.8176 0.975856 13.1759 1.06609 13.5164C1.15632 13.8568 1.33504 14.1674 1.5841 14.4164C1.83316 14.6655 2.14369 14.8442 2.48415 14.9344C2.82462 15.0247 3.18291 15.0232 3.52262 14.9302C3.86234 14.8372 4.1714 14.6559 4.4184 14.4048C4.66541 14.1537 4.84157 13.8417 4.92901 13.5005H11.071C11.1584 13.8417 11.3346 14.1537 11.5816 14.4048C11.8286 14.6559 12.1377 14.8372 12.4774 14.9302C12.8171 15.0232 13.1754 15.0247 13.5159 14.9344C13.8563 14.8442 14.1669 14.6655 14.4159 14.4164C14.665 14.1674 14.8437 13.8568 14.9339 13.5164C15.0242 13.1759 15.0227 12.8176 14.9297 12.4779C14.8366 12.1382 14.6554 11.8291 14.4043 11.5821C14.1532 11.3351 13.8412 11.159 13.5 11.0715ZM13 2.00053C13.1978 2.00053 13.3911 2.05917 13.5556 2.16906C13.72 2.27894 13.8482 2.43512 13.9239 2.61784C13.9996 2.80057 14.0194 3.00163 13.9808 3.19562C13.9422 3.3896 13.847 3.56778 13.7071 3.70763C13.5673 3.84748 13.3891 3.94273 13.1951 3.98131C13.0011 4.0199 12.8 4.00009 12.6173 3.92441C12.4346 3.84872 12.2784 3.72054 12.1685 3.5561C12.0587 3.39165 12 3.19831 12 3.00053C12 2.73531 12.1054 2.48096 12.2929 2.29342C12.4804 2.10588 12.7348 2.00053 13 2.00053ZM2.00001 3.00053C2.00001 2.80274 2.05866 2.6094 2.16854 2.44496C2.27842 2.28051 2.4346 2.15233 2.61732 2.07665C2.80005 2.00096 3.00112 1.98115 3.1951 2.01974C3.38908 2.05833 3.56726 2.15357 3.70711 2.29342C3.84697 2.43327 3.94221 2.61145 3.98079 2.80544C4.01938 2.99942 3.99957 3.20048 3.92389 3.38321C3.8482 3.56594 3.72003 3.72211 3.55558 3.832C3.39113 3.94188 3.19779 4.00053 3.00001 4.00053C2.73479 4.00053 2.48044 3.89517 2.2929 3.70763C2.10536 3.5201 2.00001 3.26574 2.00001 3.00053ZM3.00001 14.0005C2.80223 14.0005 2.60889 13.9419 2.44444 13.832C2.27999 13.7221 2.15181 13.5659 2.07613 13.3832C2.00044 13.2005 1.98064 12.9994 2.01922 12.8054C2.05781 12.6115 2.15305 12.4333 2.2929 12.2934C2.43275 12.1536 2.61094 12.0583 2.80492 12.0197C2.9989 11.9812 3.19996 12.001 3.38269 12.0766C3.56542 12.1523 3.72159 12.2805 3.83148 12.445C3.94136 12.6094 4.00001 12.8027 4.00001 13.0005C4.00001 13.2657 3.89465 13.5201 3.70711 13.7076C3.51958 13.8952 3.26522 14.0005 3.00001 14.0005ZM11.071 12.5005H4.92901C4.83916 12.1569 4.65942 11.8434 4.40827 11.5923C4.15713 11.3411 3.84363 11.1614 3.50001 11.0715V4.92953C3.84363 4.83968 4.15713 4.65994 4.40827 4.40879C4.65942 4.15765 4.83916 3.84415 4.92901 3.50053H11.071C11.1609 3.84415 11.3406 4.15765 11.5917 4.40879C11.8429 4.65994 12.1564 4.83968 12.5 4.92953V11.0715C12.1562 11.1609 11.8424 11.3405 11.5912 11.5917C11.34 11.8429 11.1604 12.1567 11.071 12.5005ZM13 14.0005C12.8022 14.0005 12.6089 13.9419 12.4444 13.832C12.28 13.7221 12.1518 13.5659 12.0761 13.3832C12.0004 13.2005 11.9806 12.9994 12.0192 12.8054C12.0578 12.6115 12.153 12.4333 12.2929 12.2934C12.4328 12.1536 12.6109 12.0583 12.8049 12.0197C12.9989 11.9812 13.2 12.001 13.3827 12.0766C13.5654 12.1523 13.7216 12.2805 13.8315 12.445C13.9414 12.6094 14 12.8027 14 13.0005C13.9996 13.2656 13.8941 13.5197 13.7067 13.7072C13.5192 13.8946 13.2651 14.0001 13 14.0005Z" fill="black"/>
</svg>
