<svg width="18" height="18" viewBox="0 0 18 18" fill="none" xmlns="http://www.w3.org/2000/svg">
<path d="M1.91875 16.5L5.9125 9L10.475 13.0562C10.6179 13.1832 10.7879 13.2757 10.9721 13.3266C11.1563 13.3775 11.3497 13.3855 11.5375 13.35C11.727 13.3145 11.9057 13.2357 12.0597 13.1197C12.2136 13.0037 12.3387 12.8536 12.425 12.6812L15.875 5.8125L14.7375 5.25L11.3063 12.125L6.74375 8.06875C6.6045 7.93925 6.43755 7.84323 6.2556 7.788C6.07364 7.73276 5.88148 7.71977 5.69375 7.75C5.50835 7.78076 5.33227 7.85293 5.17862 7.96114C5.02496 8.06934 4.89768 8.21081 4.80625 8.375L1.5 14.625V0.25H0.25V16.5C0.25 16.8315 0.381696 17.1495 0.616116 17.3839C0.850537 17.6183 1.16848 17.75 1.5 17.75H17.75V16.5H1.91875Z" fill="black"/>
</svg>
