<svg width="14" height="16" viewBox="0 0 14 16" fill="none" xmlns="http://www.w3.org/2000/svg">
<path d="M13.5625 9.25001H12.3125L11.0625 11.6856L9.8125 9.25001H8.5625L10.3781 12.375L8.5625 15.5H9.8125L11.0625 13.1256L12.3125 15.5H13.5625L11.7487 12.375L13.5625 9.25001ZM9.1875 1.75001V0.500014H6.00813C5.69576 0.498545 5.39427 0.614671 5.1636 0.825309C4.93293 1.03595 4.78996 1.32567 4.76312 1.63689L4.35625 6.12501H1.6875V7.37501H4.24187L3.61687 14.25H0.4375V15.5H3.61687C3.92924 15.5015 4.23073 15.3854 4.4614 15.1747C4.69207 14.9641 4.83504 14.6744 4.86188 14.3631L5.49688 7.37501H8.5625V6.12501H5.61063L6.00813 1.75001H9.1875Z" fill="black"/>
</svg>
