<svg width="18" height="18" viewBox="0 0 18 18" fill="none" xmlns="http://www.w3.org/2000/svg">
<path d="M14.9076 11.0332V14.7332C14.9074 15.2567 14.6993 15.7587 14.3292 16.1289C13.959 16.4991 13.457 16.7072 12.9334 16.7074H3.26595C3.00574 16.7073 2.74813 16.6557 2.5079 16.5558C2.26766 16.4558 2.04956 16.3093 1.86611 16.1248C1.68266 15.9403 1.53748 15.7213 1.43892 15.4805C1.34036 15.2397 1.29036 14.9817 1.29178 14.7215V5.06488C1.29023 4.80509 1.34026 4.54757 1.43897 4.30725C1.53767 4.06693 1.68309 3.8486 1.8668 3.66489C2.0505 3.48119 2.26884 3.33577 2.50915 3.23706C2.74947 3.13836 3.00699 3.08833 3.26678 3.08988H6.96595" stroke="black" stroke-width="1.5" stroke-linecap="round" stroke-linejoin="round"/>
<path d="M14.9076 6.49576L11.5034 3.09076M4.69507 12.1691V10.3649C4.69674 10.0674 4.81507 9.7816 5.02424 9.57076L12.9676 1.62743C13.073 1.52085 13.1985 1.43624 13.3368 1.3785C13.4751 1.32075 13.6235 1.29102 13.7734 1.29102C13.9233 1.29102 14.0717 1.32075 14.21 1.3785C14.3483 1.43624 14.4738 1.52085 14.5792 1.62743L16.3717 3.41993C16.4783 3.52533 16.5629 3.65082 16.6207 3.78915C16.6784 3.92747 16.7082 4.07587 16.7082 4.22576C16.7082 4.37566 16.6784 4.52406 16.6207 4.66238C16.5629 4.80071 16.4783 4.9262 16.3717 5.0316L8.4284 12.9749C8.21718 13.1847 7.93192 13.3029 7.63424 13.3041H5.83007C5.68096 13.3043 5.53327 13.2751 5.39546 13.2181C5.25766 13.1612 5.13245 13.0776 5.02701 12.9722C4.92158 12.8667 4.83798 12.7415 4.78102 12.6037C4.72406 12.4659 4.69485 12.3182 4.69507 12.1691Z" stroke="black" stroke-width="1.5" stroke-linecap="round" stroke-linejoin="round"/>
</svg>
