<svg width="14" height="18" viewBox="0 0 14 18" fill="none" xmlns="http://www.w3.org/2000/svg">
<path d="M4.91667 8.99935C4.91667 9.55188 4.69717 10.0818 4.30647 10.4725C3.91577 10.8632 3.38587 11.0827 2.83333 11.0827C2.2808 11.0827 1.75089 10.8632 1.36019 10.4725C0.969493 10.0818 0.75 9.55188 0.75 8.99935C0.75 8.44681 0.969493 7.91691 1.36019 7.52621C1.75089 7.13551 2.2808 6.91602 2.83333 6.91602C3.38587 6.91602 3.91577 7.13551 4.30647 7.52621C4.69717 7.91691 4.91667 8.44681 4.91667 8.99935Z" stroke="black" stroke-width="1.5"/>
<path d="M9.08329 4.41602L4.91663 7.33268M9.08329 13.5827L4.91663 10.666" stroke="black" stroke-width="1.5" stroke-linecap="round"/>
<path d="M13.25 14.4167C13.25 14.9692 13.0305 15.4991 12.6398 15.8898C12.2491 16.2805 11.7192 16.5 11.1667 16.5C10.6142 16.5 10.0843 16.2805 9.69357 15.8898C9.30287 15.4991 9.08337 14.9692 9.08337 14.4167C9.08337 13.8641 9.30287 13.3342 9.69357 12.9435C10.0843 12.5528 10.6142 12.3333 11.1667 12.3333C11.7192 12.3333 12.2491 12.5528 12.6398 12.9435C13.0305 13.3342 13.25 13.8641 13.25 14.4167ZM13.25 3.58333C13.25 4.13587 13.0305 4.66577 12.6398 5.05647C12.2491 5.44717 11.7192 5.66667 11.1667 5.66667C10.6142 5.66667 10.0843 5.44717 9.69357 5.05647C9.30287 4.66577 9.08337 4.13587 9.08337 3.58333C9.08337 3.0308 9.30287 2.50089 9.69357 2.11019C10.0843 1.71949 10.6142 1.5 11.1667 1.5C11.7192 1.5 12.2491 1.71949 12.6398 2.11019C13.0305 2.50089 13.25 3.0308 13.25 3.58333Z" stroke="black" stroke-width="1.5"/>
</svg>
