<svg width="16" height="16" viewBox="0 0 16 16" fill="none" xmlns="http://www.w3.org/2000/svg">
<path d="M9.99999 14.0007H5.99999M7.99999 2V14M7.99999 2C8.92466 2 10.1133 2.02 11.0587 2.11733C11.4587 2.15867 11.6587 2.17933 11.836 2.252C12.0212 2.33032 12.1868 2.44855 12.3211 2.59824C12.4553 2.74793 12.5549 2.92541 12.6127 3.118C12.6667 3.30267 12.6667 3.51333 12.6667 3.93467M7.99999 2C7.07533 2 5.88666 2.02 4.94133 2.11733C4.54133 2.15867 4.34133 2.17933 4.16399 2.252C3.97868 2.33024 3.81292 2.44843 3.67855 2.59813C3.54418 2.74783 3.44451 2.92534 3.38666 3.118C3.33333 3.30267 3.33333 3.51333 3.33333 3.93467" stroke="black" stroke-linecap="round" stroke-linejoin="round"/>
</svg>
