<svg width="130" height="178" viewBox="0 0 130 178" fill="none" xmlns="http://www.w3.org/2000/svg">
<g opacity="0.2">
<path d="M65.5 178C95.0472 178 119 171.06 119 162.5C119 153.94 95.0472 147 65.5 147C35.9528 147 12 153.94 12 162.5C12 171.06 35.9528 178 65.5 178Z" fill="#000072"/>
</g>
<path d="M84 142.053L92.3477 141.794L93.1733 149.985C91.5663 125.272 115.969 132.364 108.615 149.985C104.587 161.716 93.4876 163.873 84.0006 157.427L84 142.053Z" fill="#60547B"/>
<path d="M46 142.054V157.428C36.6682 163.764 25.7845 161.787 21.5973 150.565C21.5245 150.374 21.4553 150.179 21.3861 149.983C14.1213 132.585 37.8251 125.453 36.872 149.069V149.073C36.8605 149.369 36.8453 149.674 36.8259 149.982L36.9297 148.963L37.6522 141.791L46 142.054Z" fill="#60547B"/>
<g opacity="0.3">
<path d="M46.6727 148.154V157.423C37.1898 163.744 26.13 161.772 21.875 150.575C27.5788 154.979 33.0366 157.115 37.397 149.086V149.082C37.4167 149.047 37.4358 149.012 37.4556 148.977C37.5024 148.887 37.553 148.794 37.5998 148.7L46.6727 148.154Z" fill="#000072"/>
</g>
<g opacity="0.3">
<path d="M83.332 148.154V157.423C92.8149 163.744 103.875 161.772 108.13 150.575C102.426 154.979 96.9682 157.115 92.6077 149.086V149.082C92.588 149.047 92.5689 149.012 92.5492 148.977C92.5023 148.887 92.4518 148.794 92.4049 148.7L83.332 148.154Z" fill="#000072"/>
</g>
<path d="M91.3031 126.624L80.7975 135.608L77.4013 138.512L57.6748 141.513L49.2147 135.916L36.5508 127.536L40.4858 117.399L43.0153 110.89L43.8044 108.855L86.4625 110.555L86.5987 111.003L88.6602 117.847L91.3031 126.624Z" fill="white"/>
<path d="M57.6345 141.684L36.3477 127.6L43.6913 108.688L43.8084 108.692L86.5824 110.396L86.7531 110.955L91.4884 126.679L77.47 138.666L77.4238 138.673L57.6345 141.684ZM36.749 127.472L57.7103 141.341L77.3276 138.356L91.113 126.569L86.3364 110.713L43.912 109.023L36.749 127.472Z" fill="#000072"/>
<path d="M69.3465 162.577C66.4589 165.066 63.5712 165.066 60.6836 162.577V135.59C63.5712 137.688 66.4589 137.688 69.3465 135.59V162.577Z" fill="#0399FF"/>
<path d="M46.6719 157.624L60.6767 162.578V135.591L46.6719 130.637V157.624Z" fill="#0399FF"/>
<path d="M83.3257 130.636L80.2938 126.394C80.2938 126.394 71.441 122.988 66.9887 133.032C65.752 132.652 64.241 132.654 63.0068 133.036C58.5551 122.987 49.6999 126.394 49.6999 126.394L46.668 130.636L60.7542 134.995C60.7036 135.182 60.6728 135.379 60.6728 135.59H62.4175L64.9975 136.55L67.3525 135.59H69.3357C69.3357 135.318 69.2864 135.068 69.2038 134.835L69.6421 134.656L83.3257 130.636Z" fill="white"/>
<path d="M65.0021 136.726L62.39 135.754H60.5115V135.59C60.5115 135.428 60.5282 135.268 60.5621 135.106L46.4062 130.725L49.5984 126.26L49.6441 126.242C49.7341 126.207 58.6195 122.925 63.1014 132.839C64.2863 132.504 65.7147 132.503 66.9015 132.835C71.384 122.924 80.2676 126.207 80.357 126.242L80.4026 126.26L83.5966 130.728L69.6917 134.813L69.4094 134.928C69.4722 135.146 69.5024 135.364 69.5024 135.59V135.753H67.3879L65.0021 136.726ZM60.8457 135.427L62.4769 135.437L64.9971 136.375L67.3552 135.427H69.1683C69.1541 135.246 69.1159 135.069 69.0524 134.89L69 134.743L69.5832 134.505L83.0621 130.544L80.193 126.531C79.4366 126.256 71.3612 123.58 67.1419 133.099L67.0827 133.232L66.9434 133.19C65.7443 132.822 64.2555 132.822 63.0577 133.194L62.9183 133.237L62.8591 133.104C58.6824 123.675 50.488 126.295 49.8056 126.532L46.9352 130.548L60.956 134.887L60.9147 135.039C60.879 135.17 60.8562 135.299 60.8457 135.427Z" fill="#000072"/>
<g opacity="0.2">
<path d="M83.3296 130.636L80.2977 126.394C80.2977 126.394 71.4449 122.988 66.9926 133.032C65.756 132.652 64.2449 132.654 63.0107 133.036C58.559 122.987 49.7038 126.394 49.7038 126.394L46.6719 130.636L60.7581 134.995C60.7075 135.182 60.6767 135.379 60.6767 135.59H62.4214L65.0014 136.55L67.3564 135.59H69.3396C69.3396 135.318 69.2903 135.068 69.2077 134.835L69.646 134.656L83.3296 130.636Z" fill="#000072"/>
</g>
<path d="M83.329 157.624L69.3242 162.578V135.591L83.329 130.637V157.624Z" fill="#0399FF"/>
<g opacity="0.55">
<path d="M69.3426 135.588V138.706C69.3389 138.71 69.3346 138.71 69.3309 138.714C66.45 140.807 63.5649 140.803 60.6797 138.706V135.588C63.5649 137.685 66.4494 137.689 69.3309 135.596C69.3352 135.592 69.3389 135.592 69.3426 135.588Z" fill="white"/>
</g>
<g opacity="0.55">
<path d="M60.6755 135.589V138.707L46.6719 133.753V130.635L60.6755 135.589Z" fill="white"/>
</g>
<g opacity="0.55">
<path d="M83.3278 130.635V133.753L69.3359 138.702V138.706C69.3322 138.71 69.3279 138.71 69.3242 138.714V135.588L83.3278 130.635Z" fill="white"/>
</g>
<g opacity="0.55">
<path d="M69.3405 138.703V138.707C69.3366 138.711 69.332 138.711 69.3281 138.716V138.707L69.3405 138.703Z" fill="white"/>
<path d="M69.1641 139.109V138.598L69.4905 138.479L69.5022 138.775L69.1641 139.109Z" fill="#000072"/>
</g>
<path d="M65.0062 165.82C63.2486 165.82 61.491 165.084 59.7821 163.611C59.4812 163.352 59.3086 162.975 59.3086 162.578V135.591C59.3086 135.077 59.5971 134.608 60.0552 134.375C60.5132 134.142 61.0631 134.185 61.4793 134.488C63.886 136.236 66.1282 136.236 68.5338 134.488C68.9493 134.185 69.4998 134.142 69.9578 134.375C70.4159 134.608 70.7044 135.077 70.7044 135.591V162.578C70.7044 162.974 70.5318 163.352 70.231 163.611C68.5221 165.084 66.7644 165.82 65.0062 165.82ZM62.0415 161.929C64.0741 163.467 65.9389 163.467 67.9715 161.929V137.921C66.0068 138.725 64.0056 138.725 62.0415 137.921V161.929Z" fill="#000072"/>
<path d="M60.6834 163.942C60.5299 163.942 60.3752 163.916 60.2272 163.864L46.2224 158.91C45.6768 158.718 45.3125 158.202 45.3125 157.624V130.637C45.3125 130.194 45.5283 129.778 45.8908 129.523C46.2533 129.268 46.7175 129.204 47.1355 129.351L61.1403 134.305C61.6859 134.497 62.0502 135.012 62.0502 135.59V162.578C62.0502 163.021 61.8344 163.436 61.4719 163.692C61.2383 163.857 60.9627 163.942 60.6834 163.942ZM48.0454 156.661L59.3173 160.648V136.554L48.0454 132.567V156.661Z" fill="#000072"/>
<path d="M49.2086 135.916C49.2357 138.624 47.7136 141.01 45.1015 142.035L38.1839 141.82C37.6531 141.633 37.1062 141.403 36.544 141.131C35.0139 136.146 31.7107 134.006 28.4748 134.049C23.9386 126.823 26.2844 118.568 29.9309 112.737C31.0671 110.925 32.3278 109.342 33.546 108.104L43.0091 110.89L47.8695 112.321L42.9857 118.003C42.9543 118.047 42.9271 118.093 42.8957 118.136C40.2059 122.228 41.4081 126.313 46.5108 130.401C47.9355 131.543 48.9311 133.223 49.1574 135.086C49.1894 135.366 49.2086 135.639 49.2086 135.916Z" fill="#60547B"/>
<g opacity="0.55">
<path d="M20.4153 145.749C21.5823 135.359 36.0229 133.172 37.4088 148.7C38.0413 127.595 18.2526 131.718 20.4153 145.749Z" fill="white"/>
</g>
<path d="M42.1789 143.926C40.2351 143.926 38.1181 143.405 35.9592 142.362C35.2798 142.034 34.9956 141.217 35.3242 140.54C35.6534 139.861 36.4702 139.578 37.149 139.906C40.5421 141.545 43.685 141.629 45.7731 140.137C47.2921 139.052 48.0547 137.226 47.8118 135.255C47.6318 133.799 46.8488 132.417 45.6627 131.464C38.464 125.692 39.6248 120.544 41.8658 117.242C42.2893 116.618 43.1382 116.455 43.7633 116.877C44.3884 117.3 44.5512 118.148 44.1283 118.772C42.6253 120.986 41.3276 124.489 47.3747 129.338C49.1101 130.733 50.258 132.768 50.5237 134.921C50.8912 137.9 49.7094 140.679 47.3636 142.355C45.8988 143.403 44.1258 143.926 42.1789 143.926Z" fill="#000072"/>
<path d="M35.8136 162.345C34.0856 162.345 32.3995 162.082 30.8022 161.549C26.0336 159.956 22.3359 156.029 20.3866 150.487C17.8676 144.528 18.542 138.867 22.1941 135.338C24.9449 132.68 28.8467 131.945 32.135 133.466C34.376 134.502 39.5039 138.197 38.716 150.085C38.6667 150.836 38.0219 151.41 37.263 151.356C36.5096 151.306 35.94 150.657 35.9899 149.905C36.4652 142.721 34.6417 137.632 30.9865 135.941C28.7314 134.899 26.0268 135.43 24.0947 137.298C21.278 140.019 20.8384 144.568 22.9191 149.463C22.9308 149.49 22.9419 149.517 22.9512 149.546C24.636 154.363 27.65 157.619 31.6683 158.961C36.0029 160.408 41.1962 159.435 45.9148 156.286C46.5424 155.867 47.3907 156.036 47.8099 156.663C48.2291 157.289 48.0602 158.136 47.4332 158.555C43.693 161.051 39.6494 162.345 35.8136 162.345Z" fill="#000072"/>
<path d="M28.4857 135.412C28.0308 135.412 27.5863 135.186 27.3273 134.773C24.4798 130.24 23.8658 124.82 25.55 119.099C26.8132 114.808 29.4401 110.341 32.5755 107.149C33.1039 106.611 33.9688 106.603 34.5076 107.131C35.0464 107.658 35.0544 108.522 34.5261 109.059C29.5911 114.082 24.2178 124.688 29.6417 133.323C30.0424 133.961 29.8494 134.803 29.2101 135.204C28.9851 135.345 28.7336 135.412 28.4857 135.412Z" fill="#000072"/>
<path d="M69.341 136.954C68.5864 136.954 67.9748 136.344 67.9748 135.59C67.9748 135.437 67.9748 135.031 67.2985 134.637C66.727 134.304 65.8929 134.113 65.0101 134.113C63.5527 134.113 62.0448 134.665 62.0448 135.59C62.0448 136.344 61.4332 136.954 60.6786 136.954C59.9241 136.954 59.3125 136.344 59.3125 135.59C59.3125 133.114 61.6552 131.385 65.0101 131.385C68.365 131.385 70.7077 133.114 70.7077 135.59C70.7071 136.344 70.0955 136.954 69.341 136.954Z" fill="#000072"/>
<path d="M63.0188 134.402C62.4942 134.402 61.9942 134.099 61.7686 133.589C58.3532 125.88 52.147 127.095 50.5627 127.552L47.7915 131.429C47.3532 132.043 46.5 132.185 45.8853 131.748C45.2713 131.31 45.1283 130.458 45.5666 129.845L48.5985 125.603C48.7539 125.386 48.9703 125.218 49.2193 125.122C49.3198 125.084 59.3464 121.376 64.2672 132.486C64.5724 133.175 64.2605 133.98 63.5706 134.285C63.3912 134.364 63.2038 134.402 63.0188 134.402Z" fill="#000072"/>
<path d="M91.816 141.822C89.0831 142.799 86.7251 142.753 84.8984 142.036L91.816 141.822Z" fill="#A36997"/>
<path d="M87.8428 142.729C86.7695 142.729 85.7603 142.549 84.8393 142.188L84.0977 141.896L92.8481 141.625L91.8722 141.975C90.4685 142.477 89.1116 142.729 87.8428 142.729ZM85.8602 142.169C87.2917 142.524 88.9075 142.473 90.6226 142.021L85.8602 142.169Z" fill="#000072"/>
<g opacity="0.55">
<path d="M109.587 145.749C108.42 135.359 93.9788 133.172 92.593 148.7C91.9605 127.595 111.749 131.718 109.587 145.749Z" fill="white"/>
</g>
<path d="M69.3316 163.942C69.0529 163.942 68.7768 163.857 68.5431 163.692C68.1806 163.436 67.9648 163.021 67.9648 162.578V135.59C67.9648 135.012 68.3292 134.497 68.8748 134.305L82.8796 129.351C83.2976 129.204 83.7618 129.268 84.1243 129.523C84.4868 129.778 84.7026 130.194 84.7026 130.637V157.624C84.7026 158.202 84.3382 158.718 83.7926 158.91L69.7878 163.864C69.6392 163.916 69.4851 163.942 69.3316 163.942ZM70.6978 136.554V160.648L81.9696 156.661V132.567L70.6978 136.554Z" fill="#000072"/>
<path d="M101.521 134.049C98.2842 134.006 94.9817 136.146 93.4516 141.131C92.8893 141.403 92.3431 141.633 91.8117 141.82C89.0788 142.798 86.7207 142.752 84.8941 142.035C82.1846 140.975 80.6464 138.445 80.795 135.608C80.803 135.432 80.8184 135.261 80.8382 135.085C81.0644 133.222 82.0601 131.543 83.4848 130.4C88.5289 126.359 89.7625 122.321 87.1899 118.275C87.1313 118.186 87.0727 118.092 87.0105 118.003L82.1266 112.32L86.5968 111.003L96.4502 108.104C97.7226 109.397 99.0425 111.066 100.214 112.979C103.778 118.794 105.999 126.92 101.521 134.049Z" fill="#60547B"/>
<path d="M66.9873 134.402C66.8023 134.402 66.6149 134.364 66.4349 134.285C65.7444 133.98 65.4331 133.174 65.7383 132.486C70.6591 121.376 80.6863 125.084 80.7862 125.122C81.0359 125.218 81.2516 125.385 81.407 125.603L84.4389 129.845C84.8772 130.458 84.7342 131.31 84.1202 131.748C83.5043 132.185 82.6523 132.042 82.214 131.429L79.4422 127.552C77.8671 127.096 71.6541 125.874 68.2363 133.59C68.0119 134.098 67.5119 134.402 66.9873 134.402Z" fill="#000072"/>
<path d="M94.1886 162.345C90.3522 162.345 86.3099 161.051 82.5684 158.555C81.9408 158.136 81.7719 157.289 82.1917 156.663C82.611 156.036 83.4592 155.867 84.0868 156.287C88.8054 159.435 93.9982 160.41 98.3333 158.961C102.352 157.619 105.366 154.363 107.05 149.546C107.06 149.518 107.071 149.49 107.083 149.463C109.163 144.567 108.724 140.02 105.907 137.298C103.976 135.431 101.27 134.899 99.0152 135.941C95.36 137.632 93.5364 142.722 94.0117 149.905C94.0617 150.657 93.4914 151.307 92.7387 151.356C91.9884 151.41 91.3355 150.837 91.2856 150.085C90.4983 138.197 95.6257 134.502 97.8666 133.466C101.157 131.945 105.058 132.679 107.808 135.338C111.46 138.867 112.134 144.528 109.615 150.488C107.666 156.029 103.969 159.956 99.1995 161.549C97.6034 162.082 95.9167 162.345 94.1886 162.345Z" fill="#000072"/>
<path d="M87.8294 143.926C85.8819 143.926 84.1089 143.402 82.6441 142.356C80.2984 140.679 79.1166 137.9 79.484 134.921C79.7497 132.767 80.897 130.732 82.6318 129.338C88.6802 124.489 87.3825 120.985 85.8795 118.772C85.4559 118.148 85.6193 117.3 86.2444 116.877C86.8695 116.455 87.7185 116.618 88.142 117.242C90.3835 120.544 91.5438 125.692 84.3438 131.465C83.1589 132.417 82.3759 133.799 82.1959 135.255C81.953 137.226 82.715 139.051 84.2347 140.137C86.3221 141.629 89.4656 141.545 92.8588 139.906C93.5387 139.579 94.355 139.862 94.6836 140.54C95.0121 141.218 94.7279 142.034 94.0486 142.362C91.8908 143.404 89.7732 143.926 87.8294 143.926Z" fill="#000072"/>
<path d="M101.514 135.412C101.266 135.412 101.015 135.345 100.789 135.204C100.15 134.804 99.9568 133.961 100.357 133.323C105.781 124.688 100.408 114.082 95.473 109.059C94.9447 108.522 94.9527 107.658 95.4915 107.131C96.0303 106.603 96.8953 106.611 97.4236 107.149C100.56 110.341 103.186 114.807 104.449 119.099C106.133 124.82 105.519 130.24 102.672 134.773C102.413 135.186 101.968 135.412 101.514 135.412Z" fill="#000072"/>
<path d="M42.9908 15.9518L25.9855 35.2679L14.1057 48.7573C6.55927 45.078 1.36719 37.3494 1.36719 28.4047C1.36719 25.536 1.9023 22.7885 2.87821 20.2626C6.15362 11.7777 14.3986 5.75586 24.0528 5.75586C31.9704 5.75586 38.9349 9.81307 42.9908 15.9518Z" fill="#60547B"/>
<path d="M115.902 48.7548C123.449 45.0761 128.641 37.3482 128.641 28.4023C128.641 15.8983 118.487 5.75586 105.957 5.75586C98.0385 5.75586 91.0721 9.81061 87.0156 15.9506" fill="#60547B"/>
<g opacity="0.55">
<path d="M128.358 24.8387C125.097 16.3371 116.843 10.3018 107.177 10.3018C100.027 10.3018 93.6521 13.6093 89.5019 18.7719L87.0156 15.9506C91.0721 9.81061 98.0385 5.75586 105.957 5.75586C117.273 5.75647 126.652 14.0278 128.358 24.8387Z" fill="white"/>
</g>
<g opacity="0.3">
<path d="M25.9855 29.596V35.267L14.1057 48.7564C6.55927 45.0771 1.36719 37.3486 1.36719 28.4038C1.36719 25.5351 1.9023 22.7876 2.87821 20.2617C8.21085 33.1116 17.3343 35.3833 25.9855 29.596Z" fill="#000072"/>
</g>
<g opacity="0.3">
<path d="M100.216 112.979C96.6941 114.971 92.8177 116.596 88.66 117.847C88.1761 117.999 87.6841 118.139 87.1922 118.276C80.4737 120.139 73.0678 121.075 65.2914 121.075C57.3232 121.075 49.7496 120.092 42.9023 118.136C42.0861 117.906 41.2785 117.66 40.4856 117.399C36.7029 116.159 33.1661 114.605 29.9375 112.737C31.0737 110.925 32.3344 109.342 33.5526 108.104L43.0157 110.89L43.8042 108.856L86.4623 110.555L86.5991 111.003L96.4525 108.104C97.7249 109.398 99.0442 111.066 100.216 112.979Z" fill="#000072"/>
</g>
<g opacity="0.3">
<path d="M104.016 29.596V35.267L115.895 48.7564C123.442 45.0771 128.634 37.3486 128.634 28.4038C128.634 25.5351 128.099 22.7876 127.123 20.2617C121.79 33.1116 112.667 35.3833 104.016 29.596Z" fill="#000072"/>
</g>
<g opacity="0.55">
<path d="M1.50781 24.8387C4.76843 16.3371 13.0226 10.3018 22.6892 10.3018C29.8386 10.3018 36.2137 13.6093 40.364 18.7719L42.8503 15.9506C38.7938 9.81061 31.8274 5.75586 23.9086 5.75586C12.5929 5.75647 3.21364 14.0278 1.50781 24.8387Z" fill="white"/>
</g>
<path d="M120.49 70.8427C120.49 99.4716 95.6506 113.977 65.0104 113.977C34.3703 113.977 9.53125 99.4716 9.53125 70.8427C9.53125 42.2139 34.3703 10.3027 65.0104 10.3027C95.6506 10.3027 120.49 42.2139 120.49 70.8427Z" fill="white"/>
<path d="M65.0104 114.14C49.1857 114.14 35.5865 110.384 25.6844 103.278C15.0093 95.6171 9.36719 84.4013 9.36719 70.8424C9.36719 56.8397 15.4563 41.4701 25.6567 29.7293C36.6321 17.096 50.6079 10.1387 65.0104 10.1387C79.4128 10.1387 93.3886 17.096 104.364 29.7293C114.564 41.4701 120.654 56.8397 120.654 70.8424C120.654 84.4013 115.011 95.6171 104.336 103.278C94.4342 110.384 80.8351 114.14 65.0104 114.14ZM65.0104 10.4661C33.8579 10.4661 9.69454 42.922 9.69454 70.8424C9.69454 96.9459 31.4073 113.813 65.0104 113.813C98.6134 113.813 120.326 96.9459 120.326 70.8424C120.326 42.922 96.1628 10.4661 65.0104 10.4661Z" fill="#000072"/>
<g opacity="0.3">
<path d="M120.481 70.8444C120.481 99.4714 95.644 113.978 65.002 113.978C34.36 113.978 9.52344 99.4714 9.52344 70.8444C9.52344 68.0852 9.75401 65.2984 10.1991 62.5078C14.3604 85.9162 37.3117 97.7647 65.0026 97.7647C92.6935 97.7647 115.644 85.9162 119.806 62.5078C120.25 65.2978 120.481 68.0846 120.481 70.8444Z" fill="#000072"/>
</g>
<path d="M64.9983 115.342C48.9196 115.342 35.0788 111.508 24.9708 104.254C13.9683 96.3579 8.15234 84.8048 8.15234 70.8434C8.15234 56.56 14.3518 40.8968 24.7359 28.9436C30.0532 22.8227 36.1219 17.9722 42.7732 14.5261C49.9282 10.8191 57.4056 8.93945 64.9977 8.93945C72.5898 8.93945 80.0672 10.8191 87.2221 14.5261C93.8735 17.9722 99.9422 22.8234 105.259 28.9436C115.644 40.8962 121.843 56.56 121.843 70.8434C121.843 84.8048 116.027 96.3579 105.025 104.254C94.9178 111.507 81.077 115.342 64.9983 115.342ZM64.9983 11.6679C34.5233 11.6679 10.8852 43.4787 10.8852 70.844C10.8852 96.2182 32.1258 112.614 64.9983 112.614C97.8708 112.614 119.111 96.2182 119.111 70.844C119.111 43.4781 95.4733 11.6679 64.9983 11.6679Z" fill="#000072"/>
<path d="M74.5937 70.755C74.5937 73.689 70.2974 76.0672 64.998 76.0672C59.6987 76.0672 55.4023 73.689 55.4023 70.755C55.4023 67.8211 59.6987 66.6621 64.998 66.6621C70.2974 66.6615 74.5937 67.8211 74.5937 70.755Z" fill="#000072"/>
<path d="M56.9078 85.0113C55.5922 85.0113 54.263 84.7405 53.0103 84.1694C50.024 82.8104 48.0457 80.0106 47.4397 76.2864C47.3189 75.5429 47.825 74.8418 48.5697 74.7212C49.3132 74.6012 50.0166 75.1053 50.1375 75.8494C50.5918 78.6449 52.0147 80.7184 54.1446 81.6872C57.2394 83.0978 60.9889 81.9475 62.6781 79.0671C63.3119 77.9961 63.6318 76.74 63.6318 75.3305C63.6318 74.808 63.5844 74.2491 63.4919 73.67C63.3729 72.9265 63.8796 72.2267 64.625 72.1073C65.3679 71.9879 66.0713 72.4944 66.1903 73.2385C66.3062 73.9599 66.3647 74.6633 66.3647 75.3299C66.3647 77.2342 65.9171 78.9563 65.0343 80.4494C63.3347 83.3477 60.1647 85.0113 56.9078 85.0113Z" fill="#000072"/>
<path d="M77.3983 83.6383C77.3983 83.6383 77.1838 90.0706 74.3257 92.2131C69.5578 86.2251 60.435 86.2251 55.667 92.2131L53.1758 86.9772V83.6383L53.579 82.9274C57.1799 84.5683 61.7647 83.3244 63.8583 79.7559C64.6277 79.7608 65.3971 79.7608 66.1455 79.7608C68.2755 83.3872 72.9811 84.6101 76.603 82.8382C77.074 83.309 77.3983 83.6383 77.3983 83.6383Z" fill="#000072"/>
<path d="M73.8481 92.7729C69.143 98.0193 60.8574 98.0193 56.1523 92.7729C57.6597 89.3977 61.0565 87.041 64.9978 87.041C68.9439 87.041 72.3408 89.3977 73.8481 92.7729Z" fill="#FF2C4B"/>
<path d="M73.1284 84.9953C69.8672 84.9953 66.6583 83.3366 64.963 80.4513C64.0796 78.9686 63.6289 77.2428 63.6289 75.3299C63.6289 74.6633 63.6875 73.9599 63.8034 73.2385C63.9224 72.4944 64.6252 71.9879 65.3686 72.1073C66.1134 72.2267 66.6207 72.9259 66.5018 73.67C66.4093 74.2491 66.3618 74.8074 66.3618 75.3305C66.3618 76.7455 66.683 78.0017 67.3161 79.064C69.0281 81.9789 72.9206 83.12 75.9982 81.6145C77.4457 80.9073 79.2896 79.333 79.8568 75.8488C79.9776 75.1053 80.6786 74.6006 81.4245 74.7206C82.1692 74.8412 82.6748 75.5422 82.5539 76.2857C81.9658 79.9023 80.0639 82.6651 77.1997 84.0647C75.9082 84.6956 74.5137 84.9953 73.1284 84.9953Z" fill="#000072"/>
<path d="M64.9985 98.0701C61.2299 98.0701 57.6346 96.4704 55.1329 93.6811C52.5812 90.8548 51.2305 86.9466 51.2305 82.3834C51.2305 81.6301 51.842 81.0195 52.5966 81.0195C53.3512 81.0195 53.9628 81.6301 53.9628 82.3834C53.9628 86.2615 55.07 89.5377 57.1654 91.8581C59.1524 94.0731 62.0061 95.3423 64.9985 95.3423C67.991 95.3423 70.8447 94.0732 72.8286 91.8617C74.9265 89.5383 76.0343 86.2622 76.0343 82.384C76.0343 81.6307 76.6459 81.0201 77.4005 81.0201C78.1551 81.0201 78.7666 81.6307 78.7666 82.384C78.7666 86.9478 77.4165 90.8555 74.8612 93.6854C72.3625 96.4704 68.7665 98.0701 64.9985 98.0701Z" fill="#000072"/>
<path d="M74.3265 93.5776C73.9246 93.5776 73.5257 93.4009 73.2563 93.0624C71.2441 90.5359 68.2337 89.0864 64.9966 89.0864C61.7594 89.0864 58.7484 90.5353 56.7368 93.0618C56.2677 93.652 55.4083 93.7499 54.8171 93.2809C54.2265 92.8119 54.1278 91.9539 54.5976 91.3643C57.1308 88.1829 60.9209 86.358 64.9959 86.3574C69.0716 86.3574 72.8617 88.1823 75.3955 91.3637C75.8653 91.9533 75.7673 92.8119 75.1767 93.2803C74.9251 93.4809 74.6249 93.5776 74.3265 93.5776Z" fill="#000072"/>
<path d="M46.5119 73.5819C46.3498 74.4811 46.2419 75.3729 46.1852 76.2518C45.9719 79.5354 43.3351 82.1167 40.3452 81.7739C40.053 81.7406 39.7601 81.6976 39.4667 81.6446C31.083 80.1404 25.6604 71.3071 27.352 61.9137C29.0424 52.5253 37.2066 46.1311 45.5903 47.6353C49.14 48.2723 52.159 50.2234 54.3321 52.9746C56.3049 55.4722 55.8265 59.3109 53.3124 61.3272C50.0315 63.9602 47.4564 68.3374 46.5119 73.5819Z" fill="#60547B"/>
<path d="M83.4927 72.0917C83.6548 72.9909 83.7627 73.8827 83.8194 74.7616C84.0327 78.0452 86.6695 80.6265 89.6594 80.2836C89.9517 80.2504 90.2445 80.2073 90.5379 80.1544C98.9216 78.6502 104.344 69.8169 102.653 60.4235C100.962 51.035 92.798 44.6408 84.4143 46.1451C80.8646 46.7821 77.8456 48.7331 75.6725 51.4843C73.6997 53.9819 74.1781 57.8206 76.6922 59.8369C79.9731 62.4699 82.5482 66.8478 83.4927 72.0917Z" fill="#60547B"/>
<path d="M54.2242 18.0905C51.7952 -0.578099 71.0969 -4.3405 66.2279 10.4321C68.5693 6.06042 75.9234 6.65681 69.9958 14.786C75.9185 8.10995 80.1624 14.6297 75.191 18.1804" fill="white"/>
<path d="M75.2881 18.3141L75.097 18.0482C76.9212 16.7452 77.3675 15.1136 77.177 14.0211C77.0161 13.0979 76.4095 12.4024 75.5557 12.1612C74.0274 11.7285 72.0454 12.725 70.1195 14.8957L69.8642 14.6908C72.4375 11.1616 72.2371 9.46847 71.8888 8.7736C71.6114 8.22029 71.0467 7.90947 70.3001 7.89963C70.2878 7.89963 70.276 7.89963 70.2637 7.89963C69.0566 7.89963 67.3366 8.71144 66.3731 10.5105L66.0728 10.3825C67.3095 6.63113 67.0629 3.68793 65.3971 2.30865C64.1272 1.2568 62.1304 1.26849 60.1866 2.3388C56.8088 4.19754 53.2634 9.43277 54.3872 18.0716L54.0624 18.1134C52.9175 9.31152 56.5604 3.96058 60.0281 2.05199C62.0934 0.915825 64.2301 0.917669 65.6061 2.05691C67.2189 3.3925 67.6005 6.05074 66.6961 9.43954C67.7466 8.15997 69.191 7.5728 70.2643 7.5728C70.2773 7.5728 70.2902 7.5728 70.3032 7.5728C71.1786 7.5845 71.8456 7.95932 72.1804 8.62773C72.7229 9.71035 72.3246 11.4078 71.0608 13.4918C72.6915 12.0645 74.311 11.47 75.6444 11.8473C76.6222 12.1242 77.3158 12.9164 77.4988 13.9658C77.7072 15.1555 77.235 16.9231 75.2881 18.3141Z" fill="#000072"/>
<path d="M75.1926 19.5458C74.7666 19.5458 74.3468 19.3477 74.0798 18.9753C73.6409 18.3623 73.7827 17.5105 74.3961 17.0722C75.7672 16.093 76.1186 14.9605 75.9909 14.2275C75.9435 13.9549 75.7807 13.4736 75.2265 13.3166C74.4158 13.0864 72.8838 13.5893 71.0183 15.6917C70.5344 16.2364 69.7077 16.3066 69.1393 15.8505C68.5709 15.3945 68.4611 14.5734 68.8908 13.9844C70.8852 11.2486 71.0368 9.75978 70.8118 9.3111C70.7434 9.17508 70.5652 9.1043 70.2822 9.09999C69.4056 9.08707 68.1282 9.77701 67.4322 11.0763C67.0981 11.6998 66.341 11.965 65.6894 11.6868C65.0378 11.408 64.7073 10.6787 64.9293 10.0066C65.9872 6.79688 65.875 4.2642 64.6278 3.23205C63.7474 2.50271 62.2673 2.56303 60.7655 3.38961C57.7188 5.06616 54.5322 9.87672 55.5783 17.9167C55.6757 18.6639 55.148 19.3483 54.3996 19.4449C53.65 19.5409 52.9657 19.0153 52.8689 18.2675C51.6457 8.86734 55.648 3.09049 59.4468 1.00033C61.9547 -0.379562 64.6093 -0.328476 66.3731 1.13266C67.3114 1.91001 68.5579 3.55579 68.3736 6.74703C69.0061 6.49591 69.6701 6.36358 70.3192 6.37282C71.6472 6.39067 72.7174 7.01722 73.2562 8.09061C73.6298 8.83657 73.721 9.71116 73.5318 10.7095C74.5736 10.4337 75.4084 10.5322 75.9718 10.6922C77.4052 11.0978 78.4193 12.2445 78.6832 13.7604C79.0278 15.7379 77.9945 17.8576 75.986 19.2916C75.7456 19.4627 75.4676 19.5458 75.1926 19.5458Z" fill="#000072"/>
<path d="M14.1053 50.1199C13.9037 50.1199 13.6996 50.0756 13.5067 49.9815C5.17543 45.9212 0 37.6529 0 28.4029C0 15.1634 10.7886 4.39258 24.0499 4.39258C32.1543 4.39258 39.6613 8.43256 44.1321 15.2003C44.5476 15.8293 44.3737 16.675 43.7437 17.0898C43.1142 17.5047 42.2666 17.3311 41.8511 16.7021C37.887 10.7024 31.2326 7.12037 24.0499 7.12037C12.2953 7.12037 2.73229 16.6676 2.73229 28.4029C2.73229 36.601 7.31959 43.9301 14.7045 47.5294C15.3827 47.8599 15.6644 48.6767 15.3333 49.3537C15.0972 49.8387 14.6114 50.1199 14.1053 50.1199Z" fill="#000072"/>
<path d="M115.898 50.1193C115.392 50.1193 114.906 49.8374 114.669 49.3537C114.338 48.6767 114.619 47.8599 115.298 47.5294C122.683 43.9301 127.27 36.601 127.27 28.4029C127.27 16.6676 117.707 7.12037 105.953 7.12037C98.7699 7.12037 92.1155 10.7024 88.1515 16.7021C87.7366 17.3311 86.8883 17.5047 86.2588 17.0898C85.6288 16.675 85.4549 15.8287 85.8705 15.2003C90.3412 8.43318 97.8489 4.39258 105.953 4.39258C119.214 4.39258 130.003 15.1634 130.003 28.4029C130.003 37.6523 124.827 45.9206 116.496 49.9815C116.303 50.075 116.099 50.1193 115.898 50.1193Z" fill="#000072"/>
<path d="M86.3868 57.2969C83.0763 57.2969 80.3945 60.5706 80.3945 64.6087C80.3945 68.6506 83.0763 71.9243 86.3868 71.9243C89.7011 71.9243 92.3834 68.6506 92.3834 64.6087C92.3834 60.5706 89.7011 57.2969 86.3868 57.2969ZM88.6124 65.5246C87.7536 65.5246 87.0545 64.5539 87.0545 63.3538C87.0545 62.1573 87.753 61.1867 88.6124 61.1867C89.4631 61.1867 90.1622 62.1573 90.1622 63.3538C90.1622 64.5539 89.4631 65.5246 88.6124 65.5246Z" fill="#000072"/>
<path d="M90.1585 63.3546C90.1585 64.5548 89.4594 65.5254 88.6087 65.5254C87.7499 65.5254 87.0508 64.5548 87.0508 63.3546C87.0508 62.1581 87.7493 61.1875 88.6087 61.1875C89.4594 61.1875 90.1585 62.1581 90.1585 63.3546Z" fill="white"/>
<path d="M88.607 65.6031C87.7057 65.6031 86.9727 64.5949 86.9727 63.3554C86.9727 62.1183 87.7057 61.1113 88.607 61.1113C89.504 61.1113 90.2339 62.1176 90.2339 63.3554C90.2345 64.5949 89.5046 65.6031 88.607 65.6031ZM88.607 61.2652C87.7907 61.2652 87.1268 62.2026 87.1268 63.3554C87.1268 64.51 87.7907 65.4492 88.607 65.4492C89.4189 65.4492 90.0798 64.51 90.0798 63.3554C90.0804 62.2026 89.4195 61.2652 88.607 61.2652Z" fill="#000072"/>
<path d="M43.6173 57.2969C40.3067 57.2969 37.625 60.5706 37.625 64.6087C37.625 68.6506 40.3067 71.9243 43.6173 71.9243C46.9315 71.9243 49.6139 68.6506 49.6139 64.6087C49.6133 60.5706 46.9315 57.2969 43.6173 57.2969ZM45.8422 65.5246C44.9834 65.5246 44.2843 64.5539 44.2843 63.3538C44.2843 62.1573 44.9834 61.1867 45.8422 61.1867C46.693 61.1867 47.3921 62.1573 47.3921 63.3538C47.3921 64.5539 46.6936 65.5246 45.8422 65.5246Z" fill="#000072"/>
<path d="M47.3929 63.3546C47.3929 64.5548 46.6938 65.5254 45.843 65.5254C44.9842 65.5254 44.2852 64.5548 44.2852 63.3546C44.2852 62.1581 44.9842 61.1875 45.843 61.1875C46.6944 61.1875 47.3929 62.1581 47.3929 63.3546Z" fill="white"/>
<path d="M45.8413 65.6031C44.94 65.6031 44.207 64.5949 44.207 63.3554C44.207 62.1183 44.94 61.1113 45.8413 61.1113C46.7383 61.1113 47.4683 62.1176 47.4683 63.3554C47.4683 64.5949 46.7383 65.6031 45.8413 65.6031ZM45.8413 61.2652C45.0251 61.2652 44.3612 62.2026 44.3612 63.3554C44.3612 64.51 45.0251 65.4492 45.8413 65.4492C46.6533 65.4492 47.3141 64.51 47.3141 63.3554C47.3141 62.2026 46.6533 61.2652 45.8413 61.2652Z" fill="#000072"/>
<g opacity="0.3">
<path d="M26.2349 122.182C30.8623 135.065 41.1151 132.37 41.935 124.731C48.0142 130.639 51.2163 136.041 47.6493 140.25C44.3985 142.653 40.9604 142.481 37.418 140.88C35.2369 137.071 32.409 134.556 28.8309 133.54L25.9766 129.058L26.2349 122.182Z" fill="#000072"/>
</g>
<g opacity="0.3">
<path d="M103.901 122.182C99.2736 135.065 89.0208 132.37 88.2009 124.731C82.1216 130.639 78.9196 136.041 82.4866 140.25C85.7374 142.653 89.1755 142.481 92.7179 140.88C94.899 137.071 97.7269 134.556 101.305 133.54L104.159 129.058L103.901 122.182Z" fill="#000072"/>
</g>
<path d="M41.5368 74.4712C36.8737 74.4712 32.7142 72.9485 29.5097 70.0668C25.7732 66.7076 23.4533 61.6761 22.6124 55.1114C22.3689 53.2065 22.9009 51.4013 24.1117 50.0282C25.3207 48.6575 27.0431 47.9023 28.9623 47.9023H54.1108C56.0299 47.9023 57.7524 48.6569 58.9607 50.0276C60.1715 51.4007 60.7041 53.2059 60.46 55.1108C59.6197 61.6748 57.2992 66.707 53.5627 70.0662C50.3588 72.9479 46.1999 74.4712 41.5368 74.4712ZM28.9623 50.6307C27.8396 50.6307 26.8459 51.0573 26.1628 51.8309C25.4785 52.607 25.1801 53.6497 25.3231 54.7655C26.7041 65.5548 32.6137 71.7428 41.5362 71.7428C50.4587 71.7428 56.3683 65.5548 57.7487 54.7655C57.8917 53.649 57.5933 52.607 56.909 51.8309C56.2265 51.0573 55.2328 50.6307 54.1101 50.6307H28.9623Z" fill="#000072"/>
<path d="M88.8144 74.4725C84.1512 74.4725 79.9918 72.9498 76.7872 70.0682C73.0507 66.7089 70.7309 61.6774 69.89 55.1127C69.6458 53.2078 70.1785 51.4027 71.3899 50.0295C72.5982 48.6589 74.3207 47.9043 76.2398 47.9043H101.388C103.307 47.9043 105.029 48.6589 106.238 50.0295C107.449 51.4027 107.982 53.2078 107.738 55.1127C106.898 61.6768 104.577 66.7089 100.841 70.0682C97.6369 72.9492 93.4781 74.4725 88.8144 74.4725ZM76.2398 50.6321C75.1172 50.6321 74.1234 51.0586 73.4409 51.8323C72.7566 52.6084 72.4583 53.6504 72.6013 54.7668C73.9822 65.5561 79.8919 71.7441 88.8144 71.7441C97.7368 71.7441 103.646 65.5561 105.027 54.7668C105.17 53.6504 104.871 52.6084 104.187 51.8323C103.505 51.0586 102.511 50.6321 101.388 50.6321H76.2398Z" fill="#000072"/>
<path d="M71.6493 58.7359C71.2486 58.7359 70.8516 58.5605 70.5816 58.2238C68.7068 55.8838 66.8888 54.6971 65.1774 54.6971C63.466 54.6971 61.648 55.8838 59.7732 58.2238C59.3016 58.8122 58.4422 58.9076 57.8529 58.4374C57.2635 57.9666 57.168 57.1086 57.639 56.5202C60.0581 53.5007 62.5949 51.9688 65.1774 51.9688C67.7599 51.9688 70.2967 53.5 72.7158 56.5202C73.1875 57.1086 73.0913 57.9672 72.5019 58.4374C72.2498 58.638 71.9483 58.7359 71.6493 58.7359Z" fill="#000072"/>
<path d="M112.666 56.7161H106.327C105.573 56.7161 104.961 56.1055 104.961 55.3522C104.961 54.5988 105.573 53.9883 106.327 53.9883H112.666C113.421 53.9883 114.033 54.5988 114.033 55.3522C114.033 56.1055 113.421 56.7161 112.666 56.7161Z" fill="#000072"/>
<path d="M23.6782 56.7161H17.3388C16.5842 56.7161 15.9727 56.1055 15.9727 55.3522C15.9727 54.5988 16.5842 53.9883 17.3388 53.9883H23.6782C24.4328 53.9883 25.0443 54.5988 25.0443 55.3522C25.0443 56.1055 24.4328 56.7161 23.6782 56.7161Z" fill="#000072"/>
<g opacity="0.3">
<path d="M69.3426 156.406V162.58C66.4574 165.067 63.5686 165.067 60.6797 162.58V156.41C63.5649 158.896 66.4494 158.9 69.3309 156.422V156.41L69.3426 156.406Z" fill="#000072"/>
</g>
<g opacity="0.3">
<path d="M60.6755 156.409V162.579L46.6719 157.625V151.455L60.6755 156.409Z" fill="#000072"/>
</g>
<g opacity="0.3">
<path d="M83.3278 151.455V157.625L69.3359 162.575L69.3242 162.579V156.409L69.3359 156.405L83.3278 151.455Z" fill="#000072"/>
</g>
</svg>
