<svg width="16" height="16" viewBox="0 0 16 16" fill="none" xmlns="http://www.w3.org/2000/svg">
<path d="M8.00001 11.334C8.1889 11.334 8.34734 11.27 8.47534 11.142C8.60334 11.014 8.66712 10.8558 8.66668 10.6673C8.66623 10.4789 8.60223 10.3207 8.47468 10.1927C8.34712 10.0647 8.1889 10.0007 8.00001 10.0007C7.81112 10.0007 7.6529 10.0647 7.52534 10.1927C7.39779 10.3207 7.33379 10.4789 7.33334 10.6673C7.3329 10.8558 7.3969 11.0142 7.52534 11.1426C7.65379 11.2711 7.81201 11.3349 8.00001 11.334ZM8.00001 8.66732C8.1889 8.66732 8.34734 8.60332 8.47534 8.47532C8.60334 8.34732 8.66712 8.1891 8.66668 8.00065V5.33398C8.66668 5.1451 8.60268 4.98687 8.47468 4.85932C8.34668 4.73176 8.18846 4.66776 8.00001 4.66732C7.81157 4.66687 7.65334 4.73087 7.52534 4.85932C7.39734 4.98776 7.33334 5.14598 7.33334 5.33398V8.00065C7.33334 8.18954 7.39734 8.34798 7.52534 8.47598C7.65334 8.60398 7.81157 8.66776 8.00001 8.66732ZM8.00001 14.6673C7.07779 14.6673 6.21112 14.4922 5.40001 14.142C4.5889 13.7918 3.88334 13.3169 3.28334 12.7173C2.68334 12.1178 2.20846 11.4122 1.85868 10.6006C1.5089 9.78909 1.33379 8.92243 1.33334 8.00065C1.3329 7.07887 1.50801 6.21221 1.85868 5.40065C2.20934 4.5891 2.68423 3.88354 3.28334 3.28398C3.88246 2.68443 4.58801 2.20954 5.40001 1.85932C6.21201 1.5091 7.07868 1.33398 8.00001 1.33398C8.92134 1.33398 9.78801 1.5091 10.6 1.85932C11.412 2.20954 12.1176 2.68443 12.7167 3.28398C13.3158 3.88354 13.7909 4.5891 14.142 5.40065C14.4931 6.21221 14.668 7.07887 14.6667 8.00065C14.6653 8.92243 14.4902 9.78909 14.1413 10.6006C13.7925 11.4122 13.3176 12.1178 12.7167 12.7173C12.1158 13.3169 11.4102 13.792 10.6 14.1426C9.78979 14.4933 8.92312 14.6682 8.00001 14.6673ZM8.00001 13.334C9.4889 13.334 10.75 12.8173 11.7833 11.784C12.8167 10.7507 13.3333 9.48954 13.3333 8.00065C13.3333 6.51176 12.8167 5.25065 11.7833 4.21732C10.75 3.18398 9.4889 2.66732 8.00001 2.66732C6.51112 2.66732 5.25001 3.18398 4.21668 4.21732C3.18334 5.25065 2.66668 6.51176 2.66668 8.00065C2.66668 9.48954 3.18334 10.7507 4.21668 11.784C5.25001 12.8173 6.51112 13.334 8.00001 13.334Z" fill="black"/>
</svg>
