<svg width="122" height="180" viewBox="0 0 122 180" fill="none" xmlns="http://www.w3.org/2000/svg">
<path d="M57.7404 18.8203C57.7404 18.8203 55.2857 3.77594 44.6927 3.36579C36.155 3.0353 29.464 9.42012 31.0881 17.7669C33.1777 28.5052 43.6922 30.5393 43.6922 30.5393" fill="#60567C"/>
<g opacity="0.3">
<path d="M30.9251 16.6914C31.6836 10.0461 37.794 5.40089 45.2582 5.69155C51.4191 5.93054 54.935 10.925 56.836 15.286C55.3936 10.8126 51.9567 3.64832 44.6937 3.36789C36.528 3.04978 30.0498 8.87912 30.9251 16.6914Z" fill="white"/>
</g>
<path d="M40.6531 30.5402C40.5139 30.5402 40.373 30.5117 40.2375 30.4519C37.0791 29.0503 31.5601 25.5646 30.0811 17.9643C29.3043 13.9726 30.2634 10.1542 32.781 7.21261C35.5905 3.93031 39.9494 2.15136 44.733 2.33975C53.5653 2.68209 57.12 12.2841 58.2382 16.3969C58.3871 16.9443 58.0645 17.5095 57.5172 17.6586C56.9705 17.8072 56.406 17.4847 56.2571 16.9368C55.2577 13.2621 52.1267 4.68333 44.6534 4.39375C40.4956 4.23227 36.7388 5.74801 34.3395 8.55072C32.2385 11.0057 31.4413 14.2094 32.0961 17.5719C33.332 23.9223 37.6576 27.0598 41.0692 28.5734C41.5875 28.8033 41.8213 29.4104 41.5918 29.9293C41.4224 30.312 41.0466 30.5402 40.6531 30.5402Z" fill="black"/>
<path d="M43.8404 21.8436C47.1005 21.8436 49.7433 19.1976 49.7433 15.9335C49.7433 12.6695 47.1005 10.0234 43.8404 10.0234C40.5803 10.0234 37.9375 12.6695 37.9375 15.9335C37.9375 19.1976 40.5803 21.8436 43.8404 21.8436Z" fill="white"/>
<g opacity="0.25">
<path d="M59.0016 180.001C86.0968 180.001 108.062 177.52 108.062 174.459C108.062 171.399 86.0968 168.918 59.0016 168.918C31.9064 168.918 9.94141 171.399 9.94141 174.459C9.94141 177.52 31.9064 180.001 59.0016 180.001Z" fill="#181558"/>
</g>
<path d="M20.2801 36.3835C21.9311 34.6745 23.0584 32.4316 23.3589 29.8883C24.089 23.7155 19.6828 18.1187 13.5175 17.3878C7.35229 16.6568 1.76228 21.0684 1.03221 27.2411C0.302143 33.4139 4.70835 39.0107 10.8736 39.7417C12.5886 39.9451 14.2584 39.7492 15.7922 39.2298L20.6139 41.5072L20.2801 36.3835Z" fill="white"/>
<g opacity="0.5">
<path d="M13.2627 19.5384C19.0221 20.2214 23.245 25.1502 23.1815 30.8283C23.2697 30.4413 23.3401 30.0468 23.388 29.6442C24.1181 23.4714 19.7118 17.8746 13.5466 17.1436C7.38134 16.4127 1.79132 20.8243 1.06125 26.997C1.01341 27.4018 0.988676 27.8039 0.984375 28.2022C2.24398 22.6629 7.50176 18.8548 13.2627 19.5384Z" fill="white"/>
</g>
<path d="M20.6115 42.4593C20.4739 42.4593 20.3352 42.4292 20.2062 42.3683L15.7231 40.2508C14.114 40.7401 12.4458 40.8871 10.7594 40.6874C7.52567 40.3041 4.63443 38.6823 2.61842 36.1219C0.602397 33.5614 -0.29648 30.3679 0.0862947 27.1302C0.469069 23.8926 2.08887 20.9978 4.64626 18.9794C7.20365 16.9609 10.3927 16.0599 13.627 16.4442C20.3024 17.2354 25.0903 23.3172 24.3 30.0013C24.0006 32.5338 22.9496 34.8521 21.2523 36.7328L21.5593 41.4463C21.5814 41.7822 21.4238 42.1051 21.1459 42.2946C20.9857 42.4033 20.7991 42.4593 20.6115 42.4593ZM15.7897 38.2792C15.9284 38.2792 16.0671 38.3099 16.1951 38.3702L19.5589 39.9591L19.3299 36.4453C19.3127 36.1778 19.4089 35.9152 19.5949 35.7219C21.1717 34.0899 22.1464 32.0343 22.413 29.7763C22.7361 27.043 21.977 24.3474 20.2755 22.1858C18.574 20.0241 16.1333 18.6553 13.4033 18.3318C10.6723 18.0084 7.98102 18.7684 5.822 20.472C3.66298 22.1756 2.29585 24.6193 1.97275 27.3525C1.64965 30.0858 2.40875 32.7814 4.11027 34.9431C5.81233 37.1047 8.25252 38.4735 10.9825 38.797C12.5168 38.9789 14.0312 38.8212 15.4849 38.3287C15.5844 38.2959 15.6871 38.2792 15.7897 38.2792Z" fill="black"/>
<g opacity="0.25">
<path d="M20.3656 36.2918C16.7921 38.1633 12.4036 38.3496 8.52159 36.4043C4.21698 34.2469 1.63486 30.0184 1.36982 25.5293C1.21607 26.0821 1.10156 26.6537 1.03221 27.2415C0.302143 33.4143 4.70835 39.0111 10.8736 39.742C12.5886 39.9455 14.2584 39.7496 15.7922 39.2301L20.6139 41.5075L20.2801 36.3833C20.3091 36.3537 20.3371 36.3225 20.3656 36.2918Z" fill="#181558"/>
</g>
<path d="M12.6289 35.3308H11.6849C11.2951 35.3308 10.9784 35.0143 10.9784 34.6235V33.7585C10.2145 33.6482 9.48766 33.3855 8.98124 33.0233C8.72426 32.8392 8.6205 32.5071 8.72695 32.2094L9.08661 31.204C9.15972 30.9989 9.32315 30.8396 9.52959 30.7712C9.73603 30.7034 9.96237 30.7335 10.143 30.8541C10.6371 31.184 11.2972 31.3805 11.9096 31.3805C12.4063 31.3805 12.9864 31.1808 12.9864 30.6173C12.9864 30.3164 12.8896 29.9563 11.7338 29.4869C10.2968 28.9228 8.82049 28.0928 8.82049 26.2358C8.82049 24.8434 9.70754 23.7076 11.0833 23.2646V22.3049C11.0833 21.9147 11.3994 21.5977 11.7897 21.5977H12.7187C13.1084 21.5977 13.4251 21.9142 13.4251 22.3049V23.1161C14.0132 23.207 14.5406 23.3917 15.0239 23.6759C15.3212 23.8503 15.4492 24.2136 15.3271 24.5365L14.9524 25.5269C14.8793 25.7202 14.725 25.872 14.5304 25.9419C14.3358 26.0119 14.1207 25.9931 13.9412 25.8903C13.7046 25.7546 13.2127 25.4731 12.4036 25.4731C11.8429 25.4731 11.5214 25.6857 11.5214 26.0566C11.5214 26.3306 11.6236 26.5669 12.9423 27.1132C14.2277 27.6385 15.7029 28.4992 15.7029 30.5128C15.7029 31.9721 14.7734 33.1616 13.3348 33.6197V34.6241C13.3353 35.0143 13.0192 35.3308 12.6289 35.3308Z" fill="#16B768"/>
<path d="M91.2968 131.426C95.9825 126.245 106.625 126.538 106.039 136.089C105.531 144.373 95.118 146.257 88.5942 142.742C86.2363 141.472 85.5239 137.81 91.2968 131.426Z" fill="#60567C"/>
<g opacity="0.25">
<path d="M88.5941 142.742C95.1174 146.257 105.531 144.373 106.04 136.091C106.253 132.606 104.975 130.355 103.033 129.152C103.033 129.349 102.913 129.574 103.013 129.754C107.805 138.338 98.1522 144.833 94.5987 134.235C91.752 135.084 90.2747 138.251 87.3824 137.21C86.2373 140.111 87.0754 141.925 88.5941 142.742Z" fill="#181558"/>
</g>
<path d="M95.505 145.449C92.9471 145.449 90.3322 144.847 88.1076 143.649C86.9125 143.005 86.1271 141.912 85.897 140.573C85.4518 137.987 87.056 134.586 90.536 130.738C93.5428 127.413 98.693 126.12 102.516 127.732C105.653 129.055 107.311 132.125 107.064 136.154C106.86 139.479 105.138 142.207 102.216 143.835C100.282 144.913 97.9189 145.449 95.505 145.449ZM92.0574 132.117C88.013 136.59 87.7291 139.116 87.9194 140.224C88.0441 140.948 88.4345 141.491 89.0801 141.838C92.8213 143.854 97.8119 143.936 101.218 142.039C102.837 141.136 104.81 139.361 105.015 136.028C105.211 132.832 104.071 130.618 101.719 129.626C98.7118 128.358 94.468 129.453 92.0574 132.117Z" fill="black"/>
<g opacity="0.3">
<path d="M96.0114 131.444C96.5926 130.516 100.006 129.662 102.08 131.554C104.34 133.616 101.625 133.138 99.7634 132.946C97.8603 132.751 95.4303 132.372 96.0114 131.444Z" fill="white"/>
</g>
<path d="M58.2672 86.2717L49.4107 108.168C49.4107 108.168 22.2386 112.276 10.7559 86.1662L26.5217 72.3867C26.5217 72.3867 26.5614 72.4965 26.6389 72.6968C27.0953 73.8524 28.9081 78.0465 32.4708 81.8418C37.3861 87.0877 45.6384 91.5751 58.2672 86.2717Z" fill="#60567C"/>
<g opacity="0.25">
<path d="M58.2672 86.2717L49.4107 108.168C49.4107 108.168 22.2386 112.276 10.7559 86.1662L26.5217 72.3867C26.5217 72.3867 26.5614 72.4965 26.6389 72.6968C24.5519 77.6563 20.3887 89.9437 26.8345 96.8824C35.0465 105.721 48.407 99.4552 43.8696 93.1716C40.0946 87.9451 33.2251 85.58 32.4708 81.8423C37.3861 87.0877 45.6384 91.5751 58.2672 86.2717Z" fill="#181558"/>
</g>
<path d="M45.3169 109.415C42.5015 109.415 38.5265 109.126 34.1262 107.93C26.4078 105.832 15.9282 100.424 9.83717 86.5736C9.6603 86.171 9.7646 85.6995 10.0958 85.4099L25.8594 71.631C26.1105 71.4119 26.4529 71.3312 26.775 71.4157C27.097 71.5002 27.3566 71.7386 27.4674 72.053C27.5029 72.1531 31.1586 82.1798 39.993 86.0833C45.2078 88.387 51.2247 88.1383 57.877 85.3437C58.3888 85.1289 58.9775 85.3695 59.1925 85.8819C59.407 86.3944 59.1662 86.9843 58.6549 87.1991C51.4666 90.2192 44.9094 90.4604 39.1657 87.9171C31.4645 84.5067 27.4889 77.1207 26.1245 74.0704L11.979 86.4353C16.6432 96.589 24.2676 103.165 34.6525 105.988C42.5848 108.144 49.1942 107.183 49.2603 107.173C49.8092 107.091 50.321 107.468 50.4038 108.017C50.4866 108.567 50.1092 109.08 49.5603 109.163C49.4253 109.183 47.8351 109.415 45.3169 109.415Z" fill="black"/>
<path d="M61.3332 147.35C60.751 151.859 60.9494 161.119 59.9811 167.273C59.5946 169.739 59.0204 171.706 58.1339 172.67C55.8373 175.163 48.6608 175.621 41.0085 174.288C38.5742 173.864 37.3012 172.185 37.2404 170.025C37.2222 169.352 37.32 168.632 37.5393 167.89C38.0528 166.157 39.9924 165.299 41.9875 164.801C41.9821 164.764 41.9767 164.726 41.9714 164.687C41.2332 159.706 40.537 152.407 40.5451 144.433C40.5478 139.619 40.8069 134.556 41.4633 129.609L61.3332 147.35Z" fill="#60567C"/>
<g opacity="0.25">
<path d="M61.335 147.352C60.7527 151.861 60.9511 161.12 59.9829 167.275C59.5963 169.741 59.0222 171.708 58.1357 172.672C55.839 175.165 48.6625 175.623 41.0103 174.29C38.576 173.866 37.3029 172.187 37.2422 170.027C40.1345 172.369 48.3238 173.236 53.9526 171.304C58.2206 169.839 58.083 165.411 58.083 160.526C58.083 155.641 57.5271 154.544 50.113 151.386C45.5482 149.441 42.4656 146.67 40.5474 144.434C40.5501 139.621 40.8092 134.558 41.4656 129.611L61.335 147.352Z" fill="#181558"/>
</g>
<path d="M48.9705 176.017C46.2438 176.017 43.3767 175.722 40.8387 175.28C39.149 174.986 37.8362 174.153 37.041 172.87C36.1604 171.451 35.9965 169.581 36.5792 167.606C37.0577 165.985 38.4646 164.823 40.8682 164.072C40.129 158.78 38.5076 144.235 40.4688 129.477C40.5419 128.926 41.0478 128.538 41.5978 128.613C42.1478 128.686 42.5348 129.192 42.4612 129.743C40.4124 145.16 42.3429 160.363 42.9832 164.655C43.0595 165.168 42.7343 165.655 42.2322 165.78C40.0403 166.326 38.8221 167.111 38.5071 168.177C38.0888 169.594 38.1749 170.884 38.749 171.81C39.2398 172.601 40.0592 173.102 41.1838 173.298C48.7995 174.624 55.4675 174.086 57.398 171.989C59.3 169.923 59.6248 161.359 59.8613 155.106C59.9763 152.068 60.0849 149.199 60.3403 147.222C60.4118 146.671 60.9177 146.284 61.466 146.354C62.0166 146.425 62.4052 146.93 62.3337 147.481C62.0897 149.366 61.9827 152.191 61.8698 155.182C61.5246 164.292 61.108 170.928 58.8759 173.352C57.0722 175.311 53.1896 176.017 48.9705 176.017Z" fill="black"/>
<path d="M89.8197 138.023C89.6472 138.787 89.4144 139.523 89.1192 140.227C84.87 150.449 68.4048 154.232 55.2689 151.213L45.0716 146.868C43.6384 145.859 38.6085 142.573 36.993 136.859C36.7355 135.952 36.5329 135.038 36.3802 134.117C35.1044 126.437 37.3833 118.151 42.2928 107.808C45.3442 101.388 49.4085 94.1706 54.2733 85.8168L82.9986 79.8594C81.9454 92.0396 84.3168 101.463 86.6903 109.977C89.3746 119.595 92.0605 128.057 89.8197 138.023Z" fill="white"/>
<path d="M89.1163 140.226C84.8676 150.45 68.403 154.233 55.2682 151.214L51.3302 149.952L45.0698 146.869C44.8919 146.744 44.6553 146.581 44.379 146.382C44.2753 146.307 44.164 146.227 44.0468 146.145C43.9855 146.1 43.9247 146.054 43.8608 146.006C43.7333 145.913 43.6032 145.812 43.4651 145.708C43.4516 145.698 43.4387 145.687 43.4253 145.677C43.3404 145.61 43.2527 145.541 43.1651 145.471C43.0748 145.4 42.9818 145.325 42.8888 145.248C42.8673 145.232 42.8436 145.214 42.8221 145.195C42.6549 145.056 42.4845 144.913 42.3119 144.761C42.2135 144.676 42.1151 144.588 42.0141 144.498C41.9264 144.421 41.8388 144.338 41.7485 144.256C41.7195 144.229 41.6899 144.202 41.6609 144.173C41.5012 144.024 41.3421 143.867 41.1797 143.705C40.8555 143.383 40.5341 143.034 40.2153 142.667C40.1593 142.6 40.1034 142.534 40.0454 142.467C39.9443 142.345 39.8432 142.222 39.7427 142.095C39.6658 141.996 39.5884 141.898 39.5115 141.797C39.3572 141.597 39.2062 141.39 39.0599 141.174C38.9858 141.067 38.9137 140.959 38.8422 140.849C38.7707 140.74 38.6987 140.629 38.6299 140.514C38.5584 140.402 38.489 140.288 38.4223 140.173C37.8353 139.175 37.3353 138.071 36.9929 136.856C36.7353 135.951 36.5332 135.036 36.3789 134.115C46.1972 140.522 58.5401 142.879 72.8414 142.166C78.0169 141.907 83.4511 141.244 89.1163 140.226Z" fill="#60567C"/>
<g opacity="0.25">
<path d="M89.1159 140.226C84.8672 150.45 68.4025 154.233 55.2677 151.214L51.3298 149.953L45.0694 146.869C44.8914 146.744 44.6549 146.582 44.3785 146.382C44.2721 146.311 44.1608 146.23 44.0463 146.145C43.985 146.1 43.9243 146.055 43.8603 146.007C43.7329 145.914 43.6028 145.813 43.4646 145.709C43.4512 145.698 43.4383 145.687 43.4248 145.677C43.3399 145.61 43.2523 145.541 43.1646 145.472C43.0743 145.4 42.9813 145.326 42.8883 145.249C42.8668 145.232 42.8431 145.214 42.8216 145.195C42.6544 145.06 42.484 144.916 42.3114 144.761C42.2131 144.679 42.1147 144.591 42.0136 144.498C41.926 144.421 41.8384 144.338 41.748 144.256C41.719 144.23 41.6894 144.203 41.6604 144.174C41.5007 144.022 41.3389 143.868 41.1793 143.705C40.8551 143.383 40.5336 143.035 40.2148 142.668C40.1589 142.601 40.103 142.535 40.0449 142.468C39.9438 142.346 39.8428 142.223 39.7422 142.095C39.6654 141.997 39.5879 141.898 39.5111 141.797C39.3568 141.595 39.2057 141.388 39.0595 141.174C38.9853 141.068 38.9132 140.959 38.8417 140.85C38.7702 140.741 38.6982 140.629 38.6294 140.515C38.5579 140.403 38.4885 140.288 38.4219 140.174C38.5122 140.238 38.5971 140.296 38.6719 140.349C38.6719 140.349 45.7586 144.215 50.2949 145.3C56.723 146.838 63.0684 146.976 68.8396 145.923C69.411 145.819 71.0583 144.675 72.8415 142.166C78.0165 141.908 83.4506 141.245 89.1159 140.226Z" fill="#181558"/>
</g>
<path d="M72.8418 142.168C76.0384 137.664 79.671 128.76 78.2813 113.55C80.9543 113.228 86.3303 140.729 89.1178 140.226C83.452 141.245 78.0179 141.908 72.8418 142.168Z" fill="#E8E8E8"/>
<path d="M42.8227 145.195C42.6555 145.06 42.4851 144.916 42.3125 144.762C42.4856 144.913 42.6555 145.057 42.8227 145.195Z" fill="#E8E8E8"/>
<path d="M86.69 109.976C69.6888 119.413 49.8689 114.475 42.293 107.808C43.6692 104.91 45.253 101.851 47.0228 98.5972C49.1754 94.641 51.6011 90.4001 54.2719 85.8163L82.9967 79.8594C82.2074 88.9823 83.3396 96.5594 84.9552 103.365C85.4971 105.645 86.0949 107.84 86.69 109.976Z" fill="#60567C"/>
<g opacity="0.25">
<path d="M84.9552 103.365C80.5308 105.198 75.4262 106.241 69.9872 106.241C60.8356 106.241 52.6221 103.283 47.0234 98.5972C49.176 94.641 51.6017 90.4001 54.2725 85.8163L82.9973 79.8594C82.2081 88.9823 83.3397 96.5594 84.9552 103.365Z" fill="#181558"/>
</g>
<path d="M87.7789 102.043C84.7124 103.663 81.218 104.871 77.4478 105.565L75.8242 90.0254C77.8273 91.1563 82.8255 95.1071 87.7789 102.043Z" fill="#545468"/>
<path d="M55.3815 150.711C64.282 151.81 73.9632 151.522 81.8187 146.758C84.6686 144.967 87.191 142.436 88.3114 139.211C91.8434 127.67 86.9684 116.027 84.2304 104.798C82.1709 96.6667 81.2462 88.1563 82.0268 79.774L83.1945 80.8128C76.0309 82.3027 61.6123 85.1964 54.4439 86.6481L55.0051 86.2438L50.8339 93.6917C45.2299 104.151 37.7491 116.793 37.1206 128.754C36.9932 132.778 37.5271 137.003 39.7753 140.431C40.8742 142.125 42.2827 143.662 43.7902 145.037C44.3046 145.506 44.8299 145.958 45.3718 146.439C45.5901 146.632 45.6099 146.966 45.4169 147.184C45.2503 147.373 44.9788 147.414 44.7681 147.297C42.1811 145.939 39.7958 144.002 38.1061 141.554C35.5309 137.848 34.8858 133.093 34.996 128.673C35.2858 121.377 38.0313 114.423 41.0968 107.899C44.789 100.144 49.135 92.7444 53.5396 85.3875C53.6622 85.1732 53.8735 85.0257 54.1009 84.9832L68.4469 81.9254L82.7998 78.902C83.3251 78.7911 83.8401 79.128 83.9509 79.6534C83.6251 84.8513 83.6514 90.0816 84.4385 95.2435C85.4497 102.432 87.649 109.266 89.5468 116.291C91.6467 124.11 92.9891 132.911 90.0968 140.743C87.341 147.181 80.5145 150.664 74.0143 152.17C70.1264 153.072 66.119 153.41 62.1435 153.09C59.7732 152.877 57.4093 152.458 55.1524 151.711C54.882 151.621 54.7353 151.33 54.824 151.059C54.9024 150.821 55.1406 150.678 55.3815 150.711Z" fill="black"/>
<path d="M85.15 146.701C84.1366 155.732 84.7108 163.087 84.5307 168.097C84.4409 170.571 84.1683 172.473 83.4297 173.721C81.6276 176.771 71.2207 177.33 65.7747 175.356C63.9038 174.675 63.0706 172.914 63.0862 171.117C63.1023 169.252 64.0361 167.347 65.6688 166.587C65.6581 166.552 65.6478 166.515 65.6371 166.481C64.3694 162.274 63.9909 157.635 63.9173 154.188C63.8485 151.086 64.0286 148.948 64.0286 148.948L76.6983 143.842L88.2299 121.678C89.6562 128.863 91.1115 138.562 85.15 146.701Z" fill="#60567C"/>
<path d="M85.15 146.702C84.1366 155.734 84.7108 163.088 84.5307 168.098C84.4409 170.572 84.1683 172.475 83.4297 173.723C81.6276 176.772 71.2207 177.331 65.7747 175.358C63.9038 174.677 63.0706 172.915 63.0862 171.119C66.7209 174.225 75.6209 174.232 79.3573 172.425C83.4829 170.43 84.0011 161.61 79.6433 155.753C75.9731 150.82 66.7381 153.289 63.9173 154.19C63.8485 151.087 64.0286 148.95 64.0286 148.95L76.6983 143.844L88.2299 121.68C89.6562 128.864 91.1115 138.563 85.15 146.702Z" fill="#545468"/>
<path d="M89.2152 121.482C91.0603 130.195 91.5404 139.765 85.9573 147.295L86.146 146.812C85.6224 151.446 85.495 156.117 85.5364 160.812C85.5122 164.386 85.7853 167.993 85.2009 171.591C84.7552 174.02 83.887 175.39 81.5345 176.295C77.11 177.898 71.5275 177.821 66.9761 176.767C65.645 176.441 64.2666 175.984 63.3656 174.878C61.0463 172.103 61.9651 167.263 65.245 165.675L64.7074 166.882C63.7155 163.993 63.2253 160.962 63.0242 157.93C62.8462 154.904 62.8516 151.885 63.5161 148.904C63.651 148.338 64.4832 148.391 64.5375 148.973C64.6693 150.442 64.7574 151.922 64.852 153.387C64.9864 155.555 65.1413 157.765 65.4327 159.917C65.7004 162.086 66.1278 164.239 66.6444 166.355C66.7568 166.827 66.5149 167.302 66.0918 167.499C65.3208 167.861 64.6945 168.626 64.3747 169.543C63.6354 171.684 64.3048 174.042 66.6697 174.592C69.6469 175.473 72.8161 175.63 75.9117 175.416C77.8605 175.225 81.3834 174.825 82.5726 173.19C83.4139 171.573 83.4338 169.695 83.5295 167.856C83.5956 165.546 83.5365 163.187 83.5258 160.824C83.4838 156.096 83.6118 151.324 84.1478 146.586C84.1687 146.405 84.2349 146.241 84.3365 146.103C86.7987 142.737 88.119 138.676 88.3991 134.519C88.7083 130.286 88.0717 126.045 87.2428 121.873C87.0127 120.603 88.9018 120.153 89.2152 121.482Z" fill="black"/>
<path d="M79.1286 168.132C74.989 166.478 70.2092 166.224 65.9508 167.578C65.3966 167.769 64.7875 167.46 64.624 166.894C64.4552 166.325 64.8122 165.724 65.3917 165.6C67.7808 165.04 70.2399 164.885 72.6693 165.194C75.0847 165.488 77.3921 166.125 79.5866 167.212C79.8393 167.34 79.9409 167.649 79.8135 167.902C79.6861 168.156 79.3786 168.253 79.1286 168.132Z" fill="black"/>
<path d="M48.4747 165.84C46.3791 165.539 44.2114 165.444 42.1261 165.822C40.6428 166.111 40.3407 163.905 41.8503 163.785C44.1824 163.713 46.492 164.162 48.709 164.84C49.3133 165.031 49.0999 165.939 48.4747 165.84Z" fill="black"/>
<path d="M47.8935 168.629C46.6049 169.392 46.5156 172.465 47.5419 173.442C47.8871 173.803 48.3564 173.96 48.9091 174.001C50.2622 174.137 50.123 176.113 48.7618 176.054C48.2537 175.983 47.7564 175.82 47.2812 175.562C44.7598 174.128 44.9044 170.481 46.4656 168.421C46.8006 167.944 48.0274 167.084 48.3021 168.045C48.3457 168.325 48.1521 168.561 47.8935 168.629Z" fill="black"/>
<path d="M75.2726 169.383C74.0393 170.056 73.57 171.693 73.813 173.016C74.0334 174.347 74.985 175.323 76.33 175.385C77.7574 175.541 77.488 177.637 76.065 177.424C72.7474 176.912 71.4153 173.238 72.8195 170.426C73.2345 169.579 73.9355 168.821 74.8414 168.45C75.1043 168.343 75.4038 168.469 75.5113 168.732C75.6123 168.98 75.5048 169.262 75.2726 169.383Z" fill="black"/>
<path d="M68.0244 169.172C66.2997 170.273 66.1003 172.919 67.4722 174.343C67.8884 174.782 68.4136 175.04 68.9722 175.112C70.4135 175.362 69.9856 177.462 68.5582 177.125C65.5955 176.441 64.2574 172.758 65.6207 170.192C66.0368 169.371 66.7185 168.701 67.5007 168.288C67.7518 168.156 68.0625 168.252 68.1948 168.503C68.3195 168.738 68.2421 169.028 68.0244 169.172Z" fill="black"/>
<path d="M42.3965 167.734C40.7552 168.627 40.8122 171.208 41.6837 172.627C41.988 173.113 42.3938 173.428 42.8051 173.519C43.3615 173.642 43.7131 174.193 43.59 174.75C43.461 175.359 42.7987 175.717 42.2186 175.493C39.5456 174.457 38.9978 170.882 40.1316 168.536C40.5112 167.76 41.1772 167.061 42.0164 166.78C42.2847 166.688 42.5772 166.831 42.6686 167.1C42.7557 167.353 42.6336 167.627 42.3965 167.734Z" fill="black"/>
<path d="M97.2782 147.365L94.8106 146.81C94.8106 146.81 94.5386 140.914 92.1376 139.867C91.593 139.629 90.8431 139.384 90.005 139.229C88.2249 138.896 86.0509 138.965 84.6235 140.357C84.6235 140.357 84.6235 140.357 84.6214 140.359C83.5854 141.371 82.9451 143.081 83.1371 145.841C77.5868 147.077 76.4197 145.937 76.4197 145.937C76.4197 145.937 75.8068 142.551 76.9955 139.833L77.0035 139.818C77.5185 138.645 78.3744 137.598 79.7609 137.006C83.4897 135.416 94.2585 135.737 95.9627 140.214C96.1665 140.745 96.3385 141.261 96.4836 141.757C97.4449 145.014 97.2782 147.365 97.2782 147.365Z" fill="#EDEDED"/>
<path d="M97.2814 147.366L94.8138 146.811C94.8138 146.811 94.5418 140.915 92.1409 139.868C91.5963 139.63 90.8463 139.386 90.0082 139.23L89.9297 138.783C89.9297 138.783 93.9483 138.871 96.4863 141.758C97.4481 145.015 97.2814 147.366 97.2814 147.366Z" fill="#D3D3D3"/>
<g opacity="0.25">
<path d="M83.1371 145.842C77.5868 147.077 76.4197 145.938 76.4197 145.938C76.4197 145.938 75.8068 142.552 76.9955 139.834L77.0035 139.818C77.0035 139.818 76.9567 142.132 79.3163 142.485C81.4802 142.811 84.5332 140.428 84.6214 140.359C83.5854 141.371 82.9451 143.081 83.1371 145.842Z" fill="#181558"/>
</g>
<path d="M98.2208 148.629L93.8243 147.643L93.7883 146.858C93.6851 144.675 92.9781 141.354 91.7309 140.809C90.2266 140.153 87.3822 139.605 85.7091 140.787C84.5119 141.633 83.9915 143.31 84.163 145.77L84.2248 146.653L83.362 146.845C77.709 148.103 76.0726 147.031 75.7059 146.673L75.4715 146.443L75.4129 146.12C75.3554 145.803 74.0668 138.321 79.3606 136.062C82.3421 134.789 89.0326 134.682 93.1899 136.45C95.1226 137.272 96.3795 138.415 96.9252 139.847C98.524 144.044 98.3155 147.301 98.3058 147.437L98.2208 148.629ZM95.7828 145.976L96.2338 146.077C96.1543 144.872 95.8812 142.878 95.0059 140.58C94.5839 139.471 93.348 138.751 92.3862 138.342C88.7429 136.792 82.7206 136.862 80.1643 137.953C77.0268 139.292 77.2053 143.727 77.365 145.243C77.9128 145.388 79.2659 145.561 82.0782 145.014C82.054 142.259 82.8749 140.275 84.5248 139.109C87.0709 137.31 90.768 138.147 92.5507 138.925C94.9549 139.975 95.6081 144.076 95.7828 145.976Z" fill="black"/>
<g opacity="0.7">
<path d="M79.5776 138.783C79.733 139.579 81.9624 139.355 82.878 139.009C83.794 138.663 83.3102 138.057 84.7096 137.953C86.1095 137.849 86.4122 137.427 85.3316 137.296C82.6823 136.973 79.4222 137.987 79.5776 138.783Z" fill="white"/>
</g>
<path d="M96.2826 146.642V171.676C96.2826 172.81 95.3659 173.729 94.2327 173.729H67.3519C66.2218 173.729 65.3047 172.811 65.3047 171.676V146.642C65.3047 145.508 66.2213 144.59 67.3519 144.59H94.2327C95.3659 144.59 96.2826 145.508 96.2826 146.642Z" fill="#9DA9B9"/>
<g opacity="0.25">
<path d="M76.3525 173.729H67.3519C66.2218 173.729 65.3047 172.811 65.3047 171.676V160.246C66.3062 161.265 68.4217 162.942 69.3249 159.158C69.3249 159.158 70.8764 164.216 73.479 159.671L76.3525 173.729Z" fill="#181558"/>
</g>
<g opacity="0.5">
<path d="M96.2826 146.642V148.831C96.2826 147.7 95.3659 146.782 94.2327 146.782H67.3519C66.2218 146.782 65.3047 147.699 65.3047 148.831V146.642C65.3047 145.508 66.2213 144.59 67.3519 144.59H94.2327C95.3659 144.59 96.2826 145.508 96.2826 146.642Z" fill="white"/>
</g>
<path d="M94.3614 174.545H67.2252C65.7162 174.545 64.4883 173.316 64.4883 171.805V146.514C64.4883 145.003 65.7162 143.773 67.2252 143.773H94.3614C95.8704 143.773 97.0983 145.003 97.0983 146.514V171.805C97.0983 173.316 95.871 174.545 94.3614 174.545ZM67.2252 145.407C66.6156 145.407 66.1199 145.903 66.1199 146.514V171.805C66.1199 172.415 66.6156 172.912 67.2252 172.912H94.3614C94.971 172.912 95.4667 172.415 95.4667 171.805V146.514C95.4667 145.904 94.971 145.407 94.3614 145.407H67.2252Z" fill="black"/>
<path d="M98.3809 174.545H71.2448C69.7357 174.545 68.5078 173.316 68.5078 171.805V146.514C68.5078 145.003 69.7357 143.773 71.2448 143.773H98.3809C99.89 143.773 101.118 145.003 101.118 146.514V171.805C101.118 173.316 99.8905 174.545 98.3809 174.545ZM71.2453 145.407C70.6357 145.407 70.14 145.903 70.14 146.514V171.805C70.14 172.415 70.6357 172.912 71.2453 172.912H98.3815C98.9906 172.912 99.4862 172.415 99.4862 171.805V146.514C99.4862 145.904 98.9906 145.407 98.3815 145.407H71.2453Z" fill="black"/>
<path d="M104.458 146.642V171.676C104.458 172.81 103.541 173.729 102.408 173.729H75.5271C74.3971 173.729 73.4805 172.811 73.4805 171.676V146.642C73.4805 145.508 74.3971 144.59 75.5271 144.59H102.408C103.541 144.59 104.458 145.508 104.458 146.642Z" fill="#9DA9B9"/>
<g opacity="0.5">
<path d="M104.458 146.642V148.834C104.458 147.7 103.541 146.782 102.408 146.782H75.5271C74.3971 146.782 73.4805 147.699 73.4805 148.834V146.642C73.4805 145.508 74.3971 144.59 75.5271 144.59H102.408C103.541 144.59 104.458 145.508 104.458 146.642Z" fill="white"/>
</g>
<g opacity="0.25">
<path d="M104.458 160.391V171.676C104.458 172.81 103.541 173.729 102.408 173.729H75.5271C74.3971 173.729 73.4805 172.811 73.4805 171.676V161.788C75.1745 164.073 79.5172 168.44 88.9694 168.78C96.8034 169.06 101.976 164.654 104.458 160.391Z" fill="#181558"/>
</g>
<path d="M102.537 174.545H75.401C73.892 174.545 72.6641 173.316 72.6641 171.805V146.514C72.6641 145.003 73.892 143.773 75.401 143.773H102.537C104.046 143.773 105.274 145.003 105.274 146.514V171.805C105.274 173.316 104.046 174.545 102.537 174.545ZM75.401 145.407C74.7914 145.407 74.2957 145.903 74.2957 146.514V171.805C74.2957 172.415 74.7914 172.912 75.401 172.912H102.537C103.146 172.912 103.642 172.415 103.642 171.805V146.514C103.642 145.904 103.146 145.407 102.537 145.407H75.401Z" fill="black"/>
<path d="M93.9641 143.479C91.8379 144.547 85.5328 144.887 83.7103 142.671C84.0275 139.7 83.4641 136.799 81.9373 136.635C80.8207 136.514 79.0751 137.347 79.0751 137.347C79.0751 137.347 77.072 135.5 80.4406 131.305C80.4406 131.305 80.553 130.557 80.624 129.27C80.7906 126.168 80.7196 119.943 78.2816 113.548L75.8242 90.0234C79.2203 91.9386 91.2228 101.961 97.0295 120.899C97.8886 123.696 98.2612 126.557 98.2913 129.267C98.373 136.361 96.0962 142.408 93.9641 143.479Z" fill="#60567C"/>
<g opacity="0.25">
<path d="M87.7789 102.043C84.7124 103.663 81.218 104.871 77.4478 105.565L75.8242 90.0254C77.8273 91.1563 82.8255 95.1071 87.7789 102.043Z" fill="#181558"/>
</g>
<g opacity="0.25">
<path d="M96.4573 139.995C95.7127 141.798 94.8262 143.047 93.9645 143.48C91.8382 144.549 85.5332 144.888 83.7107 142.672C84.0279 139.702 83.4645 136.8 81.9377 136.636C80.8211 136.515 79.0755 137.348 79.0755 137.348C79.0755 137.348 77.0724 135.501 80.441 131.306C80.441 131.306 80.5534 130.558 80.6243 129.271C80.6818 129.249 80.7421 129.227 80.8023 129.205C80.6082 131.17 80.5233 134.161 81.8232 134.143C83.7553 134.11 86.2014 134.896 86.9105 137.855C87.5277 140.453 92.0264 142.532 96.4573 139.995Z" fill="#181558"/>
</g>
<path d="M76.3148 89.1477C79.0189 90.7818 81.2849 92.944 83.4558 95.1983C89.799 101.926 94.4863 110.132 97.4329 118.873C98.4592 121.814 99.1318 124.909 99.2592 128.028C99.4952 132.659 98.6248 140.575 95.1003 143.918C92.9929 145.595 87.8184 145.609 85.3175 144.791C84.4648 144.518 82.6235 143.684 82.7106 142.566C82.8467 141.175 82.8531 139.521 82.3413 138.264C82.0768 137.721 81.9763 137.58 81.4951 137.645C80.9032 137.705 80.1355 137.973 79.507 138.257C79.1291 138.444 78.6824 138.365 78.3942 138.089C76.3787 135.843 78.0641 132.622 79.6549 130.677L79.4442 131.159C79.6807 128.26 79.7689 125.314 79.521 122.406C79.2705 119.461 78.7135 116.546 77.8104 113.726C77.726 113.461 77.8717 113.178 78.1362 113.093C78.3835 113.014 78.6479 113.139 78.7501 113.371C79.3608 114.773 79.8818 116.219 80.2914 117.697C81.4768 122.143 82.0902 126.871 81.4322 131.456C81.408 131.635 81.3328 131.808 81.2215 131.938C80.5758 132.752 80.0027 133.623 79.7006 134.504C79.4269 135.209 79.4038 136.134 79.7554 136.609L78.6426 136.441C80 135.88 81.7903 135.108 83.1558 136.079C84.9605 137.565 84.8836 140.716 84.71 142.779L84.4869 142.034C86.1685 143.753 90.9596 143.475 93.1235 142.744C94.8944 142.175 95.9583 138.592 96.4249 136.851C97.4738 132.606 97.5695 128.068 96.7169 123.769C95.0137 116.537 91.7446 109.668 87.5916 103.534C85.0632 99.8612 82.1467 96.4352 78.7979 93.4979C77.7125 92.5532 76.5287 91.6064 75.311 90.8922C74.195 90.2194 75.1202 88.5104 76.3148 89.1477Z" fill="black"/>
<path d="M88.2025 165.774C87.9191 165.774 87.689 165.544 87.689 165.26V164.402C84.6548 163.935 84 162.206 84 160.801C84 160.584 84.0237 160.3 84.0726 159.934C84.1005 159.724 84.2532 159.554 84.4575 159.503L86.0639 159.103C86.1047 159.093 86.1467 159.088 86.1875 159.088C86.1891 159.088 86.1902 159.088 86.1918 159.088C84.8032 158.221 84.1016 157.037 84.1016 155.551C84.1016 153.928 84.7387 151.953 87.6885 151.519V150.93C87.6885 150.646 87.9181 150.416 88.2019 150.416H88.8137C89.097 150.416 89.3271 150.646 89.3271 150.93V151.427C92.4727 151.624 93.1522 153.646 93.1522 155.355C93.1522 155.599 92.9802 155.81 92.7415 155.859L91.1518 156.182C91.1179 156.189 91.0835 156.193 91.0496 156.193C90.9082 156.193 90.7711 156.134 90.6727 156.028C90.5512 155.896 90.5066 155.71 90.5561 155.538C90.6222 155.307 90.6556 155.099 90.6556 154.921C90.6556 154.34 90.4916 153.674 89.3277 153.455V155.732L90.662 156.265C92.6382 157.083 93.6371 158.445 93.6371 160.316C93.6371 161.524 93.1984 162.532 92.3323 163.311C91.5383 164.025 90.5287 164.411 89.3277 164.459V165.261C89.3277 165.544 89.0981 165.775 88.8143 165.775H88.2025V165.774ZM86.6283 159.337C86.6982 159.454 86.7197 159.595 86.6848 159.73C86.566 160.19 86.5058 160.574 86.5058 160.869C86.5058 161.476 86.6536 162.173 87.6896 162.432V159.804C87.3047 159.663 86.9514 159.508 86.6283 159.337ZM89.3277 162.368C89.8561 162.146 89.9416 161.779 89.9416 161.431C89.9416 161.279 89.9416 160.884 89.3277 160.487V162.368ZM87.689 153.452C87.4036 153.527 87.245 153.743 87.245 154.282C87.245 154.542 87.3939 154.782 87.689 154.999V153.452Z" fill="white"/>
<path d="M88.8135 150.93V151.926C91.3633 151.926 92.6385 153.069 92.6385 155.356L91.0488 155.679C91.1278 155.401 91.1676 155.149 91.1676 154.922C91.1676 153.651 90.3827 152.97 88.8135 152.88V156.08L89.043 156.174L90.4709 156.744C92.2391 157.476 93.1229 158.667 93.1229 160.318C93.1229 161.379 92.7444 162.249 91.988 162.93C91.2316 163.611 90.258 163.951 89.0683 163.951H88.8135V165.262H88.2017V163.951C85.7427 163.696 84.5126 162.647 84.5126 160.803C84.5126 160.61 84.5352 160.343 84.5804 160.003L86.1867 159.603C86.0566 160.108 85.991 160.53 85.991 160.871C85.991 162.193 86.7275 162.914 88.2011 163.033V159.441C85.8099 158.653 84.6142 157.356 84.6142 155.552C84.6142 153.374 85.8099 152.182 88.2011 151.978V150.931H88.8135M88.2017 155.849V152.93C88.1167 152.913 88.0571 152.905 88.0232 152.905C87.1619 152.905 86.7313 153.364 86.7313 154.283C86.7308 154.936 87.2211 155.458 88.2017 155.849ZM88.8135 163.032C89.9069 162.867 90.4537 162.333 90.4537 161.432C90.4537 160.666 89.9069 160.079 88.8135 159.67V163.032ZM86.1873 159.602H86.1883H86.1873ZM88.8135 149.902H88.2017C87.635 149.902 87.1754 150.363 87.1754 150.93V151.09C84.8529 151.585 83.5885 153.142 83.5885 155.551C83.5885 156.552 83.8895 157.774 85.0217 158.833L84.3331 159.005C83.9239 159.107 83.6191 159.448 83.5632 159.867C83.5116 160.256 83.4863 160.562 83.4863 160.802C83.4863 162.068 83.9906 164.173 87.1754 164.833V165.262C87.1754 165.829 87.635 166.289 88.2017 166.289H88.8135C89.3801 166.289 89.8397 165.829 89.8397 165.262V164.935C90.9499 164.806 91.9004 164.391 92.674 163.694C93.6524 162.814 94.1487 161.677 94.1487 160.317C94.1487 159.143 93.7712 157.629 92.1681 156.5L92.8423 156.363C93.3207 156.265 93.6643 155.844 93.6643 155.355C93.6643 152.813 92.3159 151.281 89.8392 150.961V150.93C89.8397 150.363 89.3806 149.902 88.8135 149.902ZM89.8397 155.385V154.183C90.1413 154.394 90.1413 154.684 90.1413 154.922C90.1413 155.052 90.1145 155.212 90.0618 155.397C90.0553 155.42 90.0494 155.443 90.0446 155.466L89.8397 155.385ZM87.1754 161.567C87.0383 161.373 87.0184 161.131 87.0184 160.87C87.0184 160.729 87.0372 160.495 87.1162 160.132C87.1361 160.141 87.1555 160.149 87.1759 160.157V161.567H87.1754Z" fill="black"/>
<path d="M84.6221 98.0384C84.6221 98.0384 75.1893 106 63.4389 107.354C56.9425 108.102 61.9094 104.452 61.9094 104.452C61.9094 104.452 63.8851 103.943 66.4742 102.847C69.3751 101.625 73.0421 99.6656 75.5538 96.8682C75.9613 96.4161 76.3366 95.9451 76.6731 95.4488C80.9637 89.1474 84.6221 98.0384 84.6221 98.0384Z" fill="#0096F0"/>
<g opacity="0.25">
<path d="M84.6221 98.0384C84.6221 98.0384 75.1893 106 63.4389 107.354C56.9425 108.102 61.9094 104.452 61.9094 104.452C61.9094 104.452 63.8851 103.943 66.4742 102.847C66.8274 103.704 67.7628 104.595 70.2315 104.033C74.6974 103.016 80.3568 99.4599 75.5538 96.8682C75.9613 96.4161 76.3366 95.9451 76.6731 95.4488C80.9637 89.1474 84.6221 98.0384 84.6221 98.0384Z" fill="#181558"/>
</g>
<path d="M61.9294 108.136C60.5311 108.136 59.7628 107.811 59.4972 107.132C59.0166 105.905 60.7423 104.467 61.5068 103.906C61.5767 103.855 61.6557 103.817 61.7391 103.795C61.8412 103.769 72.0143 101.08 76.1092 95.067C77.3592 93.2315 78.7279 92.3784 80.1751 92.5286C83.1341 92.837 85.0426 97.2755 85.2501 97.7804C85.3625 98.0544 85.2856 98.3692 85.0598 98.5603C84.6685 98.8908 75.334 106.67 63.5153 108.032C62.9153 108.1 62.3885 108.136 61.9294 108.136ZM60.7821 106.621C60.9332 106.699 61.51 106.892 63.3594 106.679C73.4438 105.517 81.8896 99.3209 83.7857 97.8374C83.1357 96.4778 81.6557 94.0502 80.0327 93.8823C79.1198 93.7903 78.1785 94.4442 77.2323 95.8335C73.0605 101.96 63.5078 104.726 62.2105 105.078C61.5143 105.612 60.8692 106.31 60.7821 106.621Z" fill="black"/>
<path d="M55.6087 106.71C48.4968 101.866 49.0903 92.1289 49.0903 92.1289C49.0903 92.1289 53.7314 82.375 53.7314 90.0027C53.7314 91.9588 54.0271 93.8825 54.4701 95.6577C54.8889 97.3483 55.4388 98.9071 55.9942 100.247C57.1629 103.066 58.3478 104.904 58.3478 104.904C58.3478 104.904 61.016 110.393 55.6087 106.71Z" fill="#0096F0"/>
<g opacity="0.25">
<path d="M55.6087 106.71C48.4968 101.866 49.0903 92.1289 49.0903 92.1289C49.0903 92.1289 53.7314 82.375 53.7314 90.0027C53.7314 91.9588 54.0271 93.8825 54.4701 95.6577C53.7475 95.1151 52.6858 94.4245 51.9277 94.3971C50.6719 94.3475 51.3256 99.5208 53.0798 101.019C54.2841 102.05 55.4114 101.003 55.9942 100.247C57.1629 103.066 58.3478 104.904 58.3478 104.904C58.3478 104.904 61.016 110.393 55.6087 106.71Z" fill="#181558"/>
</g>
<path d="M58.3407 108.663C57.6053 108.663 56.5973 108.208 55.2253 107.273C47.8784 102.268 48.3853 92.502 48.4106 92.0886C48.416 92.0014 48.438 91.9164 48.4757 91.8372C49.739 89.182 51.5674 86.0902 53.098 86.4369C54.2549 86.699 54.4108 88.387 54.4108 90.0034C54.4108 97.4545 58.874 104.465 58.9186 104.535C58.9337 104.558 58.9466 104.582 58.959 104.607C59.3675 105.448 60.2105 107.495 59.2202 108.353C58.9826 108.558 58.6928 108.663 58.3407 108.663ZM49.7632 92.2975C49.7315 93.4294 49.717 101.874 55.9903 106.147C57.5483 107.208 58.1429 107.306 58.3197 107.302C58.3896 106.982 58.1321 106.033 57.7526 105.237C57.351 104.605 53.0507 97.6483 53.0507 90.0039C53.0507 88.4893 52.8587 87.9612 52.7695 87.7971C52.1798 88.07 50.832 90.0814 49.7632 92.2975Z" fill="black"/>
<path d="M61.906 136.135C61.906 136.135 57.1746 143.16 55.5822 144.037C53.9893 144.913 49.2578 136.688 49.2578 136.688C49.2578 136.688 49.2933 136.272 49.3702 135.518C49.7207 132.156 50.9464 122.093 53.9156 112.413C54.378 110.903 54.8844 109.402 55.437 107.936C59.3557 97.5358 60.7513 108.807 60.7513 108.807C60.7513 108.807 61.0384 127.4 61.906 136.135Z" fill="#0096F0"/>
<g opacity="0.25">
<path d="M61.906 136.134C61.906 136.134 57.1746 143.159 55.5822 144.036C53.9893 144.913 49.2578 136.688 49.2578 136.688C49.2578 136.688 49.2933 136.271 49.3702 135.518C51.2663 137.435 53.7925 140.71 55.065 140.184C57.5063 139.181 59.8621 135.737 59.8293 134.562C59.7798 132.712 59.0057 113.322 59.0057 113.322C59.0057 113.322 55.8967 113.541 53.9156 112.413C54.378 110.903 54.8844 109.402 55.437 107.936C59.3557 97.5358 60.7513 108.807 60.7513 108.807C60.7513 108.807 61.0384 127.399 61.906 136.134Z" fill="#181558"/>
</g>
<path d="M55.3168 144.788C54.3303 144.788 53.0701 143.622 51.2686 141.085C49.8837 139.133 48.7177 137.112 48.6687 137.027C48.5999 136.907 48.5688 136.769 48.5806 136.631C48.5935 136.472 49.9461 120.593 54.8034 107.694C56.1221 104.192 57.2957 102.699 58.6042 102.857C60.5783 103.093 61.2638 107.405 61.4267 108.721C61.4299 108.745 61.4315 108.77 61.432 108.794C61.4347 108.98 61.7299 127.459 62.5857 136.066C62.6013 136.224 62.5615 136.382 62.4728 136.514C61.9793 137.247 57.6005 143.703 55.9114 144.633C55.7232 144.736 55.5259 144.788 55.3168 144.788ZM49.9542 136.533C52.0605 140.157 54.5125 143.323 55.2915 143.419C56.3554 142.777 59.4106 138.605 61.2073 135.956C60.3826 127.384 60.0869 109.789 60.0719 108.853C59.7773 106.525 58.9886 104.274 58.4424 104.209C58.4354 104.212 57.5876 104.159 56.0753 108.175C51.5885 120.089 50.131 134.619 49.9542 136.533Z" fill="black"/>
<path d="M53.124 104.49C53.124 104.49 55.3701 101.252 56.3335 101.452C57.7022 101.738 60.0177 102.538 62.3633 102.701C63.7127 102.795 64.6099 106.415 64.5594 106.8C64.454 107.606 60.879 111.379 60.4456 111.43C60.0118 111.481 55.2637 111.113 54.5191 110.482C53.7745 109.85 52.8692 106.146 53.124 104.49Z" fill="#0096F0"/>
<g opacity="0.5">
<path d="M64.559 106.799C64.5316 107.002 64.288 107.388 63.9294 107.86C63.6585 106.695 62.8843 104.514 61.8414 104.443C59.4964 104.279 57.1782 103.479 55.81 103.194C55.1289 103.051 53.8096 104.627 53.0897 105.564C53.0677 105.159 53.0763 104.792 53.1225 104.49C53.1225 104.49 55.3692 101.252 56.3325 101.454C57.7008 101.739 60.0189 102.54 62.3639 102.704C63.7133 102.796 64.6111 106.416 64.559 106.799Z" fill="white"/>
</g>
<g opacity="0.25">
<path d="M64.5598 106.799C64.456 107.607 60.8793 111.38 60.4465 111.429C60.0116 111.481 55.2635 111.114 54.5195 110.481C53.7749 109.851 52.8695 106.146 53.1238 104.489C53.1238 104.489 53.2469 104.314 53.4442 104.045C53.7152 105.588 54.2404 107.177 54.706 107.571C55.4506 108.201 60.1982 108.568 60.6304 108.519C60.9562 108.483 63.0357 106.363 64.1087 104.96C64.4173 105.817 64.5818 106.629 64.5598 106.799Z" fill="#181558"/>
</g>
<path d="M60.4189 112.111C59.613 112.111 55.0375 111.814 54.0795 111.002C53.0693 110.145 52.1876 106.105 52.4516 104.387C52.4672 104.285 52.5059 104.187 52.565 104.102C53.7069 102.456 55.3111 100.547 56.4718 100.786C56.8874 100.873 57.3659 100.999 57.9196 101.146C59.2082 101.486 60.8114 101.911 62.4102 102.022C62.8935 102.055 63.3435 102.323 63.7472 102.817C64.6972 103.98 65.3036 106.357 65.2337 106.888C65.2084 107.081 65.1316 107.667 63.1268 109.858C61.135 112.035 60.7071 112.085 60.5237 112.107C60.5044 112.109 60.4689 112.111 60.4189 112.111ZM53.7763 104.744C53.6048 106.406 54.5155 109.573 54.9585 109.963C55.5181 110.368 59.4061 110.756 60.2732 110.756C60.9909 110.257 63.5967 107.407 63.8784 106.714C63.8166 105.959 62.9274 103.424 62.3161 103.382C60.5888 103.262 58.9163 102.819 57.5723 102.463C57.0578 102.327 56.6105 102.208 56.2385 102.129C55.8272 102.238 54.7101 103.426 53.7763 104.744Z" fill="black"/>
<path d="M92.4649 139.777C92.2477 141.279 91.8327 142.713 90.9575 143.984C90.4043 144.723 89.207 146.083 88.3221 144.939C87.962 144.427 88.1727 143.688 88.7458 143.44C89.4033 143.155 89.9495 142.543 90.3624 141.913C90.8263 141.204 91.2059 140.361 91.4655 139.554C91.6574 138.965 92.5418 139.165 92.4649 139.777Z" fill="black"/>
<g opacity="0.5">
<path d="M54.824 117.606C54.824 117.606 51.1279 134.61 54.0401 133.803C56.611 133.09 56.176 113.979 54.824 117.606Z" fill="white"/>
</g>
<path d="M74.2311 95.272C90.1733 95.905 115.467 94.3559 116.743 69.0141C117.566 52.672 114.647 32.0104 96.6417 17.4795C95.43 16.8229 94.222 16.0461 90.2512 13.2596C86.1337 10.4493 81.1974 7.73596 75.7585 1.53952C70.7324 -1.1254 68.8502 7.2989 71.7786 11.7804C66.8541 12.2078 57.2794 1.59012 54.1849 6.1777C53.1479 7.71497 53.5151 11.7487 56.316 14.3442C50.9055 15.7867 47.0143 18.9603 47.0143 18.9603C36.3897 25.8968 34.0285 37.3488 30.7867 45.9922C28.5164 52.046 24.7941 57.6127 24.9709 65.4486C25.4037 84.6376 53.6317 94.4538 74.2311 95.272Z" fill="white"/>
<g opacity="0.25">
<path d="M116.001 74.5893C111.522 94.5872 88.9114 95.8548 74.2294 95.2703C54.5386 94.4893 27.8804 85.4864 25.1875 67.9375C33.8822 81.1776 56.7578 88.0442 74.4079 88.7434C87.8905 89.2773 107.617 88.3558 116.001 74.5893Z" fill="#181558"/>
</g>
<path d="M74.2511 94.7575C78.9755 94.3635 83.6774 94.3948 88.3675 93.8495C97.3734 92.8257 107.08 89.72 112.017 81.617C114.451 77.713 115.422 73.1201 115.624 68.5389C116.027 59.1829 115.145 49.6611 111.941 40.8369C109.028 32.1941 102.57 23.653 96.1063 18.4674C93.1667 16.8209 90.6088 14.7545 87.7965 12.94C83.1049 9.94459 78.617 6.48036 74.9865 2.21788L75.2768 2.44772C71.8668 0.628943 71.076 5.86351 71.534 8.20925C71.7098 9.29222 72.07 10.3429 72.6361 11.2181C73.0748 11.8463 72.6216 12.7608 71.8657 12.8049C67.8304 13.045 62.4555 8.16834 58.5987 6.62569C56.8644 5.8689 54.8371 5.51418 54.6962 8.00686C54.5645 10.0442 55.53 12.2134 57.0283 13.608C57.431 14.0187 57.4251 14.678 57.0149 15.0812C56.8891 15.2045 56.7359 15.2906 56.5784 15.3379C55.78 15.5721 54.9838 15.8192 54.2086 16.1346C51.9007 17.0485 49.6615 18.2892 47.6977 19.8033C44.4608 21.9844 41.641 24.7666 39.5444 28.0904C36.2693 33.0849 34.5215 38.8109 32.5711 44.4244C31.3142 48.2277 29.4046 51.8954 27.9869 55.6019C21.9421 71.1404 31.2271 81.1051 44.7839 87.4259C48.382 89.0665 52.1103 90.374 55.8257 91.9064C56.0908 92.0146 56.2176 92.3182 56.1085 92.583C56.0166 92.8058 55.787 92.9302 55.5591 92.8984C47.4928 91.6173 39.8535 87.9879 33.4038 82.9627C28.5138 79.0625 24.5704 73.4969 23.9517 67.1179C23.5076 62.9443 24.3366 58.6608 25.8284 54.7859C26.9106 51.9116 28.2536 49.2515 29.3745 46.4439C30.4728 43.6568 31.3561 40.8014 32.3872 37.9583C35.1102 30.0459 39.2062 22.6771 46.4203 18.0513C48.8127 16.1879 52.678 14.1952 56.0504 13.3523C56.0488 13.3512 55.6193 15.107 55.6155 15.0973C54.1446 13.7129 53.1404 11.8823 52.7753 9.89938C52.3281 7.77272 52.7909 4.90272 55.2338 4.17015C58.4594 3.22927 63.0216 6.79147 65.7435 8.31851C66.752 8.92621 67.7611 9.51183 68.7788 9.98389C69.6561 10.3817 70.7582 10.8252 71.6888 10.7579L70.9184 12.3442C69.1293 9.46231 68.8202 5.61538 70.2669 2.53815C70.9109 1.14944 72.3969 -0.0896329 74.0452 0.00510067C74.8725 0.0341667 75.6037 0.303296 76.2375 0.632711C76.3515 0.692996 76.4488 0.769428 76.5284 0.862547C80.0964 4.95493 84.4209 8.2157 88.997 11.1115C91.734 12.8501 94.35 14.9289 97.174 16.4931C104.893 22.5259 110.804 30.8323 114.104 40.0527C117.421 49.1799 118.374 59.0085 117.895 68.6461C117.508 79.2573 112.582 87.9077 102.694 92.3031C95.9617 95.312 88.6443 96.2448 81.3872 96.3379C78.9831 96.3287 76.5832 96.1716 74.2097 95.7872C73.6032 95.6742 73.6602 94.8092 74.2511 94.7575Z" fill="black"/>
<path d="M75.6107 73.2135C75.6107 73.2135 65.2581 70.2423 68.9885 58.3225C72.719 46.4028 75.643 46.026 81.834 47.2398C88.0251 48.4535 96.7477 55.6258 99.367 60.3636C101.986 65.1014 101.331 72.7716 99.3562 75.3886C97.7364 77.5351 93.3254 78.3258 87.2429 77.0179C81.161 75.7099 77.8305 74.2275 75.6107 73.2135Z" fill="#60567C"/>
<path d="M46.2111 65.9899C46.2111 65.9899 53.8446 66.3688 55.0972 55.6688C56.3498 44.9687 54.5687 43.8734 50.177 43.1887C45.7853 42.504 37.9148 45.9817 34.7553 49.1268C31.5958 52.2724 29.6566 58.6863 30.1319 61.348C30.5217 63.5306 33.1403 65.365 37.4901 65.9431C41.8404 66.5212 44.458 66.2149 46.2111 65.9899Z" fill="#60567C"/>
<path d="M100.309 41.6027C100.86 40.8238 97.1229 31.7617 90.5507 33.3808C88.1433 33.974 88.4422 36.0909 89.784 36.8187C91.0609 37.5109 93.0865 37.5598 94.73 38.3392C97.9336 39.8582 99.7588 42.3816 100.309 41.6027Z" fill="#686779"/>
<path d="M44.2674 35.735C43.9115 35.0309 48.0693 28.0702 53.2502 30.1947C55.1479 30.973 54.6464 32.669 53.4604 33.1007C52.3314 33.5119 50.6681 33.3053 49.2289 33.7434C46.4232 34.5971 44.6233 36.4395 44.2674 35.735Z" fill="#686779"/>
<g opacity="0.5">
<path d="M61.6103 61.9068C61.5054 62.7061 60.1131 62.8703 59.1228 62.7271C58.1325 62.5834 56.8347 62.0296 56.9396 61.2302C56.9933 60.8201 59.3292 61.1587 59.3292 61.1587C59.3292 61.1587 61.664 61.4967 61.6103 61.9068Z" fill="white"/>
</g>
<path d="M100.423 31.3751C93.8668 25.1335 94.548 20.3177 96.478 17.2319C98.916 13.3349 103.016 8.99811 108.972 9.68815C117.46 10.671 123.095 18.0075 120.212 26.0066C118.49 30.7868 115.258 33.4324 112.291 34.8948C108.96 36.5376 105.281 36.0004 100.423 31.3751Z" fill="#60567C"/>
<g opacity="0.3">
<path d="M94.4453 21.0975C96.8995 16.7984 101.378 11.4018 108.14 12.1861C115.214 13.0075 120.398 18.0364 120.705 24.2791C122.263 16.9782 116.844 10.5998 108.972 9.68802C100.814 8.74391 96.1388 17.2263 94.4453 21.0975Z" fill="white"/>
</g>
<path d="M94.0633 20.696C95.2165 15.9825 99.0652 11.0908 103.648 9.27898C106.137 8.28643 108.924 8.35479 111.481 9.05775C116.555 10.363 121.048 14.4861 121.84 19.8219C122.498 23.7511 121.059 27.7262 118.766 30.8707C116.438 33.9883 112.943 36.1462 109.231 37.1371C107.914 37.4563 107.393 35.5487 108.69 35.1547C112.017 34.259 115.055 32.3929 117.124 29.637C120.638 24.889 121.21 18.7357 116.765 14.3725C114.394 12.0419 110.922 10.7447 107.616 10.7145C104.199 10.7484 101.313 12.7502 99.1141 15.3538C97.5889 17.1747 96.3976 19.1695 95.0009 21.1142C94.6837 21.5836 93.9262 21.2466 94.0633 20.696Z" fill="black"/>
<path d="M29.0753 52.5488L34.0384 54.423C34.0384 54.423 36.1727 60.1867 34.918 71.1591C33.7906 81.0195 29.4645 87.5384 29.4645 87.5384L24.8271 88.3947L21.0488 78.2965L29.0753 52.5488Z" fill="#5DAA55"/>
<path d="M24.827 89.1652C24.5109 89.1652 24.2206 88.9698 24.1066 88.6646L20.3283 78.5664C20.2681 78.406 20.2633 78.2299 20.3143 78.0663L28.3402 52.3187C28.4031 52.1163 28.5472 51.9484 28.7375 51.8552C28.9278 51.7627 29.1483 51.7519 29.3466 51.8267L34.3093 53.7009C34.5179 53.7795 34.6818 53.9448 34.7592 54.1541C34.849 54.3964 36.943 60.2176 35.6818 71.246C34.5464 81.1764 30.2858 87.6915 30.1047 87.9644C29.9891 88.1382 29.8084 88.2577 29.6031 88.2959L24.9657 89.1523C24.92 89.1609 24.8732 89.1652 24.827 89.1652ZM21.8626 78.2735L25.3221 87.5192L28.9918 86.8416C29.7902 85.5255 33.1873 79.5148 34.1528 71.0711C35.2049 61.869 33.8211 56.3578 33.419 55.0127L29.5665 53.5583L21.8626 78.2735Z" fill="black"/>
<path d="M10.7591 54.3315L29.0764 52.5488C29.0764 52.5488 35.7572 73.6308 24.8282 88.3947L9.94141 87.4312C9.94141 87.4312 13.7729 79.5113 13.4256 68.533C13.1789 60.7212 10.7591 54.3315 10.7591 54.3315Z" fill="#83D67C"/>
<path d="M13.6543 85.0508C14.8161 81.5257 16.2606 75.6097 16.0343 68.4492C15.8821 63.6447 14.9617 59.3753 14.2096 56.6215L27.1165 55.3652C27.6051 57.4596 28.2782 61.0051 28.4454 65.1825C28.6008 69.0629 28.2944 72.7246 27.5358 76.0661C26.7202 79.6579 25.3746 82.888 23.5296 85.6891L13.6543 85.0508Z" fill="#54B74F"/>
<path d="M15.9995 58.5222C16.9911 57.5294 16.9911 55.9198 15.9995 54.927C15.0079 53.9342 13.4003 53.9342 12.4087 54.927C11.4171 55.9198 11.4171 57.5294 12.4087 58.5222C13.4003 59.515 15.0079 59.515 15.9995 58.5222Z" fill="#83D67C"/>
<path d="M14.2064 57.9489C14.8812 57.9489 15.4283 57.4011 15.4283 56.7254C15.4283 56.0497 14.8812 55.502 14.2064 55.502C13.5315 55.502 12.9844 56.0497 12.9844 56.7254C12.9844 57.4011 13.5315 57.9489 14.2064 57.9489Z" fill="#54B74F"/>
<path d="M29.598 55.5239C29.6844 54.1225 28.6198 52.9164 27.2202 52.8299C25.8205 52.7434 24.6158 53.8093 24.5295 55.2107C24.4431 56.612 25.5077 57.8182 26.9073 57.9046C28.307 57.9911 29.5116 56.9252 29.598 55.5239Z" fill="#83D67C"/>
<path d="M28.2788 55.4136C28.2513 56.0885 27.6826 56.6139 27.0084 56.5864C26.3342 56.559 25.8095 55.9895 25.837 55.3145C25.8644 54.6395 26.4332 54.1142 27.1073 54.1417C27.7815 54.1691 28.3062 54.7386 28.2788 55.4136Z" fill="#54B74F"/>
<path d="M24.2331 88.034C25.5343 87.5107 26.1654 86.0304 25.6428 84.7276C25.1201 83.4248 23.6416 82.7929 22.3404 83.3162C21.0392 83.8395 20.4081 85.3198 20.9307 86.6226C21.4533 87.9254 22.9319 88.5573 24.2331 88.034Z" fill="#83D67C"/>
<path d="M24.2165 86.4703C24.6531 85.9551 24.5898 85.1831 24.0753 84.746C23.5607 84.3089 22.7896 84.3722 22.353 84.8874C21.9164 85.4026 21.9797 86.1747 22.4943 86.6118C23.0089 87.0489 23.7799 86.9856 24.2165 86.4703Z" fill="#54B74F"/>
<path d="M14.988 87.1617C16.1685 86.4038 16.5118 84.8313 15.7548 83.6494C14.9979 82.4675 13.4273 82.1237 12.2468 82.8816C11.0663 83.6395 10.723 85.212 11.48 86.3939C12.237 87.5758 13.8076 87.9196 14.988 87.1617Z" fill="#83D67C"/>
<path d="M13.9842 86.1963C14.6287 85.9958 14.9888 85.3101 14.7885 84.6648C14.5882 84.0195 13.9033 83.659 13.2588 83.8595C12.6143 84.0601 12.2542 84.7458 12.4545 85.3911C12.6548 86.0364 13.3396 86.3969 13.9842 86.1963Z" fill="#54B74F"/>
<path d="M25.9615 71.2162C26.011 68.014 24.2108 65.3896 21.9406 65.3543C19.6703 65.3191 17.7897 67.8864 17.7402 71.0886C17.6906 74.2908 19.4908 76.9153 21.761 76.9505C24.0313 76.9858 25.9119 74.4184 25.9615 71.2162Z" fill="#83D67C"/>
<path d="M19.0194 70.6418L20.7462 70.7532L20.8048 70.6321L21.1623 69.8796C21.6188 68.9484 22.2929 68.5119 23.1837 68.5695C23.7563 68.6066 24.2133 68.8413 24.5541 69.2746C24.8949 69.7074 25.0449 70.2462 25.0035 70.8899L24.9944 71.0277L25.7019 71.0735L25.6804 71.4045L24.9729 71.3587C24.7492 72.6802 24.1401 73.3089 23.145 73.2448C23.0407 73.2383 22.8977 73.2163 22.7155 73.1802L22.5558 72.2969C22.8235 72.3852 23.0499 72.4353 23.2332 72.4471C23.9466 72.4934 24.3611 72.1198 24.4767 71.327L22.5386 71.2016C22.0295 72.4681 21.2881 73.0693 20.3145 73.0064C19.1388 72.9305 18.5372 72.242 18.5103 70.9411L17.9453 70.9045L17.9668 70.5734L18.5044 70.6084C18.5931 69.2289 19.2549 68.5786 20.4887 68.6588L20.6081 69.5303C20.4608 69.4775 20.3258 69.4474 20.2033 69.4393C19.5183 69.3946 19.1232 69.7956 19.0194 70.6418ZM19.0259 70.9744C19.0135 71.0196 19.0071 71.0519 19.006 71.0702C18.9759 71.5364 19.2092 71.785 19.7049 71.8173C20.057 71.8399 20.3559 71.5929 20.6011 71.0762L19.0259 70.9744ZM24.4993 70.9954C24.4487 70.398 24.1799 70.0836 23.6928 70.0518C23.2794 70.0249 22.9434 70.3005 22.6848 70.8781L24.4993 70.9954Z" fill="#54B74F"/>
<path d="M24.8266 89.165C24.81 89.165 24.7933 89.1645 24.7766 89.1634L9.88982 88.1994C9.63392 88.1827 9.40383 88.0401 9.2748 87.8183C9.14578 87.5971 9.13502 87.3252 9.24684 87.0949C9.28448 87.0168 12.9913 79.1991 12.6547 68.5567C12.415 60.9748 10.0613 54.6669 10.0377 54.6039C9.95272 54.3795 9.97745 54.1281 10.1038 53.9241C10.2301 53.7201 10.4446 53.5872 10.6828 53.5635L29.0001 51.7808C29.3613 51.7469 29.6984 51.9681 29.8081 52.3147C29.8774 52.5338 31.5128 57.7651 31.8177 64.9014C32.1004 71.5182 31.2241 81.0448 25.4449 88.8528C25.2992 89.0498 25.0691 89.165 24.8266 89.165ZM11.0833 86.7321L24.4535 87.5976C33.6858 74.7155 29.4592 56.8501 28.5114 53.3772L11.8053 55.0033C12.487 57.0805 13.9977 62.3236 14.1933 68.5077C14.474 77.382 12.1064 84.2189 11.0833 86.7321Z" fill="black"/>
<path d="M32.1421 74.6437C31.8034 77.3033 31.0674 79.916 29.9723 82.3634C29.5971 83.1757 29.1879 83.9728 28.7159 84.7323C28.6783 84.7926 28.5993 84.8109 28.5391 84.7732C28.4842 84.7388 28.4638 84.6693 28.4896 84.6117C28.5794 84.4083 28.6718 84.207 28.767 84.0062C29.7707 81.7977 30.6018 79.5112 31.2389 77.1703C31.4738 76.3188 31.684 75.4603 31.8899 74.5974C31.9238 74.4478 32.163 74.4822 32.1421 74.6437Z" fill="black"/>
<path d="M31.9777 57.4142C32.8862 61.1793 33.1217 65.107 32.776 68.9604C32.7615 69.117 32.519 69.1117 32.5196 68.948C32.4986 66.0662 32.4013 63.1892 32.0911 60.324C31.9906 59.3708 31.8728 58.4148 31.7271 57.4702C31.6976 57.3157 31.9357 57.2543 31.9777 57.4142Z" fill="black"/>
<path d="M33.1266 57.4566C35.0383 65.8987 34.0539 75.2612 30.5869 83.1779L29.8698 84.7722C29.8407 84.8368 29.7649 84.8659 29.7004 84.8362C29.6343 84.8066 29.6069 84.7281 29.6375 84.6635C30.7536 81.9948 31.7218 79.2626 32.3653 76.4432C33.0147 73.6727 33.4136 70.7145 33.561 67.8735C33.6894 64.4168 33.562 60.9149 32.8782 57.5201C32.8599 57.4496 32.9045 57.3759 32.9766 57.3619C33.0438 57.3484 33.1099 57.3904 33.1266 57.4566Z" fill="black"/>
<path d="M13.4464 69.9241C13.4464 69.9241 23.6415 70.4311 31.0648 68.8906C31.0648 68.8906 30.7804 73.6031 30.2648 75.7997C30.2648 75.7997 21.6674 77.0334 13.041 76.0096C13.041 76.0096 13.5077 72.2354 13.4464 69.9241Z" fill="white"/>
<path d="M20.3705 77.1823C18.0378 77.1823 15.4912 77.0758 12.9504 76.7743C12.7472 76.7501 12.5617 76.6457 12.4354 76.4842C12.3091 76.3227 12.2521 76.1177 12.2774 75.9142C12.2822 75.8771 12.7365 72.1695 12.6773 69.9433C12.6714 69.7285 12.7558 69.5218 12.909 69.3717C13.0623 69.222 13.2719 69.144 13.4854 69.1531C13.5864 69.1585 23.6703 69.637 30.9091 68.1353C31.1441 68.0863 31.3876 68.1503 31.5693 68.307C31.7505 68.4642 31.8483 68.6967 31.8338 68.9362C31.822 69.1311 31.5392 73.7402 31.015 75.975C30.9425 76.284 30.6887 76.5165 30.3748 76.5617C30.3124 76.5709 25.9583 77.1823 20.3705 77.1823ZM13.8934 75.328C20.8511 76.0471 27.6991 75.3366 29.6237 75.1041C29.9189 73.5399 30.1258 71.1667 30.2264 69.8367C24.0902 70.938 16.6637 70.8067 14.2181 70.7254C14.1934 72.3402 14.0074 74.2736 13.8934 75.328Z" fill="black"/>
<path d="M34.0912 75.9332L30.2656 75.7997C30.2656 75.7997 31.0441 71.6788 31.0656 68.8906L35.0546 69.8514C35.0546 69.8514 34.8304 73.4265 34.0912 75.9332Z" fill="white"/>
<path d="M34.0919 76.7031C34.0828 76.7031 34.0742 76.7031 34.0645 76.7026L30.2389 76.5691C30.0147 76.561 29.805 76.4555 29.6647 76.2801C29.5244 76.1046 29.468 75.8764 29.5094 75.6557C29.5169 75.6153 30.2755 71.5692 30.2959 68.8838C30.2975 68.6486 30.4066 68.4274 30.5916 68.2826C30.7765 68.1378 31.0173 68.0856 31.2458 68.1405L35.2349 69.1013C35.5983 69.189 35.8466 69.5254 35.823 69.899C35.8133 70.0486 35.5848 73.5904 34.8295 76.1509C34.7327 76.4792 34.4317 76.7031 34.0919 76.7031ZM31.1781 75.0593L33.5086 75.1406C33.9285 73.4596 34.1457 71.4529 34.2354 70.4459L31.8039 69.8602C31.7012 71.7436 31.3754 73.8848 31.1781 75.0593Z" fill="black"/>
<path d="M24.1836 80.4223C21.7209 83.7379 14.9497 83.802 14.9497 83.802C14.9497 83.802 12.9988 84.0437 10.7285 85.8802C10.7285 85.8802 8.99845 82.3842 9.41133 76.5506C9.50165 75.2695 9.69358 73.8754 10.0307 72.3791C11.6413 65.2444 16.8426 61.3033 23.4686 64.0888C25.475 64.9328 26.4486 66.6649 26.7889 68.7081C27.513 73.0723 25.3497 78.8532 24.1836 80.4223Z" fill="#60567C"/>
<g opacity="0.3">
<path d="M26.7345 73.0539C26.7453 72.3569 26.7028 71.676 26.5937 71.0241C26.2534 68.9809 25.2781 67.2488 23.2723 66.4026C16.648 63.6171 11.445 67.5599 9.8349 74.6929C9.62739 75.616 9.47363 76.4993 9.36719 77.3401C9.37525 77.0822 9.39138 76.8212 9.40966 76.5526C9.49997 75.2705 9.69136 73.8764 10.029 72.3811C11.6391 65.2459 16.8394 61.3053 23.4664 64.0908C25.4728 64.9343 26.4453 66.6664 26.7851 68.7096C27.0135 70.0768 26.9549 71.5828 26.7345 73.0539Z" fill="white"/>
</g>
<g opacity="0.25">
<path d="M24.1836 80.4226C21.7209 83.7383 14.9497 83.8023 14.9497 83.8023C14.9497 83.8023 12.9988 84.044 10.7285 85.8805C10.7285 85.8805 8.99845 82.3845 9.41133 76.5509C10.6295 77.6979 12.9934 78.9203 17.5491 78.993C24.1401 79.0979 26.5039 73.366 26.7883 68.709C27.513 73.0727 25.3497 78.8536 24.1836 80.4226Z" fill="#181558"/>
</g>
<path d="M10.7256 86.8869C10.6535 86.8869 10.5815 86.8794 10.5105 86.8638C10.2127 86.7986 9.96057 86.6011 9.8251 86.3276C9.71328 86.1021 7.11664 80.7098 9.04826 72.1585C10.009 67.9041 12.1782 64.7165 15.1549 63.182C17.7274 61.8557 20.7358 61.8482 23.8555 63.1599C25.735 63.9501 26.9844 65.4383 27.5698 67.5838C28.8827 72.3937 26.3554 79.1844 24.9888 81.0236C22.3792 84.5342 15.8602 84.7871 15.0339 84.8054C14.7705 84.8534 13.1803 85.1903 11.3573 86.6641C11.1766 86.8094 10.953 86.8869 10.7256 86.8869ZM19.3294 64.1982C18.1698 64.1982 17.0747 64.4555 16.0753 64.9711C13.6356 66.2285 11.8368 68.9386 11.0089 72.602C9.73639 78.236 10.6095 82.3957 11.2041 84.2941C13.1792 83.0211 14.7458 82.8112 14.8232 82.8015C14.8614 82.7967 14.9001 82.794 14.9383 82.794C16.6844 82.7751 21.6062 82.2035 23.3765 79.8222C24.4012 78.4438 26.7677 72.2775 25.6312 68.1146C25.2114 66.5751 24.3759 65.5616 23.0776 65.0153C21.7825 64.4706 20.5218 64.1982 19.3294 64.1982Z" fill="black"/>
<path d="M20.0867 67.37C22.3458 67.0326 25.9703 66.5772 27.5879 68.5973C28.0132 69.0548 28.0003 69.7906 27.4804 70.1701C27.0272 70.5065 26.3875 70.4112 26.0515 69.9569C25.8488 69.5554 25.6574 69.2949 25.0461 69.0338C23.5736 68.4266 21.8049 68.3599 20.2115 68.3895C19.5696 68.4213 19.4567 67.4938 20.0867 67.37Z" fill="black"/>
<path d="M19.7295 74.4865C21.4321 74.1791 23.1508 74.0715 24.8222 74.6732C25.7055 75 27.5382 76.1341 26.4377 77.244C26.0233 77.617 25.3851 77.5831 25.012 77.1681C24.7739 76.8268 24.5276 76.5297 24.0879 76.2794C22.8616 75.5969 21.2735 75.4693 19.8768 75.5038C19.2354 75.5468 19.1037 74.6243 19.7295 74.4865Z" fill="black"/>
<path d="M55.3879 74.0213C56.3647 76.4725 58.4683 78.0361 60.5935 77.6782C62.4353 77.3692 63.7912 75.7098 64.2057 73.5584C64.3696 72.7079 64.3863 71.781 64.2282 70.8331C63.667 67.4819 61.1311 65.1152 58.563 65.5469C55.997 65.9748 54.3702 69.0424 54.9309 72.3909C55.0271 72.9668 55.182 73.5131 55.3879 74.0213Z" fill="black"/>
<path d="M55.3906 74.0211C56.3675 76.4723 58.4711 78.0359 60.5963 77.678C62.4381 77.369 63.7939 75.7096 64.2084 73.5582C62.8225 73.0969 61.0672 73.1631 59.6485 74.2008C59.6485 74.2014 57.726 72.7567 55.3906 74.0211Z" fill="#FF67A0"/>
<path d="M59.9966 78.757C57.1537 78.757 54.5173 76.1459 53.9179 72.5622C53.6098 70.7198 53.8759 68.8838 54.6673 67.3922C55.507 65.8103 56.8301 64.7951 58.394 64.5325C59.9568 64.2703 61.5395 64.7984 62.848 66.0197C64.0818 67.1716 64.9313 68.8208 65.2398 70.6627C65.893 74.5667 63.8851 78.1687 60.7637 78.6924C60.5073 78.736 60.2509 78.757 59.9966 78.757ZM59.1692 66.5235C59.0235 66.5235 58.8778 66.5353 58.7337 66.5595C57.8139 66.714 57.0139 67.3519 56.4806 68.3563C55.9 69.4505 55.7086 70.8236 55.943 72.2226C56.4091 75.0091 58.4203 77.0028 60.4251 76.6659C62.4298 76.3295 63.6819 73.7889 63.2158 71.0029C62.9819 69.6045 62.354 68.3686 61.4487 67.5236C60.7476 66.869 59.9525 66.5235 59.1692 66.5235Z" fill="black"/>
<path d="M67.1252 69.2614C67.2542 72.3876 64.5979 73.5955 61.9099 72.8182C59.2315 72.0437 58.6633 69.1231 58.6821 68.1677C58.6821 68.1677 57.4235 73.3457 54.0355 71.1905C52.5727 70.2599 51.7281 68.0751 52.9835 66.1223C52.9835 66.1223 51.8126 60.7898 59.6449 61.9825C67.4768 63.1753 67.1252 69.2614 67.1252 69.2614Z" fill="white"/>
<g opacity="0.25">
<path d="M67.0779 70.1739C66.7005 72.6155 64.3178 73.516 61.9093 72.8184C59.2326 72.0433 58.6622 69.1216 58.6821 68.1668C58.6821 68.1668 57.4246 73.3459 54.0356 71.1891C52.8566 70.4404 52.0803 68.8735 52.4819 67.2722C52.7593 67.5822 53.0711 67.8508 53.4103 68.0677C57.7128 70.8026 59.31 64.2305 59.31 64.2305C59.2869 65.4405 60.0078 69.148 63.4082 70.133C64.6995 70.5076 65.9876 70.5189 67.0779 70.1739Z" fill="#181558"/>
</g>
<path d="M67.511 69.2444C68.0836 73.2496 63.7618 74.8159 60.641 73.1661C58.8561 72.1854 57.8906 70.1422 57.9137 68.1512L59.4443 68.2831C59.3577 68.8951 59.1991 69.4349 58.9427 69.9931C57.4105 73.5462 52.5635 73.003 51.7382 69.2648C51.4657 68.0538 51.8248 66.7194 52.664 65.9077C52.9554 65.6203 53.4462 65.94 53.3107 66.3179C52.5532 68.2168 53.4478 70.9986 55.7832 70.6681C56.9041 70.498 57.5186 69.359 57.8384 68.346C57.8745 68.2346 57.9062 68.1124 57.9271 68.0285C58.0309 67.6129 58.4518 67.3605 58.8669 67.4644C59.2066 67.5494 59.4367 67.8481 59.4523 68.1808C59.4771 68.6157 59.598 69.1443 59.7566 69.5716C60.0776 70.4619 60.6254 71.2677 61.4366 71.7398C62.6344 72.398 64.3596 72.5278 65.4832 71.7721C66.239 71.2795 66.6767 70.3397 66.7412 69.2756C66.7686 68.8159 67.447 68.7912 67.511 69.2444Z" fill="black"/>
<path d="M60.1081 62.5516C59.6119 63.9026 59.5098 65.3645 59.4523 66.7931C59.4388 67.2694 59.4334 67.7609 59.4496 68.2189C59.4652 68.6468 59.1313 69.0059 58.7045 69.0215C58.2771 69.0371 57.9185 68.7034 57.9023 68.2754C57.9534 67.7065 58.1109 67.1661 58.2276 66.6246C58.4663 65.6477 58.7458 64.6799 59.1308 63.7487C59.3265 63.2836 59.5447 62.8261 59.8211 62.4003C59.87 62.325 59.9705 62.3035 60.0458 62.3524C60.1135 62.396 60.1377 62.4805 60.1081 62.5516Z" fill="black"/>
<path d="M65.4453 62.6631C65.0055 65.8512 59.2026 66.4341 59.2026 66.4341C59.2026 66.4341 54.6157 63.9544 55.2093 61.1129C55.5469 59.496 60.0665 60.1779 60.0665 60.1779C60.0665 60.1779 65.671 61.0268 65.4453 62.6631Z" fill="black"/>
<g opacity="0.5">
<path d="M62.324 61.8639C62.21 62.6895 60.7693 62.8499 59.7462 62.6949C58.7231 62.5399 57.385 61.958 57.499 61.1324C57.5576 60.7087 59.9704 61.0742 59.9704 61.0742C59.9704 61.0742 62.3821 61.4402 62.324 61.8639Z" fill="white"/>
</g>
<path d="M71.8774 61.436C73.229 56.9916 78.0669 54.2309 82.4096 56.4926C86.0917 58.5003 86.5503 63.37 86.2718 67.0909C86.1782 67.9613 84.9509 68.0442 84.7364 67.204C84.0294 64.6494 83.3827 60.3719 80.9258 59.1839C78.0007 57.8097 75.1154 59.7405 73.2419 62.1368C72.7198 62.8042 71.6398 62.2412 71.8774 61.436Z" fill="black"/>
<path d="M49.5792 58.9128C48.7669 56.0853 47.0868 52.2357 43.6322 53.3251C41.1173 54.1847 39.877 56.6978 38.6851 59.0705C38.4986 59.4602 38.032 59.6243 37.6427 59.4376C37.3438 59.2938 37.1782 58.9833 37.2014 58.6711C37.3444 56.8405 37.8895 54.991 39.0029 53.3246C40.7711 50.5148 44.6741 49.0572 47.6814 50.8491C50.3802 52.5489 51.3431 55.8307 51.1156 58.8121C51.0135 59.6814 49.7878 59.7514 49.5792 58.9128Z" fill="black"/>
<path d="M109.858 26.8568C112.163 24.5488 112.163 20.8067 109.858 18.4987C107.553 16.1907 103.815 16.1907 101.51 18.4987C99.2047 20.8067 99.2047 24.5487 101.51 26.8568C103.815 29.1648 107.553 29.1648 109.858 26.8568Z" fill="white"/>
</svg>
