<svg width="18" height="18" viewBox="0 0 18 18" fill="none" xmlns="http://www.w3.org/2000/svg">
<path d="M14.9076 11.0342V14.7342C14.9074 15.2577 14.6994 15.7597 14.3292 16.1299C13.959 16.5001 13.457 16.7081 12.9335 16.7084H3.26598C3.00578 16.7082 2.74816 16.6567 2.50793 16.5567C2.2677 16.4568 2.04959 16.3103 1.86614 16.1258C1.68269 15.9412 1.53751 15.7223 1.43895 15.4815C1.34039 15.2406 1.29039 14.9827 1.29181 14.7225V5.06586C1.29027 4.80606 1.34029 4.54854 1.439 4.30823C1.5377 4.06791 1.68312 3.84957 1.86683 3.66587C2.05053 3.48216 2.26887 3.33674 2.50919 3.23804C2.7495 3.13933 3.00702 3.08931 3.26681 3.09086H6.96598" stroke="#0C46BE" stroke-linecap="round" stroke-linejoin="round"/>
<path d="M14.9077 6.49576L11.5035 3.09076M4.69516 12.1691V10.3649C4.69683 10.0674 4.81516 9.7816 5.02433 9.57076L12.9677 1.62743C13.0731 1.52085 13.1986 1.43624 13.3369 1.3785C13.4752 1.32075 13.6236 1.29102 13.7735 1.29102C13.9234 1.29102 14.0718 1.32075 14.2101 1.3785C14.3484 1.43624 14.4739 1.52085 14.5793 1.62743L16.3718 3.41993C16.4784 3.52533 16.563 3.65082 16.6208 3.78915C16.6785 3.92747 16.7082 4.07587 16.7082 4.22576C16.7082 4.37566 16.6785 4.52406 16.6208 4.66238C16.563 4.80071 16.4784 4.9262 16.3718 5.0316L8.42849 12.9749C8.21727 13.1847 7.93201 13.3029 7.63433 13.3041H5.83016C5.68105 13.3043 5.53336 13.2751 5.39556 13.2181C5.25775 13.1612 5.13254 13.0776 5.02711 12.9722C4.92167 12.8667 4.83807 12.7415 4.78111 12.6037C4.72415 12.4659 4.69494 12.3182 4.69516 12.1691Z" stroke="#0C46BE" stroke-linecap="round" stroke-linejoin="round"/>
</svg>
