<svg width="270" height="192" viewBox="0 0 270 192" fill="none" xmlns="http://www.w3.org/2000/svg">
<g opacity="0.2">
<path d="M135 192C209.558 192 270 183.941 270 174C270 164.059 209.558 156 135 156C60.4416 156 0 164.059 0 174C0 183.941 60.4416 192 135 192Z" fill="#000072"/>
</g>
<path d="M87 174H36.5971C6.46762 174 6.46762 147 36.5971 147H68.4595" fill="#60547B"/>
<g opacity="0.3">
<path d="M87 173H36.5526C22.2702 173 14.7548 167.155 14 161C17.7433 163.788 23.6949 165.697 31.8631 165.697H81.7986L87 173Z" fill="#000072"/>
</g>
<g opacity="0.55">
<path d="M87 174H86.6166L70.1617 150.034H38.3002C20.8738 150.034 13.5264 159.07 16.257 166.688C9.99112 158.689 16.7721 147 36.5962 147H68.4577L87 174Z" fill="white"/>
</g>
<path d="M231.714 176.97C231.029 176.992 230.328 177 229.612 177H123.124C122.188 176.97 121.286 176.915 120.419 176.847C89.2224 174.312 102.69 147.275 159.041 149.222L107.627 114.193C110.961 110.76 114.448 107.616 118.05 104.766C130.714 94.7429 144.761 88.3495 158.497 85.5845C175.762 82.1042 192.526 84.3576 205.403 92.3405C220.418 101.635 230.148 118.713 229.234 143.551C231.488 143.85 233.631 144.288 235.651 144.842C237.343 145.307 238.947 145.852 240.452 146.465C261.043 154.862 264.08 176.097 231.714 176.97Z" fill="white"/>
<path d="M229.465 177H123.292C122.435 176.973 121.55 176.923 120.577 176.846C110.052 175.993 103.704 172.172 104.011 166.874C104.276 162.273 109.616 157.525 118.294 154.174C125.439 151.414 138.158 148.277 158.337 148.884L107.494 114.311L107.68 114.119C110.96 110.748 114.463 107.585 118.095 104.718C130.324 95.0569 144.303 88.4417 158.516 85.5861C176.043 82.0598 192.709 84.4576 205.445 92.3377C221.636 102.34 230.11 120.43 229.319 143.294C231.446 143.584 233.54 144.008 235.546 144.557C237.21 145.013 238.829 145.559 240.358 146.181C250.73 150.402 257.097 158.165 255.843 165.06C254.537 172.248 245.688 176.588 231.566 176.968H231.567C230.925 176.99 230.238 177 229.465 177ZM153.352 149.257C136.105 149.257 124.958 152.082 118.456 154.593C109.946 157.88 104.714 162.48 104.458 166.901C104.168 171.929 110.357 175.568 120.612 176.399C121.577 176.475 122.455 176.525 123.298 176.551H229.465C230.233 176.551 230.915 176.541 231.553 176.522H231.553C245.443 176.147 254.135 171.941 255.401 164.982C256.617 158.298 250.361 150.738 240.189 146.598C238.677 145.983 237.075 145.443 235.427 144.992C233.377 144.431 231.235 144.001 229.059 143.714L228.856 143.687L228.864 143.483C229.705 120.692 221.304 102.665 205.209 92.722C192.571 84.902 176.019 82.5249 158.604 86.0277C144.459 88.869 130.547 95.4546 118.372 105.072C114.825 107.873 111.401 110.956 108.189 114.242L159.871 149.385L159.095 149.358C157.111 149.289 155.195 149.257 153.352 149.257Z" fill="#000072"/>
<path d="M85.5521 175H35.7677C19.4382 175 12 167.225 12 160C12 152.775 19.4382 145 35.7677 145H67.2391C68.0384 145 68.687 145.662 68.687 146.479C68.687 147.296 68.0393 147.958 67.2391 147.958H35.7677C22.0649 147.958 14.8958 154.016 14.8958 160C14.8958 165.984 22.0649 172.042 35.7677 172.042H85.5521C86.3513 172.042 87 172.704 87 173.521C87 174.338 86.3522 175 85.5521 175Z" fill="#000072"/>
<path d="M181.152 143.108C179.151 150.782 174.087 162.94 166.34 170L146.171 159.945C146.171 159.945 126.341 149.551 126.904 145.135C127.392 141.315 120.738 113.54 118 105.05C120.28 103.252 122.603 101.573 124.963 100.012C135.669 92.9217 147.09 88.2516 158.308 86.0013C158.423 85.9798 159.748 86.2297 161.745 86.9786C170.4 90.227 191.646 102.842 181.152 143.108Z" fill="#60547B"/>
<g opacity="0.55">
<path d="M227 121C217.223 93.6613 189.293 82.9315 159.908 88.8731C146.179 91.6457 132.139 98.0568 119.481 108.108C116.42 110.539 113.441 113.179 110.572 116.036L108 114.277C111.332 110.834 114.818 107.681 118.418 104.823C131.076 94.7721 145.116 88.361 158.845 85.5884C189.382 79.4152 218.346 91.2396 227 121Z" fill="white"/>
</g>
<g opacity="0.3">
<path d="M151.106 96C169.133 104.3 177.683 120.66 177.999 144.023C178.058 148.343 174.196 151.644 169.997 150.893C163.089 149.658 152.764 148.34 144.055 149.404C129.462 151.186 151.106 96 151.106 96Z" fill="#000072"/>
</g>
<path d="M224.544 116L219.098 107.935L213 98.9083C218.951 95.2036 224.31 95.374 227.806 97.5431C233.516 101.083 234.264 109.956 224.544 116Z" fill="#60547B"/>
<g opacity="0.55">
<path d="M228.27 100.272C230.052 101.401 231.352 103.062 232 105C231.938 101.931 230.378 99.2032 227.812 97.5777C224.314 95.3596 218.953 95.1863 213 98.9733L214.405 101.1C219.978 97.91 224.959 98.1722 228.27 100.272Z" fill="white"/>
</g>
<path d="M228.485 145C228.467 145 228.448 145 228.43 144.999C227.626 144.97 226.999 144.295 227.029 143.492C227.748 124.03 221.761 108.337 209.715 98.1082C197.021 87.3293 178.306 83.4442 158.371 87.4501C144.441 90.2458 130.734 96.7288 118.733 106.2C115.165 109.014 111.723 112.119 108.5 115.427C107.939 116.003 107.017 116.016 106.441 115.456C105.864 114.896 105.852 113.975 106.412 113.399C109.723 110 113.261 106.809 116.927 103.917C129.286 94.164 143.419 87.4832 157.797 84.5981C178.612 80.4157 198.224 84.5327 211.601 95.8918C224.352 106.718 230.694 123.216 229.94 143.599C229.91 144.383 229.265 145 228.485 145Z" fill="#000072"/>
<path d="M110 64.4342C127.533 30.102 173.48 59.183 148.944 92L110 64.4342Z" fill="#60547B"/>
<g opacity="0.3">
<path d="M137 83.7722L148.798 92C158.047 79.815 157.483 68.1396 152.194 60C152.717 69.3047 147.879 79.0802 137 83.7722Z" fill="#000072"/>
</g>
<g opacity="0.55">
<path d="M110 64.1155L112.087 65.5731C124.378 44.6992 148.383 50.9515 155 67C150.404 48.1126 122.697 39.5827 110 64.1155Z" fill="white"/>
</g>
<path d="M58 76.5171C29.0797 58.2663 -2.85925 99.8281 35.9803 121L58 76.5171Z" fill="#60547B"/>
<g opacity="0.55">
<path d="M19.7187 104C15.7363 85.9647 36.4752 68.6454 56.7639 78.8788L58 76.4285C35.5435 62.5361 11.2715 83.9929 19.7187 104Z" fill="white"/>
</g>
<path d="M39.1414 144.402C49.848 177.959 80.1786 182.429 112.524 172.053C144.869 161.677 166.979 140.383 156.273 106.827C145.566 73.2703 110.666 54.4796 78.3218 64.8551C45.9766 75.2316 28.4358 110.845 39.1414 144.402Z" fill="white"/>
<path d="M84.0323 177C78.142 177 72.6849 176.242 67.7688 174.719C53.8249 170.399 44.1977 160.193 39.1549 144.383C33.979 128.157 35.2022 110.948 42.5997 95.9264C49.9981 80.9018 62.6873 69.863 78.3289 64.8452C110.616 54.4851 145.577 73.3107 156.263 106.808C161.306 122.618 159.373 136.534 150.519 148.169C142.795 158.317 129.661 166.585 112.537 172.08C102.334 175.352 92.7132 177 84.0323 177ZM39.5827 144.246C44.5787 159.907 54.1062 170.015 67.9018 174.289C79.9754 178.029 95.3627 177.117 112.4 171.65C129.437 166.184 142.495 157.97 150.162 147.895C158.922 136.385 160.831 122.608 155.835 106.946C145.224 73.6847 110.517 54.9908 78.4664 65.2742C62.9417 70.2551 50.3468 81.2119 43.0032 96.1265C35.6561 111.043 34.4419 128.132 39.5827 144.246Z" fill="#000072"/>
<g opacity="0.3">
<path d="M49 162.755C63.316 179.202 87.0196 180.097 111.932 172.081C143.992 161.764 165.909 140.591 155.297 107.228C149.753 89.7991 137.669 76.3798 122.823 69C130.39 76.2431 136.342 85.5074 139.779 96.3135C150.393 129.682 128.476 150.853 96.4161 161.17C79.1175 166.736 62.3976 168.005 49 162.755Z" fill="#000072"/>
</g>
<path d="M84.0796 178C78.0872 178 72.5291 177.227 67.5162 175.675C53.2189 171.247 43.3552 160.812 38.2017 144.659C32.948 128.193 34.1907 110.725 41.7024 95.4763C49.2222 80.2102 62.1219 68.9927 78.0246 63.892C110.835 53.3675 146.357 72.4748 157.209 106.485C162.363 122.638 160.372 136.875 151.294 148.802C143.446 159.11 130.154 167.493 112.852 173.042C102.569 176.34 92.8591 178 84.0796 178ZM40.9728 143.77C45.82 158.961 55.0391 168.757 68.3748 172.888C80.1617 176.539 95.2344 175.63 111.965 170.264C128.697 164.896 141.496 156.863 148.98 147.032C157.448 135.907 159.284 122.564 154.437 107.373C144.074 74.895 110.191 56.636 78.91 66.6704C63.7649 71.5287 51.4775 82.2175 44.3096 96.7681C37.1354 111.336 35.95 128.028 40.9728 143.77Z" fill="#000072"/>
<path d="M148.477 93C148.173 93 147.867 92.9058 147.603 92.712C146.954 92.231 146.819 91.3185 147.302 90.6725C156.985 77.7196 154.225 67.4262 151.717 62.4437C147.9 54.8573 140.067 49.9394 131.763 49.9152C131.742 49.9152 131.72 49.9152 131.699 49.9152C123.032 49.9152 115.602 55.1211 110.771 64.5828C110.405 65.3006 109.523 65.5868 108.802 65.2225C108.081 64.8582 107.793 63.9798 108.159 63.2629C113.438 52.9246 122.016 47 131.702 47C131.725 47 131.748 47 131.771 47C141.172 47.0278 150.029 52.5774 154.337 61.1391C159.116 70.6384 157.409 82.0372 149.652 92.4132C149.367 92.7972 148.925 93 148.477 93Z" fill="#000072"/>
<path d="M36.4742 122C36.2431 122 36.0094 121.944 35.7917 121.826C23.7892 115.296 17.1166 106.088 17.0015 95.8985C16.9007 86.9185 21.995 78.3778 30.2985 73.6091C39.3318 68.4211 49.9077 68.8432 59.3131 74.7663C59.9938 75.1947 60.2044 76.1042 59.7824 76.7967C59.3604 77.4892 58.4673 77.7025 57.7866 77.2741C49.3073 71.9336 39.8074 71.5343 31.7233 76.1768C24.3414 80.4163 19.8109 87.9596 19.9002 95.8641C20.0019 104.929 26.1311 113.225 37.1585 119.224C37.8642 119.608 38.131 120.502 37.7536 121.22C37.4922 121.717 36.9917 122 36.4742 122Z" fill="#000072"/>
<path d="M86 67.8475C77.2897 50.5649 61.4763 62.4664 73.1314 71L86 67.8475Z" fill="white"/>
<path d="M73.123 71C69.8652 68.6338 68.4363 65.7354 69.2027 63.0497C69.8318 60.846 71.8909 59.2697 74.4482 59.0323C78.7297 58.6386 83.0491 61.8671 86 67.6762L85.5956 67.873C82.7313 62.2342 78.5816 59.0931 74.4906 59.4718C72.1211 59.6915 70.2164 61.1416 69.6377 63.168C68.9237 65.6684 70.2922 68.3929 73.3921 70.6452L73.123 71Z" fill="#000072"/>
<path d="M71 68.2148C59.822 62.7931 56.1981 77.363 69.6753 75.8956L71 68.2148Z" fill="white"/>
<path d="M67.8943 76C64.6578 76 62.2726 74.9343 61.3618 73.0192C60.662 71.5484 60.9948 69.8023 62.2095 68.5713C64.1312 66.6235 67.4172 66.4781 71 68.1825L70.8079 68.5931C67.4055 66.9751 64.3115 67.0868 62.5296 68.892C61.4511 69.9849 61.1526 71.5284 61.7685 72.8239C62.7505 74.888 65.6786 75.871 69.5968 75.4531L69.6446 75.9046C69.0377 75.9682 68.4534 76 67.8943 76Z" fill="#000072"/>
<path d="M66.4767 76C58.0141 82.4195 67.1822 89.8613 71 80.7684L66.4767 76Z" fill="white"/>
<path d="M66.2939 85C66.2113 85 66.1288 84.9973 66.0462 84.9909C64.6564 84.8889 63.5134 83.9127 63.135 82.5039C62.5726 80.4149 63.7886 77.9834 66.3876 76L66.6388 76.3697C64.1929 78.2366 63.037 80.4832 63.5478 82.3801C63.8764 83.6022 64.8688 84.4481 66.0755 84.5374C67.8394 84.6622 69.5345 83.2115 70.6061 80.6425L71 80.8265C69.9 83.4601 68.155 84.9991 66.2939 85Z" fill="#000072"/>
<path d="M73.3508 73C73.0544 73 72.7553 72.9049 72.4994 72.7063C68.9538 69.9664 67.36 66.3821 68.236 63.1179C68.9846 60.3277 71.4034 58.3352 74.3975 58.0397C79.0839 57.5768 83.7439 61.1867 86.8506 67.6921C87.2016 68.4276 86.913 69.3196 86.2067 69.6846C85.4996 70.0497 84.642 69.7496 84.291 69.015C81.7314 63.6549 78.1322 60.6634 74.6666 60.9992C72.86 61.1767 71.4166 62.322 70.9882 63.9166C70.4341 65.9786 71.6066 68.3124 74.2031 70.3195C74.8364 70.809 74.9683 71.7403 74.4978 72.399C74.2181 72.7923 73.7871 73 73.3508 73Z" fill="#000072"/>
<path d="M68.2977 77C62.9428 77 61.0792 74.5939 60.501 73.4664C59.5427 71.5979 59.9824 69.395 61.6211 67.8549C64.0006 65.619 67.9297 65.3906 72.1338 67.2451C72.8886 67.5778 73.2111 68.4187 72.8551 69.124C72.4991 69.8293 71.5994 70.1316 70.8446 69.7981C67.3162 68.2415 64.8734 68.8026 63.7636 69.8458C63.0274 70.5381 62.8211 71.458 63.2254 72.2468C63.8184 73.4029 65.9089 74.4948 70.008 74.0892C70.8399 74.0084 71.5808 74.5687 71.6691 75.3444C71.7574 76.1201 71.156 76.8141 70.3259 76.8966C69.5991 76.967 68.9242 77 68.2977 77Z" fill="#000072"/>
<path d="M65.7488 85C65.6313 85 65.5129 84.9957 65.3944 84.9879C63.39 84.856 61.7401 83.5869 61.1916 81.7566C60.4445 79.2628 61.9095 76.4626 65.1102 74.2663C65.7734 73.8109 66.6982 73.954 67.1765 74.5855C67.6548 75.217 67.5045 76.0975 66.8412 76.5529C64.3166 78.286 63.7381 79.9775 64.0387 80.9829C64.241 81.6578 64.8532 82.1262 65.5985 82.1747C66.9177 82.2624 68.2525 81.1399 69.1654 79.1725C69.4961 78.4604 70.3689 78.1385 71.1178 78.4534C71.8658 78.7683 72.2038 79.6002 71.8731 80.3124C70.5001 83.2729 68.2297 84.9991 65.7488 85Z" fill="#000072"/>
<path d="M84.1973 130.768C85.1731 133.791 89.5252 136.929 93.2618 135.743C96.9984 134.558 98.7055 129.499 97.7298 126.476C96.7541 123.452 93.464 123.604 89.7265 124.79C85.9899 125.975 83.2216 127.744 84.1973 130.768Z" fill="#000072"/>
<path d="M107.863 149.952C107.24 152.451 104.612 154.618 101.111 155.954C98.2161 157.058 95.3875 157.331 93.303 156.566C91.9413 156.067 90.8963 155.126 90.3531 153.686C88.9781 150.037 91.7404 145.602 96.5235 143.779C101.308 141.957 106.299 143.439 107.674 147.093C108.042 148.07 108.088 149.033 107.863 149.952Z" fill="#000072"/>
<path d="M108 149.904C107.358 152.42 104.651 154.601 101.044 155.946C98.0617 157.059 95.1475 157.333 93 156.563C93.5724 153.789 96.0427 151.105 99.5894 149.786C102.616 148.656 105.723 148.787 108 149.904Z" fill="#FF2C4B"/>
<path d="M94.0622 133.274L94.9952 139.506C95.031 139.742 94.8612 139.961 94.6169 139.996C94.4231 140.022 94.2403 139.925 94.1549 139.766L91.1712 134.168C90.7818 133.438 91.0793 132.542 91.8342 132.165C92.59 131.789 93.5176 132.077 93.907 132.807C93.9869 132.955 94.0383 133.117 94.0622 133.274Z" fill="#000072"/>
<path d="M95.0638 113.526C102.46 116.483 108.157 122.723 112.576 131.435C113.814 133.876 116.439 135.261 119.141 134.959C132.738 133.441 138.176 116.323 126.958 102.745C112.3 85.2156 91.916 94.2569 91.0164 107.003C90.8166 109.822 92.459 112.485 95.0638 113.526Z" fill="#60547B"/>
<path d="M79.9853 119.541C75.7013 126.255 74.6601 134.644 76.0629 144.292C76.4556 146.996 75.1256 149.651 72.7731 150.983C60.9295 157.686 46.7735 146.968 48.0848 129.404C49.9203 106.626 71.5346 102.067 79.5322 111.885C81.301 114.057 81.4947 117.176 79.9853 119.541Z" fill="#60547B"/>
<path d="M110.627 121C108.888 121 107.049 120.359 105.415 118.778C104.88 118.259 104.86 117.399 105.37 116.855C105.88 116.311 106.728 116.29 107.264 116.809C109.455 118.929 111.953 118.43 113.427 117.357C114.789 116.367 115.987 114.352 114.883 111.932C114.572 111.25 114.864 110.442 115.534 110.126C116.207 109.811 117.001 110.107 117.313 110.788C118.992 114.464 117.354 117.846 114.988 119.567C113.785 120.442 112.249 121 110.627 121Z" fill="#000072"/>
<path d="M65.6549 137C63.129 137 60.763 135.844 59.2636 133.73C58.8146 133.098 58.9532 132.214 59.5731 131.756C60.193 131.299 61.0596 131.439 61.5086 132.072C63.0847 134.292 65.7925 134.526 67.777 133.771C69.5924 133.081 71.4475 131.344 71.2082 128.536C71.1417 127.759 71.7062 127.073 72.4693 127.005C73.2315 126.938 73.9031 127.513 73.9696 128.292C74.2773 131.907 72.2263 135.097 68.7443 136.42C67.7206 136.812 66.6748 137 65.6549 137Z" fill="#000072"/>
<path d="M95.4796 159C94.8547 159 94.2539 158.95 93.6825 158.85C91.1439 158.403 89.2872 156.939 88.4541 154.727C87.6201 152.514 87.9423 150.041 89.3602 147.763C90.6989 145.613 92.8796 143.878 95.5001 142.879C98.1214 141.881 100.897 141.727 103.317 142.446C105.879 143.208 107.75 144.846 108.584 147.057C109.417 149.269 108.991 151.602 107.384 153.629C106.013 155.357 103.854 156.817 101.141 157.851C99.1432 158.612 97.2197 158.999 95.4796 159ZM100.156 144.906C98.9688 144.906 97.7315 145.139 96.5246 145.598C94.4907 146.373 92.8173 147.689 91.8115 149.306C90.8849 150.795 90.6526 152.353 91.1582 153.696C91.6282 154.944 92.6455 155.713 94.1809 155.984C95.8125 156.271 97.9193 155.968 100.115 155.131C102.312 154.294 104.089 153.117 105.122 151.815C106.094 150.59 106.349 149.336 105.879 148.087C105.373 146.746 104.172 145.733 102.497 145.234C101.757 145.016 100.969 144.906 100.156 144.906Z" fill="#000072"/>
<path d="M166.984 153.994C172.844 167.328 165.929 174.994 146.242 177H122.898C88.61 175.828 101.217 146.959 158.79 149.115C162.268 148.771 165.556 150.746 166.984 153.994Z" fill="#60547B"/>
<g opacity="0.55">
<path d="M160 149.379C160 151.045 158.656 152.38 157.023 152.353C122.412 151.758 104.94 162.558 105.061 171C99.4199 162.502 116.305 148.556 155.068 149.011L160 149.379Z" fill="white"/>
</g>
<path d="M229.506 177H223.063C223.063 177 202.671 160.556 223.063 143.436C223.239 143.291 223.408 143.146 223.571 143C258.377 143.928 272.045 177 229.506 177Z" fill="#60547B"/>
<g opacity="0.55">
<path d="M223.057 144C222.897 144.144 222.729 144.287 222.556 144.431C222.006 144.894 221.491 145.358 221 145.819C245.464 146.55 259.252 163.458 249.745 173C263.309 163.965 249.269 144.7 223.057 144Z" fill="white"/>
</g>
<path d="M229.311 179H123.457C123.441 179 123.425 179 123.409 178.999C113.212 178.653 106.269 175.936 103.857 171.348C102.531 168.827 102.749 165.904 104.471 163.121C107.22 158.677 113.561 154.75 122.328 152.063C132.382 148.981 145.278 147.635 159.618 148.169C160.421 148.199 161.047 148.882 161.018 149.695C160.988 150.508 160.32 151.143 159.51 151.112C145.487 150.59 132.922 151.893 123.172 154.882C115.194 157.327 109.278 160.9 106.937 164.684C105.758 166.59 105.585 168.367 106.426 169.966C108.271 173.476 114.646 175.752 123.482 176.056H229.312C241.45 176.056 250.088 173.115 253.013 167.988C254.593 165.218 254.408 161.845 252.493 158.487C248.648 151.747 237.71 144.944 221.941 144.945C221.138 144.945 220.486 144.286 220.486 143.472C220.486 142.66 221.137 142 221.941 142C238.87 142 250.75 149.541 255.013 157.015C257.47 161.321 257.654 165.741 255.533 169.46C252.023 175.613 242.711 179 229.311 179Z" fill="#000072"/>
<path d="M225.044 118C224.556 118 224.078 117.769 223.793 117.344C223.346 116.677 223.543 115.787 224.233 115.355C231.458 110.83 232.173 104.931 229.781 101.364C228.509 99.4668 226.429 98.2469 223.923 97.9291C220.961 97.5511 217.631 98.4567 214.298 100.545C213.608 100.976 212.687 100.787 212.24 100.12C211.792 99.4535 211.989 98.5629 212.679 98.1309C221.223 92.7812 229.007 94.92 232.281 99.7997C234.035 102.416 234.464 105.596 233.488 108.756C232.429 112.187 229.789 115.304 225.853 117.769C225.602 117.925 225.32 118 225.044 118Z" fill="#000072"/>
<g opacity="0.3">
<path d="M214.286 141.315C212.065 141.155 210.663 138.848 211.593 136.841C223.094 112.016 204 92.0715 204 92.0715L204.741 92C219.762 101.206 229.495 118.121 228.581 142.721C230.836 143.017 232.979 143.451 235 144C228.861 142.54 219.822 141.714 214.286 141.315Z" fill="#000072"/>
</g>
<g opacity="0.3">
<path d="M229.534 176H227C247.257 173.769 247.077 149.49 240.453 146.025C240.436 146.017 240.423 146.008 240.406 146C261.495 154.425 264.225 176 229.534 176Z" fill="#000072"/>
</g>
<g opacity="0.3">
<path d="M226 177H122.698C121.767 176.97 120.871 176.914 120.008 176.845L120 176.84C120 176.84 131.049 159.485 173.35 168.694C173.35 168.694 194.221 171.353 201.835 167.144C209.029 163.173 211.689 176.245 226 177Z" fill="#000072"/>
</g>
<g opacity="0.3">
<path d="M224.851 117L219.63 108.697L219 105.704C223.459 109.099 229.26 102.616 227.979 98C233.454 101.643 234.171 110.778 224.851 117Z" fill="#000072"/>
</g>
<path d="M77.2647 38.1646C77.2603 38.1399 77.2931 38.0324 77.2887 38.0078C77.5768 37.1446 77.8196 36.6196 78.1157 35.8057C78.363 35.153 78.5137 34.3893 78.7858 33.7323C78.8603 33.5675 79.2885 32.6295 79.425 32.3767C79.9072 31.4553 80.3318 30.4917 80.8689 29.5871C80.8938 29.5827 80.9018 29.4796 80.8973 29.455C80.8973 29.455 80.8636 29.41 80.8388 29.4136C80.814 29.418 80.6855 29.4144 80.6562 29.3933C79.3204 29.6699 77.9127 29.832 76.5512 29.9597C76.3978 29.9606 75.7711 30.0407 75.7161 29.7192L75.0114 26.3509C74.906 25.885 75.5575 25.8004 75.8278 25.7291L84.7036 24C85.2931 24.0018 85.3232 24.3277 85.6193 24.7108C85.6237 24.7355 85.7984 24.8588 85.8063 24.9081C86.199 25.5547 86.2345 26.3633 86.3533 27.0556C86.4127 27.4026 86.2434 27.6087 86.09 27.9144C85.6822 28.9767 85.3817 29.765 84.8499 30.8484C83.7427 32.4612 83.2295 34.4061 82.3723 36.1299C82.3723 36.1299 82.3768 36.1545 82.3812 36.1792C82.4025 36.3025 82.5558 36.3025 82.6347 36.3139C82.7588 36.2928 83.257 36.2091 83.382 36.188C83.8438 36.1096 84.295 35.9836 84.7426 35.8506C84.9704 35.7828 85.1965 35.7132 85.4252 35.6472C85.5351 35.6155 85.6539 35.5661 85.7673 35.5512C85.8524 35.5406 85.9508 35.5494 86.0368 35.5547C86.2744 35.5688 86.5084 35.6392 86.7132 35.7608C86.878 35.8586 87.0225 35.9898 87.1378 36.1422C87.1945 36.2179 87.2548 36.3034 87.2893 36.3915C87.3159 36.4575 87.3221 36.5333 87.3399 36.6037C87.4161 36.9173 87.4923 37.23 87.5695 37.5436C87.7006 38.08 87.8788 38.6252 87.9657 39.1696C88.0286 39.5589 88.0419 39.9667 87.6732 40.2204C87.3363 40.4521 86.8754 40.4353 86.4854 40.4723C86.02 40.5164 85.5537 40.5569 85.0919 40.6344C84.9181 40.6635 84.3695 40.7568 84.3198 40.7648C84.1239 40.7982 83.9289 40.8573 83.7357 40.9031C82.7854 41.1277 81.836 41.3514 80.8858 41.576C80.4514 41.6782 80.0171 41.7812 79.5819 41.8834C79.4454 41.916 79.308 41.9468 79.1714 41.9803C78.8798 42.0525 78.5217 41.9142 78.2744 41.7575C77.8037 41.4606 77.7443 40.9691 77.6583 40.4653C77.6539 40.4406 77.5147 39.6241 77.4633 39.3273C77.4341 39.1546 77.2984 38.3628 77.2647 38.1646Z" fill="white"/>
<path d="M95.5643 20.1622C95.5694 20.1438 95.6219 20.0803 95.627 20.0609C96.0708 19.5561 96.3834 19.2723 96.8179 18.8044C97.172 18.4322 97.4989 17.9522 97.8699 17.5856C97.9674 17.4953 98.5222 16.9849 98.6856 16.8541C99.2701 16.3723 99.8309 15.8435 100.445 15.3912C100.462 15.3967 100.498 15.3276 100.503 15.3092C100.503 15.3092 100.496 15.2668 100.479 15.2613C100.462 15.2558 100.381 15.2115 100.37 15.1876C99.4387 14.9425 98.4985 14.5943 97.5972 14.2378C97.4998 14.1881 97.078 14.0388 97.1406 13.7975L97.7141 11.2309C97.7886 10.8735 98.2266 11.0273 98.4197 11.0669L104.568 12.7712C104.94 12.9656 104.861 13.2014 104.933 13.5635C104.928 13.5819 105.001 13.7247 104.992 13.7615C105.045 14.3382 104.823 14.9112 104.689 15.4299C104.622 15.6897 104.451 15.7772 104.262 15.9393C103.682 16.5427 103.253 16.9914 102.588 17.5681C101.398 18.3244 100.485 19.5054 99.4192 20.4202C99.4192 20.4202 99.4141 20.4386 99.4099 20.457C99.3862 20.5501 99.4836 20.5998 99.5301 20.6339C99.6157 20.6597 99.9562 20.7647 100.042 20.7905C100.358 20.8873 100.682 20.9471 101.006 21.0015C101.17 21.0291 101.335 21.0549 101.5 21.0835C101.579 21.0973 101.669 21.1019 101.745 21.1295C101.802 21.1498 101.862 21.1885 101.915 21.2198C102.061 21.3073 102.188 21.4326 102.28 21.5837C102.355 21.7053 102.408 21.8435 102.434 21.9872C102.447 22.0581 102.459 22.1374 102.454 22.2101C102.451 22.2645 102.432 22.3198 102.422 22.3732C102.375 22.6155 102.329 22.8578 102.283 23.1001C102.203 23.5146 102.152 23.9513 102.042 24.3575C101.965 24.6477 101.849 24.9352 101.538 24.9904C101.255 25.0411 100.968 24.879 100.709 24.7767C100.401 24.6551 100.093 24.5298 99.7775 24.4331C99.6581 24.3962 99.2828 24.2811 99.2489 24.2709C99.1151 24.2295 98.9736 24.2074 98.8373 24.1751C98.1673 24.0194 97.4981 23.8647 96.8281 23.709C96.5215 23.6381 96.2157 23.5671 95.909 23.4962C95.8125 23.4741 95.7159 23.4501 95.6194 23.4289C95.4127 23.3838 95.228 23.1701 95.1179 22.9812C94.9095 22.621 95.0213 22.2608 95.1188 21.8831C95.1238 21.8647 95.2822 21.253 95.3398 21.0301C95.372 20.9038 95.5253 20.3106 95.5643 20.1622Z" fill="white"/>
<path d="M84.4996 9.74111C84.4944 9.72627 84.504 9.65488 84.4988 9.63912C84.5851 9.06341 84.6785 8.70555 84.7745 8.16043C84.8574 7.72192 84.8731 7.22314 84.9699 6.77907C84.9979 6.66689 85.161 6.02906 85.2169 5.85569C85.4132 5.22249 85.5711 4.56983 85.8015 3.94127C85.8155 3.93571 85.8102 3.86988 85.8059 3.85505C85.8059 3.85505 85.7814 3.83002 85.7675 3.83465C85.7535 3.83929 85.6767 3.85041 85.6575 3.84021C84.8932 4.15264 84.0756 4.39925 83.2815 4.61989C83.1908 4.63565 82.8269 4.75154 82.7632 4.55314L82.0189 2.49223C81.9116 2.20762 82.2886 2.08802 82.4421 2.01478L87.5309 0.010428C87.8799 -0.0489054 87.9297 0.155056 88.1426 0.366431C88.1478 0.381264 88.263 0.44152 88.2726 0.472114C88.5675 0.841094 88.6679 1.34914 88.8049 1.77559C88.8738 1.98882 88.7935 2.13716 88.7324 2.34668C88.5937 3.06054 88.4925 3.59175 88.2831 4.33157C87.784 5.46632 87.6688 6.75033 87.3285 7.92958C87.3285 7.92958 87.3337 7.94442 87.3381 7.96018C87.3625 8.0362 87.4533 8.02044 87.5012 8.01951C87.5728 7.99355 87.8599 7.88879 87.9314 7.86283C88.1976 7.76642 88.4523 7.64033 88.7045 7.50961C88.8328 7.44379 88.9602 7.37611 89.0884 7.31122C89.1504 7.2797 89.2158 7.23613 89.2822 7.21573C89.331 7.19997 89.3903 7.19626 89.4418 7.1907C89.5841 7.17494 89.7298 7.19626 89.8624 7.25188C89.9697 7.29731 90.0675 7.36499 90.1503 7.45028C90.1914 7.492 90.235 7.5402 90.2647 7.59305C90.2865 7.63199 90.2978 7.67927 90.3153 7.72191C90.3912 7.91197 90.4662 8.10295 90.5421 8.293C90.6713 8.61934 90.8301 8.94659 90.9348 9.2822C91.0098 9.52231 91.0569 9.77912 90.8632 9.97751C90.6861 10.1583 90.4121 10.1954 90.1844 10.2584C89.913 10.3335 89.6408 10.4077 89.3746 10.5041C89.2743 10.5403 88.9593 10.6552 88.9305 10.6654C88.8179 10.7062 88.708 10.7637 88.5981 10.8128C88.0571 11.052 87.5161 11.2912 86.976 11.5304C86.7282 11.6398 86.4812 11.7492 86.2334 11.8586C86.1558 11.8929 86.0772 11.9262 85.9996 11.9624C85.8338 12.0384 85.6087 11.9874 85.4464 11.9133C85.1392 11.7733 85.0563 11.4683 84.956 11.1577C84.9507 11.1429 84.7893 10.6395 84.73 10.4568C84.696 10.3502 84.5389 9.86348 84.4996 9.74111Z" fill="white"/>
</svg>
