<svg width="24" height="24" viewBox="0 0 24 24" fill="none" xmlns="http://www.w3.org/2000/svg">
<g opacity="0.5">
<path d="M9 20C8.68333 20 8.38333 19.929 8.1 19.787C7.81667 19.645 7.58333 19.4493 7.4 19.2L2 12L7.4 4.8C7.58333 4.55 7.81667 4.35433 8.1 4.213C8.38333 4.07167 8.68333 4.00067 9 4H20C20.55 4 21.021 4.19567 21.413 4.587C21.805 4.97833 22.0007 5.44933 22 6V18C22 18.55 21.8043 19.021 21.413 19.413C21.0217 19.805 20.5507 20.0007 20 20H9ZM4.5 12L9 18H20V6H9L4.5 12ZM10 13C10.2833 13 10.521 12.904 10.713 12.712C10.905 12.52 11.0007 12.2827 11 12C10.9993 11.7173 10.9033 11.48 10.712 11.288C10.5207 11.096 10.2833 11 10 11C9.71667 11 9.47933 11.096 9.288 11.288C9.09667 11.48 9.00067 11.7173 9 12C8.99933 12.2827 9.09533 12.5203 9.288 12.713C9.48067 12.9057 9.718 13.0013 10 13ZM13.5 13C13.7833 13 14.021 12.904 14.213 12.712C14.405 12.52 14.5007 12.2827 14.5 12C14.4993 11.7173 14.4033 11.48 14.212 11.288C14.0207 11.096 13.7833 11 13.5 11C13.2167 11 12.9793 11.096 12.788 11.288C12.5967 11.48 12.5007 11.7173 12.5 12C12.4993 12.2827 12.5953 12.5203 12.788 12.713C12.9807 12.9057 13.218 13.0013 13.5 13ZM17 13C17.2833 13 17.521 12.904 17.713 12.712C17.905 12.52 18.0007 12.2827 18 12C17.9993 11.7173 17.9033 11.48 17.712 11.288C17.5207 11.096 17.2833 11 17 11C16.7167 11 16.4793 11.096 16.288 11.288C16.0967 11.48 16.0007 11.7173 16 12C15.9993 12.2827 16.0953 12.5203 16.288 12.713C16.4807 12.9057 16.718 13.0013 17 13Z" fill="black"/>
</g>
</svg>
