<svg width="24" height="24" viewBox="0 0 24 24" fill="none" xmlns="http://www.w3.org/2000/svg">
<g clip-path="url(#clip0_1_45990)">
<path d="M12 0C8.81812 0 5.76375 1.26506 3.51562 3.51469C1.2652 5.76522 0.000643966 8.81734 0 12C0 15.1813 1.26562 18.2357 3.51562 20.4853C5.76375 22.7349 8.81812 24 12 24C15.1819 24 18.2362 22.7349 20.4844 20.4853C22.7344 18.2357 24 15.1813 24 12C24 8.81869 22.7344 5.76431 20.4844 3.51469C18.2362 1.26506 15.1819 0 12 0Z" fill="url(#paint0_linear_1_45990)"/>
<path d="M5.43282 11.874C8.93157 10.35 11.2641 9.34527 12.4303 8.85977C15.7641 7.47359 16.4559 7.23284 16.9078 7.22468C17.0072 7.22309 17.2284 7.24765 17.3728 7.36437C17.4928 7.46281 17.5266 7.59593 17.5434 7.6894C17.5584 7.78277 17.5791 7.99559 17.5622 8.16171C17.3822 10.0592 16.6003 14.6638 16.2028 16.7891C16.0359 17.6884 15.7041 17.9899 15.3834 18.0193C14.6859 18.0835 14.1572 17.5588 13.4822 17.1165C12.4266 16.4241 11.8303 15.9932 10.8047 15.3176C9.6197 14.5369 10.3884 14.1077 11.0634 13.4065C11.2397 13.2229 14.3109 10.4301 14.3691 10.1768C14.3766 10.1451 14.3841 10.027 14.3128 9.96471C14.2434 9.90227 14.1403 9.92365 14.0653 9.94052C13.9584 9.96452 12.2728 11.0798 9.00282 13.2861C8.52469 13.615 8.09157 13.7753 7.70157 13.7668C7.27407 13.7576 6.44907 13.5246 5.83595 13.3255C5.08595 13.0811 4.48782 12.952 4.54032 12.537C4.56657 12.321 4.8647 12.1 5.43282 11.874Z" fill="white"/>
</g>
<defs>
<linearGradient id="paint0_linear_1_45990" x1="1200" y1="0" x2="1200" y2="2400" gradientUnits="userSpaceOnUse">
<stop stop-color="#2AABEE"/>
<stop offset="1" stop-color="#229ED9"/>
</linearGradient>
<clipPath id="clip0_1_45990">
<rect width="24" height="24" fill="white"/>
</clipPath>
</defs>
</svg>
