<svg width="64" height="42" viewBox="0 0 64 42" fill="none" xmlns="http://www.w3.org/2000/svg">
<path d="M62 12.7625L61.6766 13.5237L61.2468 14.543L51.8095 36.902L51.3974 37.8819L51.3443 38H13.7147L13.6438 37.8338L13.1918 36.8101L3.40895 14.5605L2.9393 13.5018L2.22595 11.8788L2 11.3626L2.77537 12.08L4.20646 13.4012L4.96411 14.0924L19.3948 27.4045L30.6132 6.86979L31.4683 5.2949L31.969 4.38059L32 4.3281L32.1772 4L32.3899 4.41559L32.9039 5.40865L36.2933 11.9794L39.9043 18.9833L42.093 23.2267L44.2463 27.4045L60.21 14.2367L61.1139 13.4931L62 12.7625Z" fill="#FDBE11"/>
<path opacity="0.67" d="M51 37.1824L50.5946 37.9121L50.5466 38H13.5188L13.4447 37.8762L13 37.114C13.2136 37.0423 13.4447 37 13.6888 37H50.1369C50.4464 37 50.7384 37.0684 51 37.1824Z" fill="#F99B1C"/>
<path opacity="0.53" d="M36 11.9794L31.6275 23.1261L26.3164 36.657L25.8606 37.8163L25.7884 38H18L18.0722 37.8163L18.5234 36.657L30.2151 6.86979L31.086 5.2949L31.5959 4.38059L31.6275 4.3281L31.808 4L32.0246 4.41559L32.548 5.40865L36 11.9794Z" fill="white"/>
<path opacity="0.53" d="M41 23.2397L36.1039 36.6582L35.6847 37.8164L35.6176 38H32L32.0629 37.8164L32.4863 36.6582L38.9292 19L41 23.2397Z" fill="white"/>
<path d="M53 40C53 41.1033 52.1584 42 51.1163 42H13.8837C12.8461 42 12 41.1074 12 40C12 38.9876 12.708 38.1488 13.6298 38.0207C13.7145 38.0083 13.7946 38 13.8792 38H51.1119C51.2722 38 51.428 38.0207 51.575 38.062H51.5794C52.3944 38.2851 53 39.0702 53 40Z" fill="#FFBB33"/>
<path opacity="0.51" d="M35 38L34.9312 38.1737L33.4183 42H26L27.5086 38.1737L27.5774 38H35Z" fill="white"/>
<path opacity="0.51" d="M44 38L43.935 38.1737L42.5053 42H39L40.4297 38.1737L40.4947 38H44Z" fill="white"/>
<path d="M35 3C35 3.07445 34.9956 3.14014 34.9912 3.21022C34.8949 4.6073 33.8394 5.73723 32.4818 5.96059C32.3241 5.98248 32.162 6 32 6C31.8599 6 31.7197 5.99124 31.5839 5.96934C31.4044 5.94744 31.2292 5.90365 31.0628 5.84671C29.9285 5.47445 29.092 4.44963 29.0044 3.21022C29 3.14014 29 3.07007 29 3C29 1.48029 30.1255 0.232117 31.5839 0.0306568C31.7197 0.00875899 31.8599 0 32 0C33.6555 0.00437956 35 1.34453 35 3Z" fill="#FDBE11"/>
<path d="M35 3.47556C34.9034 4.73976 33.8457 5.76222 32.485 5.96433C32.327 5.98415 32.1646 6 32.0022 6C31.8617 6 31.7213 5.99208 31.5852 5.97226C31.4053 5.95245 31.2297 5.91282 31.0629 5.8613C29.9261 5.52444 29.0878 4.59709 29 3.47556C29.0132 3.31308 29.0395 3.15456 29.0834 3C29.3731 4.05813 30.3431 4.87054 31.5545 5.02906C31.5633 5.03303 31.5721 5.03302 31.5852 5.03302C31.7125 5.05284 31.8398 5.06077 31.9759 5.06077H32.0022C33.4111 5.06077 34.5874 4.18098 34.9122 3C34.9561 3.15456 34.9868 3.31308 35 3.47556Z" fill="#F99B1C"/>
<path d="M33 2.50001C33 2.53637 33 2.57274 32.9955 2.60456C32.9411 3.38637 32.2931 4 31.5 4C30.707 4 30.0589 3.38637 30.0045 2.60456C30.0045 2.56819 30 2.53637 30 2.50001C30 1.6682 30.6707 1.00002 31.4955 1.00002C32.3293 0.995477 33 1.6682 33 2.50001Z" fill="white"/>
<path d="M64 12.0022C64 12.0767 63.9956 12.1424 63.9912 12.2125C63.886 13.7728 62.5844 15 60.9978 15C60.8882 15 60.7787 14.9956 60.6691 14.9824C60.3009 14.943 59.9547 14.8378 59.6435 14.6756C58.7232 14.2154 58.0789 13.2907 58.0044 12.2125C58 12.1424 58 12.0723 58 12.0022C58 10.3455 59.3411 9 61.0022 9C62.6545 9 64 10.3411 64 12.0022Z" fill="#FDBE11"/>
<path d="M64 12.4762C63.8946 13.8889 62.59 15 61 15C60.8902 15 60.7804 14.996 60.6706 14.9841C60.3016 14.9484 59.9546 14.8532 59.6428 14.7063C58.7203 14.2897 58.0747 13.4524 58 12.4762C58.0132 12.3135 58.0395 12.1548 58.0834 12C58.3733 13.0516 59.3397 13.8651 60.5432 14.0278C60.6925 14.0516 60.8463 14.0635 61.0044 14.0635C61.0351 14.0635 61.0703 14.0635 61.101 14.0595C62.4671 14.0238 63.6003 13.1548 63.9165 12C63.9605 12.1548 63.9868 12.3135 64 12.4762Z" fill="#F99B1C"/>
<path d="M62 11.5C62 11.5364 62 11.5727 61.9955 11.6045C61.941 12.3864 61.292 13 60.5023 13C59.708 13 59.059 12.3864 59.0045 11.6045C59.0045 11.5682 59 11.5364 59 11.5C59 10.6682 59.6717 10 60.4977 10C61.3283 10 62 10.6727 62 11.5Z" fill="white"/>
<path d="M6 12.0022C6 12.0767 5.99562 12.1424 5.99124 12.2125C5.88605 13.7728 4.58438 15 2.99781 15C1.41125 15 0.113943 13.7728 0.00437367 12.2125C-9.09501e-06 12.1424 1.55358e-10 12.0723 1.55358e-10 12.0022C1.55358e-10 10.3455 1.34112 9 3.00219 9C4.65449 9 6 10.3411 6 12.0022Z" fill="#FDBE11"/>
<path d="M6 12.4762C5.89458 13.8889 4.59005 15 3.00001 15C1.40996 15 0.10981 13.8889 0 12.4762C0.0131772 12.3135 0.0395325 12.1548 0.0834564 12C0.408493 13.1825 1.59005 14.0635 3.00001 14.0635C4.40996 14.0635 5.58712 13.1825 5.91216 12C5.96048 12.1548 5.98682 12.3135 6 12.4762Z" fill="#F99B1C"/>
<path d="M4 11.5C4 11.5364 4.00001 11.5727 3.99548 11.6045C3.9411 12.3864 3.29305 13 2.5 13C1.70695 13 1.05892 12.3864 1.00454 11.6045C1.00454 11.5682 1 11.5364 1 11.5C1 10.6682 1.6707 10 2.49548 10C3.32932 10 4 10.6727 4 11.5Z" fill="white"/>
<path opacity="0.55" d="M64 11.9421C64 12.0154 63.9956 12.0801 63.9913 12.1492C63.8869 13.6851 62.5956 14.8931 61.0217 14.8931C60.913 14.8931 60.8043 14.8887 60.6957 14.8758L51.4348 36.9263H51.4391L51.0348 37.8928C51.8304 38.1214 52.4217 38.9411 52.4217 39.9119C52.4217 41.0638 51.6 42 50.5826 42H32V0.0302002C32.1348 0.00862853 32.2739 0 32.413 0C34.0565 0 35.3913 1.32018 35.3913 2.95531C35.3913 3.02866 35.387 3.09337 35.3826 3.1624C35.287 4.53868 34.2391 5.65177 32.8913 5.8718L36.2174 12.3476L39.7652 19.2549L41.9087 23.4398L44.0261 27.5599L59.687 14.5738C58.7739 14.1208 58.1348 13.2105 58.0609 12.1492C58.0565 12.0801 58.0565 12.0111 58.0565 11.9421C58.0565 10.3113 59.387 8.98675 61.0348 8.98675C62.6652 8.98675 64 10.3069 64 11.9421Z" fill="#F99B1C"/>
</svg>
