<svg width="24" height="24" viewBox="0 0 24 24" fill="none" xmlns="http://www.w3.org/2000/svg">
<path d="M6.99932 7.5V7C6.99932 5.67392 7.52611 4.40215 8.46379 3.46447C9.40147 2.52678 10.6732 2 11.9993 2C13.3254 2 14.5972 2.52678 15.5349 3.46447C16.4725 4.40215 16.9993 5.67392 16.9993 7V7.5M4.49932 17.5H19.4993M4.33932 16.878L3.17832 9.936C2.98832 8.806 2.89432 8.242 3.18532 7.871C3.47732 7.5 4.01532 7.5 5.09132 7.5H18.9093C19.9853 7.5 20.5233 7.5 20.8153 7.87C21.1053 8.242 21.0113 8.806 20.8223 9.936L19.6593 16.878C19.2493 19.326 19.0443 20.55 18.2323 21.275C17.4203 22 16.2523 22 13.9193 22H10.0793C7.74632 22 6.57932 22 5.76732 21.275C4.95532 20.551 4.74932 19.326 4.33932 16.878Z" stroke="#0C46BE" stroke-width="1.5" stroke-linecap="round" stroke-linejoin="round"/>
</svg>
