<svg width="120" height="170" viewBox="0 0 120 170" fill="none" xmlns="http://www.w3.org/2000/svg">
<g opacity="0.2">
<path d="M59.5 170C91.2564 170 117 164.72 117 158.208C117 151.695 91.2564 146.416 59.5 146.416C27.7436 146.416 2 151.695 2 158.208C2 164.72 27.7436 170 59.5 170Z" fill="#000072"/>
</g>
<path d="M100 133.827L93.2142 151.268L91.862 154.742L90.5168 158.209L83.9626 154.44C76.5992 150.203 68.2183 147.971 59.6824 147.971C55.248 147.971 50.852 148.578 46.6254 149.748C42.3989 150.922 38.3312 152.662 34.5509 154.942L29.3834 158.06L25.7344 150.173L25.4613 149.583L20 137.78V124.424L34.0425 111.041L94.4452 113.517L100 133.827Z" fill="white"/>
<g opacity="0.3">
<path d="M93 151.352L91.6575 154.783L90.3218 158.208L83.8142 154.485C76.5032 150.299 68.1819 148.095 59.7066 148.095C55.3038 148.095 50.939 148.694 46.7425 149.851C42.546 151.01 38.5072 152.729 34.7539 154.981L29.6231 158.062L26 150.27C29.3794 146.691 32.439 143.594 32.439 143.594C50.5919 135.548 68.779 135.582 87.0035 143.594C87.0041 143.594 89.7752 147.109 93 151.352Z" fill="#000072"/>
</g>
<path d="M89.8182 160.173C89.6152 160.173 89.4097 160.12 89.2223 160.01L82.7203 156.179C75.6056 151.986 67.4846 149.77 59.2354 149.77C50.6474 149.77 42.2412 152.158 34.9254 156.677L29.7989 159.843C29.2435 160.186 28.5162 160.012 28.1749 159.454C27.8337 158.896 28.0068 158.165 28.5622 157.822L33.6888 154.656C41.3763 149.908 50.2103 147.398 59.2354 147.398C67.9037 147.398 76.4381 149.727 83.9146 154.133L90.4166 157.964C90.9788 158.295 91.1675 159.022 90.8375 159.586C90.6177 159.963 90.2235 160.173 89.8182 160.173Z" fill="#000072"/>
<path d="M98 89.3869L97.7774 95.4614L97.2566 109.691L88.5712 114.972L80.2262 114.804L38.2038 113.96L21 113.615L21.6602 93.9399L21.7888 90.1604L23.7415 88.4048L25.8853 86.4746L90.6557 88.181L96.4401 89.1291L97.9962 89.3839C98 89.3839 98 89.3869 98 89.3869Z" fill="#60547B"/>
<path d="M26 112.024C26 98.9217 94 98.9217 94 112.024H26Z" fill="white"/>
<g opacity="0.3">
<path d="M96 89.1148L94.9646 97.0528C85.9017 102.822 73.6016 105.261 60.0724 105.141C46.2305 105.021 33.7267 102.245 24.7225 96.0228L24 88.3944L26.1232 86.4746L90.2711 88.1718L96 89.1148Z" fill="#000072"/>
</g>
<path d="M59.9999 143.469C8.1222 125.181 37.1881 81.8436 59.9999 111.066C82.8116 81.8436 111.878 125.181 59.9999 143.469Z" fill="#FF2C4B"/>
<g opacity="0.3">
<path d="M60.0001 143.468C38.6233 135.99 30.9887 124.295 31 115.153C34.249 121.398 41.1586 127.832 53.1826 132.831C56.0599 134.029 59.312 134.029 62.1857 132.831C79.5333 125.619 86.2336 115.43 86.6641 107.109C92.573 116.018 88.5107 133.494 60.0001 143.468Z" fill="#000072"/>
</g>
<g opacity="0.55">
<path d="M58 108.089C40.583 94.0355 23.1544 114.986 40.9693 132.66C18.1523 113.757 39.0906 88.9999 58 108.089Z" fill="white"/>
</g>
<g opacity="0.55">
<path d="M86 105.642C80.52 101.9 71.8855 102.476 63.781 111.356C62.97 112.245 61.5292 112.248 60.7175 111.359C60.479 111.098 60.2398 110.844 60 110.597C69.8239 98.6483 80.7299 99.4226 86 105.642Z" fill="white"/>
</g>
<path d="M59 144.45C58.8649 144.45 58.7304 144.428 58.6015 144.382C48.5265 140.838 40.8042 136.147 35.6487 130.437C30.0748 124.265 28.957 118.528 29.0012 114.803C29.0791 108.225 32.8285 102.767 38.5543 100.898C45.1583 98.7421 52.7218 101.878 59 109.303C65.2789 101.878 72.8418 98.7421 79.4457 100.898C85.1715 102.767 88.9209 108.225 88.9988 114.803C89.043 118.528 87.9252 124.264 82.3513 130.437C77.1958 136.147 69.4729 140.838 59.3985 144.382C59.2703 144.428 59.1351 144.45 59 144.45ZM42.7739 102.548C41.587 102.548 40.425 102.728 39.2997 103.095C34.5434 104.647 31.428 109.254 31.362 114.83C31.314 118.901 33.1716 132.842 59 142.062C84.8284 132.842 86.686 118.9 86.638 114.83C86.572 109.254 83.4566 104.648 78.7003 103.095C72.7633 101.158 65.7484 104.436 59.9372 111.865C59.7136 112.151 59.3674 112.318 59.0006 112.318C58.6338 112.318 58.287 112.151 58.0641 111.865C53.3526 105.843 47.8509 102.548 42.7739 102.548Z" fill="#000072"/>
<path d="M83 14.3223C103.301 -4.73005 136.104 22.2107 108.278 45.2024L83 14.3223Z" fill="#60547B"/>
<g opacity="0.55">
<path d="M118.667 29.4798C118.791 14.6921 99.0597 4.57101 84.4196 15.957L83 14.2434C98.7647 -0.368129 122.061 12.4057 118.667 29.4798Z" fill="white"/>
</g>
<path d="M107.896 46.1855C107.553 46.1855 107.212 46.043 106.974 45.766C106.545 45.2675 106.61 44.5232 107.119 44.1031C115.13 37.4906 118.735 29.8992 117.268 22.7266C115.99 16.4726 110.987 11.2909 104.212 9.20227C96.7919 6.91513 89.0743 8.84939 83.0376 14.5084C82.5573 14.959 81.7943 14.9428 81.3344 14.4717C80.8744 14.0012 80.8909 13.2538 81.3719 12.8038C88.0629 6.53113 96.6509 4.39771 104.935 6.95122C112.548 9.29811 118.179 15.165 119.63 22.2636C121.277 30.318 117.385 38.7154 108.671 45.9079C108.445 46.0946 108.17 46.1855 107.896 46.1855Z" fill="#000072"/>
<path d="M36 13.3814C13.7852 -9.15906 -15.2393 24.5433 12.1149 44.2202L36 13.3814Z" fill="#60547B"/>
<g opacity="0.55">
<path d="M36 13.3663L34.7099 15.0285C19.7392 1.42172 2.27089 12.1884 1.04261 26.5323C-0.0419056 10.422 19.7903 -3.04713 36 13.3663Z" fill="white"/>
</g>
<path d="M110.998 58.5662C110.736 86.8638 88.0273 97.5265 60.1384 97.2794C32.2494 97.0322 9.7408 85.9673 10.0023 57.6697C10.2637 29.3721 33.0842 6.63316 60.9731 6.88091C88.8621 7.12867 111.259 30.2686 110.998 58.5662Z" fill="white"/>
<g opacity="0.3">
<path d="M110.998 58.6928C110.739 86.8986 88.0281 97.525 60.1395 97.2787C32.2509 97.0323 9.74328 86.0062 10.0022 57.7967C10.0268 55.1874 10.2435 52.6291 10.6392 50.1288C14.4809 72.2673 35.1515 81.1423 60.1395 81.3646C85.4633 81.5869 106.519 72.8449 110.371 50.1152C110.809 52.9056 111.026 55.7718 110.998 58.6928Z" fill="#000072"/>
</g>
<path d="M61.0649 98.2664C60.7536 98.2664 60.4423 98.2652 60.1291 98.2621C45.1547 98.1292 32.6476 94.8569 23.9597 88.7978C13.9086 81.7887 8.87616 71.3048 9.00231 57.6367C9.13098 43.7021 14.6034 30.6474 24.4123 20.8767C34.2318 11.0955 47.2146 5.77848 60.982 5.89847C74.745 6.02031 87.6325 11.5699 97.2694 21.5234C106.896 31.4664 112.126 44.6164 111.998 58.5504C111.872 72.2186 106.646 82.6114 96.4672 89.4409C87.8528 95.2212 75.6263 98.2664 61.0649 98.2664ZM60.5188 8.22993C47.5699 8.22993 35.3659 13.2916 26.1082 22.514C16.7349 31.8509 11.5047 44.3321 11.3817 57.6582C11.2631 70.5184 15.9585 80.3562 25.3387 86.8971C33.628 92.6775 45.6656 95.8008 60.1504 95.9294C74.6358 96.0556 86.7287 93.1488 95.1228 87.5167C104.622 81.1432 109.498 71.391 109.618 58.5307C109.741 45.2047 104.742 32.6324 95.5427 23.1306C86.354 13.6398 74.0722 8.34869 60.9601 8.23239C60.8138 8.23054 60.6651 8.22993 60.5188 8.22993Z" fill="#000072"/>
<path d="M12.1812 45.2031C11.9391 45.2031 11.6952 45.1299 11.4849 44.9785C2.94652 38.8305 -1.13894 30.4582 0.274873 22.0083C1.54955 14.3928 7.0875 8.01591 14.3843 5.76209C21.925 3.4332 30.046 5.95345 36.6658 12.6774C37.1207 13.1395 37.1101 13.8778 36.6409 14.327C36.1723 14.7762 35.4236 14.7651 34.9681 14.3024C28.9055 8.14451 21.8458 5.90238 15.0912 7.98884C8.63919 9.98178 3.73952 15.6339 2.60897 22.3886C1.8665 26.8249 2.2134 35.4144 12.88 43.0945C13.4078 43.4747 13.5233 44.2045 13.1377 44.7244C12.9056 45.0369 12.5462 45.2031 12.1812 45.2031Z" fill="#000072"/>
<path d="M55 10.809C57.4264 -4.84798 71.9183 0.703014 65.2708 10.1971L55 10.809Z" fill="white"/>
<path d="M67 8.22426C73.8595 1.37738 79.6245 11.6039 69.6181 13.7578L67 8.22426Z" fill="white"/>
<path d="M74.0439 19.6525C72.4343 19.6525 70.735 18.79 69.2755 17.1812C68.8692 16.7328 68.918 16.0539 69.3841 15.6636C69.8502 15.2733 70.5581 15.3201 70.9638 15.7679C72.2444 17.18 73.6571 17.7814 74.7427 17.3767C75.3759 17.1406 75.7757 16.5723 75.7601 15.9278C75.7315 14.7299 74.4287 13.5995 72.2744 12.9044C71.688 12.7151 71.3727 12.105 71.569 11.5423C71.766 10.9789 72.4011 10.676 72.9868 10.8646C76.0741 11.8608 77.9476 13.735 77.999 15.8784C78.036 17.4398 77.0759 18.815 75.5521 19.3827C75.0665 19.5645 74.56 19.6525 74.0439 19.6525Z" fill="#000072"/>
<path d="M55.2149 11.7919C55.1503 11.7919 55.085 11.787 55.0197 11.7765C54.3581 11.6739 53.9089 11.0755 54.0157 10.4409C54.9698 4.78069 57.8929 0.929188 61.8347 0.137262C64.3495 -0.367752 66.8074 0.545817 68.0975 2.46512C68.8218 3.54334 70.1605 6.50769 66.9488 10.7254C66.5534 11.2445 65.7944 11.3575 65.2537 10.9785C64.713 10.5988 64.5946 9.87015 64.9901 9.35101C66.6263 7.20255 67.0154 5.153 66.0581 3.72827C65.3177 2.62608 63.8549 2.11247 62.3313 2.41781C59.4114 3.00454 57.198 6.14275 56.4109 10.8132C56.3149 11.3846 55.7998 11.7919 55.2149 11.7919Z" fill="#000072"/>
<path d="M70.0174 13.7563C69.4505 13.7563 68.9443 13.3698 68.8299 12.8122C68.7002 12.1781 69.1271 11.5625 69.7841 11.4372C73.057 10.8123 74.3966 9.45331 74.5589 8.38946C74.6701 7.66211 74.2732 6.97119 73.5229 6.58714C72.3949 6.00921 70.3606 6.12653 68.0304 8.18879C67.537 8.62532 66.7707 8.59322 66.3182 8.11655C65.8664 7.63988 65.8996 6.89957 66.393 6.46303C69.1616 4.0124 72.2517 3.28567 74.658 4.51994C76.3145 5.36893 77.2163 7.02244 76.9555 8.73214C76.7798 9.88552 75.7745 12.6813 70.2532 13.7353C70.174 13.7495 70.0954 13.7563 70.0174 13.7563Z" fill="#000072"/>
<path d="M74.0298 19.6525C72.4285 19.6525 70.741 18.7979 69.2958 17.2039C68.8595 16.7223 68.9121 15.9927 69.4125 15.5733C69.9128 15.1539 70.6725 15.2045 71.1088 15.6854C72.3258 17.0283 73.6581 17.605 74.6728 17.2264C75.2467 17.0125 75.6088 16.4968 75.5949 15.9134C75.5739 15.0466 74.6899 13.8415 72.2693 13.0606C71.6396 12.8576 71.301 12.2023 71.5122 11.597C71.7233 10.9917 72.4044 10.6656 73.0348 10.8692C76.092 11.8561 77.9476 13.722 77.9989 15.8604C78.0364 17.4294 77.0718 18.8113 75.5416 19.3819C75.0546 19.5635 74.5466 19.6525 74.0298 19.6525Z" fill="#000072"/>
<path d="M51.0567 42.6272C46.0212 46.6282 43.0865 52.718 41.735 60.3822C41.3561 62.5297 39.6485 64.2036 37.4797 64.616C26.5637 66.692 18.2598 54.9871 23.7286 42.0138C30.9261 25.2253 48.9046 27.25 52.6423 36.7134C53.4695 38.8064 52.8299 41.2178 51.0567 42.6272Z" fill="#60547B"/>
<path d="M68.9437 42.6272C73.9791 46.6282 76.9137 52.718 78.2653 60.3822C78.6442 62.5297 80.3517 64.2036 82.5205 64.616C93.4364 66.692 101.74 54.9871 96.2714 42.0138C89.074 25.2253 71.0958 27.25 67.3581 36.7134C66.5303 38.8064 67.1699 41.2178 68.9437 42.6272Z" fill="#60547B"/>
<path d="M65.9998 52.9752C65.9732 55.9581 63.027 59.9752 59.4375 59.9419C55.8474 59.9085 52.9736 55.8384 53.0002 52.8555C53.0268 49.8726 55.9439 49.101 59.534 49.1338C63.1229 49.1672 66.0264 49.9923 65.9998 52.9752Z" fill="#000072"/>
<path d="M87.8068 54.0453C87.1472 54.0453 86.6123 53.5328 86.6123 52.9007C86.6123 48.5087 83.9626 46.508 81.5006 46.508C79.0386 46.508 76.3889 48.5081 76.3889 52.9007C76.3889 53.5328 75.854 54.0453 75.1945 54.0453C74.5349 54.0453 74 53.5328 74 52.9007C74 47.2011 77.773 44.2188 81.5 44.2188C85.227 44.2188 89 47.2011 89 52.9007C89.0013 53.5334 88.4664 54.0453 87.8068 54.0453Z" fill="#000072"/>
<path d="M44.8068 54.0453C44.1472 54.0453 43.6123 53.5328 43.6123 52.9007C43.6123 48.5087 40.9626 46.508 38.5006 46.508C36.0386 46.508 33.3889 48.5081 33.3889 52.9007C33.3889 53.5328 32.8541 54.0453 32.1945 54.0453C31.5349 54.0453 31 53.5328 31 52.9007C31 47.2011 34.773 44.2188 38.5 44.2188C42.227 44.2188 46 47.2011 46 52.9007C46.0013 53.5334 45.4664 54.0453 44.8068 54.0453Z" fill="#000072"/>
<path d="M53.5104 66.8207C52.4689 66.8207 51.4166 66.6164 50.4246 66.1862C48.0601 65.1617 46.4937 63.0543 46.0157 60.2526C45.9092 59.6301 46.3542 59.0431 47.0097 58.9419C47.6645 58.8394 48.282 59.2637 48.3884 59.8868C48.7339 61.9105 49.8116 63.4092 51.4223 64.1071C53.764 65.1231 56.5982 64.2951 57.8748 62.2226C58.3547 61.45 58.5969 60.5437 58.5969 59.5246C58.5969 59.145 58.5607 58.7388 58.4897 58.3175C58.3845 57.6944 58.8308 57.1086 59.4862 57.0086C60.1417 56.9092 60.7578 57.3328 60.8631 57.956C60.9544 58.4965 61 59.0238 61 59.5246C61 60.9577 60.6456 62.2552 59.9465 63.3809C58.6007 65.566 56.0898 66.8207 53.5104 66.8207Z" fill="#000072"/>
<path d="M70 65.2771C70 65.2771 69.8317 70.8583 67.5903 72.7175C63.8503 67.5216 56.6941 67.5216 52.9541 72.7175L51 68.1743V65.2771L51.3161 64.6602C54.1404 66.0836 57.7371 65.0048 59.3796 61.9082C59.983 61.9125 60.5864 61.9125 61.1738 61.9125C62.8444 65.0589 66.5358 66.1201 69.3768 64.583C69.7453 64.9914 70 65.2771 70 65.2771Z" fill="#000072"/>
<path d="M67 72.8641C63.2775 76.597 56.7225 76.597 53 72.8641C54.1926 70.4621 56.88 68.7852 59.9984 68.7852C63.12 68.7852 65.8074 70.4621 67 72.8641Z" fill="#FF2C4B"/>
<path d="M66.4621 66.8207C63.8987 66.8207 61.4138 65.574 60.0561 63.3749C59.3569 62.2582 59 60.9603 59 59.5221C59 59.0224 59.0463 58.4951 59.1369 57.9551C59.2415 57.3326 59.8589 56.9106 60.5137 57.0081C61.1692 57.1075 61.6154 57.6932 61.5108 58.3157C61.4398 58.7371 61.4037 59.1428 61.4037 59.5221C61.4037 60.5437 61.6465 61.4497 62.1257 62.2142C63.4201 64.311 66.3638 65.1303 68.6902 64.0479C69.7856 63.5392 71.1807 62.4039 71.6118 59.8839C71.7183 59.262 72.3363 58.8388 72.9905 58.9406C73.6459 59.0417 74.0903 59.628 73.9844 60.2499C73.5198 62.9673 72.0149 65.0442 69.7475 66.0977C68.694 66.5878 67.5701 66.8207 66.4621 66.8207Z" fill="#000072"/>
<path d="M59.5 76.6476C56.6249 76.6476 53.8806 75.4579 51.9721 73.3833C50.0286 71.2854 49 68.3874 49 65.006C49 64.3804 49.5213 63.873 50.1643 63.873C50.8072 63.873 51.3286 64.3804 51.3286 65.006C51.3286 67.8179 52.1502 70.1913 53.7044 71.8692C55.1745 73.467 57.2863 74.3818 59.5 74.3818C61.7137 74.3818 63.8255 73.467 65.2931 71.8722C66.8498 70.1913 67.6714 67.8179 67.6714 65.006C67.6714 64.3804 68.1928 63.873 68.8357 63.873C69.4787 63.873 70 64.3804 70 65.006C70 68.3874 68.9714 71.2854 67.0254 73.3863C65.1194 75.4579 62.3757 76.6476 59.5 76.6476Z" fill="#000072"/>
<path d="M93.5212 130.616C79.6399 131.573 74.4828 123.49 78.1377 117.408C78.6137 116.609 79.2478 115.842 80.0319 115.137C82.728 112.714 87.2197 110.994 93.5212 110.994L93.5771 110.581L95.3168 97.3931L96.3704 89.3901L96.4962 88.4395C96.9931 88.8395 97.4728 89.2426 97.9386 89.6456C97.9424 89.6456 97.9424 89.6493 97.9424 89.6493C99.1293 90.6738 100.218 91.7092 101.216 92.7538C117.482 109.792 108.954 128.499 93.5212 130.616Z" fill="#60547B"/>
<path d="M26.4754 130.616C16.6309 129.253 9.59787 121.081 10.0179 110.879C10.2593 104.883 13.081 98.1851 19.4208 91.7583L19.424 91.7546C19.5079 91.6667 19.5955 91.575 19.6864 91.4871C21.048 90.1281 22.571 88.7821 24.2586 87.457L24.3393 88.2943L25.0744 96.0529L26.4748 110.821C32.0165 110.821 36.1617 112.163 38.9129 114.146C47.1335 120.082 42.9361 131.758 26.4754 130.616Z" fill="#60547B"/>
<g opacity="0.3">
<path d="M93.5216 130.616C79.7482 131.563 74.5632 123.619 78.0542 117.557C80.1371 121.036 85.3012 123.643 93.5216 123.075C101.826 121.937 108.131 115.995 109.651 108.092C111.727 119.549 104.312 129.138 93.5216 130.616Z" fill="#000072"/>
<path d="M26.4767 130.616C15.6878 129.138 8.27326 119.55 10.3489 108.092C11.8649 115.997 18.1727 121.938 26.4767 123.077C34.7032 123.641 39.8635 121.035 41.9462 117.552C45.4362 123.617 40.2517 131.563 26.4767 130.616Z" fill="#000072"/>
</g>
<g opacity="0.55">
<path d="M19.2981 95.1815C16.262 99.3516 14.153 103.852 13.1174 108.734C12.8178 110.146 11.4794 111.119 10 111.035C10.2469 104.874 13.1323 97.9934 19.6152 91.3905L19.6185 91.3867C20.2207 92.6154 20.107 94.0703 19.2981 95.1815Z" fill="white"/>
</g>
<g opacity="0.55">
<path d="M95 110.602C94.475 111.87 93.2262 112.764 91.7749 112.871C86.7572 113.241 82.1821 115.197 78.0899 118.903L78 116.632C78.471 115.862 79.0985 115.124 79.8744 114.445C82.5424 112.113 86.9873 110.457 93.223 110.457L93.2784 110.059L95 110.602Z" fill="white"/>
</g>
<path d="M91.2905 131.677C84.8383 131.677 79.8419 129.59 77.3961 125.809C75.6021 123.036 75.5339 119.769 77.2099 116.848C80.0028 111.98 87.0071 109.17 95.9506 109.335C96.6113 109.348 97.1369 109.882 97.1243 110.53C97.1117 111.177 96.5684 111.696 95.9058 111.68C87.8597 111.532 81.6491 113.894 79.2954 117.997C78.065 120.142 78.1091 122.532 79.4166 124.553C81.6144 127.95 86.8071 129.708 93.3136 129.26C100.334 128.261 105.906 123.476 107.862 116.763C110.533 107.597 105.959 97.0487 95.6269 88.5453C95.1208 88.129 95.0552 87.3893 95.4799 86.8932C95.9045 86.3972 96.6592 86.3329 97.1653 86.7491C103.025 91.5717 107.099 96.8779 109.273 102.521C111.219 107.575 111.527 112.722 110.162 117.406C107.939 125.034 101.597 130.468 93.6095 131.587C93.5817 131.59 93.554 131.593 93.5256 131.595C92.7639 131.651 92.0181 131.677 91.2905 131.677Z" fill="#000072"/>
<path d="M28.3854 131.677C27.6824 131.677 26.9651 131.651 26.2341 131.6C26.2067 131.598 26.1787 131.595 26.1513 131.591C18.2016 130.477 11.9291 125.05 9.78206 117.427C6.92019 107.264 12.0137 95.7896 23.407 86.7327C23.9135 86.3305 24.6557 86.4068 25.0663 86.903C25.4763 87.3991 25.3985 88.1279 24.8927 88.5307C14.2503 96.9907 9.4517 107.562 12.056 116.811C13.9455 123.52 19.4564 128.3 26.4437 129.296C33.0528 129.751 38.3491 127.931 40.6181 124.424C41.9009 122.44 41.9669 120.132 40.7985 118.09C38.5146 114.1 32.234 111.8 24.0018 111.948C23.3442 111.962 22.8129 111.451 22.8017 110.812C22.7899 110.173 23.3088 109.645 23.9601 109.634C33.2096 109.473 40.0992 112.142 42.8559 116.958C44.4629 119.765 44.3733 122.938 42.6102 125.664C40.1322 129.495 34.9018 131.676 28.3854 131.677Z" fill="#000072"/>
<g opacity="0.3">
<path d="M24 96.301C23.0836 95.6003 22.2067 94.8604 21.3717 94.0794C20.5397 93.2945 19.7471 92.4717 19 91.6034C20.2637 90.2052 21.6772 88.8204 23.2434 87.457L23.3183 88.3184L24 96.301Z" fill="#000072"/>
</g>
<g opacity="0.3">
<path d="M101 92.7003C99.8923 93.7556 98.7031 94.7416 97.4429 95.6505C96.6558 96.2245 95.8408 96.7654 95 97.2834L96.0715 89.3785L96.1995 88.4395C96.7049 88.8346 97.1928 89.2327 97.6665 89.6309C97.6704 89.6309 97.6704 89.6345 97.6704 89.6345C98.8776 90.6464 99.9847 91.6685 101 92.7003Z" fill="#000072"/>
</g>
<g opacity="0.25">
<path d="M52.1713 118.813C50.9931 117.805 49.9112 116.692 48.9422 115.493C48.578 115.042 48.2225 114.564 48.0697 114.011C47.9168 113.457 48.0059 112.807 48.4332 112.411C48.9794 111.906 49.854 111.972 50.579 112.175C53.2499 112.926 55.3971 115.206 55.9241 117.852C56.5063 120.772 53.5928 120.029 52.1713 118.813Z" fill="white"/>
</g>
<g opacity="0.25">
<path d="M44.6954 108.242C45.466 108.542 46.0939 109.436 45.9884 110.364C45.869 111.417 44.8533 112.107 43.9347 112.014C43.2723 111.947 42.6255 111.535 42.2895 110.874C41.2633 108.855 43.1791 107.652 44.6954 108.242Z" fill="white"/>
</g>
<path d="M29.4132 135.768C34.5724 146.068 34.1111 156.689 28.3834 159.49C22.6557 162.292 13.8305 156.212 8.67201 145.912C3.5129 135.612 6.44865 128.684 12.1763 125.883C17.904 123.082 24.2548 125.467 29.4132 135.768Z" fill="#60547B"/>
<g opacity="0.3">
<path d="M6 138.424C6.38188 140.451 7.15757 142.676 8.39478 145.088C13.612 155.273 22.5364 161.288 28.3324 158.516C34.0193 155.796 34.573 145.619 29.6449 135.607C31.4527 142.996 30.102 149.433 25.757 151.512C20.0325 154.248 11.2423 148.403 6 138.424Z" fill="#000072"/>
</g>
<g opacity="0.55">
<path d="M6.11987 137.997C6.6587 134.012 8.98145 131.172 12.1748 129.613C17.9016 126.814 24.2548 129.2 29.4136 139.483C31.4543 143.55 32.615 147.666 32.9176 151.329C33.3324 146.881 32.1835 141.271 29.4136 135.751C24.2548 125.465 17.9016 123.083 12.1748 125.882C8.065 127.887 5.39006 132.019 6.11987 137.997Z" fill="white"/>
</g>
<path d="M24.9185 161.156C18.8346 161.156 11.5318 155.251 6.87873 145.995C0.944131 134.19 5.11519 126.921 10.9967 124.055C14.3745 122.409 17.8674 122.425 21.0979 124.099C24.5023 125.863 27.5607 129.409 30.1895 134.638C35.8319 145.861 35.1317 157.147 28.5961 160.331C27.45 160.889 26.2121 161.156 24.9185 161.156ZM16.0571 125.189C14.7395 125.189 13.4041 125.517 12.0612 126.171C7.21842 128.531 3.87855 134.703 9.02879 144.947C13.9064 154.649 22.3801 160.725 27.5322 158.214C32.685 155.704 32.9171 145.386 28.0395 135.684C25.6396 130.91 22.9285 127.715 19.9808 126.187C18.6967 125.522 17.3854 125.189 16.0571 125.189Z" fill="#000072"/>
<path d="M90.5868 135.768C85.4276 146.068 85.8889 156.689 91.6166 159.49C97.3442 162.292 106.169 156.212 111.328 145.912C116.487 135.612 113.551 128.684 107.824 125.883C102.096 123.082 95.7452 125.467 90.5868 135.768Z" fill="#60547B"/>
<g opacity="0.3">
<path d="M114 138.424C113.618 140.451 112.842 142.676 111.605 145.088C106.388 155.273 97.4636 161.288 91.6676 158.516C85.9807 155.796 85.427 145.619 90.3551 135.607C88.5473 142.996 89.898 149.433 94.243 151.512C99.9675 154.248 108.758 148.403 114 138.424Z" fill="#000072"/>
</g>
<g opacity="0.55">
<path d="M113.88 137.997C113.341 134.012 111.019 131.172 107.825 129.613C102.098 126.814 95.7452 129.2 90.5864 139.483C88.5457 143.55 87.385 147.666 87.0824 151.329C86.6676 146.881 87.8165 141.271 90.5864 135.751C95.7452 125.465 102.098 123.083 107.825 125.882C111.936 127.887 114.61 132.019 113.88 137.997Z" fill="white"/>
</g>
<path d="M95.0501 161.156C93.7474 161.156 92.5158 160.884 91.3861 160.334C88.1447 158.757 86.2395 155.133 86.0209 150.129C85.8137 145.379 87.1525 139.878 89.7901 134.638C92.4226 129.41 95.4866 125.864 98.8959 124.099C102.131 122.425 105.63 122.409 109.014 124.055C112.41 125.708 114.753 128.587 115.612 132.164C116.575 136.171 115.743 140.825 113.139 145.997C110.501 151.236 106.863 155.618 102.896 158.337C100.171 160.205 97.4869 161.156 95.0501 161.156ZM103.946 125.191C102.614 125.191 101.302 125.523 100.015 126.189C97.063 127.717 94.3468 130.912 91.9436 135.687C89.4822 140.576 88.2315 145.669 88.4215 150.028C88.6008 154.133 90.0321 157.041 92.4524 158.219C94.8727 159.396 98.0938 158.751 101.522 156.401C105.163 153.906 108.525 149.84 110.986 144.951C113.302 140.351 114.094 136.117 113.274 132.708C112.573 129.787 110.731 127.527 107.949 126.173C106.603 125.518 105.265 125.191 103.946 125.191Z" fill="#000072"/>
</svg>
