<svg width="24" height="24" viewBox="0 0 24 24" fill="none" xmlns="http://www.w3.org/2000/svg">
<g clip-path="url(#clip0_1_45629)">
<path d="M17.6938 11.9991C17.6909 11.1027 17.5949 10.209 17.4072 9.33242H19.8072C19.6842 8.96656 19.5349 8.61007 19.3605 8.26576H17.1272C16.7076 6.86304 16.0564 5.54035 15.2005 4.35242C14.6538 4.12256 14.0838 3.95267 13.5005 3.84576C14.6732 5.10486 15.5581 6.60395 16.0938 8.23909H12.5005V3.73242H11.5005V8.24576H7.90716C8.44396 6.60765 9.3312 5.10617 10.5072 3.84576C9.92637 3.95099 9.35863 4.11863 8.81383 4.34576C7.95458 5.52871 7.2989 6.84683 6.87383 8.24576H4.62716C4.44956 8.59635 4.29804 8.95956 4.17383 9.33242H6.59383C6.40612 10.209 6.31004 11.1027 6.30716 11.9991C6.30917 12.9796 6.42098 13.9568 6.64049 14.9124H4.28049C4.41765 15.2864 4.58256 15.6497 4.77383 15.9991H6.92716C7.3351 17.2764 7.94018 18.482 8.72049 19.5724C9.27918 19.8119 9.86277 19.9886 10.4605 20.0991C9.37229 18.9124 8.5355 17.5177 8.00049 15.9991H11.5072V20.2258H12.5072V15.9991H16.0005C15.4635 17.5183 14.6244 18.913 13.5338 20.0991C14.1344 19.9848 14.7202 19.8036 15.2805 19.5591C16.0596 18.4728 16.6646 17.2717 17.0738 15.9991H19.2072C19.3975 15.6561 19.5624 15.2996 19.7005 14.9324H17.3338C17.5638 13.9713 17.6846 12.9873 17.6938 11.9991ZM11.5005 14.9124H7.67383C7.20474 13.0776 7.18416 11.1569 7.61383 9.31242H11.5005V14.9124ZM16.3272 14.9124H12.5005V9.33242H16.3872C16.5787 10.2082 16.6726 11.1026 16.6672 11.9991C16.6734 12.9804 16.5592 13.9589 16.3272 14.9124Z" fill="#0C46BE"/>
<path d="M12.0007 1.33398C9.89099 1.33398 7.8287 1.95957 6.07457 3.13164C4.32045 4.30371 2.95328 5.96962 2.14594 7.91869C1.33861 9.86777 1.12737 12.0125 1.53895 14.0816C1.95052 16.1507 2.96642 18.0514 4.45818 19.5431C5.94994 21.0349 7.85056 22.0508 9.91969 22.4624C11.9888 22.8739 14.1335 22.6627 16.0826 21.8554C18.0317 21.048 19.6976 19.6809 20.8697 17.9267C22.0417 16.1726 22.6673 14.1103 22.6673 12.0007C22.6673 9.17167 21.5435 6.45857 19.5431 4.45818C17.5427 2.45779 14.8296 1.33398 12.0007 1.33398ZM12.0007 21.334C10.1547 21.334 8.35019 20.7866 6.81533 19.761C5.28047 18.7355 4.0842 17.2778 3.37778 15.5724C2.67136 13.8669 2.48653 11.9903 2.84666 10.1798C3.20679 8.36932 4.0957 6.70628 5.40099 5.40099C6.70628 4.0957 8.36932 3.20678 10.1798 2.84666C11.9903 2.48653 13.8669 2.67136 15.5724 3.37778C17.2778 4.08419 18.7355 5.28047 19.761 6.81533C20.7866 8.35019 21.334 10.1547 21.334 12.0007C21.334 14.476 20.3507 16.85 18.6003 18.6003C16.85 20.3507 14.476 21.334 12.0007 21.334Z" fill="#0C46BE"/>
</g>
<defs>
<clipPath id="clip0_1_45629">
<rect width="24" height="24" fill="white"/>
</clipPath>
</defs>
</svg>
