<svg width="141" height="198" viewBox="0 0 141 198" fill="none" xmlns="http://www.w3.org/2000/svg">
<g opacity="0.2">
<path d="M70.5 198C102.256 198 128 190.613 128 181.5C128 172.387 102.256 165 70.5 165C38.7436 165 13 172.387 13 181.5C13 190.613 38.7436 198 70.5 198Z" fill="#000072"/>
</g>
<path d="M113.655 171.102C113.078 172.176 112.38 173.284 111.556 174.417C103.388 186.761 96.5405 189.082 91.1975 185.419L90.683 184.863L87.8986 181.845L88.0825 181.472C76.7912 176.357 65.2657 176.663 53.544 181.383L53.6611 181.59L49.8023 185.419C47.9083 186.718 45.8264 187.265 43.5612 186.875C39.4393 186.174 34.7155 182.388 29.4442 174.417C28.6666 173.347 28.002 172.303 27.4462 171.285C19.407 156.662 33.0227 147.667 41.7472 154.243L44.9992 149.824L64.5261 139L97.8235 143.245L95.6582 158.445C103.22 145.066 122.693 154.332 113.655 171.102Z" fill="#60547B"/>
<g opacity="0.55">
<path d="M45 157.969C36.7549 150.227 26.509 154.851 25.5971 166C22.2102 153.922 33.9897 147.255 41.8353 153.217L42.932 151.716L45 157.969Z" fill="white"/>
</g>
<g opacity="0.55">
<path d="M116.746 164C115.4 153.253 101.831 151.132 96 161.194L96.8289 157.052C103.513 145.818 119.178 151.433 116.746 164Z" fill="white"/>
</g>
<g opacity="0.55">
<path d="M98 147.074L96.089 156.847C96.0585 156.898 96.0312 156.949 96 157L97.4245 147L98 147.074Z" fill="white"/>
<path d="M96 158L97.8955 147L99 147.118L96.6117 157.161L96 158ZM98.2338 147.372L97.4282 152.051L98.5273 147.403L98.2338 147.372Z" fill="#000072"/>
</g>
<path d="M89 160.635C89 160.635 86.7977 161.891 85.5103 165.005C84.6063 167.192 82.8494 168.898 80.7043 169.84C78.3696 170.864 75.0033 171.844 70.5 172C65.9967 171.844 62.6304 170.865 60.2957 169.84C58.1506 168.898 56.3937 167.192 55.4897 165.005C54.203 161.891 52 160.635 52 160.635L58.1982 142L83.9037 143.259L89 160.635Z" fill="white"/>
<path d="M53.4664 183C52.9991 183 52.5463 182.77 52.2654 182.357C51.8699 181.777 51.921 180.991 52.3883 180.469L58.6535 173.486C59.203 172.874 60.1306 172.835 60.7256 173.4C61.3213 173.965 61.3586 174.919 60.8091 175.531L58.5728 178.023C66.7258 175.566 74.6449 175.492 82.2299 177.803L80.1909 175.53C79.6422 174.917 79.6795 173.964 80.2745 173.4C80.8694 172.835 81.7971 172.874 82.3465 173.485L88.6118 180.469C89.0867 180.999 89.1309 181.8 88.7167 182.382C88.3026 182.964 87.5461 183.163 86.9111 182.856C76.4878 177.834 65.7333 177.842 54.0317 182.881C53.8488 182.962 53.6562 183 53.4664 183Z" fill="#000072"/>
<path d="M103 146L84.2478 145.074L54.949 143.632L39 142.845V132.652L42.2425 126.58L45.2208 121H98.0206L99.0616 126.221L103 146Z" fill="white"/>
<path d="M103 146L84.1344 145.076L39 142.874V132.613L45.255 121H97.9764L103 146ZM39.3597 142.525L102.555 145.613L97.6824 121.365H45.468L39.3597 132.706V142.525Z" fill="#000072"/>
<path d="M93 158.688C91.9074 164.141 81.5492 170.795 78.2586 148.074V148.075H64.7414V148.074C61.4508 170.795 51.0926 164.141 50 158.688V136H91.2746L93 158.688Z" fill="#DDD6ED"/>
<path d="M55.9953 164C53.097 164 50.5222 161.189 50.0035 158.612L50 158.575V136H91.2744L93 158.586L92.9951 158.611C92.4687 161.225 89.8144 164.078 86.8785 163.998C84.4333 163.93 80.0437 161.794 78.0468 148.282L64.9525 148.282C62.9556 161.794 58.566 163.93 56.1208 163.998C56.0783 163.999 56.0365 164 55.9953 164ZM64.6415 147.917L78.3557 147.918L78.378 148.074C80.326 161.46 84.5456 163.568 86.8868 163.633C89.6562 163.712 92.1271 161.028 92.6368 158.563L90.9404 136.364H50.3577V158.556C50.8638 161.023 53.362 163.713 56.109 163.633C58.4509 163.568 62.6705 161.459 64.6185 148.072L64.6415 147.917Z" fill="#000072"/>
<path d="M93 158.688C91.9074 164.141 81.5492 170.795 78.2586 148.074V148.075H64.7414V148.074C61.4508 170.795 51.0926 164.141 50 158.688V136H91.2746L93 158.688Z" fill="#C9C3DD"/>
<path d="M55.9953 164C53.097 164 50.5222 161.189 50.0035 158.612L50 158.575V136H91.2744L93 158.586L92.9951 158.611C92.4687 161.225 89.8144 164.078 86.8785 163.998C84.4333 163.93 80.0437 161.794 78.0468 148.282L64.9525 148.282C62.9556 161.794 58.566 163.93 56.1208 163.998C56.0783 163.999 56.0365 164 55.9953 164ZM64.6415 147.917L78.3557 147.918L78.378 148.074C80.326 161.46 84.5456 163.568 86.8868 163.633C89.6562 163.712 92.1271 161.028 92.6368 158.563L90.9404 136.364H50.3577V158.556C50.8638 161.023 53.362 163.713 56.109 163.633C58.4509 163.568 62.6705 161.459 64.6185 148.072L64.6415 147.917Z" fill="#000072"/>
<g opacity="0.55">
<path d="M93 157.465C92.9613 157.642 92.9149 157.823 92.8509 158L91.2719 138.367H50V136H91.2719L93 157.465Z" fill="white"/>
</g>
<g opacity="0.3">
<path d="M93 157.966C91.9075 163.132 81.5501 169.437 78.2598 147.909H64.7402C62.9734 159.462 59.1755 163 55.8634 163C52.9999 163 50.5076 160.361 50 157.966V152.964C51.0665 158.009 60.9641 165.174 64.4948 145.482C64.6481 144.628 65.4081 144 66.3045 144H76.6955C77.5912 144 78.3519 144.628 78.5052 145.481C81.8053 163.878 90.6624 158.701 92.6794 153.962L93 157.966Z" fill="#000072"/>
</g>
<path d="M108.717 152.662C104.984 151.526 100.563 152.493 97.3448 156.265C89.7763 162.063 79.1603 152.128 84.3995 144.151C85.1595 142.994 86.253 141.879 87.7392 140.858C84.0825 134.412 92.5066 127.452 96.1887 136.255C96.7066 137.488 97.7293 138.413 98.9603 138.76C99.2856 138.854 99.624 138.908 99.9706 138.917L98.9603 138.76C98.9603 138.76 98.547 132.597 95.8339 126.892C94.8029 124.718 93.4378 122.611 91.6345 120.938L91.9977 120.798L101.841 117L104.275 117.619L105.193 117.848C105.385 118.051 105.573 118.255 105.757 118.462C106.642 119.437 107.472 120.458 108.241 121.505C116.423 132.656 117.872 147.305 108.717 152.662Z" fill="#60547B"/>
<g opacity="0.3">
<path d="M108.715 151.936C104.983 150.859 100.562 151.775 97.3429 155.353C89.8366 160.812 79.3249 151.578 84.2802 144.045C86.0918 149.359 93.5065 152.993 98.9295 148.21C99.5554 147.659 100.37 147.353 101.217 147.341C108.824 147.225 113.219 143.852 114.969 139C115.273 144.523 113.357 149.363 108.715 151.936Z" fill="#000072"/>
</g>
<path d="M42.0398 154.72C41.9937 154.72 41.9477 154.724 41.9023 154.724L41.6478 154.398C38.7377 152.207 35.2849 151.745 32.275 152.656C23.132 147.299 24.5805 132.669 32.7468 121.522C33.5192 120.467 34.3543 119.446 35.2436 118.462C35.4272 118.255 35.615 118.051 35.8069 117.848L36.7251 117.619L39.1593 117L49.1834 120.798L49.5507 120.937C47.7349 122.624 46.3483 124.747 45.2925 126.938C42.5495 132.63 42.0398 138.759 42.0398 138.759L41.0294 138.916C41.3761 138.907 41.7138 138.852 42.0398 138.759C43.2717 138.411 44.2945 137.487 44.8124 136.254C48.4949 127.452 56.9199 134.411 53.2628 140.857C54.1398 141.459 54.8785 142.094 55.492 142.751C63.6453 151.456 49.9888 164.026 42.0398 154.72Z" fill="#60547B"/>
<g opacity="0.55">
<path d="M34 138.469L34.3957 139.15C35.0624 140.297 36.2718 141 37.5776 141H40.5419C42.844 140.802 44.8284 139.812 46.146 137.16C46.146 137.16 48.5978 131.132 52 135.683L51.6432 133.285C51.6432 133.285 48.3472 129.649 44.8448 134.609L42.3428 138.187L34 138.469Z" fill="white"/>
</g>
<g opacity="0.55">
<path d="M106 138.469L105.604 139.15C104.938 140.297 103.728 141 102.422 141H99.4581C97.156 140.802 95.1716 139.812 93.854 137.16C93.854 137.16 91.4022 131.132 88 135.683L88.3568 133.285C88.3568 133.285 91.6528 129.649 95.1552 134.609L97.6572 138.187L106 138.469Z" fill="white"/>
</g>
<path d="M32.423 153C32.1856 153 31.9448 152.938 31.7246 152.805C28.0164 150.579 25.7432 146.8 25.1503 141.875C24.1341 133.434 28.3422 122.799 35.6214 115.414C36.176 114.852 37.063 114.864 37.6025 115.441C38.1426 116.019 38.1307 116.942 37.5767 117.504C30.8943 124.284 27.0179 133.932 27.9306 141.512C28.265 144.288 29.4369 148.063 33.1233 150.276C33.794 150.678 34.0242 151.571 33.6377 152.269C33.3785 152.738 32.907 153 32.423 153Z" fill="#000072"/>
<path d="M48.6971 160C44.209 160 40.3305 157.063 37.9648 151.824C37.6249 151.072 37.972 150.192 38.7398 149.859C39.5076 149.526 40.4057 149.866 40.7448 150.619C42.7263 155.007 45.7539 157.271 49.2717 156.997C52.6499 156.734 55.8543 154.092 56.7252 150.853C57.5574 147.758 56.1248 144.798 52.6914 142.521C52.0317 142.083 51.8284 141.221 52.2263 140.543C53.1902 138.902 53.2031 137.051 52.2599 135.594C51.5658 134.521 50.496 133.902 49.4685 133.988C48.1926 134.09 47.014 135.246 46.1482 137.244C45.2294 139.363 43.1506 140.769 40.8522 140.825L33.5583 141.002C32.7246 141.031 32.0219 140.373 32.0005 139.55C31.9797 138.727 32.6431 138.044 33.4824 138.023L40.7763 137.845C41.8862 137.818 42.8959 137.124 43.3496 136.078C45.1421 131.941 47.7969 131.132 49.2202 131.017C51.3776 130.844 53.5265 131.987 54.8274 133.998C56.1498 136.043 56.3595 138.512 55.4543 140.814C59.2075 143.741 60.7381 147.62 59.6647 151.612C58.4611 156.088 54.1913 159.602 49.5121 159.967C49.2395 159.989 48.9668 160 48.6971 160Z" fill="#000072"/>
<g opacity="0.3">
<path d="M42.0411 153.888C42.0081 153.888 41.9744 153.892 41.9407 153.892L41.6484 153.583C38.7385 151.505 35.2858 151.067 32.2761 151.931C27.6419 149.354 25.7299 144.519 26.0305 139C27.7795 143.852 32.1757 147.224 39.7866 147.34C40.634 147.352 41.4483 147.658 42.07 148.209C47.4931 152.992 54.9115 149.358 56.7196 144.044C62.043 152.135 49.5186 162.192 42.0411 153.888Z" fill="#000072"/>
</g>
<path d="M55.1994 163.999C51.6694 163.999 48.6546 160.828 48.0299 157.804C47.8682 157.022 48.3787 156.259 49.1692 156.099C49.9611 155.94 50.7323 156.444 50.894 157.226C51.282 159.104 53.2414 161.157 55.2792 161.108C58.4791 161.021 61.156 155.835 62.4405 147.234C62.5465 146.525 63.1615 146 63.8867 146L77.1133 146.001C77.8377 146.001 78.4535 146.526 78.5594 147.235C79.8439 155.835 82.5209 161.021 85.7207 161.108C87.7565 161.175 89.7179 159.104 90.106 157.226C90.2676 156.444 91.0375 155.939 91.8308 156.099C92.622 156.259 93.1318 157.022 92.9701 157.804C92.3358 160.874 89.235 164.105 85.6409 163.997C82.3 163.907 77.9451 161.174 75.8646 148.891L65.1368 148.891C63.0556 161.175 58.7013 163.907 55.3604 163.997C55.3061 163.999 55.2531 163.999 55.1994 163.999Z" fill="#000072"/>
<path d="M88.4929 137H54.5071C53.6752 137 53 136.329 53 135.5C53 134.671 53.6745 134 54.5071 134H88.4929C89.3248 134 90 134.671 90 135.5C90 136.329 89.3248 137 88.4929 137Z" fill="#000072"/>
<path d="M106 118L105 117.73L105.096 117C105.4 117.329 105.704 117.66 106 118Z" fill="#A36997"/>
<path d="M107 119L105 118.464L105.192 117L105.492 117.323C105.829 117.686 106.167 118.05 106.494 118.423L107 119ZM105.476 118.113L105.665 118.163C105.608 118.101 105.551 118.04 105.494 117.977L105.476 118.113Z" fill="#000072"/>
<path d="M109.578 153C109.093 153 108.622 152.738 108.362 152.269C107.976 151.571 108.206 150.678 108.877 150.276C112.563 148.063 113.735 144.289 114.069 141.512C114.982 133.932 111.106 124.284 104.423 117.504C103.869 116.942 103.858 116.018 104.398 115.441C104.938 114.864 105.825 114.852 106.379 115.414C113.658 122.799 117.866 133.434 116.85 141.875C116.257 146.8 113.984 150.579 110.276 152.805C110.056 152.938 109.815 153 109.578 153Z" fill="#000072"/>
<path d="M92.3043 160C92.0346 160 91.7619 159.989 91.4879 159.968C86.8087 159.602 82.5396 156.088 81.3353 151.612C80.2619 147.62 81.7925 143.742 85.5457 140.814C84.6405 138.512 84.8502 136.043 86.1726 133.998C87.4735 131.986 89.6195 130.845 91.7798 131.017C93.2031 131.131 95.8572 131.941 97.6505 136.078C98.1041 137.124 99.1138 137.818 100.224 137.845L107.518 138.023C108.357 138.043 109.02 138.727 109 139.55C108.979 140.373 108.288 141.024 107.442 141.003L100.148 140.825C97.8494 140.769 95.7706 139.363 94.8518 137.244C93.9867 135.247 92.8074 134.09 91.5315 133.988C90.5054 133.905 89.4349 134.521 88.7401 135.594C87.7969 137.051 87.8098 138.902 88.7737 140.543C89.1716 141.22 88.9683 142.083 88.3086 142.521C84.8752 144.799 83.4426 147.758 84.2748 150.853C85.1457 154.093 88.3501 156.734 91.7283 156.998C95.2454 157.273 98.2737 155.007 100.255 150.619C100.595 149.866 101.492 149.526 102.26 149.859C103.028 150.193 103.375 151.072 103.035 151.825C100.671 157.062 96.7917 160 92.3043 160Z" fill="#000072"/>
<path d="M65 131.213C65 132.455 63.8029 133.042 62.0457 133.284C61.6079 133.344 61.2758 133.737 61.2758 134.209V136H57.7242V134.209C57.7242 133.737 57.3921 133.344 56.9543 133.284C55.1978 133.041 54 132.455 54 131.213C54 129.438 56.4633 128 59.498 128C62.5373 127.999 65 129.438 65 131.213Z" fill="#000072"/>
<path d="M76 131.213C76 132.455 77.1971 133.042 78.9543 133.284C79.3921 133.344 79.7242 133.737 79.7242 134.209V136H83.2758V134.209C83.2758 133.737 83.6079 133.344 84.0457 133.284C85.8022 133.041 87 132.455 87 131.213C87 129.438 84.5367 128 81.502 128C78.4627 127.999 76 129.438 76 131.213Z" fill="#000072"/>
<path d="M65 136V137.942C65 139.078 66.0354 140 67.3126 140H74.6874C75.9646 140 77 139.078 77 137.942V136" fill="#000072"/>
<path d="M48 16.9074L29.6149 37.5704L16.7716 52C8.61335 48.0643 3 39.7965 3 30.2278C3 27.1589 3.5785 24.2198 4.63331 21.5183C8.1746 12.4421 17.0887 6 27.5262 6C36.0856 6.00069 43.6153 10.3403 48 16.9074Z" fill="#60547B"/>
<path d="M126.228 52C134.387 48.0647 140 39.7971 140 30.2272C140 16.8504 129.023 6 115.477 6C106.916 6 99.3852 10.3378 95 16.906" fill="#60547B"/>
<g opacity="0.55">
<path d="M139 25C135.53 16.0899 126.746 9.76396 116.457 9.76396C108.848 9.76396 102.064 13.2304 97.6462 18.6418L95 15.6847C99.317 9.24981 106.731 5 115.159 5C127.202 5 137.184 13.6692 139 25Z" fill="white"/>
</g>
<g opacity="0.3">
<path d="M30 32.1554V38.325L16.9708 53C8.69457 48.9973 3 40.589 3 30.8575C3 27.7364 3.58687 24.7474 4.65694 22C10.506 35.98 20.5119 38.4521 30 32.1554Z" fill="#000072"/>
</g>
<g opacity="0.3">
<path d="M113 32.1554V38.325L126.029 53C134.305 48.9973 140 40.589 140 30.8575C140 27.7364 139.413 24.7474 138.343 22C132.494 35.98 122.488 38.4521 113 32.1554Z" fill="#000072"/>
</g>
<g opacity="0.55">
<path d="M3 25C6.47033 16.0899 15.2543 9.76396 25.5428 9.76396C33.1515 9.76396 39.9361 13.2304 44.3538 18.6418L47 15.6847C42.683 9.24981 35.2686 5 26.8413 5C14.7978 5 4.81594 13.6692 3 25Z" fill="white"/>
</g>
<path d="M131 74.8176C131 105.47 104.137 121 71 121C37.863 121 11 105.47 11 74.8176C11 44.1656 37.863 10 71 10C104.137 10 131 44.1656 131 74.8176Z" fill="white"/>
<path d="M71 121C53.9362 121 39.2732 116.991 28.5957 109.407C17.0846 101.231 11 89.2595 11 74.7885C11 59.8434 17.5666 43.44 28.5652 30.9091C40.3994 17.4256 55.4702 10 71 10C86.5298 10 101.601 17.4256 113.435 30.9084C124.433 43.4393 131 59.8427 131 74.7879C131 89.2588 124.915 101.23 113.404 109.407C102.727 116.991 88.0638 121 71 121ZM71 10.3529C37.4105 10.3529 11.3571 44.9908 11.3571 74.7879C11.3571 102.646 34.7684 120.646 71 120.646C107.232 120.646 130.643 102.646 130.643 74.7879C130.643 44.9908 104.589 10.3529 71 10.3529Z" fill="#000072"/>
<g opacity="0.3">
<path d="M109 121.347C106.035 122.979 102.832 124.381 99.4356 125.551C98.4103 125.902 97.3638 126.234 96.3047 126.545C88.4708 128.847 79.7178 130 70.487 130C61.3202 130 52.627 128.863 44.836 126.59C44.0669 126.373 43.3026 126.136 42.551 125.886C38.7875 124.659 35.2505 123.15 32 121.364C32.7903 120.346 33.6446 119.36 34.5545 118.411C34.7424 118.211 34.9346 118.014 35.1309 117.818L36.0704 117.597L38.5609 117L48.817 120.664C61.8156 123.21 76.3469 123.192 92.3793 120.664L102.452 117L104.942 117.597L105.882 117.818C106.078 118.014 106.27 118.211 106.458 118.411C107.364 119.351 108.214 120.337 109 121.347Z" fill="#000072"/>
</g>
<g opacity="0.3">
<path d="M132 76.0705C132 107.217 105.139 123 72 123C38.8606 123 12 107.217 12 76.0705C12 73.068 12.249 70.0361 12.7303 67C17.2313 92.4679 42.0525 105.359 72 105.359C101.947 105.359 126.769 92.4679 131.27 67C131.751 70.0361 132 73.068 132 76.0705Z" fill="#000072"/>
</g>
<path d="M71.5 124C54.1049 124 39.1305 119.892 28.1953 112.121C16.2915 103.661 10 91.2829 10 76.3243C10 61.0211 16.7068 44.2395 27.9413 31.4328C40.0664 17.6114 55.5355 10 71.5 10C87.4645 10 102.934 17.6114 115.059 31.4328C126.293 44.2388 133 61.0211 133 76.3243C133 91.2829 126.709 103.661 114.805 112.121C103.869 119.892 88.8951 124 71.5 124ZM71.5 12.9224C38.5293 12.9224 12.9565 47.0043 12.9565 76.3237C12.9565 103.51 35.9361 121.076 71.5 121.076C107.064 121.076 130.044 103.51 130.044 76.3237C130.044 47.0043 104.471 12.9224 71.5 12.9224Z" fill="#000072"/>
<path d="M80 76.3518C80 79.4708 75.5228 82 70 82C64.4772 82 60 79.4715 60 76.3518C60 73.2328 64.4772 72 70 72C75.5228 72 80 73.2322 80 76.3518Z" fill="#000072"/>
<path d="M70.5 86C69.672 86 69 85.3734 69 84.5998V79.4002C69 78.6273 69.6713 78 70.5 78C71.3287 78 72 78.6266 72 79.4002V84.5998C72 85.3727 71.328 86 70.5 86Z" fill="#000072"/>
<path d="M64.5149 91.9998C64.0376 91.9998 63.568 91.7765 63.2738 91.3596C62.7943 90.6806 62.961 89.7443 63.6457 89.2688L68.8105 85.6821C70.1194 84.7726 71.8785 84.7726 73.188 85.6821L78.3543 89.2688C79.039 89.7443 79.2057 90.6806 78.7262 91.3596C78.2467 92.0387 77.3027 92.204 76.618 91.7285L71.4517 88.1417C71.181 87.9538 70.8176 87.9538 70.5469 88.1417L65.3813 91.7285C65.1177 91.9122 64.8149 91.9998 64.5149 91.9998Z" fill="#000072"/>
<path d="M51.5377 79.6739C51.3505 80.6939 51.2256 81.7057 51.159 82.7024C50.9122 86.4265 47.8601 89.3542 44.3985 88.9653C44.0597 88.9275 43.721 88.8781 43.3816 88.8192C33.677 87.1132 27.3997 77.0954 29.3577 66.4417C31.3143 55.7942 40.765 48.5422 50.4696 50.2489C54.5785 50.9712 58.0738 53.1841 60.5887 56.3046C62.8721 59.1376 62.3181 63.4907 59.4084 65.777C55.6109 68.7609 52.6303 73.7259 51.5377 79.6739Z" fill="#60547B"/>
<path d="M89.4623 77.6739C89.6495 78.6939 89.7751 79.7057 89.841 80.7024C90.0879 84.4265 93.1399 87.3542 96.6015 86.9653C96.9403 86.9275 97.279 86.8781 97.6184 86.8192C107.323 85.1132 113.6 75.0954 111.642 64.4417C109.686 53.7942 100.235 46.5422 90.5304 48.2489C86.4214 48.9712 82.9262 51.1841 80.4113 54.3046C78.1279 57.1376 78.6819 61.4907 81.5916 63.777C85.3891 66.7616 88.3697 71.7266 89.4623 77.6739Z" fill="#60547B"/>
<path d="M59.2364 18.9038C56.5339 -1.07121 78.0077 -5.09645 72.5906 10.7098C75.1957 6.03255 83.3768 6.6701 76.7827 15.3684C83.3718 8.22482 88.0927 15.2015 82.5626 19" fill="white"/>
<path d="M82.5228 19L82.3111 18.7171C84.3114 17.3478 84.801 15.6329 84.5922 14.4844C84.4158 13.5142 83.7512 12.7837 82.8149 12.5298C81.1385 12.0754 78.9655 13.1226 76.8538 15.4047L76.5709 15.1866C79.393 11.4765 79.1729 9.69744 78.7912 8.9669C78.4871 8.38557 77.869 8.05946 77.0499 8.04866C75.7369 8.03448 73.8115 8.88318 72.744 10.7926L72.411 10.6562C73.767 6.71249 73.4975 3.61816 71.6702 2.16856C70.2781 1.06398 68.0888 1.07545 65.9567 2.20029C62.2519 4.15425 58.3629 9.65895 59.5962 18.7414L59.2357 18.786C57.9791 9.53 61.9767 3.90174 65.7817 1.89512C68.0479 0.699382 70.3931 0.70208 71.903 1.90052C73.6718 3.3042 74.0909 6.09673 73.1017 9.65693C74.268 8.29915 75.8717 7.66854 77.0549 7.70095C78.0165 7.7131 78.7482 8.1074 79.1164 8.81094C79.7112 9.94793 79.2766 11.7297 77.8951 13.9166C79.6809 12.4218 81.4574 11.7999 82.9144 12.1949C83.9882 12.4866 84.7495 13.3197 84.9506 14.4243C85.1785 15.6775 84.6599 17.5369 82.5228 19Z" fill="#000072"/>
<path d="M83.0447 21C82.5718 21 82.1052 20.7868 81.8094 20.3867C81.3214 19.7286 81.4786 18.8132 82.1609 18.3421C83.6842 17.2901 84.075 16.0732 83.9328 15.2861C83.88 14.9929 83.6992 14.4755 83.084 14.3072C82.1817 14.0589 80.4805 14.6018 78.4092 16.8589C77.8719 17.4446 76.953 17.5198 76.3222 17.03C75.6905 16.5402 75.5691 15.6579 76.0464 15.0253C78.262 12.0866 78.4306 10.4862 78.1805 10.0047C78.1048 9.85849 77.9069 9.78191 77.5925 9.77777C76.6315 9.75156 75.1997 10.5049 74.4266 11.9011C74.0551 12.5716 73.2142 12.8558 72.4911 12.5571C71.7673 12.2577 71.4008 11.4741 71.6466 10.7518C72.8219 7.30334 72.6969 4.58264 71.3122 3.47338C70.3341 2.68973 68.6893 2.75457 67.0217 3.64239C63.6372 5.44355 60.0969 10.6118 61.2594 19.2492C61.3673 20.0522 60.7814 20.7868 59.9497 20.891C59.1167 20.9959 58.3564 20.4288 58.2493 19.6265C56.8903 9.52737 61.3366 3.32093 65.557 1.07483C68.3428 -0.407626 71.2908 -0.353129 73.2513 1.21693C74.2937 2.05163 75.6784 3.82037 75.4734 7.24884C76.1764 6.97912 76.9095 6.83632 77.6354 6.84667C79.1108 6.86598 80.2997 7.53857 80.8977 8.69267C81.3135 9.49425 81.4143 10.4338 81.2035 11.5058C82.361 11.2099 83.2884 11.3161 83.915 11.4872C85.5076 11.9232 86.6336 13.1552 86.9273 14.7832C87.3102 16.9079 86.162 19.185 83.9307 20.7261C83.6592 20.911 83.3505 21 83.0447 21Z" fill="#000072"/>
<path d="M15.2627 54C15.0449 54 14.8236 53.9516 14.6148 53.8484C5.60024 49.4084 0 40.3677 0 30.2543C0 15.7781 11.6744 4 26.0247 4C34.7936 4 42.9173 8.41749 47.7555 15.8174C48.2051 16.5047 48.0172 17.4301 47.3352 17.8836C46.6538 18.3365 45.7366 18.1476 45.287 17.4596C40.9979 10.8993 33.797 6.98314 26.0247 6.98314C13.305 6.98314 2.95775 17.4224 2.95775 30.2543C2.95775 39.2184 7.9219 47.232 15.9127 51.1678C16.6462 51.5294 16.951 52.4224 16.5926 53.1624C16.3358 53.6925 15.8104 54 15.2627 54Z" fill="#000072"/>
<path d="M125.738 54C125.191 54 124.665 53.6925 124.408 53.1624C124.05 52.4224 124.354 51.5294 125.088 51.1678C133.079 47.232 138.043 39.2184 138.043 30.2543C138.043 17.4224 127.695 6.98314 114.975 6.98314C107.203 6.98314 100.002 10.8993 95.7128 17.4596C95.2632 18.1469 94.346 18.3372 93.6647 17.8836C92.9833 17.4301 92.7947 16.5047 93.2443 15.8174C98.0825 8.41749 106.206 4 114.975 4C129.325 4 141 15.7774 141 30.2543C141 40.3677 135.4 49.4084 126.385 53.8484C126.176 53.9516 125.956 54 125.738 54Z" fill="#000072"/>
<path d="M103.44 63.6413C103.001 62.2322 101.363 61.5766 100.059 62.2921L99.369 62.6709L96.371 64.3166L88.2055 68.7951C87.2009 69.3464 86.7521 70.5365 87.1368 71.6068C88.4898 75.3699 91.5904 78 95.204 78C100.065 78 104 73.2483 104 67.3804C104 66.0657 103.802 64.8046 103.44 63.6413Z" fill="#000072"/>
<path d="M98 71C99.1046 71 100 69.6569 100 68C100 66.3431 99.1046 65 98 65C96.8954 65 96 66.3431 96 68C96 69.6569 96.8954 71 98 71Z" fill="white"/>
<path d="M98 71C96.897 71 96 69.6541 96 68C96 66.3459 96.897 65 98 65C99.103 65 100 66.3459 100 68C100 69.6541 99.1023 71 98 71ZM98 65.3567C97.0833 65.3567 96.3377 66.5426 96.3377 67.9993C96.3377 69.456 97.0833 70.6419 98 70.6419C98.9161 70.6419 99.6623 69.456 99.6623 67.9993C99.6623 66.5426 98.9161 65.3567 98 65.3567Z" fill="#000072"/>
<path d="M38.56 63.6413C38.9989 62.2322 40.6368 61.5766 41.9406 62.2921L42.631 62.6709L45.629 64.3166L53.7945 68.7951C54.7991 69.3464 55.2479 70.5365 54.8632 71.6068C53.5102 75.3699 50.4096 78 46.796 78C41.9349 78 38 73.2483 38 67.3804C38 66.0657 38.1981 64.8046 38.56 63.6413Z" fill="#000072"/>
<path d="M44 71C45.1046 71 46 69.6569 46 68C46 66.3431 45.1046 65 44 65C42.8954 65 42 66.3431 42 68C42 69.6569 42.8954 71 44 71Z" fill="white"/>
<path d="M44 71C42.897 71 42 69.6541 42 68C42 66.3459 42.897 65 44 65C45.103 65 46 66.3459 46 68C46 69.6541 45.103 71 44 71ZM44 65.3567C43.0839 65.3567 42.3377 66.5426 42.3377 67.9993C42.3377 69.456 43.0833 70.6419 44 70.6419C44.9167 70.6419 45.6623 69.456 45.6623 67.9993C45.6623 66.5426 44.9167 65.3567 44 65.3567Z" fill="#000072"/>
<path d="M96.5801 188C94.6122 188 92.7221 187.4 90.9401 186.206C90.8499 186.145 90.7666 186.075 90.6916 185.995L87.3953 182.508C86.8432 181.924 86.8728 181.006 87.4627 180.458C88.0519 179.911 88.9777 179.941 89.5297 180.525L92.709 183.889C94.3837 184.971 96.101 185.323 97.956 184.964C101.883 184.204 106.234 180.333 110.891 173.459C110.903 173.441 110.916 173.423 110.929 173.405C115.455 167.331 116.351 161.523 113.388 157.47C111.16 154.423 107.038 153.139 103.362 154.348C97.9058 156.142 94.721 162.673 94.8414 171.819C94.8518 172.62 94.2061 173.278 93.3987 173.288C93.3918 173.288 93.3857 173.288 93.3795 173.288C92.581 173.288 91.9278 172.651 91.9175 171.857C91.7791 161.382 95.7135 153.807 102.442 151.595C107.312 149.993 112.788 151.709 115.756 155.767C119.458 160.83 118.539 168.057 113.301 175.102C108.202 182.624 103.228 186.898 98.5163 187.81C97.8631 187.937 97.2175 188 96.5801 188Z" fill="#000072"/>
<path d="M44.72 188C44.073 188 43.419 187.937 42.7567 187.811C37.9794 186.9 32.9354 182.624 27.7651 175.103C22.4524 168.057 21.5221 160.831 25.2763 155.768C28.2858 151.709 33.8371 149.993 38.7764 151.595C45.5987 153.807 49.5881 161.382 49.4478 171.858C49.4373 172.658 48.7694 173.315 47.9458 173.288C47.1271 173.278 46.4718 172.62 46.483 171.819C46.6051 162.673 43.3758 156.142 37.8433 154.347C34.1177 153.139 29.9371 154.423 27.6779 157.47C24.6733 161.523 25.582 167.331 30.1716 173.405C30.1848 173.423 30.1974 173.441 30.21 173.459C34.9315 180.334 39.3438 184.205 43.3255 184.964C45.2162 185.325 46.9659 184.968 48.6724 183.873L52.481 180.231C53.0665 179.671 54.0053 179.681 54.5776 180.254C55.1499 180.827 55.1394 181.745 54.5538 182.304L50.6461 186.041C50.5826 186.102 50.5135 186.157 50.4395 186.206C48.6319 187.399 46.7154 188 44.72 188Z" fill="#000072"/>
<g opacity="0.3">
<path d="M57 179.582C56.0519 179.882 55.1031 180.211 54.1551 180.568L54.2769 180.769L50.2618 184.472C48.2911 185.728 46.1248 186.258 43.7679 185.881C39.479 185.203 34.5638 181.541 29.0789 173.83C28.2698 172.795 27.5783 171.785 27 170.8C37.3177 178.367 44.3949 176.766 48.2316 166L48.5139 168.71C51.2929 173.223 54.12 176.844 57 179.582Z" fill="#000072"/>
</g>
<g opacity="0.3">
<path d="M115 170.524C114.413 171.57 113.703 172.648 112.864 173.752C104.55 185.767 97.5818 188.027 92.1439 184.461L91.6203 183.92L88.7864 180.982L88.9736 180.618C87.6502 180.044 86.3269 179.544 85 179.11C87.9061 176.482 90.85 173.106 93.8325 168.992L94.2748 165C99.1981 174.272 105.763 177.392 115 170.524Z" fill="#000072"/>
</g>
</svg>
