<svg width="22" height="22" viewBox="0 0 22 22" fill="none" xmlns="http://www.w3.org/2000/svg">
<mask id="mask0_1_45620" style="mask-type:luminance" maskUnits="userSpaceOnUse" x="1" y="0" width="20" height="22">
<path d="M1.33203 0.175781H20.668V21.8239H1.33203V0.175781Z" fill="white"/>
</mask>
<g mask="url(#mask0_1_45620)">
<path d="M14.064 19.3759C13.9309 19.9626 13.6321 20.4882 13.2217 20.9021C12.6494 21.4708 11.8647 21.8236 11.0007 21.8236C10.1368 21.8236 9.35214 21.4708 8.77976 20.9021C8.36937 20.4882 8.0706 19.9627 7.93748 19.3759H3.41287C2.84053 19.3759 2.3222 19.1419 1.9442 18.7676C1.56991 18.3933 1.33594 17.8713 1.33594 17.2989C1.33594 16.7303 1.56991 16.2082 1.9442 15.8339C2.20336 15.5748 2.53098 15.3839 2.89454 15.2905C3.13926 14.5237 3.33734 13.6239 3.48132 12.7204C3.67938 11.5146 3.78362 10.3014 3.78362 9.38717C3.78362 7.4002 4.59349 5.59685 5.90387 4.29021C6.47974 3.71434 7.14927 3.23546 7.89083 2.87912C7.98801 2.18792 8.31196 1.56891 8.77989 1.09725C9.35224 0.528597 10.1369 0.175781 11.0009 0.175781C11.8648 0.175781 12.6494 0.528593 13.2218 1.09725C13.6898 1.56874 14.0137 2.18792 14.1109 2.87912C14.8525 3.23546 15.522 3.71417 16.0979 4.29021C17.4081 5.59689 18.2181 7.40025 18.2181 9.38717C18.2181 10.3014 18.3225 11.5145 18.5204 12.7204C18.6644 13.6239 18.8623 14.5238 19.1072 15.2905C19.4707 15.3841 19.7984 15.5748 20.0575 15.8339C20.4318 16.2082 20.6658 16.7302 20.6658 17.2989C20.6658 17.8713 20.4318 18.3933 20.0575 18.7676C19.6795 19.1419 19.1612 19.3759 18.5889 19.3759H14.064ZM7.86186 17.9936H18.5886C18.7794 17.9936 18.9521 17.9144 19.0782 17.7885C19.2043 17.6625 19.2798 17.4898 19.2798 17.2989C19.2798 17.1117 19.2043 16.9389 19.0782 16.813C18.9522 16.6869 18.7794 16.6079 18.5886 16.6079H3.41244C3.2216 16.6079 3.04889 16.6871 2.92282 16.813C2.79676 16.939 2.72123 17.1117 2.72123 17.2989C2.72123 17.4897 2.79676 17.6625 2.92282 17.7885C3.04887 17.9146 3.22158 17.9936 3.41244 17.9936H7.86186ZM4.35217 15.2255H17.6493C17.4477 14.5056 17.2822 13.7244 17.1561 12.9398C16.9473 11.6475 16.8357 10.3553 16.8357 9.38695C16.8357 7.7852 16.1769 6.32375 15.1186 5.269C14.0639 4.21072 12.6024 3.55192 11.0007 3.55192C9.39894 3.55192 7.93748 4.21072 6.88273 5.269C5.82445 6.32375 5.16566 7.7852 5.16566 9.38695C5.16566 10.3553 5.05404 11.6475 4.84524 12.9398C4.71918 13.7245 4.55369 14.5056 4.35209 15.2255H4.35217ZM12.444 2.31726C12.3865 2.22729 12.318 2.14455 12.2425 2.07254C11.9257 1.75581 11.4865 1.56142 11.0006 1.56142C10.5147 1.56142 10.0754 1.75579 9.7587 2.07254C9.68317 2.14455 9.61468 2.22729 9.55711 2.31373C10.0216 2.22008 10.5075 2.16972 11.0006 2.16972C11.4938 2.16972 11.9796 2.22008 12.4441 2.31726H12.444ZM12.2425 19.9302C12.3972 19.7717 12.5268 19.5846 12.6168 19.3758H9.38787C9.47431 19.5846 9.60389 19.7717 9.75865 19.9302C10.0754 20.2434 10.5146 20.4413 11.0005 20.4413C11.4864 20.4413 11.9257 20.2432 12.2424 19.9302H12.2425Z" fill="#0C46BE" stroke="#0C46BE" stroke-width="0.1"/>
</g>
</svg>
