<svg width="25" height="18" viewBox="0 0 25 18" fill="none" xmlns="http://www.w3.org/2000/svg">
<path d="M2.9 15.75L0.5 12.4406V12.375L2.9 15.75Z" fill="#B5D163"/>
<path d="M4.1 14.2126L4.07541 14.625L2.88702 12.9049L0.5 9.44493V9L3.45253 13.2775L4.1 14.2126Z" fill="#B5D163"/>
<path d="M12.4996 15.3107C10.8141 15.6872 9.23121 15.9987 7.8993 16.2428C5.81992 16.6216 4.35793 16.8355 4.09961 16.875L4.12892 16.1777C4.34511 16.1475 5.16404 16.0266 6.37136 15.8221C7.91579 15.5594 10.0978 15.1573 12.4813 14.625L12.4996 15.3107Z" fill="#B5D163"/>
<path d="M4.1 15.3322L4.07724 15.75L1.92138 12.6337L0.5 10.5757V10.125L2.64345 13.2249L4.1 15.3322Z" fill="#546E0D"/>
<path d="M12.4996 14.1885C9.97998 14.751 7.67985 15.1688 6.11568 15.4302C5.05323 15.61 4.32649 15.7173 4.09961 15.75L4.12728 15.0521C4.273 15.0311 4.58657 14.9844 5.03663 14.9144C6.46983 14.6857 9.2975 14.2072 12.4812 13.5L12.4996 14.1885Z" fill="#546E0D"/>
<path d="M12.4996 15.3102C12.1536 15.3889 11.8113 15.463 11.4762 15.537C11.4726 15.5393 11.469 15.5393 11.4635 15.537C7.59764 16.368 4.46562 16.8264 4.11964 16.875L4.09961 16.831L4.1251 16.1829C4.33815 16.1528 5.96061 15.9167 8.25682 15.4884C9.50416 15.2569 10.9518 14.9676 12.4814 14.625L12.4996 15.3102Z" fill="#546E0D"/>
<path d="M24.5002 13.5V13.931C23.0856 14.1516 21.4378 14.3868 19.7002 14.625C21.4397 14.286 23.0875 13.9106 24.5002 13.5Z" fill="#B5D163"/>
<path d="M12.4996 16.4338C8.19104 17.4063 4.52486 17.9469 4.14847 18L4.09961 17.8937L4.12132 17.3162H4.12856C4.16656 17.3116 7.96484 16.7687 12.4815 15.75L12.4996 16.4338Z" fill="#B5D163"/>
<path d="M4.1 15.3283L4.07702 15.75L0.5 10.5798V10.125L1.5426 11.6311L4.1 15.3283Z" fill="#B5D163"/>
<path d="M22.8941 9.83211C22.9556 9.62147 23.1019 9.45068 23.3 9.3558L20.6414 5.86221C20.3413 5.95899 20.0065 5.86411 19.8045 5.625C18.5637 6.09752 16.0012 6.98562 12.5 7.75797L15.5299 12.375C18.6214 11.7848 21.1281 11.1358 22.9807 10.447C22.8633 10.2648 22.8325 10.0428 22.8941 9.83211ZM19.1197 10.9309C18.9831 10.9574 18.8484 10.9707 18.7157 10.9707C17.7557 10.9707 16.8939 10.3027 16.6976 9.33872C16.4745 8.23998 17.1998 7.16969 18.3117 6.94957C19.4255 6.72944 20.5105 7.44296 20.7337 8.5417C20.9569 9.63855 20.2316 10.7107 19.1197 10.9309Z" fill="#B5D163"/>
<path d="M7.45388 12.342C8.4262 12.1592 9.05942 11.2684 8.86458 10.3565C8.6941 9.55524 7.94098 9 7.09981 9C6.98365 9 6.86563 9.01054 6.74573 9.03338C5.77341 9.21612 5.14019 10.107 5.33503 11.0189C5.52987 11.9308 6.48157 12.5247 7.45388 12.342ZM6.52841 9.99977C6.58836 9.89786 6.67454 9.82231 6.78319 9.77486L6.75135 9.5851C6.74947 9.57632 6.75322 9.57105 6.76259 9.56929L7.06608 9.52536C7.07732 9.52361 7.08482 9.52712 7.08482 9.53591L7.11667 9.72918C7.23282 9.74676 7.33586 9.7942 7.42391 9.87678C7.51196 9.9576 7.56629 10.0578 7.58502 10.1755L7.62062 10.3951C7.62249 10.4021 7.61875 10.4057 7.61125 10.4057L7.29089 10.4513C7.2834 10.4531 7.27965 10.4496 7.27965 10.4426L7.24031 10.2229C7.22907 10.1597 7.20097 10.1122 7.15039 10.0806C7.10168 10.049 7.04922 10.0367 6.99302 10.0455C6.93494 10.0542 6.88811 10.0824 6.85438 10.1298C6.82066 10.1772 6.80755 10.2299 6.81692 10.2862C6.82628 10.3406 6.84689 10.3846 6.87874 10.4197C6.91059 10.4549 6.96304 10.4847 7.03611 10.5128L7.35084 10.6218C7.45388 10.6569 7.53819 10.7061 7.60563 10.7694C7.6712 10.8344 7.71429 10.9205 7.73115 11.0294C7.75176 11.1542 7.73303 11.2666 7.67495 11.3668C7.61687 11.4669 7.53444 11.5442 7.42578 11.5952L7.45763 11.7885C7.4595 11.7973 7.45388 11.8025 7.44264 11.8043L7.13915 11.8482C7.12978 11.85 7.12416 11.8465 7.12229 11.8377L7.09044 11.6479C6.96866 11.6321 6.86188 11.5811 6.77195 11.4968C6.68016 11.4125 6.62583 11.3106 6.60522 11.1911L6.58461 11.0663C6.58274 11.0575 6.58648 11.0523 6.59585 11.0505L6.91433 11.0048C6.92183 11.0031 6.92557 11.0083 6.92745 11.0171L6.94806 11.1419C6.95742 11.1981 6.9874 11.2455 7.03611 11.2824C7.08669 11.3193 7.14102 11.3334 7.1991 11.3246C7.25905 11.3158 7.30588 11.2877 7.34148 11.2385C7.3752 11.1893 7.38831 11.1401 7.37895 11.0874C7.36771 11.0206 7.31338 10.9679 7.21408 10.9328C7.18036 10.9205 7.12978 10.9011 7.05859 10.8783C6.9874 10.8555 6.92183 10.8326 6.86188 10.8133C6.74385 10.7729 6.65205 10.7114 6.58648 10.6288C6.52091 10.5462 6.4797 10.4496 6.46284 10.3389C6.44785 10.2141 6.46846 10.1017 6.52841 9.99977Z" fill="#789C13"/>
<path d="M14.9004 11.8795L11.6298 6.75C10.7762 6.93738 9.86579 7.11755 8.90039 7.2797L12.1497 12.375C13.0495 12.2272 13.9758 12.0615 14.9004 11.8795Z" fill="#FFD999"/>
<path d="M24.5 9.87266C23.6317 10.2976 22.5835 10.6865 21.4264 11.0413C20.2243 11.4112 18.9023 11.747 17.5427 12.043C17.0176 12.1587 16.4887 12.2687 15.958 12.375L15.7649 12.0733C16.3369 11.9614 16.8882 11.8457 17.4151 11.728C18.8704 11.4093 20.17 11.0754 21.2989 10.7283C21.9421 10.531 22.5328 10.3299 23.0654 10.125L23.1292 10.1003L23.0879 10.0453C22.9623 9.87646 22.9229 9.66398 22.981 9.46288C23.0391 9.26179 23.1854 9.10243 23.3786 9.02844L23.4423 9.00377L20.7475 5.37458L20.725 5.34422L20.6875 5.3575C20.4156 5.46564 20.1062 5.37458 19.9318 5.13933L19.9074 5.10898L19.8699 5.12416C19.6655 5.20384 19.4255 5.29679 19.146 5.39924C18.244 5.72934 16.9538 6.16188 15.3486 6.60581C14.5403 6.82967 13.6533 7.05732 12.6932 7.2736L12.5 6.97385C13.4864 6.75379 14.3978 6.52234 15.2248 6.29658C16.8263 5.85644 18.109 5.4239 19.0204 5.08811C19.8174 4.79406 20.3293 4.57778 20.5131 4.5L24.5 9.87266Z" fill="#789C13"/>
<path d="M12.4996 13.7866C9.16486 14.1856 6.22003 14.4495 4.83303 14.5657C4.4821 14.5947 4.2333 14.6149 4.09961 14.625L4.12189 14.3182L4.12746 14.2298C4.72534 14.1919 8.32375 13.9571 12.4848 13.5L12.4996 13.7866Z" fill="#B5D163"/>
<path d="M4.1 14.1773L4.09594 14.2569L4.07363 14.625L3.64569 14.011L0.5 9.50782V9L4.1 14.1773Z" fill="#546E0D"/>
<path d="M12.5 13.4858C11.6563 13.6267 10.8355 13.7557 10.0566 13.8688C8.43398 14.109 6.99421 14.2896 5.91628 14.4146C4.87645 14.5357 4.1737 14.6051 3.96231 14.625L0.5 8.67484C1.5665 8.653 2.60633 8.60338 3.61189 8.52995C5.07642 8.42079 6.46858 8.26201 7.78075 8.0695C8.19973 8.00797 8.61109 7.94248 9.01484 7.875L9.2129 8.19453C8.78059 8.26797 8.34637 8.33743 7.91216 8.40095C6.52571 8.60735 5.13355 8.76414 3.7452 8.86933C3.29003 8.90704 2.83677 8.93483 2.38351 8.95865L2.29781 8.9646L2.34161 9.04002C2.4654 9.2504 2.47112 9.50841 2.36066 9.72474C2.2502 9.94107 2.04261 10.078 1.80646 10.0879L1.71885 10.0919L3.88994 13.8212L3.90708 13.8509L3.94136 13.847C4.19465 13.8212 4.44223 13.9522 4.57364 14.1784L4.59078 14.2062L4.62506 14.2042C4.94501 14.1725 5.33542 14.1288 5.78678 14.0752C6.87232 13.9482 8.30638 13.7716 9.92708 13.5314C10.6851 13.4203 11.483 13.2992 12.3038 13.1622L12.5 13.4858Z" fill="#789C13"/>
<path d="M2.27898 9.31252C2.15964 9.52997 1.94683 9.6743 1.7002 9.71279L3.85821 13.1555C4.14263 13.1382 4.41312 13.2729 4.57025 13.5C6.08981 13.3499 9.09511 13.0266 12.5002 12.5012L9.40539 7.875C7.05246 8.25026 4.66174 8.50235 2.30086 8.61974C2.40627 8.84104 2.40031 9.09314 2.27898 9.31252ZM5.07346 9.69162C5.38771 9.23362 5.86903 8.92187 6.42594 8.8141C7.57754 8.59087 8.69931 9.31637 8.93003 10.4287C9.16075 11.5429 8.41091 12.6282 7.2613 12.8515C7.12009 12.8784 6.98086 12.8919 6.84163 12.8919C5.84915 12.8919 4.9581 12.2145 4.75522 11.2369C4.64583 10.6981 4.75721 10.1496 5.07346 9.69162Z" fill="#B5D163"/>
<path d="M24.4996 11.25V11.9037C23.4177 12.3979 22.1403 12.881 20.6767 13.3486C19.3155 13.7873 17.7941 14.2128 16.1182 14.625L16.0996 13.9713C18.8127 13.3065 21.1273 12.604 23.0099 11.8727C23.5406 11.6688 24.0378 11.4605 24.4996 11.25Z" fill="#B5D163"/>
<path d="M12.4996 16.2268C8.38419 17.134 4.87339 17.8492 4.1248 18L4.09961 17.944L4.1212 17.3895L4.1284 17.4065L4.16079 17.404C4.19858 17.3967 7.9883 16.8276 12.4888 15.75L12.4996 16.2268Z" fill="#546E0D"/>
<path d="M24.4996 12.375V13.0274C22.4108 13.9815 19.5921 14.8957 16.1183 15.75L16.1164 15.71L16.0996 15.0954C17.5463 14.7404 18.8828 14.3743 20.098 14.0015C21.8023 13.4756 23.2732 12.9342 24.4996 12.375Z" fill="#546E0D"/>
<path d="M24.4996 12.375V13.0287C22.4085 13.9825 19.591 14.8962 16.1183 15.75L16.0996 15.0963C19.5742 14.2426 22.3973 13.3288 24.4996 12.375Z" fill="#B5D163"/>
<path d="M24.4996 10.125V10.7774C24.1523 10.9367 23.7809 11.0959 23.3927 11.2529C21.452 12.0337 19.0135 12.7878 16.1182 13.5L16.0996 12.8475C19.5762 11.9961 22.4029 11.0782 24.4996 10.125Z" fill="#546E0D"/>
<path d="M24.4996 13.5V13.9525C22.6886 14.5234 20.4798 15.0251 18.1865 15.4591C17.4996 15.5576 16.8071 15.6546 16.1165 15.75L16.0996 15.3791C19.5752 14.7881 22.3996 14.1571 24.4996 13.5Z" fill="#546E0D"/>
<path d="M16.1 16.3297C14.9321 16.517 13.7708 16.7001 12.6424 16.875L12.5986 15.6907L12.5 12.9599C13.6306 12.785 14.7941 12.5873 15.9554 12.375L16.0496 14.9747L16.1 16.3297Z" fill="#E6B767"/>
<path d="M24.4996 10.7582V10.125C22.4038 11.3292 19.2739 12.2957 16.0996 13.0445L16.1126 13.5C19.5908 12.6401 22.4112 11.7181 24.4996 10.7582Z" fill="#B5D163"/>
<path d="M19.1007 6.75C18.9845 6.75 18.8664 6.76054 18.7465 6.78338C17.7737 6.96612 17.1401 7.85696 17.335 8.76888C17.53 9.6808 18.4822 10.2747 19.4531 10.092C20.426 9.90922 21.0595 9.01838 20.8646 8.10646C20.694 7.30523 19.9405 6.75 19.1007 6.75ZM19.6799 9.11677C19.6218 9.21693 19.5394 9.29424 19.4306 9.3452L19.4625 9.53848C19.4644 9.54726 19.4588 9.55253 19.4475 9.55429L19.1439 9.59821C19.1345 9.59997 19.1289 9.59646 19.127 9.58767L19.0951 9.39791C18.9733 9.38209 18.8664 9.33114 18.7765 9.2468C18.6846 9.16246 18.6303 9.06055 18.6096 8.94107L18.589 8.81632C18.5872 8.80753 18.5909 8.80226 18.6003 8.8005L18.9189 8.75482C18.9264 8.75306 18.9302 8.75833 18.932 8.76712L18.9527 8.89187C18.962 8.94809 18.992 8.99554 19.0408 9.03244C19.0914 9.06934 19.1457 9.08339 19.2038 9.07461C19.2638 9.06582 19.3107 9.03771 19.3463 8.98851C19.38 8.93931 19.3931 8.89011 19.3838 8.8374C19.3725 8.77063 19.3182 8.71792 19.2188 8.68278C19.1851 8.67048 19.1345 8.65115 19.0633 8.62831C18.992 8.60547 18.9264 8.58262 18.8664 8.5633C18.7484 8.52288 18.6565 8.46139 18.5909 8.37881C18.5253 8.29622 18.4841 8.19959 18.4672 8.08889C18.4466 7.9659 18.4672 7.8552 18.529 7.75329C18.589 7.65138 18.6752 7.57583 18.784 7.52838L18.754 7.33862C18.7521 7.32983 18.7559 7.32456 18.7652 7.3228L19.0689 7.27888C19.0801 7.27712 19.0876 7.28063 19.0876 7.28942L19.1195 7.4827C19.2357 7.50027 19.3388 7.54771 19.4269 7.63029C19.515 7.71112 19.5693 7.81127 19.5881 7.929L19.6237 8.14863C19.6256 8.15566 19.6218 8.15917 19.6143 8.15917L19.2938 8.20485C19.2863 8.20661 19.2826 8.2031 19.2826 8.19607L19.2432 7.97644C19.2338 7.91318 19.2038 7.86574 19.1532 7.83411C19.1045 7.80249 19.052 7.79019 18.9958 7.79722C18.9377 7.806 18.8908 7.83411 18.8571 7.88155C18.8233 7.92899 18.8102 7.98171 18.8196 8.03793C18.829 8.0924 18.8496 8.13633 18.8814 8.17147C18.9133 8.20661 18.9658 8.23648 19.0389 8.2646L19.3538 8.37354C19.4569 8.40868 19.5412 8.45787 19.6087 8.52113C19.6743 8.58614 19.7174 8.67224 19.7343 8.78118C19.7549 8.90242 19.7362 9.01662 19.6799 9.11677Z" fill="#789C13"/>
<path d="M4.1 17.5709L4.07444 18L0.5 12.8397V12.375L4.1 17.5709Z" fill="#B5D163"/>
<path d="M4.1 16.4497L4.07469 16.875L0.5 11.7105V11.25L4.1 16.4497Z" fill="#546E0D"/>
<path opacity="0.5" d="M10.0996 13.0163C8.58897 13.2291 7.24855 13.3892 6.245 13.5L6.12266 13.201L4.22372 8.58384L4.09961 8.28306C5.46308 8.18632 6.75918 8.04561 7.98082 7.875L8.10316 8.17049L9.97727 12.719L10.0996 13.0163Z" fill="#B5D163"/>
<path opacity="0.5" d="M20.9004 11.4036C19.7381 11.7623 18.4598 12.088 17.1452 12.375L17.0219 12.0696L15.0219 7.09679L14.9004 6.79691C16.4489 6.37009 17.6891 5.95063 18.5704 5.625L18.6937 5.92672L20.7771 11.0982L20.9004 11.4036Z" fill="#B5D163"/>
<path opacity="0.5" d="M0.5 12.375L2.9 15.75L0.5 12.4406V12.375Z" fill="#546E0D"/>
<path opacity="0.5" d="M0.5 12.375L4.1 17.5709L4.07444 18L0.5 12.8397V12.375Z" fill="#546E0D"/>
<path opacity="0.5" d="M0.5 11.25L4.1 16.4497L4.07469 16.875L0.5 11.7105V11.25Z" fill="#546E0D"/>
<path opacity="0.5" d="M1.542 12.5858L4.1 16.4361L4.07703 16.875L0.5 11.4915V11.25C0.79652 11.7253 1.14733 12.1718 1.542 12.5858Z" fill="#546E0D"/>
<path opacity="0.5" d="M2.49564 13.0172L4.1002 15.2975L4.07512 15.75L1.7002 12.375C1.95319 12.6022 2.21757 12.8156 2.49564 13.0172Z" fill="#546E0D"/>
<path opacity="0.5" d="M3.45985 13.9892L4.10039 15.2111L4.07607 15.75L2.90039 13.5C3.08282 13.6725 3.26931 13.8332 3.45985 13.9892Z" fill="#546E0D"/>
<path opacity="0.5" d="M6.49961 15.3195C5.23483 15.5614 4.36969 15.706 4.09961 15.75L4.13255 14.8104C4.30601 14.7821 4.6793 14.7193 5.21507 14.625C5.63447 14.8921 6.06484 15.1246 6.49961 15.3195Z" fill="#546E0D"/>
<path opacity="0.5" d="M7.69961 16.1995C5.7295 16.6043 4.34435 16.8328 4.09961 16.875L4.12738 16.13C4.3322 16.0977 5.10809 15.9685 6.25197 15.75C6.72931 15.9462 7.21186 16.0927 7.69961 16.1995Z" fill="#546E0D"/>
<path opacity="0.5" d="M4.11919 16.875L4.09961 16.8393L4.12454 16.3134C4.33284 16.289 5.91919 16.0975 8.1643 15.75C9.19872 15.8871 10.2492 15.8909 11.2996 15.7894C7.52157 16.4618 4.45925 16.8356 4.11919 16.875Z" fill="#546E0D"/>
<path opacity="0.5" d="M4.14847 18L4.09961 17.8937L4.12132 17.3162H4.12856C4.16656 17.3116 7.96484 16.7687 12.4815 15.75L12.4996 16.4338C8.18923 17.4063 4.52305 17.9469 4.14847 18Z" fill="#546E0D"/>
<path opacity="0.5" d="M12.487 15.75L12.4996 16.2268C8.38418 17.134 4.87339 17.8492 4.1248 18L4.09961 17.944L4.1212 17.3895L4.1284 17.4065L4.16079 17.404C4.19678 17.3943 7.9865 16.8276 12.487 15.75Z" fill="#546E0D"/>
<path opacity="0.5" d="M16.0482 14.625L16.1 16.2293C14.8992 16.4511 13.7053 16.668 12.5451 16.875L12.5 15.4728C13.6985 15.2731 14.8835 14.9799 16.0482 14.625Z" fill="#546E0D"/>
<path opacity="0.5" d="M24.4998 11.25V11.7627C24.1233 11.9677 23.7206 12.1728 23.2998 12.375C23.7065 12.0161 24.1072 11.643 24.4998 11.25Z" fill="#546E0D"/>
<path opacity="0.5" d="M23.0976 11.9176C23.5973 11.699 24.0673 11.4757 24.5004 11.25V11.9509C23.4816 12.4807 22.2787 12.9987 20.9004 13.5C21.6509 13.0248 22.3856 12.4997 23.0976 11.9176Z" fill="#546E0D"/>
<path opacity="0.5" d="M20.0911 13.9993C21.7969 13.4734 23.2708 12.932 24.4996 12.375V13.0274C22.4066 13.9815 19.5823 14.8957 16.1015 15.75L16.0996 15.71C16.1239 15.7034 16.1501 15.6945 16.1763 15.6856C17.508 15.2241 18.8211 14.6671 20.0911 13.9993Z" fill="#546E0D"/>
<path opacity="0.5" d="M16.0996 15.0963C19.5742 14.2426 22.3991 13.3288 24.4996 12.375V13.0287C22.4085 13.9825 19.591 14.8962 16.1183 15.75L16.0996 15.0963Z" fill="#546E0D"/>
<path opacity="0.5" d="M16.0996 15.3776C19.576 14.7881 22.3991 14.1571 24.4996 13.5V13.9525C22.6882 14.5234 20.4789 15.0251 18.1851 15.4591C17.498 15.5576 16.8054 15.6546 16.1146 15.75L16.0996 15.3776Z" fill="#546E0D"/>
<path opacity="0.5" d="M19.7002 14.625C21.4397 14.2875 23.0875 13.912 24.5002 13.5V13.931C23.0856 14.1531 21.4378 14.3883 19.7002 14.625Z" fill="#546E0D"/>
<path d="M20.376 4.56345L20.328 4.5L20.2542 4.53263C20.1748 4.56707 12.1409 8.08391 0.677217 8.26157L0.5 8.26338L0.577532 8.38847V12.7446L3.90405 17.9999L3.9705 17.9909C3.97973 17.9891 4.05726 17.9782 4.19202 17.9583C4.84182 17.8857 10.2654 17.2603 15.8367 16.1382C18.8863 15.6342 21.9765 15.094 24.3652 14.6136L24.4465 14.5973V9.98192L24.5 9.95654L20.376 4.56345ZM24.2434 13.7924C22.462 14.4632 20.2874 15.056 18.0334 15.5672C17.3596 15.6814 16.6784 15.7974 15.9973 15.9098L15.9825 15.4729C19.3995 14.7786 22.1777 14.0353 24.2434 13.2595V13.7924ZM0.778747 12.4365V11.9869L3.89851 17.0138L3.87636 17.4271L0.778747 12.4365ZM12.5618 13.0383L12.5766 13.4498C8.42493 14.1695 4.87874 14.581 4.22525 14.6553L4.25479 14.0879C4.84736 14.0317 8.42493 13.6927 12.5618 13.0383ZM12.5988 14.0843C8.36401 14.8185 4.75321 15.2336 4.19202 15.2971L4.21971 14.755C4.8289 14.6861 8.39539 14.2746 12.5803 13.5495L12.5988 14.0843ZM12.6431 15.3569C8.2551 16.1183 4.528 16.5388 4.14587 16.5823L4.12557 16.5479L4.15141 16.0421C4.48554 16.0059 8.21633 15.5853 12.6246 14.8221L12.6431 15.3569ZM0.778747 10.707L3.95943 15.8318L3.93727 16.2452L0.776902 11.1548V10.707H0.778747ZM0.778747 10.0671L3.99081 15.2427L3.96866 15.656L0.778747 10.5167V10.0671ZM4.00004 15.0668L0.778747 9.87678V9.4272L4.02219 14.6517L4.00004 15.0668ZM0.778747 11.347L3.92989 16.4228L3.90774 16.8361L0.778747 11.7947V11.347ZM4.11818 16.6857H4.12557C4.16433 16.682 8.04096 16.2578 12.6468 15.4584L12.6652 15.9932C8.26802 16.7582 4.528 17.1806 4.14587 17.2223L4.09419 17.1389L4.11818 16.6857ZM4.15695 15.9406L4.18464 15.3968C4.68675 15.3406 8.3234 14.9254 12.6006 14.184L12.6191 14.7188C8.2754 15.4747 4.58338 15.8935 4.15695 15.9406ZM4.03142 14.4759L0.778747 9.23686V8.71477L4.05542 14.0208L4.03142 14.4759ZM4.08495 17.3147L4.09234 17.3274L4.12372 17.3238C4.16249 17.3201 8.05019 16.8941 12.6671 16.0929L12.68 16.4482C8.45816 17.1226 4.85474 17.6573 4.08865 17.7697L4.0628 17.728L4.08495 17.3147ZM12.883 16.4156L12.7631 13.0057C13.7156 12.8534 14.6958 12.683 15.6742 12.4963L15.7961 15.9424C14.8121 16.1056 13.8337 16.2633 12.883 16.4156ZM24.2434 13.1525C22.1814 13.9284 19.4032 14.6753 15.9788 15.3714L15.9603 14.8366C19.3865 14.1405 22.1722 13.3954 24.2434 12.6195V13.1525ZM24.2434 12.5126C22.1759 13.2903 19.3902 14.039 15.9567 14.7351L15.9382 14.2003C19.3755 13.5042 22.1666 12.7573 24.2434 11.9778V12.5126ZM24.2434 11.8727C22.1722 12.6522 19.3773 13.4009 15.9345 14.1006L15.916 13.5658C19.3644 12.8679 22.1648 12.1192 24.2453 11.3397V11.8727H24.2434ZM24.2434 11.2328C22.1685 12.0141 19.3662 12.7646 15.9105 13.4643L15.892 12.9295C19.3496 12.2298 22.1574 11.4811 24.2434 10.698V11.2328ZM24.2434 10.5928C22.1629 11.376 19.3533 12.1283 15.8884 12.8298L15.8754 12.4582C19.0358 11.8473 22.1537 11.0569 24.2434 10.0762V10.5928ZM20.2616 4.74473L24.1899 9.8804C22.1039 10.8684 18.962 11.6624 15.7813 12.2733L15.5911 11.9851C18.578 11.4158 20.9963 10.7886 22.7777 10.1233L22.8404 10.0998L22.7998 10.0472C22.6761 9.88584 22.6392 9.68462 22.6964 9.49246C22.7537 9.30031 22.8958 9.14803 23.086 9.07733L23.1487 9.05376L20.496 5.58406L20.472 5.55324L20.4369 5.56774C20.1693 5.66926 19.8628 5.58406 19.6911 5.35746L19.6671 5.32664L19.6321 5.33933C18.4525 5.78709 15.9696 6.64817 12.5655 7.39323L12.3772 7.10681C16.8797 6.13334 19.7687 4.9532 20.2616 4.74473ZM22.6817 10.0544C20.904 10.7125 18.4986 11.3325 15.5321 11.8962L12.6246 7.48569C15.9843 6.74788 18.4432 5.89948 19.6339 5.4481C19.8277 5.67651 20.1489 5.76715 20.4369 5.6747L22.9881 9.01026C22.798 9.1009 22.6577 9.26405 22.5986 9.46527C22.5395 9.66649 22.5691 9.87859 22.6817 10.0544ZM12.1649 7.15576L15.5671 12.3168C14.6054 12.4999 13.6418 12.6649 12.7058 12.8153L9.32578 7.68872C10.3282 7.52376 11.277 7.34429 12.1649 7.15576ZM2.7669 8.80903C4.95996 8.69845 7.17702 8.46098 9.36086 8.10748L12.2332 12.4636C9.07103 12.9567 6.28171 13.2631 4.8732 13.4045C4.72737 13.1906 4.47631 13.0655 4.21233 13.08L2.20941 9.83689C2.43831 9.80245 2.63584 9.66468 2.7466 9.45983C2.8592 9.25498 2.86474 9.01751 2.7669 8.80903ZM9.10795 7.72316L9.30178 8.01503C7.10872 8.36853 4.88243 8.60419 2.68199 8.71295L2.59707 8.71658L2.64137 8.78728C2.75952 8.97944 2.76506 9.21329 2.65799 9.4127C2.55092 9.61029 2.3497 9.73538 2.12264 9.74444L2.03773 9.74807L4.14218 13.1543L4.1588 13.1815L4.19018 13.1779C4.4357 13.1525 4.67752 13.2722 4.8049 13.4788L4.82151 13.506L4.8529 13.5024C6.25956 13.3628 9.08949 13.0528 12.2942 12.5507L12.488 12.8443C8.32155 13.5024 4.72921 13.8378 4.21233 13.8849L0.85628 8.4501C3.87451 8.39934 6.65091 8.11292 9.10795 7.72316ZM0.778747 12.6866V12.6268L2.68752 15.7031L0.778747 12.6866ZM24.2434 14.4324C22.8774 14.7061 21.2861 14.9998 19.6081 15.2934C21.2879 14.8747 22.8792 14.4088 24.2434 13.8976V14.4324Z" fill="#084900"/>
<path d="M6.61874 11.1939C6.67848 11.2738 6.76459 11.3334 6.87705 11.3725C6.93328 11.3929 6.99479 11.4133 7.06156 11.4354C7.12833 11.4576 7.17578 11.4763 7.20741 11.4882C7.30054 11.5222 7.3515 11.5715 7.36205 11.6379C7.37083 11.6889 7.35853 11.7366 7.3269 11.7842C7.29527 11.8319 7.25134 11.8591 7.19335 11.8676C7.13888 11.8761 7.08792 11.8625 7.04047 11.8267C6.99303 11.791 6.96667 11.7468 6.95788 11.6906L6.93855 11.5698C6.9368 11.5613 6.93328 11.5579 6.92625 11.5579L6.62752 11.6022C6.61874 11.6039 6.61522 11.609 6.61698 11.6175L6.63631 11.7383C6.65388 11.854 6.7066 11.9526 6.7927 12.0343C6.87881 12.116 6.97721 12.1636 7.09143 12.1806L7.12131 12.3644C7.12306 12.3729 7.12833 12.3763 7.13712 12.3746L7.42179 12.332C7.43234 12.3303 7.43761 12.3252 7.43585 12.3167L7.40598 12.1296C7.5079 12.0802 7.58521 12.0071 7.63969 11.9084C7.69416 11.8114 7.71174 11.7008 7.69241 11.5818C7.67659 11.4763 7.63617 11.3929 7.57467 11.33C7.51317 11.267 7.43234 11.2194 7.33569 11.187L7.04047 11.0816C6.97194 11.0543 6.92274 11.0254 6.89287 10.9914C6.86299 10.9574 6.84366 10.9148 6.83488 10.8621C6.82609 10.8077 6.83839 10.7566 6.87002 10.7107C6.90165 10.6647 6.94558 10.6375 7.00006 10.629C7.05277 10.6205 7.10198 10.6324 7.14766 10.663C7.19335 10.6937 7.22147 10.7396 7.23201 10.8008L7.26891 11.0135C7.27067 11.0203 7.27418 11.022 7.27946 11.022L7.57994 10.9778C7.58697 10.9761 7.58873 10.9727 7.58873 10.9676L7.55534 10.7549C7.53777 10.6409 7.48681 10.544 7.40422 10.4657C7.32163 10.3874 7.22498 10.3398 7.11604 10.3228L7.08616 10.1356C7.0844 10.1271 7.07913 10.1237 7.06859 10.1254L6.78392 10.168C6.77513 10.1697 6.77162 10.1748 6.77337 10.1833L6.80325 10.367C6.70133 10.4146 6.62225 10.4878 6.56426 10.5848C6.50803 10.6835 6.4887 10.7906 6.50628 10.9097C6.52033 11.022 6.55899 11.1156 6.61874 11.1939Z" fill="#084900"/>
<path d="M7.09815 12.375C7.21422 12.375 7.33366 12.3639 7.4531 12.3419C8.42545 12.1589 9.05967 11.2678 8.86452 10.3563C8.66938 9.4447 7.72058 8.85013 6.74655 9.03308C6.27552 9.1214 5.86841 9.37689 5.60261 9.75224C5.33682 10.1276 5.24093 10.5771 5.33513 11.0202C5.50504 11.8198 6.25701 12.375 7.09815 12.375ZM6.7802 9.20182C6.88618 9.18132 6.99216 9.17186 7.09815 9.17186C7.8518 9.17186 8.52807 9.67023 8.68284 10.3894C8.85779 11.2079 8.28919 12.0075 7.41609 12.1715C6.54468 12.3356 5.69009 11.8025 5.51514 10.984C5.3385 10.1654 5.9071 9.36584 6.7802 9.20182Z" fill="#084900"/>
<path d="M19.5733 9.08008C19.512 9.01703 19.4314 8.96933 19.335 8.93695L19.0406 8.83131C18.9723 8.80405 18.9233 8.77508 18.8935 8.74101C18.8637 8.70693 18.8444 8.66433 18.8357 8.61151C18.8269 8.55698 18.8392 8.50587 18.8707 8.45986C18.9022 8.41386 18.946 8.3866 19.0004 8.37808C19.0529 8.36956 19.102 8.38148 19.1475 8.41386C19.1931 8.44453 19.2211 8.49053 19.2316 8.55187L19.2684 8.76486C19.2702 8.77167 19.2737 8.77338 19.2789 8.77338L19.5785 8.72908C19.5856 8.72737 19.5873 8.72397 19.5873 8.71885L19.554 8.50587C19.5365 8.39171 19.4857 8.29458 19.4033 8.2162C19.321 8.13783 19.2246 8.09012 19.116 8.07308L19.0862 7.88565C19.0845 7.87713 19.0792 7.87372 19.0687 7.87543L18.7848 7.91802C18.7761 7.91973 18.7726 7.92484 18.7743 7.93336L18.8024 8.11738C18.7007 8.16509 18.6219 8.23836 18.5641 8.33548C18.508 8.4343 18.4887 8.54165 18.5063 8.66092C18.5238 8.76827 18.5623 8.86198 18.6219 8.94206C18.6815 9.02215 18.7673 9.08179 18.8795 9.12098C18.9355 9.14142 18.9968 9.16187 19.0634 9.18402C19.13 9.20617 19.1773 9.22491 19.2089 9.23684C19.3017 9.27092 19.3525 9.32033 19.363 9.38678C19.3718 9.4379 19.3595 9.48731 19.328 9.53331C19.2965 9.58102 19.2527 9.60828 19.1948 9.6168C19.1405 9.62532 19.0897 9.61169 19.0424 9.57591C18.9951 9.54013 18.9671 9.49583 18.9601 9.4396L18.9408 9.31862C18.939 9.3101 18.9355 9.3067 18.9285 9.3067L18.6307 9.351C18.6219 9.3527 18.6184 9.35781 18.6201 9.36633L18.6394 9.48731C18.6569 9.60318 18.7095 9.702 18.7954 9.78379C18.8812 9.86557 18.9793 9.91329 19.0932 9.93032L19.123 10.1143C19.1247 10.1229 19.13 10.1263 19.1388 10.1246L19.4226 10.082C19.4331 10.0803 19.4384 10.0752 19.4366 10.0666L19.4068 9.8792C19.5085 9.82979 19.5856 9.75482 19.6399 9.6577C19.6942 9.56058 19.7117 9.44982 19.6924 9.33055C19.6749 9.22661 19.6346 9.14142 19.5733 9.08008Z" fill="#084900"/>
<path d="M17.5463 6.78308C16.574 6.96602 15.9397 7.85709 16.1349 8.76867C16.3065 9.56984 17.0601 10.125 17.8996 10.125C18.0157 10.125 18.1351 10.1139 18.2529 10.0919C19.2253 9.90892 19.8595 9.01785 19.6643 8.10627C19.4692 7.1947 18.5204 6.60013 17.5463 6.78308ZM18.2159 9.92312C17.3428 10.0871 16.4899 9.55407 16.3149 8.73555C16.1399 7.91702 16.7086 7.11743 17.5817 6.95341C17.6876 6.9329 17.7936 6.92344 17.8996 6.92344C18.6533 6.92344 19.3296 7.42181 19.4843 8.14097C19.6576 8.9595 19.0907 9.7591 18.2159 9.92312Z" fill="#084900"/>
<path d="M22.0996 11.25L24.4996 7.94063V7.875L22.0996 11.25Z" fill="#B5D163"/>
<path d="M20.9004 9.7126L20.925 10.125L22.1134 8.40312L24.5004 4.94493V4.5L21.5458 8.7757L20.9004 9.7126Z" fill="#B5D163"/>
<path d="M12.5 10.8107C14.1855 11.1872 15.7684 11.4987 17.1003 11.7428C19.1797 12.1216 20.6417 12.3355 20.9 12.375L20.8707 11.6777C20.6545 11.6475 19.8356 11.5266 18.6282 11.3221C17.0838 11.0594 14.9018 10.6573 12.5183 10.125L12.5 10.8107Z" fill="#B5D163"/>
<path d="M20.9004 10.8303L20.9231 11.25L23.079 8.13188L24.5004 6.07383V5.625L22.3569 8.72485L20.9004 10.8303Z" fill="#546E0D"/>
<path d="M12.5 9.68853C15.0196 10.251 17.3198 10.6688 18.8839 10.9302C19.9464 11.11 20.6731 11.2173 20.9 11.25L20.8723 10.5521C20.7266 10.5311 20.413 10.4844 19.963 10.4144C18.5298 10.1857 15.7021 9.70721 12.5184 9L12.5 9.68853Z" fill="#546E0D"/>
<path d="M12.5 10.8102C12.846 10.8889 13.1883 10.963 13.5234 11.037C13.527 11.0393 13.5307 11.0393 13.5361 11.037C17.402 11.868 20.534 12.3264 20.88 12.375L20.9 12.331L20.8745 11.6829C20.6615 11.6528 19.039 11.4167 16.7428 10.9884C15.4954 10.7569 14.0478 10.4676 12.5182 10.125L12.5 10.8102Z" fill="#546E0D"/>
<path d="M0.5 9V9.43101C1.91458 9.65162 3.56237 9.88685 5.3 10.125C3.56045 9.7875 1.91266 9.41201 0.5 9Z" fill="#B5D163"/>
<path d="M12.5 11.9338C16.8086 12.9063 20.4748 13.4469 20.8511 13.5L20.9 13.3937L20.8783 12.8162H20.871C20.833 12.8116 17.0348 12.2687 12.5181 11.25L12.5 11.9338Z" fill="#B5D163"/>
<path d="M20.9004 10.8283L20.9234 11.25L24.5004 6.07794V5.625L23.4578 7.13113L20.9004 10.8283Z" fill="#B5D163"/>
<path d="M2.01954 5.94695C3.87212 6.6358 6.37878 7.2848 9.47027 7.87497L12.5002 3.25797C8.99895 2.48562 6.4365 1.59752 5.19567 1.125C4.99368 1.36411 4.65894 1.45899 4.35883 1.36221L1.7002 4.8539C1.89834 4.94878 2.04455 5.11957 2.10611 5.33021C2.16767 5.54085 2.13689 5.76098 2.01954 5.94695ZM4.26649 4.03791C4.48965 2.93916 5.57465 2.22564 6.68851 2.44577C7.80045 2.6659 8.5257 3.73808 8.30255 4.83492C8.10632 5.79893 7.24448 6.46691 6.28452 6.46691C6.15178 6.46691 6.01519 6.45363 5.88053 6.42706C4.76859 6.20883 4.04334 5.13665 4.26649 4.03791Z" fill="#B5D163"/>
<path d="M19.6644 6.51888C19.8592 5.60696 19.226 4.71612 18.2537 4.53338C18.1357 4.51054 18.0176 4.5 17.8996 4.5C17.0603 4.5 16.3072 5.05523 16.1348 5.85646C15.94 6.76838 16.5732 7.65922 17.5455 7.84195C18.5178 8.02469 19.4695 7.4308 19.6644 6.51888ZM18.5328 5.83538C18.5141 5.94607 18.4729 6.04271 18.4092 6.12529C18.3455 6.20787 18.2537 6.26937 18.1338 6.30978C18.0738 6.33087 18.0083 6.35195 17.9371 6.3748C17.8659 6.39764 17.8153 6.41696 17.7816 6.42926C17.6823 6.46441 17.628 6.51536 17.6167 6.58389C17.6074 6.6366 17.6205 6.6858 17.6542 6.735C17.6879 6.78419 17.7347 6.81231 17.7966 6.82109C17.8546 6.82988 17.909 6.81582 17.9596 6.77892C18.0101 6.74202 18.0401 6.69634 18.0476 6.63836L18.0682 6.51361C18.0701 6.50482 18.0738 6.5013 18.0813 6.5013L18.3998 6.54699C18.4092 6.54874 18.4129 6.55402 18.4111 6.5628L18.3904 6.68755C18.3717 6.80703 18.3155 6.90895 18.2237 6.99329C18.1319 7.07763 18.027 7.12682 17.9052 7.14439L17.8734 7.33416C17.8715 7.34294 17.8659 7.34646 17.8565 7.3447L17.553 7.30077C17.5418 7.29902 17.5362 7.29375 17.538 7.28496L17.5699 7.09168C17.4612 7.04073 17.3788 6.96341 17.3207 6.86326C17.2626 6.76311 17.2439 6.6489 17.2645 6.5259C17.2814 6.41697 17.3245 6.33087 17.39 6.26586C17.4556 6.20085 17.5418 6.15165 17.6448 6.11826L17.9596 6.00932C18.0326 5.98121 18.0851 5.95134 18.1169 5.9162C18.1488 5.88106 18.1694 5.83713 18.1788 5.78266C18.1881 5.72644 18.175 5.67372 18.1413 5.62628C18.1076 5.57884 18.0607 5.55073 18.0026 5.54194C17.9464 5.53316 17.894 5.54546 17.8453 5.57884C17.7966 5.61047 17.7666 5.65791 17.7554 5.72116L17.716 5.9408C17.7141 5.94783 17.7104 5.94958 17.7048 5.94958L17.3844 5.9039C17.3769 5.90214 17.375 5.89863 17.375 5.89336L17.4106 5.67373C17.4294 5.556 17.4837 5.45585 17.5718 5.37502C17.6598 5.2942 17.7628 5.245 17.879 5.22743L17.9108 5.03415C17.9127 5.02536 17.9183 5.02185 17.9296 5.02361L18.2331 5.06753C18.2424 5.06929 18.2462 5.07456 18.2443 5.08335L18.2125 5.27311C18.3211 5.32231 18.4054 5.39787 18.4673 5.49802C18.531 5.60169 18.5516 5.71238 18.5328 5.83538Z" fill="#789C13"/>
<path d="M8.90039 7.37951L12.171 2.25C13.0246 2.43738 13.935 2.61755 14.9004 2.77971L11.6511 7.87498C10.7513 7.72544 9.82497 7.56148 8.90039 7.37951Z" fill="#FFD999"/>
<path d="M0.5 5.37206C1.36826 5.79712 2.41655 6.18612 3.57361 6.54097C4.77567 6.911 6.09775 7.24687 7.45734 7.54289C7.98242 7.65865 8.51125 7.76871 9.04196 7.87497L9.23512 7.57325C8.66315 7.46129 8.11181 7.34554 7.58486 7.22789C6.12963 6.9091 4.83005 6.57512 3.70113 6.22787C3.0579 6.03052 2.46718 5.82938 1.9346 5.62444L1.87084 5.59977L1.9121 5.54663C2.03774 5.37775 2.07712 5.16522 2.01899 4.96408C1.96085 4.76293 1.81458 4.60354 1.62143 4.52953L1.55767 4.50486L4.25246 0.874786L4.27497 0.844424L4.31247 0.857705C4.58439 0.965868 4.89381 0.874785 5.06821 0.639485L5.09259 0.609123L5.1301 0.624304C5.33451 0.704002 5.57454 0.796983 5.85396 0.899453C6.75598 1.22963 8.04618 1.66228 9.65143 2.10632C10.4597 2.33023 11.3467 2.55794 12.3068 2.77427L12.5 2.47445C11.5136 2.25433 10.6022 2.02282 9.7752 1.79701C8.1737 1.35677 6.891 0.924121 5.97961 0.588249C5.18261 0.294124 4.67065 0.0778009 4.48687 0L0.5 5.37206Z" fill="#789C13"/>
<path d="M12.5 9.28661C15.8347 9.6856 18.7796 9.94949 20.1666 10.0657C20.5175 10.0947 20.7663 10.1149 20.9 10.125L20.8777 9.81818L20.8721 9.72979C20.2743 9.69192 16.6759 9.45707 12.5149 9L12.5 9.28661Z" fill="#B5D163"/>
<path d="M20.9004 9.67895L20.9044 9.75859L20.9268 10.125L21.3547 9.51257L24.5004 5.00798V4.5L20.9004 9.67895Z" fill="#546E0D"/>
<path d="M12.5 8.98609C13.3437 9.12696 14.1645 9.25593 14.9434 9.36903C16.566 9.6091 18.0058 9.78966 19.0837 9.91466C20.1236 10.0357 20.8263 10.1051 21.0377 10.125L24.5 4.1746C23.4335 4.15277 22.3937 4.10317 21.3881 4.02976C19.9236 3.92063 18.5314 3.7619 17.2193 3.56944C16.8003 3.50794 16.3889 3.44246 15.9852 3.375L15.7871 3.69444C16.2194 3.76786 16.6536 3.8373 17.0878 3.90079C18.4743 4.10714 19.8665 4.26388 21.2548 4.36904C21.71 4.40674 22.1632 4.43452 22.6165 4.45833L22.7022 4.46428L22.6584 4.53968C22.5346 4.74999 22.5289 5.00793 22.6393 5.2242C22.7498 5.44047 22.9574 5.57737 23.1935 5.58729L23.2811 5.59126L21.1101 9.31942L21.0929 9.34918L21.0586 9.34521C20.8053 9.31942 20.5578 9.45037 20.4264 9.67656L20.4092 9.70434L20.3749 9.70236C20.055 9.67061 19.6646 9.62696 19.2132 9.57339C18.1277 9.44641 16.6936 9.26982 15.0729 9.02974C14.315 8.91863 13.517 8.7976 12.6962 8.66069L12.5 8.98609Z" fill="#789C13"/>
<path d="M22.7013 4.11999C20.3385 4.00257 17.9497 3.75038 15.5948 3.375L12.5 8.00088C15.9071 8.52449 18.9124 8.84983 20.4299 8.99998C20.5871 8.77282 20.8576 8.63999 21.142 8.65539L23.3 5.21149C23.0534 5.17492 22.8406 5.02861 22.7212 4.81108C22.6019 4.59355 22.5959 4.34137 22.7013 4.11999ZM20.245 6.73805C20.0421 7.71597 19.151 8.39359 18.1586 8.39359C18.0213 8.39359 17.8801 8.38012 17.7389 8.35317C16.5893 8.12986 15.8394 7.04221 16.0702 5.92953C16.3009 4.81686 17.4227 4.09112 18.5743 4.31442C19.1312 4.42222 19.6125 4.73408 19.9267 5.19224C20.241 5.6504 20.3564 6.19904 20.245 6.73805Z" fill="#B5D163"/>
<path d="M0.5 6.75V7.40372C1.58189 7.89789 2.8593 8.38098 4.32292 8.84856C5.68413 9.28733 7.20548 9.71281 8.88138 10.125L8.9 9.47126C6.1869 8.80646 3.87229 8.10398 1.98969 7.3727C1.45899 7.16883 0.961804 6.96052 0.5 6.75Z" fill="#B5D163"/>
<path d="M12.5 11.7268C16.6154 12.634 20.1262 13.3492 20.8748 13.5L20.9 13.444L20.8784 12.8895L20.8712 12.9065L20.8388 12.904C20.801 12.8967 17.0113 12.3276 12.5108 11.25L12.5 11.7268Z" fill="#546E0D"/>
<path d="M0.5 7.875V8.52737C2.5888 9.4815 5.40747 10.3957 8.88133 11.25L8.8832 11.21L8.9 10.5954C7.45333 10.2404 6.1168 9.87425 4.9016 9.50147C3.19733 8.97559 1.7264 8.43195 0.5 7.875Z" fill="#546E0D"/>
<path d="M0.5 7.875V8.52865C2.59111 9.48246 5.40858 10.3962 8.88128 11.25L8.9 10.5963C5.42543 9.74258 2.60234 8.8288 0.5 7.875Z" fill="#B5D163"/>
<path d="M0.5 5.625V6.27744C0.847292 6.43668 1.21873 6.59591 1.60688 6.75294C3.54762 7.53366 5.98609 8.28783 8.88143 8.99999L8.9 8.34755C5.42337 7.49385 2.59675 6.57822 0.5 5.625Z" fill="#546E0D"/>
<path d="M0.5 9V9.45246C2.31099 10.0234 4.51984 10.5251 6.81314 10.9591C7.5 11.0576 8.19249 11.1546 8.88311 11.25L8.9 10.8791C5.4244 10.2897 2.6 9.65868 0.5 9Z" fill="#546E0D"/>
<path d="M8.90039 11.8297C10.0683 12.017 11.2295 12.2001 12.358 12.375L12.4018 11.1907L12.5004 8.45988C11.3698 8.28504 10.2063 8.0873 9.045 7.875L8.95079 10.4747L8.90039 11.8297Z" fill="#E6B767"/>
<path d="M0.5 6.25823V5.625C2.59583 6.82924 5.72568 7.79574 8.9 8.5445L8.88703 8.99999C5.4088 8.14013 2.58842 7.21806 0.5 6.25823Z" fill="#B5D163"/>
<path d="M4.13485 3.60646C3.93991 4.51838 4.57346 5.40922 5.54628 5.59195C6.5191 5.77469 7.46943 5.18079 7.66437 4.26887C7.85931 3.35695 7.22576 2.46612 6.25294 2.28338C6.13485 2.26054 6.01676 2.25 5.89867 2.25C5.06081 2.25 4.3073 2.80523 4.13485 3.60646ZM5.267 4.27766C5.28386 4.16872 5.32698 4.08263 5.39258 4.01761C5.45818 3.9526 5.54441 3.9034 5.6475 3.87002L5.9624 3.76108C6.0355 3.73297 6.08799 3.7031 6.11985 3.66796C6.15172 3.63281 6.17234 3.58889 6.18171 3.53442C6.19108 3.47819 6.17796 3.42548 6.14422 3.37804C6.11048 3.3306 6.06362 3.30249 6.00551 3.29546C5.94928 3.28667 5.8968 3.29897 5.84806 3.33236C5.79933 3.36398 5.76934 3.41142 5.75809 3.47468L5.71873 3.69431C5.71685 3.70134 5.7131 3.7031 5.70748 3.7031L5.38696 3.65741C5.37946 3.65566 5.37759 3.65214 5.37759 3.64687L5.4132 3.42724C5.43194 3.30951 5.4863 3.20936 5.5744 3.12854C5.6625 3.04771 5.76559 2.99851 5.8818 2.98094L5.91367 2.78766C5.91554 2.77888 5.92117 2.77536 5.93241 2.77712L6.23607 2.82105C6.24544 2.82281 6.24919 2.82808 6.24731 2.83686L6.21545 3.02663C6.32416 3.07582 6.40851 3.15138 6.47037 3.25153C6.53222 3.35344 6.55097 3.46414 6.53222 3.58713C6.51348 3.69783 6.47224 3.79447 6.40851 3.87705C6.34478 3.95963 6.25294 4.02113 6.13297 4.06154C6.07299 4.08263 6.00739 4.10371 5.93616 4.12655C5.86493 4.14939 5.81432 4.16872 5.78058 4.18102C5.68124 4.21616 5.62688 4.26712 5.61564 4.33564C5.60626 4.38836 5.61939 4.43931 5.65312 4.48675C5.68686 4.53595 5.73372 4.56406 5.79558 4.57285C5.85369 4.58163 5.90804 4.56758 5.95865 4.53068C6.00926 4.49378 6.03925 4.4481 6.04675 4.39011L6.06737 4.26536C6.06924 4.25658 6.07299 4.25306 6.08049 4.25306L6.39914 4.29875C6.40851 4.3005 6.41226 4.30577 6.41039 4.31456L6.38977 4.43931C6.37102 4.55879 6.31479 4.6607 6.22294 4.74504C6.1311 4.82938 6.02613 4.87858 5.9043 4.89615L5.87243 5.08591C5.87056 5.0947 5.86493 5.09821 5.85556 5.09646L5.55191 5.05253C5.54066 5.05077 5.53504 5.0455 5.53691 5.03672L5.56878 4.84344C5.46006 4.79248 5.37759 4.71693 5.31948 4.61502C5.26512 4.51486 5.24638 4.40241 5.267 4.27766Z" fill="#789C13"/>
<path d="M20.9004 13.0707L20.926 13.5L24.5004 8.33797V7.875L20.9004 13.0707Z" fill="#B5D163"/>
<path d="M20.9004 11.9497L20.9257 12.375L24.5004 7.20869V6.75L20.9004 11.9497Z" fill="#546E0D"/>
<path opacity="0.5" d="M14.9004 8.51628C16.411 8.72911 17.7515 8.88917 18.755 8.99998L18.8773 8.70096L20.7763 4.08384L20.9004 3.78306C19.5369 3.68632 18.2408 3.54561 17.0192 3.375L16.8968 3.67049L15.0227 8.21902L14.9004 8.51628Z" fill="#B5D163"/>
<path opacity="0.5" d="M4.09961 6.9036C5.26189 7.26234 6.54023 7.58798 7.85482 7.87497L7.97812 7.56958L9.97812 2.59679L10.0996 2.29691C8.55111 1.87009 7.31085 1.45063 6.42962 1.125L6.30632 1.42672L4.22291 6.5982L4.09961 6.9036Z" fill="#B5D163"/>
<path opacity="0.5" d="M24.4996 7.875L22.0996 11.25L24.4996 7.94063V7.875Z" fill="#546E0D"/>
<path opacity="0.5" d="M24.5004 7.875L20.9004 13.0707L20.926 13.5L24.5004 8.33797V7.875Z" fill="#546E0D"/>
<path opacity="0.5" d="M24.5004 6.75L20.9004 11.9497L20.9257 12.375L24.5004 7.20869V6.75Z" fill="#546E0D"/>
<path opacity="0.5" d="M23.4599 8.08581L20.9004 11.9361L20.9234 12.375L24.5004 6.99148V6.75C24.2058 7.2253 23.8548 7.67184 23.4599 8.08581Z" fill="#546E0D"/>
<path opacity="0.5" d="M22.5049 8.5172L20.9004 10.7975L20.9255 11.25L23.3004 7.875C23.0474 8.10026 22.783 8.31564 22.5049 8.5172Z" fill="#546E0D"/>
<path opacity="0.5" d="M21.5409 9.48923L20.9004 10.7111L20.9247 11.25L22.1004 9C21.92 9.17489 21.7335 9.3356 21.5409 9.48923Z" fill="#546E0D"/>
<path opacity="0.5" d="M18.5 10.8195C19.7648 11.0614 20.6299 11.206 20.9 11.25L20.8671 10.3104C20.6936 10.2821 20.3203 10.2193 19.7845 10.125C19.3651 10.3921 18.9348 10.6246 18.5 10.8195Z" fill="#546E0D"/>
<path opacity="0.5" d="M17.2998 11.6995C19.2699 12.1043 20.6551 12.3328 20.8998 12.375L20.872 11.63C20.6672 11.5977 19.8913 11.4685 18.7474 11.25C18.2701 11.4487 17.7876 11.5952 17.2998 11.6995Z" fill="#546E0D"/>
<path opacity="0.5" d="M20.8806 12.375L20.9002 12.3393L20.8753 11.8134C20.667 11.789 19.0806 11.5975 16.8355 11.25C15.8011 11.3871 14.7506 11.3909 13.7002 11.2894C17.4782 11.9637 20.5406 12.3374 20.8806 12.375Z" fill="#546E0D"/>
<path opacity="0.5" d="M20.8511 13.5L20.9 13.3937L20.8783 12.8162H20.871C20.833 12.8116 17.0348 12.2687 12.5181 11.25L12.5 11.9338C16.8104 12.9086 20.4766 13.4469 20.8511 13.5Z" fill="#546E0D"/>
<path opacity="0.5" d="M12.5126 11.25L12.5 11.7268C16.6154 12.634 20.1262 13.3492 20.8748 13.5L20.9 13.444L20.8784 12.8895L20.8712 12.9065L20.8388 12.904C20.8028 12.8943 17.0131 12.3276 12.5126 11.25Z" fill="#546E0D"/>
<path opacity="0.5" d="M8.95221 10.125L8.90039 11.7293C10.1011 11.9511 11.2951 12.168 12.4553 12.375L12.5004 10.9728C11.3019 10.7731 10.1169 10.4799 8.95221 10.125Z" fill="#546E0D"/>
<path opacity="0.5" d="M0.5 6.75V7.26266C0.87651 7.46772 1.27919 7.67278 1.7 7.875C1.29329 7.51898 0.892617 7.14304 0.5 6.75Z" fill="#546E0D"/>
<path opacity="0.5" d="M1.90282 7.41763C1.40307 7.19905 0.933122 6.97571 0.5 6.75V7.45089C1.5188 7.98072 2.72172 8.49867 4.1 8.99999C3.34949 8.52481 2.61476 7.99735 1.90282 7.41763Z" fill="#546E0D"/>
<path opacity="0.5" d="M4.90855 9.49925C3.20274 8.97337 1.72886 8.43195 0.5 7.875V8.52737C2.59299 9.48151 5.4173 10.3957 8.89813 11.25L8.9 11.21C8.87568 11.2034 8.8495 11.1945 8.82331 11.1856C7.48971 10.7241 6.17856 10.1671 4.90855 9.49925Z" fill="#546E0D"/>
<path opacity="0.5" d="M8.9 10.5963C5.42543 9.74258 2.60234 8.8288 0.5 7.875V8.52865C2.59111 9.48246 5.40858 10.3962 8.88128 11.25L8.9 10.5963Z" fill="#546E0D"/>
<path opacity="0.5" d="M8.9 10.8776C5.42362 10.2881 2.60047 9.65715 0.5 9V9.45246C2.3114 10.0234 4.52074 10.5251 6.81455 10.9591C7.50156 11.0576 8.19421 11.1546 8.88498 11.25L8.9 10.8776Z" fill="#546E0D"/>
<path opacity="0.5" d="M5.3 10.125C3.56045 9.7875 1.91266 9.41201 0.5 9V9.43101C1.91458 9.65308 3.56237 9.88831 5.3 10.125Z" fill="#546E0D"/>
<path d="M0.5 5.45654L0.553535 5.48192V10.0973L0.634759 10.1136C3.0235 10.594 6.11372 11.1342 9.16333 11.6382C14.7346 12.7603 20.16 13.3857 20.808 13.4583C20.9427 13.4782 21.0203 13.4891 21.0295 13.4909L21.096 13.4999L24.4225 8.24463V3.88846L24.5 3.76338L24.3228 3.76157C12.859 3.58391 4.82521 0.068888 4.74583 0.0326319L4.67199 0L4.62399 0.0634492L0.5 5.45654ZM0.754749 8.76128C2.82044 9.53535 5.59868 10.2804 9.01565 10.9747L9.00088 11.4116C8.31971 11.2992 7.63853 11.185 6.96473 11.069C4.71075 10.5578 2.53615 9.96498 0.754749 9.29424V8.76128ZM21.1218 12.9307L21.0996 12.5174L24.2194 7.4905V7.94008L21.1218 12.9307ZM20.7434 9.58792L20.7729 10.1553C20.1194 10.081 16.5732 9.66949 12.4215 8.94981L12.4363 8.5383C16.5732 9.19635 20.1508 9.53535 20.7434 9.58792ZM12.4179 9.05314C16.6028 9.77645 20.1693 10.1898 20.7784 10.2587L20.8061 10.8007C20.2431 10.7372 16.6323 10.3221 12.3994 9.58792L12.4179 9.05314ZM12.3735 10.3239C16.7818 11.0871 20.5126 11.5077 20.8467 11.5439L20.8726 12.0497L20.8523 12.0841C20.4702 12.0424 16.7431 11.6201 12.3551 10.8587L12.3735 10.3239ZM24.2194 6.66024L21.059 11.7506L21.0369 11.3373L24.2176 6.21248V6.66024H24.2194ZM24.2194 6.02032L21.0295 11.1596L21.0073 10.7463L24.2194 5.57074V6.02032ZM20.976 10.1553L24.2194 4.93082V5.3804L20.9981 10.5705L20.976 10.1553ZM24.2194 7.30016L21.0904 12.3416L21.0683 11.9282L24.2194 6.8524V7.30016ZM20.904 12.6407L20.8523 12.7241C20.4702 12.6824 16.7301 12.26 12.3329 11.495L12.3514 10.9602C16.9572 11.7597 20.8338 12.1839 20.8726 12.1875H20.88L20.904 12.6407ZM12.3772 10.2242L12.3957 9.68943C16.6729 10.4309 20.3096 10.846 20.8117 10.9022L20.8394 11.446C20.4148 11.3971 16.7227 10.9783 12.3772 10.2242ZM20.9427 9.52266L24.2194 4.21658V4.73867L20.9667 9.97767L20.9427 9.52266ZM20.9335 13.2317L20.9077 13.2733C20.1416 13.161 16.5382 12.6262 12.3163 11.9518L12.3292 11.5965C16.9461 12.3978 20.8338 12.8238 20.8726 12.8274L20.904 12.831L20.9114 12.8183L20.9335 13.2317ZM9.2021 11.446L9.32394 7.9999C10.3023 8.18662 11.2826 8.35521 12.2351 8.5093L12.1151 11.9192C11.1644 11.7669 10.186 11.6074 9.2021 11.446ZM0.754749 8.12136C2.82597 8.89724 5.61161 9.64412 9.0378 10.3384L9.01934 10.8732C5.59499 10.1771 2.8149 9.43202 0.754749 8.65432V8.12136ZM0.754749 7.48144C2.83151 8.25913 5.62453 9.00782 9.05996 9.70394L9.0415 10.2387C5.60791 9.54078 2.82044 8.79391 0.754749 8.01622V7.48144ZM0.754749 6.84152C2.8352 7.62103 5.6356 8.36971 9.08395 9.06764L9.06549 9.60242C5.62268 8.90449 2.82782 8.1558 0.756596 7.37449V6.84152H0.754749ZM0.754749 6.2016C2.84074 6.98292 5.64668 7.73342 9.10611 8.43316L9.08765 8.96794C5.63376 8.2682 2.83151 7.5177 0.754749 6.73638V6.2016ZM0.754749 5.578C2.84259 6.56054 5.9605 7.3491 9.12272 7.96002L9.1098 8.33165C5.64483 7.63009 2.8352 6.87959 0.754749 6.09465V5.578ZM12.6228 2.61406L12.4345 2.90049C9.02857 2.15542 6.54753 1.29434 5.36793 0.846579L5.33286 0.833891L5.30886 0.864708C5.13718 1.0895 4.8289 1.17651 4.56307 1.07499L4.528 1.0623L4.504 1.09312L1.84943 4.55739L1.9122 4.58095C2.10418 4.65165 2.24633 4.80393 2.30171 4.99609C2.35709 5.18824 2.32017 5.39128 2.19833 5.55081L2.15772 5.60338L2.22048 5.62694C4.00188 6.29224 6.42016 6.91947 9.40701 7.48869L9.21687 7.77693C6.03434 7.1642 2.89243 6.372 0.808284 5.38403L4.7366 0.248356C5.22948 0.456828 8.11849 1.63696 12.6228 2.61406ZM2.39955 4.96889C2.34047 4.76767 2.20018 4.60452 2.01004 4.51388L4.56123 1.17651C4.8492 1.26896 5.17041 1.17832 5.36424 0.94991C6.55492 1.4013 9.01381 2.24969 12.3735 2.9875L9.46608 7.39805C6.49954 6.83427 4.09418 6.21429 2.31648 5.55624C2.42908 5.3804 2.45862 5.17012 2.39955 4.96889ZM15.6724 3.19053L12.2923 8.31714C11.3564 8.16668 10.3928 8.00171 9.431 7.81862L12.8332 2.65757C13.7211 2.84791 14.6681 3.02738 15.6724 3.19053ZM22.2516 4.96527C22.3623 5.17011 22.5598 5.30608 22.7887 5.34233L20.7858 8.58544C20.5218 8.56912 20.2708 8.69602 20.125 8.90993C18.7146 8.76853 15.9253 8.46398 12.7649 7.96908L15.6373 3.61292C17.8211 3.96642 20.04 4.20389 22.2331 4.31447C22.1334 4.52113 22.1389 4.75861 22.2516 4.96527ZM24.1419 3.95916L20.7858 9.39395C20.2689 9.34681 16.6766 9.01145 12.5102 8.3534L12.704 8.05972C15.9105 8.56187 18.7386 8.87005 20.1453 9.01145L20.1766 9.01507L20.1933 8.98788C20.3206 8.78122 20.5625 8.66157 20.808 8.68695L20.8394 8.69058L20.856 8.66339L22.9604 5.25713L22.8755 5.2535C22.6484 5.24263 22.4472 5.11936 22.3402 4.92176C22.2331 4.72235 22.2386 4.49031 22.3568 4.29634L22.4011 4.22564L22.3162 4.22202C20.1157 4.11325 17.8894 3.87759 15.6964 3.52409L15.8902 3.23223C18.3454 3.61654 21.1236 3.90296 24.1419 3.95916ZM22.3088 11.2067L24.2176 8.13042V8.19025L22.3088 11.2067ZM0.754749 9.4012C2.11895 9.91241 3.71021 10.3783 5.39008 10.7971C3.71206 10.5034 2.1208 10.2097 0.754749 9.93598V9.4012Z" fill="#084900"/>
<path d="M18.3809 6.69296C18.3211 6.77298 18.235 6.83257 18.1226 6.87173C18.0664 6.89216 18.0049 6.91259 17.9381 6.93473C17.8714 6.95686 17.8239 6.97559 17.7923 6.98751C17.6992 7.02156 17.6482 7.07094 17.6377 7.13734C17.6289 7.18842 17.6412 7.23609 17.6728 7.28376C17.7045 7.33144 17.7484 7.35868 17.8064 7.36719C17.8608 7.3757 17.9118 7.36208 17.9592 7.32633C18.0066 7.29057 18.0347 7.2463 18.0418 7.19012L18.0611 7.06924C18.0629 7.06072 18.0664 7.05732 18.0734 7.05732L18.3721 7.10158C18.3809 7.10329 18.3844 7.1084 18.3826 7.11691L18.3633 7.23779C18.3457 7.35357 18.293 7.45232 18.2069 7.53405C18.1208 7.61577 18.0225 7.66344 17.9083 7.68047L17.8784 7.86435C17.8766 7.87286 17.8714 7.87627 17.8626 7.87457L17.578 7.832C17.5674 7.8303 17.5621 7.82519 17.5639 7.81668L17.5938 7.62939C17.4919 7.58002 17.4146 7.5051 17.3601 7.40805C17.3056 7.311 17.2881 7.20033 17.3074 7.08115C17.3232 6.97559 17.3636 6.89216 17.4251 6.82917C17.4866 6.76617 17.5674 6.7185 17.664 6.68615L17.9592 6.58059C18.0277 6.55334 18.0769 6.5244 18.1068 6.49035C18.1366 6.4563 18.156 6.41373 18.1648 6.36095C18.1735 6.30647 18.1612 6.25539 18.1296 6.20942C18.098 6.16345 18.0541 6.13621 17.9996 6.1277C17.9469 6.11918 17.8977 6.1311 17.852 6.16345C17.8064 6.1941 17.7782 6.24007 17.7677 6.30136L17.7308 6.51418C17.729 6.521 17.7255 6.5227 17.7203 6.5227L17.4198 6.47843C17.4128 6.47673 17.4111 6.47332 17.4111 6.46822L17.4444 6.25539C17.462 6.14132 17.513 6.04427 17.5955 5.96595C17.6781 5.88763 17.7747 5.83995 17.8837 5.82293L17.9135 5.63564C17.9153 5.62713 17.9206 5.62372 17.9311 5.62543L18.2157 5.66799C18.2245 5.66969 18.228 5.6748 18.2262 5.68332L18.1964 5.8672C18.2983 5.91487 18.3773 5.98808 18.4353 6.08513C18.4933 6.18388 18.5109 6.29114 18.4933 6.41033C18.481 6.51929 18.4423 6.61294 18.3809 6.69296Z" fill="#084900"/>
<path d="M19.664 6.52024C19.7582 6.07865 19.664 5.62759 19.3966 5.25224C19.1291 4.87689 18.7237 4.6214 18.2527 4.53308C17.2788 4.35013 16.33 4.9447 16.1349 5.85628C15.9398 6.76943 16.5739 7.65892 17.5462 7.84187C17.6656 7.86395 17.7834 7.87498 17.9011 7.87498C18.7405 7.87656 19.4925 7.32142 19.664 6.52024ZM19.4841 6.48712C19.3091 7.30565 18.4546 7.83871 17.5832 7.67469C16.7102 7.51067 16.1416 6.71107 16.3166 5.89255C16.4696 5.17339 17.1459 4.67502 17.9011 4.67502C18.0054 4.67502 18.1114 4.68448 18.2191 4.70498C19.0904 4.86742 19.659 5.66702 19.4841 6.48712Z" fill="#084900"/>
<path d="M5.42825 4.57837C5.48956 4.51533 5.57014 4.46762 5.66648 4.43525L5.96078 4.32961C6.0291 4.30234 6.07815 4.27338 6.10793 4.2393C6.13771 4.20522 6.15698 4.16262 6.16574 4.1098C6.1745 4.05528 6.16223 4.00416 6.1307 3.95816C6.09917 3.91215 6.05538 3.88489 6.00107 3.87807C5.94852 3.86955 5.89947 3.88148 5.85392 3.91386C5.80838 3.94453 5.78035 3.99053 5.76984 4.05187L5.73305 4.26486C5.7313 4.27167 5.7278 4.27338 5.72254 4.27338L5.42299 4.22908C5.41598 4.22737 5.41423 4.22396 5.41423 4.21885L5.44751 4.00587C5.46503 3.89171 5.51583 3.79458 5.59817 3.7162C5.6805 3.63783 5.77685 3.59012 5.88545 3.57308L5.91524 3.38565C5.91699 3.37713 5.92224 3.37372 5.93275 3.37543L6.21654 3.41802C6.2253 3.41973 6.2288 3.42484 6.22705 3.43336L6.19727 3.61738C6.29887 3.66509 6.3777 3.73835 6.43551 3.83548C6.49332 3.9343 6.51083 4.04165 6.49332 4.16092C6.4758 4.26827 6.43726 4.36198 6.3777 4.44206C6.31814 4.52215 6.2323 4.58178 6.12019 4.62097C6.06413 4.64142 6.00282 4.66186 5.93626 4.68402C5.86969 4.70617 5.82239 4.72491 5.79086 4.73684C5.69802 4.77091 5.64722 4.82033 5.63671 4.88678C5.62795 4.9379 5.64021 4.98731 5.67174 5.03331C5.70327 5.08102 5.74707 5.10829 5.80487 5.11681C5.85918 5.12533 5.90998 5.11169 5.95728 5.07591C6.00458 5.04013 6.0326 4.99583 6.03961 4.9396L6.05888 4.81862C6.06063 4.81011 6.06414 4.8067 6.07114 4.8067L6.36894 4.851C6.3777 4.8527 6.3812 4.85781 6.37945 4.86633L6.36018 4.98731C6.34267 5.10317 6.29011 5.202 6.20427 5.28379C6.11844 5.36557 6.02034 5.41328 5.90648 5.43032L5.8767 5.61434C5.87494 5.62286 5.86969 5.62627 5.86093 5.62457L5.57715 5.58197C5.56664 5.58026 5.56138 5.57515 5.56313 5.56663L5.59291 5.3792C5.49131 5.32979 5.41423 5.25652 5.35993 5.1577C5.30562 5.06058 5.28811 4.94982 5.30737 4.83055C5.32664 4.72491 5.36693 4.64142 5.42825 4.57837Z" fill="#084900"/>
<path d="M4.13489 3.60628C3.93975 4.51943 4.57397 5.40892 5.54633 5.59187C5.66577 5.61395 5.78353 5.62499 5.89961 5.62499C6.73907 5.62499 7.49273 5.06984 7.66433 4.26867C7.85947 3.35552 7.22525 2.46602 6.25289 2.28308C5.27885 2.10013 4.33004 2.6947 4.13489 3.60628ZM4.3149 3.64097C4.46798 2.92181 5.14426 2.42344 5.89961 2.42344C6.00391 2.42344 6.1099 2.4329 6.21756 2.45341C7.09067 2.61743 7.65928 3.41702 7.48432 4.23555C7.30936 5.05407 6.45476 5.58714 5.58334 5.42312C4.70855 5.2591 4.14162 4.4595 4.3149 3.64097Z" fill="#084900"/>
</svg>
