<svg width="20" height="28" viewBox="0 0 20 28" fill="none" xmlns="http://www.w3.org/2000/svg">
<path d="M16.5991 26.416L16.0468 26.0677L15.772 25.8942L13.1561 24.2451L11.4774 26.9983L11.3009 27.2887L10.9465 27.8696C10.8163 28.083 10.5182 28.0231 10.465 27.7726L9.80384 24.667L9.68425 24.1054L9.01431 20.9564L8.91789 20.5029L8 16.1921L8.82146 15.9808L9.73747 16.2066L10.5996 15.9939L14.6312 15H14.6318L15.3594 18.4208L15.484 19.0045L16.9929 26.0925C17.0449 26.3444 16.8013 26.544 16.5991 26.416Z" fill="#F34522"/>
<path d="M14 15.0613L16.6866 26.8169L17 27L14.2571 15L14 15.0613Z" fill="#FFEB4A"/>
<path d="M9 16.0617L11.7946 28L12 27.6938L9.2627 16L9 16.0617Z" fill="#FFEB4A"/>
<path opacity="0.78" d="M12 16.4152L10.9839 20.2686L10.1322 23.4979L10.0003 24L9.86708 23.4979L9.01753 20.2735L8 16.4152L9.86708 16.0271L10.0003 16L10.1322 16.0271L12 16.4152Z" fill="#D73E16"/>
<path d="M11 16.212L10.0833 20.5104L9.98441 20.9722L9.31507 24.1122L8.53428 27.773C8.48106 28.0231 8.18239 28.0829 8.05278 27.8699L7.69839 27.29L7.52182 27L5.84315 24.2517L3.22715 25.8979L2.95228 26.0711L2.40002 26.4187C2.19716 26.5465 1.95422 26.3473 2.00744 26.0985L3.52394 18.9886L3.63351 18.476L4.37486 15L8.45288 16.0038L9.36892 16.2292L10.2311 16.0169L11 16.212Z" fill="#F34522"/>
<path d="M6 15.0613L3.31275 26.8169L3 27L5.74353 15L6 15.0613Z" fill="#FFEB4A"/>
<path d="M11 16.0617L8.20542 28L8 27.6938L10.738 16L11 16.0617Z" fill="#FFEB4A"/>
<path opacity="0.67" d="M17 19.0252C15.4171 20.1068 13.5154 20.802 11.4537 20.9636C11.3855 20.9684 11.316 20.9739 11.2472 20.978C11.0077 20.9924 10.7676 21 10.5246 21C10.2633 21 10.0021 20.9911 9.74438 20.9746C9.71489 20.9732 9.68539 20.9711 9.6566 20.9691C7.54916 20.815 5.60815 20.1041 4 18.9915L4.12289 18.4786L4.95435 15L9.52809 16.0046L10.5555 16.2301L11.5225 16.0177L16.0442 15.0248H16.0449L16.861 18.4421L17 19.0252Z" fill="#D73E16"/>
<path d="M20 10C20 15.5224 15.5224 20 10 20C7.61091 20 5.41736 19.162 3.69671 17.7632C3.05221 17.2398 2.47489 16.6378 1.97805 15.9721C1.68274 15.5757 1.41669 15.158 1.18191 14.7197C0.879281 14.1563 0.629863 13.5604 0.438975 12.9391C0.153641 12.01 0 11.0229 0 10C0 5.15996 3.43931 1.12205 8.00865 0.198203C8.6292 0.0731613 9.27037 0.00465645 9.92617 0.000665764C9.95078 6.49541e-07 9.97539 0 10 0C10.4782 0 10.9485 0.0339195 11.4094 0.0984357C12.2461 0.216826 13.0489 0.437647 13.8058 0.750251C17.4406 2.24742 20 5.82441 20 10Z" fill="#FFEB4A"/>
<path d="M10 2C5.30597 2 1.5 5.80476 1.5 10.5003C1.5 15.1946 5.30597 19 10 19C14.694 19 18.5 15.1952 18.5 10.5003C18.5007 5.80476 14.694 2 10 2Z" fill="#FAAF18"/>
<path d="M9.5 19C5.082 19 1.5 15.4191 1.5 11.0007C1.5 6.58163 5.082 3 9.5 3C13.918 3 17.5 6.58094 17.5 11.0007C17.5 15.4184 13.918 19 9.5 19Z" fill="#F39000"/>
<path d="M9 18C4.85824 18 1.5 14.6428 1.5 10.5006C1.5 6.35788 4.85824 3 9 3C13.1418 3 16.5 6.35723 16.5 10.5006C16.5 14.6428 13.1418 18 9 18Z" fill="#FFEB4A"/>
<path d="M9.5 4C6.18645 4 3.5 6.6859 3.5 10.0003C3.5 13.3141 6.18645 16 9.5 16C12.8135 16 15.5 13.3141 15.5 10.0003C15.5007 6.6859 12.8135 4 9.5 4ZM9.5 14.5001C7.01484 14.5001 4.99982 12.4857 4.99982 10.0003C4.99982 7.51434 7.01484 5.49992 9.5 5.49992C11.9852 5.49992 14.0002 7.51434 14.0002 10.0003C14.0002 12.4857 11.9852 14.5001 9.5 14.5001Z" fill="#EFA600"/>
<path d="M9.5 4C6.18645 4 3.5 6.68591 3.5 10.0004C3.5 13.3141 6.18645 16 9.5 16C12.8135 16 15.5 13.3141 15.5 10.0004C15.5 6.68591 12.8135 4 9.5 4ZM9.5 14.5001C7.01484 14.5001 4.99982 12.4857 4.99982 10.0004C4.99982 7.51434 7.01484 5.49992 9.5 5.49992C11.9852 5.49992 14.0002 7.51434 14.0002 10.0004C14.0002 12.4857 11.9852 14.5001 9.5 14.5001Z" fill="#FEC611"/>
<g opacity="0.17">
<path d="M9.5 0L1.20478 15C0.917695 14.4259 0.681085 13.8186 0.5 13.1856L7.68095 0.201978C8.26963 0.0738769 8.87724 0.00474448 9.5 0Z" fill="white"/>
</g>
<g opacity="0.14">
<path d="M13.5 0.663506L3.24379 18C2.58987 17.4666 2.00411 16.8533 1.5 16.1749L11.0686 0C11.9175 0.119959 12.732 0.34497 13.5 0.663506Z" fill="white"/>
</g>
</svg>
